<svg width="390" height="148" viewBox="0 0 390 148" fill="none" xmlns="http://www.w3.org/2000/svg">
<path d="M117.903 19.9507C117.29 20.017 116.701 20.3209 116.284 20.8393C115.449 21.8762 115.616 23.3937 116.653 24.228L122.429 28.8745L122.436 22.6918L119.672 20.4703C119.154 20.0531 118.516 19.8844 117.903 19.9507ZM136.096 19.9507C135.483 19.8838 134.845 20.0531 134.327 20.4703L132.075 22.2852L132.068 28.4752L137.347 24.228C138.383 23.3937 138.55 21.8762 137.716 20.8393C137.298 20.3209 136.71 20.0177 136.096 19.9507ZM113.648 31.1638C113.035 31.23 112.446 31.5262 112.029 32.0448C111.195 33.0815 111.361 34.5991 112.398 35.4334L122.399 43.4835L122.414 37.301L115.418 31.6833C114.899 31.2659 114.261 31.0973 113.648 31.1638ZM140.344 31.1638C139.73 31.0987 139.093 31.2659 138.574 31.6833L132.053 36.932L132.038 43.1297L141.601 35.4334C142.638 34.5991 142.797 33.0815 141.963 32.0448C141.546 31.5262 140.957 31.2286 140.344 31.1638ZM167.71 38.1745C166.394 37.9692 165.165 38.8702 164.96 40.1852L163.83 47.3993L169.194 44.3269L169.72 40.9233C169.925 39.6083 169.026 38.3798 167.71 38.1745ZM86.1693 38.3025C84.855 38.5121 83.9641 39.7519 84.1735 41.0662L84.5878 43.6794L89.9721 46.8046L88.9328 40.3057C88.7234 38.9914 87.4836 38.0931 86.1693 38.3025ZM155.878 40.0874C154.565 39.8821 153.328 40.7831 153.123 42.0978L151.158 54.6814L156.512 51.6015L157.883 42.836C158.088 41.5209 157.194 40.2927 155.878 40.0874ZM98.0147 40.1777C96.7004 40.3871 95.8021 41.6195 96.0117 42.9338L97.3144 51.0819L102.684 54.2069L100.771 42.1807C100.561 40.8665 99.329 39.9681 98.0147 40.1777ZM80.4234 52.3996L76.8992 53.7852C75.6601 54.271 75.0504 55.6638 75.5362 56.903C76.0218 58.142 77.4146 58.7592 78.6537 58.2736L85.7399 55.4947L80.4234 52.3996ZM174.245 52.5353L168.876 55.6229L175.293 58.1153C176.534 58.597 177.93 57.9779 178.409 56.7372C178.891 55.4966 178.272 54.1014 177.033 53.6196L174.245 52.5353ZM122.383 54.7267L112.94 60.1711L117.745 62.965L122.368 60.2916L122.383 54.7267ZM132.015 54.9525L132.007 60.5176L136.488 63.1081L141.33 60.3294L132.015 54.9525ZM92.9995 59.7195L84.5126 63.0404C83.2735 63.5259 82.6638 64.9265 83.1494 66.1656C83.6352 67.4045 85.0355 68.0141 86.2746 67.5286L98.3085 62.8069L92.9995 59.7195ZM161.551 59.8323L156.172 62.9199L167.703 67.3929C168.944 67.8746 170.339 67.263 170.819 66.0225C171.3 64.7817 170.691 63.3864 169.45 62.9047L161.551 59.8323ZM108.716 68.8614V79.0653L113.535 76.3016V71.6628L108.716 68.8614ZM145.276 69.1778L140.457 71.949V76.1811L145.276 78.9824V69.1778ZM168.667 80.3078C168.353 80.2996 168.035 80.3521 167.724 80.4733L155.842 85.1273L161.158 88.2224L169.486 84.9618C170.727 84.4759 171.337 83.0756 170.85 81.8365C170.486 80.9071 169.604 80.3326 168.667 80.3078ZM85.3485 80.4435C84.4097 80.4712 83.5332 81.049 83.172 81.9794C82.6903 83.2202 83.3096 84.6155 84.5502 85.0972L92.7058 88.26L98.075 85.1801L86.2972 80.609C85.9871 80.4885 85.6613 80.4341 85.3485 80.4435ZM134.944 84.1183C133.7 84.8374 133.184 85.1331 131.97 85.8351L131.962 91.4079C134.769 89.7866 136.665 88.6887 139.741 86.912L134.944 84.1183ZM119.168 84.1861L114.333 86.9573L122.323 91.5734L122.331 86.0158L119.168 84.1861ZM176.286 89.5627C175.973 89.5545 175.655 89.6071 175.346 89.7285L168.418 92.447L173.734 95.5344L177.101 94.2167C178.339 93.7309 178.949 92.3306 178.462 91.0915C178.098 90.1623 177.226 89.5878 176.286 89.5627ZM77.7652 89.721C76.8264 89.7487 75.9502 90.3266 75.589 91.257C75.107 92.4978 75.7189 93.9005 76.9594 94.3822L80.0017 95.5647L85.3709 92.4771L78.7065 89.8866C78.3963 89.7661 78.078 89.7116 77.7652 89.721ZM102.797 93.5841L97.4349 96.6641L96.1096 105.166C95.9042 106.481 96.8053 107.709 98.1203 107.915C99.435 108.12 100.671 107.219 100.876 105.904L102.797 93.5841ZM151.285 93.6292L153.228 105.821C153.438 107.135 154.671 108.034 155.984 107.824C157.3 107.615 158.196 106.375 157.989 105.061L156.664 96.7544L151.285 93.6292ZM90.1302 100.866L84.7685 103.946L84.2791 107.071C84.0738 108.386 84.9748 109.622 86.2898 109.827C87.6048 110.033 88.833 109.132 89.0384 107.817L90.1302 100.866ZM164.004 101.024L165.066 107.696C165.276 109.01 166.507 109.909 167.823 109.699C169.136 109.49 170.035 108.25 169.826 106.936L169.382 104.157L164.004 101.024ZM122.301 104.601L112.398 112.568C111.361 113.403 111.195 114.92 112.029 115.957C112.863 116.994 114.381 117.153 115.418 116.319L122.286 110.799L122.301 104.601ZM131.94 104.79L131.925 110.972L138.574 116.319C139.611 117.153 141.129 116.994 141.963 115.957C142.797 114.92 142.638 113.403 141.601 112.568L131.94 104.79ZM122.27 119.248L116.653 123.774C115.616 124.608 115.449 126.126 116.284 127.163C117.118 128.199 118.636 128.366 119.672 127.532L122.263 125.446L122.27 119.248ZM131.91 119.399L131.902 125.581L134.327 127.532C135.364 128.366 136.881 128.199 137.716 127.163C138.55 126.126 138.383 124.608 137.347 123.774L131.91 119.399Z" fill="black"/>
<path d="M126.999 16C125.668 16 124.59 17.0789 124.59 18.4098V69.8433L79.9412 44.3072C79.6522 44.1419 79.3406 44.0434 79.03 44.006C78.0974 43.8942 77.1458 44.3369 76.6504 45.2034C75.9894 46.3587 76.3911 47.8334 77.5463 48.4942L122.157 74.0076L77.6292 99.6716C76.4762 100.336 76.0836 101.809 76.7482 102.962C77.4126 104.115 78.8859 104.508 80.039 103.843L124.59 78.1719V129.59C124.59 130.921 125.668 132 126.999 132C128.33 132 129.409 130.921 129.409 129.59V78.157L174.057 103.693C175.214 104.354 176.689 103.952 177.349 102.797C178.009 101.642 177.607 100.167 176.452 99.5058L131.841 73.9924L176.371 48.3361C177.522 47.6715 177.915 46.1907 177.25 45.0376C176.751 44.1728 175.802 43.7405 174.872 43.8554C174.561 43.8937 174.248 43.9904 173.961 44.1566L129.409 69.8281V18.4098C129.409 17.0789 128.33 16 126.999 16Z" fill="black"/>
<path d="M194.588 52.432C193.116 52.432 191.868 51.184 191.868 49.68C191.868 48.208 193.116 46.96 194.588 46.96C196.06 46.96 197.308 48.208 197.308 49.68C197.308 51.184 196.06 52.432 194.588 52.432ZM196.828 68.72C196.828 69.584 196.412 70 195.548 70H193.628C192.764 70 192.348 69.584 192.348 68.72V55.92C192.348 55.056 192.764 54.64 193.628 54.64H195.548C196.412 54.64 196.828 55.056 196.828 55.92V68.72ZM203.803 69.36C203.803 70.224 203.387 70.64 202.523 70.64H200.603C199.739 70.64 199.323 70.224 199.323 69.36V54C199.323 53.136 199.739 52.72 200.603 52.72H202.523C203.387 52.72 203.803 53.136 203.803 54V56.4C205.019 54.512 207.035 53.616 208.827 53.616C211.931 53.616 214.235 55.632 214.235 60.272V68.72C214.235 69.584 213.819 70 212.955 70H211.035C210.171 70 209.755 69.584 209.755 68.72V61.712C209.755 59.376 208.827 58.256 207.291 58.256C205.179 58.256 203.803 59.568 203.803 62.512V69.36ZM225.19 70H222.758C221.958 70 221.798 69.84 221.286 68.784L215.398 56.592C214.886 55.504 215.142 55.312 216.262 54.832L217.766 54.192C218.822 53.744 219.11 54.16 219.686 55.44L223.494 63.728L226.47 54.32C226.886 53.04 227.302 52.752 228.358 53.072L230.182 53.616C231.302 53.936 231.398 54.288 231.046 55.376L226.662 68.784C226.31 69.84 225.99 70 225.19 70ZM239.952 70.384C234.864 70.384 231.568 66.96 231.568 62C231.568 57.424 234.288 53.616 239.6 53.616C243.728 53.616 246.512 56.4 246.512 60.848C246.512 62.128 246.384 62.672 245.264 62.8L236.336 63.824C236.976 65.232 238.384 66.224 240.56 66.224C241.776 66.224 243.152 65.488 244.24 64.88C244.72 64.592 245.2 64.848 245.424 65.456L246.064 67.12C246.288 67.728 246.448 68.048 245.936 68.464C244.368 69.712 242 70.384 239.952 70.384ZM239.28 57.776C237.616 57.776 236.528 58.512 236.144 60.368L241.904 59.696C241.616 58.544 240.656 57.776 239.28 57.776ZM252.541 68.72C252.541 69.584 252.125 70 251.261 70H249.341C248.477 70 248.061 69.584 248.061 68.72V53.68C248.061 52.816 248.477 52.4 249.341 52.4H251.261C252.125 52.4 252.541 52.816 252.541 53.68V56.336C253.597 54.608 255.229 53.616 256.733 53.616C257.437 53.616 258.173 53.776 258.589 54.032C258.845 54.192 258.909 54.416 258.877 54.64L258.557 58.32C258.525 58.8 258.237 58.96 257.693 58.832C256.797 58.64 256.189 58.576 255.645 58.576C253.885 58.576 252.541 59.92 252.541 62.512V68.72ZM264.703 69.36C264.703 70.224 264.287 70.64 263.423 70.64H261.503C260.639 70.64 260.223 70.224 260.223 69.36V54C260.223 53.136 260.639 52.72 261.503 52.72H263.423C264.287 52.72 264.703 53.136 264.703 54V56.4C265.919 54.512 267.935 53.616 269.727 53.616C272.831 53.616 275.135 55.632 275.135 60.272V68.72C275.135 69.584 274.719 70 273.855 70H271.935C271.071 70 270.655 69.584 270.655 68.72V61.712C270.655 59.376 269.727 58.256 268.191 58.256C266.079 58.256 264.703 59.568 264.703 62.512V69.36ZM284.65 70.384C279.658 70.384 276.618 66.8 276.618 62C276.618 57.2 279.658 53.616 284.65 53.616C289.642 53.616 292.682 57.2 292.682 62C292.682 66.8 289.642 70.384 284.65 70.384ZM284.65 65.744C286.602 65.744 288.202 64.72 288.202 62C288.202 59.28 286.602 58.256 284.65 58.256C282.698 58.256 281.098 59.28 281.098 62C281.098 64.72 282.698 65.744 284.65 65.744Z" fill="black"/>
<path d="M195.529 105.76C195.529 106.4 195.209 106.72 194.569 106.72H193.929C193.289 106.72 192.969 106.4 192.969 105.76V84.96C192.969 84.32 193.289 84 193.929 84H194.569C195.209 84 195.529 84.32 195.529 84.96V86.592C196.745 85.056 198.537 84.32 200.329 84.32C203.913 84.32 206.761 87.52 206.761 92.48C206.761 97.28 203.785 100.32 200.009 100.32C198.601 100.32 197.001 99.904 195.529 99.232V105.76ZM200.009 97.6C202.409 97.6 204.201 95.936 204.201 92.48C204.201 88.992 202.121 87.04 199.817 87.04C197.577 87.04 195.529 88.992 195.529 91.552V96.224C196.905 97.152 198.473 97.6 200.009 97.6ZM212.317 99.36C212.317 100 211.997 100.32 211.357 100.32H210.717C210.077 100.32 209.757 100 209.757 99.36V84C209.757 83.36 210.077 83.04 210.717 83.04H211.357C211.997 83.04 212.317 83.36 212.317 84V86.048C213.309 84.768 214.749 84 216.477 84C217.213 84 217.981 84.192 218.397 84.416C218.621 84.544 218.653 84.672 218.621 84.96L218.301 86.944C218.237 87.328 218.013 87.36 217.693 87.296C216.797 87.136 216.221 87.04 215.741 87.04C213.789 87.04 212.317 88.672 212.317 90.912V99.36ZM227.262 100.32C222.686 100.32 219.87 96.896 219.87 92.32C219.87 87.552 222.686 84 227.262 84C231.838 84 234.622 87.552 234.622 92.32C234.622 96.896 231.838 100.32 227.262 100.32ZM227.262 97.6C230.206 97.6 232.062 95.872 232.062 92.32C232.062 88.576 230.206 86.72 227.262 86.72C224.318 86.72 222.43 88.544 222.43 92.32C222.43 95.872 224.318 97.6 227.262 97.6ZM241.88 99.36C241.88 99.776 241.656 100 241.24 100H239.96C239.544 100 239.32 99.776 239.32 99.36V87.296L236.728 87.392C236.28 87.424 236.152 87.136 236.152 86.72V85.44C236.152 85.024 236.472 84.704 236.92 84.672L239.32 84.576V82.528C239.32 78.464 241.496 76.384 245.048 76.672L245.464 76.704C245.592 76.704 245.752 76.736 245.88 76.736C246.392 76.768 246.552 76.96 246.456 77.472L246.36 77.952L246.2 78.912C246.104 79.36 245.912 79.488 245.336 79.424L244.664 79.36C244.472 79.328 244.312 79.328 244.152 79.328C242.552 79.392 241.88 80.576 241.88 83.296V84.48L245.848 84.352C246.296 84.32 246.424 84.608 246.424 85.024V86.304C246.424 86.72 246.104 87.04 245.656 87.072L241.88 87.2V99.36ZM259.421 99.04V97.728C258.141 99.328 256.221 100.32 254.237 100.32C251.197 100.32 248.989 98.528 248.989 94.368V85.28C248.989 84.64 249.309 84.32 249.949 84.32H250.589C251.229 84.32 251.549 84.64 251.549 85.28V93.248C251.549 96.192 252.925 97.6 255.133 97.6C257.373 97.6 259.421 95.648 259.421 93.088V84.32C259.421 83.68 259.741 83.36 260.381 83.36H261.021C261.661 83.36 261.981 83.68 261.981 84.32V99.04C261.981 99.68 261.661 100 261.021 100H260.381C259.741 100 259.421 99.68 259.421 99.04ZM268.311 99.36C268.311 100 267.991 100.32 267.351 100.32H266.711C266.071 100.32 265.751 100 265.751 99.36V84.32C265.751 83.68 266.071 83.36 266.711 83.36H267.351C267.991 83.36 268.311 83.68 268.311 84.32V86.592C269.591 84.992 271.511 84 273.495 84C276.535 84 278.743 85.792 278.743 89.952V99.04C278.743 99.68 278.423 100 277.783 100H277.143C276.503 100 276.183 99.68 276.183 99.04V91.072C276.183 88.128 274.807 86.72 272.599 86.72C270.359 86.72 268.311 88.672 268.311 91.232V99.36ZM294.352 100.32H293.712C293.072 100.32 292.752 100 292.752 99.36V97.728C291.536 99.264 289.744 100 287.952 100C284.368 100 281.52 96.8 281.52 91.84C281.52 87.04 284.496 84 288.272 84C289.68 84 291.28 84.416 292.752 85.088V77.92C292.752 77.28 293.072 76.96 293.712 76.96H294.352C294.992 76.96 295.312 77.28 295.312 77.92V99.36C295.312 100 294.992 100.32 294.352 100.32ZM288.464 97.28C290.704 97.28 292.752 95.328 292.752 92.768V88.096C291.376 87.168 289.808 86.72 288.272 86.72C285.872 86.72 284.08 88.384 284.08 91.84C284.08 95.328 286.16 97.28 288.464 97.28ZM305.7 100.32C301.124 100.32 298.308 96.896 298.308 92.32C298.308 87.552 301.124 84 305.7 84C310.276 84 313.06 87.552 313.06 92.32C313.06 96.896 310.276 100.32 305.7 100.32ZM305.7 97.6C308.644 97.6 310.5 95.872 310.5 92.32C310.5 88.576 308.644 86.72 305.7 86.72C302.756 86.72 300.868 88.544 300.868 92.32C300.868 95.872 302.756 97.6 305.7 97.6Z" fill="black"/>
</svg>
