<svg width="406" height="563" viewBox="0 0 406 563" fill="none" xmlns="http://www.w3.org/2000/svg">
<path d="M35.5713 66.1349L5.34131 199.405L18.3213 557.7L181.281 562.411L202.711 333.872L227.781 553.942H390.711L400.081 199.405L364.261 73.416L35.5713 66.1349Z" fill="#DCC7BC"/>
<path d="M27.4414 88.062C22.5714 88.065 17.9215 90.9489 15.9115 95.7189C13.2215 102.079 16.2016 109.408 22.5616 112.094C33.3716 116.659 44.3415 120.911 55.5915 124.25C68.4315 128.058 81.5615 130.745 94.6615 133.469C101.422 134.874 108.031 130.509 109.441 123.75C110.841 116.991 106.512 110.374 99.7515 108.969C87.3315 106.387 74.8615 103.891 62.6914 100.281C52.3214 97.206 42.2716 93.267 32.3116 89.062C30.7216 88.391 29.0614 88.062 27.4414 88.062ZM294.001 114.406C293.172 114.347 292.321 114.357 291.471 114.469C252.941 119.5 213.922 121.145 175.122 118.844C162.592 118.1 150.122 116.889 137.662 115.344C130.812 114.494 124.541 119.336 123.691 126.188C122.841 133.039 127.712 139.275 134.562 140.125C147.552 141.736 160.592 143.006 173.662 143.781C214.032 146.176 254.631 144.517 294.721 139.281C301.561 138.387 306.361 132.095 305.471 125.25C304.691 119.26 299.801 114.824 294.001 114.406ZM374.411 97C372.781 97.016 371.112 97.375 369.532 98.062C364.582 100.216 359.551 102.132 354.381 103.688C348.791 105.367 343.082 106.629 337.342 107.688C330.552 108.941 326.092 115.461 327.342 122.25C328.602 129.039 335.121 133.535 341.911 132.281C348.541 131.056 355.102 129.566 361.562 127.625C367.682 125.786 373.642 123.514 379.501 120.969C385.831 118.217 388.751 110.863 386.001 104.531C383.941 99.783 379.281 96.952 374.411 97Z" fill="black"/>
<path d="M222.591 137.188C219.831 137.09 217.531 139.24 217.441 142C216.931 156.35 216.751 170.705 216.591 185.062C216.401 202.98 216.311 220.894 216.281 238.812C216.261 250.014 216.261 261.236 216.281 272.438C216.291 275.835 216.301 279.227 216.311 282.625C216.321 283.848 216.311 285.059 216.311 286.281C216.311 286.456 216.311 286.637 216.311 286.812C216.241 286.98 216.171 287.145 216.091 287.312C215.631 288.354 215.151 289.396 214.691 290.438C213.261 293.655 211.841 296.878 210.411 300.094C206.401 309.064 202.511 318.103 198.221 326.938C197.011 329.421 198.051 332.417 200.531 333.625C203.011 334.833 206.011 333.796 207.221 331.312C211.761 321.979 215.831 312.415 220.061 302.938C221.441 299.853 222.811 296.774 224.191 293.688C224.931 292.009 225.901 290.288 226.281 288.469C226.401 287.921 226.311 287.215 226.311 286.656C226.311 285.548 226.321 284.452 226.311 283.344C226.301 280.109 226.291 276.86 226.281 273.625C226.261 263.263 226.271 252.893 226.281 242.531C226.311 223.408 226.391 204.31 226.591 185.188C226.751 170.912 226.931 156.612 227.441 142.344C227.531 139.584 225.351 137.285 222.591 137.188Z" fill="black"/>
<path d="M116.411 77.656C114.471 77.861 112.761 79.175 112.161 81.156C105.951 101.6 100.841 122.223 96.7211 143.188C96.1911 145.897 97.9512 148.499 100.661 149.031C103.371 149.564 106.001 147.803 106.531 145.094C110.591 124.459 115.611 104.184 121.721 84.062C122.521 81.42 121.051 78.646 118.411 77.844C117.751 77.643 117.051 77.588 116.411 77.656Z" fill="black"/>
<path d="M134.031 81.969C131.281 81.711 128.851 83.719 128.591 86.469C126.711 106.502 124.201 126.436 121.281 146.344C120.881 149.076 122.771 151.631 125.501 152.031C128.231 152.431 130.791 150.545 131.191 147.812C134.131 127.734 136.631 107.611 138.531 87.406C138.791 84.657 136.781 82.227 134.031 81.969Z" fill="black"/>
<path d="M295.532 84.938C292.812 85.396 290.982 87.996 291.442 90.719C293.552 103.28 295.362 115.865 296.442 128.562C297.202 137.598 297.592 146.652 297.622 155.719C297.642 158.48 299.862 160.731 302.622 160.719C305.392 160.707 307.642 158.449 307.622 155.688C307.592 146.353 307.192 137.021 306.412 127.719C305.312 114.748 303.442 101.863 301.282 89.031C300.822 86.308 298.252 84.479 295.532 84.938Z" fill="black"/>
<path d="M315.912 80.656C315.262 80.688 314.592 80.857 313.972 81.156C311.482 82.355 310.432 85.356 311.622 87.844C315.732 96.368 319.382 105.093 322.312 114.094C325.772 124.705 328.232 135.556 330.032 146.562C330.482 149.288 333.062 151.134 335.782 150.688C338.512 150.241 340.352 147.694 339.912 144.969C338.022 133.461 335.432 122.095 331.812 111C328.742 101.574 324.962 92.427 320.662 83.5C319.762 81.634 317.852 80.561 315.912 80.656Z" fill="black"/>
<path d="M199.761 143.221L202.711 333.872" stroke="black" stroke-width="5" stroke-miterlimit="10" stroke-linejoin="round"/>
<path d="M190.562 123.166C190.562 117.843 194.871 113.528 200.201 113.528H228.961C234.281 113.528 238.601 117.843 238.601 123.166V145.665C238.601 150.988 234.281 155.304 228.961 155.304H200.201C194.871 155.304 190.562 150.988 190.562 145.665V123.166Z" fill="#FFCA00"/>
<path d="M19.1211 77.397C19.1211 77.397 95.4611 105.544 194.451 109.485C293.441 113.425 383.351 79.442 383.351 79.442L374.361 39.498L390.711 0.765686H21.7411L30.6311 41.465L19.1211 77.397Z" fill="#282828"/>
<path d="M298.882 177.259L325.482 234.079L344.112 553.942" stroke="black" stroke-width="5" stroke-miterlimit="10" stroke-linecap="round" stroke-linejoin="round"/>
<path d="M109.801 175.075L83.2012 231.895L73.2612 557.7" stroke="black" stroke-width="5" stroke-miterlimit="10" stroke-linecap="round" stroke-linejoin="round"/>
<path d="M73.2614 164.373L5.34131 217.763" stroke="black" stroke-width="10" stroke-miterlimit="10" stroke-linecap="round" stroke-linejoin="round"/>
<path d="M335.752 170.675L400.082 217.763" stroke="black" stroke-width="10" stroke-miterlimit="10" stroke-linecap="round" stroke-linejoin="round"/>
</svg>
