<svg width="406" height="562" viewBox="0 0 406 562" fill="none" xmlns="http://www.w3.org/2000/svg">
<path d="M35.9419 65.7131L5.71191 198.983L18.6919 557.278L181.652 561.989L203.082 333.45L228.152 553.52H391.082L400.452 198.983L364.632 72.9941L35.9419 65.7131Z" fill="#DCC7BC"/>
<path d="M27.8121 87.6401C22.9421 87.6431 18.2921 90.5271 16.2821 95.2971C13.5921 101.657 16.5722 108.986 22.9322 111.672C33.7422 116.237 44.7121 120.489 55.9621 123.828C68.8021 127.636 81.9321 130.323 95.0321 133.047C101.792 134.452 108.402 130.087 109.812 123.328C111.212 116.569 106.882 109.952 100.122 108.547C87.7021 105.965 75.2321 103.469 63.0621 99.8591C52.6921 96.7841 42.6422 92.8451 32.6822 88.6401C31.0922 87.9691 29.4321 87.6401 27.8121 87.6401ZM294.372 113.984C293.542 113.925 292.692 113.935 291.842 114.047C253.312 119.078 214.292 120.723 175.492 118.422C162.962 117.678 150.492 116.467 138.032 114.922C131.182 114.072 124.912 118.914 124.062 125.766C123.212 132.617 128.082 138.853 134.932 139.703C147.922 141.314 160.962 142.584 174.032 143.359C214.402 145.754 255.002 144.095 295.092 138.859C301.932 137.965 306.732 131.673 305.842 124.828C305.062 118.838 300.172 114.402 294.372 113.984ZM374.782 96.5781C373.152 96.5941 371.482 96.9531 369.902 97.6401C364.952 99.7941 359.922 101.71 354.752 103.266C349.162 104.945 343.452 106.207 337.712 107.266C330.922 108.519 326.462 115.039 327.712 121.828C328.972 128.617 335.492 133.113 342.282 131.859C348.912 130.634 355.472 129.144 361.932 127.203C368.052 125.364 374.012 123.092 379.872 120.547C386.202 117.795 389.122 110.441 386.372 104.109C384.312 99.3611 379.652 96.5301 374.782 96.5781Z" fill="white"/>
<path d="M222.962 136.766C220.202 136.668 217.902 138.818 217.812 141.578C217.302 155.928 217.122 170.283 216.962 184.64C216.772 202.558 216.682 220.472 216.652 238.39C216.632 249.592 216.632 260.814 216.652 272.016C216.662 275.413 216.672 278.805 216.682 282.203C216.692 283.426 216.682 284.637 216.682 285.859C216.682 286.034 216.682 286.215 216.682 286.39C216.612 286.558 216.542 286.723 216.462 286.89C216.002 287.932 215.522 288.974 215.062 290.016C213.632 293.233 212.212 296.456 210.782 299.672C206.772 308.642 202.882 317.681 198.592 326.516C197.382 328.999 198.422 331.995 200.902 333.203C203.382 334.411 206.382 333.374 207.592 330.89C212.132 321.557 216.202 311.993 220.432 302.516C221.812 299.431 223.182 296.352 224.562 293.266C225.302 291.587 226.272 289.866 226.652 288.047C226.772 287.499 226.682 286.793 226.682 286.234C226.682 285.126 226.692 284.03 226.682 282.922C226.672 279.687 226.662 276.438 226.652 273.203C226.632 262.841 226.642 252.471 226.652 242.109C226.682 222.986 226.762 203.888 226.962 184.766C227.122 170.49 227.302 156.19 227.812 141.922C227.902 139.162 225.722 136.863 222.962 136.766Z" fill="white"/>
<path d="M116.782 77.234C114.842 77.439 113.132 78.753 112.532 80.734C106.322 101.178 101.212 121.801 97.0917 142.766C96.5617 145.475 98.3218 148.077 101.032 148.609C103.742 149.142 106.372 147.381 106.902 144.672C110.962 124.037 115.982 103.762 122.092 83.64C122.892 80.998 121.422 78.224 118.782 77.422C118.122 77.221 117.422 77.166 116.782 77.234Z" fill="white"/>
<path d="M134.402 81.547C131.652 81.289 129.222 83.297 128.962 86.047C127.082 106.08 124.572 126.014 121.652 145.922C121.252 148.654 123.142 151.209 125.872 151.609C128.602 152.009 131.162 150.123 131.562 147.39C134.502 127.312 137.002 107.189 138.902 86.984C139.162 84.235 137.152 81.805 134.402 81.547Z" fill="white"/>
<path d="M295.903 84.5161C293.183 84.9741 291.352 87.5741 291.812 90.2971C293.922 102.858 295.732 115.443 296.812 128.14C297.572 137.176 297.963 146.23 297.993 155.297C298.013 158.058 300.233 160.309 302.993 160.297C305.763 160.285 308.013 158.027 307.993 155.266C307.963 145.931 307.562 136.599 306.782 127.297C305.682 114.326 303.813 101.441 301.653 88.6091C301.193 85.8861 298.623 84.0571 295.903 84.5161Z" fill="white"/>
<path d="M316.283 80.2341C315.633 80.2661 314.963 80.4351 314.343 80.7341C311.853 81.9331 310.803 84.9341 311.993 87.4221C316.103 95.9461 319.753 104.671 322.683 113.672C326.143 124.283 328.603 135.134 330.403 146.14C330.853 148.866 333.433 150.712 336.153 150.266C338.883 149.819 340.723 147.272 340.283 144.547C338.393 133.039 335.803 121.673 332.183 110.578C329.113 101.152 325.333 92.0051 321.033 83.0781C320.133 81.2121 318.223 80.1391 316.283 80.2341Z" fill="white"/>
<path d="M200.132 142.799L203.082 333.45" stroke="white" stroke-width="5" stroke-miterlimit="10" stroke-linejoin="round"/>
<path d="M190.932 122.744C190.932 117.421 195.242 113.106 200.572 113.106H229.332C234.652 113.106 238.972 117.421 238.972 122.744V145.243C238.972 150.566 234.652 154.882 229.332 154.882H200.572C195.242 154.882 190.932 150.566 190.932 145.243V122.744Z" fill="#FFCA00"/>
<path d="M19.4919 76.9751C19.4919 76.9751 95.8319 105.122 194.822 109.063C293.812 113.003 383.722 79.0201 383.722 79.0201L374.732 39.076L391.082 0.34375H22.1119L31.002 41.043L19.4919 76.9751Z" fill="#D2D1D1"/>
<path d="M299.252 176.837L325.853 233.657L344.483 553.52" stroke="white" stroke-width="5" stroke-miterlimit="10" stroke-linecap="round" stroke-linejoin="round"/>
<path d="M110.172 174.653L83.5718 231.473L73.6318 557.278" stroke="white" stroke-width="5" stroke-miterlimit="10" stroke-linecap="round" stroke-linejoin="round"/>
<path d="M73.632 163.951L5.71191 217.341" stroke="white" stroke-width="10" stroke-miterlimit="10" stroke-linecap="round" stroke-linejoin="round"/>
<path d="M336.123 170.253L400.453 217.341" stroke="white" stroke-width="10" stroke-miterlimit="10" stroke-linecap="round" stroke-linejoin="round"/>
</svg>
