<svg width="390" height="148" viewBox="0 0 390 148" fill="none" xmlns="http://www.w3.org/2000/svg">
<path d="M127.848 49.8911C120.156 49.8911 113.919 56.127 113.919 63.8186C113.919 66.2722 114.56 68.5684 115.674 70.5707C115.146 71.1881 114.614 71.8083 114.1 72.4572C109.06 78.8028 105.321 85.8676 103.455 93.5898C101.485 101.741 102.083 109.616 104.85 116.773C107.205 122.855 111.058 128.177 115.577 132L120.182 126.555C116.561 123.492 113.413 119.146 111.498 114.195C109.246 108.37 108.763 101.976 110.386 95.2611C111.987 88.6325 115.249 82.4775 119.685 76.8917C120.002 76.4907 120.334 76.1133 120.657 75.7255C122.758 76.9963 125.213 77.746 127.848 77.746C135.54 77.746 141.774 71.5099 141.774 63.8186C141.774 56.127 135.54 49.8911 127.848 49.8911Z" fill="#FF5900"/>
<path d="M124.867 85.6697C124.867 85.6697 125.393 117.556 143.141 110.292C163.855 101.813 158.119 89.9321 146.159 81.8846C134.202 73.8371 167.051 101.54 172.891 83.2743C179.705 61.9545 149.318 62.3393 149.318 62.3393C149.318 62.3393 181.146 60.3678 173.085 42.968C163.675 22.6589 149.272 33.2752 141.774 45.586C134.28 57.897 158.833 19.0845 139.848 16.3928C110.309 12.2053 122.037 42.8768 122.037 42.8768C122.037 42.8768 115.014 10.7645 100.196 22.936C82.9002 37.1426 93.3904 49.0126 107.191 53.1787C120.988 57.3448 80.8279 37.6934 78.1553 56.6825C75.0339 78.8467 92.8931 77.7485 105.873 71.4781" stroke="#FF5900" stroke-width="5" stroke-miterlimit="10" stroke-linejoin="round"/>
<path d="M65.1611 78.1348C65.1611 78.1348 59.4243 92.4353 69.9946 105.495C81.2252 119.37 92.4558 112.224 96.326 109.023C95.0912 106.263 92.4072 101.251 87.9481 98.5991C81.6568 94.8549 74.8167 93.4271 74.8167 93.4271C74.8167 93.4271 84.498 94.068 89.5031 97.3751C94.5424 100.706 97.0949 103.298 98.3726 104.789C98.8843 100.519 98.6242 92.5224 90.4063 88.148C78.8785 82.0119 72.3699 86.669 65.1611 78.1348Z" fill="#FF5900"/>
<path d="M192.804 75.44C192.804 76.304 192.388 76.72 191.524 76.72H189.604C188.74 76.72 188.324 76.304 188.324 75.44V54.64C188.324 53.776 188.74 53.36 189.604 53.36H191.524C192.388 53.36 192.804 53.776 192.804 54.64V55.824C193.924 54.64 195.524 54 197.284 54C200.996 54 204.036 57.232 204.036 62.192C204.036 67.216 200.516 70.384 196.004 70.384C194.916 70.384 193.86 70.256 192.804 70V75.44ZM196.004 65.776C198.052 65.776 199.556 64.592 199.556 62.192C199.556 60.112 198.308 58.64 196.356 58.64C194.116 58.64 192.804 60.176 192.804 62.896V65.296C193.764 65.616 194.788 65.776 196.004 65.776ZM210.216 68.72C210.216 69.584 209.8 70 208.936 70H207.016C206.152 70 205.736 69.584 205.736 68.72V53.68C205.736 52.816 206.152 52.4 207.016 52.4H208.936C209.8 52.4 210.216 52.816 210.216 53.68V56.336C211.272 54.608 212.904 53.616 214.408 53.616C215.112 53.616 215.848 53.776 216.264 54.032C216.52 54.192 216.584 54.416 216.552 54.64L216.232 58.32C216.2 58.8 215.912 58.96 215.368 58.832C214.472 58.64 213.864 58.576 213.32 58.576C211.56 58.576 210.216 59.92 210.216 62.512V68.72ZM220.139 52.432C218.667 52.432 217.419 51.184 217.419 49.68C217.419 48.208 218.667 46.96 220.139 46.96C221.611 46.96 222.859 48.208 222.859 49.68C222.859 51.184 221.611 52.432 220.139 52.432ZM222.379 68.72C222.379 69.584 221.963 70 221.099 70H219.179C218.315 70 217.899 69.584 217.899 68.72V55.92C217.899 55.056 218.315 54.64 219.179 54.64H221.099C221.963 54.64 222.379 55.056 222.379 55.92V68.72ZM239.306 69.36C239.306 70.224 238.89 70.64 238.026 70.64H236.106C235.242 70.64 234.826 70.224 234.826 69.36V61.712C234.826 59.344 233.898 58.224 232.362 58.224C230.25 58.224 229.354 59.536 229.354 62.512V68.72C229.354 69.584 228.938 70 228.074 70H226.154C225.29 70 224.874 69.584 224.874 68.72V54C224.874 53.136 225.29 52.72 226.154 52.72H228.074C228.938 52.72 229.354 53.136 229.354 54V56.24C230.442 54.48 232.17 53.616 233.898 53.616C236.106 53.616 237.93 54.64 238.794 56.944C239.914 54.928 241.834 54 243.85 54C246.954 54 249.258 56.016 249.258 60.656V68.72C249.258 69.584 248.842 70 247.978 70H246.058C245.194 70 244.778 69.584 244.778 68.72V62.096C244.778 59.728 243.85 58.608 242.314 58.608C240.202 58.608 239.306 59.92 239.306 62.896V69.36ZM264.177 70.96H261.617C260.977 70.96 260.657 70.64 260.657 70V68.624C259.665 69.584 258.161 70.224 256.753 70.352C256.561 70.384 256.369 70.384 256.209 70.384C252.913 70.384 250.641 68.112 250.641 65.104C250.641 62.32 252.401 59.888 256.849 59.888C258.065 59.888 259.441 60.208 260.657 60.72C260.625 60.496 260.593 60.304 260.561 60.112C260.209 58.576 259.057 57.776 257.329 57.776C256.145 57.776 254.801 58.224 253.553 58.992C253.073 59.28 252.689 59.024 252.369 58.416L251.921 57.488L251.441 56.56C251.345 56.368 251.281 56.208 251.217 56.048C251.153 55.728 251.217 55.472 251.569 55.216C253.073 54.032 255.409 53.296 257.841 53.296C262.321 53.296 265.137 56.08 265.137 60.624V70C265.137 70.224 265.105 70.384 265.041 70.544C264.881 70.832 264.593 70.96 264.177 70.96ZM257.329 66.384C258.641 66.384 260.113 65.872 260.529 64.912C260.625 64.72 260.657 64.528 260.657 64.336V64.208C259.569 63.792 258.353 63.568 257.329 63.568C255.857 63.568 255.121 64.048 255.121 64.976C255.121 65.872 256.145 66.384 257.329 66.384ZM276.059 70H273.627C272.827 70 272.667 69.84 272.155 68.784L266.267 56.592C265.755 55.504 266.011 55.312 267.131 54.832L268.635 54.192C269.691 53.744 269.979 54.16 270.555 55.44L274.363 63.728L277.339 54.32C277.755 53.04 278.171 52.752 279.227 53.072L281.051 53.616C282.171 53.936 282.267 54.288 281.915 55.376L277.531 68.784C277.179 69.84 276.859 70 276.059 70ZM290.821 70.384C285.733 70.384 282.437 66.96 282.437 62C282.437 57.424 285.157 53.616 290.469 53.616C294.597 53.616 297.381 56.4 297.381 60.848C297.381 62.128 297.253 62.672 296.133 62.8L287.205 63.824C287.845 65.232 289.253 66.224 291.429 66.224C292.645 66.224 294.021 65.488 295.109 64.88C295.589 64.592 296.069 64.848 296.293 65.456L296.933 67.12C297.157 67.728 297.317 68.048 296.805 68.464C295.237 69.712 292.869 70.384 290.821 70.384ZM290.149 57.776C288.485 57.776 287.397 58.512 287.013 60.368L292.773 59.696C292.485 58.544 291.525 57.776 290.149 57.776ZM303.41 68.72C303.41 69.584 302.994 70 302.13 70H300.21C299.346 70 298.93 69.584 298.93 68.72V53.68C298.93 52.816 299.346 52.4 300.21 52.4H302.13C302.994 52.4 303.41 52.816 303.41 53.68V56.336C304.466 54.608 306.098 53.616 307.602 53.616C308.306 53.616 309.042 53.776 309.458 54.032C309.714 54.192 309.778 54.416 309.746 54.64L309.426 58.32C309.394 58.8 309.106 58.96 308.562 58.832C307.666 58.64 307.058 58.576 306.514 58.576C304.754 58.576 303.41 59.92 303.41 62.512V68.72ZM323.764 70.96H321.204C320.564 70.96 320.244 70.64 320.244 70V68.624C319.252 69.584 317.748 70.224 316.34 70.352C316.148 70.384 315.956 70.384 315.796 70.384C312.5 70.384 310.228 68.112 310.228 65.104C310.228 62.32 311.988 59.888 316.436 59.888C317.652 59.888 319.028 60.208 320.244 60.72C320.212 60.496 320.18 60.304 320.148 60.112C319.796 58.576 318.644 57.776 316.916 57.776C315.732 57.776 314.388 58.224 313.14 58.992C312.66 59.28 312.276 59.024 311.956 58.416L311.508 57.488L311.028 56.56C310.932 56.368 310.868 56.208 310.804 56.048C310.74 55.728 310.804 55.472 311.156 55.216C312.66 54.032 314.996 53.296 317.428 53.296C321.908 53.296 324.724 56.08 324.724 60.624V70C324.724 70.224 324.692 70.384 324.628 70.544C324.468 70.832 324.18 70.96 323.764 70.96ZM316.916 66.384C318.228 66.384 319.7 65.872 320.116 64.912C320.212 64.72 320.244 64.528 320.244 64.336V64.208C319.156 63.792 317.94 63.568 316.916 63.568C315.444 63.568 314.708 64.048 314.708 64.976C314.708 65.872 315.732 66.384 316.916 66.384Z" fill="white"/>
<path d="M189.843 81.152C188.627 81.152 187.763 80.256 187.763 79.04C187.763 77.856 188.659 76.96 189.843 76.96C191.027 76.96 191.923 77.856 191.923 79.04C191.923 80.256 191.059 81.152 189.843 81.152ZM191.123 99.04C191.123 99.68 190.803 100 190.163 100H189.523C188.883 100 188.563 99.68 188.563 99.04V85.6C188.563 84.96 188.883 84.64 189.523 84.64H190.163C190.803 84.64 191.123 84.96 191.123 85.6V99.04ZM197.411 99.36C197.411 100 197.091 100.32 196.451 100.32H195.811C195.171 100.32 194.851 100 194.851 99.36V84.32C194.851 83.68 195.171 83.36 195.811 83.36H196.451C197.091 83.36 197.411 83.68 197.411 84.32V86.592C198.691 84.992 200.611 84 202.595 84C205.635 84 207.843 85.792 207.843 89.952V99.04C207.843 99.68 207.523 100 206.883 100H206.243C205.603 100 205.283 99.68 205.283 99.04V91.072C205.283 88.128 203.907 86.72 201.699 86.72C199.459 86.72 197.411 88.672 197.411 91.232V99.36ZM222.333 99.648C221.501 100.192 220.093 100.64 218.685 100.64C215.517 100.64 213.597 98.848 213.597 94.752V87.808L211.005 87.712C210.557 87.712 210.429 87.456 210.429 87.04V85.76C210.429 85.344 210.749 84.992 211.197 84.992L213.597 85.056V81.12C213.597 80.704 213.821 80.48 214.237 80.48H215.517C215.933 80.48 216.157 80.704 216.157 81.12V85.152L221.085 85.312C221.533 85.312 221.661 85.568 221.661 85.984V87.264C221.661 87.68 221.341 88.032 220.893 88.032L216.157 87.872V93.984C216.157 97.024 216.893 97.952 218.621 97.952C219.517 97.952 220.733 97.536 221.245 97.28C221.501 97.152 221.725 97.184 221.853 97.472L222.525 98.944C222.653 99.232 222.557 99.488 222.333 99.648ZM231.565 100.32C226.701 100.32 223.533 97.088 223.533 92.32C223.533 87.968 226.157 84 230.765 84C234.253 84 237.197 86.592 237.197 91.456C237.197 92.096 237.101 92.32 236.525 92.384L226.221 93.568C226.669 95.872 228.493 97.568 231.565 97.568C233.133 97.568 234.829 97.12 235.789 96.608C236.077 96.48 236.269 96.576 236.365 96.832L236.909 98.24C237.037 98.56 237.005 98.784 236.717 98.976C235.693 99.712 233.485 100.32 231.565 100.32ZM230.605 86.72C228.269 86.72 226.605 88.288 226.189 91.008L234.413 90.048C234.157 88.096 232.621 86.72 230.605 86.72ZM242.586 99.36C242.586 100 242.266 100.32 241.626 100.32H240.986C240.346 100.32 240.026 100 240.026 99.36V84.32C240.026 83.68 240.346 83.36 240.986 83.36H241.626C242.266 83.36 242.586 83.68 242.586 84.32V86.592C243.866 84.992 245.786 84 247.77 84C250.81 84 253.018 85.792 253.018 89.952V99.04C253.018 99.68 252.698 100 252.058 100H251.418C250.778 100 250.458 99.68 250.458 99.04V91.072C250.458 88.128 249.082 86.72 246.874 86.72C244.634 86.72 242.586 88.672 242.586 91.232V99.36ZM255.988 88.544C255.988 85.92 257.748 84 261.46 84C262.836 84 264.948 84.48 265.94 85.12C266.196 85.28 266.292 85.536 266.164 85.824L265.46 87.264C265.332 87.52 265.076 87.616 264.82 87.52C263.668 87.04 262.356 86.72 261.268 86.72C259.476 86.72 258.548 87.392 258.548 88.544C258.548 91.616 266.836 90.528 266.836 95.936C266.836 98.624 264.692 100.32 261.044 100.32C259.476 100.32 257.172 99.68 255.924 98.88C255.668 98.72 255.572 98.464 255.7 98.176L256.404 96.736C256.532 96.448 256.756 96.384 257.012 96.512C258.484 97.248 259.988 97.6 261.236 97.6C263.252 97.6 264.276 96.992 264.276 95.936C264.276 92.864 255.988 93.952 255.988 88.544ZM280.798 100.64H279.518C279.102 100.64 278.878 100.416 278.878 100V98.656C277.822 99.68 276.19 100.32 274.43 100.32C274.206 100.32 273.982 100.32 273.79 100.288C270.846 100.032 268.862 97.888 268.862 95.104C268.862 92.48 270.43 90.208 274.43 90.208C275.87 90.208 277.502 90.464 278.878 91.04V90.752C278.878 87.872 277.278 86.4 274.59 86.4C273.342 86.4 271.902 86.848 270.654 87.616C270.398 87.776 270.174 87.68 270.046 87.424L269.566 86.464C269.502 86.304 269.406 86.144 269.342 85.984C269.214 85.696 269.31 85.44 269.534 85.28C270.846 84.384 272.862 83.68 275.102 83.68C279.006 83.68 281.438 86.016 281.438 90.624V100C281.438 100.416 281.214 100.64 280.798 100.64ZM274.59 97.6C276.894 97.6 278.878 96.32 278.878 94.912V93.568C277.534 93.056 275.902 92.768 274.59 92.768C272.478 92.768 271.422 93.632 271.422 94.976C271.422 96.64 272.894 97.6 274.59 97.6Z" fill="white"/>
</svg>
