<svg width="390" height="148" viewBox="0 0 390 148" fill="none" xmlns="http://www.w3.org/2000/svg">
<path d="M127.848 49.8911C120.156 49.8911 113.919 56.127 113.919 63.8186C113.919 66.2722 114.559 68.5684 115.674 70.5707C115.145 71.1881 114.614 71.8083 114.099 72.4572C109.06 78.8028 105.321 85.8676 103.455 93.5898C101.485 101.741 102.083 109.616 104.85 116.773C107.205 122.855 111.058 128.177 115.577 132L120.182 126.555C116.56 123.492 113.413 119.146 111.498 114.195C109.246 108.37 108.763 101.976 110.386 95.2611C111.987 88.6325 115.248 82.4775 119.685 76.8917C120.002 76.4907 120.333 76.1133 120.656 75.7255C122.757 76.9963 125.213 77.746 127.848 77.746C135.54 77.746 141.774 71.5099 141.774 63.8186C141.774 56.127 135.54 49.8911 127.848 49.8911Z" fill="#FF5900"/>
<path d="M124.866 85.6697C124.866 85.6697 125.392 117.556 143.14 110.292C163.855 101.813 158.118 89.9321 146.158 81.8846C134.202 73.8371 167.05 101.54 172.89 83.2743C179.704 61.9545 149.317 62.3393 149.317 62.3393C149.317 62.3393 181.145 60.3678 173.084 42.968C163.675 22.6589 149.271 33.2752 141.774 45.586C134.279 57.897 158.833 19.0845 139.847 16.3928C110.309 12.2053 122.037 42.8768 122.037 42.8768C122.037 42.8768 115.014 10.7645 100.196 22.936C82.8996 37.1426 93.3898 49.0126 107.19 53.1787C120.988 57.3448 80.8272 37.6934 78.1547 56.6825C75.0333 78.8467 92.8925 77.7485 105.872 71.4781" stroke="#FF5900" stroke-width="5" stroke-miterlimit="10" stroke-linejoin="round"/>
<path d="M65.1606 78.1348C65.1606 78.1348 59.4238 92.4353 69.9941 105.495C81.2247 119.37 92.4553 112.224 96.3255 109.023C95.0907 106.263 92.4067 101.251 87.9476 98.5991C81.6563 94.8549 74.8162 93.4271 74.8162 93.4271C74.8162 93.4271 84.4975 94.068 89.5026 97.3751C94.5419 100.706 97.0944 103.298 98.3721 104.789C98.8838 100.519 98.6237 92.5224 90.4058 88.148C78.878 82.0119 72.3694 86.669 65.1606 78.1348Z" fill="#FF5900"/>
<path d="M192.803 75.44C192.803 76.304 192.387 76.72 191.523 76.72H189.603C188.739 76.72 188.323 76.304 188.323 75.44V54.64C188.323 53.776 188.739 53.36 189.603 53.36H191.523C192.387 53.36 192.803 53.776 192.803 54.64V55.824C193.923 54.64 195.523 54 197.283 54C200.995 54 204.035 57.232 204.035 62.192C204.035 67.216 200.515 70.384 196.003 70.384C194.915 70.384 193.859 70.256 192.803 70V75.44ZM196.003 65.776C198.051 65.776 199.555 64.592 199.555 62.192C199.555 60.112 198.307 58.64 196.355 58.64C194.115 58.64 192.803 60.176 192.803 62.896V65.296C193.763 65.616 194.787 65.776 196.003 65.776ZM210.216 68.72C210.216 69.584 209.8 70 208.936 70H207.016C206.152 70 205.736 69.584 205.736 68.72V53.68C205.736 52.816 206.152 52.4 207.016 52.4H208.936C209.8 52.4 210.216 52.816 210.216 53.68V56.336C211.272 54.608 212.904 53.616 214.408 53.616C215.112 53.616 215.848 53.776 216.264 54.032C216.52 54.192 216.584 54.416 216.552 54.64L216.232 58.32C216.2 58.8 215.912 58.96 215.368 58.832C214.472 58.64 213.864 58.576 213.32 58.576C211.56 58.576 210.216 59.92 210.216 62.512V68.72ZM220.138 52.432C218.666 52.432 217.418 51.184 217.418 49.68C217.418 48.208 218.666 46.96 220.138 46.96C221.61 46.96 222.858 48.208 222.858 49.68C222.858 51.184 221.61 52.432 220.138 52.432ZM222.378 68.72C222.378 69.584 221.962 70 221.098 70H219.178C218.314 70 217.898 69.584 217.898 68.72V55.92C217.898 55.056 218.314 54.64 219.178 54.64H221.098C221.962 54.64 222.378 55.056 222.378 55.92V68.72ZM239.305 69.36C239.305 70.224 238.889 70.64 238.025 70.64H236.105C235.241 70.64 234.825 70.224 234.825 69.36V61.712C234.825 59.344 233.897 58.224 232.361 58.224C230.249 58.224 229.353 59.536 229.353 62.512V68.72C229.353 69.584 228.937 70 228.073 70H226.153C225.289 70 224.873 69.584 224.873 68.72V54C224.873 53.136 225.289 52.72 226.153 52.72H228.073C228.937 52.72 229.353 53.136 229.353 54V56.24C230.441 54.48 232.169 53.616 233.897 53.616C236.105 53.616 237.929 54.64 238.793 56.944C239.913 54.928 241.833 54 243.849 54C246.953 54 249.257 56.016 249.257 60.656V68.72C249.257 69.584 248.841 70 247.977 70H246.057C245.193 70 244.777 69.584 244.777 68.72V62.096C244.777 59.728 243.849 58.608 242.313 58.608C240.201 58.608 239.305 59.92 239.305 62.896V69.36ZM264.176 70.96H261.616C260.976 70.96 260.656 70.64 260.656 70V68.624C259.664 69.584 258.16 70.224 256.752 70.352C256.56 70.384 256.368 70.384 256.208 70.384C252.912 70.384 250.64 68.112 250.64 65.104C250.64 62.32 252.4 59.888 256.848 59.888C258.064 59.888 259.44 60.208 260.656 60.72C260.624 60.496 260.592 60.304 260.56 60.112C260.208 58.576 259.056 57.776 257.328 57.776C256.144 57.776 254.8 58.224 253.552 58.992C253.072 59.28 252.688 59.024 252.368 58.416L251.92 57.488L251.44 56.56C251.344 56.368 251.28 56.208 251.216 56.048C251.152 55.728 251.216 55.472 251.568 55.216C253.072 54.032 255.408 53.296 257.84 53.296C262.32 53.296 265.136 56.08 265.136 60.624V70C265.136 70.224 265.104 70.384 265.04 70.544C264.88 70.832 264.592 70.96 264.176 70.96ZM257.328 66.384C258.64 66.384 260.112 65.872 260.528 64.912C260.624 64.72 260.656 64.528 260.656 64.336V64.208C259.568 63.792 258.352 63.568 257.328 63.568C255.856 63.568 255.12 64.048 255.12 64.976C255.12 65.872 256.144 66.384 257.328 66.384ZM276.058 70H273.626C272.826 70 272.666 69.84 272.154 68.784L266.266 56.592C265.754 55.504 266.01 55.312 267.13 54.832L268.634 54.192C269.69 53.744 269.978 54.16 270.554 55.44L274.362 63.728L277.338 54.32C277.754 53.04 278.17 52.752 279.226 53.072L281.05 53.616C282.17 53.936 282.266 54.288 281.914 55.376L277.53 68.784C277.178 69.84 276.858 70 276.058 70ZM290.82 70.384C285.732 70.384 282.436 66.96 282.436 62C282.436 57.424 285.156 53.616 290.468 53.616C294.596 53.616 297.38 56.4 297.38 60.848C297.38 62.128 297.252 62.672 296.132 62.8L287.204 63.824C287.844 65.232 289.252 66.224 291.428 66.224C292.644 66.224 294.02 65.488 295.108 64.88C295.588 64.592 296.068 64.848 296.292 65.456L296.932 67.12C297.156 67.728 297.316 68.048 296.804 68.464C295.236 69.712 292.868 70.384 290.82 70.384ZM290.148 57.776C288.484 57.776 287.396 58.512 287.012 60.368L292.772 59.696C292.484 58.544 291.524 57.776 290.148 57.776ZM303.409 68.72C303.409 69.584 302.993 70 302.129 70H300.209C299.345 70 298.929 69.584 298.929 68.72V53.68C298.929 52.816 299.345 52.4 300.209 52.4H302.129C302.993 52.4 303.409 52.816 303.409 53.68V56.336C304.465 54.608 306.097 53.616 307.601 53.616C308.305 53.616 309.041 53.776 309.457 54.032C309.713 54.192 309.777 54.416 309.745 54.64L309.425 58.32C309.393 58.8 309.105 58.96 308.561 58.832C307.665 58.64 307.057 58.576 306.513 58.576C304.753 58.576 303.409 59.92 303.409 62.512V68.72ZM323.764 70.96H321.204C320.564 70.96 320.244 70.64 320.244 70V68.624C319.252 69.584 317.748 70.224 316.34 70.352C316.148 70.384 315.956 70.384 315.796 70.384C312.5 70.384 310.228 68.112 310.228 65.104C310.228 62.32 311.988 59.888 316.436 59.888C317.652 59.888 319.028 60.208 320.244 60.72C320.212 60.496 320.18 60.304 320.148 60.112C319.796 58.576 318.644 57.776 316.916 57.776C315.732 57.776 314.388 58.224 313.14 58.992C312.66 59.28 312.276 59.024 311.956 58.416L311.508 57.488L311.028 56.56C310.932 56.368 310.868 56.208 310.804 56.048C310.74 55.728 310.804 55.472 311.156 55.216C312.66 54.032 314.996 53.296 317.428 53.296C321.908 53.296 324.724 56.08 324.724 60.624V70C324.724 70.224 324.692 70.384 324.628 70.544C324.468 70.832 324.18 70.96 323.764 70.96ZM316.916 66.384C318.228 66.384 319.7 65.872 320.116 64.912C320.212 64.72 320.244 64.528 320.244 64.336V64.208C319.156 63.792 317.94 63.568 316.916 63.568C315.444 63.568 314.708 64.048 314.708 64.976C314.708 65.872 315.732 66.384 316.916 66.384Z" fill="black"/>
<path d="M189.842 81.152C188.626 81.152 187.762 80.256 187.762 79.04C187.762 77.856 188.658 76.96 189.842 76.96C191.026 76.96 191.922 77.856 191.922 79.04C191.922 80.256 191.058 81.152 189.842 81.152ZM191.122 99.04C191.122 99.68 190.802 100 190.162 100H189.522C188.882 100 188.562 99.68 188.562 99.04V85.6C188.562 84.96 188.882 84.64 189.522 84.64H190.162C190.802 84.64 191.122 84.96 191.122 85.6V99.04ZM197.411 99.36C197.411 100 197.091 100.32 196.451 100.32H195.811C195.171 100.32 194.851 100 194.851 99.36V84.32C194.851 83.68 195.171 83.36 195.811 83.36H196.451C197.091 83.36 197.411 83.68 197.411 84.32V86.592C198.691 84.992 200.611 84 202.595 84C205.635 84 207.843 85.792 207.843 89.952V99.04C207.843 99.68 207.523 100 206.883 100H206.243C205.603 100 205.283 99.68 205.283 99.04V91.072C205.283 88.128 203.907 86.72 201.699 86.72C199.459 86.72 197.411 88.672 197.411 91.232V99.36ZM222.332 99.648C221.5 100.192 220.092 100.64 218.684 100.64C215.516 100.64 213.596 98.848 213.596 94.752V87.808L211.004 87.712C210.556 87.712 210.428 87.456 210.428 87.04V85.76C210.428 85.344 210.748 84.992 211.196 84.992L213.596 85.056V81.12C213.596 80.704 213.82 80.48 214.236 80.48H215.516C215.932 80.48 216.156 80.704 216.156 81.12V85.152L221.084 85.312C221.532 85.312 221.66 85.568 221.66 85.984V87.264C221.66 87.68 221.34 88.032 220.892 88.032L216.156 87.872V93.984C216.156 97.024 216.892 97.952 218.62 97.952C219.516 97.952 220.732 97.536 221.244 97.28C221.5 97.152 221.724 97.184 221.852 97.472L222.524 98.944C222.652 99.232 222.556 99.488 222.332 99.648ZM231.565 100.32C226.701 100.32 223.533 97.088 223.533 92.32C223.533 87.968 226.157 84 230.765 84C234.253 84 237.197 86.592 237.197 91.456C237.197 92.096 237.101 92.32 236.525 92.384L226.221 93.568C226.669 95.872 228.493 97.568 231.565 97.568C233.133 97.568 234.829 97.12 235.789 96.608C236.077 96.48 236.269 96.576 236.365 96.832L236.909 98.24C237.037 98.56 237.005 98.784 236.717 98.976C235.693 99.712 233.485 100.32 231.565 100.32ZM230.605 86.72C228.269 86.72 226.605 88.288 226.189 91.008L234.413 90.048C234.157 88.096 232.621 86.72 230.605 86.72ZM242.586 99.36C242.586 100 242.266 100.32 241.626 100.32H240.986C240.346 100.32 240.026 100 240.026 99.36V84.32C240.026 83.68 240.346 83.36 240.986 83.36H241.626C242.266 83.36 242.586 83.68 242.586 84.32V86.592C243.866 84.992 245.786 84 247.77 84C250.81 84 253.018 85.792 253.018 89.952V99.04C253.018 99.68 252.698 100 252.058 100H251.418C250.778 100 250.458 99.68 250.458 99.04V91.072C250.458 88.128 249.082 86.72 246.874 86.72C244.634 86.72 242.586 88.672 242.586 91.232V99.36ZM255.987 88.544C255.987 85.92 257.747 84 261.459 84C262.835 84 264.947 84.48 265.939 85.12C266.195 85.28 266.291 85.536 266.163 85.824L265.459 87.264C265.331 87.52 265.075 87.616 264.819 87.52C263.667 87.04 262.355 86.72 261.267 86.72C259.475 86.72 258.547 87.392 258.547 88.544C258.547 91.616 266.835 90.528 266.835 95.936C266.835 98.624 264.691 100.32 261.043 100.32C259.475 100.32 257.171 99.68 255.923 98.88C255.667 98.72 255.571 98.464 255.699 98.176L256.403 96.736C256.531 96.448 256.755 96.384 257.011 96.512C258.483 97.248 259.987 97.6 261.235 97.6C263.251 97.6 264.275 96.992 264.275 95.936C264.275 92.864 255.987 93.952 255.987 88.544ZM280.798 100.64H279.518C279.102 100.64 278.878 100.416 278.878 100V98.656C277.822 99.68 276.19 100.32 274.43 100.32C274.206 100.32 273.982 100.32 273.79 100.288C270.846 100.032 268.862 97.888 268.862 95.104C268.862 92.48 270.43 90.208 274.43 90.208C275.87 90.208 277.502 90.464 278.878 91.04V90.752C278.878 87.872 277.278 86.4 274.59 86.4C273.342 86.4 271.902 86.848 270.654 87.616C270.398 87.776 270.174 87.68 270.046 87.424L269.566 86.464C269.502 86.304 269.406 86.144 269.342 85.984C269.214 85.696 269.31 85.44 269.534 85.28C270.846 84.384 272.862 83.68 275.102 83.68C279.006 83.68 281.438 86.016 281.438 90.624V100C281.438 100.416 281.214 100.64 280.798 100.64ZM274.59 97.6C276.894 97.6 278.878 96.32 278.878 94.912V93.568C277.534 93.056 275.902 92.768 274.59 92.768C272.478 92.768 271.422 93.632 271.422 94.976C271.422 96.64 272.894 97.6 274.59 97.6Z" fill="black"/>
</svg>
