<svg width="766" height="498" viewBox="0 0 766 498" fill="none" xmlns="http://www.w3.org/2000/svg">
<path d="M191.811 22.5161V22.6721C188.519 22.4651 148.538 20.3641 130.498 42.0781C74.9988 108.879 13.5918 415.453 13.5918 415.453L115.279 447.203L191.811 183.828L200.035 405.54L191.811 492.703L576.542 492.695L564.932 405.54L578.123 196.016L651.154 447.234L752.811 415.484C752.811 415.484 691.434 108.91 635.935 42.1091C620.218 23.1901 588.558 22.4051 578.123 22.6401V22.5161H445.279C444.285 24.2051 443.308 25.8571 441.685 28.1401C441.495 28.4091 441.498 28.4081 441.311 28.6721C439.465 31.2741 438.615 32.6321 438.029 33.9221C434.289 42.1531 431.379 48.8791 425.061 63.7971C424.764 64.4961 420.815 73.8341 419.342 77.2661C418.012 80.3621 416.804 82.7981 414.311 87.6401C414.075 88.0991 414.076 88.1231 413.842 88.5781C410.322 95.4171 408.746 98.8881 407.467 103.078C405.582 109.248 403.436 113.892 398.561 123.172C398.453 123.376 397.197 125.787 396.561 127.016C396.54 127.088 396.506 127.145 396.498 127.172C396.351 127.693 396.268 128.034 396.123 128.453C395.852 129.235 395.543 129.946 395.092 130.703C393.042 134.141 389.07 136.359 384.435 135.109C380.177 133.961 377.844 131.083 375.904 126.922C374.878 124.721 374.005 122.15 373.123 118.953C372.781 117.714 371.058 110.807 370.904 110.422C367.695 102.399 364.194 96.0991 355.623 82.1401C355.592 82.0911 355.591 82.0961 355.561 82.0471C348.546 70.6241 345.522 65.4011 342.217 58.5471C338.746 51.3491 334.155 43.3651 329.342 35.9841C328.678 34.9661 326.234 31.9481 326.185 31.8901C325.02 30.4911 324.442 29.7321 323.779 28.8591C323.775 28.8551 323.699 28.7781 323.685 28.7661C323.504 28.6081 322.613 27.8521 322.373 27.6401C321.846 27.1751 321.409 26.7471 320.967 26.2341C320.529 25.7271 320.147 25.1851 319.779 24.5161C319.437 23.8921 319.197 23.2221 318.998 22.5161H191.811Z" fill="#F6E6DE"/>
<path d="M383.201 141.74L311.376 5.0271L254.383 20.8931L237.905 67.1191L295.138 62.8421" stroke="white" stroke-width="10" stroke-miterlimit="10" stroke-linecap="round" stroke-linejoin="round"/>
<path d="M471.264 62.8421L528.498 67.1191L512.019 20.8931L455.026 5.0271L383.201 152.713L371.689 492.695" stroke="white" stroke-width="10" stroke-miterlimit="10" stroke-linecap="round" stroke-linejoin="round"/>
<path d="M16.5158 358.218L126.415 414.522L118.78 452.862L5 418.298L16.5158 358.218Z" stroke="white" stroke-width="10" stroke-miterlimit="10" stroke-linecap="round" stroke-linejoin="round"/>
<path d="M749.369 358.218L639.47 414.522L647.105 452.862L760.885 418.298L749.369 358.218Z" stroke="white" stroke-width="10" stroke-miterlimit="10" stroke-linecap="round" stroke-linejoin="round"/>
<path d="M166.123 97.1721C164.782 97.4991 163.952 98.8621 164.279 100.203C166.412 108.955 168.845 117.604 171.529 126.203C174.693 136.337 178.216 146.378 181.467 156.484C182.954 161.108 184.446 165.729 185.811 170.39C187.288 175.438 188.605 180.568 189.998 185.64C190.364 186.972 191.729 187.756 193.061 187.39C194.392 187.025 195.176 185.628 194.811 184.297C193.411 179.198 192.077 174.059 190.592 168.984C189.215 164.28 187.717 159.619 186.217 154.953C182.971 144.861 179.47 134.855 176.311 124.734C173.657 116.236 171.231 107.665 169.123 99.0161C168.796 97.6741 167.464 96.8451 166.123 97.1721Z" fill="white"/>
<path d="M134.779 107.547C134.146 107.641 133.534 107.961 133.123 108.516C132.3 109.624 132.545 111.193 133.654 112.016C140.307 116.951 146.35 122.565 151.842 128.766C165.329 143.993 175.47 161.85 186.623 178.766C187.383 179.918 188.939 180.244 190.092 179.484C191.244 178.724 191.539 177.168 190.779 176.016C179.493 158.898 169.24 140.862 155.592 125.453C149.87 118.993 143.554 113.158 136.623 108.016C136.069 107.604 135.412 107.453 134.779 107.547Z" fill="white"/>
<path d="M136.685 128.297C136.054 128.397 135.466 128.738 135.061 129.297C134.249 130.414 134.475 131.986 135.592 132.797C143.69 138.675 149.891 146.461 156.029 154.266C156.883 155.351 158.444 155.525 159.529 154.672C160.614 153.818 160.82 152.257 159.967 151.172C153.537 142.997 147.008 134.892 138.529 128.734C137.971 128.329 137.317 128.196 136.685 128.297Z" fill="white"/>
<path d="M591.935 120.922C590.59 120.61 589.247 121.452 588.935 122.797C587.091 130.752 585.302 138.698 583.685 146.703C580.471 162.622 577.594 178.593 574.092 194.453C573.794 195.801 574.65 197.155 575.998 197.453C577.346 197.751 578.7 196.895 578.998 195.547C582.507 179.657 585.371 163.651 588.592 147.703C590.199 139.744 591.976 131.83 593.811 123.922C594.122 122.577 593.281 121.234 591.935 120.922Z" fill="white"/>
<path d="M637.342 36.1401C636.72 36.2901 636.171 36.6771 635.811 37.2661C626.225 52.9141 617.176 68.8641 608.467 85.0161C607.811 86.2311 608.251 87.7661 609.467 88.4221C610.682 89.0771 612.186 88.6061 612.842 87.3901C621.508 71.3201 630.523 55.4611 640.061 39.8901C640.782 38.7131 640.425 37.1741 639.248 36.4531C638.659 36.0921 637.964 35.9911 637.342 36.1401Z" fill="white"/>
<path d="M134.061 36.1401C133.438 35.9921 132.743 36.0921 132.154 36.4531C130.978 37.1751 130.619 38.7141 131.342 39.8901C134.038 44.2841 136.604 48.7311 138.998 53.2971C143.492 61.8661 147.569 70.6621 152.123 79.2031C152.773 80.4211 154.28 80.8841 155.498 80.2341C156.716 79.5851 157.179 78.0781 156.529 76.8591C151.981 68.3291 147.924 59.5441 143.435 50.9841C140.989 46.3191 138.347 41.7551 135.592 37.2661C135.231 36.6771 134.683 36.2891 134.061 36.1401Z" fill="white"/>
<path d="M612.592 118.953C611.964 119.076 611.383 119.443 610.998 120.016C606.314 126.977 601.746 134.034 597.435 141.234C591.429 151.267 585.877 161.541 580.561 171.953C579.933 173.183 580.425 174.7 581.654 175.328C582.884 175.956 584.401 175.464 585.029 174.234C590.295 163.922 595.768 153.733 601.717 143.797C605.982 136.672 610.488 129.686 615.123 122.797C615.894 121.651 615.612 120.099 614.467 119.328C613.894 118.943 613.22 118.83 612.592 118.953Z" fill="white"/>
<path d="M637.404 107.047C636.768 107.116 636.149 107.415 635.717 107.953C624.854 121.456 613.397 134.444 602.467 147.89C601.596 148.962 601.77 150.551 602.842 151.422C603.913 152.293 605.471 152.118 606.342 151.047C617.277 137.594 628.755 124.587 639.623 111.078C640.488 110.002 640.324 108.443 639.248 107.578C638.71 107.145 638.04 106.978 637.404 107.047Z" fill="white"/>
<path d="M245.498 38.1092C215.067 41.1222 184.607 43.5792 154.123 45.9842C152.747 46.0932 151.702 47.2952 151.811 48.6722C151.919 50.0482 153.122 51.0932 154.498 50.9842C185.015 48.5762 215.534 46.1252 245.998 43.1092C247.372 42.9732 248.384 41.7332 248.248 40.3592C248.112 38.9852 246.872 37.9732 245.498 38.1092Z" fill="white"/>
<path d="M519.467 38.1092C518.093 37.9732 516.853 38.9852 516.717 40.3592C516.581 41.7332 517.593 42.9732 518.967 43.1092C549.431 46.1252 579.95 48.5762 610.467 50.9842C611.843 51.0932 613.046 50.0482 613.154 48.6722C613.263 47.2952 612.218 46.0932 610.842 45.9842C580.358 43.5792 549.898 41.1222 519.467 38.1092Z" fill="white"/>
<path d="M324.435 72.266C323.818 72.097 323.129 72.173 322.529 72.516C321.33 73.2 320.907 74.723 321.592 75.922C337.927 104.52 353.663 133.426 368.748 162.703C369.38 163.93 370.896 164.429 372.123 163.797C373.35 163.164 373.849 161.649 373.217 160.422C358.099 131.081 342.306 102.114 325.935 73.453C325.593 72.854 325.053 72.434 324.435 72.266Z" fill="white"/>
<path d="M693.842 359.047C693.209 358.949 692.555 359.107 691.998 359.516C683.948 365.419 675.766 371.137 667.435 376.64C655.752 384.36 643.805 391.68 631.842 398.953C630.662 399.67 630.312 401.211 631.029 402.39C631.746 403.57 633.287 403.952 634.467 403.234C646.484 395.929 658.45 388.582 670.185 380.828C678.584 375.279 686.819 369.499 694.935 363.547C696.049 362.73 696.283 361.16 695.467 360.047C695.058 359.49 694.474 359.144 693.842 359.047Z" fill="white"/>
<path d="M717.248 343.922C716.62 343.802 715.944 343.909 715.373 344.297C712.542 346.221 709.704 348.154 706.873 350.078C705.731 350.854 705.441 352.405 706.217 353.547C706.993 354.689 708.544 354.979 709.685 354.203C712.516 352.279 715.355 350.377 718.185 348.453C719.327 347.677 719.618 346.095 718.842 344.953C718.454 344.382 717.876 344.042 717.248 343.922Z" fill="white"/>
<path d="M718.811 317.016C718.171 316.999 717.53 317.227 717.029 317.703C702.999 331.037 689.1 344.586 673.904 356.609C667.686 361.53 661.227 366.098 654.561 370.39C653.4 371.138 653.063 372.698 653.811 373.859C654.558 375.02 656.119 375.357 657.279 374.609C664.082 370.229 670.652 365.537 676.998 360.516C692.312 348.398 706.327 334.766 720.467 321.328C721.468 320.377 721.512 318.766 720.561 317.766C720.085 317.265 719.45 317.032 718.811 317.016Z" fill="white"/>
<path d="M639.311 378.328C638.673 378.272 638.027 378.447 637.498 378.89C636.717 379.545 635.936 380.205 635.154 380.859C634.096 381.746 633.955 383.301 634.842 384.359C635.729 385.418 637.315 385.558 638.373 384.672C639.154 384.017 639.935 383.389 640.717 382.734C641.775 381.847 641.916 380.261 641.029 379.203C640.586 378.674 639.948 378.384 639.311 378.328Z" fill="white"/>
<path d="M731.279 316.734C730.642 316.677 729.997 316.885 729.467 317.328C728.407 318.213 728.269 319.768 729.154 320.828C730.252 322.141 731.34 323.513 731.998 325.109C733.206 328.042 732.009 331.01 730.873 333.766C730.345 335.047 729.787 336.332 729.248 337.609C728.711 338.881 729.288 340.354 730.561 340.89C731.833 341.427 733.305 340.819 733.842 339.547C736.232 333.884 739.187 328.345 736.185 322.266C735.343 320.56 734.211 319.094 732.998 317.64C732.555 317.111 731.917 316.791 731.279 316.734Z" fill="white"/>
<path d="M732.279 336.859C731.646 336.769 730.987 336.945 730.435 337.359C729.332 338.189 729.106 339.755 729.935 340.859C732.029 343.644 734.067 346.396 735.998 349.297C736.763 350.446 738.317 350.78 739.467 350.016C740.616 349.251 740.919 347.696 740.154 346.547C738.171 343.567 736.085 340.689 733.935 337.828C733.521 337.276 732.913 336.949 732.279 336.859Z" fill="white"/>
<path d="M728.842 302.234C727.499 302.555 726.677 303.891 726.998 305.234C727.273 306.377 727.476 307.494 727.529 308.672C727.694 312.291 726.651 315.861 725.873 319.359C725.573 320.707 726.431 322.028 727.779 322.328C729.127 322.628 730.448 321.801 730.748 320.453C731.524 316.966 732.495 313.454 732.561 309.859C732.597 307.884 732.297 305.993 731.842 304.078C731.521 302.735 730.185 301.913 728.842 302.234Z" fill="white"/>
<path d="M35.8728 349.516C35.2688 349.725 34.7678 350.175 34.4668 350.797C33.8648 352.039 34.3808 353.507 35.6228 354.109C56.7948 364.37 77.0078 376.422 97.2788 388.328C98.4698 389.027 99.9858 388.644 100.685 387.453C101.385 386.262 101.001 384.715 99.8108 384.016C79.4238 372.042 59.1028 359.928 37.8108 349.609C37.1888 349.308 36.4768 349.306 35.8728 349.516Z" fill="white"/>
<path d="M110.029 390.109C109.415 390.288 108.893 390.692 108.561 391.297C107.895 392.507 108.319 394.038 109.529 394.703C110.826 395.416 110.681 395.302 110.842 395.39C110.842 395.39 112.553 396.346 112.123 396.109C112.553 396.346 113.835 397.065 113.404 396.828C112.113 396.118 113.395 396.837 114.685 397.547C115.895 398.212 117.426 397.757 118.092 396.547C118.757 395.337 118.333 393.806 117.123 393.14C115.827 392.427 115.971 392.541 115.811 392.453C115.811 392.453 114.099 391.498 114.529 391.734C114.099 391.498 112.818 390.779 113.248 391.016C114.539 391.726 113.226 391.038 111.935 390.328C111.331 389.995 110.644 389.931 110.029 390.109Z" fill="white"/>
<path d="M57.0918 343.359C56.4628 343.478 55.8868 343.82 55.4978 344.39C54.7198 345.531 54.9828 347.081 56.1228 347.859C79.0058 363.48 102.352 378.401 125.529 393.578C126.684 394.334 128.242 394.014 128.998 392.859C129.754 391.704 129.434 390.178 128.279 389.422C105.129 374.263 81.8228 359.337 58.9668 343.734C58.3968 343.345 57.7198 343.241 57.0918 343.359Z" fill="white"/>
<path d="M43.8728 334.578C43.2358 334.521 42.5898 334.729 42.0608 335.172C41.0008 336.057 40.8618 337.613 41.7478 338.672C42.2528 339.276 42.7428 339.88 43.2478 340.484C44.1338 341.543 45.7198 341.714 46.7788 340.828C47.8378 339.942 47.9768 338.356 47.0918 337.297C46.5858 336.692 46.0968 336.089 45.5918 335.484C45.1488 334.955 44.5098 334.635 43.8728 334.578Z" fill="white"/>
<path d="M33.5288 322.39C32.9058 322.533 32.3338 322.899 31.9668 323.484C30.4388 325.921 29.2158 328.551 28.9668 331.453C28.7448 334.039 29.3598 336.553 29.6228 339.109C29.7228 340.079 29.7338 341.072 29.7478 342.047C29.7518 342.346 28.8438 343.488 28.5288 343.859C27.4348 345.149 26.1908 346.296 25.1228 347.609C24.2528 348.682 24.4258 350.271 25.4978 351.14C26.5698 352.01 28.1278 351.838 28.9978 350.766C30.9188 348.389 34.2758 345.922 34.7168 342.672C35.2088 339.037 33.6598 335.505 33.9668 331.89C34.1448 329.792 35.0838 327.895 36.1848 326.14C36.9188 324.971 36.5738 323.437 35.4038 322.703C34.8188 322.336 34.1528 322.248 33.5288 322.39Z" fill="white"/>
<path d="M135.685 370.953C134.307 370.873 133.141 371.918 133.061 373.297C132.949 375.215 132.784 377.145 132.311 379.016C131.635 381.681 130.366 384.157 129.154 386.609C128.543 387.847 129.073 389.341 130.311 389.953C131.548 390.565 133.043 390.066 133.654 388.828C135.024 386.055 136.427 383.249 137.185 380.234C137.734 378.055 137.899 375.846 138.029 373.609C138.11 372.231 137.064 371.033 135.685 370.953Z" fill="white"/>
<path d="M526.498 167.203C494.171 172.154 461.842 177.159 429.685 183.14C428.328 183.393 427.433 184.689 427.685 186.047C427.938 187.404 429.234 188.299 430.592 188.047C462.695 182.075 494.973 177.084 527.248 172.14C528.613 171.931 529.551 170.662 529.342 169.297C529.133 167.932 527.863 166.994 526.498 167.203Z" fill="white"/>
<path d="M514.154 177.672C504.973 179.17 495.802 180.782 486.685 182.64C468.507 186.346 450.481 190.718 432.435 195.016C431.092 195.335 430.272 196.704 430.592 198.047C430.912 199.39 432.249 200.21 433.592 199.89C451.584 195.606 469.56 191.241 487.685 187.547C496.738 185.702 505.819 184.097 514.935 182.609C516.298 182.387 517.22 181.097 516.998 179.734C516.776 178.372 515.517 177.449 514.154 177.672Z" fill="white"/>
<path d="M430.873 180.672C429.498 180.792 428.502 182.015 428.623 183.39C430.202 201.412 431.343 219.569 435.498 237.234C437.744 246.783 441.851 256.378 450.029 262.297C451.846 263.611 453.788 264.712 455.842 265.609C462.529 268.531 469.933 269.243 477.154 269.297C478.535 269.307 479.644 268.177 479.654 266.797C479.664 265.416 478.566 264.307 477.185 264.297C469.135 264.238 460.59 263.348 453.717 258.766C445.258 253.125 441.825 243.07 439.811 233.578C436.27 216.895 435.077 199.906 433.592 182.953C433.471 181.578 432.248 180.551 430.873 180.672Z" fill="white"/>
<path d="M528.029 188.047C526.667 188.274 525.74 189.56 525.967 190.922C527.708 201.355 530.545 211.607 531.217 222.203C531.631 228.743 531.272 235.421 528.498 241.453C527.922 242.708 528.462 244.189 529.717 244.766C530.972 245.342 532.453 244.801 533.029 243.547C536.147 236.747 536.653 229.27 536.185 221.89C535.503 211.119 532.673 200.715 530.904 190.109C530.677 188.747 529.391 187.82 528.029 188.047Z" fill="white"/>
<path d="M495.092 296.109C478.735 299.49 462.337 302.733 445.935 305.89C414.547 311.932 383.123 317.889 352.123 325.734C334.485 330.198 317.049 335.321 299.842 341.234C298.536 341.683 297.83 343.116 298.279 344.422C298.728 345.728 300.161 346.433 301.467 345.984C318.542 340.116 335.838 335.008 353.342 330.578C384.249 322.756 415.579 316.82 446.873 310.797C463.297 307.635 479.713 304.401 496.092 301.016C497.444 300.736 498.309 299.399 498.029 298.047C497.75 296.695 496.444 295.83 495.092 296.109Z" fill="white"/>
<path d="M416.154 329.422C388.854 334.213 361.812 340.22 334.811 346.453C333.465 346.764 332.625 348.108 332.935 349.453C333.246 350.798 334.59 351.639 335.935 351.328C362.851 345.115 389.816 339.135 417.029 334.359C418.389 334.121 419.299 332.813 419.061 331.453C418.822 330.093 417.514 329.183 416.154 329.422Z" fill="white"/>
</svg>
