<svg width="767" height="499" viewBox="0 0 767 499" fill="none" xmlns="http://www.w3.org/2000/svg">
<path d="M192.44 22.938V23.094C189.148 22.887 149.167 20.786 131.127 42.5C75.6282 109.301 14.2212 415.875 14.2212 415.875L115.908 447.625L192.44 184.25L200.664 405.962L192.44 493.125L577.171 493.117L565.561 405.962L578.752 196.438L651.783 447.656L753.44 415.906C753.44 415.906 692.063 109.332 636.564 42.531C620.847 23.612 589.187 22.827 578.752 23.062V22.938H445.908C444.914 24.627 443.937 26.279 442.314 28.562C442.124 28.831 442.127 28.83 441.94 29.094C440.094 31.696 439.244 33.054 438.658 34.344C434.918 42.575 432.008 49.301 425.69 64.219C425.393 64.918 421.444 74.256 419.971 77.688C418.641 80.784 417.433 83.22 414.94 88.062C414.704 88.521 414.705 88.545 414.471 89C410.951 95.839 409.375 99.31 408.096 103.5C406.211 109.67 404.065 114.314 399.19 123.594C399.082 123.798 397.826 126.209 397.19 127.438C397.169 127.51 397.135 127.567 397.127 127.594C396.98 128.115 396.897 128.456 396.752 128.875C396.481 129.657 396.172 130.368 395.721 131.125C393.671 134.563 389.699 136.781 385.064 135.531C380.806 134.383 378.473 131.505 376.533 127.344C375.507 125.143 374.634 122.572 373.752 119.375C373.41 118.136 371.687 111.229 371.533 110.844C368.324 102.821 364.823 96.521 356.252 82.562C356.221 82.513 356.22 82.518 356.19 82.469C349.175 71.046 346.151 65.823 342.846 58.969C339.375 51.771 334.784 43.787 329.971 36.406C329.307 35.388 326.863 32.37 326.814 32.312C325.649 30.913 325.071 30.154 324.408 29.281C324.404 29.277 324.328 29.2 324.314 29.188C324.133 29.03 323.242 28.274 323.002 28.062C322.475 27.597 322.038 27.169 321.596 26.656C321.158 26.149 320.776 25.607 320.408 24.938C320.066 24.314 319.826 23.644 319.627 22.938H192.44Z" fill="#F6E6DE"/>
<path d="M383.83 142.162L312.005 5.44897L255.012 21.315L238.534 67.541L295.767 63.264" stroke="black" stroke-width="10" stroke-miterlimit="10" stroke-linecap="round" stroke-linejoin="round"/>
<path d="M471.893 63.264L529.127 67.541L512.648 21.315L455.655 5.44897L383.83 153.135L372.318 493.117" stroke="black" stroke-width="10" stroke-miterlimit="10" stroke-linecap="round" stroke-linejoin="round"/>
<path d="M17.1452 358.64L127.044 414.944L119.409 453.284L5.62939 418.72L17.1452 358.64Z" stroke="black" stroke-width="10" stroke-miterlimit="10" stroke-linecap="round" stroke-linejoin="round"/>
<path d="M749.998 358.64L640.099 414.944L647.734 453.284L761.514 418.72L749.998 358.64Z" stroke="black" stroke-width="10" stroke-miterlimit="10" stroke-linecap="round" stroke-linejoin="round"/>
<path d="M166.752 97.594C165.411 97.921 164.581 99.284 164.908 100.625C167.041 109.377 169.474 118.026 172.158 126.625C175.322 136.759 178.845 146.8 182.096 156.906C183.583 161.53 185.075 166.151 186.44 170.812C187.917 175.86 189.234 180.99 190.627 186.062C190.993 187.394 192.358 188.178 193.69 187.812C195.021 187.447 195.805 186.05 195.44 184.719C194.04 179.62 192.706 174.481 191.221 169.406C189.844 164.702 188.346 160.041 186.846 155.375C183.6 145.283 180.099 135.277 176.94 125.156C174.286 116.658 171.86 108.087 169.752 99.438C169.425 98.096 168.093 97.267 166.752 97.594Z" fill="black"/>
<path d="M135.408 107.969C134.775 108.063 134.163 108.383 133.752 108.938C132.929 110.046 133.174 111.615 134.283 112.438C140.936 117.373 146.979 122.987 152.471 129.188C165.958 144.415 176.099 162.272 187.252 179.188C188.012 180.34 189.568 180.666 190.721 179.906C191.873 179.146 192.168 177.59 191.408 176.438C180.122 159.32 169.869 141.284 156.221 125.875C150.499 119.415 144.183 113.58 137.252 108.438C136.698 108.026 136.041 107.875 135.408 107.969Z" fill="black"/>
<path d="M137.314 128.719C136.683 128.819 136.095 129.16 135.69 129.719C134.878 130.836 135.104 132.408 136.221 133.219C144.319 139.097 150.52 146.883 156.658 154.688C157.512 155.773 159.073 155.947 160.158 155.094C161.243 154.24 161.449 152.679 160.596 151.594C154.166 143.419 147.637 135.314 139.158 129.156C138.6 128.751 137.946 128.618 137.314 128.719Z" fill="black"/>
<path d="M592.564 121.344C591.219 121.032 589.876 121.874 589.564 123.219C587.72 131.174 585.931 139.12 584.314 147.125C581.1 163.044 578.223 179.015 574.721 194.875C574.423 196.223 575.279 197.577 576.627 197.875C577.975 198.173 579.329 197.317 579.627 195.969C583.136 180.079 586 164.073 589.221 148.125C590.828 140.166 592.605 132.252 594.44 124.344C594.751 122.999 593.91 121.656 592.564 121.344Z" fill="black"/>
<path d="M637.971 36.5619C637.349 36.7119 636.8 37.099 636.44 37.688C626.854 53.336 617.805 69.286 609.096 85.438C608.44 86.653 608.88 88.1879 610.096 88.8439C611.311 89.4989 612.815 89.0279 613.471 87.8119C622.137 71.7419 631.152 55.8829 640.69 40.3119C641.411 39.1349 641.054 37.5959 639.877 36.8749C639.288 36.5139 638.593 36.4129 637.971 36.5619Z" fill="black"/>
<path d="M134.69 36.562C134.067 36.414 133.372 36.514 132.783 36.875C131.607 37.597 131.248 39.136 131.971 40.312C134.667 44.706 137.233 49.153 139.627 53.719C144.121 62.288 148.198 71.084 152.752 79.625C153.402 80.843 154.909 81.306 156.127 80.656C157.345 80.007 157.808 78.5 157.158 77.281C152.61 68.751 148.553 59.966 144.064 51.406C141.618 46.741 138.976 42.177 136.221 37.688C135.86 37.099 135.312 36.711 134.69 36.562Z" fill="black"/>
<path d="M613.221 119.375C612.593 119.498 612.012 119.865 611.627 120.438C606.943 127.399 602.375 134.456 598.064 141.656C592.058 151.689 586.506 161.963 581.19 172.375C580.562 173.605 581.054 175.122 582.283 175.75C583.513 176.378 585.03 175.886 585.658 174.656C590.924 164.344 596.397 154.155 602.346 144.219C606.611 137.094 611.117 130.108 615.752 123.219C616.523 122.073 616.241 120.521 615.096 119.75C614.523 119.365 613.849 119.252 613.221 119.375Z" fill="black"/>
<path d="M638.033 107.469C637.397 107.538 636.778 107.837 636.346 108.375C625.483 121.878 614.026 134.866 603.096 148.312C602.225 149.384 602.399 150.973 603.471 151.844C604.542 152.715 606.1 152.54 606.971 151.469C617.906 138.016 629.384 125.009 640.252 111.5C641.117 110.424 640.953 108.865 639.877 108C639.339 107.567 638.669 107.4 638.033 107.469Z" fill="black"/>
<path d="M246.127 38.531C215.696 41.544 185.236 44.001 154.752 46.406C153.376 46.515 152.331 47.717 152.44 49.094C152.548 50.47 153.751 51.515 155.127 51.406C185.644 48.998 216.163 46.547 246.627 43.531C248.001 43.395 249.013 42.155 248.877 40.781C248.741 39.407 247.501 38.395 246.127 38.531Z" fill="black"/>
<path d="M520.096 38.531C518.722 38.395 517.482 39.407 517.346 40.781C517.21 42.155 518.222 43.395 519.596 43.531C550.06 46.547 580.579 48.998 611.096 51.406C612.472 51.515 613.675 50.47 613.783 49.094C613.892 47.717 612.847 46.515 611.471 46.406C580.987 44.001 550.527 41.544 520.096 38.531Z" fill="black"/>
<path d="M325.064 72.688C324.447 72.519 323.758 72.595 323.158 72.938C321.959 73.622 321.536 75.145 322.221 76.344C338.556 104.942 354.292 133.848 369.377 163.125C370.009 164.352 371.525 164.851 372.752 164.219C373.979 163.586 374.478 162.071 373.846 160.844C358.728 131.503 342.935 102.536 326.564 73.875C326.222 73.276 325.682 72.856 325.064 72.688Z" fill="black"/>
<path d="M694.471 359.469C693.838 359.371 693.184 359.529 692.627 359.938C684.577 365.841 676.395 371.559 668.064 377.062C656.381 384.782 644.434 392.102 632.471 399.375C631.291 400.092 630.941 401.633 631.658 402.812C632.375 403.992 633.916 404.374 635.096 403.656C647.113 396.351 659.079 389.004 670.814 381.25C679.213 375.701 687.448 369.921 695.564 363.969C696.678 363.152 696.912 361.582 696.096 360.469C695.687 359.912 695.103 359.566 694.471 359.469Z" fill="black"/>
<path d="M717.877 344.344C717.249 344.224 716.573 344.331 716.002 344.719C713.171 346.643 710.333 348.576 707.502 350.5C706.36 351.276 706.07 352.827 706.846 353.969C707.622 355.111 709.173 355.401 710.314 354.625C713.145 352.701 715.984 350.799 718.814 348.875C719.956 348.099 720.247 346.517 719.471 345.375C719.083 344.804 718.505 344.464 717.877 344.344Z" fill="black"/>
<path d="M719.44 317.438C718.8 317.421 718.159 317.649 717.658 318.125C703.628 331.459 689.729 345.008 674.533 357.031C668.315 361.952 661.856 366.52 655.19 370.812C654.029 371.56 653.692 373.12 654.44 374.281C655.187 375.442 656.748 375.779 657.908 375.031C664.711 370.651 671.281 365.959 677.627 360.938C692.941 348.82 706.956 335.188 721.096 321.75C722.097 320.799 722.141 319.188 721.19 318.188C720.714 317.687 720.079 317.454 719.44 317.438Z" fill="black"/>
<path d="M639.94 378.75C639.302 378.694 638.656 378.869 638.127 379.312C637.346 379.967 636.565 380.627 635.783 381.281C634.725 382.168 634.584 383.723 635.471 384.781C636.358 385.84 637.944 385.98 639.002 385.094C639.783 384.439 640.564 383.811 641.346 383.156C642.404 382.269 642.545 380.683 641.658 379.625C641.215 379.096 640.577 378.806 639.94 378.75Z" fill="black"/>
<path d="M731.908 317.156C731.271 317.099 730.626 317.307 730.096 317.75C729.036 318.635 728.898 320.19 729.783 321.25C730.881 322.563 731.969 323.935 732.627 325.531C733.835 328.464 732.638 331.432 731.502 334.188C730.974 335.469 730.416 336.754 729.877 338.031C729.34 339.303 729.917 340.776 731.19 341.312C732.462 341.849 733.934 341.241 734.471 339.969C736.861 334.306 739.816 328.767 736.814 322.688C735.972 320.982 734.84 319.516 733.627 318.062C733.184 317.533 732.546 317.213 731.908 317.156Z" fill="black"/>
<path d="M732.908 337.281C732.275 337.191 731.616 337.367 731.064 337.781C729.961 338.611 729.735 340.177 730.564 341.281C732.658 344.066 734.696 346.818 736.627 349.719C737.392 350.868 738.946 351.202 740.096 350.438C741.245 349.673 741.548 348.118 740.783 346.969C738.8 343.989 736.714 341.111 734.564 338.25C734.15 337.698 733.542 337.371 732.908 337.281Z" fill="black"/>
<path d="M729.471 302.656C728.128 302.977 727.306 304.313 727.627 305.656C727.902 306.799 728.105 307.916 728.158 309.094C728.323 312.713 727.28 316.283 726.502 319.781C726.202 321.129 727.06 322.45 728.408 322.75C729.756 323.05 731.077 322.223 731.377 320.875C732.153 317.388 733.124 313.876 733.19 310.281C733.226 308.306 732.926 306.415 732.471 304.5C732.15 303.157 730.814 302.335 729.471 302.656Z" fill="black"/>
<path d="M36.5021 349.938C35.8981 350.147 35.3971 350.597 35.0961 351.219C34.4941 352.461 35.0101 353.929 36.2521 354.531C57.4241 364.792 77.6371 376.844 97.9081 388.75C99.0991 389.449 100.615 389.066 101.314 387.875C102.014 386.684 101.63 385.137 100.44 384.438C80.0531 372.464 59.7321 360.35 38.4401 350.031C37.8181 349.73 37.1061 349.728 36.5021 349.938Z" fill="black"/>
<path d="M110.658 390.531C110.044 390.71 109.522 391.114 109.19 391.719C108.524 392.929 108.948 394.46 110.158 395.125C111.455 395.838 111.31 395.724 111.471 395.812C111.471 395.812 113.182 396.768 112.752 396.531C113.182 396.768 114.464 397.487 114.033 397.25C112.742 396.54 114.024 397.259 115.314 397.969C116.524 398.634 118.055 398.179 118.721 396.969C119.386 395.759 118.962 394.228 117.752 393.562C116.456 392.849 116.6 392.963 116.44 392.875C116.44 392.875 114.728 391.92 115.158 392.156C114.728 391.92 113.447 391.201 113.877 391.438C115.168 392.148 113.855 391.46 112.564 390.75C111.96 390.417 111.273 390.353 110.658 390.531Z" fill="black"/>
<path d="M57.7212 343.781C57.0922 343.9 56.5162 344.242 56.1272 344.812C55.3492 345.953 55.6122 347.503 56.7522 348.281C79.6352 363.902 102.981 378.823 126.158 394C127.313 394.756 128.871 394.436 129.627 393.281C130.383 392.126 130.063 390.6 128.908 389.844C105.758 374.685 82.4522 359.759 59.5962 344.156C59.0262 343.767 58.3492 343.663 57.7212 343.781Z" fill="black"/>
<path d="M44.502 335C43.865 334.943 43.219 335.151 42.69 335.594C41.63 336.479 41.491 338.035 42.377 339.094C42.882 339.698 43.372 340.302 43.877 340.906C44.763 341.965 46.349 342.136 47.408 341.25C48.467 340.364 48.606 338.778 47.721 337.719C47.215 337.114 46.726 336.511 46.221 335.906C45.778 335.377 45.139 335.057 44.502 335Z" fill="black"/>
<path d="M34.158 322.812C33.535 322.955 32.963 323.321 32.596 323.906C31.068 326.343 29.845 328.973 29.596 331.875C29.374 334.461 29.989 336.975 30.252 339.531C30.352 340.501 30.363 341.494 30.377 342.469C30.381 342.768 29.473 343.91 29.158 344.281C28.064 345.571 26.82 346.718 25.752 348.031C24.882 349.104 25.055 350.693 26.127 351.562C27.199 352.432 28.757 352.26 29.627 351.188C31.548 348.811 34.905 346.344 35.346 343.094C35.838 339.459 34.289 335.927 34.596 332.312C34.774 330.214 35.713 328.317 36.814 326.562C37.548 325.393 37.203 323.859 36.033 323.125C35.448 322.758 34.782 322.67 34.158 322.812Z" fill="black"/>
<path d="M136.314 371.375C134.936 371.295 133.77 372.34 133.69 373.719C133.578 375.637 133.413 377.567 132.94 379.438C132.264 382.103 130.995 384.579 129.783 387.031C129.172 388.269 129.702 389.763 130.94 390.375C132.177 390.987 133.672 390.488 134.283 389.25C135.653 386.477 137.056 383.671 137.814 380.656C138.363 378.477 138.528 376.268 138.658 374.031C138.739 372.653 137.693 371.455 136.314 371.375Z" fill="black"/>
<path d="M527.127 167.625C494.8 172.576 462.471 177.581 430.314 183.562C428.957 183.815 428.062 185.111 428.314 186.469C428.567 187.826 429.863 188.721 431.221 188.469C463.324 182.497 495.602 177.506 527.877 172.562C529.242 172.353 530.18 171.084 529.971 169.719C529.762 168.354 528.492 167.416 527.127 167.625Z" fill="black"/>
<path d="M514.783 178.094C505.602 179.592 496.431 181.204 487.314 183.062C469.136 186.768 451.11 191.14 433.064 195.438C431.721 195.757 430.901 197.126 431.221 198.469C431.541 199.812 432.878 200.632 434.221 200.312C452.213 196.028 470.189 191.663 488.314 187.969C497.367 186.124 506.448 184.519 515.564 183.031C516.927 182.809 517.849 181.519 517.627 180.156C517.405 178.794 516.146 177.871 514.783 178.094Z" fill="black"/>
<path d="M431.502 181.094C430.127 181.214 429.131 182.437 429.252 183.812C430.831 201.834 431.972 219.991 436.127 237.656C438.373 247.205 442.48 256.8 450.658 262.719C452.475 264.033 454.417 265.134 456.471 266.031C463.158 268.953 470.562 269.665 477.783 269.719C479.164 269.729 480.273 268.599 480.283 267.219C480.293 265.838 479.195 264.729 477.814 264.719C469.764 264.66 461.219 263.77 454.346 259.188C445.887 253.547 442.454 243.492 440.44 234C436.899 217.317 435.706 200.328 434.221 183.375C434.1 182 432.877 180.973 431.502 181.094Z" fill="black"/>
<path d="M528.658 188.469C527.296 188.696 526.369 189.982 526.596 191.344C528.337 201.777 531.174 212.029 531.846 222.625C532.26 229.165 531.901 235.843 529.127 241.875C528.551 243.13 529.091 244.611 530.346 245.188C531.601 245.764 533.082 245.223 533.658 243.969C536.776 237.169 537.282 229.692 536.814 222.312C536.132 211.541 533.302 201.137 531.533 190.531C531.306 189.169 530.02 188.242 528.658 188.469Z" fill="black"/>
<path d="M495.721 296.531C479.364 299.912 462.966 303.155 446.564 306.312C415.176 312.354 383.752 318.311 352.752 326.156C335.114 330.62 317.678 335.743 300.471 341.656C299.165 342.105 298.459 343.538 298.908 344.844C299.357 346.15 300.79 346.855 302.096 346.406C319.171 340.538 336.467 335.43 353.971 331C384.878 323.178 416.208 317.242 447.502 311.219C463.926 308.057 480.342 304.823 496.721 301.438C498.073 301.158 498.938 299.821 498.658 298.469C498.379 297.117 497.073 296.252 495.721 296.531Z" fill="black"/>
<path d="M416.783 329.844C389.483 334.635 362.441 340.642 335.44 346.875C334.094 347.186 333.254 348.53 333.564 349.875C333.875 351.22 335.219 352.061 336.564 351.75C363.48 345.537 390.445 339.557 417.658 334.781C419.018 334.543 419.928 333.235 419.69 331.875C419.451 330.515 418.143 329.605 416.783 329.844Z" fill="black"/>
</svg>
