<svg width="372" height="372" viewBox="0 0 372 372" fill="none" xmlns="http://www.w3.org/2000/svg">
<g clip-path="url(#clip0_341_2245)">
<mask id="mask0_341_2245" style="mask-type:luminance" maskUnits="userSpaceOnUse" x="-10" y="-115" width="391" height="844">
<path d="M380.5 -115H-9.5V729H380.5V-115Z" fill="white"/>
</mask>
<g mask="url(#mask0_341_2245)">
<path d="M-84.3376 122.441C-84.3376 122.441 -61.2068 172.338 12.4142 197.095C35.9258 205.001 64.5869 210.344 99.289 210.678C242.651 212.06 229.032 78.816 313.071 71.046C430.933 60.149 409.207 157.563 409.207 157.563" stroke="#ED835E" stroke-width="5" stroke-miterlimit="10" stroke-linejoin="round" stroke-dasharray="20 20"/>
<path d="M457 162.438L452.531 169.188L465.781 177.938C465.901 177.572 466.027 177.211 466.25 176.875L469.438 172.062C469.66 171.726 469.929 171.441 470.219 171.188L457 162.438ZM473.188 171.219C471.967 171.23 470.787 171.843 470.062 172.938L467.312 177.094C466.153 178.846 466.623 181.216 468.375 182.375L472.531 185.094C474.283 186.253 476.653 185.783 477.812 184.031L480.562 179.875C481.722 178.123 481.252 175.753 479.5 174.594L475.344 171.844C474.687 171.409 473.92 171.212 473.188 171.219ZM404.938 172.781C403.013 172.781 401.073 173.047 399.25 173.531C398.021 174.037 396.788 174.553 395.5 175.25C395.108 175.462 393.433 176.339 393.188 176.469C390.77 177.741 389.442 178.668 388.469 179.906C388.017 180.481 387.452 181.485 387 182.188C385.665 185.528 385.412 189.329 385.844 192.844C386.013 194.221 385.844 195.76 386.125 197.156C389.097 199.65 393.455 200.878 399.812 201.375C401.081 201.474 406.695 201.751 408.094 201.875C408.123 201.878 408.127 201.904 408.156 201.906C408.414 201.93 408.665 202.005 408.875 202.125C410.552 202.337 412.121 202.919 413.906 203.812C415.383 204.552 416.559 205.955 418.281 205.312C420.868 204.347 421.963 197.484 424.438 195.156C426.623 193.1 429.96 190.966 432.938 190.344C434.13 190.094 436.488 190.506 437.469 189.656C439.845 187.598 435.382 186.561 432.469 186.188C431.142 186.058 429.816 185.964 428.469 185.906C425.676 185.954 421.935 187.002 419.688 188.469C419.709 188.439 419.696 188.405 419.719 188.375C420.254 187.681 420.859 186.828 421.531 186.281C421.687 186.155 422.301 185.862 422.312 185.625C422.339 185.103 421.816 184.468 421.312 183.875C421.335 183.867 421.353 183.852 421.375 183.844C420.677 182.821 420.084 181.681 419.531 180.812C417.58 177.749 414.102 174.592 410.562 173.562C408.766 173.04 406.862 172.781 404.938 172.781ZM482.094 179.031C481.974 179.397 481.816 179.758 481.594 180.094L478.406 184.906C478.184 185.242 477.914 185.528 477.625 185.781L491.938 195.25L496.406 188.531L482.094 179.031ZM448.812 182.031C448.561 182.2 448.342 184.463 448.219 184.844C447.569 186.845 446.479 188.768 445.344 190.531C438.629 200.959 432.388 211.024 429.281 223.156C428.416 226.536 428.294 231.446 429.938 234.594C429.969 234.654 430.09 234.969 430.156 235.125C430.778 234.729 431.476 234.22 432.406 233.5C432.46 233.459 432.497 233.419 432.594 233.344C433.612 232.554 434.088 232.221 434.688 231.812C438.289 229.363 441.692 226.547 445.031 223.344C445.533 222.606 445.978 221.868 446.219 221.125C446.663 219.751 446.378 218.134 446.406 216.719C446.479 213.075 446.496 209.053 447.438 205.531C448.339 202.158 450.162 199.231 451.906 196.25C455.45 196.121 459.493 200.268 461.75 202.594C461.832 202.678 462.04 202.977 462.156 203.125C462.756 202.246 463.302 201.408 463.781 200.562C464.047 200.094 464.259 199.626 464.594 198.781C460.478 195.197 457.356 190.195 453.75 186.094C453.17 185.435 449.745 181.406 448.812 182.031ZM483.844 204.25L480.156 204.406L479.75 209.438L482.688 210.75L485.938 207L483.844 204.25ZM478.938 206.844C473.507 206.054 468.155 208.95 465.875 214.031C463.076 220.271 465.854 227.607 472.094 230.406C478.333 233.206 485.669 230.427 488.469 224.188C490.772 219.055 489.321 213.046 485.031 209.531L483.969 210.781C487.691 213.83 488.967 219.046 486.969 223.5C484.539 228.915 478.196 231.336 472.781 228.906C467.367 226.477 464.946 220.134 467.375 214.719C469.353 210.309 474.007 207.783 478.719 208.469L478.938 206.844ZM402.812 212.094C401.753 212.19 400.998 213.128 401.094 214.188C401.19 215.247 402.128 216.033 403.188 215.938C404.247 215.842 405.002 214.903 404.906 213.844C404.81 212.784 403.872 211.998 402.812 212.094ZM373.219 214.781C372.159 214.877 371.373 215.815 371.469 216.875C371.565 217.934 372.503 218.721 373.562 218.625C374.622 218.529 375.408 217.591 375.312 216.531C375.217 215.472 374.278 214.685 373.219 214.781ZM400.469 215.375C399.409 215.471 398.623 216.409 398.719 217.469C398.815 218.528 399.753 219.315 400.812 219.219C401.872 219.123 402.658 218.185 402.562 217.125C402.467 216.066 401.528 215.279 400.469 215.375ZM376.125 217.594C375.066 217.69 374.279 218.628 374.375 219.688C374.471 220.747 375.409 221.533 376.469 221.438C377.528 221.342 378.315 220.403 378.219 219.344C378.123 218.284 377.185 217.498 376.125 217.594ZM397.25 218.531C396.191 218.627 395.404 219.566 395.5 220.625C395.596 221.685 396.534 222.471 397.594 222.375C398.653 222.279 399.44 221.341 399.344 220.281C399.248 219.222 398.309 218.435 397.25 218.531ZM379.844 220.094C378.784 220.19 378.029 221.128 378.125 222.188C378.221 223.247 379.159 224.033 380.219 223.938C381.278 223.842 382.033 222.903 381.938 221.844C381.842 220.784 380.903 219.998 379.844 220.094ZM393.094 220.5C392.034 220.596 391.248 221.534 391.344 222.594C391.44 223.653 392.378 224.44 393.438 224.344C394.497 224.248 395.283 223.309 395.188 222.25C395.092 221.19 394.153 220.404 393.094 220.5ZM388.812 221.062C387.753 221.158 386.967 222.097 387.062 223.156C387.158 224.216 388.097 225.002 389.156 224.906C390.216 224.81 391.002 223.872 390.906 222.812C390.81 221.753 389.872 220.967 388.812 221.062ZM384.312 221.312C383.253 221.408 382.467 222.347 382.562 223.406C382.658 224.466 383.597 225.252 384.656 225.156C385.716 225.06 386.502 224.091 386.406 223.031C386.31 221.972 385.372 221.217 384.312 221.312ZM409.062 229.938C407.858 229.795 406.692 230.013 405.594 230.438C403.763 231.146 402.136 232.471 400.844 233.875C399.431 235.41 398.64 237.374 398.031 239.344C397.46 241.191 397.076 243.117 396.812 245.031C396.547 246.953 396.408 248.903 396.469 250.844C396.496 251.705 396.555 252.554 396.688 253.406C396.325 253.313 395.964 253.235 395.594 253.125C395.198 253.501 394.968 254.033 394.781 254.875C394.716 255.17 394.608 255.931 394.5 256.531C394.343 260.479 393.382 270.853 395.312 275.625C402.225 277.568 407.152 276.967 416.062 273.688C421.56 271.664 425.755 269.674 429.844 267.062C432.653 265.269 433.927 264.436 435.375 263.281C435.458 263.215 435.513 263.129 435.594 263.062C434.453 257.819 427.046 249.943 424.344 246.969C424.228 246.841 424.004 246.517 423.844 246.312C423.562 246.056 423.345 245.861 423.219 245.75C422.105 244.775 421.353 244.403 420.344 244.5C420.063 244.896 419.726 245.275 419.406 245.656C418.829 245.097 418.2 244.597 417.562 244.094C416.2 243.019 414.756 241.927 413.906 240.375C413.711 240.019 413.541 239.643 413.438 239.25C413.279 238.649 413.247 237.994 413.25 237.375C413.255 236.5 413.311 235.625 413.281 234.75C413.229 233.199 412.869 231.689 411.5 230.781C411.131 230.536 410.734 230.353 410.312 230.219C409.911 230.09 409.481 229.987 409.062 229.938ZM458.781 230.469C458.081 230.365 457.363 230.543 456.75 231L445.062 239.688C443.837 240.601 443.587 242.337 444.5 243.562L462.531 267.75C463.444 268.976 465.181 269.226 466.406 268.312L478.062 259.625C479.288 258.712 479.538 256.976 478.625 255.75L460.594 231.562C460.137 230.95 459.482 230.573 458.781 230.469ZM408.125 231.125C408.725 231.104 409.321 231.179 409.938 231.375C410.254 231.475 410.565 231.598 410.844 231.781C411.73 232.365 412.02 233.403 412.094 234.406C412.237 236.335 411.768 238.343 412.531 240.188C413.289 242.019 414.768 243.353 416.281 244.562C417.088 245.207 417.889 245.845 418.625 246.562C414.69 250.723 408.627 253.757 403.062 254.125C401.423 254.234 399.74 254.075 398 253.719C397.831 252.838 397.756 251.926 397.719 251.031C397.637 249.078 397.765 247.123 398.031 245.188C398.285 243.34 398.67 241.503 399.219 239.719C399.489 238.839 399.802 237.961 400.188 237.125C400.531 236.38 400.923 235.65 401.469 235.031C402.747 233.58 404.438 232.082 406.344 231.438C406.915 231.244 407.525 231.146 408.125 231.125ZM458.625 231.281C459.026 231.34 459.425 231.553 459.688 231.906C460.213 232.612 460.049 233.599 459.344 234.125C458.638 234.651 457.651 234.518 457.125 233.812C456.599 233.107 456.732 232.12 457.438 231.594C457.79 231.331 458.224 231.223 458.625 231.281ZM461.719 235.469C462.121 235.529 462.518 235.741 462.781 236.094C463.307 236.799 463.174 237.787 462.469 238.312C461.763 238.838 460.745 238.674 460.219 237.969C459.693 237.263 459.857 236.276 460.562 235.75C460.915 235.487 461.316 235.408 461.719 235.469ZM456.844 235.594C457.248 235.653 457.643 235.866 457.906 236.219C458.432 236.924 458.268 237.912 457.562 238.438C456.857 238.963 455.87 238.831 455.344 238.125C454.818 237.419 454.951 236.401 455.656 235.875C456.009 235.612 456.439 235.535 456.844 235.594ZM364.062 245.875L347.531 250.5C347.729 250.83 347.922 251.174 348.031 251.562L349.594 257.125C349.703 257.513 349.716 257.897 349.719 258.281L366.25 253.656L364.062 245.875ZM344 249.469C343.51 249.407 342.974 249.452 342.469 249.594L337.688 250.938C336.929 251.151 336.286 251.597 335.812 252.156C335.024 253.088 334.707 254.361 335.062 255.625L336.406 260.438C336.975 262.46 339.072 263.631 341.094 263.062L345.875 261.719C347.897 261.15 349.1 259.053 348.531 257.031L347.156 252.219C346.73 250.702 345.471 249.655 344 249.469ZM333.844 254.375L318.562 258.656L320.75 266.438L336.031 262.156C335.833 261.827 335.672 261.451 335.562 261.062L334 255.531C333.891 255.143 333.847 254.76 333.844 254.375ZM367.781 265.656L365.5 268.562L369 272.125L371.938 270.781L371.219 265.875L367.781 265.656ZM376.594 268.188C375.273 267.978 373.897 267.981 372.531 268.219L372.812 269.812C377.552 268.987 382.339 271.452 384.406 275.875C386.919 281.252 384.595 287.644 379.219 290.156C373.842 292.669 367.45 290.345 364.938 284.969C362.891 280.59 363.997 275.432 367.594 272.312L366.531 271.062C362.386 274.658 361.08 280.611 363.438 285.656C366.333 291.852 373.711 294.52 379.906 291.625C386.102 288.73 388.77 281.383 385.875 275.188C384.089 271.365 380.556 268.816 376.594 268.188ZM334.375 276.594C333.497 276.602 328.199 276.542 328.062 277.656C328.026 277.956 329.605 279.626 329.812 279.969C330.904 281.768 331.657 283.832 332.25 285.844C335.759 297.739 339.25 309.034 346.406 319.312C348.4 322.176 352.075 325.469 355.531 326.281C355.598 326.297 355.901 326.417 356.062 326.469C356.169 325.739 356.25 324.862 356.312 323.688C356.316 323.62 356.306 323.56 356.312 323.438C356.38 322.15 356.417 321.596 356.5 320.875C356.998 316.548 357.119 312.152 356.875 307.531C356.644 306.67 356.343 305.824 355.938 305.156C355.188 303.922 353.803 303.102 352.75 302.156C350.038 299.721 347.02 297.075 344.969 294.062C343.004 291.176 341.961 287.894 340.844 284.625C343.061 281.858 348.828 281.502 352.062 281.312C352.18 281.306 352.562 281.335 352.75 281.344C352.476 280.316 352.202 279.353 351.875 278.438C351.694 277.93 351.452 277.462 351.031 276.656C345.629 277.431 339.836 276.543 334.375 276.594ZM504.438 277.031L499.969 283.781L513.219 292.531C513.339 292.166 513.465 291.805 513.688 291.469L516.875 286.656C517.098 286.32 517.367 286.066 517.656 285.812L504.438 277.031ZM520.625 285.844C519.404 285.855 518.225 286.436 517.5 287.531L514.75 291.688C513.591 293.439 514.061 295.809 515.812 296.969L519.969 299.719C521.721 300.878 524.091 300.408 525.25 298.656L528 294.5C529.159 292.748 528.658 290.378 526.906 289.219L522.781 286.469C522.124 286.034 521.358 285.837 520.625 285.844ZM452.375 287.406C450.45 287.406 448.51 287.641 446.688 288.125C445.459 288.631 444.226 289.178 442.938 289.875C442.545 290.087 440.871 290.964 440.625 291.094C438.208 292.366 436.879 293.293 435.906 294.531C435.455 295.106 434.89 296.079 434.438 296.781C433.102 300.122 432.849 303.923 433.281 307.438C433.45 308.815 433.282 310.385 433.562 311.781C436.534 314.275 440.892 315.472 447.25 315.969C448.519 316.068 454.133 316.376 455.531 316.5C455.561 316.503 455.564 316.497 455.594 316.5C455.851 316.523 456.071 316.598 456.281 316.719C457.959 316.931 459.559 317.513 461.344 318.406C462.82 319.145 463.997 320.58 465.719 319.938C468.305 318.972 469.4 312.078 471.875 309.75C474.061 307.694 477.397 305.56 480.375 304.938C481.567 304.688 483.926 305.13 484.906 304.281C487.282 302.223 482.82 301.186 479.906 300.812C478.58 300.683 477.254 300.557 475.906 300.5C473.114 300.548 469.372 301.627 467.125 303.094C467.147 303.064 467.133 303.03 467.156 303C467.691 302.306 468.296 301.453 468.969 300.906C469.124 300.78 469.738 300.487 469.75 300.25C469.776 299.728 469.254 299.062 468.75 298.469C468.773 298.461 468.79 298.446 468.812 298.438C468.115 297.415 467.522 296.274 466.969 295.406C465.018 292.343 461.54 289.217 458 288.188C456.204 287.665 454.3 287.406 452.375 287.406ZM325.812 289.875C324.668 289.401 322.171 291.279 320.531 292.75C319.567 293.67 318.611 294.611 317.688 295.594C315.9 297.739 314.264 301.278 313.906 303.938C313.898 303.901 313.883 303.849 313.875 303.812C313.699 302.954 313.412 301.96 313.438 301.094C313.443 300.894 313.641 300.258 313.469 300.094C313.09 299.733 312.247 299.693 311.469 299.688C311.477 299.665 311.492 299.647 311.5 299.625C310.27 299.485 309.019 299.18 308 299.031C304.406 298.507 299.78 299.086 296.688 301.094C293.549 303.131 290.898 306.233 289.25 309.625C288.83 310.886 288.439 312.163 288.125 313.594C288.029 314.029 287.594 315.886 287.531 316.156C286.915 318.818 286.729 320.423 287.031 321.969C287.171 322.686 287.545 323.761 287.781 324.562C289.438 327.755 292.182 330.406 295.125 332.375C296.278 333.147 297.322 334.301 298.562 335C302.392 334.379 306.158 331.895 310.688 327.406C311.591 326.511 315.492 322.415 316.5 321.438C316.521 321.417 316.51 321.427 316.531 321.406C316.717 321.227 316.959 321.112 317.188 321.031C318.444 319.9 319.877 319.08 321.719 318.312C323.243 317.677 325.112 317.723 325.75 316C326.709 313.411 322.209 308.082 322.062 304.688C321.933 301.689 322.495 297.755 323.969 295.094C324.559 294.028 326.44 292.547 326.438 291.25C326.436 290.464 326.194 290.033 325.812 289.875ZM529.531 293.656C529.411 294.022 529.254 294.383 529.031 294.719L525.844 299.531C525.621 299.867 525.352 300.153 525.062 300.406L539.375 309.875L543.844 303.125L529.531 293.656ZM496.25 296.625C495.999 296.793 495.78 299.088 495.656 299.469C495.007 301.47 493.917 303.393 492.781 305.156C486.067 315.584 479.794 325.618 476.688 337.75C475.822 341.13 475.732 346.04 477.375 349.188C477.407 349.248 477.527 349.563 477.594 349.719C478.216 349.322 478.914 348.814 479.844 348.094C479.897 348.053 479.935 348.012 480.031 347.938C481.05 347.148 481.525 346.814 482.125 346.406C485.727 343.957 489.13 341.141 492.469 337.938C492.97 337.2 493.416 336.462 493.656 335.719C494.101 334.345 493.816 332.759 493.844 331.344C493.916 327.7 493.934 323.678 494.875 320.156C495.777 316.783 497.599 313.825 499.344 310.844C502.887 310.714 506.899 314.893 509.156 317.219C509.238 317.303 509.478 317.571 509.594 317.719C510.194 316.84 510.739 316.002 511.219 315.156C511.485 314.688 511.697 314.22 512.031 313.375C507.916 309.791 504.793 304.82 501.188 300.719C500.608 300.059 497.183 296 496.25 296.625ZM373.281 301.094C371.757 300.984 370.422 302.132 370.312 303.656L369.25 318.156C369.141 319.681 370.319 321.016 371.844 321.125L401.906 323.281C403.431 323.391 404.766 322.243 404.875 320.719L405.938 306.219C406.047 304.694 404.868 303.359 403.344 303.25L373.281 301.094ZM372.906 302.031C373.784 302.094 374.469 302.841 374.406 303.719C374.343 304.597 373.565 305.25 372.688 305.188C371.81 305.125 371.156 304.378 371.219 303.5C371.282 302.622 372.028 301.968 372.906 302.031ZM378.094 302.406C378.972 302.469 379.625 303.216 379.562 304.094C379.5 304.972 378.753 305.625 377.875 305.562C376.997 305.499 376.343 304.753 376.406 303.875C376.469 302.997 377.216 302.343 378.094 302.406ZM375.031 306.188C375.909 306.25 376.563 306.997 376.5 307.875C376.437 308.753 375.659 309.407 374.781 309.344C373.904 309.281 373.25 308.534 373.312 307.656C373.375 306.778 374.153 306.125 375.031 306.188ZM531.281 318.875L527.594 319.031L527.188 324.031L530.125 325.344L533.375 321.625L531.281 318.875ZM526.375 321.469C520.945 320.679 515.592 323.575 513.312 328.656C510.513 334.896 513.292 342.232 519.531 345.031C525.771 347.831 533.107 345.021 535.906 338.781C538.209 333.648 536.759 327.671 532.469 324.156L531.406 325.406C535.128 328.455 536.405 333.671 534.406 338.125C531.977 343.54 525.633 345.961 520.219 343.531C514.804 341.102 512.383 334.727 514.812 329.312C516.791 324.903 521.445 322.408 526.156 323.094L526.375 321.469ZM450.25 326.688C449.191 326.783 448.435 327.722 448.531 328.781C448.627 329.841 449.534 330.627 450.594 330.531C451.653 330.435 452.44 329.497 452.344 328.438C452.248 327.378 451.31 326.592 450.25 326.688ZM420.656 329.375C419.597 329.471 418.81 330.409 418.906 331.469C419.002 332.528 419.94 333.315 421 333.219C422.059 333.123 422.846 332.185 422.75 331.125C422.654 330.066 421.716 329.279 420.656 329.375ZM447.906 330C446.847 330.096 446.06 331.034 446.156 332.094C446.252 333.153 447.191 333.94 448.25 333.844C449.309 333.748 450.096 332.81 450 331.75C449.904 330.691 448.966 329.904 447.906 330ZM322.031 331.344C321.544 331.424 321.091 331.693 320.781 332.125C320.162 332.99 320.354 334.193 321.219 334.812C322.084 335.432 323.287 335.24 323.906 334.375C324.526 333.51 324.334 332.307 323.469 331.688C323.036 331.378 322.518 331.263 322.031 331.344ZM423.562 332.188C422.503 332.283 421.717 333.222 421.812 334.281C421.908 335.341 422.847 336.127 423.906 336.031C424.966 335.935 425.752 334.997 425.656 333.938C425.56 332.878 424.622 332.092 423.562 332.188ZM444.688 333.125C443.628 333.221 442.842 334.159 442.938 335.219C443.033 336.278 443.972 337.065 445.031 336.969C446.091 336.873 446.877 335.935 446.781 334.875C446.685 333.816 445.747 333.029 444.688 333.125ZM427.281 334.719C426.222 334.815 425.435 335.753 425.531 336.812C425.627 337.872 426.565 338.658 427.625 338.562C428.685 338.467 429.471 337.528 429.375 336.469C429.279 335.409 428.341 334.623 427.281 334.719ZM440.531 335.125C439.472 335.221 438.685 336.159 438.781 337.219C438.877 338.278 439.816 339.065 440.875 338.969C441.934 338.873 442.721 337.934 442.625 336.875C442.529 335.816 441.591 335.029 440.531 335.125ZM322.969 335.281C322.483 335.36 322.029 335.63 321.719 336.062C321.099 336.927 321.323 338.13 322.188 338.75C323.052 339.37 324.255 339.177 324.875 338.312C325.495 337.448 325.271 336.245 324.406 335.625C323.974 335.315 323.455 335.202 322.969 335.281ZM436.25 335.656C435.191 335.752 434.404 336.691 434.5 337.75C434.596 338.809 435.534 339.596 436.594 339.5C437.653 339.404 438.408 338.466 438.312 337.406C438.217 336.347 437.31 335.56 436.25 335.656ZM431.75 335.906C430.691 336.002 429.904 336.94 430 338C430.096 339.059 431.034 339.846 432.094 339.75C433.153 339.654 433.94 338.716 433.844 337.656C433.748 336.597 432.81 335.81 431.75 335.906ZM340.594 337.75C340.167 337.87 339.783 338.05 339.406 338.281C339.047 338.501 338.686 338.778 338.375 339.062C337.48 339.882 336.865 340.891 336.469 342C335.809 343.848 335.75 345.949 335.969 347.844C336.208 349.916 337.188 351.814 338.281 353.562C339.306 355.201 340.505 356.737 341.781 358.188C343.063 359.644 344.428 361.028 345.938 362.25C346.607 362.792 347.331 363.293 348.062 363.75C347.755 363.963 347.45 364.167 347.125 364.375C347.151 364.921 347.422 365.465 347.938 366.156C348.118 366.398 348.585 366.995 348.969 367.469C351.855 370.167 359.094 377.657 363.969 379.312C369.956 375.348 372.725 371.202 376.062 362.312C378.122 356.828 379.368 352.364 380.062 347.562C380.539 344.264 380.709 342.756 380.781 340.906C380.785 340.8 380.778 340.698 380.781 340.594C376.066 338.032 365.236 338.522 361.219 338.625C361.046 338.629 360.665 338.575 360.406 338.562C360.028 338.608 359.76 338.664 359.594 338.688C358.128 338.893 357.367 339.204 356.781 340.031C356.898 340.503 356.952 341.009 357.031 341.5C356.231 341.572 355.423 341.69 354.625 341.844C352.921 342.173 351.137 342.558 349.406 342.188C349.01 342.103 348.615 341.991 348.25 341.812C347.691 341.54 347.185 341.157 346.719 340.75C346.06 340.175 345.463 339.549 344.781 339C343.573 338.026 342.175 337.307 340.594 337.75ZM340.906 338.906C341.928 338.617 342.911 339.088 343.719 339.688C345.273 340.84 346.511 342.497 348.406 343.125C350.287 343.748 352.252 343.512 354.156 343.156C355.171 342.967 356.195 342.745 357.219 342.656C357.798 348.354 356.107 354.953 352.75 359.406C351.761 360.718 350.532 361.884 349.125 362.969C348.348 362.522 347.608 361.994 346.906 361.438C345.374 360.224 343.979 358.84 342.688 357.375C341.454 355.976 340.305 354.487 339.312 352.906C338.823 352.127 338.381 351.338 338 350.5C337.661 349.753 337.362 348.942 337.25 348.125C336.986 346.209 336.994 343.958 337.75 342.094C338.204 340.975 338.93 339.99 340.031 339.312C340.314 339.138 340.586 338.997 340.906 338.906ZM323.25 339.781C322.764 339.863 322.31 340.13 322 340.562C321.38 341.427 321.573 342.599 322.438 343.219C323.302 343.838 324.505 343.646 325.125 342.781C325.745 341.916 325.552 340.713 324.688 340.094C324.255 339.784 323.736 339.7 323.25 339.781ZM322.031 344.219C321.545 344.298 321.091 344.536 320.781 344.969C320.162 345.834 320.354 347.068 321.219 347.688C322.084 348.307 323.318 348.083 323.938 347.219C324.557 346.354 324.334 345.151 323.469 344.531C323.036 344.222 322.517 344.14 322.031 344.219ZM456.5 344.562C455.295 344.42 454.129 344.606 453.031 345.031C451.201 345.739 449.573 347.096 448.281 348.5C446.869 350.035 446.078 351.999 445.469 353.969C444.898 355.816 444.483 357.711 444.219 359.625C443.954 361.547 443.846 363.497 443.906 365.438C443.933 366.299 443.993 367.179 444.125 368.031C443.763 367.938 443.401 367.829 443.031 367.719C442.635 368.095 442.405 368.658 442.219 369.5C442.153 369.795 442.015 370.556 441.906 371.156C441.749 375.104 440.819 385.447 442.75 390.219C449.662 392.162 454.589 391.561 463.5 388.281C468.997 386.258 473.192 384.299 477.281 381.688C480.09 379.894 481.365 379.029 482.812 377.875C482.895 377.809 482.95 377.754 483.031 377.688C481.89 372.444 474.483 364.536 471.781 361.562C471.665 361.435 471.441 361.142 471.281 360.938C471 360.681 470.783 360.486 470.656 360.375C469.543 359.4 468.791 359.028 467.781 359.125C467.5 359.521 467.164 359.9 466.844 360.281C466.266 359.722 465.638 359.191 465 358.688C463.638 357.612 462.193 356.521 461.344 354.969C461.149 354.613 460.979 354.237 460.875 353.844C460.716 353.242 460.684 352.619 460.688 352C460.692 351.125 460.748 350.25 460.719 349.375C460.666 347.824 460.306 346.283 458.938 345.375C458.568 345.13 458.171 344.978 457.75 344.844C457.349 344.715 456.918 344.612 456.5 344.562ZM506.219 345.094C505.518 344.99 504.769 345.137 504.156 345.594L492.5 354.281C491.274 355.194 491.024 356.931 491.938 358.156L509.969 382.344C510.882 383.569 512.618 383.851 513.844 382.938L525.5 374.25C526.726 373.337 526.976 371.601 526.062 370.375L508.031 346.188C507.575 345.575 506.919 345.198 506.219 345.094ZM455.562 345.719C456.163 345.698 456.759 345.773 457.375 345.969C457.692 346.069 458.003 346.192 458.281 346.375C459.168 346.959 459.426 347.997 459.5 349C459.643 350.929 459.206 352.968 459.969 354.812C460.726 356.644 462.206 357.947 463.719 359.156C464.525 359.801 465.327 360.47 466.062 361.188C462.127 365.348 456.065 368.351 450.5 368.719C448.861 368.827 447.178 368.669 445.438 368.312C445.268 367.432 445.163 366.551 445.125 365.656C445.043 363.703 445.203 361.748 445.469 359.812C445.723 357.965 446.076 356.096 446.625 354.312C446.896 353.433 447.208 352.586 447.594 351.75C447.937 351.005 448.361 350.244 448.906 349.625C450.185 348.174 451.876 346.707 453.781 346.062C454.353 345.869 454.962 345.74 455.562 345.719ZM506.062 345.906C506.464 345.965 506.831 346.178 507.094 346.531C507.619 347.237 507.487 348.224 506.781 348.75C506.075 349.276 505.088 349.143 504.562 348.438C504.037 347.732 504.169 346.713 504.875 346.188C505.228 345.925 505.661 345.848 506.062 345.906ZM319.656 347.812C319.17 347.892 318.716 348.161 318.406 348.594C317.787 349.459 317.979 350.662 318.844 351.281C319.709 351.901 320.912 351.708 321.531 350.844C322.151 349.979 321.959 348.776 321.094 348.156C320.661 347.846 320.142 347.733 319.656 347.812ZM509.156 350.062C509.559 350.123 509.956 350.335 510.219 350.688C510.744 351.393 510.581 352.38 509.875 352.906C509.169 353.432 508.182 353.299 507.656 352.594C507.131 351.888 507.294 350.901 508 350.375C508.353 350.112 508.754 350.002 509.156 350.062ZM504.281 350.188C504.686 350.247 505.081 350.46 505.344 350.812C505.869 351.518 505.706 352.537 505 353.062C504.294 353.588 503.307 353.424 502.781 352.719C502.256 352.013 502.388 351.026 503.094 350.5C503.447 350.237 503.877 350.128 504.281 350.188ZM316.906 351.375C316.419 351.455 315.966 351.724 315.656 352.156C315.037 353.021 315.229 354.224 316.094 354.844C316.959 355.463 318.162 355.271 318.781 354.406C319.401 353.541 319.209 352.338 318.344 351.719C317.911 351.409 317.393 351.295 316.906 351.375ZM313.094 353.969C312.609 354.049 312.154 354.318 311.844 354.75C311.224 355.615 311.416 356.818 312.281 357.438C313.146 358.057 314.349 357.834 314.969 356.969C315.588 356.104 315.396 354.932 314.531 354.312C314.099 354.003 313.578 353.889 313.094 353.969ZM308.75 355.156C308.263 355.237 307.81 355.505 307.5 355.938C306.88 356.802 307.073 358.006 307.938 358.625C308.802 359.245 310.005 359.021 310.625 358.156C311.245 357.291 311.052 356.088 310.188 355.469C309.755 355.159 309.237 355.076 308.75 355.156ZM304.719 355.5C304.232 355.58 303.779 355.849 303.469 356.281C302.849 357.146 303.041 358.349 303.906 358.969C304.771 359.588 305.974 359.396 306.594 358.531C307.213 357.666 307.021 356.463 306.156 355.844C305.724 355.534 305.206 355.419 304.719 355.5ZM397.438 366.594C395.948 366.249 394.469 367.167 394.125 368.656L387.344 398.062C386.999 399.551 387.917 401.031 389.406 401.375L403.562 404.656C405.052 405.001 406.562 404.052 406.906 402.562L413.688 373.188C414.032 371.698 413.114 370.219 411.625 369.875L397.438 366.594ZM366.156 381.125C365.336 381.19 364.509 381.325 363.688 381.562C358.283 383.125 354.656 388.143 354.75 393.688L356.375 393.656C356.294 388.846 359.466 384.512 364.156 383.156C369.857 381.508 375.789 384.799 377.438 390.5C379.086 396.201 375.826 402.133 370.125 403.781C365.482 405.124 360.555 403.224 358.031 399.188L356.625 400.031C359.534 404.684 365.213 406.922 370.562 405.375C377.132 403.475 380.931 396.601 379.031 390.031C377.369 384.283 371.897 380.667 366.156 381.125ZM391.281 392.281C392.139 392.48 392.667 393.33 392.469 394.188C392.27 395.045 391.42 395.573 390.562 395.375C389.705 395.177 389.177 394.326 389.375 393.469C389.573 392.611 390.424 392.083 391.281 392.281ZM352.219 394.594L351.5 398L353.969 400.688L358.062 397.75L357.188 394.688L352.219 394.594ZM394.562 395.906C395.42 396.105 395.917 396.955 395.719 397.812C395.521 398.67 394.701 399.23 393.844 399.031C392.986 398.833 392.427 397.951 392.625 397.094C392.823 396.236 393.705 395.708 394.562 395.906ZM427.531 396.75C424.27 401.011 423.052 411.766 422.531 415.75C422.509 415.921 422.427 416.309 422.375 416.562C422.361 416.943 422.346 417.238 422.344 417.406C422.32 418.886 422.524 419.668 423.25 420.375C423.734 420.333 424.252 420.346 424.75 420.344C424.697 421.146 424.69 421.969 424.719 422.781C424.78 424.516 424.885 426.348 424.25 428C424.105 428.379 423.92 428.729 423.688 429.062C423.331 429.572 422.88 430.009 422.406 430.406C421.736 430.968 421.023 431.506 420.375 432.094C419.226 433.137 418.307 434.369 418.5 436C418.552 436.44 418.674 436.873 418.844 437.281C419.005 437.67 419.205 438.055 419.438 438.406C420.108 439.417 421.028 440.187 422.062 440.75C423.786 441.688 425.844 442.047 427.75 442.125C429.834 442.21 431.853 441.559 433.75 440.75C435.528 439.991 437.244 439.068 438.875 438.031C440.513 436.99 442.059 435.833 443.5 434.531C444.14 433.954 444.748 433.34 445.312 432.688C445.475 433.024 445.657 433.334 445.812 433.688C446.356 433.746 446.925 433.589 447.688 433.188C447.955 433.047 448.628 432.649 449.156 432.344C452.269 429.91 460.765 423.934 463.156 419.375C460.168 412.846 456.514 409.457 448.25 404.781C443.152 401.897 438.948 399.961 434.312 398.531C431.128 397.549 429.66 397.139 427.844 396.781C427.74 396.761 427.634 396.769 427.531 396.75ZM390.125 397.344C390.982 397.542 391.511 398.393 391.312 399.25C391.114 400.107 390.264 400.636 389.406 400.438C388.549 400.239 388.02 399.389 388.219 398.531C388.417 397.674 389.268 397.145 390.125 397.344ZM339.375 397.625L331.344 398.562L333.375 415.625C333.731 415.48 334.1 415.36 334.5 415.312L340.25 414.625C340.65 414.577 341.026 414.599 341.406 414.656L339.375 397.625ZM525.75 399.25C524.261 398.906 522.751 399.855 522.406 401.344L515.625 430.719C515.281 432.208 516.198 433.718 517.688 434.062L531.875 437.344C533.364 437.688 534.843 436.739 535.188 435.25L541.969 405.875C542.313 404.386 541.395 402.876 539.906 402.531L525.75 399.25ZM494.438 413.812C493.617 413.878 492.79 414.013 491.969 414.25C486.564 415.813 482.938 420.799 483.031 426.344H484.656C484.575 421.533 487.747 417.169 492.438 415.812C498.139 414.164 504.101 417.455 505.75 423.156C507.399 428.857 504.107 434.82 498.406 436.469C493.764 437.811 488.837 435.881 486.312 431.844L484.906 432.719C487.815 437.372 493.494 439.578 498.844 438.031C505.413 436.132 509.212 429.288 507.312 422.719C505.65 416.971 500.179 413.354 494.438 413.812ZM391.156 415.25C390.269 415.344 389.41 415.484 388.688 415.781C387.352 416.33 386.285 417.575 385.188 418.469C382.361 420.77 379.295 423.347 376 424.906C372.844 426.4 369.434 426.934 366.031 427.531C363.641 424.912 364.186 419.163 364.5 415.938C364.511 415.821 364.619 415.465 364.656 415.281C363.598 415.392 362.58 415.507 361.625 415.688C361.095 415.788 360.611 415.927 359.75 416.219C359.678 421.676 357.89 427.285 357.094 432.688C356.966 433.556 356.108 438.755 357.188 439.062C357.478 439.145 359.348 437.871 359.719 437.719C361.665 436.92 363.827 436.493 365.906 436.219C378.202 434.597 389.924 432.882 401.188 427.406C404.325 425.881 408.13 422.789 409.469 419.5C409.494 419.437 409.643 419.12 409.719 418.969C409.014 418.751 408.182 418.556 407.031 418.312C406.965 418.298 406.932 418.275 406.812 418.25C405.551 417.984 404.98 417.881 404.281 417.688C400.084 416.524 395.759 415.725 391.156 415.25ZM339.969 415.656L335 416.25C332.914 416.499 331.439 418.383 331.688 420.469L332.281 425.438C332.374 426.22 332.677 426.914 333.156 427.469C333.955 428.393 335.196 428.905 336.5 428.75L341.469 428.156C343.555 427.908 345.03 426.023 344.781 423.938L344.188 419C343.939 416.914 342.055 415.408 339.969 415.656ZM425.906 420.375C431.624 420.686 437.871 423.368 441.75 427.375C442.893 428.555 443.865 429.911 444.719 431.469C444.157 432.167 443.533 432.83 442.875 433.438C441.438 434.763 439.835 435.92 438.188 436.969C436.614 437.97 434.965 438.89 433.25 439.625C432.404 439.987 431.543 440.285 430.656 440.531C429.866 440.751 429.044 440.953 428.219 440.938C426.285 440.901 424.068 440.536 422.344 439.5C421.309 438.878 420.436 438.005 419.938 436.812C419.809 436.506 419.728 436.206 419.688 435.875C419.56 434.821 420.158 433.955 420.875 433.25C422.254 431.894 424.117 430.931 425.031 429.156C425.938 427.394 425.963 425.405 425.906 423.469C425.876 422.437 425.835 421.4 425.906 420.375ZM519.562 424.969C520.42 425.167 520.98 426.018 520.781 426.875C520.583 427.732 519.701 428.261 518.844 428.062C517.986 427.864 517.458 427.014 517.656 426.156C517.854 425.299 518.705 424.77 519.562 424.969ZM480.5 427.281L479.781 430.656L482.281 433.375L486.344 430.438L485.469 427.344L480.5 427.281ZM522.844 428.594C523.701 428.792 524.23 429.643 524.031 430.5C523.833 431.357 522.982 431.886 522.125 431.688C521.268 431.489 520.708 430.639 520.906 429.781C521.105 428.924 521.986 428.395 522.844 428.594ZM343.094 428.781C342.737 428.926 342.369 429.077 341.969 429.125L336.219 429.781C335.818 429.829 335.443 429.807 335.062 429.75L336.938 445.5L344.969 444.562L343.094 428.781ZM555.844 429.406C552.582 433.667 551.365 444.453 550.844 448.438C550.821 448.609 550.709 448.996 550.656 449.25C550.642 449.631 550.628 449.895 550.625 450.062C550.601 451.542 550.805 452.355 551.531 453.062C552.016 453.021 552.534 453.034 553.031 453.031C552.978 453.833 552.971 454.625 553 455.438C553.061 457.172 553.166 459.004 552.531 460.656C552.386 461.035 552.233 461.417 552 461.75C551.644 462.26 551.162 462.696 550.688 463.094C550.017 463.656 549.304 464.162 548.656 464.75C547.507 465.793 546.588 467.056 546.781 468.688C546.833 469.128 546.955 469.56 547.125 469.969C547.287 470.358 547.486 470.711 547.719 471.062C548.389 472.073 549.309 472.843 550.344 473.406C552.067 474.345 554.125 474.735 556.031 474.812C558.115 474.897 560.135 474.215 562.031 473.406C563.809 472.648 565.526 471.724 567.156 470.688C568.794 469.647 570.371 468.489 571.812 467.188C572.452 466.61 573.06 465.996 573.625 465.344C573.788 465.68 573.939 466.022 574.094 466.375C574.637 466.434 575.206 466.246 575.969 465.844C576.236 465.703 576.91 465.305 577.438 465C580.551 462.567 589.046 456.621 591.438 452.062C588.45 445.533 584.795 442.144 576.531 437.469C571.433 434.584 567.23 432.649 562.594 431.219C559.409 430.236 557.942 429.826 556.125 429.469C556.021 429.448 555.947 429.425 555.844 429.406ZM518.406 430.031C519.264 430.23 519.792 431.08 519.594 431.938C519.395 432.795 518.545 433.323 517.688 433.125C516.83 432.927 516.302 432.076 516.5 431.219C516.698 430.361 517.549 429.833 518.406 430.031ZM467.656 430.281L459.625 431.25L461.656 448.312C462.013 448.168 462.381 448.048 462.781 448L468.531 447.312C468.931 447.265 469.307 447.287 469.688 447.344L467.656 430.281ZM370.344 442.781C367.237 442.3 369.338 446.38 370.938 448.844C371.697 449.939 372.454 451.029 373.281 452.094C375.124 454.193 378.366 456.36 380.938 457.125C380.9 457.128 380.881 457.154 380.844 457.156C379.968 457.197 378.946 457.315 378.094 457.156C377.897 457.119 377.251 456.824 377.062 456.969C376.647 457.287 376.501 458.107 376.375 458.875C376.354 458.863 376.333 458.856 376.312 458.844C375.983 460.037 375.492 461.236 375.188 462.219C374.113 465.688 373.965 470.353 375.469 473.719C376.995 477.135 379.654 480.221 382.75 482.375C383.931 482.985 385.135 483.593 386.5 484.125C386.916 484.287 388.649 484.99 388.906 485.094C391.44 486.115 393.02 486.527 394.594 486.469C395.324 486.442 396.453 486.234 397.281 486.125C400.692 484.983 403.755 482.727 406.156 480.125C407.098 479.105 408.398 478.211 409.281 477.094C409.261 473.214 407.357 469.139 403.625 463.969C402.88 462.937 399.466 458.46 398.656 457.312C398.639 457.288 398.642 457.274 398.625 457.25C398.476 457.039 398.388 456.801 398.344 456.562C397.421 455.146 396.848 453.564 396.375 451.625C395.984 450.021 396.291 448.21 394.688 447.312C392.279 445.964 386.313 449.569 382.938 449.188C379.955 448.85 376.182 447.681 373.781 445.812C372.82 445.064 371.626 442.98 370.344 442.781ZM492.938 447.938C491.879 448.048 490.861 448.163 489.906 448.344C489.377 448.444 488.892 448.615 488.031 448.906C487.959 454.364 486.171 459.941 485.375 465.344C485.247 466.212 484.389 471.443 485.469 471.75C485.76 471.833 487.629 470.527 488 470.375C489.946 469.576 492.108 469.181 494.188 468.906C506.483 467.284 518.206 465.539 529.469 460.062C532.607 458.537 536.412 455.445 537.75 452.156C537.776 452.093 537.924 451.808 538 451.656C537.295 451.438 536.495 451.244 535.344 451C535.278 450.986 535.213 450.963 535.094 450.938C533.832 450.671 533.262 450.537 532.562 450.344C528.365 449.181 524.04 448.412 519.438 447.938C518.55 448.032 517.691 448.172 516.969 448.469C515.633 449.018 514.598 450.262 513.5 451.156C510.674 453.457 507.576 456.034 504.281 457.594C501.125 459.088 497.715 459.621 494.312 460.219C491.922 457.6 492.498 451.819 492.812 448.594C492.824 448.477 492.9 448.121 492.938 447.938ZM468.25 448.344L463.312 448.938C461.227 449.186 459.72 451.07 459.969 453.156L460.562 458.094C460.656 458.876 460.99 459.602 461.469 460.156C462.267 461.08 463.478 461.593 464.781 461.438L469.75 460.844C471.836 460.595 473.311 458.711 473.062 456.625L472.469 451.656C472.22 449.57 470.336 448.095 468.25 448.344ZM415.219 451.094C414.726 451.099 414.248 451.277 413.875 451.656C413.129 452.415 413.117 453.629 413.875 454.375C414.633 455.121 415.879 455.133 416.625 454.375C417.371 453.617 417.352 452.371 416.594 451.625C416.215 451.252 415.711 451.088 415.219 451.094ZM411.188 451.406C410.694 451.41 410.186 451.621 409.812 452C409.066 452.758 409.086 453.973 409.844 454.719C410.602 455.465 411.816 455.446 412.562 454.688C413.309 453.929 413.321 452.715 412.562 451.969C412.183 451.596 411.681 451.402 411.188 451.406ZM419.688 451.5C419.194 451.504 418.717 451.715 418.344 452.094C417.598 452.852 417.617 454.066 418.375 454.812C419.133 455.559 420.348 455.54 421.094 454.781C421.84 454.023 421.821 452.809 421.062 452.062C420.683 451.689 420.181 451.496 419.688 451.5ZM554.219 453.031C559.937 453.343 566.152 456.025 570.031 460.031C571.174 461.211 572.147 462.598 573 464.156C572.438 464.855 571.815 465.518 571.156 466.125C569.719 467.451 568.148 468.608 566.5 469.656C564.926 470.658 563.278 471.546 561.562 472.281C560.717 472.644 559.856 472.972 558.969 473.219C558.179 473.438 557.325 473.609 556.5 473.594C554.566 473.557 552.349 473.224 550.625 472.188C549.591 471.566 548.717 470.693 548.219 469.5C548.091 469.193 548.009 468.893 547.969 468.562C547.841 467.509 548.439 466.611 549.156 465.906C550.535 464.55 552.399 463.588 553.312 461.812C554.219 460.051 554.275 458.061 554.219 456.125C554.189 455.093 554.148 454.056 554.219 453.031ZM423.906 453.406C423.414 453.412 422.904 453.59 422.531 453.969C421.785 454.727 421.804 455.941 422.562 456.688C423.321 457.434 424.535 457.446 425.281 456.688C426.027 455.929 426.04 454.684 425.281 453.938C424.902 453.564 424.399 453.401 423.906 453.406ZM427.094 456.312C426.601 456.318 426.123 456.527 425.75 456.906C425.004 457.665 424.992 458.879 425.75 459.625C426.508 460.371 427.723 460.352 428.469 459.594C429.215 458.835 429.227 457.621 428.469 456.875C428.09 456.502 427.586 456.307 427.094 456.312ZM430.188 459.594C429.694 459.598 429.217 459.777 428.844 460.156C428.098 460.915 428.085 462.16 428.844 462.906C429.602 463.652 430.816 463.633 431.562 462.875C432.309 462.117 432.321 460.902 431.562 460.156C431.183 459.783 430.681 459.59 430.188 459.594ZM471.375 461.469C471.019 461.613 470.65 461.734 470.25 461.781L464.531 462.469C464.131 462.516 463.724 462.494 463.344 462.438L465.219 478.188L473.25 477.219L471.375 461.469ZM432.156 463.75C431.664 463.755 431.154 463.965 430.781 464.344C430.035 465.102 430.054 466.316 430.812 467.062C431.571 467.809 432.785 467.79 433.531 467.031C434.277 466.273 434.258 465.059 433.5 464.312C433.121 463.939 432.649 463.745 432.156 463.75ZM432.656 468.219C432.162 468.223 431.654 468.433 431.281 468.812C430.535 469.571 430.554 470.785 431.312 471.531C432.071 472.277 433.285 472.258 434.031 471.5C434.777 470.742 434.79 469.527 434.031 468.781C433.652 468.408 433.15 468.215 432.656 468.219ZM432.375 472.281C431.881 472.285 431.404 472.465 431.031 472.844C430.285 473.602 430.304 474.816 431.062 475.562C431.821 476.309 433.035 476.321 433.781 475.562C434.527 474.804 434.508 473.559 433.75 472.812C433.371 472.439 432.869 472.277 432.375 472.281ZM498.625 475.469C495.518 474.987 497.619 479.068 499.219 481.531C499.978 482.627 500.735 483.716 501.562 484.781C503.405 486.88 506.647 489.047 509.219 489.812C509.182 489.815 509.162 489.842 509.125 489.844C508.25 489.885 507.227 489.972 506.375 489.812C506.178 489.776 505.532 489.481 505.344 489.625C504.928 489.943 504.783 490.795 504.656 491.562C504.635 491.551 504.615 491.543 504.594 491.531C504.265 492.725 503.773 493.892 503.469 494.875C502.394 498.344 502.246 503.04 503.75 506.406C505.276 509.823 507.936 512.908 511.031 515.062C512.212 515.673 513.416 516.249 514.781 516.781C515.197 516.943 516.93 517.678 517.188 517.781C519.721 518.803 521.301 519.215 522.875 519.156C523.605 519.129 524.734 518.922 525.562 518.812C528.974 517.671 532.036 515.384 534.438 512.781C535.379 511.761 536.679 510.898 537.562 509.781C537.542 505.902 535.639 501.796 531.906 496.625C531.162 495.593 527.747 491.116 526.938 489.969C526.92 489.944 526.923 489.931 526.906 489.906C526.758 489.695 526.669 489.488 526.625 489.25C525.702 487.833 525.129 486.251 524.656 484.312C524.265 482.708 524.572 480.898 522.969 480C520.56 478.651 514.595 482.257 511.219 481.875C508.237 481.538 504.463 480.368 502.062 478.5C501.101 477.752 499.907 475.667 498.625 475.469ZM543.5 483.75C543.008 483.755 542.529 483.965 542.156 484.344C541.41 485.102 541.429 486.316 542.188 487.062C542.946 487.809 544.16 487.79 544.906 487.031C545.652 486.273 545.633 485.059 544.875 484.312C544.496 483.939 543.992 483.745 543.5 483.75ZM539.469 484.094C538.975 484.098 538.498 484.277 538.125 484.656C537.379 485.415 537.367 486.66 538.125 487.406C538.883 488.152 540.098 488.133 540.844 487.375C541.59 486.617 541.602 485.402 540.844 484.656C540.465 484.283 539.963 484.09 539.469 484.094ZM548 484.188C547.506 484.191 546.998 484.371 546.625 484.75C545.879 485.508 545.898 486.754 546.656 487.5C547.415 488.246 548.629 488.227 549.375 487.469C550.121 486.71 550.102 485.496 549.344 484.75C548.965 484.377 548.494 484.184 548 484.188ZM552.188 486.094C551.695 486.099 551.217 486.277 550.844 486.656C550.098 487.415 550.086 488.629 550.844 489.375C551.602 490.121 552.816 490.102 553.562 489.344C554.309 488.585 554.321 487.371 553.562 486.625C553.183 486.252 552.68 486.088 552.188 486.094ZM555.375 489C554.883 489.005 554.404 489.183 554.031 489.562C553.285 490.321 553.273 491.535 554.031 492.281C554.79 493.027 556.035 493.04 556.781 492.281C557.527 491.523 557.508 490.277 556.75 489.531C556.371 489.158 555.867 488.995 555.375 489ZM558.469 492.25C557.975 492.254 557.498 492.465 557.125 492.844C556.379 493.602 556.367 494.816 557.125 495.562C557.883 496.309 559.129 496.29 559.875 495.531C560.621 494.773 560.602 493.559 559.844 492.812C559.465 492.439 558.963 492.246 558.469 492.25ZM560.438 496.438C559.945 496.443 559.467 496.621 559.094 497C558.348 497.758 558.335 498.973 559.094 499.719C559.852 500.465 561.066 500.477 561.812 499.719C562.559 498.961 562.571 497.746 561.812 497C561.433 496.627 560.93 496.432 560.438 496.438ZM560.938 500.906C560.444 500.91 559.936 501.09 559.562 501.469C558.816 502.227 558.835 503.473 559.594 504.219C560.352 504.965 561.566 504.946 562.312 504.188C563.059 503.429 563.071 502.215 562.312 501.469C561.933 501.096 561.431 500.902 560.938 500.906ZM560.688 504.938C560.194 504.941 559.686 505.152 559.312 505.531C558.566 506.29 558.585 507.504 559.344 508.25C560.102 508.996 561.316 508.977 562.062 508.219C562.809 507.46 562.79 506.246 562.031 505.5C561.652 505.127 561.181 504.934 560.688 504.938Z" fill="#1A1A1A"/>
<path d="M23.4688 309.906C19.6977 309.962 15.7691 311.052 12.5938 313.031C9.4652 314.982 6.9858 318.929 5.9375 322.406C5.6404 323.392 5.3632 324.67 4.9688 325.844C4.9927 325.846 5.0385 325.842 5.0625 325.844C4.7381 326.551 4.3959 327.317 4.5625 327.812C4.6382 328.038 5.3162 328.139 5.5 328.219C6.2957 328.563 7.1095 329.227 7.8125 329.75C7.8425 329.772 7.846 329.821 7.875 329.844C5.3145 329.041 1.4196 329.008 -1.28125 329.719C-2.56299 330.139 -3.82061 330.641 -5.0625 331.125C-7.76588 332.274 -11.7824 334.475 -8.9375 335.812C-7.76357 336.364 -5.59013 335.302 -4.375 335.219C-1.3402 335.011 2.4326 336.175 5.0938 337.562C8.1064 339.133 11.03 345.459 13.7812 345.688C15.6127 345.84 16.3725 344.143 17.5938 343.031C19.0698 341.688 20.4115 340.721 21.9688 340.062C22.1383 339.89 22.3524 339.717 22.5938 339.625C22.6214 339.614 22.6285 339.604 22.6562 339.594C23.9686 339.095 29.3058 337.283 30.5 336.844C36.4851 334.643 40.346 332.33 42.5312 329.125C42.4235 327.705 41.8356 326.247 41.625 324.875C41.0886 321.375 39.8151 317.76 37.625 314.906C36.9994 314.353 36.1838 313.587 35.5938 313.156C34.3214 312.228 32.7967 311.695 30.125 311.125C29.8535 311.067 27.9976 310.661 27.5625 310.562C26.1336 310.24 24.7888 310.06 23.4688 309.906ZM-35.0938 314.875L-45.4688 326.906C-45.1216 327.072 -44.774 327.237 -44.4688 327.5L-40.125 331.281C-39.8198 331.545 -39.5583 331.868 -39.3438 332.188L-28.9688 320.156L-35.0938 314.875ZM-46.5 327.688C-47.0987 327.557 -47.7233 327.559 -48.3125 327.719C-49.0196 327.911 -49.6729 328.31 -50.1875 328.906L-53.4688 332.688C-54.8409 334.278 -54.6531 336.69 -53.0625 338.062L-49.2812 341.312C-47.6907 342.685 -45.2784 342.497 -43.9062 340.906L-40.6562 337.156C-39.2841 335.566 -39.4719 333.153 -41.0625 331.781L-44.8438 328.531C-45.3408 328.102 -45.9013 327.818 -46.5 327.688ZM-21.9375 331.531C-23.0047 331.183 -25.1832 335.99 -25.5625 336.781C-27.9224 341.706 -29.5719 347.341 -32.5625 351.906C-32.0115 352.629 -31.6955 353.027 -31.3125 353.406C-30.6217 354.09 -29.8467 354.754 -29.0312 355.438C-28.9597 355.264 -28.8371 354.947 -28.7812 354.844C-27.2389 351.994 -24.4772 346.867 -21.0312 346.031C-18.5442 348.428 -16.0318 350.779 -14.25 353.781C-12.3901 356.916 -11.2758 360.793 -10.2188 364.281C-9.80818 365.636 -9.61276 367.236 -8.8125 368.438C-8.37969 369.087 -7.7452 369.707 -7.0625 370.281C-2.98076 372.46 1.0259 374.212 5.1562 375.594C5.8444 375.824 6.3991 376.047 7.5938 376.531C7.7071 376.577 7.75 376.6 7.8125 376.625C8.9029 377.066 9.7003 377.35 10.4062 377.562C10.4281 377.394 10.486 377.067 10.5 377C11.229 373.525 9.7801 368.832 8.0312 365.812C1.7535 354.976 -6.99304 347 -16.2812 338.781C-17.852 337.391 -19.4264 335.844 -20.5938 334.094C-20.816 333.76 -21.6502 331.625 -21.9375 331.531ZM-54.7812 337.688L-65.9688 350.656L-59.8438 355.938L-48.6562 342.938C-49.0034 342.772 -49.3198 342.576 -49.625 342.312L-54 338.562C-54.3052 338.299 -54.5667 338.007 -54.7812 337.688ZM59.7188 342.562C58.6729 342.757 57.9928 343.767 58.1875 344.812C58.3822 345.858 59.3916 346.538 60.4375 346.344C61.4833 346.149 62.1635 345.139 61.9688 344.094C61.774 343.048 60.7646 342.368 59.7188 342.562ZM57.6875 346.062C56.6417 346.257 55.9615 347.267 56.1562 348.312C56.351 349.358 57.3604 350.038 58.4062 349.844C59.4521 349.649 60.1322 348.639 59.9375 347.594C59.7428 346.548 58.7334 345.868 57.6875 346.062ZM30.5 348C29.4542 348.195 28.7428 349.204 28.9375 350.25C29.1322 351.296 30.1417 352.007 31.1875 351.812C32.2333 351.618 32.9447 350.608 32.75 349.562C32.5553 348.517 31.5458 347.805 30.5 348ZM54.7812 349.5C53.7354 349.695 53.0553 350.704 53.25 351.75C53.4447 352.796 54.4229 353.476 55.4688 353.281C56.5146 353.087 57.226 352.077 57.0312 351.031C56.8365 349.985 55.8271 349.305 54.7812 349.5ZM33.6562 350.531C32.6104 350.726 31.9303 351.735 32.125 352.781C32.3198 353.827 33.3292 354.538 34.375 354.344C35.4208 354.149 36.101 353.14 35.9062 352.094C35.7115 351.048 34.7021 350.337 33.6562 350.531ZM50.8125 351.844C49.7667 352.038 49.0866 353.048 49.2812 354.094C49.476 355.14 50.4854 355.851 51.5312 355.656C52.5771 355.462 53.2572 354.452 53.0625 353.406C52.8678 352.36 51.8584 351.649 50.8125 351.844ZM37.5938 352.688C36.5479 352.882 35.8678 353.892 36.0625 354.938C36.2572 355.983 37.2666 356.663 38.3125 356.469C39.3583 356.274 40.0385 355.264 39.8438 354.219C39.649 353.173 38.6396 352.493 37.5938 352.688ZM46.4062 352.844C45.3604 353.038 44.6803 354.048 44.875 355.094C45.0697 356.14 46.0792 356.82 47.125 356.625C48.1708 356.43 48.851 355.421 48.6562 354.375C48.4615 353.329 47.4521 352.649 46.4062 352.844ZM42.1562 353.469C41.1104 353.663 40.399 354.673 40.5938 355.719C40.7885 356.765 41.7979 357.445 42.8438 357.25C43.8896 357.055 44.601 356.046 44.4062 355C44.2115 353.954 43.2021 353.274 42.1562 353.469ZM-46.0312 361.562L-49.5938 362.406L-50.9062 365.625L-46.75 368.344L-44.2812 366.281L-46.0312 361.562ZM-40.3125 362.562C-41.6308 362.685 -42.9342 363.036 -44.1875 363.594L-43.5312 365.094C-39.1817 363.158 -34.0052 364.291 -30.9062 368C-27.1007 372.554 -27.7272 379.351 -32.2812 383.156C-36.8353 386.962 -43.6007 386.335 -47.4062 381.781C-50.5368 378.035 -50.7252 372.693 -47.9688 368.75L-49.3125 367.812C-52.4897 372.358 -52.2636 378.527 -48.6562 382.844C-44.2712 388.091 -36.4663 388.791 -31.2188 384.406C-25.9712 380.021 -25.2712 372.216 -29.6562 366.969C-32.3344 363.764 -36.3577 362.196 -40.3125 362.562ZM32.7812 366.406C31.609 366.295 30.4336 366.443 29.3125 366.906C28.923 367.067 28.5391 367.268 28.1875 367.5C27.8186 367.744 27.4768 368.008 27.1875 368.344C26.1157 369.588 26.1926 371.149 26.5625 372.656C26.7711 373.506 27.071 374.347 27.3125 375.188C27.4834 375.782 27.646 376.378 27.6562 377C27.663 377.407 27.5911 377.824 27.5 378.219C27.1026 379.943 25.989 381.409 24.9688 382.812C24.4911 383.47 24.0292 384.118 23.625 384.812C23.2139 384.532 22.7844 384.274 22.4062 383.969C21.4086 384.149 20.8074 384.697 20 385.938C19.9083 386.078 19.7328 386.333 19.5312 386.656C19.4328 386.896 19.327 387.252 19.25 387.406C17.4546 391.001 12.4278 400.613 12.75 405.969C12.8461 406.01 12.9334 406.053 13.0312 406.094C14.7374 406.813 16.1849 407.284 19.375 408.25C24.0183 409.656 28.5977 410.416 34.4375 410.875C43.9035 411.618 48.81 410.868 54.9375 407.125C55.5034 402.008 51.7835 392.289 50.5625 388.531C50.2955 387.983 49.9552 387.266 49.8125 387C49.4047 386.24 49.0457 385.786 48.5625 385.531C48.2362 385.738 47.9169 385.937 47.5938 386.125C47.4899 385.268 47.3324 384.399 47.125 383.562C46.6575 381.678 45.9947 379.841 45.2188 378.062C44.4462 376.292 43.5502 374.592 42.5 372.969C41.3798 371.238 40.0882 369.532 38.3125 368.438C36.6887 367.436 34.735 366.592 32.7812 366.406ZM32.3438 367.594C34.3525 367.698 36.4074 368.668 38.0312 369.719C38.7239 370.167 39.3113 370.783 39.8438 371.406C40.4414 372.106 40.9701 372.852 41.4688 373.625C42.4802 375.193 43.3488 376.853 44.0938 378.562C44.8739 380.353 45.5185 382.223 45.9688 384.125C46.1751 384.997 46.3308 385.857 46.4062 386.75C44.8279 387.565 43.2634 388.192 41.6562 388.531C36.2003 389.685 29.5402 388.407 24.625 385.469C25.139 384.579 25.742 383.745 26.3438 382.906C27.4726 381.332 28.5483 379.655 28.7812 377.688C29.0159 375.705 28.0102 373.864 27.625 371.969C27.4247 370.983 27.3986 369.927 28.0938 369.125C28.312 368.873 28.5974 368.682 28.875 368.5C29.9551 367.79 31.1385 367.531 32.3438 367.594ZM98.75 367.75C96.649 367.75 94.937 369.462 94.938 371.562V376.562C94.938 378.663 96.649 380.344 98.75 380.344H103.719C105.819 380.344 107.531 378.632 107.531 376.531V371.562C107.531 370.25 106.856 369.09 105.844 368.406C105.237 367.996 104.506 367.75 103.719 367.75H98.75ZM76.9375 370V378.094H94.125C94.024 377.723 93.938 377.34 93.938 376.938V371.156C93.937 370.753 94.024 370.371 94.125 370H76.9375ZM108.344 370C108.445 370.371 108.531 370.753 108.531 371.156V376.938C108.531 377.341 108.445 377.723 108.344 378.094H124.219V370H108.344ZM-16.2812 380.812C-17.7084 380.266 -19.2969 380.979 -19.8438 382.406L-30.6562 410.562C-31.2031 411.99 -30.4897 413.609 -29.0625 414.156L-15.4688 419.344C-14.0416 419.891 -12.4531 419.177 -11.9062 417.75L-1.09375 389.594C-0.54688 388.167 -1.26034 386.547 -2.6875 386L-16.2812 380.812ZM-16.8125 381.562C-15.9907 381.877 -15.5601 382.803 -15.875 383.625C-16.1899 384.447 -17.1157 384.846 -17.9375 384.531C-18.7593 384.216 -19.1587 383.322 -18.8438 382.5C-18.5289 381.678 -17.6343 381.248 -16.8125 381.562ZM-13.9375 385.219C-13.1157 385.534 -12.7163 386.459 -13.0312 387.281C-13.3461 388.103 -14.2407 388.534 -15.0625 388.219C-15.8843 387.904 -16.3149 386.978 -16 386.156C-15.6851 385.334 -14.7593 384.904 -13.9375 385.219ZM-18.6562 386.406C-17.8345 386.721 -17.4351 387.647 -17.75 388.469C-18.0649 389.291 -18.9907 389.721 -19.8125 389.406C-20.6343 389.091 -21.0336 388.166 -20.7188 387.344C-20.4039 386.522 -19.478 386.092 -18.6562 386.406ZM78.75 390.094L75.4688 391.219L76.125 396.125L79.3125 396.656L81.7188 392.25L78.75 390.094ZM119.156 390.5C117.506 390.492 114.51 391.359 113.875 391.531C108.605 392.962 103.254 395.407 97.844 396.125C97.656 397.014 97.568 397.525 97.531 398.062C97.465 399.032 97.454 400.03 97.469 401.094C97.647 401.035 97.979 400.931 98.094 400.906C101.259 400.212 106.929 398.968 109.812 401.031C109.622 404.48 109.485 407.908 108.375 411.219C107.217 414.675 105.044 418.046 103.094 421.125C102.336 422.321 101.231 423.515 100.844 424.906C100.634 425.659 100.583 426.514 100.594 427.406C101.61 431.92 102.911 436.126 104.562 440.156C104.838 440.828 105.024 441.373 105.438 442.594C105.477 442.71 105.478 442.78 105.5 442.844C105.878 443.958 106.2 444.764 106.5 445.438C106.642 445.344 106.909 445.158 106.969 445.125C110.076 443.407 112.7 439.234 113.844 435.938C117.948 424.105 118.283 412.276 118.438 399.875C118.464 397.778 118.593 395.59 119.156 393.562C119.263 393.176 120.335 391.154 120.219 390.875C120.11 390.616 119.706 390.503 119.156 390.5ZM74.8438 393.812C69.3269 394.376 64.8181 398.573 63.9062 404.125C62.7979 410.873 67.3769 417.267 74.125 418.375C80.8731 419.483 87.2354 414.904 88.3438 408.156C89.2463 402.661 86.3709 397.275 81.4062 394.938L80.7188 396.438C85.0261 398.466 87.502 403.106 86.7188 407.875C85.7569 413.731 80.2314 417.712 74.375 416.75C68.5187 415.788 64.5381 410.263 65.5 404.406C66.2913 399.589 70.245 395.927 75.0312 395.438L74.8438 393.812ZM127.219 401.812C125.922 401.629 125.046 401.986 125.469 403.5C125.818 404.749 128.018 405.697 128.875 406.562C131.015 408.725 132.624 412.329 133.312 415.25C134.091 418.557 131.219 424.893 132.844 427.125C133.925 428.611 135.704 428.083 137.344 428.281C139.325 428.521 140.953 428.939 142.469 429.688C142.71 429.703 142.929 429.752 143.156 429.875C143.182 429.889 143.193 429.861 143.219 429.875C144.454 430.543 149.325 433.414 150.438 434.031C156.014 437.125 160.302 438.533 164.156 438.094C165.161 437.085 165.88 435.681 166.781 434.625C169.081 431.932 170.957 428.616 171.688 425.094C171.698 424.258 171.778 423.134 171.719 422.406C171.591 420.836 171.002 419.333 169.688 416.938C169.554 416.694 168.616 415.018 168.406 414.625C167.717 413.333 166.996 412.225 166.25 411.125C163.744 408.306 160.354 406.017 156.781 404.906C153.261 403.812 148.63 404.522 145.312 406C144.372 406.419 143.271 407.032 142.125 407.5C142.139 407.519 142.142 407.543 142.156 407.562C141.409 407.779 140.61 408.05 140.344 408.5C140.223 408.704 140.596 409.277 140.656 409.469C140.915 410.296 140.906 411.345 140.969 412.219C140.971 412.256 140.967 412.275 140.969 412.312C139.904 409.849 137.365 406.893 135.062 405.312C133.907 404.617 132.74 403.999 131.562 403.375C130.245 402.727 128.515 401.996 127.219 401.812ZM83.0625 425.656L54.6875 435.906C53.2497 436.425 52.4817 438 53 439.438L57.9375 453.125C58.4558 454.563 60.0622 455.3 61.5 454.781L89.875 444.562C91.313 444.044 92.05 442.438 91.531 441L86.5938 427.344C86.0754 425.906 84.5002 425.138 83.0625 425.656ZM83.6562 426.469C84.4842 426.17 85.389 426.61 85.6875 427.438C85.986 428.265 85.5467 429.17 84.7188 429.469C83.8908 429.767 82.986 429.328 82.6875 428.5C82.389 427.672 82.8283 426.767 83.6562 426.469ZM78.75 428.25C79.5779 427.952 80.4828 428.36 80.7812 429.188C81.0797 430.015 80.6717 430.92 79.8438 431.219C79.0158 431.517 78.111 431.109 77.8125 430.281C77.514 429.453 77.9221 428.548 78.75 428.25ZM82.75 431.031C83.5779 430.733 84.4828 431.172 84.7812 432C85.0797 432.828 84.6404 433.733 83.8125 434.031C82.9846 434.33 82.0797 433.922 81.7812 433.094C81.4828 432.266 81.9221 431.33 82.75 431.031ZM8.875 433.094C5.104 433.149 1.1753 434.208 -2 436.188C-5.12855 438.138 -7.63923 442.117 -8.6875 445.594C-8.98463 446.579 -9.23052 447.826 -9.625 449C-9.60107 449.002 -9.58651 449.03 -9.5625 449.031C-9.88694 449.739 -10.1978 450.504 -10.0312 451C-9.95555 451.225 -9.27752 451.327 -9.09375 451.406C-8.29802 451.751 -7.51549 452.414 -6.8125 452.938C-6.78253 452.96 -6.77901 452.977 -6.75 453C-9.31049 452.197 -13.2053 452.196 -15.9062 452.906C-17.188 453.327 -18.4144 453.798 -19.6562 454.281C-22.3596 455.43 -26.3762 457.631 -23.5312 458.969C-22.3573 459.521 -20.2151 458.489 -19 458.406C-15.9652 458.199 -12.1612 459.331 -9.5 460.719C-6.48732 462.289 -3.56373 468.615 -0.8125 468.844C1.019 468.996 1.7475 467.299 2.9688 466.188C4.4448 464.844 5.8177 463.877 7.375 463.219C7.5445 463.046 7.7586 462.905 8 462.812C8.0277 462.802 8.0035 462.792 8.0312 462.781C9.3436 462.283 14.6808 460.47 15.875 460.031C21.8601 457.831 25.721 455.486 27.9062 452.281C27.7985 450.861 27.2106 449.434 27 448.062C26.4636 444.562 25.1901 440.947 23 438.094C22.3744 437.54 21.5588 436.743 20.9688 436.312C19.6964 435.384 18.1717 434.851 15.5 434.281C15.2285 434.223 13.3726 433.848 12.9375 433.75C11.5086 433.428 10.195 433.248 8.875 433.094ZM-49.7188 438.062L-60.0938 450.062C-59.7466 450.228 -59.399 450.424 -59.0938 450.688L-54.7188 454.469C-54.4135 454.732 -54.1833 455.025 -53.9688 455.344L-43.5938 443.344L-49.7188 438.062ZM140.562 440.906C140.072 440.961 139.614 441.21 139.281 441.625C138.617 442.456 138.763 443.648 139.594 444.312C140.424 444.977 141.617 444.862 142.281 444.031C142.946 443.201 142.831 441.977 142 441.312C141.585 440.98 141.053 440.852 140.562 440.906ZM140.719 444.969C140.229 445.024 139.77 445.241 139.438 445.656C138.773 446.487 138.888 447.71 139.719 448.375C140.549 449.04 141.773 448.893 142.438 448.062C143.102 447.232 142.956 446.04 142.125 445.375C141.71 445.043 141.208 444.913 140.719 444.969ZM141.688 449.344C141.198 449.397 140.707 449.647 140.375 450.062C139.71 450.893 139.857 452.116 140.688 452.781C141.518 453.446 142.742 453.299 143.406 452.469C144.071 451.638 143.924 450.415 143.094 449.75C142.678 449.418 142.177 449.291 141.688 449.344ZM-61.125 450.875C-61.7237 450.744 -62.3483 450.746 -62.9375 450.906C-63.6446 451.098 -64.298 451.497 -64.8125 452.094L-68.0625 455.875C-69.4347 457.466 -69.2469 459.878 -67.6562 461.25L-63.9062 464.5C-62.3157 465.872 -59.9034 465.684 -58.5312 464.094L-55.2812 460.312C-53.9091 458.722 -54.0656 456.341 -55.6562 454.969L-59.4375 451.688C-59.9346 451.259 -60.5263 451.006 -61.125 450.875ZM124.438 452.094C122.795 452.095 121.65 453.173 120.75 454.438C120.243 455.151 119.823 455.924 119.344 456.656C119.005 457.174 118.62 457.68 118.156 458.094C117.853 458.364 117.515 458.592 117.156 458.781C115.591 459.607 113.761 459.73 112.031 459.875C111.222 459.943 110.415 460.008 109.625 460.156C109.569 459.662 109.516 459.173 109.5 458.688C108.712 458.05 107.873 457.957 106.406 458.156C106.24 458.179 105.97 458.223 105.594 458.281C105.348 458.363 104.98 458.489 104.812 458.531C100.918 459.52 90.3759 462.007 86.5312 465.75C86.5625 465.85 86.5611 465.93 86.5938 466.031C87.164 467.793 87.7722 469.204 89.125 472.25C91.094 476.684 93.501 480.654 96.969 485.375C102.57 493.001 106.364 496.213 113.156 498.406C113.19 498.406 113.217 498.407 113.25 498.406C117.486 495.469 122.364 486.371 124.406 483C124.647 482.44 124.986 481.719 125.094 481.438C125.402 480.633 125.498 480.033 125.375 479.5C125.006 479.388 124.666 479.278 124.312 479.156C124.893 478.518 125.44 477.828 125.938 477.125C127.059 475.54 128.004 473.843 128.844 472.094C129.68 470.352 130.395 468.543 130.938 466.688C131.516 464.709 131.956 462.653 131.625 460.594C131.322 458.71 130.698 456.694 129.562 455.094C128.881 454.133 128.021 453.296 126.938 452.75C126.561 452.56 126.156 452.427 125.75 452.312C125.324 452.192 124.881 452.093 124.438 452.094ZM144.062 453.281C143.573 453.337 143.082 453.585 142.75 454C142.085 454.831 142.232 456.054 143.062 456.719C143.893 457.383 145.117 457.237 145.781 456.406C146.446 455.576 146.299 454.383 145.469 453.719C145.053 453.386 144.552 453.226 144.062 453.281ZM124.438 453.312C124.771 453.313 125.087 453.378 125.406 453.469C126.65 453.823 127.635 454.547 128.375 455.5C129.608 457.089 130.203 459.272 130.469 461.188C130.582 462.005 130.499 462.846 130.375 463.656C130.235 464.566 130.041 465.461 129.781 466.344C129.254 468.134 128.527 469.882 127.719 471.562C126.873 473.323 125.927 475.041 124.781 476.625C124.256 477.351 123.69 478.047 123.062 478.688C121.415 478.025 119.932 477.245 118.625 476.25C114.187 472.873 110.767 466.985 109.781 461.344C110.791 461.152 111.816 461.061 112.844 460.969C114.773 460.795 116.764 460.515 118.406 459.406C120.061 458.289 120.785 456.342 121.969 454.812C122.584 454.017 123.376 453.31 124.438 453.312ZM-36.5312 454.719C-37.5984 454.37 -39.8082 459.177 -40.1875 459.969C-42.5474 464.894 -44.1969 470.528 -47.1875 475.094C-46.6365 475.817 -46.3205 476.215 -45.9375 476.594C-45.2467 477.278 -44.4717 477.941 -43.6562 478.625C-43.5847 478.451 -43.4621 478.103 -43.4062 478C-41.8639 475.15 -39.1022 470.054 -35.6562 469.219C-35.2099 469.649 -34.7891 470.1 -34.3438 470.531C-33.2323 467.842 -31.6593 465.217 -29.6562 463.062C-30.0781 462.688 -30.482 462.313 -30.9062 461.938C-32.477 460.548 -34.0202 459.001 -35.1875 457.25C-35.4098 456.917 -36.244 454.813 -36.5312 454.719ZM147.312 456.125C146.823 456.181 146.364 456.428 146.031 456.844C145.367 457.674 145.513 458.867 146.344 459.531C147.174 460.196 148.367 460.081 149.031 459.25C149.696 458.419 149.581 457.196 148.75 456.531C148.335 456.199 147.802 456.069 147.312 456.125ZM150.938 458.812C150.447 458.867 149.989 459.116 149.656 459.531C148.992 460.362 149.107 461.554 149.938 462.219C150.768 462.883 151.992 462.768 152.656 461.938C153.321 461.107 153.174 459.884 152.344 459.219C151.928 458.886 151.428 458.758 150.938 458.812ZM163.812 459.469C163.322 459.523 162.832 459.772 162.5 460.188C161.835 461.018 161.982 462.242 162.812 462.906C163.643 463.571 164.835 463.424 165.5 462.594C166.165 461.763 166.049 460.571 165.219 459.906C164.803 459.574 164.303 459.414 163.812 459.469ZM159.812 460.219C159.322 460.273 158.864 460.522 158.531 460.938C157.867 461.768 157.982 462.992 158.812 463.656C159.643 464.321 160.867 464.174 161.531 463.344C162.196 462.513 162.049 461.29 161.219 460.625C160.803 460.293 160.303 460.164 159.812 460.219ZM155.312 460.25C154.824 460.304 154.364 460.554 154.031 460.969C153.367 461.799 153.482 463.023 154.312 463.688C155.143 464.352 156.367 464.206 157.031 463.375C157.696 462.544 157.549 461.321 156.719 460.656C156.303 460.324 155.801 460.196 155.312 460.25ZM-69.375 460.844L-80.5938 473.844L-74.4688 479.125L-63.25 466.125C-63.5971 465.96 -63.9448 465.763 -64.25 465.5L-68.625 461.719C-68.9302 461.455 -69.1604 461.163 -69.375 460.844ZM45.125 465.75C44.0792 465.945 43.399 466.954 43.5938 468C43.7885 469.046 44.7667 469.726 45.8125 469.531C46.8583 469.337 47.5697 468.327 47.375 467.281C47.1803 466.235 46.1709 465.555 45.125 465.75ZM43.0625 469.25C42.0167 469.445 41.3365 470.454 41.5312 471.5C41.726 472.546 42.7354 473.226 43.7812 473.031C44.8271 472.837 45.5072 471.827 45.3125 470.781C45.1178 469.735 44.1084 469.055 43.0625 469.25ZM15.875 471.188C14.8292 471.382 14.149 472.391 14.3438 473.438C14.5385 474.483 15.5479 475.164 16.5938 474.969C17.6396 474.774 18.3197 473.765 18.125 472.719C17.9303 471.673 16.9208 470.993 15.875 471.188ZM40.1562 472.656C39.1104 472.851 38.4303 473.861 38.625 474.906C38.8197 475.952 39.8291 476.663 40.875 476.469C41.9208 476.274 42.601 475.264 42.4062 474.219C42.2115 473.173 41.2021 472.462 40.1562 472.656ZM19.0312 473.719C17.9854 473.913 17.3053 474.923 17.5 475.969C17.6948 477.015 18.7042 477.695 19.75 477.5C20.7958 477.305 21.476 476.296 21.2812 475.25C21.0865 474.204 20.0771 473.524 19.0312 473.719ZM36.2188 475.031C35.1729 475.226 34.4615 476.236 34.6562 477.281C34.851 478.327 35.8604 479.007 36.9062 478.812C37.9521 478.618 38.6322 477.608 38.4375 476.562C38.2428 475.517 37.2646 474.837 36.2188 475.031ZM23 475.875C21.9542 476.07 21.274 477.048 21.4688 478.094C21.6635 479.14 22.6417 479.851 23.6875 479.656C24.7333 479.462 25.4447 478.452 25.25 477.406C25.0553 476.36 24.0458 475.68 23 475.875ZM31.8125 476C30.7667 476.195 30.0865 477.204 30.2812 478.25C30.476 479.296 31.4542 480.007 32.5 479.812C33.5458 479.618 34.2572 478.608 34.0625 477.562C33.8678 476.517 32.8584 475.805 31.8125 476ZM27.5312 476.656C26.4854 476.851 25.8053 477.829 26 478.875C26.1947 479.921 27.2042 480.632 28.25 480.438C29.2958 480.243 29.976 479.233 29.7812 478.188C29.5865 477.142 28.5771 476.462 27.5312 476.656ZM-60.6562 484.75L-64.2188 485.594L-65.5 488.812L-61.3438 491.531L-58.875 489.469L-60.6562 484.75ZM-54.9375 485.75C-56.2558 485.872 -57.5592 486.192 -58.8125 486.75L-58.1562 488.25C-53.8067 486.314 -48.6302 487.479 -45.5312 491.188C-41.7257 495.742 -42.321 502.507 -46.875 506.312C-51.4291 510.118 -58.2257 509.523 -62.0312 504.969C-65.1618 501.222 -65.3503 495.881 -62.5938 491.938L-63.9375 491C-67.1147 495.545 -66.8886 501.714 -63.2812 506.031C-58.8962 511.279 -51.0913 511.979 -45.8438 507.594C-44.1199 506.153 -43.0983 504.284 -42.375 502.312C-42.1055 500.86 -41.8505 499.419 -41.5625 497.969C-41.5862 495.198 -42.3699 492.412 -44.2812 490.125C-46.9594 486.92 -50.9827 485.384 -54.9375 485.75ZM-57.9062 598.656C-58.0002 598.703 -58.0928 598.733 -58.1875 598.781C-59.8392 599.618 -61.1378 600.41 -63.9375 602.219C-68.0125 604.851 -71.53 607.842 -75.6562 612C-82.3447 618.74 -84.9553 622.999 -86.0625 630.094C-82.5258 633.834 -72.7184 637.282 -69.0625 638.781C-68.4715 638.932 -67.7014 639.125 -67.4062 639.188C-66.5632 639.368 -65.9758 639.391 -65.4688 639.188C-65.4151 638.805 -65.3467 638.431 -65.2812 638.062C-64.5607 638.537 -63.8345 638.961 -63.0625 639.344C-61.4316 640.152 -59.7082 640.803 -57.9688 641.344C-58.0012 640.886 -58.0351 640.427 -58.0625 639.969C-59.652 639.451 -61.2271 638.884 -62.7188 638.125C-63.5171 637.719 -64.301 637.27 -65.0312 636.75C-64.632 635.019 -64.0616 633.446 -63.2812 632C-62.0882 629.789 -60.3137 627.759 -58.2812 625.969C-57.9985 617.447 -57.1606 608.968 -56.1562 600.594C-56.7371 599.922 -57.3116 599.102 -57.9062 598.656Z" fill="#1A1A1A"/>
</g>
<path d="M70.2382 80.253C69.0325 81.079 67.9421 82.077 67.1026 83.237C66.2094 84.471 65.5113 85.867 65.0829 87.331C62.9939 94.468 67.6284 101.089 74.3144 103.382C74.5545 103.464 74.7886 103.473 75.028 103.544C74.918 103.77 74.8253 104.021 74.7187 104.236C70.2003 113.378 64.6595 122.03 61.1231 131.634C59.3171 136.538 58.0197 141.627 57.9233 146.881C57.7978 153.72 59.0256 160.6 60.5518 167.239C62.1953 174.387 64.3327 181.625 68.3422 187.837C75.3895 198.755 87.1584 206.905 89.8689 220.263C90.7529 224.621 88.9918 229.237 88.0563 233.445C86.9958 238.215 85.5676 242.964 83.723 247.547C73.6595 243.861 62.1015 242.697 53.6867 250.48C52.3223 251.742 51.0223 253.185 50.0264 254.758C45.5107 261.892 46.4566 274.053 55.632 276.891C57.1088 277.347 58.6757 277.52 60.2169 277.45C62.3607 277.352 64.4608 276.82 66.4275 275.967C72.6127 273.283 77.2449 267.704 80.7581 262.138C82.6713 259.106 84.3018 255.903 85.8011 252.612C86.2956 252.832 86.8737 252.97 87.3514 253.197C95.6979 257.168 103.409 262.657 110.519 268.521C123.856 279.523 136.336 293.311 143.971 308.948C145.142 311.346 146.193 313.812 147.102 316.334C142.663 320.04 138.894 324.774 137.438 330.32C136.051 335.608 137.971 342.118 143.521 344.041C144.625 344.423 145.778 344.631 146.946 344.649C147.878 344.662 148.823 344.53 149.713 344.249C153.876 342.933 155.132 338.397 155.093 334.473C155.04 329.297 153.782 324.182 152.26 319.26C152.102 318.747 151.888 318.253 151.723 317.74C153.17 316.706 154.674 315.809 156.12 315.114C168.751 309.046 182.883 309.806 196.389 307.567C210.285 305.264 222.762 298.146 234.434 290.613C239.68 287.226 245.484 283.821 248.967 278.461C251.278 274.906 252.338 270.569 253.163 266.472C254.317 260.742 254.859 254.857 256.461 249.222C257.863 244.292 260.308 239.674 264.638 236.803C265.427 241.312 266.91 245.715 268.971 249.806C271.146 254.125 273.837 258.135 276.704 262.018C278.904 264.997 281.158 267.977 283.988 270.396C285.534 271.718 287.345 272.979 289.385 273.345C291.789 273.777 294.069 272.718 295.473 270.737C296.567 269.194 297.086 267.342 297.773 265.602C298.355 264.126 298.98 262.688 299.45 261.17C299.81 260.009 300.098 258.818 300.318 257.622C300.611 256.03 300.77 254.387 300.571 252.773C300.128 249.177 298.176 245.641 296.1 242.746C291.339 236.107 283.718 230.454 275.364 229.773C272.918 229.574 270.568 229.983 268.246 230.685C268.246 226.733 268.956 222.732 270.786 218.751C274.075 211.594 279.571 205.574 285.183 200.161C294.569 191.106 305.205 183.533 315.112 175.086C320.875 170.172 325.948 164.091 329.217 157.225C330.237 155.084 331.078 152.859 331.606 150.547C333.141 149.629 334.655 148.642 336.03 147.499C344.314 140.612 351.935 127.696 345.718 117.13C342.633 111.886 337.003 108.333 331.428 106.246C320.523 102.165 308.328 102.497 296.89 103.124C292.946 103.34 288.995 103.665 285.05 103.86C276.058 104.303 264.617 103.573 258.258 96.253C254.949 92.444 252.573 87.798 250.543 83.214C248.879 79.456 247.351 75.452 246.755 71.363C246.385 68.826 246.39 66.241 246.26 63.685C246.046 59.493 245.73 55.215 244.564 51.162C243.617 47.87 242.002 44.61 239.199 42.514C237.355 41.135 235.072 40.279 232.881 39.637C230.647 38.982 228.299 38.636 225.969 38.677C220.519 38.775 215.825 41.225 211.738 44.547C209.446 43.138 207.034 41.954 204.636 41.358C195.74 39.149 186.158 40.452 178.701 45.944C173.985 49.417 170.375 54.101 167.093 58.894C163.32 64.403 159.961 70.316 155.483 75.301C152.544 78.572 149.131 81.415 144.894 82.813C142.888 83.474 140.85 83.763 138.748 83.856C137.592 83.908 136.681 84.881 136.733 86.037C136.784 87.193 137.758 88.104 138.914 88.052C141.399 87.94 143.854 87.563 146.223 86.777C158.989 82.541 165.065 68.619 172.47 58.533C177.841 51.216 184.343 45.339 193.716 44.615C198.806 44.222 203.983 45.13 208.438 47.472C207.237 48.706 206.057 49.946 205.009 51.278C203.57 53.105 202.204 55.03 201.059 57.058C198.015 62.447 194.986 71.22 201.674 75.275C202.388 75.708 203.129 76.07 203.932 76.299C207.034 77.181 210.3 76.17 212.927 74.453C217.682 71.347 222.147 65.146 221.881 59.257C221.664 54.428 218.865 50.218 215.124 46.992C218.657 44.322 222.756 42.622 227.422 42.901C229.138 43.004 230.81 43.352 232.439 43.893C234.175 44.47 236.018 45.143 237.367 46.427C239.598 48.552 240.547 51.819 241.121 54.747C242.166 60.078 241.927 65.509 242.481 70.884C242.883 74.785 244.164 78.56 245.6 82.187C247.035 85.812 248.685 89.346 250.668 92.705C253.344 97.239 256.507 101.332 261.2 103.911C269.858 108.67 280.206 108.364 289.764 107.768C301.155 107.059 312.94 106.024 324.208 108.48C332.27 110.237 343.264 115.246 343.787 124.774C343.984 128.367 342.803 131.93 341.1 135.05C338.941 139.003 336.007 142.342 332.309 145.085C332.311 144.573 332.248 144.27 332.213 143.757C332.119 142.386 331.785 141.028 331.159 139.799C327.734 133.068 318.252 134.831 313.046 138.136C312.099 138.738 311.201 139.454 310.407 140.249C307.66 142.999 306.641 146.819 309.349 150.027C309.99 150.786 310.757 151.428 311.587 151.969C316.122 154.93 321.515 154.742 326.421 153.046C326.282 153.41 326.237 153.801 326.084 154.16C324.954 156.811 323.485 159.331 321.82 161.68C316.655 168.971 309.639 174.325 302.725 179.855C293.95 186.874 285.03 193.895 277.416 202.199C270.514 209.725 264.576 218.551 264.016 229.048C263.956 230.177 264.09 231.278 264.145 232.398C263.539 232.717 262.878 232.937 262.305 233.314C253.016 239.424 251.622 251.307 249.927 261.363C249.125 266.124 248.38 271.345 245.94 275.619C245.018 277.234 243.742 278.673 242.389 279.937C238.551 283.521 233.875 286.161 229.486 288.997C219.669 295.341 208.864 300.972 197.309 303.266C193.023 304.117 188.618 304.414 184.275 304.84C173.107 305.936 160.628 307.115 150.99 313.403C150.76 313.553 150.546 313.748 150.317 313.903C149.847 312.633 149.479 311.334 148.929 310.104C141.145 292.677 127.687 277.505 113.068 265.451C105.283 259.032 96.7559 253.01 87.5 248.897C89.3949 244.162 90.8779 239.249 91.9719 234.321C92.9529 229.907 94.4379 225.373 93.9399 220.793C93.6749 218.357 92.9329 215.961 92.0349 213.691C87.9068 203.258 78.9592 196.111 72.6793 187.104C68.348 180.892 66.1326 173.664 64.4511 166.349C62.9973 160.025 61.7974 153.465 61.912 146.95C62.0196 140.838 63.921 134.919 66.3213 129.356C70.0326 120.755 75.0097 112.78 78.9831 104.311C89.1367 105.087 98.5379 97.493 106.574 92.075C108.234 90.956 109.912 89.873 111.68 88.931C115.927 86.67 120.652 85.96 125.408 85.938C126.503 85.933 127.387 85.054 127.382 83.958C127.376 82.863 126.46 81.997 125.365 82.002C120.9 82.024 116.479 82.521 112.316 84.22C109.988 85.169 107.827 86.513 105.727 87.883C100.556 91.256 95.7129 95.179 90.1194 97.859C87.2065 99.255 84.008 100.12 80.7643 100.194C83.261 93.698 84.8937 85.198 80.0324 79.712C78.5299 78.016 76.2189 77.848 74.1398 78.407C72.7586 78.778 71.4439 79.427 70.2382 80.253ZM74.4743 82.478C75.8763 81.933 76.6373 81.736 77.4989 82.911C80.5006 87.006 79.0491 93.482 77.5235 97.862C77.295 98.517 77.0182 99.111 76.766 99.721C71.9063 98.418 67.6144 94.678 68.7208 89.157C68.9247 88.139 69.3323 87.182 69.8679 86.295C70.9447 84.51 72.5306 83.234 74.4743 82.478ZM212.008 49.922C212.589 50.402 213.226 50.768 213.761 51.321C217.126 54.8 218.883 59.252 216.725 63.834C215.105 67.275 212.088 70.812 208.4 72.093C206.24 72.843 203.418 72.356 202.32 70.104C201.518 68.46 201.831 66.441 202.289 64.752C203.084 61.822 204.556 58.996 206.311 56.528C207.949 54.224 209.913 52.001 212.008 49.922ZM60.4323 250.608C67.0614 247.26 75.0285 248.565 82.1004 251.134C80.6946 254.199 79.1677 257.179 77.3842 260.005C74.5998 264.417 71.1075 268.865 66.4882 271.481C61.7931 274.14 55.0533 274.746 52.3996 269.097C51.9233 268.084 51.618 267.006 51.4761 265.896C51.3006 264.522 51.3644 263.106 51.6031 261.743C51.9022 260.036 52.468 258.357 53.4003 256.891C54.3607 255.38 55.6334 254.019 56.9998 252.869C58.081 251.958 59.2451 251.207 60.4323 250.608ZM316.441 140.987C320.022 139.159 327.102 137.675 327.994 143.297C328.226 144.761 328.135 146.321 327.933 147.783C327.93 147.802 327.916 147.818 327.913 147.837C327.426 148.083 326.961 148.401 326.462 148.615C322.296 150.405 317.117 151.089 313.307 148.108C310.788 146.137 312.141 144.051 314.241 142.392C314.928 141.849 315.662 141.384 316.441 140.987ZM268.555 235.086C269.626 234.698 270.637 234.108 271.743 233.942C279.538 232.771 287.228 238.145 291.844 243.941C293.877 246.493 295.862 249.637 296.449 252.904C297.107 256.568 295.279 260.753 293.963 264.085C293.404 265.5 293.01 267.114 292.123 268.366C290.633 270.469 288.06 268.482 286.648 267.273C283.459 264.538 281.002 260.983 278.566 257.59C273.688 250.796 269.696 243.095 268.555 235.086ZM148.408 320.537C148.758 321.692 149.15 322.835 149.455 323.998C150.214 326.906 150.848 329.888 151.026 332.895C151.207 335.946 151.185 340.689 147.034 340.605C146.289 340.59 145.522 340.488 144.817 340.244C140.771 338.846 140.531 333.683 141.67 330.228C142.828 326.711 145.372 323.359 148.408 320.537Z" fill="black" stroke="#FDFDFD" stroke-width="2" stroke-miterlimit="10" stroke-linejoin="round"/>
<path d="M80.5 98.906C80.2477 99.007 80.0216 99.23 79.9062 99.5C79.2705 100.976 79.3499 100.809 79.2812 100.969C79.0748 101.469 78.4471 102.968 78.6562 102.469C79.0739 101.472 78.6577 102.472 78 103.969C77.7727 104.475 77.9934 105.054 78.5 105.281C79.0066 105.509 79.5852 105.288 79.8125 104.781C80.4907 103.301 80.4257 103.474 80.5 103.312C80.376 103.559 80.9565 102.31 80.8438 102.562C81.0216 102.186 81.3336 101.562 81.2188 101.812C80.7651 102.803 81.2171 101.818 81.875 100.312C82.1058 99.773 81.8517 99.168 81.3125 98.938C81.0429 98.822 80.7523 98.805 80.5 98.906Z" fill="#FDFDFD"/>
<path d="M77.2499 98.375C76.703 98.163 76.0869 98.453 75.8749 99C75.8423 101.445 76.047 100.831 75.8437 101.438C75.7766 101.409 75.8624 100.273 75.4687 100.062C75.1327 99.883 75.1599 100.748 74.9999 101.094C74.8354 101.449 74.6676 101.802 74.4999 102.156C74.2872 102.605 73.5055 103.621 73.8437 104.25C74.0214 104.581 74.1684 104.707 74.5311 104.812C74.7161 104.867 75.389 104.703 75.5937 104.375C75.5987 104.365 75.5889 104.353 75.5937 104.344C75.6177 104.3 75.7163 104.299 75.7187 104.25C75.7224 104.171 75.7155 104.253 75.7187 104.188C75.7685 104.102 75.7816 104.084 75.8124 104.031C75.8172 104.045 75.8055 104.134 75.8124 104.125C75.8618 104.061 75.8432 103.977 75.8749 103.906C75.9303 103.809 76.0013 103.707 76.0937 103.531C76.3591 103.027 76.6202 102.508 76.8749 102C77.0601 101.631 77.7977 100.775 77.4061 100.906C76.2142 101.307 77.4275 100.888 77.8749 99.75C78.0869 99.203 77.7968 98.587 77.2499 98.375Z" fill="#FDFDFD"/>
<path d="M211.656 43.5C211.388 43.545 211.139 43.699 210.969 43.938C210.629 44.415 210.741 45.066 211.219 45.406C212.259 46.161 212.168 46.074 212.281 46.156C212.64 46.395 213.697 47.153 213.344 46.906C212.637 46.413 213.332 46.898 214.375 47.688C214.815 48.027 215.442 47.94 215.781 47.5C216.121 47.06 216.033 46.433 215.594 46.094C214.019 44.881 214.913 45.572 214.031 44.906C213.852 44.771 214.732 45.428 214.562 45.281C214.227 44.99 213.182 44.194 213.531 44.469C214.225 45.015 213.513 44.467 212.438 43.688C212.199 43.518 211.924 43.455 211.656 43.5Z" fill="#FDFDFD"/>
<path d="M208.156 46.5C207.892 46.563 207.653 46.719 207.5 46.969C207.193 47.469 207.344 48.131 207.844 48.438C208.524 48.888 208.336 48.748 208.531 48.875C208.321 48.712 208.993 49.14 209.219 49.281C209.625 49.535 210.135 49.855 210.531 50.125C210.748 50.273 211.41 50.733 211.188 50.594C210.063 49.889 211.201 50.602 211.844 51.094C212.284 51.433 212.911 51.346 213.25 50.906C213.589 50.466 213.502 49.839 213.062 49.5C211.008 48.07 211.912 48.697 211 48.062C210.544 47.745 211.926 48.691 212.406 48.969C212.65 49.109 211.946 48.634 211.719 48.469C211.274 48.145 210.802 47.836 210.344 47.531C210.113 47.378 209.432 46.899 209.656 47.062C210.782 47.883 209.643 47.063 208.938 46.625C208.688 46.472 208.421 46.437 208.156 46.5Z" fill="#FDFDFD"/>
<path d="M328.125 147.062C327.553 146.934 326.973 147.303 326.844 147.875C326.123 150.399 326.42 149.429 326.125 150.406C325.961 150.951 326.423 149.269 326.656 148.75C326.78 148.475 326.534 149.362 326.469 149.656C326.313 150.36 326.144 151.068 325.906 151.75C325.86 151.882 325.802 151.995 325.75 152.125C325.699 152.254 325.56 152.666 325.594 152.531C325.99 150.976 325.599 152.509 325.406 152.906C325.163 153.405 325.376 154.007 325.875 154.25C326.374 154.493 326.976 154.28 327.219 153.781C328.072 151.05 327.684 152.264 328.062 151.062C328.301 150.306 327.622 152.573 327.438 153.344C327.398 153.508 327.561 153.062 327.625 152.906C327.744 152.617 327.868 152.265 327.969 151.969C328.174 151.366 328.346 150.742 328.5 150.125C328.575 149.825 328.821 148.927 328.719 149.219C328.187 150.73 328.7 149.24 328.906 148.344C329.035 147.772 328.697 147.191 328.125 147.062Z" fill="#FDFDFD"/>
<path d="M332.406 143.75C331.822 143.697 331.303 144.135 331.25 144.719C330.938 147.615 331.052 146.448 330.938 147.594C330.857 148.398 331.113 145.988 331.219 145.188C331.241 145.021 331.192 145.52 331.188 145.688C331.183 145.846 331.189 146.029 331.188 146.188C331.178 147.119 331.058 147.992 330.875 148.906C330.84 149.081 330.813 149.231 330.781 149.406C330.748 149.589 330.669 150.154 330.688 149.969C330.863 148.216 330.686 149.962 330.625 150.5C330.562 151.052 330.948 151.562 331.5 151.625C332.052 151.688 332.562 151.27 332.625 150.719C332.685 150.249 332.65 150.536 332.688 150.25C332.706 150.094 332.72 150.023 332.75 149.781C332.819 149.43 332.891 149.162 332.969 148.812C333.161 147.949 333.259 147.103 333.281 146.219C333.285 146.068 333.308 145.901 333.312 145.75C333.317 145.609 333.332 145.204 333.312 145.344C333.067 147.14 333.333 145.339 333.375 144.906C333.428 144.322 332.99 143.803 332.406 143.75Z" fill="#FDFDFD"/>
<path d="M268.375 229.5C267.822 229.452 267.329 229.853 267.281 230.406C267.47 233.022 267.394 231.884 267.469 233.031C267.508 233.626 267.401 231.817 267.219 231.25C267.127 230.963 267.183 231.855 267.188 232.156C267.197 232.732 267.266 233.398 267.344 233.969C267.384 234.261 267.473 235.139 267.469 234.844C267.449 233.37 267.473 234.842 267.656 235.656C267.788 236.228 268.366 236.569 268.938 236.438C269.509 236.306 269.851 235.728 269.719 235.156C269.497 232.865 269.577 233.892 269.5 232.875C269.461 232.366 269.629 233.9 269.562 234.406C269.529 234.662 269.448 233.911 269.406 233.656C269.328 233.182 269.242 232.575 269.219 232.094C269.207 231.843 269.178 231.096 269.219 231.344C269.426 232.61 269.217 231.36 269.281 230.594C269.329 230.041 268.928 229.548 268.375 229.5Z" fill="#FDFDFD"/>
<path d="M264.062 231.156C263.508 231.181 263.1 231.633 263.125 232.188C263.396 234.683 263.203 233.305 263.375 234.688C263.411 234.98 263.213 233.55 263.188 233.844C263.137 234.416 263.334 236.105 263.312 235.531C263.271 234.412 263.31 235.551 263.656 237.188C263.782 237.76 264.333 238.126 264.906 238C265.479 237.874 265.845 237.292 265.719 236.719C265.416 234.407 265.617 235.699 265.438 234.406C265.401 234.14 265.453 235.476 265.375 235.219C265.226 234.726 265.103 233.185 265.219 233.688C265.449 234.69 265.207 233.677 265.125 232.094C265.1 231.539 264.617 231.132 264.062 231.156Z" fill="#FDFDFD"/>
<path d="M146.688 315.531C146.132 315.72 145.842 316.32 146.031 316.875C146.272 317.624 146.21 317.415 146.281 317.625C146.217 317.373 146.443 318.131 146.531 318.375C146.685 318.801 146.894 319.348 147.031 319.781C147.105 320.015 147.331 320.731 147.25 320.5C146.828 319.301 147.238 320.514 147.406 321.25C147.528 321.792 148.083 322.122 148.625 322C149.167 321.878 149.497 321.323 149.375 320.781C148.701 318.487 149 319.518 148.719 318.5C148.578 317.99 149.021 319.509 149.219 320C149.321 320.254 149.074 319.482 149 319.219C148.858 318.711 148.695 318.189 148.531 317.688C148.451 317.44 148.212 316.686 148.281 316.938C148.634 318.225 148.278 316.955 148.031 316.219C147.842 315.663 147.243 315.342 146.688 315.531Z" fill="#FDFDFD"/>
<path d="M149.75 312.281C149.2 312.485 148.921 313.106 149.125 313.656C149.985 315.926 149.491 314.643 149.969 315.906C150.112 316.284 150.346 316.908 150.25 316.656C149.868 315.649 150.27 316.669 150.844 318.188C151.036 318.708 151.604 318.973 152.125 318.781C152.646 318.589 152.911 318.021 152.719 317.5C152.185 315.985 152.246 316.134 152.188 315.969C152.274 316.227 151.814 314.932 151.906 315.188C151.781 314.82 151.567 314.19 151.656 314.438C152.021 315.451 151.646 314.434 151.094 312.906C150.89 312.356 150.3 312.078 149.75 312.281Z" fill="#FDFDFD"/>
<path d="M82.3437 250.188C81.8192 250.005 81.2449 250.288 81.0624 250.812C80.8799 251.337 81.163 251.911 81.6874 252.094C83.3353 252.773 82.8897 252.619 83.3437 252.781C83.3789 252.794 83.4207 252.827 83.4687 252.844C83.4543 252.839 83.5927 252.886 83.5624 252.875C83.7402 252.959 83.9137 253.046 84.0937 253.125C84.3107 253.22 84.9681 253.499 84.7499 253.406C83.7251 252.97 84.7488 253.392 85.4061 253.625C85.96 253.818 86.5883 253.523 86.7811 252.969C86.974 252.415 86.6788 251.818 86.1249 251.625C84.2396 250.909 85.0749 251.199 84.2187 250.906C84.0323 250.83 83.8433 250.762 83.6561 250.688C83.4358 250.6 82.7787 250.352 82.9999 250.438C84.0368 250.838 83.0045 250.415 82.3437 250.188Z" fill="#FDFDFD"/>
<path d="M83.9375 246.531C83.4074 246.366 82.8214 246.657 82.6562 247.188C82.4911 247.718 82.8136 248.272 83.3438 248.438C84.031 248.686 83.8197 248.608 84.0312 248.688C83.805 248.596 84.4903 248.851 84.7188 248.938C84.974 249.032 85.1847 249.109 85.2188 249.125C85.229 249.128 85.2389 249.153 85.25 249.156C85.2532 249.159 85.5401 249.242 85.4688 249.219C85.6866 249.306 85.9059 249.385 86.125 249.469C86.3661 249.561 87.0861 249.838 86.8438 249.75C85.6685 249.321 86.8645 249.754 87.5938 250C88.1505 250.184 88.7532 249.869 88.9375 249.312C89.1218 248.756 88.8068 248.153 88.25 247.969C87.5357 247.731 87.7446 247.823 87.5312 247.75C87.2976 247.673 87.202 247.62 86.8438 247.5C86.2983 247.311 85.9545 247.185 85.4062 247C85.1594 246.917 84.4096 246.666 84.6562 246.75C85.8501 247.156 84.6775 246.759 83.9375 246.531Z" fill="#FDFDFD"/>
<path d="M88.8819 86.383C79.6603 66.892 87.9848 43.616 107.475 34.395C126.966 25.173 150.242 33.498 159.463 52.988C168.685 72.479 160.36 95.754 140.87 104.976C121.379 114.198 98.104 105.873 88.8819 86.383Z" fill="#FF2222"/>
<path d="M37.0979 144.035C55.5159 132.824 79.5353 138.666 90.747 157.084C101.958 175.502 96.116 199.521 77.6979 210.733C59.28 221.944 35.2606 216.102 24.0492 197.684C12.8379 179.266 18.68 155.247 37.0979 144.035Z" fill="#AF52DE"/>
<path d="M90.962 331.606C71.1397 323.122 61.9475 300.175 70.4312 280.352C78.9149 260.53 101.862 251.337 121.685 259.821C141.508 268.305 150.7 291.252 142.216 311.075C133.732 330.897 110.785 340.09 90.962 331.606Z" fill="#007AFF"/>
<path d="M200.222 321.706C191 302.215 199.325 278.94 218.815 269.718C238.305 260.496 261.581 268.821 270.803 288.311C280.024 307.802 271.7 331.078 252.209 340.299C232.719 349.521 209.443 341.196 200.222 321.706Z" fill="#34C759"/>
<path d="M303.663 235.4C282.811 229.913 270.355 208.562 275.842 187.709C281.329 166.857 302.681 154.401 323.533 159.888C344.385 165.375 356.841 186.727 351.354 207.579C345.867 228.431 324.515 240.887 303.663 235.4Z" fill="#FFC622"/>
<path d="M235.242 93.485C231.905 72.183 246.468 52.209 267.77 48.872C289.073 45.535 309.047 60.098 312.384 81.4C315.721 102.702 301.158 122.677 279.855 126.014C258.553 129.351 238.579 114.788 235.242 93.485Z" fill="#FF9500"/>
<path d="M94.401 83.772C86.7692 67.642 93.912 48.26 110.355 40.48C126.797 32.701 146.313 39.47 153.945 55.599C161.576 71.729 154.433 91.111 137.99 98.89C121.548 106.67 102.032 99.901 94.401 83.772Z" stroke="#FDFDFD" stroke-miterlimit="10" stroke-linejoin="round"/>
<path d="M40.2724 149.25C55.5143 139.972 75.5376 145.047 84.9958 160.585C94.454 176.122 89.7653 196.24 74.5235 205.518C59.2816 214.796 39.2583 209.721 29.8001 194.183C20.3419 178.645 25.0306 158.528 40.2724 149.25Z" stroke="#FDFDFD" stroke-miterlimit="10" stroke-linejoin="round"/>
<path d="M93.365 325.993C76.9602 318.972 69.4637 299.724 76.6207 283.001C83.7778 266.278 102.878 258.413 119.283 265.434C135.687 272.455 143.183 291.703 136.026 308.426C128.869 325.149 109.769 333.014 93.365 325.993Z" stroke="#FDFDFD" stroke-miterlimit="10" stroke-linejoin="round"/>
<path d="M205.74 319.095C198.109 302.965 205.252 283.583 221.694 275.804C238.137 268.024 257.653 274.793 265.284 290.923C272.916 307.052 265.773 326.434 249.33 334.214C232.887 341.993 213.372 335.224 205.74 319.095Z" stroke="#FDFDFD" stroke-miterlimit="10" stroke-linejoin="round"/>
<path d="M305.217 229.496C287.961 224.955 277.724 207.014 282.353 189.423C286.982 171.831 304.723 161.252 321.979 165.792C339.236 170.333 349.472 188.275 344.843 205.866C340.214 223.457 322.473 234.037 305.217 229.496Z" stroke="#FDFDFD" stroke-miterlimit="10" stroke-linejoin="round"/>
<path d="M241.053 92.154C238.292 74.526 250.621 57.953 268.592 55.137C286.563 52.322 303.37 64.33 306.132 81.959C308.893 99.588 296.564 116.161 278.593 118.976C260.622 121.791 243.815 109.783 241.053 92.154Z" stroke="#FDFDFD" stroke-miterlimit="10" stroke-linejoin="round"/>
<path d="M221.317 303.691C220.187 301.302 221.207 298.45 223.596 297.32C225.985 296.189 228.837 297.21 229.967 299.598C231.098 301.987 230.077 304.84 227.689 305.97C225.3 307.1 222.447 306.08 221.317 303.691Z" fill="#FDFDFD"/>
<path d="M227.529 316.82C226.399 314.431 227.419 311.578 229.808 310.448C232.196 309.318 235.049 310.338 236.179 312.727C237.309 315.116 236.289 317.968 233.9 319.098C231.512 320.229 228.659 319.208 227.529 316.82Z" fill="#FDFDFD"/>
<path d="M234.845 297.29C233.715 294.902 234.735 292.049 237.124 290.919C239.513 289.789 242.365 290.809 243.496 293.198C244.626 295.586 243.605 298.439 241.217 299.569C238.828 300.699 235.976 299.679 234.845 297.29Z" fill="#FDFDFD"/>
<path d="M241.057 310.419C239.927 308.03 240.947 305.178 243.336 304.048C245.724 302.917 248.577 303.938 249.707 306.326C250.837 308.715 249.817 311.568 247.428 312.698C245.04 313.828 242.187 312.808 241.057 310.419Z" fill="#FDFDFD"/>
<path d="M94.8199 304.134C92.3909 303.095 91.2649 300.282 92.3039 297.853C93.3439 295.424 96.1559 294.297 98.5859 295.337C101.015 296.377 102.142 299.189 101.102 301.618C100.062 304.048 97.2499 305.174 94.8199 304.134Z" fill="#FDFDFD"/>
<path d="M108.173 309.849C105.744 308.809 104.617 305.997 105.657 303.568C106.697 301.138 109.509 300.012 111.938 301.051C114.368 302.091 115.494 304.903 114.454 307.333C113.415 309.762 110.602 310.889 108.173 309.849Z" fill="#FDFDFD"/>
<path d="M100.709 290.376C98.2799 289.336 97.1529 286.524 98.1929 284.094C99.2319 281.665 102.045 280.538 104.474 281.578C106.904 282.618 108.03 285.43 106.99 287.859C105.951 290.289 103.138 291.415 100.709 290.376Z" fill="#FDFDFD"/>
<path d="M114.062 296.09C111.632 295.05 110.506 292.238 111.545 289.809C112.585 287.379 115.397 286.253 117.827 287.293C120.256 288.332 121.383 291.145 120.343 293.574C119.303 296.003 116.491 297.13 114.062 296.09Z" fill="#FDFDFD"/>
<path d="M57.2224 163.129C59.4796 161.755 62.4233 162.471 63.7973 164.728C65.1713 166.985 64.4553 169.929 62.1981 171.303C59.9409 172.677 56.9972 171.961 55.6232 169.704C54.2492 167.447 54.9651 164.503 57.2224 163.129Z" fill="#FDFDFD"/>
<path d="M44.8161 170.681C47.0733 169.307 50.017 170.023 51.391 172.28C52.765 174.537 52.049 177.481 49.7918 178.855C47.5346 180.229 44.5909 179.513 43.2169 177.256C41.8429 174.999 42.5589 172.055 44.8161 170.681Z" fill="#FDFDFD"/>
<path d="M65.0041 175.913C67.2613 174.539 70.205 175.255 71.579 177.512C72.953 179.769 72.237 182.713 69.9798 184.087C67.7226 185.461 64.7789 184.745 63.4049 182.488C62.0309 180.231 62.7469 177.287 65.0041 175.913Z" fill="#FDFDFD"/>
<path d="M52.5978 183.465C54.855 182.091 57.7987 182.807 59.1727 185.064C60.5467 187.321 59.8307 190.265 57.5735 191.639C55.3163 193.013 52.3726 192.297 50.9986 190.04C49.6246 187.782 50.3406 184.839 52.5978 183.465Z" fill="#FDFDFD"/>
<path d="M109.702 68.498C108.572 66.109 109.592 63.257 111.981 62.127C114.369 60.997 117.222 62.017 118.352 64.405C119.482 66.794 118.462 69.647 116.073 70.777C113.685 71.907 110.832 70.887 109.702 68.498Z" fill="#FDFDFD"/>
<path d="M115.914 81.627C114.783 79.238 115.804 76.386 118.192 75.255C120.581 74.125 123.433 75.146 124.564 77.534C125.694 79.923 124.674 82.775 122.285 83.906C119.896 85.036 117.044 84.015 115.914 81.627Z" fill="#FDFDFD"/>
<path d="M123.23 62.097C122.1 59.709 123.12 56.856 125.509 55.726C127.897 54.596 130.75 55.616 131.88 58.005C133.01 60.393 131.99 63.246 129.601 64.376C127.213 65.506 124.36 64.486 123.23 62.097Z" fill="#FDFDFD"/>
<path d="M129.442 75.226C128.312 72.838 129.332 69.985 131.72 68.855C134.109 67.725 136.962 68.745 138.092 71.134C139.222 73.522 138.202 76.375 135.813 77.505C133.424 78.635 130.572 77.615 129.442 75.226Z" fill="#FDFDFD"/>
<path d="M260.349 81.781C259.94 79.17 261.724 76.722 264.335 76.313C266.946 75.904 269.394 77.689 269.803 80.3C270.212 82.91 268.427 85.358 265.816 85.767C263.206 86.176 260.758 84.392 260.349 81.781Z" fill="#FDFDFD"/>
<path d="M262.597 96.13C262.188 93.519 263.972 91.071 266.583 90.662C269.194 90.253 271.642 92.038 272.051 94.649C272.46 97.259 270.675 99.707 268.064 100.116C265.454 100.525 263.006 98.741 262.597 96.13Z" fill="#FDFDFD"/>
<path d="M275.134 79.465C274.725 76.854 276.51 74.406 279.121 73.997C281.731 73.588 284.179 75.373 284.588 77.983C284.997 80.594 283.213 83.042 280.602 83.451C277.991 83.86 275.543 82.075 275.134 79.465Z" fill="#FDFDFD"/>
<path d="M277.382 93.814C276.973 91.203 278.758 88.755 281.369 88.346C283.979 87.937 286.427 89.722 286.836 92.332C287.245 94.943 285.46 97.391 282.85 97.8C280.239 98.209 277.791 96.424 277.382 93.814Z" fill="#FDFDFD"/>
<path d="M303.671 206.834C301.115 206.162 299.589 203.545 300.261 200.99C300.934 198.434 303.55 196.907 306.106 197.58C308.661 198.252 310.188 200.869 309.515 203.425C308.843 205.98 306.226 207.507 303.671 206.834Z" fill="#FDFDFD"/>
<path d="M317.717 210.53C315.161 209.858 313.635 207.241 314.307 204.685C314.979 202.13 317.596 200.603 320.152 201.276C322.707 201.948 324.234 204.565 323.561 207.121C322.889 209.676 320.272 211.203 317.717 210.53Z" fill="#FDFDFD"/>
<path d="M307.479 192.361C304.924 191.689 303.397 189.072 304.069 186.516C304.742 183.961 307.359 182.434 309.914 183.107C312.47 183.779 313.996 186.396 313.324 188.951C312.651 191.507 310.035 193.033 307.479 192.361Z" fill="#FDFDFD"/>
<path d="M321.525 196.057C318.969 195.385 317.443 192.768 318.115 190.212C318.788 187.657 321.405 186.13 323.96 186.803C326.516 187.475 328.042 190.092 327.37 192.647C326.697 195.203 324.081 196.729 321.525 196.057Z" fill="#FDFDFD"/>
<path d="M47.3649 173.826C47.004 174.183 46.7914 174.701 46.7885 175.249C46.7826 176.345 47.6503 177.216 48.746 177.222C52.1997 177.244 55.7676 177.141 59.1198 178.096C61.5053 178.776 63.6156 180.021 65.6489 181.407C66.6068 182.056 67.917 181.808 68.5663 180.851C69.2156 179.893 68.9677 178.582 68.0099 177.933C65.5834 176.298 63.0391 174.901 60.1874 174.146C56.4745 173.163 52.5958 173.275 48.786 173.259C48.2382 173.256 47.7258 173.469 47.3649 173.826Z" fill="black" stroke="#FDFDFD" stroke-miterlimit="10" stroke-linejoin="round"/>
<path d="M57.8765 167.442C56.2922 173.794 54.8104 180.182 53.3353 186.56C53.0872 187.627 53.752 188.698 54.8191 188.946C55.8863 189.194 56.957 188.53 57.2051 187.463C58.6894 181.112 60.3336 174.814 61.9418 168.494C62.2245 167.372 61.5576 166.218 60.4354 165.935C59.3132 165.653 58.1591 166.319 57.8765 167.442Z" fill="black" stroke="#FDFDFD" stroke-miterlimit="10" stroke-linejoin="round"/>
<path d="M102.622 284.127C101.576 284.451 100.974 285.571 101.299 286.617C102.381 290.107 104.345 293.082 106.091 296.265C107.554 298.93 108.673 301.578 108.373 304.644C108.266 305.796 109.12 306.821 110.273 306.929C111.425 307.036 112.45 306.181 112.557 305.029C112.792 302.393 112.36 299.959 111.323 297.518C109.541 293.327 106.457 289.796 105.095 285.412C104.77 284.366 103.668 283.802 102.622 284.127Z" fill="black" stroke="#FDFDFD" stroke-miterlimit="10" stroke-linejoin="round"/>
<path d="M95.9379 298.067C94.9299 298.495 94.4419 299.701 94.8699 300.71C95.2979 301.718 96.4869 302.169 97.4949 301.741C103.809 299.071 110.151 296.462 116.373 293.583C117.422 293.094 117.86 291.84 117.372 290.791C116.883 289.742 115.629 289.304 114.58 289.792C108.416 292.679 102.202 295.401 95.9379 298.067Z" fill="black" stroke="#FDFDFD" stroke-miterlimit="10" stroke-linejoin="round"/>
<path d="M225.594 300.571C225.091 300.641 224.619 300.933 224.289 301.37C223.629 302.244 223.815 303.476 224.689 304.137C230.547 308.557 238.142 307.372 244.738 309.795C245.825 310.189 247.018 309.617 247.413 308.529C247.808 307.441 247.272 306.231 246.184 305.836C243.294 304.799 240.401 304.362 237.361 304.008C233.753 303.588 230.078 303.212 227.093 300.953C226.656 300.623 226.097 300.501 225.594 300.571Z" fill="black" stroke="#FDFDFD" stroke-miterlimit="10" stroke-linejoin="round"/>
<path d="M237.86 294.585C237.377 294.818 236.977 295.23 236.786 295.776C234.528 302.258 231.604 308.465 229.783 315.097C229.492 316.153 230.108 317.244 231.165 317.535C232.221 317.827 233.312 317.21 233.603 316.154C235.413 309.613 238.489 303.518 240.747 297.131C241.13 296.039 240.536 294.856 239.444 294.473C238.898 294.281 238.343 294.353 237.86 294.585Z" fill="black" stroke="#FDFDFD" stroke-miterlimit="10" stroke-linejoin="round"/>
<path d="M308.198 186.861C307.279 187.458 307.027 188.67 307.624 189.588C310.947 194.718 313.764 200.076 316.564 205.504C317.097 206.532 318.348 206.981 319.375 206.448C320.402 205.915 320.834 204.627 320.301 203.6C317.412 198.066 314.333 192.668 310.925 187.435C310.328 186.516 309.116 186.264 308.198 186.861Z" fill="black" stroke="#FDFDFD" stroke-miterlimit="10" stroke-linejoin="round"/>
<path d="M321.856 190.449C316.14 193.876 310.386 197.425 304.287 200.126C303.285 200.569 302.813 201.749 303.255 202.751C303.698 203.754 304.861 204.188 305.863 203.746C312.119 200.99 318.09 197.529 323.966 194.044C324.96 193.451 325.301 192.186 324.708 191.192C324.115 190.198 322.85 189.857 321.856 190.449Z" fill="black" stroke="#FDFDFD" stroke-miterlimit="10" stroke-linejoin="round"/>
<path d="M280.289 77.302C279.754 77.257 279.225 77.413 278.784 77.787C273.319 82.434 268.805 87.925 265.565 94.338C265.07 95.315 265.461 96.494 266.438 96.989C267.416 97.484 268.594 97.093 269.089 96.116C272.09 90.2 276.431 85.241 281.49 80.983C282.373 80.236 282.482 78.916 281.735 78.032C281.361 77.59 280.823 77.346 280.289 77.302Z" fill="black" stroke="#FDFDFD" stroke-miterlimit="10" stroke-linejoin="round"/>
<path d="M264.555 79.392C264.071 79.544 263.63 79.881 263.377 80.367C262.87 81.339 263.244 82.559 264.215 83.065C270.224 86.207 275.735 90.139 280.905 94.514C281.79 95.26 283.115 95.144 283.861 94.259C284.606 93.374 284.491 92.049 283.606 91.303C278.181 86.755 272.358 82.797 266.075 79.528C265.589 79.275 265.04 79.24 264.555 79.392Z" fill="black" stroke="#FDFDFD" stroke-miterlimit="10" stroke-linejoin="round"/>
<path d="M113.212 64.968C112.785 65.243 112.456 65.664 112.34 66.2C112.107 67.27 112.762 68.353 113.833 68.586C118.02 69.5 122.314 69.804 126.47 70.883C128.613 71.439 131.123 72.143 132.564 73.958C133.293 74.856 134.62 74.972 135.518 74.242C136.416 73.513 136.532 72.186 135.803 71.288C133.705 68.743 130.625 67.659 127.495 66.897C123.279 65.87 118.905 65.604 114.671 64.687C114.136 64.571 113.639 64.694 113.212 64.968Z" fill="black" stroke="#FDFDFD" stroke-miterlimit="10" stroke-linejoin="round"/>
<path d="M126.718 58.624C126.198 58.751 125.692 59.074 125.392 59.569C123.237 63.147 121.094 66.765 119.598 70.679C118.508 73.53 117.735 76.494 118.247 79.549C118.43 80.629 119.485 81.364 120.565 81.181C121.645 80.998 122.343 79.96 122.159 78.88C121.76 76.565 122.509 74.255 123.373 72.121C124.855 68.462 126.958 65.087 129.005 61.726C129.604 60.736 129.266 59.441 128.277 58.841C127.782 58.542 127.239 58.496 126.718 58.624Z" fill="black" stroke="#FDFDFD" stroke-miterlimit="10" stroke-linejoin="round"/>
</g>
<defs>
<clipPath id="clip0_341_2245">
<rect width="372" height="372" fill="white"/>
</clipPath>
</defs>
</svg>
