<svg width="390" height="148" viewBox="0 0 390 148" fill="none" xmlns="http://www.w3.org/2000/svg">
<path d="M136.868 116.869C136.127 122.676 135.278 128.171 134.433 132" stroke="#AF52DE" stroke-width="6" stroke-miterlimit="10" stroke-linecap="square" stroke-linejoin="round"/>
<path d="M138.088 16L127.223 29.0745L118.295 28.305C118.295 28.305 121.193 34.6173 122.062 40.2113C122.93 45.8056 123.013 50.7054 123.013 50.7054L123.058 50.814C123.058 50.814 119.882 47.0848 116.838 42.3119C113.793 37.5393 111.794 30.8854 111.794 30.8854L105.601 37.3683L88.8052 34.7334L89.7468 51.4749L79.0898 57.1793C79.0898 57.1793 86.395 60.0738 91.4761 63.7709C96.5576 67.468 100.386 72.1099 100.386 72.1099L99.4622 72.8705L79.0898 75.0707C79.0898 75.0707 100.673 106.874 115.968 109.36C121.981 110.337 127.582 111.194 133.099 111.741C133.462 108.624 133.735 105.739 134.005 102.822L113.216 89.7478C111.861 88.896 111.459 87.1094 112.31 85.7549C113.162 84.4004 114.949 83.9886 116.303 84.8405L134.566 96.3214C134.721 94.0232 134.832 91.9458 134.838 90.4904C134.847 87.8509 134.839 85.0065 134.81 81.9883C134.8 80.9351 134.761 79.7442 134.747 78.6653L116.756 67.4651C115.398 66.6193 114.987 64.8305 115.833 63.4722C116.308 62.7078 117.087 62.2428 117.915 62.1321C118.191 62.095 118.469 62.0971 118.748 62.1411C119.12 62.1999 119.486 62.337 119.825 62.5485L134.629 71.7567C134.584 69.4336 134.562 67.2414 134.502 64.8664C134.428 61.878 134.16 53.2762 134.159 53.2406C134.073 50.8418 135.943 48.8261 138.342 48.7406C140.74 48.6552 142.756 50.5341 142.842 52.9329C142.843 52.9726 142.847 53.0398 142.851 53.1502C142.857 53.333 143.11 61.6419 143.186 64.6491C143.26 67.5897 143.286 70.3294 143.34 73.1874L157.528 63.0283C158.829 62.0968 160.634 62.3975 161.566 63.6984C162.498 64.9994 162.206 66.805 160.905 67.7366L143.475 80.2226C143.482 80.7635 143.497 81.3726 143.503 81.9069C143.532 84.961 143.539 87.8468 143.53 90.5266C143.524 92.0993 143.41 94.3002 143.249 96.7198L162.055 84.777C162.393 84.5626 162.761 84.4317 163.133 84.3697C163.411 84.323 163.689 84.3172 163.966 84.3514C164.794 84.4545 165.574 84.9135 166.057 85.6735C166.915 87.0243 166.511 88.8177 165.161 89.6754L142.624 103.99C142.368 106.73 142.117 109.394 141.782 112.293C147.396 112.441 153.09 112.156 159.212 111.161C174.507 108.676 196.09 76.8726 196.09 76.8726L175.718 74.6723L175.827 74.1201C175.827 74.1201 179.913 69.6833 185.189 66.2699C190.465 62.8565 197.91 60.3664 197.91 60.3664L187.579 54.0918L189.435 37.4225L172.522 39.134L166.691 32.3251C166.691 32.3251 164.342 38.8631 161.041 43.4619C157.74 48.0609 154.359 51.6108 154.359 51.6108L154.096 51.7105C154.096 51.7105 153.902 45.692 155.273 39.5594C156.644 33.427 160.217 26.4307 160.217 26.4307L148.455 29.1922L138.088 16Z" fill="#AF52DE"/>
<path d="M219.052 70.384C214.06 70.384 211.02 66.8 211.02 62C211.02 57.2 214.06 53.616 219.052 53.616C224.044 53.616 227.084 57.2 227.084 62C227.084 66.8 224.044 70.384 219.052 70.384ZM219.052 65.744C221.004 65.744 222.604 64.72 222.604 62C222.604 59.28 221.004 58.256 219.052 58.256C217.1 58.256 215.5 59.28 215.5 62C215.5 64.72 217.1 65.744 219.052 65.744ZM239.002 68.72V67.6C237.786 69.488 235.77 70.384 233.978 70.384C230.874 70.384 228.57 68.368 228.57 63.728V55.28C228.57 54.416 228.986 54 229.85 54H231.77C232.634 54 233.05 54.416 233.05 55.28V62.288C233.05 64.624 233.978 65.744 235.514 65.744C237.626 65.744 239.002 64.432 239.002 61.488V54C239.002 53.136 239.418 52.72 240.282 52.72H242.202C243.066 52.72 243.482 53.136 243.482 54V68.72C243.482 69.584 243.066 70 242.202 70H240.282C239.418 70 239.002 69.584 239.002 68.72ZM258.628 68.976C257.156 70.096 255.044 70.704 253.124 70.704C249.636 70.704 247.62 68.528 247.62 64.208V60.048L245.764 59.952C245.06 59.92 244.868 59.568 244.868 58.96V56.4C244.868 55.792 245.316 55.28 245.956 55.312L247.62 55.408V51.76C247.62 51.12 247.94 50.8 248.58 50.8H251.14C251.78 50.8 252.1 51.12 252.1 51.76V55.664L256.708 55.952C257.412 55.984 257.604 56.336 257.604 56.944V59.504C257.604 60.112 257.156 60.624 256.516 60.592L252.1 60.336V63.408C252.1 65.456 252.932 66.128 254.276 66.128C255.108 66.128 256.036 65.648 256.74 65.2C257.22 64.912 257.668 65.168 257.924 65.776L258.756 67.632C259.012 68.176 259.172 68.592 258.628 68.976ZM267.602 70.384C262.61 70.384 259.57 66.8 259.57 62C259.57 57.2 262.61 53.616 267.602 53.616C272.594 53.616 275.634 57.2 275.634 62C275.634 66.8 272.594 70.384 267.602 70.384ZM267.602 65.744C269.554 65.744 271.154 64.72 271.154 62C271.154 59.28 269.554 58.256 267.602 58.256C265.65 58.256 264.05 59.28 264.05 62C264.05 64.72 265.65 65.744 267.602 65.744ZM281.824 69.36C281.824 70.224 281.408 70.64 280.544 70.64H278.624C277.76 70.64 277.344 70.224 277.344 69.36V54C277.344 53.136 277.76 52.72 278.624 52.72H280.544C281.408 52.72 281.824 53.136 281.824 54V56.4C283.04 54.512 285.056 53.616 286.848 53.616C289.952 53.616 292.256 55.632 292.256 60.272V68.72C292.256 69.584 291.84 70 290.976 70H289.056C288.192 70 287.776 69.584 287.776 68.72V61.712C287.776 59.376 286.848 58.256 285.312 58.256C283.2 58.256 281.824 59.568 281.824 62.512V69.36ZM301.77 70.384C296.778 70.384 293.738 66.8 293.738 62C293.738 57.2 296.778 53.616 301.77 53.616C306.762 53.616 309.802 57.2 309.802 62C309.802 66.8 306.762 70.384 301.77 70.384ZM301.77 65.744C303.722 65.744 305.322 64.72 305.322 62C305.322 59.28 303.722 58.256 301.77 58.256C299.818 58.256 298.218 59.28 298.218 62C298.218 64.72 299.818 65.744 301.77 65.744Z" fill="black"/>
<path d="M214.76 105.76C214.76 106.4 214.44 106.72 213.8 106.72H213.16C212.52 106.72 212.2 106.4 212.2 105.76V84.96C212.2 84.32 212.52 84 213.16 84H213.8C214.44 84 214.76 84.32 214.76 84.96V86.592C215.976 85.056 217.768 84.32 219.56 84.32C223.144 84.32 225.992 87.52 225.992 92.48C225.992 97.28 223.016 100.32 219.24 100.32C217.832 100.32 216.232 99.904 214.76 99.232V105.76ZM219.24 97.6C221.64 97.6 223.432 95.936 223.432 92.48C223.432 88.992 221.352 87.04 219.048 87.04C216.808 87.04 214.76 88.992 214.76 91.552V96.224C216.136 97.152 217.704 97.6 219.24 97.6ZM239.195 99.04V97.728C237.915 99.328 235.995 100.32 234.011 100.32C230.971 100.32 228.763 98.528 228.763 94.368V85.28C228.763 84.64 229.083 84.32 229.723 84.32H230.363C231.003 84.32 231.323 84.64 231.323 85.28V93.248C231.323 96.192 232.699 97.6 234.907 97.6C237.147 97.6 239.195 95.648 239.195 93.088V84.32C239.195 83.68 239.515 83.36 240.155 83.36H240.795C241.435 83.36 241.755 83.68 241.755 84.32V99.04C241.755 99.68 241.435 100 240.795 100H240.155C239.515 100 239.195 99.68 239.195 99.04ZM248.085 99.36C248.085 100 247.765 100.32 247.125 100.32H246.485C245.845 100.32 245.525 100 245.525 99.36V84C245.525 83.36 245.845 83.04 246.485 83.04H247.125C247.765 83.04 248.085 83.36 248.085 84V86.048C249.077 84.768 250.517 84 252.245 84C252.981 84 253.749 84.192 254.165 84.416C254.389 84.544 254.421 84.672 254.389 84.96L254.069 86.944C254.005 87.328 253.781 87.36 253.461 87.296C252.565 87.136 251.989 87.04 251.509 87.04C249.557 87.04 248.085 88.672 248.085 90.912V99.36ZM263.03 100.32C258.454 100.32 255.638 96.896 255.638 92.32C255.638 87.552 258.454 84 263.03 84C267.606 84 270.39 87.552 270.39 92.32C270.39 96.896 267.606 100.32 263.03 100.32ZM263.03 97.6C265.974 97.6 267.83 95.872 267.83 92.32C267.83 88.576 265.974 86.72 263.03 86.72C260.086 86.72 258.198 88.544 258.198 92.32C258.198 95.872 260.086 97.6 263.03 97.6Z" fill="black"/>
</svg>
