<svg width="390" height="148" viewBox="0 0 390 148" fill="none" xmlns="http://www.w3.org/2000/svg">
<path d="M109.109 115.527C109.109 115.527 124.541 100.102 119.631 86.5309C114.722 72.9594 92.4994 74.0192 92.4994 74.0192V73.9806C92.4994 73.9806 114.722 75.0404 119.631 61.4692C124.541 47.8977 109.109 32.4728 109.109 32.4728L108.973 32.61C108.973 32.61 124.398 48.0417 137.968 43.1323C151.54 38.2226 150.481 16 150.481 16H150.519C150.519 16 149.46 38.2226 163.029 43.1323C176.602 48.0417 192.027 32.61 192.027 32.61L191.889 32.4728C191.889 32.4728 176.459 47.8977 181.366 61.4692C186.276 75.0404 208.501 73.9806 208.501 73.9806V74.0192C208.501 74.0192 186.276 72.9594 181.366 86.5309C176.459 100.102 191.889 115.527 191.889 115.527L192.027 115.39C192.027 115.39 176.602 99.9584 163.029 104.868C149.46 109.777 150.519 132 150.519 132H150.481C150.481 132 151.54 109.777 137.968 104.868C124.398 99.9584 108.973 115.39 108.973 115.39" stroke="#FF5900" stroke-width="5" stroke-miterlimit="10" stroke-linejoin="round"/>
<path d="M127.125 74.096C127.125 61.3307 137.475 50.9822 150.241 50.9822C163.004 50.9822 173.354 61.3307 173.354 74.096C173.354 86.8616 163.004 97.2101 150.241 97.2101C137.475 97.2101 127.125 86.8616 127.125 74.096Z" stroke="#FF5900" stroke-width="5" stroke-miterlimit="10" stroke-linejoin="round"/>
<path d="M230.648 70H228.216C227.416 70 227.256 69.84 226.744 68.784L220.856 56.592C220.344 55.504 220.6 55.312 221.72 54.832L223.224 54.192C224.28 53.744 224.568 54.16 225.144 55.44L228.952 63.728L231.928 54.32C232.344 53.04 232.76 52.752 233.816 53.072L235.64 53.616C236.76 53.936 236.856 54.288 236.504 55.376L232.12 68.784C231.768 69.84 231.448 70 230.648 70ZM245.41 70.384C240.322 70.384 237.026 66.96 237.026 62C237.026 57.424 239.746 53.616 245.058 53.616C249.186 53.616 251.97 56.4 251.97 60.848C251.97 62.128 251.842 62.672 250.722 62.8L241.794 63.824C242.434 65.232 243.842 66.224 246.018 66.224C247.234 66.224 248.61 65.488 249.698 64.88C250.178 64.592 250.658 64.848 250.882 65.456L251.522 67.12C251.746 67.728 251.906 68.048 251.394 68.464C249.826 69.712 247.458 70.384 245.41 70.384ZM244.738 57.776C243.074 57.776 241.986 58.512 241.602 60.368L247.362 59.696C247.074 58.544 246.114 57.776 244.738 57.776ZM257.999 68.72C257.999 69.584 257.583 70 256.719 70H254.799C253.935 70 253.519 69.584 253.519 68.72V53.68C253.519 52.816 253.935 52.4 254.799 52.4H256.719C257.583 52.4 257.999 52.816 257.999 53.68V56.336C259.055 54.608 260.687 53.616 262.191 53.616C262.895 53.616 263.631 53.776 264.047 54.032C264.303 54.192 264.367 54.416 264.335 54.64L264.015 58.32C263.983 58.8 263.695 58.96 263.151 58.832C262.255 58.64 261.647 58.576 261.103 58.576C259.343 58.576 257.999 59.92 257.999 62.512V68.72ZM274.225 51.824C273.009 51.824 271.953 51.248 270.737 51.248C270.065 51.248 269.233 51.472 268.625 51.696C267.857 51.984 267.377 51.76 267.377 50.928V49.36C267.377 48.72 267.569 48.272 268.337 47.984C269.105 47.696 269.809 47.568 270.513 47.568C271.857 47.568 272.849 48.144 274.001 48.144C274.673 48.144 275.505 47.92 276.113 47.696C276.881 47.408 277.361 47.632 277.361 48.464V50.032C277.361 50.672 277.169 51.12 276.401 51.408C275.633 51.696 274.929 51.824 274.225 51.824ZM278.353 70.96H275.793C275.153 70.96 274.833 70.64 274.833 70V68.624C273.841 69.584 272.337 70.224 270.929 70.352C270.737 70.384 270.545 70.384 270.385 70.384C267.089 70.384 264.817 68.112 264.817 65.104C264.817 62.32 266.577 59.888 271.025 59.888C272.241 59.888 273.617 60.208 274.833 60.72C274.801 60.496 274.769 60.304 274.737 60.112C274.385 58.576 273.233 57.776 271.505 57.776C270.321 57.776 268.977 58.224 267.729 58.992C267.249 59.28 266.865 59.024 266.545 58.416L266.097 57.488L265.617 56.56C265.521 56.368 265.457 56.208 265.393 56.048C265.329 55.728 265.393 55.472 265.745 55.216C267.249 54.032 269.585 53.296 272.017 53.296C276.497 53.296 279.313 56.08 279.313 60.624V70C279.313 70.224 279.281 70.384 279.217 70.544C279.057 70.832 278.769 70.96 278.353 70.96ZM271.505 66.384C272.817 66.384 274.289 65.872 274.705 64.912C274.801 64.72 274.833 64.528 274.833 64.336V64.208C273.745 63.792 272.529 63.568 271.505 63.568C270.033 63.568 269.297 64.048 269.297 64.976C269.297 65.872 270.321 66.384 271.505 66.384ZM288.795 70.384C283.803 70.384 280.763 66.8 280.763 62C280.763 57.2 283.803 53.616 288.795 53.616C293.787 53.616 296.827 57.2 296.827 62C296.827 66.8 293.787 70.384 288.795 70.384ZM288.795 65.744C290.747 65.744 292.347 64.72 292.347 62C292.347 59.28 290.747 58.256 288.795 58.256C286.843 58.256 285.243 59.28 285.243 62C285.243 64.72 286.843 65.744 288.795 65.744Z" fill="white"/>
<path d="M222.242 88.544C222.242 85.92 224.002 84 227.714 84C229.09 84 231.202 84.48 232.194 85.12C232.45 85.28 232.546 85.536 232.418 85.824L231.714 87.264C231.586 87.52 231.33 87.616 231.074 87.52C229.922 87.04 228.61 86.72 227.522 86.72C225.73 86.72 224.802 87.392 224.802 88.544C224.802 91.616 233.09 90.528 233.09 95.936C233.09 98.624 230.946 100.32 227.298 100.32C225.73 100.32 223.426 99.68 222.178 98.88C221.922 98.72 221.826 98.464 221.954 98.176L222.658 96.736C222.786 96.448 223.01 96.384 223.266 96.512C224.738 97.248 226.242 97.6 227.49 97.6C229.506 97.6 230.53 96.992 230.53 95.936C230.53 92.864 222.242 93.952 222.242 88.544ZM246.188 99.04V97.728C244.908 99.328 242.988 100.32 241.004 100.32C237.964 100.32 235.756 98.528 235.756 94.368V85.28C235.756 84.64 236.076 84.32 236.716 84.32H237.356C237.996 84.32 238.316 84.64 238.316 85.28V93.248C238.316 96.192 239.692 97.6 241.9 97.6C244.14 97.6 246.188 95.648 246.188 93.088V84.32C246.188 83.68 246.508 83.36 247.148 83.36H247.788C248.428 83.36 248.748 83.68 248.748 84.32V99.04C248.748 99.68 248.428 100 247.788 100H247.148C246.508 100 246.188 99.68 246.188 99.04ZM263.59 100.64H262.31C261.894 100.64 261.67 100.416 261.67 100V98.656C260.614 99.68 258.982 100.32 257.222 100.32C256.998 100.32 256.774 100.32 256.582 100.288C253.638 100.032 251.654 97.888 251.654 95.104C251.654 92.48 253.222 90.208 257.222 90.208C258.662 90.208 260.294 90.464 261.67 91.04V90.752C261.67 87.872 260.07 86.4 257.382 86.4C256.134 86.4 254.694 86.848 253.446 87.616C253.19 87.776 252.966 87.68 252.838 87.424L252.358 86.464C252.294 86.304 252.198 86.144 252.134 85.984C252.006 85.696 252.102 85.44 252.326 85.28C253.638 84.384 255.654 83.68 257.894 83.68C261.798 83.68 264.23 86.016 264.23 90.624V100C264.23 100.416 264.006 100.64 263.59 100.64ZM257.382 97.6C259.686 97.6 261.67 96.32 261.67 94.912V93.568C260.326 93.056 258.694 92.768 257.382 92.768C255.27 92.768 254.214 93.632 254.214 94.976C254.214 96.64 255.686 97.6 257.382 97.6ZM274.919 100H273.095C272.775 99.968 272.647 99.84 272.487 99.552L266.087 85.664C265.991 85.44 266.055 85.184 266.311 85.056L267.751 84.384C267.975 84.288 268.263 84.352 268.391 84.608L273.767 96.384L277.671 84C277.767 83.744 278.023 83.648 278.279 83.712L279.943 84.224C280.199 84.288 280.327 84.576 280.231 84.832L275.559 99.552C275.463 99.84 275.239 100 274.919 100ZM289.482 100.32C284.618 100.32 281.45 97.088 281.45 92.32C281.45 87.968 284.074 84 288.682 84C292.17 84 295.114 86.592 295.114 91.456C295.114 92.096 295.018 92.32 294.442 92.384L284.138 93.568C284.586 95.872 286.41 97.568 289.482 97.568C291.05 97.568 292.746 97.12 293.706 96.608C293.994 96.48 294.186 96.576 294.282 96.832L294.826 98.24C294.954 98.56 294.922 98.784 294.634 98.976C293.61 99.712 291.402 100.32 289.482 100.32ZM288.522 86.72C286.186 86.72 284.522 88.288 284.106 91.008L292.33 90.048C292.074 88.096 290.538 86.72 288.522 86.72Z" fill="white"/>
</svg>
