<svg width="264" height="116" viewBox="0 0 264 116" fill="none" xmlns="http://www.w3.org/2000/svg">
<path d="M64.8475 33.8911C57.1559 33.8911 50.92 40.127 50.92 47.8186C50.92 50.2722 51.5592 52.5684 52.6731 54.5707C52.1446 55.1881 51.6135 55.8083 51.0981 56.4572C46.0585 62.8028 42.3206 69.8676 40.4541 77.5898C38.4835 85.7413 39.082 93.6156 41.8504 100.773C44.2031 106.855 48.0579 112.177 52.5765 116L57.1816 110.555C53.5603 107.492 50.4135 103.146 48.4984 98.195C46.2454 92.3702 45.7609 85.9763 47.3842 79.2611C48.9866 72.6325 52.2478 66.4775 56.684 60.8917C57.0027 60.4907 57.3328 60.1133 57.6572 59.7255C59.7579 60.9963 62.2132 61.746 64.8475 61.746C72.5388 61.746 78.775 55.5099 78.775 47.8186C78.775 40.127 72.5388 33.8911 64.8475 33.8911Z" fill="#FF5900"/>
<path d="M62.4702 66.2693C59.0361 71.1057 62.3919 101.556 80.1393 94.2918C100.854 85.8132 95.1178 73.9321 83.1595 65.8846C71.2011 57.8371 104.051 85.5402 109.89 67.2743C116.706 45.9545 86.3166 46.3392 86.3166 46.3392C86.3166 46.3392 118.146 44.3678 110.085 26.968C100.676 6.65892 86.2722 17.2752 78.7753 29.586C71.278 41.897 95.8338 3.08446 76.8473 0.392833C47.3088 -3.79467 59.0361 26.8768 59.0361 26.8768C59.0361 26.8768 52.0142 -5.23552 37.1955 6.93596C19.8992 21.1426 30.3911 33.0126 44.19 37.1787C57.9891 41.3448 17.8285 21.6934 15.1545 40.6825C12.0337 62.8467 29.8929 61.7485 42.8717 55.4781C55.8505 49.2076 32.2208 45.7421 32.2208 45.7421C32.2208 45.7421 46.144 44.0485 49.3111 39.3719C52.4784 34.6951 45.8676 22.5621 45.8676 22.5621C45.8676 22.5621 57.009 32.7594 62.2458 31.263C67.4827 29.7663 69.7291 16.6532 69.7291 16.6532C69.7291 16.6532 69.5993 30.2311 74.0895 33.5063C78.5798 36.7814 93.9176 32.5304 93.9176 32.5304C93.9176 32.5304 81.6885 40.0117 81.7337 45.2502C81.7523 47.3831 82.3668 51.6281 85.2924 54.1443C89.5517 57.8082 96.6282 59.4769 96.6282 59.4769C96.6282 59.4769 89.0474 57.4858 83.9764 57.6016C78.9053 57.717 76.3445 59.9397 76.3445 59.9397C76.3445 59.9397 75.0188 64.0652 74.9639 68.8504C74.9087 73.6357 76.1241 79.0803 76.1241 79.0803C76.1241 79.0803 73.5967 74.4823 70.3116 70.8413C67.2383 67.435 63.4283 64.9199 62.4702 66.2693Z" fill="#FF5900"/>
<path d="M2.16168 62.1348C2.16168 62.1348 -3.57753 76.4353 6.99412 89.4949C18.2256 103.37 29.4539 96.2244 33.3271 93.023C32.09 90.263 29.4056 85.2511 24.9483 82.5991C18.6553 78.8549 11.8177 77.4271 11.8177 77.4271C11.8177 77.4271 21.4979 78.068 26.5027 81.3751C31.5429 84.7063 34.0957 87.298 35.3725 88.7892C35.8845 84.5188 35.6226 76.5224 27.4048 72.148C15.8772 66.0119 9.36935 70.669 2.16168 62.1348Z" fill="#FF5900"/>
<path d="M129.804 59.44C129.804 60.304 129.388 60.72 128.524 60.72H126.604C125.74 60.72 125.324 60.304 125.324 59.44V38.64C125.324 37.776 125.74 37.36 126.604 37.36H128.524C129.388 37.36 129.804 37.776 129.804 38.64V39.824C130.924 38.64 132.524 38 134.284 38C137.996 38 141.036 41.232 141.036 46.192C141.036 51.216 137.516 54.384 133.004 54.384C131.916 54.384 130.86 54.256 129.804 54V59.44ZM133.004 49.776C135.052 49.776 136.556 48.592 136.556 46.192C136.556 44.112 135.308 42.64 133.356 42.64C131.116 42.64 129.804 44.176 129.804 46.896V49.296C130.764 49.616 131.788 49.776 133.004 49.776ZM147.217 52.72C147.217 53.584 146.801 54 145.937 54H144.017C143.153 54 142.737 53.584 142.737 52.72V37.68C142.737 36.816 143.153 36.4 144.017 36.4H145.937C146.801 36.4 147.217 36.816 147.217 37.68V40.336C148.273 38.608 149.905 37.616 151.409 37.616C152.113 37.616 152.849 37.776 153.265 38.032C153.521 38.192 153.585 38.416 153.553 38.64L153.233 42.32C153.201 42.8 152.913 42.96 152.369 42.832C151.473 42.64 150.865 42.576 150.321 42.576C148.561 42.576 147.217 43.92 147.217 46.512V52.72ZM157.139 36.432C155.667 36.432 154.419 35.184 154.419 33.68C154.419 32.208 155.667 30.96 157.139 30.96C158.611 30.96 159.859 32.208 159.859 33.68C159.859 35.184 158.611 36.432 157.139 36.432ZM159.379 52.72C159.379 53.584 158.963 54 158.099 54H156.179C155.315 54 154.899 53.584 154.899 52.72V39.92C154.899 39.056 155.315 38.64 156.179 38.64H158.099C158.963 38.64 159.379 39.056 159.379 39.92V52.72ZM176.306 53.36C176.306 54.224 175.89 54.64 175.026 54.64H173.106C172.242 54.64 171.826 54.224 171.826 53.36V45.712C171.826 43.344 170.898 42.224 169.362 42.224C167.25 42.224 166.354 43.536 166.354 46.512V52.72C166.354 53.584 165.938 54 165.074 54H163.154C162.29 54 161.874 53.584 161.874 52.72V38C161.874 37.136 162.29 36.72 163.154 36.72H165.074C165.938 36.72 166.354 37.136 166.354 38V40.24C167.442 38.48 169.17 37.616 170.898 37.616C173.106 37.616 174.93 38.64 175.794 40.944C176.914 38.928 178.834 38 180.85 38C183.954 38 186.258 40.016 186.258 44.656V52.72C186.258 53.584 185.842 54 184.978 54H183.058C182.194 54 181.778 53.584 181.778 52.72V46.096C181.778 43.728 180.85 42.608 179.314 42.608C177.202 42.608 176.306 43.92 176.306 46.896V53.36ZM201.177 54.96H198.617C197.977 54.96 197.657 54.64 197.657 54V52.624C196.665 53.584 195.161 54.224 193.753 54.352C193.561 54.384 193.369 54.384 193.209 54.384C189.913 54.384 187.641 52.112 187.641 49.104C187.641 46.32 189.401 43.888 193.849 43.888C195.065 43.888 196.441 44.208 197.657 44.72C197.625 44.496 197.593 44.304 197.561 44.112C197.209 42.576 196.057 41.776 194.329 41.776C193.145 41.776 191.801 42.224 190.553 42.992C190.073 43.28 189.689 43.024 189.369 42.416L188.921 41.488L188.441 40.56C188.345 40.368 188.281 40.208 188.217 40.048C188.153 39.728 188.217 39.472 188.569 39.216C190.073 38.032 192.409 37.296 194.841 37.296C199.321 37.296 202.137 40.08 202.137 44.624V54C202.137 54.224 202.105 54.384 202.041 54.544C201.881 54.832 201.593 54.96 201.177 54.96ZM194.329 50.384C195.641 50.384 197.113 49.872 197.529 48.912C197.625 48.72 197.657 48.528 197.657 48.336V48.208C196.569 47.792 195.353 47.568 194.329 47.568C192.857 47.568 192.121 48.048 192.121 48.976C192.121 49.872 193.145 50.384 194.329 50.384ZM213.059 54H210.627C209.827 54 209.667 53.84 209.155 52.784L203.267 40.592C202.755 39.504 203.011 39.312 204.131 38.832L205.635 38.192C206.691 37.744 206.979 38.16 207.555 39.44L211.363 47.728L214.339 38.32C214.755 37.04 215.171 36.752 216.227 37.072L218.051 37.616C219.171 37.936 219.267 38.288 218.915 39.376L214.531 52.784C214.179 53.84 213.859 54 213.059 54ZM227.821 54.384C222.733 54.384 219.437 50.96 219.437 46C219.437 41.424 222.157 37.616 227.469 37.616C231.597 37.616 234.381 40.4 234.381 44.848C234.381 46.128 234.253 46.672 233.133 46.8L224.205 47.824C224.845 49.232 226.253 50.224 228.429 50.224C229.645 50.224 231.021 49.488 232.109 48.88C232.589 48.592 233.069 48.848 233.293 49.456L233.933 51.12C234.157 51.728 234.317 52.048 233.805 52.464C232.237 53.712 229.869 54.384 227.821 54.384ZM227.149 41.776C225.485 41.776 224.397 42.512 224.013 44.368L229.773 43.696C229.485 42.544 228.525 41.776 227.149 41.776ZM240.41 52.72C240.41 53.584 239.994 54 239.13 54H237.21C236.346 54 235.93 53.584 235.93 52.72V37.68C235.93 36.816 236.346 36.4 237.21 36.4H239.13C239.994 36.4 240.41 36.816 240.41 37.68V40.336C241.466 38.608 243.098 37.616 244.602 37.616C245.306 37.616 246.042 37.776 246.458 38.032C246.714 38.192 246.778 38.416 246.746 38.64L246.426 42.32C246.394 42.8 246.106 42.96 245.562 42.832C244.666 42.64 244.058 42.576 243.514 42.576C241.754 42.576 240.41 43.92 240.41 46.512V52.72ZM260.765 54.96H258.205C257.565 54.96 257.245 54.64 257.245 54V52.624C256.253 53.584 254.749 54.224 253.341 54.352C253.149 54.384 252.957 54.384 252.797 54.384C249.501 54.384 247.229 52.112 247.229 49.104C247.229 46.32 248.989 43.888 253.437 43.888C254.653 43.888 256.029 44.208 257.245 44.72C257.213 44.496 257.181 44.304 257.149 44.112C256.797 42.576 255.645 41.776 253.917 41.776C252.733 41.776 251.389 42.224 250.141 42.992C249.661 43.28 249.277 43.024 248.957 42.416L248.509 41.488L248.029 40.56C247.933 40.368 247.869 40.208 247.805 40.048C247.741 39.728 247.805 39.472 248.157 39.216C249.661 38.032 251.997 37.296 254.429 37.296C258.909 37.296 261.725 40.08 261.725 44.624V54C261.725 54.224 261.693 54.384 261.629 54.544C261.469 54.832 261.181 54.96 260.765 54.96ZM253.917 50.384C255.229 50.384 256.701 49.872 257.117 48.912C257.213 48.72 257.245 48.528 257.245 48.336V48.208C256.157 47.792 254.941 47.568 253.917 47.568C252.445 47.568 251.709 48.048 251.709 48.976C251.709 49.872 252.733 50.384 253.917 50.384Z" fill="black"/>
<path d="M128.305 89.76C128.305 90.4 127.985 90.72 127.345 90.72H126.705C126.065 90.72 125.745 90.4 125.745 89.76V68.96C125.745 68.32 126.065 68 126.705 68H127.345C127.985 68 128.305 68.32 128.305 68.96V70.592C129.521 69.056 131.313 68.32 133.105 68.32C136.689 68.32 139.537 71.52 139.537 76.48C139.537 81.28 136.561 84.32 132.785 84.32C131.377 84.32 129.777 83.904 128.305 83.232V89.76ZM132.785 81.6C135.185 81.6 136.977 79.936 136.977 76.48C136.977 72.992 134.897 71.04 132.593 71.04C130.353 71.04 128.305 72.992 128.305 75.552V80.224C129.681 81.152 131.249 81.6 132.785 81.6ZM152.741 83.04V81.728C151.461 83.328 149.541 84.32 147.557 84.32C144.517 84.32 142.309 82.528 142.309 78.368V69.28C142.309 68.64 142.629 68.32 143.269 68.32H143.909C144.549 68.32 144.869 68.64 144.869 69.28V77.248C144.869 80.192 146.245 81.6 148.453 81.6C150.693 81.6 152.741 79.648 152.741 77.088V68.32C152.741 67.68 153.061 67.36 153.701 67.36H154.341C154.981 67.36 155.301 67.68 155.301 68.32V83.04C155.301 83.68 154.981 84 154.341 84H153.701C153.061 84 152.741 83.68 152.741 83.04ZM161.63 83.36C161.63 84 161.31 84.32 160.67 84.32H160.03C159.39 84.32 159.07 84 159.07 83.36V68C159.07 67.36 159.39 67.04 160.03 67.04H160.67C161.31 67.04 161.63 67.36 161.63 68V70.048C162.622 68.768 164.062 68 165.79 68C166.526 68 167.294 68.192 167.71 68.416C167.934 68.544 167.966 68.672 167.934 68.96L167.614 70.944C167.55 71.328 167.326 71.36 167.006 71.296C166.11 71.136 165.534 71.04 165.054 71.04C163.102 71.04 161.63 72.672 161.63 74.912V83.36ZM181.649 84.64H180.369C179.953 84.64 179.729 84.416 179.729 84V82.656C178.673 83.68 177.041 84.32 175.281 84.32C175.057 84.32 174.833 84.32 174.641 84.288C171.697 84.032 169.713 81.888 169.713 79.104C169.713 76.48 171.281 74.208 175.281 74.208C176.721 74.208 178.353 74.464 179.729 75.04V74.752C179.729 71.872 178.129 70.4 175.441 70.4C174.193 70.4 172.753 70.848 171.505 71.616C171.249 71.776 171.025 71.68 170.897 71.424L170.417 70.464C170.353 70.304 170.257 70.144 170.193 69.984C170.065 69.696 170.161 69.44 170.385 69.28C171.697 68.384 173.713 67.68 175.953 67.68C179.857 67.68 182.289 70.016 182.289 74.624V84C182.289 84.416 182.065 84.64 181.649 84.64ZM175.441 81.6C177.745 81.6 179.729 80.32 179.729 78.912V77.568C178.385 77.056 176.753 76.768 175.441 76.768C173.329 76.768 172.273 77.632 172.273 78.976C172.273 80.64 173.745 81.6 175.441 81.6Z" fill="black"/>
</svg>
