<svg width="240" height="116" viewBox="0 0 240 116" fill="none" xmlns="http://www.w3.org/2000/svg">
<path d="M42.9028 3.95071C42.2897 4.01705 41.701 4.3209 41.2836 4.83933C40.4494 5.87616 40.6159 7.39366 41.6528 8.22804L47.4285 12.8745L47.4362 6.69181L44.6725 4.47033C44.1541 4.05312 43.516 3.88439 42.9028 3.95071ZM61.0965 3.95071C60.4832 3.88379 59.8453 4.05312 59.327 4.47033L57.0753 6.28519L57.0676 12.4752L62.3467 8.22804C63.3833 7.39366 63.5501 5.87616 62.7156 4.83933C62.2985 4.3209 61.7098 4.01765 61.0965 3.95071ZM38.6481 15.1638C38.035 15.23 37.4461 15.5262 37.0289 16.0448C36.1947 17.0815 36.3612 18.5991 37.3981 19.4334L47.3986 27.4835L47.4136 21.301L40.4178 15.6833C39.8992 15.2659 39.2614 15.0973 38.6481 15.1638ZM65.3437 15.1638C64.7304 15.0987 64.0925 15.2659 63.574 15.6833L57.0526 20.932L57.0377 27.1297L66.6013 19.4334C67.6383 18.5991 67.7973 17.0815 66.9628 16.0448C66.5457 15.5262 65.957 15.2286 65.3437 15.1638ZM92.7099 22.1745C91.3942 21.9692 90.1652 22.8702 89.9604 24.1852L88.8302 31.3993L94.1944 28.3269L94.7197 24.9233C94.9245 23.6083 94.0257 22.3798 92.7099 22.1745ZM11.1693 22.3025C9.855 22.5121 8.96411 23.7519 9.17352 25.0662L9.58776 27.6794L14.9721 30.8046L13.9328 24.3057C13.7234 22.9914 12.4836 22.0931 11.1693 22.3025ZM80.878 24.0874C79.5647 23.8821 78.3282 24.7831 78.1231 26.0978L76.1575 38.6814L81.5118 35.6015L82.8829 26.836C83.0877 25.5209 82.1937 24.2927 80.878 24.0874ZM23.0147 24.1777C21.7004 24.3871 20.8021 25.6195 21.0117 26.9338L22.3144 35.0819L27.6836 38.2069L25.771 26.1807C25.5614 24.8665 24.329 23.9681 23.0147 24.1777ZM5.42344 36.3996L1.89916 37.7852C0.660062 38.271 0.0503902 39.6638 0.536199 40.903C1.02177 42.142 2.41461 42.7592 3.65371 42.2736L10.7399 39.4947L5.42344 36.3996ZM99.2452 36.5353L93.8763 39.6229L100.293 42.1153C101.534 42.597 102.93 41.9779 103.409 40.7372C103.891 39.4966 103.272 38.1014 102.033 37.6196L99.2452 36.5353ZM47.3835 38.7267L37.9403 44.1711L42.7447 46.965L47.3683 44.2916L47.3835 38.7267ZM57.015 38.9525L57.0073 44.5176L61.4881 47.1081L66.3302 44.3294L57.015 38.9525ZM17.9995 43.7195L9.51257 47.0404C8.27347 47.5259 7.6638 48.9265 8.14937 50.1656C8.63518 51.4045 10.0355 52.0141 11.2746 51.5286L23.3085 46.8069L17.9995 43.7195ZM86.5506 43.8323L81.172 46.9199L92.7027 51.3929C93.9437 51.8746 95.339 51.263 95.8185 50.0225C96.3005 48.7817 95.6908 47.3864 94.4498 46.9047L86.5506 43.8323ZM33.7155 52.8614V63.0653L38.5351 60.3016V55.6628L33.7155 52.8614ZM70.2762 53.1778L65.4567 55.949V60.1811L70.2762 62.9824V53.1778ZM93.6666 64.3078C93.3533 64.2996 93.0353 64.3521 92.7244 64.4733L80.8418 69.1273L86.1578 72.2224L94.4859 68.9618C95.727 68.4759 96.3366 67.0756 95.8499 65.8365C95.486 64.9071 94.604 64.3326 93.6666 64.3078ZM10.3485 64.4435C9.40967 64.4712 8.53325 65.049 8.17202 65.9794C7.69031 67.2202 8.30962 68.6155 9.55017 69.0972L17.7058 72.26L23.075 69.1801L11.2972 64.609C10.9871 64.4885 10.6613 64.4341 10.3485 64.4435ZM59.9444 68.1183C58.7004 68.8374 58.184 69.1331 56.9697 69.8351L56.9623 75.4079C59.7692 73.7866 61.6654 72.6887 64.7412 70.912L59.9444 68.1183ZM44.1679 68.1861L39.3334 70.9573L47.3232 75.5734L47.3307 70.0158L44.1679 68.1861ZM101.286 73.5627C100.973 73.5545 100.655 73.6071 100.346 73.7285L93.4184 76.447L98.7343 79.5344L102.101 78.2167C103.339 77.7309 103.949 76.3306 103.462 75.0915C103.098 74.1623 102.226 73.5878 101.286 73.5627ZM2.76523 73.721C1.82639 73.7487 0.950195 74.3266 0.588971 75.257C0.107018 76.4978 0.71886 77.9005 1.95941 78.3822L5.00173 79.5647L10.3709 76.4771L3.70649 73.8866C3.39635 73.7661 3.07802 73.7116 2.76523 73.721ZM27.7967 77.5841L22.4349 80.6641L21.1096 89.1659C20.9042 90.481 21.8053 91.7094 23.1203 91.9148C24.435 92.1198 25.671 91.2188 25.8763 89.9041L27.7967 77.5841ZM76.2855 77.6292L78.2285 89.8212C78.4379 91.1354 79.6707 92.0338 80.984 91.8242C82.2998 91.6147 83.1962 90.3749 82.9889 89.0606L81.6636 80.7544L76.2855 77.6292ZM15.1302 84.8662L9.76849 87.9461L9.27907 91.0713C9.07375 92.3861 9.97476 93.6221 11.2898 93.8274C12.6048 94.0327 13.833 93.1317 14.0384 91.8167L15.1302 84.8662ZM89.0037 85.0243L90.0664 91.6962C90.2761 93.0105 91.5074 93.9088 92.8232 93.6994C94.1365 93.4898 95.0354 92.25 94.8257 90.9357L94.3823 88.157L89.0037 85.0243ZM47.3006 88.6013L37.3981 96.5685C36.3612 97.403 36.1947 98.9204 37.0289 99.9571C37.8635 100.994 39.3809 101.153 40.4178 100.319L47.2856 94.7988L47.3006 88.6013ZM56.9396 88.7895L56.9247 94.972L63.574 100.319C64.6109 101.153 66.1285 100.994 66.9628 99.9571C67.7973 98.9204 67.6383 97.4028 66.6013 96.5685L56.9396 88.7895ZM47.2704 103.248L41.6528 107.774C40.6159 108.608 40.4494 110.126 41.2836 111.163C42.1181 112.199 43.6358 112.366 44.6725 111.532L47.263 109.446L47.2704 103.248ZM56.9095 103.399L56.902 109.581L59.327 111.532C60.3637 112.366 61.8813 112.199 62.7156 111.163C63.5501 110.126 63.3833 108.608 62.3467 107.774L56.9095 103.399Z" fill="black"/>
<path d="M51.9993 0C50.6684 0 49.5895 1.07888 49.5895 2.40976V53.8433L4.94116 28.3072C4.65223 28.1419 4.34064 28.0434 4.03002 28.006C3.09745 27.8942 2.14583 28.3369 1.65038 29.2034C0.989384 30.3587 1.39108 31.8334 2.54632 32.4942L47.1571 58.0076L2.62923 83.6716C1.47616 84.3359 1.08361 85.8093 1.74822 86.9623C2.41259 88.1154 3.88592 88.508 5.039 87.8434L49.5895 62.1719V113.59C49.5895 114.921 50.6684 116 51.9993 116C53.3302 116 54.409 114.921 54.409 113.59V62.157L99.0572 87.6927C100.214 88.3535 101.689 87.952 102.349 86.7968C103.009 85.6416 102.607 84.1665 101.452 83.5058L56.8415 57.9924L101.371 32.3361C102.522 31.6715 102.915 30.1907 102.25 29.0376C101.751 28.1728 100.802 27.7405 99.8716 27.8554C99.5608 27.8937 99.2475 27.9904 98.9608 28.1566L54.409 53.8281V2.40976C54.409 1.07888 53.3302 0 51.9993 0Z" fill="black"/>
<path d="M119.588 36.432C118.116 36.432 116.868 35.184 116.868 33.68C116.868 32.208 118.116 30.96 119.588 30.96C121.06 30.96 122.308 32.208 122.308 33.68C122.308 35.184 121.06 36.432 119.588 36.432ZM121.828 52.72C121.828 53.584 121.412 54 120.548 54H118.628C117.764 54 117.348 53.584 117.348 52.72V39.92C117.348 39.056 117.764 38.64 118.628 38.64H120.548C121.412 38.64 121.828 39.056 121.828 39.92V52.72ZM128.803 53.36C128.803 54.224 128.387 54.64 127.523 54.64H125.603C124.739 54.64 124.323 54.224 124.323 53.36V38C124.323 37.136 124.739 36.72 125.603 36.72H127.523C128.387 36.72 128.803 37.136 128.803 38V40.4C130.019 38.512 132.035 37.616 133.827 37.616C136.931 37.616 139.235 39.632 139.235 44.272V52.72C139.235 53.584 138.819 54 137.955 54H136.035C135.171 54 134.755 53.584 134.755 52.72V45.712C134.755 43.376 133.827 42.256 132.291 42.256C130.179 42.256 128.803 43.568 128.803 46.512V53.36ZM150.19 54H147.758C146.958 54 146.798 53.84 146.286 52.784L140.398 40.592C139.886 39.504 140.142 39.312 141.262 38.832L142.766 38.192C143.822 37.744 144.11 38.16 144.686 39.44L148.494 47.728L151.47 38.32C151.886 37.04 152.302 36.752 153.358 37.072L155.182 37.616C156.302 37.936 156.398 38.288 156.046 39.376L151.662 52.784C151.31 53.84 150.99 54 150.19 54ZM164.952 54.384C159.864 54.384 156.568 50.96 156.568 46C156.568 41.424 159.288 37.616 164.6 37.616C168.728 37.616 171.512 40.4 171.512 44.848C171.512 46.128 171.384 46.672 170.264 46.8L161.336 47.824C161.976 49.232 163.384 50.224 165.56 50.224C166.776 50.224 168.152 49.488 169.24 48.88C169.72 48.592 170.2 48.848 170.424 49.456L171.064 51.12C171.288 51.728 171.448 52.048 170.936 52.464C169.368 53.712 167 54.384 164.952 54.384ZM164.28 41.776C162.616 41.776 161.528 42.512 161.144 44.368L166.904 43.696C166.616 42.544 165.656 41.776 164.28 41.776ZM177.541 52.72C177.541 53.584 177.125 54 176.261 54H174.341C173.477 54 173.061 53.584 173.061 52.72V37.68C173.061 36.816 173.477 36.4 174.341 36.4H176.261C177.125 36.4 177.541 36.816 177.541 37.68V40.336C178.597 38.608 180.229 37.616 181.733 37.616C182.437 37.616 183.173 37.776 183.589 38.032C183.845 38.192 183.909 38.416 183.877 38.64L183.557 42.32C183.525 42.8 183.237 42.96 182.693 42.832C181.797 42.64 181.189 42.576 180.645 42.576C178.885 42.576 177.541 43.92 177.541 46.512V52.72ZM189.703 53.36C189.703 54.224 189.287 54.64 188.423 54.64H186.503C185.639 54.64 185.223 54.224 185.223 53.36V38C185.223 37.136 185.639 36.72 186.503 36.72H188.423C189.287 36.72 189.703 37.136 189.703 38V40.4C190.919 38.512 192.935 37.616 194.727 37.616C197.831 37.616 200.135 39.632 200.135 44.272V52.72C200.135 53.584 199.719 54 198.855 54H196.935C196.071 54 195.655 53.584 195.655 52.72V45.712C195.655 43.376 194.727 42.256 193.191 42.256C191.079 42.256 189.703 43.568 189.703 46.512V53.36ZM209.65 54.384C204.658 54.384 201.618 50.8 201.618 46C201.618 41.2 204.658 37.616 209.65 37.616C214.642 37.616 217.682 41.2 217.682 46C217.682 50.8 214.642 54.384 209.65 54.384ZM209.65 49.744C211.602 49.744 213.202 48.72 213.202 46C213.202 43.28 211.602 42.256 209.65 42.256C207.698 42.256 206.098 43.28 206.098 46C206.098 48.72 207.698 49.744 209.65 49.744Z" fill="black"/>
<path d="M120.529 89.76C120.529 90.4 120.209 90.72 119.569 90.72H118.929C118.289 90.72 117.969 90.4 117.969 89.76V68.96C117.969 68.32 118.289 68 118.929 68H119.569C120.209 68 120.529 68.32 120.529 68.96V70.592C121.745 69.056 123.537 68.32 125.329 68.32C128.913 68.32 131.761 71.52 131.761 76.48C131.761 81.28 128.785 84.32 125.009 84.32C123.601 84.32 122.001 83.904 120.529 83.232V89.76ZM125.009 81.6C127.409 81.6 129.201 79.936 129.201 76.48C129.201 72.992 127.121 71.04 124.817 71.04C122.577 71.04 120.529 72.992 120.529 75.552V80.224C121.905 81.152 123.473 81.6 125.009 81.6ZM137.317 83.36C137.317 84 136.997 84.32 136.357 84.32H135.717C135.077 84.32 134.757 84 134.757 83.36V68C134.757 67.36 135.077 67.04 135.717 67.04H136.357C136.997 67.04 137.317 67.36 137.317 68V70.048C138.309 68.768 139.749 68 141.477 68C142.213 68 142.981 68.192 143.397 68.416C143.621 68.544 143.653 68.672 143.621 68.96L143.301 70.944C143.237 71.328 143.013 71.36 142.693 71.296C141.797 71.136 141.221 71.04 140.741 71.04C138.789 71.04 137.317 72.672 137.317 74.912V83.36ZM152.262 84.32C147.686 84.32 144.87 80.896 144.87 76.32C144.87 71.552 147.686 68 152.262 68C156.838 68 159.622 71.552 159.622 76.32C159.622 80.896 156.838 84.32 152.262 84.32ZM152.262 81.6C155.206 81.6 157.062 79.872 157.062 76.32C157.062 72.576 155.206 70.72 152.262 70.72C149.318 70.72 147.43 72.544 147.43 76.32C147.43 79.872 149.318 81.6 152.262 81.6ZM166.88 83.36C166.88 83.776 166.656 84 166.24 84H164.96C164.544 84 164.32 83.776 164.32 83.36V71.296L161.728 71.392C161.28 71.424 161.152 71.136 161.152 70.72V69.44C161.152 69.024 161.472 68.704 161.92 68.672L164.32 68.576V66.528C164.32 62.464 166.496 60.384 170.048 60.672L170.464 60.704C170.592 60.704 170.752 60.736 170.88 60.736C171.392 60.768 171.552 60.96 171.456 61.472L171.36 61.952L171.2 62.912C171.104 63.36 170.912 63.488 170.336 63.424L169.664 63.36C169.472 63.328 169.312 63.328 169.152 63.328C167.552 63.392 166.88 64.576 166.88 67.296V68.48L170.848 68.352C171.296 68.32 171.424 68.608 171.424 69.024V70.304C171.424 70.72 171.104 71.04 170.656 71.072L166.88 71.2V83.36ZM184.421 83.04V81.728C183.141 83.328 181.221 84.32 179.237 84.32C176.197 84.32 173.989 82.528 173.989 78.368V69.28C173.989 68.64 174.309 68.32 174.949 68.32H175.589C176.229 68.32 176.549 68.64 176.549 69.28V77.248C176.549 80.192 177.925 81.6 180.133 81.6C182.373 81.6 184.421 79.648 184.421 77.088V68.32C184.421 67.68 184.741 67.36 185.381 67.36H186.021C186.661 67.36 186.981 67.68 186.981 68.32V83.04C186.981 83.68 186.661 84 186.021 84H185.381C184.741 84 184.421 83.68 184.421 83.04ZM193.311 83.36C193.311 84 192.991 84.32 192.351 84.32H191.711C191.071 84.32 190.751 84 190.751 83.36V68.32C190.751 67.68 191.071 67.36 191.711 67.36H192.351C192.991 67.36 193.311 67.68 193.311 68.32V70.592C194.591 68.992 196.511 68 198.495 68C201.535 68 203.743 69.792 203.743 73.952V83.04C203.743 83.68 203.423 84 202.783 84H202.143C201.503 84 201.183 83.68 201.183 83.04V75.072C201.183 72.128 199.807 70.72 197.599 70.72C195.359 70.72 193.311 72.672 193.311 75.232V83.36ZM219.352 84.32H218.712C218.072 84.32 217.752 84 217.752 83.36V81.728C216.536 83.264 214.744 84 212.952 84C209.368 84 206.52 80.8 206.52 75.84C206.52 71.04 209.496 68 213.272 68C214.68 68 216.28 68.416 217.752 69.088V61.92C217.752 61.28 218.072 60.96 218.712 60.96H219.352C219.992 60.96 220.312 61.28 220.312 61.92V83.36C220.312 84 219.992 84.32 219.352 84.32ZM213.464 81.28C215.704 81.28 217.752 79.328 217.752 76.768V72.096C216.376 71.168 214.808 70.72 213.272 70.72C210.872 70.72 209.08 72.384 209.08 75.84C209.08 79.328 211.16 81.28 213.464 81.28ZM230.7 84.32C226.124 84.32 223.308 80.896 223.308 76.32C223.308 71.552 226.124 68 230.7 68C235.276 68 238.06 71.552 238.06 76.32C238.06 80.896 235.276 84.32 230.7 84.32ZM230.7 81.6C233.644 81.6 235.5 79.872 235.5 76.32C235.5 72.576 233.644 70.72 230.7 70.72C227.756 70.72 225.868 72.544 225.868 76.32C225.868 79.872 227.756 81.6 230.7 81.6Z" fill="black"/>
</svg>
