<svg width="390" height="148" viewBox="0 0 390 148" fill="none" xmlns="http://www.w3.org/2000/svg">
<g clip-path="url(#clip0_304_10052)">
<mask id="mask0_304_10052" style="mask-type:luminance" maskUnits="userSpaceOnUse" x="86" y="16" width="103" height="116">
<path d="M189 16H86V132H189V16Z" fill="white"/>
</mask>
<g mask="url(#mask0_304_10052)">
<path d="M137.496 16C136.169 16 135.093 17.0789 135.093 18.4098V24.4266L130.188 20.4731C129.671 20.0559 129.035 19.8872 128.423 19.9535C127.812 20.0198 127.232 20.3237 126.816 20.8421C125.983 21.8789 126.142 23.3889 127.176 24.2233L135.093 30.6091V39.0585L125.952 31.6786C125.435 31.2612 124.798 31.0925 124.187 31.1588C123.575 31.2253 122.988 31.5292 122.572 32.0475C121.74 33.0842 121.906 34.6019 122.94 35.4361L135.093 45.2409V57.0714L137.496 55.6781L139.9 57.0714V45.2484L152.06 35.4361C153.094 34.6019 153.26 33.0842 152.428 32.0475C151.596 31.0106 150.082 30.8441 149.048 31.6786L139.9 39.0659V30.6166L147.824 24.2233C148.858 23.3889 149.017 21.8789 148.184 20.8421C147.352 19.8053 145.838 19.6387 144.804 20.4731L139.9 24.4266V18.4098C139.9 17.0789 138.824 16 137.496 16ZM178.108 38.1698C176.796 37.9644 175.564 38.8655 175.359 40.1805L173.797 50.2487L166.496 54.4657L168.306 42.8387C168.511 41.5237 167.612 40.2877 166.301 40.0826C164.989 39.8773 163.764 40.7783 163.559 42.0931L161.156 57.5534L150.941 63.4573L153.329 64.8352V67.6365L163.552 61.7326L178.1 67.3955C179.338 67.8773 180.729 67.2582 181.21 66.0176C181.69 64.7769 181.073 63.3816 179.835 62.8999L168.9 58.6452L176.193 54.4282L185.664 58.118C186.901 58.5997 188.293 57.9806 188.773 56.7401C189.254 55.4993 188.644 54.104 187.406 53.6223L181.541 51.3405L186.738 48.336C187.888 47.6714 188.287 46.1906 187.624 45.0376C187.127 44.1727 186.173 43.7404 185.243 43.8553C184.933 43.8937 184.629 43.9903 184.342 44.1566L179.137 47.1613L180.106 40.926C180.311 39.611 179.419 38.3751 178.108 38.1698ZM96.7795 38.3054C95.4687 38.5148 94.5727 39.7472 94.7816 41.0615L95.7731 47.2967L90.5605 44.3072C90.2724 44.1419 89.9692 44.0433 89.6592 44.0059C88.7292 43.8941 87.78 44.3368 87.2857 45.2034C86.6267 46.3586 87.0273 47.8334 88.1795 48.4941L93.3846 51.4837L87.526 53.7804C86.2902 54.2662 85.6821 55.6665 86.1666 56.9056C86.6511 58.1447 88.0478 58.7544 89.2836 58.2686L98.74 54.5486L106.056 58.7431L95.1271 63.0356C93.8913 63.5211 93.2832 64.9214 93.7676 66.1605C94.2521 67.3996 95.6413 68.0093 96.8772 67.5237L111.411 61.8155L121.671 67.7045V64.8352L124.007 63.4874L113.799 57.636L111.343 42.176C111.134 40.8617 109.898 39.9708 108.587 40.1805C107.276 40.3899 106.387 41.6222 106.596 42.9365L108.444 54.5636L101.128 50.3692L99.5286 40.3084C99.3195 38.9941 98.0904 38.0958 96.7795 38.3054ZM153.329 80.3029V83.1645L150.993 84.52L161.201 90.3711L163.657 105.824C163.866 107.138 165.103 108.029 166.413 107.819C167.724 107.61 168.613 106.377 168.404 105.063L166.556 93.4361L173.864 97.6305L175.472 107.699C175.681 109.013 176.91 109.904 178.221 109.695C179.531 109.485 180.427 108.253 180.219 106.938L179.227 100.71L184.432 103.693C185.584 104.353 187.055 103.952 187.714 102.797C188.373 101.641 187.973 100.166 186.821 99.5056L181.608 96.516L187.474 94.2193C188.71 93.7335 189.318 92.3332 188.833 91.0941C188.47 90.1649 187.592 89.5904 186.655 89.5653C186.343 89.5571 186.025 89.6097 185.716 89.7311L176.26 93.4511L168.945 89.2566L179.873 84.9644C181.109 84.4786 181.717 83.0783 181.232 81.8392C180.869 80.9097 179.998 80.3352 179.062 80.3104C178.75 80.3022 178.432 80.3547 178.123 80.4762L163.589 86.1842L153.329 80.3029ZM121.671 80.3706L111.456 86.2746L96.8997 80.6042C96.5904 80.4837 96.2729 80.4367 95.9608 80.4461C95.0246 80.474 94.1505 81.0517 93.7902 81.9823C93.3097 83.2228 93.9198 84.6181 95.1572 85.0998L106.108 89.3622L98.8075 93.5793L89.3362 89.8892C89.0268 89.7687 88.7019 89.7142 88.3898 89.7236C87.4536 89.7516 86.5795 90.3292 86.2192 91.2599C85.7387 92.5004 86.3563 93.8957 87.5937 94.3774L93.4672 96.6666L88.2621 99.6714C87.112 100.336 86.7131 101.809 87.3758 102.962C88.0386 104.115 89.508 104.508 90.6581 103.843L95.8632 100.839L94.8868 107.074C94.6821 108.389 95.5807 109.625 96.8922 109.83C98.2037 110.035 99.4365 109.134 99.6413 107.819L101.204 97.751L108.504 93.534L106.694 105.161C106.489 106.476 107.388 107.712 108.699 107.917C110.011 108.122 111.236 107.222 111.441 105.907L113.844 90.4466L124.059 84.5501L121.671 83.1645V80.3706ZM135.093 90.936V102.766L122.94 112.564C121.906 113.398 121.74 114.916 122.572 115.952C123.404 116.989 124.918 117.156 125.952 116.321L135.093 108.941V117.391L127.176 123.776C126.142 124.611 125.983 126.128 126.816 127.165C127.648 128.202 129.154 128.361 130.188 127.527L135.093 123.573V129.59C135.093 130.921 136.169 132 137.496 132C138.824 132 139.9 130.921 139.9 129.59V123.573L144.804 127.527C145.838 128.361 147.352 128.202 148.184 127.165C149.017 126.128 148.858 124.611 147.824 123.776L139.9 117.383V108.934L149.048 116.321C150.082 117.156 151.596 116.989 152.428 115.952C153.26 114.916 153.094 113.398 152.06 112.564L139.9 102.759V90.936L137.496 92.3291L135.093 90.936Z" fill="#AF52DE"/>
<path d="M137.504 50.4446L117.156 62.2223V85.7777L137.504 97.5554L157.843 85.7777V62.2223L137.504 50.4446ZM137.504 57.7189C138.167 57.7189 138.705 58.2585 138.705 58.9238V72.4939L150.422 65.6938C150.566 65.6104 150.718 65.5627 150.873 65.5432C151.338 65.4848 151.81 65.6986 152.06 66.1304C152.392 66.7064 152.199 67.4464 151.624 67.7797L139.877 74.5872L151.586 81.4625C152.159 81.7989 152.357 82.5375 152.022 83.1117C151.687 83.686 150.95 83.8773 150.377 83.5409L138.705 76.6883V90.2507C138.705 90.916 138.167 91.4555 137.504 91.4555C136.84 91.4555 136.302 90.916 136.302 90.2507V76.6731L124.577 83.4732C124.003 83.8067 123.272 83.6123 122.94 83.0366C122.607 82.4606 122.801 81.7206 123.376 81.3873L135.108 74.5798L123.413 67.7119C122.84 67.3755 122.642 66.6369 122.977 66.0627C123.229 65.6321 123.707 65.4147 124.172 65.4754C124.326 65.4955 124.479 65.5494 124.622 65.6335L136.302 72.4862V58.9238C136.302 58.2585 136.84 57.7189 137.504 57.7189Z" fill="#AF52DE"/>
</g>
</g>
<path d="M204.958 52.432C203.486 52.432 202.238 51.184 202.238 49.68C202.238 48.208 203.486 46.96 204.958 46.96C206.43 46.96 207.678 48.208 207.678 49.68C207.678 51.184 206.43 52.432 204.958 52.432ZM207.198 68.72C207.198 69.584 206.782 70 205.918 70H203.998C203.134 70 202.718 69.584 202.718 68.72V55.92C202.718 55.056 203.134 54.64 203.998 54.64H205.918C206.782 54.64 207.198 55.056 207.198 55.92V68.72ZM214.173 69.36C214.173 70.224 213.757 70.64 212.893 70.64H210.973C210.109 70.64 209.693 70.224 209.693 69.36V54C209.693 53.136 210.109 52.72 210.973 52.72H212.893C213.757 52.72 214.173 53.136 214.173 54V56.4C215.389 54.512 217.405 53.616 219.197 53.616C222.301 53.616 224.605 55.632 224.605 60.272V68.72C224.605 69.584 224.189 70 223.325 70H221.405C220.541 70 220.125 69.584 220.125 68.72V61.712C220.125 59.376 219.197 58.256 217.661 58.256C215.549 58.256 214.173 59.568 214.173 62.512V69.36ZM235.56 70H233.128C232.328 70 232.168 69.84 231.656 68.784L225.768 56.592C225.256 55.504 225.512 55.312 226.632 54.832L228.136 54.192C229.192 53.744 229.48 54.16 230.056 55.44L233.864 63.728L236.84 54.32C237.256 53.04 237.672 52.752 238.728 53.072L240.552 53.616C241.672 53.936 241.768 54.288 241.416 55.376L237.032 68.784C236.68 69.84 236.36 70 235.56 70ZM250.322 70.384C245.234 70.384 241.938 66.96 241.938 62C241.938 57.424 244.658 53.616 249.97 53.616C254.098 53.616 256.882 56.4 256.882 60.848C256.882 62.128 256.754 62.672 255.634 62.8L246.706 63.824C247.346 65.232 248.754 66.224 250.93 66.224C252.146 66.224 253.522 65.488 254.61 64.88C255.09 64.592 255.57 64.848 255.794 65.456L256.434 67.12C256.658 67.728 256.818 68.048 256.306 68.464C254.738 69.712 252.37 70.384 250.322 70.384ZM249.65 57.776C247.986 57.776 246.898 58.512 246.514 60.368L252.274 59.696C251.986 58.544 251.026 57.776 249.65 57.776ZM262.911 68.72C262.911 69.584 262.495 70 261.631 70H259.711C258.847 70 258.431 69.584 258.431 68.72V53.68C258.431 52.816 258.847 52.4 259.711 52.4H261.631C262.495 52.4 262.911 52.816 262.911 53.68V56.336C263.967 54.608 265.599 53.616 267.103 53.616C267.807 53.616 268.543 53.776 268.959 54.032C269.215 54.192 269.279 54.416 269.247 54.64L268.927 58.32C268.895 58.8 268.607 58.96 268.063 58.832C267.167 58.64 266.559 58.576 266.015 58.576C264.255 58.576 262.911 59.92 262.911 62.512V68.72ZM275.073 69.36C275.073 70.224 274.657 70.64 273.793 70.64H271.873C271.009 70.64 270.593 70.224 270.593 69.36V54C270.593 53.136 271.009 52.72 271.873 52.72H273.793C274.657 52.72 275.073 53.136 275.073 54V56.4C276.289 54.512 278.305 53.616 280.097 53.616C283.201 53.616 285.505 55.632 285.505 60.272V68.72C285.505 69.584 285.089 70 284.225 70H282.305C281.441 70 281.025 69.584 281.025 68.72V61.712C281.025 59.376 280.097 58.256 278.561 58.256C276.449 58.256 275.073 59.568 275.073 62.512V69.36ZM295.02 70.384C290.028 70.384 286.988 66.8 286.988 62C286.988 57.2 290.028 53.616 295.02 53.616C300.012 53.616 303.052 57.2 303.052 62C303.052 66.8 300.012 70.384 295.02 70.384ZM295.02 65.744C296.972 65.744 298.572 64.72 298.572 62C298.572 59.28 296.972 58.256 295.02 58.256C293.068 58.256 291.468 59.28 291.468 62C291.468 64.72 293.068 65.744 295.02 65.744Z" fill="black"/>
<path d="M205.849 105.76C205.849 106.4 205.529 106.72 204.889 106.72H204.249C203.609 106.72 203.289 106.4 203.289 105.76V84.96C203.289 84.32 203.609 84 204.249 84H204.889C205.529 84 205.849 84.32 205.849 84.96V86.592C207.065 85.056 208.857 84.32 210.649 84.32C214.233 84.32 217.081 87.52 217.081 92.48C217.081 97.28 214.105 100.32 210.329 100.32C208.921 100.32 207.321 99.904 205.849 99.232V105.76ZM210.329 97.6C212.729 97.6 214.521 95.936 214.521 92.48C214.521 88.992 212.441 87.04 210.137 87.04C207.897 87.04 205.849 88.992 205.849 91.552V96.224C207.225 97.152 208.793 97.6 210.329 97.6ZM230.285 99.04V97.728C229.005 99.328 227.085 100.32 225.101 100.32C222.061 100.32 219.853 98.528 219.853 94.368V85.28C219.853 84.64 220.173 84.32 220.813 84.32H221.453C222.093 84.32 222.413 84.64 222.413 85.28V93.248C222.413 96.192 223.789 97.6 225.997 97.6C228.237 97.6 230.285 95.648 230.285 93.088V84.32C230.285 83.68 230.605 83.36 231.245 83.36H231.885C232.525 83.36 232.845 83.68 232.845 84.32V99.04C232.845 99.68 232.525 100 231.885 100H231.245C230.605 100 230.285 99.68 230.285 99.04ZM239.174 99.36C239.174 100 238.854 100.32 238.214 100.32H237.574C236.934 100.32 236.614 100 236.614 99.36V84C236.614 83.36 236.934 83.04 237.574 83.04H238.214C238.854 83.04 239.174 83.36 239.174 84V86.048C240.166 84.768 241.606 84 243.334 84C244.07 84 244.838 84.192 245.254 84.416C245.478 84.544 245.51 84.672 245.478 84.96L245.158 86.944C245.094 87.328 244.87 87.36 244.55 87.296C243.654 87.136 243.078 87.04 242.598 87.04C240.646 87.04 239.174 88.672 239.174 90.912V99.36ZM254.12 100.32C249.544 100.32 246.728 96.896 246.728 92.32C246.728 87.552 249.544 84 254.12 84C258.696 84 261.48 87.552 261.48 92.32C261.48 96.896 258.696 100.32 254.12 100.32ZM254.12 97.6C257.064 97.6 258.92 95.872 258.92 92.32C258.92 88.576 257.064 86.72 254.12 86.72C251.176 86.72 249.288 88.544 249.288 92.32C249.288 95.872 251.176 97.6 254.12 97.6Z" fill="black"/>
<defs>
<clipPath id="clip0_304_10052">
<rect width="103" height="116" fill="white" transform="translate(86 16)"/>
</clipPath>
</defs>
</svg>
