<svg width="363" height="349" viewBox="0 0 363 349" fill="none" xmlns="http://www.w3.org/2000/svg">
<g clip-path="url(#clip0_341_4759)">
<path d="M41.4078 64.5552C42.2902 64.7003 43.4287 60.6453 43.6309 59.9762C44.8895 55.8132 45.5014 51.1725 47.3001 47.2157C46.7785 46.7138 46.4795 46.4459 46.132 46.194C45.5051 45.7397 44.819 45.3118 44.0942 44.873C44.0589 45.0184 44.0002 45.3002 43.9688 45.3882C43.1014 47.8186 41.5481 52.1689 38.9375 53.2454C36.6886 51.661 34.4108 50.1161 32.6434 47.9694C30.7984 45.7283 29.4567 42.8248 28.2007 40.2081C27.7128 39.1918 27.3761 37.9472 26.6002 37.0987C26.1805 36.6397 25.6139 36.2444 25.0068 35.8755C21.5293 34.6567 18.1417 33.7471 14.7229 33.1617C14.1534 33.0642 13.7074 32.9649 12.7083 32.7289C12.6135 32.7065 12.5679 32.6951 12.5155 32.6828C11.6037 32.4679 10.9353 32.3362 10.3538 32.2541C10.357 32.3891 10.3658 32.6526 10.3629 32.7067C10.2117 35.5304 11.9109 39.0565 13.6544 41.22C19.9127 48.9858 27.7706 54.2022 36.08 59.5412C37.4853 60.4441 38.901 61.4755 40.0326 62.7114C40.248 62.9467 41.1703 64.5165 41.4078 64.5552Z" fill="#1A1A1A"/>
<path d="M8.29467 87.0871C11.2564 86.5852 14.2254 85.2664 16.4837 83.3223C18.7087 81.4067 20.1806 77.9824 20.5829 75.1184C20.6967 74.3068 20.7498 73.2862 20.9175 72.3144C20.8982 72.316 20.8791 72.3154 20.8603 72.3167C21.0294 71.7208 21.1958 71.0657 21.0044 70.6959C20.9171 70.528 20.3665 70.5297 20.2125 70.4892C19.5439 70.3152 18.8424 69.8934 18.2252 69.5671C18.1989 69.5532 18.182 69.5271 18.1561 69.5126C20.2691 69.8333 23.337 69.3696 25.3767 68.482C26.3344 67.9953 27.2616 67.466 28.1802 66.9342C30.1682 65.7015 33.059 63.4786 30.6573 62.7718C29.6663 62.4802 28.0996 63.5713 27.1534 63.7844C24.7901 64.3166 21.6673 63.8753 19.4042 63.107C16.8427 62.2369 13.773 57.6145 11.5801 57.7691C10.1202 57.8722 9.72921 59.292 8.90339 60.3151C7.90499 61.5517 6.95533 62.4859 5.80963 63.1937C5.69734 63.3502 5.55599 63.4915 5.3773 63.5934C5.35657 63.6052 5.36085 63.6119 5.34009 63.6236C4.36765 64.1758 0.381159 66.2478 -0.505445 66.7387C-4.94816 69.1983 -7.69656 71.5034 -9.02663 74.2916C-8.7693 75.3962 -8.1286 76.465 -7.79623 77.5192C-6.94827 80.2089 -5.51479 82.8919 -3.44433 84.8717C-2.88429 85.2311 -2.14643 85.7537 -1.62938 86.0207C-0.515376 86.597 0.756325 86.8292 2.9285 86.9529C3.1493 86.9651 4.65281 87.0445 5.00733 87.0686C6.17078 87.1481 7.23711 87.1263 8.29467 87.0871Z" fill="#1A1A1A"/>
<path d="M-5.90378 43.7537C-4.96741 43.6986 -4.05472 43.4582 -3.22848 42.9573C-2.94138 42.7832 -2.669 42.5793 -2.42079 42.3538C-2.15991 42.117 -1.92357 41.8567 -1.73691 41.5572C-1.04488 40.4474 -1.28764 39.2294 -1.76182 38.0878C-2.02952 37.4442 -2.36234 36.8295 -2.65456 36.1972C-2.86096 35.7495 -3.05293 35.2782 -3.13709 34.7903C-3.1914 34.4709 -3.18871 34.1412 -3.16465 33.8188C-3.06152 32.4133 -2.36729 31.135 -1.73484 29.9059C-1.43913 29.3306 -1.16084 28.7514 -0.927172 28.1553C-0.569384 28.3257 -0.203985 28.4884 0.130577 28.6828C0.893867 28.4194 1.31166 27.9131 1.79621 26.8389C1.85135 26.717 1.94296 26.5016 2.06264 26.2223C2.11071 26.0216 2.1695 25.7185 2.21137 25.5874C3.18717 22.54 5.96372 14.3688 5.05895 10.1925C4.97827 10.1714 4.90533 10.147 4.82336 10.1265C3.3931 9.76809 2.19632 9.56613 -0.43184 9.19388C-4.25722 8.65208 -7.94131 8.60741 -12.5935 8.95672C-20.134 9.52274 -23.9166 10.7271 -28.2838 14.4183C-28.107 18.5139 -23.9966 25.7001 -22.5791 28.5093C-22.3022 28.9085 -21.9508 29.4212 -21.8061 29.6131C-21.393 30.1614 -21.0465 30.4771 -20.6352 30.6191C-20.4035 30.4171 -20.174 30.2368 -19.9422 30.0493C-19.7565 30.711 -19.5283 31.3626 -19.2635 31.9957C-18.6661 33.422 -17.9258 34.7884 -17.0989 36.0938C-16.2756 37.3937 -15.3572 38.6391 -14.3334 39.7888C-13.2417 41.0152 -12.0196 42.183 -10.489 42.8287C-9.08922 43.4191 -7.46387 43.8451 -5.90378 43.7537ZM-5.68757 42.7725C-7.28118 42.9344 -9.00857 42.4303 -10.4142 41.8007C-11.0141 41.5323 -11.5541 41.1173 -12.0492 40.6913C-12.6047 40.2129 -13.1168 39.6899 -13.6028 39.1417C-14.5899 38.0305 -15.47 36.8198 -16.2642 35.5646C-17.0961 34.2501 -17.8449 32.8744 -18.4303 31.4317C-18.699 30.7708 -18.9275 30.0915 -19.0958 29.3977C-17.9525 28.5645 -16.7953 27.8999 -15.5714 27.4371C-11.4174 25.8657 -6.00779 26.0443 -1.78173 27.7592C-2.07838 28.522 -2.46042 29.2581 -2.83203 29.9915C-3.52916 31.3674 -4.16951 32.8162 -4.11384 34.3934C-4.05739 35.9823 -3.04868 37.3022 -2.51546 38.7476C-2.23765 39.4987 -2.09409 40.3386 -2.54339 41.0544C-2.68481 41.2793 -2.86477 41.4689 -3.06051 41.646C-3.82464 42.3366 -4.731 42.675 -5.68757 42.7725Z" fill="#1A1A1A"/>
<path d="M30.9683 26.4644C32.1581 26.7212 33.3282 25.961 33.585 24.7713L38.6551 1.2875C38.912 0.0978103 38.1597 -1.07751 36.97 -1.33436L25.6465 -3.77903C24.4568 -4.03589 23.2866 -3.27567 23.0298 -2.08594L17.9597 21.3978C17.7029 22.5875 18.4551 23.7628 19.6449 24.0197L30.9683 26.4644ZM31.2907 25.795C30.6057 25.6471 30.1675 24.9762 30.3153 24.2912C30.4632 23.6061 31.1406 23.1692 31.8257 23.3172C32.5108 23.4651 32.9411 24.141 32.7932 24.8261C32.6452 25.5112 31.9758 25.9429 31.2907 25.795ZM28.5796 23.2664C27.8946 23.1185 27.4642 22.4425 27.6122 21.7574C27.76 21.0724 28.4309 20.6341 29.116 20.7821C29.801 20.9299 30.238 21.6073 30.09 22.2924C29.9421 22.9774 29.2647 23.4143 28.5796 23.2664ZM32.1631 21.7546C31.478 21.6067 31.0412 20.9293 31.1891 20.2442C31.337 19.5592 32.0129 19.1289 32.698 19.2768C33.3831 19.4247 33.8148 20.0942 33.6669 20.7792C33.519 21.4643 32.8481 21.9025 32.1631 21.7546Z" fill="#1A1A1A"/>
<path d="M53.7996 76.061L60.4987 65.344C60.2052 65.2556 59.9145 65.1455 59.6423 64.9754L55.7466 62.541C55.4744 62.3709 55.2447 62.1529 55.0369 61.9277L48.3378 72.6448L53.7996 76.061ZM62.6357 64.3376C63.169 64.1009 63.6412 63.7067 63.9735 63.1746L66.0754 59.8078C66.962 58.3891 66.5314 56.5205 65.1126 55.6338L61.7435 53.527C60.3247 52.6403 58.4585 53.0761 57.572 54.4947L55.4677 57.8564C54.5811 59.2751 55.0116 61.1437 56.4304 62.0304L59.7996 64.1372C60.6864 64.6917 61.7469 64.7322 62.6357 64.3376ZM66.5034 55.7309L73.7481 44.1369L68.289 40.7261L61.0444 52.3203C61.3377 52.4083 61.6257 52.5262 61.8979 52.6963L65.7937 55.1309C66.0659 55.301 66.2957 55.5058 66.5034 55.7309Z" fill="#1A1A1A"/>
<path d="M59.4322 36.8861L60.0554 34.1956L56.4596 32.5668L54.7689 34.4889L56.7241 37.983L59.4322 36.8861ZM58.5522 32.6718C60.5001 28.7083 59.5763 23.8797 56.2123 20.9207C52.1231 17.3239 45.8918 17.723 42.295 21.8123C38.6981 25.9015 39.0973 32.1328 43.1865 35.7297C46.5165 38.6587 51.3589 38.9856 55.0332 36.6197L54.3284 35.527C51.1406 37.5798 46.9371 37.293 44.0472 34.7512C40.4984 31.6296 40.152 26.2218 43.2735 22.673C46.395 19.1242 51.8028 18.7778 55.3516 21.8993C58.271 24.4672 59.0719 28.661 57.3819 32.0996L58.5522 32.6718Z" fill="#1A1A1A"/>
<path d="M128.937 9.38215C129.794 9.1272 129.047 4.98227 128.937 4.29203C128.25 -0.0026567 126.774 -4.44455 126.664 -8.78957C125.975 -9.01327 125.589 -9.12366 125.167 -9.19847C124.404 -9.33336 123.6 -9.41868 122.757 -9.49677C122.788 -9.35061 122.859 -9.07142 122.869 -8.97859C123.15 -6.41336 123.653 -1.82148 121.775 0.287042C119.06 -0.155955 116.336 -0.550778 113.808 -1.71C111.17 -2.92018 108.695 -4.94603 106.422 -6.75134C105.539 -7.45249 104.692 -8.42504 103.624 -8.84947C103.046 -9.07902 102.364 -9.1872 101.656 -9.25387C97.9957 -8.83139 94.551 -8.17001 91.2199 -7.20343C90.6649 -7.04241 90.2203 -6.93694 89.2185 -6.71282C89.1235 -6.69155 89.0775 -6.68189 89.025 -6.67011C88.1109 -6.46514 87.4521 -6.29175 86.8931 -6.11153C86.9549 -5.99154 87.078 -5.75835 87.099 -5.70842C88.1962 -3.10225 91.2649 -0.672443 93.7783 0.512324C102.8 4.7647 112.147 6.02517 121.954 7.19871C123.612 7.39713 125.336 7.70664 126.894 8.32414C127.191 8.44172 128.706 9.45106 128.937 9.38215Z" fill="#1A1A1A"/>
<path d="M108.99 44.114C111.435 42.369 113.53 39.8859 114.713 37.1507C115.877 34.4556 115.706 30.7323 114.817 27.9802C114.565 27.2004 114.167 26.2591 113.893 25.3117C113.876 25.3215 113.859 25.3293 113.843 25.3387C113.734 24.7288 113.598 24.0668 113.264 23.8178C113.112 23.7048 112.618 23.9469 112.462 23.9778C111.784 24.1132 110.969 24.0401 110.271 24.0162C110.241 24.0152 110.215 23.9991 110.185 23.9974C112.226 23.3629 114.783 21.6058 116.231 19.9165C116.88 19.0604 117.482 18.1792 118.077 17.2996C119.326 15.3225 120.956 12.0602 118.487 12.4733C117.468 12.6439 116.535 14.3097 115.777 14.9147C113.884 16.4256 110.882 17.3926 108.51 17.6899C105.826 18.026 101.046 15.2085 99.1404 16.3054C97.8722 17.0358 98.1406 18.4838 97.8446 19.7649C97.4866 21.3134 97.0403 22.5685 96.3188 23.7057C96.2862 23.8955 96.2207 24.0844 96.1045 24.254C96.091 24.2737 96.0977 24.2778 96.0842 24.2975C95.4506 25.2189 92.7694 28.824 92.1863 29.6528C89.264 33.8059 87.7984 37.0799 87.8197 40.169C88.5337 41.0503 89.5769 41.7319 90.3363 42.5351C92.2739 44.5843 94.7352 46.3717 97.4625 47.2484C98.1233 47.3272 99.0153 47.4749 99.597 47.4893C100.851 47.5212 102.096 47.1747 104.104 46.3371C104.308 46.2517 105.695 45.6664 106.025 45.5332C107.106 45.0966 108.056 44.6113 108.99 44.114Z" fill="#1A1A1A"/>
<path d="M87.1399 22.3499C87.7365 21.7486 87.7324 20.7748 87.1311 20.1781C86.5297 19.5813 85.5559 19.5849 84.9589 20.1868C84.3623 20.7881 84.3703 21.7579 84.9717 22.3547C85.5734 22.951 86.5433 22.9512 87.1399 22.3499ZM70.4591 39.1637C71.0557 38.5623 71.0517 37.5886 70.4503 36.9918C69.8489 36.395 68.8751 36.3987 68.2782 37.0005C67.6816 37.6018 67.6896 38.5716 68.2909 39.1684C68.8926 39.7647 69.8625 39.765 70.4591 39.1637ZM83.9218 22.1242C84.5184 21.5229 84.5104 20.5531 83.9091 19.9564C83.3077 19.3596 82.3378 19.3593 81.7412 19.9606C81.1446 20.5619 81.1483 21.5362 81.7497 22.1329C82.3514 22.7292 83.3252 22.7256 83.9218 22.1242ZM70.2117 35.9436C70.8083 35.3423 70.8046 34.368 70.2033 33.7713C69.6016 33.175 68.6277 33.1786 68.0311 33.78C67.4342 34.3818 67.4383 35.3555 68.0396 35.9523C68.641 36.5491 69.6151 36.5449 70.2117 35.9436ZM80.3566 22.5045C80.9533 21.9032 80.9535 20.9333 80.3521 20.3365C79.7508 19.7397 78.7766 19.7439 78.18 20.3452C77.5834 20.9465 77.5871 21.9208 78.1888 22.517C78.7902 23.1138 79.76 23.1058 80.3566 22.5045ZM70.5638 32.3753C71.1604 31.774 71.1567 30.808 70.555 30.2118C69.9537 29.615 68.9838 29.6147 68.3872 30.216C67.7906 30.8173 67.7943 31.7916 68.3957 32.3884C68.9974 32.9847 69.9669 32.9772 70.5638 32.3753ZM77.0346 24.0523C77.6312 23.4509 77.6235 22.4806 77.0218 21.8843C76.4205 21.2876 75.4506 21.2873 74.854 21.8886C74.2574 22.49 74.2611 23.4642 74.8625 24.061C75.4642 24.6572 76.438 24.6536 77.0346 24.0523ZM72.0851 29.0411C72.6817 28.4397 72.6777 27.466 72.0763 26.8692C71.475 26.2725 70.5008 26.2766 69.9042 26.8779C69.3076 27.4793 69.3156 28.4491 69.917 29.0459C70.5183 29.6426 71.4881 29.6429 72.0851 29.0411ZM74.5221 26.403C75.119 25.8012 75.111 24.8314 74.5093 24.2352C73.908 23.6384 72.9381 23.6381 72.3415 24.2394C71.745 24.8408 71.7486 25.815 72.3503 26.4113C72.9517 27.0081 73.9255 27.0044 74.5221 26.403Z" fill="#1A1A1A"/>
<path d="M77.2909 11.334C78.1092 10.8755 78.8253 10.2605 79.3497 9.44905C79.532 9.16705 79.6879 8.86465 79.8127 8.5534C79.944 8.22645 80.0429 7.88905 80.08 7.53811C80.2178 6.2375 79.4674 5.24788 78.5422 4.428C78.0204 3.966 77.4524 3.55834 76.9134 3.11716C76.5322 2.80456 76.1537 2.46452 75.8648 2.06234C75.6765 1.79875 75.5349 1.50094 75.4157 1.20043C74.8946 -0.108989 74.9608 -1.5621 74.9929 -2.94401C75.0077 -3.59066 75.005 -4.23325 74.9548 -4.87158C75.3511 -4.87451 75.7509 -4.88777 76.1368 -4.85899C76.7084 -5.42931 76.8631 -6.0673 76.8298 -7.24522C76.8261 -7.379 76.8145 -7.61276 76.8001 -7.91627C76.7557 -8.1178 76.6762 -8.41619 76.6566 -8.55238C76.2034 -11.72 75.1321 -20.2833 72.4942 -23.6449C72.4124 -23.6287 72.3361 -23.6188 72.2534 -23.6015C70.8102 -23.2992 69.6454 -22.9581 67.1186 -22.1451C63.4408 -20.9617 60.1072 -19.3927 56.0748 -17.0466C49.5388 -13.2439 46.6621 -10.5083 44.3456 -5.2804C46.2935 -1.67333 53.1299 2.99583 55.632 4.90381C56.0554 5.14196 56.5955 5.44972 56.8095 5.55915C57.4206 5.87198 57.8702 6.0046 58.3022 5.95273C58.4223 5.6698 58.5501 5.40741 58.6767 5.13743C59.1327 5.65157 59.6227 6.13807 60.1374 6.5919C61.2977 7.61405 62.5605 8.51991 63.8745 9.333C65.1829 10.1428 66.553 10.862 67.9762 11.4491C69.4939 12.0755 71.1033 12.5922 72.7622 12.5046C74.2793 12.4243 75.9274 12.0976 77.2909 11.334ZM77.0569 10.3568C75.694 11.1986 73.9199 11.4996 72.3805 11.5472C71.7236 11.5677 71.0566 11.4303 70.4251 11.2633C69.7165 11.0755 69.0274 10.8287 68.3507 10.5479C66.9775 9.97937 65.657 9.27468 64.3942 8.49245C63.0718 7.67332 61.7973 6.76276 60.6406 5.72063C60.1102 5.24349 59.6079 4.73228 59.1535 4.18162C59.8181 2.93271 60.5688 1.82941 61.4676 0.878589C64.5181 -2.34936 69.4624 -4.55148 74.0131 -4.85462C74.0794 -4.03886 74.0572 -3.20987 74.0433 -2.38775C74.0171 -0.845555 74.0739 0.737422 74.8128 2.13188C75.5576 3.53655 77.0415 4.28339 78.1525 5.35067C78.7304 5.90502 79.2264 6.59789 79.1349 7.43807C79.1059 7.70215 79.0268 7.9513 78.9281 8.19612C78.5423 9.15106 77.8748 9.85139 77.0569 10.3568Z" fill="#1A1A1A"/>
<path d="M145.109 14.3201L146.455 1.75331C146.152 1.802 145.843 1.82994 145.524 1.79584L140.956 1.30742C140.637 1.27333 140.335 1.17748 140.05 1.0657L138.704 13.6324L145.109 14.3201ZM147.938 -0.0853869C148.314 -0.531214 148.567 -1.09203 148.633 -1.71592L149.053 -5.66264C149.231 -7.32604 148.028 -8.81894 146.364 -8.99696L142.413 -9.42061C140.75 -9.5986 139.261 -8.39145 139.083 -6.72807L138.659 -2.78487C138.481 -1.12147 139.684 0.371426 141.348 0.549449L145.299 0.973105C146.339 1.08452 147.311 0.65776 147.938 -0.0853869ZM147.658 -9.51698L149.111 -23.1109L142.71 -23.7948L141.257 -10.2008C141.56 -10.2497 141.87 -10.2695 142.189 -10.2354L146.757 -9.7468C147.076 -9.7127 147.373 -9.62876 147.658 -9.51698Z" fill="#1A1A1A"/>
<path d="M40.9366 297.382C41.7938 297.127 41.0468 292.982 40.9365 292.292C40.2504 287.997 38.774 283.555 38.6638 279.21C37.9754 278.987 37.5894 278.876 37.1668 278.802C36.4044 278.667 35.6003 278.581 34.7566 278.503C34.7884 278.649 34.8587 278.929 34.8688 279.021C35.1501 281.587 35.6528 286.179 33.7746 288.287C31.0596 287.844 28.3358 287.449 25.8082 286.29C23.1697 285.08 20.6946 283.054 18.4218 281.249C17.539 280.548 16.6925 279.575 15.6239 279.151C15.0459 278.921 14.3635 278.813 13.6562 278.746C9.99573 279.169 6.55099 279.83 3.21987 280.797C2.66493 280.958 2.22035 281.063 1.21851 281.287C1.12347 281.308 1.07748 281.318 1.02499 281.33C0.110871 281.535 -0.547932 281.708 -1.10688 281.888C-1.04506 282.008 -0.922034 282.242 -0.901032 282.292C0.196234 284.898 3.2649 287.328 5.77829 288.512C14.8 292.765 24.1471 294.025 33.954 295.199C35.6124 295.397 37.3365 295.707 38.8942 296.324C39.1908 296.442 40.7061 297.451 40.9366 297.382Z" fill="#1A1A1A"/>
<path d="M20.9902 332.114C23.4353 330.369 25.5301 327.886 26.7125 325.151C27.8774 322.456 27.7058 318.732 26.8168 315.98C26.5647 315.2 26.1666 314.259 25.8931 313.312C25.8764 313.322 25.859 313.329 25.8427 313.339C25.7345 312.729 25.598 312.067 25.2643 311.818C25.1125 311.705 24.6179 311.947 24.4617 311.978C23.7842 312.113 22.9689 312.04 22.2712 312.016C22.2415 312.015 22.2149 311.999 22.1853 311.997C24.2262 311.363 26.7834 309.606 28.2306 307.916C28.8796 307.06 29.4824 306.179 30.0765 305.3C31.3265 303.322 32.956 300.06 30.4868 300.473C29.468 300.644 28.5352 302.31 27.7771 302.915C25.8835 304.426 22.8817 305.393 20.5103 305.69C17.826 306.026 13.0456 303.209 11.1404 304.305C9.87217 305.036 10.1406 306.484 9.84457 307.765C9.48657 309.313 9.04031 310.569 8.3188 311.706C8.28615 311.895 8.22072 312.084 8.10445 312.254C8.09097 312.274 8.09773 312.278 8.08419 312.297C7.45056 313.219 4.76943 316.824 4.18627 317.653C1.26402 321.806 -0.201558 325.08 -0.180253 328.169C0.533685 329.05 1.57685 329.732 2.33631 330.535C4.27387 332.584 6.73524 334.372 9.4625 335.248C10.1233 335.327 11.0153 335.475 11.597 335.489C12.8509 335.521 14.0963 335.175 16.1043 334.337C16.3083 334.252 17.6955 333.666 18.0249 333.533C19.1063 333.097 20.056 332.611 20.9902 332.114Z" fill="#1A1A1A"/>
<path d="M-0.860133 310.35C-0.263524 309.749 -0.267562 308.775 -0.86891 308.178C-1.47026 307.581 -2.4441 307.585 -3.04106 308.187C-3.63767 308.788 -3.62967 309.758 -3.02833 310.355C-2.42657 310.951 -1.45674 310.951 -0.860133 310.35ZM-17.5409 327.164C-16.9443 326.562 -16.9483 325.589 -17.5497 324.992C-18.1511 324.395 -19.1249 324.399 -19.7218 325.001C-20.3184 325.602 -20.3104 326.572 -19.7091 327.168C-19.1074 327.765 -18.1375 327.765 -17.5409 327.164ZM-4.0782 310.124C-3.48159 309.523 -3.48959 308.553 -4.09093 307.956C-4.69228 307.36 -5.66216 307.359 -6.25877 307.961C-6.85538 308.562 -6.8517 309.536 -6.25035 310.133C-5.64864 310.729 -4.67481 310.726 -4.0782 310.124ZM-17.7883 323.944C-17.1917 323.342 -17.1954 322.368 -17.7967 321.771C-18.3984 321.175 -19.3723 321.179 -19.9689 321.78C-20.5658 322.382 -20.5617 323.356 -19.9604 323.952C-19.359 324.549 -18.3849 324.545 -17.7883 323.944ZM-7.64335 310.504C-7.04674 309.903 -7.04646 308.933 -7.64786 308.336C-8.24916 307.74 -9.22336 307.744 -9.81997 308.345C-10.4166 308.947 -10.4129 309.921 -9.81119 310.517C-9.20984 311.114 -8.23996 311.106 -7.64335 310.504ZM-17.4362 320.375C-16.8396 319.774 -16.8433 318.808 -17.445 318.212C-18.0463 317.615 -19.0162 317.615 -19.6128 318.216C-20.2094 318.817 -20.2057 319.792 -19.6043 320.388C-19.0026 320.985 -18.0331 320.977 -17.4362 320.375ZM-10.9654 312.052C-10.3688 311.451 -10.3765 310.481 -10.9782 309.884C-11.5795 309.288 -12.5494 309.287 -13.146 309.889C-13.7426 310.49 -13.7389 311.464 -13.1375 312.061C-12.5358 312.657 -11.562 312.654 -10.9654 312.052ZM-15.9149 317.041C-15.3183 316.44 -15.3223 315.466 -15.9237 314.869C-16.525 314.272 -17.4992 314.277 -18.0958 314.878C-18.6924 315.479 -18.6844 316.449 -18.083 317.046C-17.4817 317.643 -16.5119 317.643 -15.9149 317.041ZM-13.4779 314.403C-12.881 313.801 -12.889 312.831 -13.4907 312.235C-14.092 311.638 -15.0619 311.638 -15.6585 312.239C-16.255 312.841 -16.2514 313.815 -15.6497 314.411C-15.0483 315.008 -14.0745 315.004 -13.4779 314.403Z" fill="#1A1A1A"/>
<path d="M-10.7091 299.334C-9.89075 298.875 -9.17475 298.261 -8.65026 297.449C-8.46803 297.167 -8.31207 296.865 -8.18728 296.553C-8.05602 296.226 -7.95711 295.889 -7.92 295.538C-7.7822 294.237 -8.53256 293.248 -9.45775 292.428C-9.97965 291.966 -10.5476 291.558 -11.0866 291.117C-11.4678 290.805 -11.8463 290.465 -12.1352 290.062C-12.3235 289.799 -12.4651 289.501 -12.5843 289.2C-13.1054 287.891 -13.0392 286.438 -13.0071 285.056C-12.9923 284.409 -12.995 283.767 -13.0452 283.128C-12.6489 283.125 -12.2491 283.112 -11.8632 283.141C-11.2916 282.571 -11.1369 281.933 -11.1702 280.755C-11.1739 280.621 -11.1855 280.387 -11.1999 280.084C-11.2443 279.882 -11.3238 279.584 -11.3434 279.448C-11.7966 276.28 -12.8679 267.717 -15.5058 264.355C-15.5876 264.371 -15.6639 264.381 -15.7466 264.399C-17.1898 264.701 -18.3546 265.042 -20.8814 265.855C-24.5592 267.038 -27.8928 268.607 -31.9252 270.953C-38.4612 274.756 -41.3379 277.492 -43.6544 282.72C-41.7065 286.327 -34.8701 290.996 -32.368 292.904C-31.9446 293.142 -31.4045 293.45 -31.1905 293.559C-30.5794 293.872 -30.1298 294.005 -29.6978 293.953C-29.5777 293.67 -29.4499 293.407 -29.3233 293.137C-28.8673 293.652 -28.3773 294.138 -27.8626 294.592C-26.7023 295.614 -25.4395 296.52 -24.1255 297.333C-22.8171 298.143 -21.447 298.862 -20.0238 299.449C-18.5061 300.075 -16.8967 300.592 -15.2378 300.505C-13.7207 300.424 -12.0726 300.098 -10.7091 299.334ZM-10.9431 298.357C-12.306 299.199 -14.0801 299.5 -15.6195 299.547C-16.2764 299.568 -16.9434 299.43 -17.5749 299.263C-18.2835 299.076 -18.9726 298.829 -19.6493 298.548C-21.0225 297.979 -22.343 297.275 -23.6058 296.492C-24.9282 295.673 -26.2027 294.763 -27.3594 293.721C-27.8898 293.243 -28.3921 292.732 -28.8465 292.182C-28.1819 290.933 -27.4312 289.829 -26.5324 288.879C-23.4819 285.651 -18.5376 283.449 -13.9869 283.145C-13.9206 283.961 -13.9428 284.79 -13.9567 285.612C-13.9829 287.154 -13.9261 288.737 -13.1872 290.132C-12.4424 291.537 -10.9585 292.283 -9.84753 293.351C-9.26956 293.905 -8.77357 294.598 -8.86509 295.438C-8.89408 295.702 -8.97316 295.951 -9.07189 296.196C-9.45767 297.151 -10.1252 297.851 -10.9431 298.357Z" fill="#1A1A1A"/>
<path d="M14.9085 267.676C16.091 267.388 16.8116 266.193 16.523 265.01L10.8269 241.67C10.5383 240.488 9.34826 239.759 8.16584 240.048L-3.08823 242.795C-4.27066 243.083 -4.99126 244.278 -4.70268 245.46L0.993461 268.8C1.28203 269.983 2.47209 270.711 3.65452 270.423L14.9085 267.676ZM14.9063 266.933C14.2254 267.099 13.5382 266.687 13.372 266.006C13.2058 265.326 13.6244 264.637 14.3052 264.471C14.9861 264.304 15.6685 264.725 15.8346 265.405C16.0007 266.086 15.5871 266.767 14.9063 266.933ZM11.363 265.843C10.6821 266.009 9.99971 265.589 9.83363 264.908C9.66743 264.227 10.0795 263.54 10.7604 263.374C11.4412 263.207 12.1301 263.626 12.2962 264.307C12.4624 264.988 12.0439 265.677 11.363 265.843ZM13.9262 262.918C13.2454 263.084 12.5566 262.665 12.3904 261.984C12.2242 261.304 12.6444 260.621 13.3252 260.455C14.0061 260.289 14.6869 260.703 14.853 261.383C15.0192 262.064 14.6071 262.751 13.9262 262.918Z" fill="#1A1A1A"/>
<path d="M57.1094 302.32L58.4548 289.753C58.1522 289.802 57.8427 289.83 57.5235 289.796L52.9558 289.307C52.6366 289.273 52.3347 289.177 52.0495 289.066L50.7041 301.632L57.1094 302.32ZM59.9377 287.915C60.3141 287.469 60.5666 286.908 60.6332 286.284L61.0534 282.337C61.2314 280.674 60.0279 279.181 58.3643 279.003L54.4133 278.579C52.7497 278.401 51.2613 279.609 51.0835 281.272L50.6587 285.215C50.4808 286.879 51.6842 288.371 53.3479 288.549L57.2989 288.973C58.3388 289.085 59.3105 288.658 59.9377 287.915ZM59.6578 278.483L61.111 264.889L54.7104 264.205L53.2574 277.799C53.5596 277.75 53.8702 277.731 54.1894 277.765L58.7573 278.253C59.0765 278.287 59.3726 278.371 59.6578 278.483Z" fill="#1A1A1A"/>
<path d="M45.0659 264.619L44.4514 261.927L40.5053 262.032L39.8239 264.5L43.1088 266.789L45.0659 264.619ZM42.4335 261.213C42.4547 256.796 39.5147 252.856 35.1961 251.664C29.9466 250.214 24.5155 253.295 23.0659 258.544C21.6163 263.794 24.697 269.225 29.9466 270.675C34.2215 271.855 38.7203 270.034 40.9923 266.301L39.881 265.626C37.9099 268.865 34.0034 270.443 30.2935 269.418C25.7377 268.16 23.0641 263.447 24.3221 258.891C25.5801 254.335 30.2935 251.662 34.8493 252.92C38.597 253.955 41.1493 257.377 41.1309 261.209L42.4335 261.213Z" fill="#1A1A1A"/>
<path d="M84.9366 368.382C85.7938 368.127 85.0468 363.982 84.9365 363.292C84.2504 358.997 82.774 354.555 82.6638 350.21C81.9754 349.987 81.5894 349.876 81.1668 349.802C80.4044 349.667 79.6003 349.581 78.7566 349.503C78.7884 349.649 78.8587 349.929 78.8688 350.021C79.1501 352.587 79.6528 357.179 77.7746 359.287C75.0596 358.844 72.3358 358.449 69.8082 357.29C67.1697 356.08 64.6946 354.054 62.4218 352.249C61.539 351.548 60.6925 350.575 59.6239 350.151C59.0459 349.921 58.3635 349.813 57.6562 349.746C53.9957 350.169 50.551 350.83 47.2199 351.797C46.6649 351.958 46.2203 352.063 45.2185 352.287C45.1235 352.308 45.0775 352.318 45.025 352.33C44.1109 352.535 43.4521 352.708 42.8931 352.888C42.9549 353.008 43.078 353.242 43.099 353.292C44.1962 355.898 47.2649 358.328 49.7783 359.512C58.8 363.765 68.1471 365.025 77.954 366.199C79.6124 366.397 81.3365 366.707 82.8942 367.324C83.1908 367.442 84.7061 368.451 84.9366 368.382Z" fill="#1A1A1A"/>
<path d="M33.2909 370.334C34.1092 369.875 34.8253 369.261 35.3497 368.449C35.532 368.167 35.6879 367.865 35.8127 367.553C35.944 367.226 36.0429 366.889 36.08 366.538C36.2178 365.237 35.4674 364.248 34.5422 363.428C34.0204 362.966 33.4524 362.558 32.9134 362.117C32.5322 361.805 32.1537 361.465 31.8648 361.062C31.6765 360.799 31.5349 360.501 31.4157 360.2C30.8946 358.891 30.9608 357.438 30.9929 356.056C31.0077 355.409 31.005 354.767 30.9548 354.128C31.3511 354.125 31.7509 354.112 32.1368 354.141C32.7084 353.571 32.8631 352.933 32.8298 351.755C32.8261 351.621 32.8145 351.387 32.8001 351.084C32.7557 350.882 32.6762 350.584 32.6566 350.448C32.2034 347.28 31.1321 338.717 28.4942 335.355C28.4124 335.371 28.3361 335.381 28.2534 335.399C26.8102 335.701 25.6454 336.042 23.1186 336.855C19.4408 338.038 16.1072 339.607 12.0748 341.953C5.53876 345.756 2.66205 348.492 0.345636 353.72C2.29354 357.327 9.12986 361.996 11.632 363.904C12.0554 364.142 12.5955 364.45 12.8095 364.559C13.4206 364.872 13.8702 365.005 14.3022 364.953C14.4223 364.67 14.5501 364.407 14.6767 364.137C15.1327 364.652 15.6227 365.138 16.1374 365.592C17.2977 366.614 18.5605 367.52 19.8745 368.333C21.1829 369.143 22.553 369.862 23.9762 370.449C25.4939 371.075 27.1033 371.592 28.7622 371.505C30.2793 371.424 31.9274 371.098 33.2909 370.334ZM33.0569 369.357C31.694 370.199 29.9199 370.5 28.3805 370.547C27.7236 370.568 27.0566 370.43 26.4251 370.263C25.7165 370.076 25.0274 369.829 24.3507 369.548C22.9775 368.979 21.657 368.275 20.3942 367.492C19.0718 366.673 17.7973 365.763 16.6406 364.721C16.1102 364.243 15.6079 363.732 15.1535 363.182C15.8181 361.933 16.5688 360.829 17.4676 359.879C20.5181 356.651 25.4624 354.449 30.0131 354.145C30.0794 354.961 30.0572 355.79 30.0433 356.612C30.0171 358.154 30.0739 359.737 30.8128 361.132C31.5576 362.537 33.0415 363.283 34.1525 364.351C34.7304 364.905 35.2264 365.598 35.1349 366.438C35.1059 366.702 35.0268 366.951 34.9281 367.196C34.5423 368.151 33.8748 368.851 33.0569 369.357Z" fill="#1A1A1A"/>
<path d="M58.9085 338.676C60.091 338.388 60.8116 337.193 60.523 336.01L54.8269 312.67C54.5383 311.488 53.3483 310.759 52.1658 311.048L40.9118 313.795C39.7293 314.083 39.0087 315.278 39.2973 316.46L44.9935 339.8C45.282 340.983 46.4721 341.711 47.6545 341.423L58.9085 338.676ZM58.9063 337.933C58.2254 338.099 57.5382 337.687 57.372 337.006C57.2058 336.326 57.6244 335.637 58.3052 335.471C58.9861 335.304 59.6685 335.725 59.8346 336.405C60.0007 337.086 59.5871 337.767 58.9063 337.933ZM55.363 336.843C54.6821 337.009 53.9997 336.589 53.8336 335.908C53.6674 335.227 54.0795 334.54 54.7604 334.374C55.4412 334.207 56.1301 334.626 56.2962 335.307C56.4624 335.988 56.0439 336.677 55.363 336.843ZM57.9262 333.918C57.2454 334.084 56.5566 333.665 56.3904 332.984C56.2242 332.304 56.6444 331.621 57.3252 331.455C58.0061 331.289 58.6869 331.703 58.853 332.383C59.0192 333.064 58.6071 333.751 57.9262 333.918Z" fill="#1A1A1A"/>
<path d="M101.109 373.32L102.455 360.753C102.152 360.802 101.843 360.83 101.524 360.796L96.9558 360.307C96.6366 360.273 96.3347 360.177 96.0495 360.066L94.7041 372.632L101.109 373.32ZM103.938 358.915C104.314 358.469 104.567 357.908 104.633 357.284L105.053 353.337C105.231 351.674 104.028 350.181 102.364 350.003L98.4133 349.579C96.7497 349.401 95.2613 350.609 95.0835 352.272L94.6587 356.215C94.4808 357.879 95.6842 359.371 97.3479 359.549L101.299 359.973C102.339 360.085 103.311 359.658 103.938 358.915ZM103.658 349.483L105.111 335.889L98.7104 335.205L97.2574 348.799C97.5596 348.75 97.8702 348.731 98.1894 348.765L102.757 349.253C103.076 349.287 103.373 349.371 103.658 349.483Z" fill="#1A1A1A"/>
<path d="M89.0659 335.619L88.4514 332.927L84.5053 333.032L83.8239 335.5L87.1088 337.789L89.0659 335.619ZM86.4335 332.213C86.4547 327.796 83.5147 323.856 79.1961 322.664C73.9466 321.214 68.5155 324.295 67.0659 329.544C65.6163 334.794 68.697 340.225 73.9466 341.675C78.2215 342.855 82.7203 341.034 84.9923 337.301L83.881 336.626C81.9099 339.865 78.0034 341.443 74.2935 340.418C69.7377 339.16 67.0641 334.447 68.3221 329.891C69.5801 325.335 74.2935 322.662 78.8493 323.92C82.597 324.955 85.1493 328.377 85.1309 332.209L86.4335 332.213Z" fill="#1A1A1A"/>
<path d="M359.937 315.382C360.794 315.127 360.047 310.982 359.937 310.292C359.25 305.997 357.774 301.555 357.664 297.21C356.975 296.987 356.589 296.876 356.167 296.802C355.404 296.667 354.6 296.581 353.757 296.503C353.788 296.649 353.859 296.929 353.869 297.021C354.15 299.587 354.653 304.179 352.775 306.287C350.06 305.844 347.336 305.449 344.808 304.29C342.17 303.08 339.695 301.054 337.422 299.249C336.539 298.548 335.692 297.575 334.624 297.151C334.046 296.921 333.364 296.813 332.656 296.746C328.996 297.169 325.551 297.83 322.22 298.797C321.665 298.958 321.22 299.063 320.219 299.287C320.123 299.308 320.077 299.318 320.025 299.33C319.111 299.535 318.452 299.708 317.893 299.888C317.955 300.008 318.078 300.242 318.099 300.292C319.196 302.898 322.265 305.328 324.778 306.512C333.8 310.765 343.147 312.025 352.954 313.199C354.612 313.397 356.336 313.707 357.894 314.324C358.191 314.442 359.706 315.451 359.937 315.382Z" fill="#1A1A1A"/>
<path d="M339.99 350.114C342.435 348.369 344.53 345.886 345.713 343.151C346.877 340.456 346.706 336.732 345.817 333.98C345.565 333.2 345.167 332.259 344.893 331.312C344.876 331.322 344.859 331.329 344.843 331.339C344.734 330.729 344.598 330.067 344.264 329.818C344.112 329.705 343.618 329.947 343.462 329.978C342.784 330.113 341.969 330.04 341.271 330.016C341.241 330.015 341.215 329.999 341.185 329.997C343.226 329.363 345.783 327.606 347.231 325.916C347.88 325.06 348.482 324.179 349.077 323.3C350.326 321.322 351.956 318.06 349.487 318.473C348.468 318.644 347.535 320.31 346.777 320.915C344.884 322.426 341.882 323.393 339.51 323.69C336.826 324.026 332.046 321.209 330.14 322.305C328.872 323.036 329.141 324.484 328.845 325.765C328.487 327.313 328.04 328.569 327.319 329.706C327.286 329.895 327.221 330.084 327.104 330.254C327.091 330.274 327.098 330.278 327.084 330.297C326.451 331.219 323.769 334.824 323.186 335.653C320.264 339.806 318.798 343.08 318.82 346.169C319.534 347.05 320.577 347.732 321.336 348.535C323.274 350.584 325.735 352.372 328.463 353.248C329.123 353.327 330.015 353.475 330.597 353.489C331.851 353.521 333.096 353.175 335.104 352.337C335.308 352.252 336.695 351.666 337.025 351.533C338.106 351.097 339.056 350.611 339.99 350.114Z" fill="#1A1A1A"/>
<path d="M318.14 328.35C318.736 327.749 318.732 326.775 318.131 326.178C317.53 325.581 316.556 325.585 315.959 326.187C315.362 326.788 315.37 327.758 315.972 328.355C316.573 328.951 317.543 328.951 318.14 328.35ZM301.459 345.164C302.056 344.562 302.052 343.589 301.45 342.992C300.849 342.395 299.875 342.399 299.278 343.001C298.682 343.602 298.69 344.572 299.291 345.168C299.893 345.765 300.862 345.765 301.459 345.164ZM314.922 328.124C315.518 327.523 315.51 326.553 314.909 325.956C314.308 325.36 313.338 325.359 312.741 325.961C312.145 326.562 312.148 327.536 312.75 328.133C313.351 328.729 314.325 328.726 314.922 328.124ZM301.212 341.944C301.808 341.342 301.805 340.368 301.203 339.771C300.602 339.175 299.628 339.179 299.031 339.78C298.434 340.382 298.438 341.356 299.04 341.952C299.641 342.549 300.615 342.545 301.212 341.944ZM311.357 328.504C311.953 327.903 311.954 326.933 311.352 326.336C310.751 325.74 309.777 325.744 309.18 326.345C308.583 326.947 308.587 327.921 309.189 328.517C309.79 329.114 310.76 329.106 311.357 328.504ZM301.564 338.375C302.16 337.774 302.157 336.808 301.555 336.212C300.954 335.615 299.984 335.615 299.387 336.216C298.791 336.817 298.794 337.792 299.396 338.388C299.997 338.985 300.967 338.977 301.564 338.375ZM308.035 330.052C308.631 329.451 308.624 328.481 308.022 327.884C307.42 327.288 306.451 327.287 305.854 327.889C305.257 328.49 305.261 329.464 305.862 330.061C306.464 330.657 307.438 330.654 308.035 330.052ZM303.085 335.041C303.682 334.44 303.678 333.466 303.076 332.869C302.475 332.272 301.501 332.277 300.904 332.878C300.308 333.479 300.316 334.449 300.917 335.046C301.518 335.643 302.488 335.643 303.085 335.041ZM305.522 332.403C306.119 331.801 306.111 330.831 305.509 330.235C304.908 329.638 303.938 329.638 303.342 330.239C302.745 330.841 302.749 331.815 303.35 332.411C303.952 333.008 304.926 333.004 305.522 332.403Z" fill="#1A1A1A"/>
<path d="M308.291 317.334C309.109 316.875 309.825 316.261 310.35 315.449C310.532 315.167 310.688 314.865 310.813 314.553C310.944 314.226 311.043 313.889 311.08 313.538C311.218 312.237 310.467 311.248 309.542 310.428C309.02 309.966 308.452 309.558 307.913 309.117C307.532 308.805 307.154 308.465 306.865 308.062C306.676 307.799 306.535 307.501 306.416 307.2C305.895 305.891 305.961 304.438 305.993 303.056C306.008 302.409 306.005 301.767 305.955 301.128C306.351 301.125 306.751 301.112 307.137 301.141C307.708 300.571 307.863 299.933 307.83 298.755C307.826 298.621 307.814 298.387 307.8 298.084C307.756 297.882 307.676 297.584 307.657 297.448C307.203 294.28 306.132 285.717 303.494 282.355C303.412 282.371 303.336 282.381 303.253 282.399C301.81 282.701 300.645 283.042 298.119 283.855C294.441 285.038 291.107 286.607 287.075 288.953C280.539 292.756 277.662 295.492 275.346 300.72C277.294 304.327 284.13 308.996 286.632 310.904C287.055 311.142 287.595 311.45 287.809 311.559C288.421 311.872 288.87 312.005 289.302 311.953C289.422 311.67 289.55 311.407 289.677 311.137C290.133 311.652 290.623 312.138 291.137 312.592C292.298 313.614 293.56 314.52 294.875 315.333C296.183 316.143 297.553 316.862 298.976 317.449C300.494 318.075 302.103 318.592 303.762 318.505C305.279 318.424 306.927 318.098 308.291 317.334ZM308.057 316.357C306.694 317.199 304.92 317.5 303.38 317.547C302.724 317.568 302.057 317.43 301.425 317.263C300.716 317.076 300.027 316.829 299.351 316.548C297.977 315.979 296.657 315.275 295.394 314.492C294.072 313.673 292.797 312.763 291.641 311.721C291.11 311.243 290.608 310.732 290.154 310.182C290.818 308.933 291.569 307.829 292.468 306.879C295.518 303.651 300.462 301.449 305.013 301.145C305.079 301.961 305.057 302.79 305.043 303.612C305.017 305.154 305.074 306.737 305.813 308.132C306.558 309.537 308.042 310.283 309.152 311.351C309.73 311.905 310.226 312.598 310.135 313.438C310.106 313.702 310.027 313.951 309.928 314.196C309.542 315.151 308.875 315.851 308.057 316.357Z" fill="#1A1A1A"/>
<path d="M333.909 285.676C335.091 285.388 335.812 284.193 335.523 283.01L329.827 259.67C329.538 258.488 328.348 257.759 327.166 258.048L315.912 260.795C314.729 261.083 314.009 262.278 314.297 263.46L319.993 286.8C320.282 287.983 321.472 288.711 322.655 288.423L333.909 285.676ZM333.906 284.933C333.225 285.099 332.538 284.687 332.372 284.006C332.206 283.326 332.624 282.637 333.305 282.471C333.986 282.304 334.668 282.725 334.835 283.405C335.001 284.086 334.587 284.767 333.906 284.933ZM330.363 283.843C329.682 284.009 329 283.589 328.834 282.908C328.667 282.227 329.079 281.54 329.76 281.374C330.441 281.207 331.13 281.626 331.296 282.307C331.462 282.988 331.044 283.677 330.363 283.843ZM332.926 280.918C332.245 281.084 331.557 280.665 331.39 279.984C331.224 279.304 331.644 278.621 332.325 278.455C333.006 278.289 333.687 278.703 333.853 279.383C334.019 280.064 333.607 280.751 332.926 280.918Z" fill="#1A1A1A"/>
<path d="M376.109 320.32L377.455 307.753C377.152 307.802 376.843 307.83 376.524 307.796L371.956 307.307C371.637 307.273 371.335 307.177 371.05 307.066L369.704 319.632L376.109 320.32ZM378.938 305.915C379.314 305.469 379.567 304.908 379.633 304.284L380.053 300.337C380.231 298.674 379.028 297.181 377.364 297.003L373.413 296.579C371.75 296.401 370.261 297.609 370.083 299.272L369.659 303.215C369.481 304.879 370.684 306.371 372.348 306.549L376.299 306.973C377.339 307.085 378.311 306.658 378.938 305.915ZM378.658 296.483L380.111 282.889L373.71 282.205L372.257 295.799C372.56 295.75 372.87 295.731 373.189 295.765L377.757 296.253C378.076 296.287 378.373 296.371 378.658 296.483Z" fill="#1A1A1A"/>
<path d="M364.066 282.619L363.451 279.927L359.505 280.032L358.824 282.5L362.109 284.789L364.066 282.619ZM361.434 279.213C361.455 274.796 358.515 270.856 354.196 269.664C348.947 268.214 343.515 271.295 342.066 276.544C340.616 281.794 343.697 287.225 348.947 288.675C353.222 289.855 357.72 288.034 359.992 284.301L358.881 283.626C356.91 286.865 353.003 288.443 349.293 287.418C344.738 286.16 342.064 281.447 343.322 276.891C344.58 272.335 349.293 269.662 353.849 270.92C357.597 271.955 360.149 275.377 360.131 279.209L361.434 279.213Z" fill="#1A1A1A"/>
<path d="M376.937 73.3821C377.794 73.1272 377.047 68.9823 376.937 68.292C376.25 63.9973 374.774 59.5554 374.664 55.2104C373.975 54.9867 373.589 54.8763 373.167 54.8015C372.404 54.6666 371.6 54.5813 370.757 54.5032C370.788 54.6494 370.859 54.9286 370.869 55.0214C371.15 57.5866 371.653 62.1785 369.775 64.287C367.06 63.844 364.336 63.4492 361.808 62.29C359.17 61.0798 356.695 59.054 354.422 57.2487C353.539 56.5475 352.692 55.575 351.624 55.1505C351.046 54.921 350.364 54.8128 349.656 54.7461C345.996 55.1686 342.551 55.83 339.22 56.7966C338.665 56.9576 338.22 57.0631 337.219 57.2872C337.123 57.3085 337.077 57.3181 337.025 57.3299C336.111 57.5349 335.452 57.7082 334.893 57.8885C334.955 58.0085 335.078 58.2417 335.099 58.2916C336.196 60.8977 339.265 63.3276 341.778 64.5123C350.8 68.7647 360.147 70.0252 369.954 71.1987C371.612 71.3971 373.336 71.7066 374.894 72.3241C375.191 72.4417 376.706 73.4511 376.937 73.3821Z" fill="#1A1A1A"/>
<path d="M356.99 108.114C359.435 106.369 361.53 103.886 362.713 101.151C363.877 98.4556 363.706 94.7323 362.817 91.9802C362.565 91.2004 362.167 90.2591 361.893 89.3117C361.876 89.3215 361.859 89.3293 361.843 89.3387C361.734 88.7288 361.598 88.0668 361.264 87.8178C361.112 87.7048 360.618 87.9469 360.462 87.9778C359.784 88.1132 358.969 88.0401 358.271 88.0162C358.241 88.0152 358.215 87.9991 358.185 87.9974C360.226 87.3629 362.783 85.6058 364.231 83.9165C364.88 83.0604 365.482 82.1792 366.077 81.2996C367.326 79.3225 368.956 76.0602 366.487 76.4733C365.468 76.6439 364.535 78.3097 363.777 78.9147C361.884 80.4256 358.882 81.3926 356.51 81.6899C353.826 82.026 349.046 79.2085 347.14 80.3054C345.872 81.0358 346.141 82.4838 345.845 83.7649C345.487 85.3134 345.04 86.5685 344.319 87.7057C344.286 87.8955 344.221 88.0844 344.104 88.254C344.091 88.2737 344.098 88.2778 344.084 88.2975C343.451 89.2189 340.769 92.824 340.186 93.6528C337.264 97.8059 335.798 101.08 335.82 104.169C336.534 105.05 337.577 105.732 338.336 106.535C340.274 108.584 342.735 110.372 345.463 111.248C346.123 111.327 347.015 111.475 347.597 111.489C348.851 111.521 350.096 111.175 352.104 110.337C352.308 110.252 353.695 109.666 354.025 109.533C355.106 109.097 356.056 108.611 356.99 108.114Z" fill="#1A1A1A"/>
<path d="M335.14 86.3499C335.736 85.7486 335.732 84.7748 335.131 84.1781C334.53 83.5813 333.556 83.5849 332.959 84.1868C332.362 84.7881 332.37 85.7579 332.972 86.3547C333.573 86.951 334.543 86.9512 335.14 86.3499ZM318.459 103.164C319.056 102.562 319.052 101.589 318.45 100.992C317.849 100.395 316.875 100.399 316.278 101.001C315.682 101.602 315.69 102.572 316.291 103.168C316.893 103.765 317.862 103.765 318.459 103.164ZM331.922 86.1242C332.518 85.5229 332.51 84.5531 331.909 83.9564C331.308 83.3596 330.338 83.3593 329.741 83.9606C329.145 84.5619 329.148 85.5362 329.75 86.1329C330.351 86.7292 331.325 86.7256 331.922 86.1242ZM318.212 99.9436C318.808 99.3423 318.805 98.368 318.203 97.7713C317.602 97.175 316.628 97.1786 316.031 97.78C315.434 98.3818 315.438 99.3555 316.04 99.9523C316.641 100.549 317.615 100.545 318.212 99.9436ZM328.357 86.5045C328.953 85.9032 328.954 84.9333 328.352 84.3365C327.751 83.7397 326.777 83.7439 326.18 84.3452C325.583 84.9465 325.587 85.9208 326.189 86.517C326.79 87.1138 327.76 87.1058 328.357 86.5045ZM318.564 96.3753C319.16 95.774 319.157 94.808 318.555 94.2118C317.954 93.615 316.984 93.6147 316.387 94.216C315.791 94.8173 315.794 95.7916 316.396 96.3884C316.997 96.9847 317.967 96.9772 318.564 96.3753ZM325.035 88.0523C325.631 87.4509 325.624 86.4806 325.022 85.8843C324.42 85.2876 323.451 85.2873 322.854 85.8886C322.257 86.49 322.261 87.4642 322.862 88.061C323.464 88.6572 324.438 88.6536 325.035 88.0523ZM320.085 93.0411C320.682 92.4397 320.678 91.466 320.076 90.8692C319.475 90.2725 318.501 90.2766 317.904 90.8779C317.308 91.4793 317.316 92.4491 317.917 93.0459C318.518 93.6426 319.488 93.6429 320.085 93.0411ZM322.522 90.403C323.119 89.8012 323.111 88.8314 322.509 88.2352C321.908 87.6384 320.938 87.6381 320.342 88.2394C319.745 88.8408 319.749 89.815 320.35 90.4113C320.952 91.0081 321.926 91.0044 322.522 90.403Z" fill="#1A1A1A"/>
<path d="M325.291 75.334C326.109 74.8755 326.825 74.2605 327.35 73.4491C327.532 73.167 327.688 72.8646 327.813 72.5534C327.944 72.2265 328.043 71.889 328.08 71.5381C328.218 70.2375 327.467 69.2479 326.542 68.428C326.02 67.966 325.452 67.5583 324.913 67.1172C324.532 66.8046 324.154 66.4645 323.865 66.0623C323.676 65.7987 323.535 65.5009 323.416 65.2004C322.895 63.891 322.961 62.4379 322.993 61.056C323.008 60.4093 323.005 59.7667 322.955 59.1284C323.351 59.1255 323.751 59.1122 324.137 59.141C324.708 58.5707 324.863 57.9327 324.83 56.7548C324.826 56.621 324.814 56.3872 324.8 56.0837C324.756 55.8822 324.676 55.5838 324.657 55.4476C324.203 52.28 323.132 43.7167 320.494 40.3551C320.412 40.3713 320.336 40.3812 320.253 40.3985C318.81 40.7008 317.645 41.0419 315.119 41.8549C311.441 43.0383 308.107 44.6073 304.075 46.9534C297.539 50.7561 294.662 53.4917 292.346 58.7196C294.294 62.3267 301.13 66.9958 303.632 68.9038C304.055 69.142 304.595 69.4497 304.809 69.5591C305.421 69.872 305.87 70.0046 306.302 69.9527C306.422 69.6698 306.55 69.4074 306.677 69.1374C307.133 69.6516 307.623 70.1381 308.137 70.5919C309.298 71.614 310.56 72.5199 311.875 73.333C313.183 74.1428 314.553 74.862 315.976 75.4491C317.494 76.0755 319.103 76.5922 320.762 76.5046C322.279 76.4243 323.927 76.0976 325.291 75.334ZM325.057 74.3568C323.694 75.1986 321.92 75.4996 320.38 75.5472C319.724 75.5677 319.057 75.4303 318.425 75.2633C317.716 75.0755 317.027 74.8287 316.351 74.5479C314.977 73.9794 313.657 73.2747 312.394 72.4925C311.072 71.6733 309.797 70.7628 308.641 69.7206C308.11 69.2435 307.608 68.7323 307.154 68.1816C307.818 66.9327 308.569 65.8294 309.468 64.8786C312.518 61.6506 317.462 59.4485 322.013 59.1454C322.079 59.9611 322.057 60.7901 322.043 61.6122C322.017 63.1544 322.074 64.7374 322.813 66.1319C323.558 67.5366 325.042 68.2834 326.152 69.3507C326.73 69.905 327.226 70.5979 327.135 71.4381C327.106 71.7021 327.027 71.9513 326.928 72.1961C326.542 73.1511 325.875 73.8514 325.057 74.3568Z" fill="#1A1A1A"/>
<path d="M350.909 43.6762C352.091 43.3876 352.812 42.1927 352.523 41.0103L346.827 17.6704C346.538 16.488 345.348 15.7593 344.166 16.0479L332.912 18.7945C331.729 19.0831 331.009 20.2781 331.297 21.4605L336.993 44.8003C337.282 45.9827 338.472 46.7114 339.655 46.4228L350.909 43.6762ZM350.906 42.9333C350.225 43.0994 349.538 42.6873 349.372 42.0065C349.206 41.3256 349.624 40.6368 350.305 40.4706C350.986 40.3044 351.668 40.7246 351.835 41.4055C352.001 42.0863 351.587 42.7671 350.906 42.9333ZM347.363 41.8427C346.682 42.0089 346 41.5888 345.834 40.9079C345.667 40.227 346.079 39.5398 346.76 39.3736C347.441 39.2074 348.13 39.626 348.296 40.3068C348.462 40.9877 348.044 41.6765 347.363 41.8427ZM349.926 38.9177C349.245 39.0838 348.557 38.6652 348.39 37.9844C348.224 37.3035 348.644 36.6213 349.325 36.455C350.006 36.2889 350.687 36.7026 350.853 37.3834C351.019 38.0643 350.607 38.7515 349.926 38.9177Z" fill="#1A1A1A"/>
<path d="M381.066 40.6192L380.451 37.9266L376.505 38.032L375.824 40.4995L379.109 42.7887L381.066 40.6192ZM378.434 37.2125C378.455 32.7962 375.515 28.8561 371.196 27.6635C365.947 26.214 360.515 29.2947 359.066 34.5443C357.616 39.7938 360.697 45.2249 365.947 46.6745C370.222 47.855 374.72 46.034 376.992 42.3009L375.881 41.6258C373.91 44.8647 370.003 46.4427 366.293 45.4184C361.738 44.1603 359.064 39.4469 360.322 34.8911C361.58 30.3354 366.293 27.6617 370.849 28.9197C374.597 29.9546 377.149 33.3775 377.131 37.2089L378.434 37.2125Z" fill="#1A1A1A"/>
<path d="M320.937 -6.61785C321.794 -6.8728 321.047 -11.0177 320.937 -11.708C320.25 -16.0027 318.774 -20.4446 318.664 -24.7896C317.975 -25.0133 317.589 -25.1237 317.167 -25.1985C316.404 -25.3334 315.6 -25.4187 314.757 -25.4968C314.788 -25.3506 314.859 -25.0714 314.869 -24.9786C315.15 -22.4134 315.653 -17.8215 313.775 -15.713C311.06 -16.156 308.336 -16.5508 305.808 -17.71C303.17 -18.9202 300.695 -20.946 298.422 -22.7513C297.539 -23.4525 296.692 -24.425 295.624 -24.8495C295.046 -25.079 294.364 -25.1872 293.656 -25.2539C289.996 -24.8314 286.551 -24.17 283.22 -23.2034C282.665 -23.0424 282.22 -22.9369 281.219 -22.7128C281.123 -22.6915 281.077 -22.6819 281.025 -22.6701C280.111 -22.4651 279.452 -22.2918 278.893 -22.1115C278.955 -21.9915 279.078 -21.7583 279.099 -21.7084C280.196 -19.1023 283.265 -16.6724 285.778 -15.4877C294.8 -11.2353 304.147 -9.97483 313.954 -8.80129C315.612 -8.60287 317.336 -8.29336 318.894 -7.67586C319.191 -7.55828 320.706 -6.54894 320.937 -6.61785Z" fill="#1A1A1A"/>
<path d="M300.99 28.114C303.435 26.369 305.53 23.8859 306.713 21.1507C307.877 18.4556 307.706 14.7323 306.817 11.9802C306.565 11.2004 306.167 10.2591 305.893 9.3117C305.876 9.32153 305.859 9.32933 305.843 9.33874C305.734 8.72879 305.598 8.06685 305.264 7.81779C305.112 7.70484 304.618 7.94689 304.462 7.97775C303.784 8.11315 302.969 8.04014 302.271 8.01624C302.241 8.01522 302.215 7.99912 302.185 7.99739C304.226 7.36291 306.783 5.60584 308.231 3.91648C308.88 3.06038 309.482 2.17923 310.077 1.29965C311.326 -0.67752 312.956 -3.93981 310.487 -3.52666C309.468 -3.35614 308.535 -1.69031 307.777 -1.08531C305.884 0.425614 302.882 1.39263 300.51 1.68993C297.826 2.02602 293.046 -0.791472 291.14 0.305445C289.872 1.03578 290.141 2.48381 289.845 3.76485C289.487 5.31338 289.04 6.56854 288.319 7.70565C288.286 7.89548 288.221 8.08435 288.104 8.25399C288.091 8.27369 288.098 8.2778 288.084 8.29746C287.451 9.21889 284.769 12.824 284.186 13.6528C281.264 17.8059 279.798 21.0799 279.82 24.169C280.534 25.0503 281.577 25.7319 282.336 26.5351C284.274 28.5843 286.735 30.3717 289.463 31.2484C290.123 31.3272 291.015 31.4749 291.597 31.4893C292.851 31.5212 294.096 31.1747 296.104 30.3371C296.308 30.2517 297.695 29.6664 298.025 29.5332C299.106 29.0966 300.056 28.6113 300.99 28.114Z" fill="#1A1A1A"/>
<path d="M279.14 6.3499C279.736 5.74858 279.732 4.77485 279.131 4.17807C278.53 3.58129 277.556 3.58495 276.959 4.18676C276.362 4.78808 276.37 5.75788 276.972 6.35466C277.573 6.95098 278.543 6.95122 279.14 6.3499ZM262.459 23.1637C263.056 22.5623 263.052 21.5886 262.45 20.9918C261.849 20.395 260.875 20.3987 260.278 21.0005C259.682 21.6018 259.69 22.5716 260.291 23.1684C260.893 23.7647 261.862 23.765 262.459 23.1637ZM275.922 6.12425C276.518 5.52293 276.51 4.55313 275.909 3.95635C275.308 3.35957 274.338 3.3593 273.741 3.96062C273.145 4.56194 273.148 5.53617 273.75 6.13295C274.351 6.72923 275.325 6.72557 275.922 6.12425ZM262.212 19.9436C262.808 19.3423 262.805 18.368 262.203 17.7713C261.602 17.175 260.628 17.1786 260.031 17.78C259.434 18.3818 259.438 19.3555 260.04 19.9523C260.641 20.5491 261.615 20.5449 262.212 19.9436ZM272.357 6.5045C272.953 5.90318 272.954 4.93329 272.352 4.33648C271.751 3.73973 270.777 3.74389 270.18 4.34521C269.583 4.94653 269.587 5.92076 270.189 6.51705C270.79 7.11383 271.76 7.10582 272.357 6.5045ZM262.564 16.3753C263.16 15.774 263.157 14.808 262.555 14.2118C261.954 13.615 260.984 13.6147 260.387 14.216C259.791 14.8173 259.794 15.7916 260.396 16.3884C260.997 16.9847 261.967 16.9772 262.564 16.3753ZM269.035 8.05227C269.631 7.45091 269.624 6.48062 269.022 5.88434C268.42 5.28756 267.451 5.28728 266.854 5.8886C266.257 6.48996 266.261 7.46419 266.862 8.06097C267.464 8.65725 268.438 8.65359 269.035 8.05227ZM264.085 13.0411C264.682 12.4397 264.678 11.466 264.076 10.8692C263.475 10.2725 262.501 10.2766 261.904 10.8779C261.308 11.4793 261.316 12.4491 261.917 13.0459C262.518 13.6426 263.488 13.6429 264.085 13.0411ZM266.522 10.403C267.119 9.80123 267.111 8.83143 266.509 8.23515C265.908 7.63837 264.938 7.63809 264.342 8.23941C263.745 8.84077 263.749 9.815 264.35 10.4113C264.952 11.0081 265.926 11.0044 266.522 10.403Z" fill="#1A1A1A"/>
<path d="M269.291 -4.66604C270.109 -5.12452 270.825 -5.73947 271.35 -6.55095C271.532 -6.83295 271.688 -7.13535 271.813 -7.4466C271.944 -7.77355 272.043 -8.11095 272.08 -8.46189C272.218 -9.7625 271.467 -10.7521 270.542 -11.572C270.02 -12.034 269.452 -12.4417 268.913 -12.8828C268.532 -13.1954 268.154 -13.5355 267.865 -13.9377C267.676 -14.2013 267.535 -14.4991 267.416 -14.7996C266.895 -16.109 266.961 -17.5621 266.993 -18.944C267.008 -19.5907 267.005 -20.2333 266.955 -20.8716C267.351 -20.8745 267.751 -20.8878 268.137 -20.859C268.708 -21.4293 268.863 -22.0673 268.83 -23.2452C268.826 -23.379 268.814 -23.6128 268.8 -23.9163C268.756 -24.1178 268.676 -24.4162 268.657 -24.5524C268.203 -27.72 267.132 -36.2833 264.494 -39.6449C264.412 -39.6287 264.336 -39.6188 264.253 -39.6015C262.81 -39.2992 261.645 -38.9581 259.119 -38.1451C255.441 -36.9617 252.107 -35.3927 248.075 -33.0466C241.539 -29.2439 238.662 -26.5083 236.346 -21.2804C238.294 -17.6733 245.13 -13.0042 247.632 -11.0962C248.055 -10.858 248.595 -10.5503 248.809 -10.4409C249.421 -10.128 249.87 -9.9954 250.302 -10.0473C250.422 -10.3302 250.55 -10.5926 250.677 -10.8626C251.133 -10.3484 251.623 -9.86193 252.137 -9.4081C253.298 -8.38595 254.56 -7.48009 255.875 -6.667C257.183 -5.85724 258.553 -5.13802 259.976 -4.55093C261.494 -3.92453 263.103 -3.40781 264.762 -3.49541C266.279 -3.57571 267.927 -3.90244 269.291 -4.66604ZM269.057 -5.64315C267.694 -4.80144 265.92 -4.50043 264.38 -4.45282C263.724 -4.43227 263.057 -4.56972 262.425 -4.73668C261.716 -4.92445 261.027 -5.17128 260.351 -5.45213C258.977 -6.02063 257.657 -6.72532 256.394 -7.50755C255.072 -8.32668 253.797 -9.23724 252.641 -10.2794C252.11 -10.7565 251.608 -11.2677 251.154 -11.8184C251.818 -13.0673 252.569 -14.1706 253.468 -15.1214C256.518 -18.3494 261.462 -20.5515 266.013 -20.8546C266.079 -20.0389 266.057 -19.2099 266.043 -18.3878C266.017 -16.8456 266.074 -15.2626 266.813 -13.8681C267.558 -12.4634 269.042 -11.7166 270.152 -10.6493C270.73 -10.095 271.226 -9.40211 271.135 -8.56193C271.106 -8.29785 271.027 -8.0487 270.928 -7.80388C270.542 -6.84894 269.875 -6.14861 269.057 -5.64315Z" fill="#1A1A1A"/>
<path d="M337.109 -1.67994L338.455 -14.2467C338.152 -14.198 337.843 -14.1701 337.524 -14.2042L332.956 -14.6926C332.637 -14.7267 332.335 -14.8225 332.05 -14.9343L330.704 -2.36755L337.109 -1.67994ZM339.938 -16.0854C340.314 -16.5312 340.567 -17.092 340.633 -17.7159L341.053 -21.6626C341.231 -23.326 340.028 -24.8189 338.364 -24.997L334.413 -25.4206C332.75 -25.5986 331.261 -24.3915 331.083 -22.7281L330.659 -18.7849C330.481 -17.1215 331.684 -15.6286 333.348 -15.4506L337.299 -15.0269C338.339 -14.9155 339.311 -15.3422 339.938 -16.0854ZM339.658 -25.517L341.111 -39.1109L334.71 -39.7948L333.257 -26.2008C333.56 -26.2497 333.87 -26.2695 334.189 -26.2354L338.757 -25.7468C339.076 -25.7127 339.373 -25.6288 339.658 -25.517Z" fill="#1A1A1A"/>
<path d="M291.95 217.2L207.795 195.304L208.447 170.245L225.245 163.122L239.132 147.927L251.783 124.868L270.733 125.077L282.547 113.512L285.118 100.774L277.949 86.9539L267.349 83.033L259.109 82.1183L252.566 84.7156L244.754 66.8328L221.359 44.0216L199.2 35.449L180.51 32.3824L158.094 37.5344L142.459 48.6978L132.33 56.011L119.355 78.5317L117.102 83.1919L106.614 80.8818L92.6422 83.6772L85.2817 91.6141L83.2075 104.072L87.8817 116.669L95.2502 122.507L109.853 119.421L113.362 118.876L123.301 139.932L133.467 155.631L146.691 164.111L163.182 171.131L163.947 195.021L119.391 205.013L121.499 196.858L120.629 192.919L123.274 186.836L123.803 181.582L125.914 175.501L121.214 168.799L121.789 162.802L105.368 157.382L83.524 169.64L71.2859 186.362C71.2859 186.362 69.0815 189.359 69.9723 205.583C70.8638 221.806 83.3491 227.632 83.3491 227.632L188.657 308.098L291.95 217.2Z" fill="black"/>
<path d="M113.241 104.32C113.241 65.2733 144.895 33.6201 183.941 33.6201C222.987 33.6201 254.64 65.2733 254.64 104.32C254.64 143.366 222.987 175.019 183.941 175.019C144.895 175.019 113.241 143.366 113.241 104.32Z" stroke="white" stroke-width="5" stroke-miterlimit="10" stroke-linejoin="round"/>
<path d="M164.394 202.519V171.704" stroke="white" stroke-width="5" stroke-miterlimit="10" stroke-linejoin="round"/>
<path d="M208.399 202.519V171.704" stroke="white" stroke-width="5" stroke-miterlimit="10" stroke-linejoin="round"/>
<path d="M114.879 121.74C111.753 123.488 108.149 124.484 104.313 124.484C92.3379 124.484 82.6306 114.777 82.6306 102.802C82.6306 90.8269 92.3379 81.119 104.313 81.119C108.5 81.119 112.409 82.3057 115.723 84.3605" stroke="white" stroke-width="5" stroke-miterlimit="10" stroke-linejoin="round"/>
<path d="M252.876 85.1025C255.88 83.5276 259.299 82.6368 262.927 82.6368C274.902 82.6368 284.61 92.3447 284.61 104.32C284.61 116.294 274.902 126.002 262.927 126.002C259.236 126.002 255.761 125.08 252.719 123.454" stroke="white" stroke-width="5" stroke-miterlimit="10" stroke-linejoin="round"/>
<path d="M114.013 69.7231L131.336 96.9424L166.836 97.5693L179.468 84.1592L183.742 84.1399H184.141L188.414 84.1592L201.045 97.5693L236.546 96.9424L253.87 69.7231L183.95 71.3186L114.013 69.7231Z" fill="white"/>
<path d="M178.455 80.4137C177.431 80.5746 176.54 81.3185 176.273 82.3875C174.155 90.8762 173.016 99.7498 173.655 108.501C173.887 111.677 174.365 114.855 175.276 117.912C175.581 118.934 175.912 119.963 176.377 120.924C178.938 126.221 186.083 129.419 191.127 125.536C191.945 124.907 192.637 124.132 193.205 123.272C195.574 119.68 195.176 115.232 195.24 111.14C195.263 109.671 194.091 108.462 192.622 108.439C191.155 108.416 189.945 109.588 189.922 111.056C189.894 112.915 189.976 114.77 189.818 116.624C189.717 117.813 189.519 119.07 188.904 120.114C188.666 120.518 188.386 120.887 188.031 121.195C186.271 122.72 183.678 121.62 182.256 120.155C180.826 118.684 180.299 116.415 179.867 114.484C178.954 110.404 178.715 106.19 178.828 102.019C178.997 95.8255 179.926 89.6822 181.425 83.6752C181.781 82.2505 180.918 80.8106 179.493 80.4556C179.137 80.3665 178.796 80.3599 178.455 80.4137Z" fill="white"/>
<path d="M255.799 100.516C257.361 99.416 258.919 98.5777 260.838 98.2679C266.74 97.3159 269.977 102.959 267.819 108.062C266.433 111.339 263.339 112.618 259.991 112.618C258.706 112.618 257.788 112.429 256.735 111.655" fill="white"/>
<path d="M262.841 95.5377C261.856 95.4626 260.824 95.5297 259.808 95.7458C257.78 96.1759 256.009 97.1711 254.303 98.3212C253.086 99.1435 252.774 100.782 253.596 101.999C254.419 103.215 256.077 103.548 257.294 102.726C258.232 102.091 259.178 101.47 260.265 101.126C260.957 100.907 261.698 100.788 262.425 100.835C265.669 101.049 266.52 104.718 265.251 107.296C264.378 109.071 262.524 109.809 260.639 109.934C259.753 109.994 258.984 109.995 258.25 109.478C257.046 108.636 255.394 108.918 254.552 110.121C253.711 111.325 254.013 112.998 255.217 113.84C256.822 114.956 258.558 115.336 260.493 115.273C265.454 115.112 269.605 112.397 270.839 107.421C271.179 106.054 271.244 104.617 271.026 103.225C270.857 102.144 270.509 101.091 269.988 100.129C268.458 97.304 265.796 95.763 262.841 95.5377Z" fill="white"/>
<path d="M262.093 108.044C261.058 108 260.051 108.565 259.579 109.561C258.532 111.773 257.618 114.034 256.837 116.354C256.208 118.223 255.632 120.119 255.051 122.005C254.734 123.033 254.406 124.049 254.095 125.079C253.133 128.264 252.205 131.905 252.412 135.321C251.446 136.134 250.584 137.094 249.94 138.208C249.054 139.742 248.528 141.521 248.32 143.34C246.779 144.117 245.427 145.209 244.352 146.518C243.465 146.369 242.549 146.246 241.589 146.207C240.625 146.168 239.682 146.139 238.722 146.228C237.26 146.37 236.191 147.674 236.332 149.136C236.475 150.598 237.78 151.667 239.241 151.525C240.149 151.431 241.072 151.49 241.983 151.546C242.039 151.549 242.093 151.563 242.149 151.567C241.421 155.552 242.194 160.537 246.097 162.162C246.714 162.419 247.381 162.568 248.05 162.598C248.58 162.621 249.115 162.569 249.628 162.432C253.169 161.488 254.159 157.481 253.347 154.288C254.103 154.685 254.91 154.984 255.757 155.099C256.918 155.255 258.119 155.15 259.185 154.641C261.903 153.344 263.557 149.802 262.53 146.913C262.165 145.889 261.46 145.008 260.597 144.275C261.033 144.277 261.425 144.364 261.885 144.337C264.768 144.167 267.445 142.797 267.827 139.642C267.878 139.216 267.88 138.739 267.827 138.313C267.47 135.46 264.89 133.667 262.301 132.974C260.787 132.568 259.271 132.648 257.772 132.911C258.081 129.707 259.198 126.62 260.14 123.562C261.368 119.578 262.589 115.621 264.378 111.846C265.007 110.519 264.438 108.922 263.111 108.293C262.78 108.136 262.439 108.058 262.093 108.044ZM259.538 137.96C260.306 137.95 261.087 138.103 261.782 138.437C261.986 138.536 262.189 138.66 262.363 138.811C261.961 138.925 261.563 139.019 261.138 139.039C260.701 139.061 260.075 139.185 259.642 138.998C259.244 138.827 258.941 138.482 258.686 138.105C258.974 138.057 259.239 137.963 259.538 137.96ZM254.448 141.242C254.637 141.498 254.851 141.745 255.071 141.99C254.739 141.958 254.41 141.992 254.074 141.99C254.167 141.72 254.321 141.491 254.448 141.242ZM254.49 147.267C255.018 147.305 255.538 147.414 256.027 147.62C256.439 147.793 256.815 148.049 257.149 148.346C257.26 148.446 257.338 148.529 257.439 148.638C257.467 148.667 257.495 148.691 257.523 148.721C257.518 148.896 257.473 149.06 257.398 149.219C257.318 149.392 257.201 149.562 257.066 149.697C257.03 149.733 256.982 149.77 256.941 149.801C256.928 149.811 256.917 149.812 256.9 149.822C256.025 149.851 255.333 149.409 254.78 148.741C254.452 148.343 254.179 147.884 253.97 147.412C253.961 147.392 253.958 147.37 253.949 147.349C254.132 147.346 254.307 147.253 254.49 147.267ZM247.239 153.748C247.779 154.421 248.227 155.188 248.34 156.033C248.383 156.352 248.364 156.679 248.278 156.989C248.255 157.074 248.248 157.142 248.216 157.217C248.001 157.148 247.789 157.026 247.696 156.822C247.415 156.207 247.251 155.541 247.177 154.87C247.137 154.507 247.233 154.124 247.239 153.748Z" fill="white"/>
<path d="M164.937 181.499C166.442 184.516 170.594 184.256 173.707 184.91C181.494 186.544 189.788 186.493 197.696 185.781C200.127 185.561 202.504 185.039 204.893 184.565C205.079 184.528 207.379 184.083 207.433 184.02C207.939 183.439 207.929 181.69 207.998 180.972C208.221 178.661 208.602 176.315 208.602 173.987C208.602 173.685 208.774 171.058 208.724 171.03C208.086 170.675 207.249 171.22 206.748 171.466C205.471 172.091 204.19 172.577 202.817 172.954C198.532 174.129 193.81 174.263 189.391 174.586C186.263 174.814 183.153 174.822 180.017 174.858C178.27 174.878 176.491 174.986 174.755 174.749C173.87 174.629 172.95 174.492 172.074 174.332C170.611 174.066 168.481 172.89 166.954 173.461C166.271 173.716 166.106 174.672 165.925 175.276C165.344 177.22 164.077 179.775 164.937 181.499Z" fill="white"/>
<path d="M210.924 194.302C210.995 194.659 211.001 195.015 210.924 195.361C210.842 195.734 210.706 196.02 210.529 196.275C210.379 196.493 210.243 196.663 210.072 196.815C209.914 196.956 209.723 197.084 209.511 197.231C209.22 197.433 208.841 197.664 208.39 197.937C207.681 198.367 206.791 198.897 206.54 199.017C203.341 200.556 199.09 201.644 193.1 202.778C187.502 203.838 178.843 203.632 173.467 202.279C171.745 201.846 170.267 201.155 167.817 199.807C167.664 199.723 167.541 199.674 167.256 199.516C164.082 197.761 162.702 197.164 161.19 197.044C160.13 196.959 159.301 196.235 159.008 195.278L77.6759 218.94C95.9556 249.803 115.853 280.502 138.192 312.592C152.122 321.705 168.176 327.639 186.389 327.404C208.802 327.116 226.485 320.465 240.466 310.598C245.463 299.198 250.718 289.875 262.487 270.669C262.575 270.526 262.566 270.522 262.653 270.378C269.61 259.024 272.761 253.776 276.343 247.236C280.638 239.396 290.536 219.87 291.177 218.608C291.211 218.35 291.384 217.299 291.384 217.299L210.924 194.302ZM179.284 211.129L192.186 212.126C192.9 213.68 194.722 214.501 194.969 216.344C195.462 220.019 193.035 222.345 189.838 223.344L197.504 253.156L186.12 292.275L176.397 254.444L181.902 223.137C178.74 221.911 176.503 219.227 177.456 214.972C177.807 213.408 178.15 212.249 179.284 211.129Z" fill="#AF52DE"/>
<path d="M164.647 214.836L186.69 296.651" stroke="white" stroke-width="5" stroke-miterlimit="10" stroke-linejoin="round"/>
<path d="M208.732 214.598L186.69 296.651" stroke="white" stroke-width="5" stroke-miterlimit="10" stroke-linejoin="round"/>
<path d="M183.898 146.56C182.796 146.587 181.917 147.515 181.945 148.617C181.972 149.718 182.879 150.576 183.98 150.549C186.693 150.482 189.412 150.49 192.124 150.549C193.226 150.573 194.136 149.718 194.16 148.617C194.184 147.515 193.309 146.584 192.208 146.56C189.434 146.5 186.671 146.492 183.898 146.56Z" fill="white"/>
<path d="M110.646 197.915C109.624 197.746 108.555 198.168 107.966 199.099C106.669 201.148 105.29 203.162 103.728 205.02C99.6253 209.904 94.3821 213.861 88.2095 215.678C85.9001 216.357 83.5254 216.711 81.1256 216.841C79.659 216.92 78.5528 218.158 78.6326 219.624C78.7117 221.091 79.9496 222.218 81.4161 222.138C84.2275 221.985 87.001 221.584 89.7053 220.788C96.881 218.676 103.025 214.111 107.8 208.427C109.515 206.386 111.029 204.195 112.454 201.946C113.239 200.705 112.863 199.074 111.623 198.289C111.312 198.093 110.987 197.972 110.646 197.915Z" fill="white"/>
<path d="M112.807 186.863C111.591 186.916 110.371 187.146 109.192 187.528C107.796 187.982 107.034 189.476 107.488 190.872C107.943 192.269 109.436 193.03 110.833 192.576C111.74 192.28 112.659 192.101 113.617 192.14C116.012 192.237 118.344 193.744 118.727 196.233C118.811 196.774 118.807 197.332 118.727 197.873C118.233 201.259 115.631 204.27 113.035 206.308C111.988 207.131 110.733 207.779 109.503 208.282C109.033 208.474 108.551 208.649 108.05 208.739C107.987 208.75 107.935 208.752 107.883 208.76C107.477 207.535 106.266 206.73 104.954 206.952C103.506 207.197 102.528 208.579 102.772 210.027C102.903 210.767 103.121 211.471 103.541 212.104C105.897 215.654 110.85 213.73 113.763 212.125C114.388 211.78 114.999 211.426 115.591 211.024C119.872 208.116 123.837 202.878 124.088 197.541C124.145 196.317 124.003 195.074 123.63 193.906C123.326 192.951 122.88 192.043 122.301 191.225C120.06 188.062 116.455 186.705 112.807 186.863Z" fill="white"/>
<path d="M109.608 175.167C108.139 175.203 106.975 176.42 107.01 177.888C107.046 179.356 108.264 180.5 109.732 180.464C110.328 180.449 110.923 180.45 111.518 180.485C114.67 180.67 118.839 181.967 119.475 185.554C119.565 186.059 119.58 186.56 119.538 187.07C119.458 188.051 119.175 188.98 118.831 189.896C118.316 191.271 119.014 192.809 120.389 193.324C121.765 193.839 123.302 193.141 123.817 191.766C124.403 190.199 124.825 188.585 124.877 186.904C124.912 185.764 124.782 184.614 124.461 183.518C124.207 182.648 123.838 181.817 123.36 181.046C120.48 176.404 114.716 175.046 109.608 175.167Z" fill="white"/>
<path d="M111.56 164.842C110.092 164.797 108.863 165.95 108.818 167.418C108.773 168.886 109.926 170.115 111.394 170.16C112.809 170.204 114.227 170.261 115.611 170.576C117.906 171.098 119.885 172.379 121.366 174.211C122.562 175.691 123.854 178.077 122.82 179.986C122.521 180.54 122.078 180.946 121.594 181.337C120.454 182.263 120.274 183.937 121.2 185.076C122.126 186.216 123.799 186.397 124.939 185.471C125.823 184.75 126.618 183.951 127.225 182.978C130.461 177.791 127.074 171.518 122.758 168.186C119.406 165.599 115.668 164.97 111.56 164.842Z" fill="white"/>
<path d="M108.34 155.514C106.784 155.437 105.209 155.5 103.666 155.722C98.9106 156.404 94.4997 158.859 90.5775 161.518C85.5889 164.9 81.0444 168.974 77.0743 173.505C74.1805 176.807 71.5366 180.397 69.8029 184.453C69.2265 185.804 69.8654 187.367 71.2162 187.943C72.5664 188.52 74.1293 187.902 74.7063 186.551C76.2128 183.015 78.5641 179.891 81.0837 177.016C84.5605 173.048 88.5014 169.452 92.8218 166.421C95.9237 164.244 99.3673 162.163 103.084 161.248C104.401 160.924 105.76 160.807 107.115 160.811C108.101 160.815 109.087 160.886 110.064 161.019C110.856 161.128 111.296 161.22 112.079 161.394C115.119 162.065 119.107 163.784 120.057 167.065C120.235 167.679 120.27 168.299 120.265 168.934C120.257 170.403 121.434 171.607 122.903 171.614C124.372 171.622 125.575 170.424 125.583 168.955C125.587 167.809 125.486 166.696 125.168 165.59C123.154 158.605 114.842 155.835 108.34 155.514Z" fill="white"/>
<path d="M114.641 147.833C110.927 145.059 104.225 141.488 99.7042 143.222C97.1933 144.186 94.7841 145.914 92.8011 147.716C91.9867 148.456 90.834 149.652 90.834 149.652C90.834 149.652 92.8636 142.915 92.1582 141.248C91.4888 139.666 89.6892 138.206 88.1296 137.572C87.9155 137.485 85.6027 137.133 85.5575 137.026C85.3288 136.493 86.6883 136.76 87.2408 136.584C88.1236 136.303 88.9041 135.876 89.6427 135.307C92.0013 133.492 92.4547 130.886 92.3284 128.056C92.2214 125.651 91.0101 123.674 89.17 122.235C88.6315 121.814 88.0498 121.485 87.4489 121.163C87.145 121 86.2064 120.586 86.5408 120.669C87.4941 120.904 88.1608 121.773 89.0377 122.167C92.2972 123.632 96.0725 122.789 99.0235 121.111C101.069 119.949 102.869 118.48 103.864 116.312C104.332 115.293 104.76 114.23 105.056 113.146C105.104 112.972 104.991 112.638 105.169 112.618C105.195 112.615 105.497 115.553 105.51 115.631C105.846 117.536 106.934 119.418 108.291 120.771C111.812 124.287 117.275 123.108 121.378 121.724C121.727 121.607 120.688 121.99 120.375 122.184C119.914 122.471 119.208 122.972 118.787 123.325C117.067 124.769 115.574 126.809 115.25 129.094C114.931 131.349 115.922 134.053 117.312 135.852C117.398 135.963 119.616 137.696 119.601 137.792C119.571 137.979 119.22 137.816 119.033 137.792C117.969 137.663 116.872 137.407 115.856 137.946C115 138.4 113.58 139.121 113.076 139.988C111.872 142.06 113.232 146.183 114.645 147.801" fill="#52B1DE"/>
<path d="M104.85 111.326C104.844 111.328 104.692 111.374 104.601 111.409C104.599 111.406 104.566 111.429 104.559 111.43C104.55 111.435 104.517 111.449 104.517 111.451C104.52 111.457 104.515 111.466 104.517 111.472C104.412 111.529 104.208 111.677 104.185 111.701C103.904 111.975 103.817 112.263 103.749 112.635C103.737 112.7 103.726 112.816 103.728 112.905C103.399 113.871 103.075 114.817 102.648 115.751C101.684 117.857 99.7037 119.316 97.6827 120.322C95.4351 121.44 92.7121 122.013 90.2663 121.215C90.0662 121.15 89.8788 121.053 89.6846 120.966C89.676 120.962 89.672 120.949 89.664 120.945C89.3543 120.724 89.0371 120.532 88.7081 120.343C88.5126 120.23 88.2839 120.096 88.0845 119.989C88.0446 119.968 88.0007 119.947 87.9602 119.927C87.2043 119.459 86.2244 118.991 85.5709 119.699C85.2352 120.062 85.1342 120.329 85.1555 120.82C85.1973 121.794 86.5708 122.212 87.2748 122.586C87.4882 122.749 87.6896 122.923 87.9183 123.064C88.0134 123.122 88.1324 123.135 88.2301 123.189C88.6662 123.511 89.0777 123.884 89.4354 124.29C90.9783 126.044 91.2582 128.334 90.9099 130.585C90.5974 132.607 89.4094 134.19 87.5447 135.051C87.2309 135.196 87.1664 135.205 86.8387 135.321C86.733 135.358 86.2364 135.329 86.0283 135.342C85.303 135.389 84.5764 135.657 84.3039 136.402C84.252 136.542 84.2181 136.689 84.2001 136.838C84.022 138.331 85.8661 138.489 86.8387 138.666C87.0587 138.706 87.2834 138.748 87.5035 138.791C87.5633 138.802 87.6105 138.819 87.6697 138.832C88.609 139.293 89.4566 139.827 90.1626 140.619C90.4651 140.958 90.9039 141.429 90.9517 141.907C91.0501 142.881 90.844 143.911 90.6612 144.856C90.5429 145.466 90.3913 146.082 90.2451 146.684C90.148 147.086 90.0609 147.491 89.9546 147.89C89.9 148.094 89.8243 148.329 89.7677 148.534C89.6494 148.958 89.3456 149.726 89.6015 150.154C89.7631 150.425 89.9752 150.679 90.2451 150.839C90.4611 150.968 90.7423 150.955 90.9936 150.964C91.558 150.985 92.1158 150.238 92.4475 149.905C92.5831 149.768 92.7261 149.624 92.863 149.489C93.0737 149.282 93.2911 149.088 93.5072 148.887C93.7219 148.686 93.9619 148.446 94.172 148.264C96.4376 146.292 99.5594 143.977 102.71 144.109C105.537 144.227 108.289 145.469 110.709 146.851C111.455 147.277 112.201 147.736 112.91 148.222C113.074 148.334 113.208 148.637 113.388 148.555C113.695 148.414 113.653 148.468 113.658 148.492C113.644 148.547 113.578 148.59 113.617 148.638C113.666 148.697 113.747 148.693 113.804 148.741C113.818 148.805 113.755 148.842 113.845 148.908C113.987 149.011 114.163 148.971 114.323 149.011C114.429 149.04 114.505 149.072 114.614 149.074C114.85 149.08 115.029 149.003 115.237 148.887C115.316 148.846 115.415 148.884 115.486 148.824C115.52 148.797 115.518 148.751 115.549 148.721C115.597 148.672 115.673 148.674 115.715 148.617C115.806 148.493 115.776 148.34 115.819 148.202C115.869 148.055 115.925 147.94 115.923 147.786C115.919 147.622 115.861 147.502 115.798 147.349C115.748 147.218 115.768 147.07 115.673 146.955C115.635 146.996 115.627 146.98 115.591 147.017C115.55 146.97 115.534 146.914 115.486 146.872C115.499 146.841 115.516 146.795 115.528 146.768C115.56 146.7 115.425 146.663 115.383 146.602C115.335 146.532 115.303 146.444 115.258 146.373C114.991 145.947 114.758 145.49 114.572 145.023C114.133 143.916 113.798 142.591 113.991 141.387C114.162 140.316 115.147 139.846 116.027 139.372C116.353 139.196 116.666 138.992 117.045 138.957C117.475 138.916 117.908 138.984 118.332 139.039C119.04 139.132 120.008 139.465 120.555 138.749C120.673 138.595 120.746 138.416 120.847 138.25C120.881 138.192 120.899 138.13 120.909 138.063C121.067 136.983 120.045 136.384 119.33 135.799C119.068 135.585 118.803 135.369 118.54 135.155C118.487 135.111 118.407 135.055 118.354 135.009C118.338 134.996 118.336 134.99 118.312 134.968C117.946 134.405 117.576 133.863 117.294 133.244C116.738 132.023 116.379 130.623 116.567 129.276C116.851 127.241 118.248 125.423 119.828 124.186C120.226 123.875 120.649 123.584 121.075 123.313C121.294 123.175 121.582 123.099 121.823 122.981C121.829 122.979 121.837 122.983 121.844 122.981C121.898 122.954 121.965 122.936 122.01 122.898C122.196 122.739 122.387 122.581 122.571 122.42C122.616 122.38 122.637 122.312 122.653 122.254C122.707 122.069 122.796 121.885 122.778 121.693C122.753 121.425 122.67 121.154 122.529 120.924C122.421 120.747 122.225 120.644 122.051 120.53C121.727 120.316 121.32 120.354 120.971 120.467C120.95 120.474 120.93 120.481 120.909 120.488C120.587 120.593 120.256 120.701 119.933 120.8C119.584 120.906 119.246 120.998 118.893 121.09C118.532 121.186 118.157 121.277 117.793 121.361C115.388 121.914 112.585 122.073 110.397 120.737C108.68 119.689 107.373 117.736 106.907 115.793C106.816 115.413 106.782 115.062 106.74 114.671C106.706 114.35 106.67 114.065 106.637 113.757C106.532 112.791 106.643 111.603 105.411 111.326C105.229 111.286 105.03 111.285 104.85 111.326ZM104.746 117.434C105.392 119.244 106.438 120.959 107.883 122.192C110.171 124.144 113.147 124.552 116.047 124.269C114.549 126.203 113.646 128.556 113.929 131C114.062 132.158 114.402 133.285 114.884 134.345C115.166 134.964 115.5 135.569 115.881 136.132C115.991 136.293 116.122 136.392 116.234 136.526C114.691 136.906 112.748 138.078 111.976 139.247C111.032 140.675 111.269 142.665 111.726 144.42C111.389 144.232 111.073 144.015 110.729 143.839C107.701 142.291 104.083 140.959 100.633 141.595C99.4265 141.818 98.3016 142.33 97.2253 142.904C95.7508 143.69 94.4007 144.689 93.1123 145.75C93.3084 144.814 93.5444 143.875 93.6109 142.924C93.6514 142.344 93.6694 141.749 93.5278 141.179C93.0777 139.372 91.2615 137.864 89.5391 136.921C92.2414 135.276 93.5451 132.704 93.6734 129.504C93.7299 128.088 93.6116 126.666 93.1123 125.329C92.9574 124.913 92.6436 124.592 92.4269 124.207C96.1537 124.292 100.095 122.565 102.752 120.052C103.575 119.273 104.212 118.388 104.746 117.434Z" fill="#527DDE"/>
<path d="M99.1769 159.944L99.3856 138.611C99.3856 138.611 100.197 137.161 103.233 137.173C106.268 137.186 107.052 138.682 107.052 138.682V156.212" fill="white"/>
<path d="M100.64 132.044C100.547 133.13 100.583 134.155 100.658 135.236C100.686 135.642 100.548 137.904 100.838 138.137C101.066 138.321 101.716 138.087 101.947 138.038C102.808 137.857 103.729 137.818 104.608 137.837C104.811 137.841 105.388 138.01 105.554 137.916C105.744 137.809 105.679 136.768 105.679 136.552C105.679 135.467 105.777 134.303 105.958 133.238C106.013 132.916 106.19 132.243 105.888 132.006C104.903 131.234 101.9 131.913 100.796 132.268" fill="black"/>
<path d="M100.342 132.184C99.9752 132.189 99.6728 132.503 99.6774 132.869C99.692 134.176 99.696 133.997 99.698 134.178C99.7007 134.396 99.696 134.47 99.698 134.615C99.7027 135.05 99.722 135.777 99.7186 135.487C99.7233 135.777 99.7366 136.07 99.7399 136.36C99.7426 136.649 99.7439 137.501 99.7399 137.211C99.72 135.761 99.7346 137.213 99.7399 138.084C99.7419 138.451 100.037 138.751 100.405 138.749C100.772 138.747 101.071 138.451 101.069 138.084C101.06 137.212 101.072 137.47 101.069 137.211C101.064 136.695 101.056 136.242 101.048 135.467C101.044 135.176 101.032 134.885 101.028 134.594C101.024 134.303 101.025 133.431 101.028 133.721C101.042 135.176 101.018 133.72 101.007 132.849C101.002 132.482 100.709 132.179 100.342 132.184Z" fill="white"/>
<path d="M106.055 132.225C105.689 132.197 105.357 132.462 105.328 132.828C105.228 135.558 105.308 134.343 105.224 135.549C105.222 135.876 105.208 136.204 105.203 136.505C105.199 136.802 105.173 137.696 105.183 137.399C105.234 135.877 105.195 137.397 105.141 138.292C105.119 138.658 105.398 138.976 105.764 138.998C106.131 139.02 106.449 138.742 106.471 138.375C106.538 136.528 106.525 136.737 106.533 136.526C106.535 136.428 106.532 136.316 106.533 136.214C106.538 135.717 106.543 135.176 106.554 134.698C106.561 134.402 106.603 133.53 106.595 133.825C106.555 135.34 106.588 133.822 106.658 132.932C106.686 132.566 106.421 132.255 106.055 132.225ZM105.224 135.549C105.183 136.151 105.269 134.346 105.266 133.742C105.264 133.433 105.232 134.367 105.224 134.677C105.218 134.952 105.226 135.252 105.224 135.549Z" fill="white"/>
<path d="M99.6304 132.915C99.6211 133.276 100.756 132.685 101.071 132.624C102.452 132.356 104.087 132.487 105.45 132.806C105.977 132.929 106.856 133.554 106.829 132.724C106.796 131.67 106.422 129.167 104.826 128.471C103.819 128.032 102.327 127.959 101.405 128.681C100.149 129.663 99.663 131.634 99.6304 132.915Z" fill="white"/>
<path d="M162.645 192.098C162.305 192.036 161.944 192.038 161.586 192.119C146.369 195.536 131.388 199.803 116.38 204.022C114.966 204.42 114.134 205.891 114.531 207.305C114.929 208.719 116.4 209.551 117.813 209.154C132.731 204.96 147.625 200.71 162.749 197.313C164.182 196.991 165.086 195.567 164.764 194.134C164.523 193.059 163.665 192.283 162.645 192.098Z" fill="white"/>
<path d="M208.287 192.098C207.265 192.269 206.403 193.021 206.147 194.093C205.806 195.521 206.692 196.951 208.121 197.292C226.609 201.704 244.827 207.077 263.112 212.25C272.286 214.845 281.48 217.323 290.7 219.749C292.12 220.123 293.588 219.258 293.962 217.838C294.335 216.417 293.492 214.971 292.071 214.597C282.882 212.179 273.709 209.726 264.565 207.139C246.211 201.946 227.906 196.548 209.347 192.119C208.99 192.034 208.627 192.041 208.287 192.098Z" fill="white"/>
<path d="M110.638 210.831C106.085 219.648 97.3875 227.706 87.7468 230.297C86.1147 230.735 80.9579 232.627 79.3099 231.568C76.4321 229.718 78.6099 222.646 80.0166 220.598C81.7544 218.069 92.5831 216.976 96.2561 214.577C98.0018 213.437 99.9104 210.434 101.943 210.062C103.533 209.771 105.341 212.072 107.071 212.336C108.483 212.552 110.611 211.295 109.933 213.005" fill="white"/>
<path d="M92.7594 103.764C92.4084 103.872 92.195 104.244 92.302 104.595C93.484 108.456 95.0403 112.076 97.0386 115.585C97.2208 115.904 97.6336 116.016 97.9527 115.834C98.2718 115.653 98.3842 115.26 98.202 114.941C96.2522 111.517 94.7225 107.968 93.5691 104.2C93.4621 103.849 93.1104 103.657 92.7594 103.764Z" fill="#527DDE"/>
<path d="M105.577 103.972C105.21 103.972 104.912 104.27 104.912 104.637C104.912 105.279 104.912 105.906 104.912 106.549C104.912 106.916 105.21 107.213 105.577 107.213C105.944 107.213 106.242 106.916 106.242 106.549C106.242 105.906 106.242 105.279 106.242 104.637C106.242 104.27 105.944 103.972 105.577 103.972Z" fill="#527DDE"/>
<path d="M118.769 105.343C118.6 105.36 118.45 105.43 118.333 105.572C115.451 109.088 112.673 112.639 110.459 116.624C110.281 116.945 110.408 117.36 110.729 117.538C111.05 117.716 111.445 117.589 111.623 117.268C113.797 113.353 116.52 109.878 119.351 106.424C119.584 106.14 119.552 105.722 119.268 105.489C119.126 105.373 118.938 105.327 118.769 105.343Z" fill="#527DDE"/>
<path d="M126.394 118.265C126.234 118.205 126.041 118.21 125.874 118.286C125.265 118.56 124.655 118.842 124.046 119.117C123.711 119.267 123.563 119.655 123.713 119.989C123.864 120.324 124.272 120.473 124.607 120.322C125.216 120.048 125.826 119.765 126.435 119.491C126.77 119.34 126.918 118.953 126.767 118.618C126.692 118.451 126.553 118.325 126.394 118.265Z" fill="#527DDE"/>
<path d="M132.522 127.406C128.502 127.992 124.584 128.978 120.681 130.086C120.327 130.186 120.123 130.563 120.223 130.917C120.324 131.27 120.701 131.474 121.054 131.374C124.902 130.282 128.746 129.292 132.709 128.715C133.072 128.662 133.323 128.33 133.27 127.967C133.217 127.604 132.885 127.353 132.522 127.406Z" fill="#527DDE"/>
<path d="M123.713 138.271C123.546 138.303 123.38 138.389 123.277 138.541C123.072 138.845 123.16 139.271 123.464 139.476C124.577 140.029 124.022 139.796 124.586 140.016C124.914 140.144 123.953 139.72 123.63 139.58C123.58 139.559 123.71 139.632 123.755 139.663C123.827 139.712 123.912 139.758 123.983 139.809C124.252 139.997 124.501 140.197 124.814 140.307C124.923 140.345 125.244 140.471 125.147 140.411C124.604 140.074 125.134 140.406 125.687 140.577C126.037 140.686 126.409 140.491 126.518 140.141C126.627 139.79 126.432 139.419 126.082 139.31C125.144 138.84 125.532 138.983 125.147 138.832C124.996 138.773 125.453 138.976 125.521 139.123C125.563 139.213 125.345 139.071 125.251 139.039C125.207 139.025 125.168 139.017 125.126 138.998C124.957 138.922 124.781 138.752 124.627 138.645C124.587 138.617 124.544 138.59 124.503 138.562C124.456 138.53 124.306 138.455 124.358 138.479C124.934 138.748 124.372 138.462 124.212 138.354C124.06 138.252 123.88 138.238 123.713 138.271Z" fill="#527DDE"/>
<path d="M118.208 144.358C118.038 144.356 117.861 144.437 117.73 144.566C117.469 144.823 117.473 145.239 117.73 145.5C120.549 148.366 123.034 151.516 125.729 154.496C125.975 154.768 126.391 154.805 126.663 154.558C126.935 154.312 126.951 153.896 126.705 153.624C123.998 150.63 121.497 147.445 118.665 144.566C118.536 144.435 118.378 144.36 118.208 144.358Z" fill="#527DDE"/>
<path d="M116.422 150.611C116.254 150.579 116.075 150.612 115.923 150.715C115.619 150.921 115.55 151.347 115.757 151.65C115.833 151.779 115.8 151.709 115.839 151.775C115.819 151.737 115.878 151.843 115.902 151.878C115.941 151.935 115.988 151.988 116.027 152.045C116.119 152.177 116.224 152.295 116.297 152.44C116.327 152.499 116.417 152.682 116.38 152.626C116.163 152.304 116.378 152.626 116.546 152.979C116.704 153.311 117.108 153.449 117.44 153.291C117.771 153.134 117.909 152.75 117.751 152.419C117.303 151.662 117.453 151.951 117.294 151.65C117.218 151.506 117.474 151.946 117.585 152.065C117.638 152.122 117.516 151.926 117.481 151.858C117.454 151.804 117.428 151.743 117.398 151.692C117.3 151.523 117.176 151.373 117.065 151.214C117.045 151.184 117.023 151.139 117.003 151.11C116.98 151.076 116.92 150.97 116.941 151.006C117.21 151.472 116.938 151.02 116.858 150.902C116.755 150.75 116.589 150.643 116.422 150.611Z" fill="#527DDE"/>
<path d="M89.3318 152.626C89.169 152.677 89.0214 152.796 88.9369 152.959C88.8824 153.09 88.909 153.002 88.8745 153.084C88.6664 153.568 88.6996 153.462 88.5627 153.852C88.4862 154.071 88.687 153.533 88.812 153.208C88.7794 153.27 88.7415 153.333 88.7083 153.395C88.5893 153.616 88.4749 153.82 88.3965 154.06C88.3686 154.145 88.2735 154.411 88.3134 154.329C88.5361 153.877 88.322 154.323 88.1891 154.766C88.0834 155.118 88.2735 155.492 88.6252 155.597C88.9768 155.702 89.3504 155.512 89.4561 155.16C89.7892 154.366 89.6762 154.67 89.7885 154.351C89.8331 154.224 89.6802 154.613 89.5805 154.704C89.5213 154.758 89.6396 154.552 89.6642 154.475C89.6762 154.437 89.6908 154.409 89.7054 154.371C89.7646 154.221 89.8577 154.078 89.9341 153.935C89.9527 153.9 89.978 153.866 89.9966 153.831C90.0172 153.791 90.0757 153.664 90.0584 153.707C89.8643 154.193 90.0498 153.698 90.1209 153.561C90.2905 153.235 90.1768 152.838 89.851 152.668C89.6882 152.583 89.494 152.575 89.3318 152.626Z" fill="#527DDE"/>
<path d="M85.5092 143.361C85.3417 143.328 85.1628 143.363 85.0106 143.465C80.268 146.635 75.4283 149.621 70.5302 152.543C70.2151 152.731 70.114 153.142 70.3015 153.457C70.4896 153.772 70.9005 153.874 71.2162 153.686C76.1337 150.752 80.9973 147.748 85.7578 144.566C86.0636 144.362 86.1494 143.936 85.9453 143.631C85.8429 143.478 85.676 143.394 85.5092 143.361Z" fill="#527DDE"/>
<path d="M80.4816 135.986C79.9464 136.006 79.4166 136.028 78.8821 136.048C78.5151 136.062 78.2239 136.367 78.2379 136.734C78.2519 137.101 78.5563 137.391 78.9233 137.377C79.4585 137.357 79.9883 137.336 80.5235 137.316C80.8898 137.302 81.1809 136.997 81.167 136.63C81.1537 136.263 80.8485 135.972 80.4816 135.986Z" fill="#527DDE"/>
<path d="M75.4538 126.16C75.0875 126.14 74.7877 126.416 74.7684 126.783C74.7491 127.15 75.025 127.469 75.392 127.489C79.2863 127.693 82.9706 128.99 86.7346 129.899C87.0916 129.985 87.4379 129.757 87.5244 129.4C87.6101 129.044 87.4034 128.676 87.0464 128.59C83.1993 127.662 79.4352 126.371 75.4538 126.16Z" fill="#527DDE"/>
<path d="M82.9326 117.123C82.5883 116.996 82.2073 117.173 82.081 117.518C81.9547 117.862 82.1309 118.243 82.4759 118.369C82.914 118.529 83.3674 118.686 83.8055 118.847C84.1505 118.973 84.5308 118.797 84.6571 118.452C84.7834 118.107 84.6072 117.727 84.2622 117.6C83.8241 117.44 83.3714 117.283 82.9326 117.123Z" fill="#527DDE"/>
<path d="M131.896 44.6123C131.704 44.843 121.26 62.8368 120.252 69.723C121.485 67.5019 123.12 65.3996 125.324 63.189C125.369 63.1252 125.387 63.0597 125.438 62.999C129.852 57.7353 137.845 49.5341 147.468 44.4009C161.205 37.0721 177.48 33.6201 184.725 33.6201C194.113 33.6201 213.651 39.1633 228.949 49.6763C237.326 55.4324 246.729 68.6426 247.155 69.3811C247.24 69.3725 247.462 69.3602 247.63 69.3432C245.885 63.001 238.682 47.8482 237.885 46.3978C236.198 43.9672 229.905 22.171 183.941 22.001C138.343 21.8323 133.189 42.7582 131.896 44.6123Z" fill="white"/>
<path d="M187.347 133.146C184.396 133.118 181.458 133.366 178.533 133.734C177.773 133.92 176.87 134.076 176.349 134.266C172.394 135.712 165.628 141.51 163.262 145.036C163.225 145.091 163.134 145.203 163.091 145.264C162.776 146.165 162.451 147.061 162.179 147.962C162.326 147.836 162.472 147.708 162.616 147.582C164.595 145.851 166.01 144.422 168.504 143.46C172.072 142.083 176.099 141.585 179.806 140.687C180.895 140.423 182.55 140.363 183.7 139.813C185.186 139.369 186.604 139.117 188.183 139.68C188.246 139.702 188.508 139.765 188.676 139.813C189.821 140.304 191.411 140.376 192.456 140.63C196.164 141.528 200.171 142.007 203.739 143.384C205.496 144.062 206.747 145.036 208.013 146.119C207.575 144.822 207.005 143.405 206.341 141.864C203.258 138.714 198.818 135.259 195.894 134.19C195.246 133.954 194.165 133.727 193.178 133.506C191.235 133.317 189.289 133.164 187.347 133.146Z" fill="white"/>
<path d="M150.783 221.598C149.765 221.793 148.915 222.578 148.685 223.655C148.001 226.843 147.312 230.043 146.628 233.232C146.207 235.194 145.802 237.149 145.381 239.111C145.118 240.338 144.855 241.562 144.592 242.788C144.487 243.279 144.365 243.773 144.259 244.263C144.052 245.232 143.491 247.1 143.719 248.19C144.034 249.693 145.597 250.766 146.67 251.721C146.914 251.94 147.152 252.147 147.396 252.365C147.641 252.583 147.9 252.812 148.144 253.03C149.123 253.902 150.095 254.776 151.073 255.648C152.358 256.793 153.623 257.94 154.917 259.076C154.414 260.574 153.945 262.082 153.463 263.583C151.764 268.87 150.071 274.149 148.373 279.435C147.901 280.903 147.432 282.392 146.96 283.86C146.669 284.765 146.26 285.697 146.399 286.664C146.64 288.338 148.694 289.904 149.806 290.985C150.111 291.281 150.416 291.583 150.72 291.879C151.329 292.469 151.92 293.054 152.528 293.645C153.136 294.236 153.748 294.841 154.356 295.431C161.652 302.521 168.956 309.594 176.253 316.683C177.306 317.707 178.989 317.695 180.013 316.642C181.036 315.589 181.003 313.905 179.95 312.882C175.998 309.042 172.061 305.192 168.109 301.352C165.677 298.989 163.228 296.631 160.796 294.267C159.58 293.086 158.377 291.897 157.161 290.715C156.249 289.829 155.331 288.942 154.418 288.056C153.597 287.259 152.767 286.465 151.946 285.667C151.963 285.603 151.988 285.543 152.009 285.48C152.292 284.599 152.577 283.723 152.86 282.842C153.143 281.961 153.429 281.063 153.712 280.183C154.184 278.714 154.652 277.247 155.124 275.778C155.88 273.429 156.634 271.085 157.389 268.736C158.144 266.386 158.898 264.042 159.654 261.693C159.99 260.646 160.673 259.054 160.485 257.912C160.225 256.343 158.658 255.26 157.555 254.276C155.843 252.75 154.115 251.232 152.403 249.706C151.425 248.834 150.452 247.961 149.474 247.089C149.367 246.993 149.27 246.893 149.163 246.798C149.211 246.574 149.26 246.337 149.308 246.112C149.518 245.131 149.72 244.164 149.931 243.183C150.615 239.994 151.303 236.795 151.988 233.606C152.619 230.663 153.246 227.72 153.878 224.776C154.186 223.341 153.278 221.927 151.842 221.619C151.483 221.542 151.122 221.533 150.783 221.598Z" fill="white"/>
<path d="M219.048 221.432C217.612 221.74 216.704 223.154 217.012 224.59C217.644 227.533 218.271 230.476 218.903 233.419C219.587 236.608 220.275 239.807 220.96 242.996C221.22 244.209 221.489 245.418 221.749 246.631C221.645 246.725 221.541 246.809 221.437 246.901C221.192 247.12 220.934 247.348 220.689 247.566C219.955 248.221 219.221 248.865 218.487 249.519C216.775 251.046 215.068 252.584 213.356 254.11C212.253 255.094 210.665 256.157 210.405 257.725C210.217 258.867 210.901 260.46 211.236 261.506C211.897 263.562 212.571 265.62 213.231 267.676C214.08 270.319 214.916 272.969 215.766 275.612C216.238 277.081 216.706 278.548 217.178 280.016C217.65 281.485 218.14 282.952 218.612 284.421C218.726 284.776 218.83 285.125 218.944 285.48C218.729 285.69 218.516 285.894 218.3 286.103C217.388 286.989 216.491 287.876 215.579 288.762C214.667 289.649 213.749 290.535 212.837 291.422C211.621 292.604 210.396 293.793 209.18 294.974C206.748 297.338 204.32 299.695 201.888 302.058C198.24 305.603 194.588 309.15 190.94 312.695C189.887 313.719 189.875 315.402 190.899 316.456C191.922 317.509 193.606 317.541 194.659 316.517C201.955 309.428 209.238 302.333 216.534 295.244C217.446 294.358 218.364 293.471 219.276 292.585C219.885 291.995 220.497 291.389 221.105 290.799C222.217 289.718 224.25 288.15 224.491 286.478C224.65 285.372 223.984 283.787 223.66 282.779C223.188 281.311 222.719 279.844 222.247 278.375C220.549 273.089 218.856 267.81 217.158 262.524C216.767 261.309 216.376 260.083 215.974 258.868C217.513 257.521 219.038 256.157 220.565 254.796C221.543 253.924 222.515 253.051 223.494 252.178C223.983 251.742 224.48 251.306 224.969 250.869C225.754 250.169 226.668 249.499 227.046 248.481C227.522 247.199 226.898 245.318 226.631 244.076C226.525 243.586 226.424 243.092 226.319 242.602C226.056 241.375 225.793 240.15 225.529 238.924C225.109 236.962 224.684 235.008 224.262 233.045C223.578 229.856 222.89 226.657 222.205 223.468C221.898 222.032 220.484 221.124 219.048 221.432Z" fill="white"/>
<path d="M165.076 197.167C164.36 197.127 163.664 197.191 163.019 197.541C161.675 198.271 160.829 200.518 160.194 201.779C160.011 202.142 159.837 202.497 159.654 202.859C158.008 206.125 156.354 209.399 154.709 212.665C154.526 213.028 154.352 213.383 154.169 213.746C153.796 214.487 153.151 215.505 153.006 216.342C152.842 217.284 153.115 218.246 153.816 218.918C153.989 219.084 154.189 219.236 154.397 219.354C155.64 220.061 157.566 219.349 158.843 219.043C159.153 218.969 159.47 218.888 159.778 218.814C160.396 218.666 161.009 218.526 161.628 218.378C162.245 218.23 162.858 218.09 163.476 217.942C168.418 216.756 173.367 215.555 178.309 214.369C179.854 213.998 181.398 213.638 182.942 213.268C183.56 213.119 184.181 212.988 184.791 212.81C184.912 212.775 185.017 212.668 185.144 212.665C185.253 212.663 185.329 212.782 185.435 212.81C186.027 212.972 186.642 213.056 187.242 213.185C189.043 213.571 190.843 213.961 192.644 214.348C197.746 215.443 202.852 216.535 207.955 217.63C208.555 217.759 209.141 217.896 209.741 218.025C210.341 218.154 210.948 218.27 211.548 218.399C212.267 218.553 213.183 218.843 213.917 218.752C214.819 218.641 215.616 218.129 216.078 217.34C216.167 217.186 216.225 217.028 216.285 216.862C216.738 215.595 215.863 213.558 215.496 212.374C214.763 210.012 214.047 207.652 213.315 205.29C212.895 203.94 212.466 202.589 212.047 201.239C211.943 200.901 212.052 201.228 211.424 199.203C211.394 199.107 211.318 199.044 211.279 198.954C211.201 198.777 211.12 198.609 211.009 198.456C210.926 198.342 210.836 198.241 210.738 198.144C210.599 198.004 210.448 197.896 210.281 197.791C210.158 197.712 210.042 197.64 209.907 197.583C209.726 197.505 209.545 197.452 209.347 197.416C209.194 197.389 209.048 197.376 208.889 197.375C208.784 197.375 208.685 197.342 208.578 197.354C208.389 197.376 208.436 197.41 208.391 197.437C208.292 197.456 208.198 197.428 208.1 197.458C208.085 197.463 208.074 197.474 208.058 197.479C208.024 197.478 208.06 197.497 207.83 197.437C207.588 197.375 207.33 197.492 207.082 197.52C206.834 197.549 206.602 197.575 206.355 197.603C205.612 197.689 204.855 197.788 204.111 197.873C201.634 198.159 199.152 198.44 196.674 198.725C193.949 199.04 191.235 199.346 188.51 199.66C187.766 199.746 187.03 199.844 186.287 199.93C186.039 199.959 185.785 199.977 185.539 200.013C185.436 200.029 185.331 200.083 185.228 200.076C184.871 200.051 184.521 199.963 184.168 199.909C183.298 199.779 182.441 199.661 181.571 199.535C179.831 199.283 178.076 199.04 176.335 198.788C173.291 198.346 170.261 197.9 167.216 197.458C166.53 197.359 165.792 197.208 165.076 197.167ZM165.741 202.61C165.975 202.644 166.212 202.68 166.447 202.714C166.882 202.777 167.321 202.838 167.756 202.901C171.671 203.469 175.578 204.036 179.493 204.605C180.799 204.794 182.093 205.002 183.399 205.186C183.917 205.259 184.435 205.372 184.957 205.394C185.601 205.421 186.249 205.281 186.889 205.207C188.128 205.064 189.369 204.913 190.608 204.771C193.829 204.399 197.047 204.041 200.268 203.669C202.25 203.441 204.227 203.213 206.21 202.984C206.471 202.954 206.737 202.931 206.999 202.901C207.304 203.886 207.608 204.866 207.913 205.851C208.615 208.115 209.31 210.379 210.011 212.644C209.094 212.447 208.187 212.239 207.269 212.042C203.067 211.14 198.861 210.243 194.659 209.341C192.558 208.89 190.465 208.441 188.364 207.991C187.764 207.862 187.161 207.708 186.557 207.596C186.058 207.503 185.568 207.34 185.061 207.346C184.55 207.354 184.044 207.531 183.544 207.638C182.614 207.836 181.686 208.101 180.761 208.323C178.598 208.842 176.441 209.363 174.279 209.881C169.954 210.919 165.64 211.939 161.316 212.977C161.012 213.05 160.707 213.135 160.402 213.205C160.639 212.735 160.87 212.263 161.108 211.793C162.649 208.733 164.242 205.692 165.741 202.61Z" fill="white"/>
<path d="M102.814 133.327C103.082 133.724 102.928 133.493 103.084 133.721C103.102 133.677 103.172 133.669 103.167 133.617C103.151 133.435 102.997 133.311 102.814 133.327ZM103.084 133.721C103.069 133.762 103.052 133.794 103.022 133.825C103.247 134.082 103.484 134.321 103.687 134.594C103.883 134.857 103.431 134.228 103.084 133.721ZM103.022 133.825C102.881 133.665 102.764 133.49 102.606 133.347C102.546 133.293 102.433 133.381 102.357 133.41C102.061 133.523 101.828 133.732 101.651 133.992C101.218 134.626 101.15 135.586 101.547 136.256C101.96 136.955 102.988 137.177 103.707 136.858C103.959 136.747 104.172 136.564 104.331 136.339C104.384 136.263 104.497 136.173 104.456 136.09C103.976 135.131 104.458 136.088 104.538 135.882C104.604 135.711 104.523 135.511 104.351 135.446C104.18 135.38 103.981 135.482 103.915 135.654C103.393 134.824 103.224 134.569 103.396 134.823C103.599 135.123 103.737 135.455 103.853 135.799C103.901 135.94 103.464 136.237 103.334 136.277C102.933 136.396 102.334 136.312 102.108 135.924C101.843 135.469 101.9 134.793 102.191 134.365C102.229 134.309 102.633 133.897 102.71 133.992C103.14 134.518 102.721 134.004 102.876 133.992C102.962 133.984 102.968 133.883 103.022 133.825Z" fill="white"/>
</g>
<defs>
<clipPath id="clip0_341_4759">
<rect width="363" height="349" fill="white"/>
</clipPath>
</defs>
</svg>
