<svg width="390" height="148" viewBox="0 0 390 148" fill="none" xmlns="http://www.w3.org/2000/svg">
<path d="M150.478 16.0029C150.478 16.0029 151.54 38.2248 137.969 43.1341C126.041 47.4493 113.3 36.5642 110.241 33.7411C113.064 36.8011 123.949 49.5414 119.634 61.4699C114.724 75.041 92.5023 73.9785 92.5023 73.9785V74.0152C92.5023 74.0152 114.724 72.9618 119.634 86.5331C123.959 98.4897 113.011 111.262 110.222 114.28C113.245 111.487 126.016 100.545 137.969 104.869C151.54 109.778 150.478 132 150.478 132H150.524C150.524 132 149.461 109.778 163.033 104.869C175.014 100.534 187.817 111.54 190.798 114.299C188.04 111.318 177.034 98.5148 181.368 86.5331C186.278 72.9618 208.499 74.0152 208.499 74.0152V73.9785C208.499 73.9785 186.278 75.041 181.368 61.4699C177.044 49.5162 187.987 36.7458 190.779 33.7228C187.761 36.5118 174.989 47.4595 163.033 43.1341C149.461 38.2248 150.524 16.0029 150.524 16.0029H150.478ZM190.779 33.7228C191.187 33.3461 192.03 32.6107 192.029 32.6107L191.892 32.4728C191.892 32.4728 191.158 33.3138 190.779 33.7228ZM190.798 114.299C191.164 114.694 191.892 115.53 191.892 115.53L192.029 115.392C192.029 115.392 191.193 114.664 190.798 114.299ZM110.222 114.28C109.813 114.658 108.972 115.392 108.972 115.392L109.11 115.53C109.11 115.53 109.846 114.688 110.222 114.28ZM110.241 33.7411C109.852 33.3198 109.11 32.4728 109.11 32.4728L108.972 32.6107C108.972 32.6107 109.819 33.3524 110.241 33.7411ZM150.239 50.9832C163.004 50.9832 173.354 61.3326 173.354 74.098C173.354 86.8634 163.004 97.2127 150.239 97.2127C137.473 97.2127 127.124 86.8634 127.124 74.098C127.124 61.3326 137.473 50.9832 150.239 50.9832Z" fill="#FF5900"/>
<path d="M109.11 115.526C109.11 115.526 124.542 100.102 119.632 86.5303C114.723 72.9589 92.5005 74.0188 92.5005 74.0188V73.9802C92.5005 73.9802 114.723 75.0401 119.632 61.4688C124.542 47.8975 109.11 32.4727 109.11 32.4727L108.973 32.6098C108.973 32.6098 124.398 48.0414 137.969 43.132C151.541 38.2224 150.481 16 150.481 16H150.519C150.519 16 149.459 38.2224 163.031 43.132C176.602 48.0414 192.027 32.6098 192.027 32.6098L191.89 32.4727C191.89 32.4727 176.458 47.8975 181.367 61.4688C186.277 75.0401 208.499 73.9802 208.499 73.9802V74.0188C208.499 74.0188 186.277 72.9589 181.367 86.5303C176.458 100.102 191.89 115.526 191.89 115.526L192.027 115.389C192.027 115.389 176.602 99.9577 163.031 104.867C149.459 109.776 150.519 131.999 150.519 131.999H150.481C150.481 131.999 151.541 109.776 137.969 104.867C124.398 99.9577 108.973 115.389 108.973 115.389" stroke="#FF5900" stroke-width="5" stroke-miterlimit="10" stroke-linejoin="round"/>
<path d="M230.647 70H228.215C227.415 70 227.255 69.84 226.743 68.784L220.855 56.592C220.343 55.504 220.599 55.312 221.719 54.832L223.223 54.192C224.279 53.744 224.567 54.16 225.143 55.44L228.951 63.728L231.927 54.32C232.343 53.04 232.759 52.752 233.815 53.072L235.639 53.616C236.759 53.936 236.855 54.288 236.503 55.376L232.119 68.784C231.767 69.84 231.447 70 230.647 70ZM245.409 70.384C240.321 70.384 237.025 66.96 237.025 62C237.025 57.424 239.745 53.616 245.057 53.616C249.185 53.616 251.969 56.4 251.969 60.848C251.969 62.128 251.841 62.672 250.721 62.8L241.793 63.824C242.433 65.232 243.841 66.224 246.017 66.224C247.233 66.224 248.609 65.488 249.697 64.88C250.177 64.592 250.657 64.848 250.881 65.456L251.521 67.12C251.745 67.728 251.905 68.048 251.393 68.464C249.825 69.712 247.457 70.384 245.409 70.384ZM244.737 57.776C243.073 57.776 241.985 58.512 241.601 60.368L247.361 59.696C247.073 58.544 246.113 57.776 244.737 57.776ZM257.998 68.72C257.998 69.584 257.582 70 256.718 70H254.798C253.934 70 253.518 69.584 253.518 68.72V53.68C253.518 52.816 253.934 52.4 254.798 52.4H256.718C257.582 52.4 257.998 52.816 257.998 53.68V56.336C259.054 54.608 260.686 53.616 262.19 53.616C262.894 53.616 263.63 53.776 264.046 54.032C264.302 54.192 264.366 54.416 264.334 54.64L264.014 58.32C263.982 58.8 263.694 58.96 263.15 58.832C262.254 58.64 261.646 58.576 261.102 58.576C259.342 58.576 257.998 59.92 257.998 62.512V68.72ZM274.224 51.824C273.008 51.824 271.952 51.248 270.736 51.248C270.064 51.248 269.232 51.472 268.624 51.696C267.856 51.984 267.376 51.76 267.376 50.928V49.36C267.376 48.72 267.568 48.272 268.336 47.984C269.104 47.696 269.808 47.568 270.512 47.568C271.856 47.568 272.848 48.144 274 48.144C274.672 48.144 275.504 47.92 276.112 47.696C276.88 47.408 277.36 47.632 277.36 48.464V50.032C277.36 50.672 277.168 51.12 276.4 51.408C275.632 51.696 274.928 51.824 274.224 51.824ZM278.352 70.96H275.792C275.152 70.96 274.832 70.64 274.832 70V68.624C273.84 69.584 272.336 70.224 270.928 70.352C270.736 70.384 270.544 70.384 270.384 70.384C267.088 70.384 264.816 68.112 264.816 65.104C264.816 62.32 266.576 59.888 271.024 59.888C272.24 59.888 273.616 60.208 274.832 60.72C274.8 60.496 274.768 60.304 274.736 60.112C274.384 58.576 273.232 57.776 271.504 57.776C270.32 57.776 268.976 58.224 267.728 58.992C267.248 59.28 266.864 59.024 266.544 58.416L266.096 57.488L265.616 56.56C265.52 56.368 265.456 56.208 265.392 56.048C265.328 55.728 265.392 55.472 265.744 55.216C267.248 54.032 269.584 53.296 272.016 53.296C276.496 53.296 279.312 56.08 279.312 60.624V70C279.312 70.224 279.28 70.384 279.216 70.544C279.056 70.832 278.768 70.96 278.352 70.96ZM271.504 66.384C272.816 66.384 274.288 65.872 274.704 64.912C274.8 64.72 274.832 64.528 274.832 64.336V64.208C273.744 63.792 272.528 63.568 271.504 63.568C270.032 63.568 269.296 64.048 269.296 64.976C269.296 65.872 270.32 66.384 271.504 66.384ZM288.794 70.384C283.802 70.384 280.762 66.8 280.762 62C280.762 57.2 283.802 53.616 288.794 53.616C293.786 53.616 296.826 57.2 296.826 62C296.826 66.8 293.786 70.384 288.794 70.384ZM288.794 65.744C290.746 65.744 292.346 64.72 292.346 62C292.346 59.28 290.746 58.256 288.794 58.256C286.842 58.256 285.242 59.28 285.242 62C285.242 64.72 286.842 65.744 288.794 65.744Z" fill="white"/>
<path d="M225.349 105.76C225.349 106.4 225.029 106.72 224.389 106.72H223.749C223.109 106.72 222.789 106.4 222.789 105.76V84.96C222.789 84.32 223.109 84 223.749 84H224.389C225.029 84 225.349 84.32 225.349 84.96V86.592C226.565 85.056 228.357 84.32 230.149 84.32C233.733 84.32 236.581 87.52 236.581 92.48C236.581 97.28 233.605 100.32 229.829 100.32C228.421 100.32 226.821 99.904 225.349 99.232V105.76ZM229.829 97.6C232.229 97.6 234.021 95.936 234.021 92.48C234.021 88.992 231.941 87.04 229.637 87.04C227.397 87.04 225.349 88.992 225.349 91.552V96.224C226.725 97.152 228.293 97.6 229.829 97.6ZM249.784 99.04V97.728C248.504 99.328 246.584 100.32 244.6 100.32C241.56 100.32 239.352 98.528 239.352 94.368V85.28C239.352 84.64 239.672 84.32 240.312 84.32H240.952C241.592 84.32 241.912 84.64 241.912 85.28V93.248C241.912 96.192 243.288 97.6 245.496 97.6C247.736 97.6 249.784 95.648 249.784 93.088V84.32C249.784 83.68 250.104 83.36 250.744 83.36H251.384C252.024 83.36 252.344 83.68 252.344 84.32V99.04C252.344 99.68 252.024 100 251.384 100H250.744C250.104 100 249.784 99.68 249.784 99.04ZM258.674 99.36C258.674 100 258.354 100.32 257.714 100.32H257.074C256.434 100.32 256.114 100 256.114 99.36V84C256.114 83.36 256.434 83.04 257.074 83.04H257.714C258.354 83.04 258.674 83.36 258.674 84V86.048C259.666 84.768 261.106 84 262.834 84C263.57 84 264.338 84.192 264.754 84.416C264.978 84.544 265.01 84.672 264.978 84.96L264.658 86.944C264.594 87.328 264.37 87.36 264.05 87.296C263.154 87.136 262.578 87.04 262.098 87.04C260.146 87.04 258.674 88.672 258.674 90.912V99.36ZM273.619 100.32C269.043 100.32 266.227 96.896 266.227 92.32C266.227 87.552 269.043 84 273.619 84C278.195 84 280.979 87.552 280.979 92.32C280.979 96.896 278.195 100.32 273.619 100.32ZM273.619 97.6C276.563 97.6 278.419 95.872 278.419 92.32C278.419 88.576 276.563 86.72 273.619 86.72C270.675 86.72 268.787 88.544 268.787 92.32C268.787 95.872 270.675 97.6 273.619 97.6Z" fill="white"/>
</svg>
