<svg width="390" height="148" viewBox="0 0 390 148" fill="none" xmlns="http://www.w3.org/2000/svg">
<path d="M109.11 115.527C109.11 115.527 124.541 100.102 119.632 86.531C114.723 72.9595 92.4999 74.0194 92.4999 74.0194V73.9806C92.4999 73.9806 114.723 75.0405 119.632 61.4693C124.541 47.8977 109.11 32.4729 109.11 32.4729L108.973 32.6099C108.973 32.6099 124.398 48.0418 137.969 43.1323C151.54 38.2227 150.48 16 150.48 16H150.519C150.519 16 149.459 38.2227 163.031 43.1323C176.602 48.0418 192.026 32.6099 192.026 32.6099L191.889 32.4729C191.889 32.4729 176.458 47.8977 181.368 61.4693C186.276 75.0405 208.5 73.9806 208.5 73.9806V74.0194C208.5 74.0194 186.276 72.9595 181.368 86.531C176.458 100.102 191.889 115.527 191.889 115.527L192.026 115.39C192.026 115.39 176.602 99.9585 163.031 104.868C149.459 109.777 150.519 132 150.519 132H150.48C150.48 132 151.54 109.777 137.969 104.868C124.398 99.9585 108.973 115.39 108.973 115.39" stroke="white" stroke-width="5" stroke-miterlimit="10" stroke-linejoin="round"/>
<path d="M127.126 74.0962C127.126 61.3308 137.475 50.9822 150.24 50.9822C163.006 50.9822 173.354 61.3308 173.354 74.0962C173.354 86.8618 163.006 97.2102 150.24 97.2102C137.475 97.2102 127.126 86.8618 127.126 74.0962Z" stroke="white" stroke-width="5" stroke-miterlimit="10" stroke-linejoin="round"/>
<path d="M230.647 70H228.215C227.415 70 227.255 69.84 226.743 68.784L220.855 56.592C220.343 55.504 220.599 55.312 221.719 54.832L223.223 54.192C224.279 53.744 224.567 54.16 225.143 55.44L228.951 63.728L231.927 54.32C232.343 53.04 232.759 52.752 233.815 53.072L235.639 53.616C236.759 53.936 236.855 54.288 236.503 55.376L232.119 68.784C231.767 69.84 231.447 70 230.647 70ZM245.409 70.384C240.321 70.384 237.025 66.96 237.025 62C237.025 57.424 239.745 53.616 245.057 53.616C249.185 53.616 251.969 56.4 251.969 60.848C251.969 62.128 251.841 62.672 250.721 62.8L241.793 63.824C242.433 65.232 243.841 66.224 246.017 66.224C247.233 66.224 248.609 65.488 249.697 64.88C250.177 64.592 250.657 64.848 250.881 65.456L251.521 67.12C251.745 67.728 251.905 68.048 251.393 68.464C249.825 69.712 247.457 70.384 245.409 70.384ZM244.737 57.776C243.073 57.776 241.985 58.512 241.601 60.368L247.361 59.696C247.073 58.544 246.113 57.776 244.737 57.776ZM257.998 68.72C257.998 69.584 257.582 70 256.718 70H254.798C253.934 70 253.518 69.584 253.518 68.72V53.68C253.518 52.816 253.934 52.4 254.798 52.4H256.718C257.582 52.4 257.998 52.816 257.998 53.68V56.336C259.054 54.608 260.686 53.616 262.19 53.616C262.894 53.616 263.63 53.776 264.046 54.032C264.302 54.192 264.366 54.416 264.334 54.64L264.014 58.32C263.982 58.8 263.694 58.96 263.15 58.832C262.254 58.64 261.646 58.576 261.102 58.576C259.342 58.576 257.998 59.92 257.998 62.512V68.72ZM274.225 51.824C273.009 51.824 271.953 51.248 270.737 51.248C270.065 51.248 269.233 51.472 268.625 51.696C267.857 51.984 267.377 51.76 267.377 50.928V49.36C267.377 48.72 267.569 48.272 268.337 47.984C269.105 47.696 269.809 47.568 270.513 47.568C271.857 47.568 272.849 48.144 274.001 48.144C274.673 48.144 275.505 47.92 276.113 47.696C276.881 47.408 277.361 47.632 277.361 48.464V50.032C277.361 50.672 277.169 51.12 276.401 51.408C275.633 51.696 274.929 51.824 274.225 51.824ZM278.353 70.96H275.793C275.153 70.96 274.833 70.64 274.833 70V68.624C273.841 69.584 272.337 70.224 270.929 70.352C270.737 70.384 270.545 70.384 270.385 70.384C267.089 70.384 264.817 68.112 264.817 65.104C264.817 62.32 266.577 59.888 271.025 59.888C272.241 59.888 273.617 60.208 274.833 60.72C274.801 60.496 274.769 60.304 274.737 60.112C274.385 58.576 273.233 57.776 271.505 57.776C270.321 57.776 268.977 58.224 267.729 58.992C267.249 59.28 266.865 59.024 266.545 58.416L266.097 57.488L265.617 56.56C265.521 56.368 265.457 56.208 265.393 56.048C265.329 55.728 265.393 55.472 265.745 55.216C267.249 54.032 269.585 53.296 272.017 53.296C276.497 53.296 279.313 56.08 279.313 60.624V70C279.313 70.224 279.281 70.384 279.217 70.544C279.057 70.832 278.769 70.96 278.353 70.96ZM271.505 66.384C272.817 66.384 274.289 65.872 274.705 64.912C274.801 64.72 274.833 64.528 274.833 64.336V64.208C273.745 63.792 272.529 63.568 271.505 63.568C270.033 63.568 269.297 64.048 269.297 64.976C269.297 65.872 270.321 66.384 271.505 66.384ZM288.795 70.384C283.803 70.384 280.763 66.8 280.763 62C280.763 57.2 283.803 53.616 288.795 53.616C293.787 53.616 296.827 57.2 296.827 62C296.827 66.8 293.787 70.384 288.795 70.384ZM288.795 65.744C290.747 65.744 292.347 64.72 292.347 62C292.347 59.28 290.747 58.256 288.795 58.256C286.843 58.256 285.243 59.28 285.243 62C285.243 64.72 286.843 65.744 288.795 65.744Z" fill="white"/>
<path d="M224.61 92.48C224.61 95.936 226.434 97.6 229.442 97.6C231.042 97.6 232.802 97.152 233.826 96.608C234.082 96.48 234.306 96.576 234.402 96.832L234.946 98.24C235.074 98.528 235.01 98.784 234.754 98.976C233.698 99.744 231.394 100.32 229.41 100.32C224.962 100.32 222.05 97.248 222.05 92.48C222.05 87.552 224.962 84.32 229.41 84.32C231.266 84.32 233.41 84.928 234.434 85.664C234.69 85.856 234.754 86.112 234.626 86.4L234.082 87.808C233.986 88.064 233.762 88.16 233.506 88.032C232.546 87.52 230.914 87.04 229.442 87.04C226.434 87.04 224.61 88.832 224.61 92.48ZM240.103 99.04C240.103 99.68 239.783 100 239.143 100H238.503C237.863 100 237.543 99.68 237.543 99.04V77.92C237.543 77.28 237.863 76.96 238.503 76.96H239.143C239.783 76.96 240.103 77.28 240.103 77.92V99.04ZM254.933 100.64H253.653C253.237 100.64 253.013 100.416 253.013 100V98.656C251.957 99.68 250.325 100.32 248.565 100.32C248.341 100.32 248.117 100.32 247.925 100.288C244.981 100.032 242.997 97.888 242.997 95.104C242.997 92.48 244.565 90.208 248.565 90.208C250.005 90.208 251.637 90.464 253.013 91.04V90.752C253.013 87.872 251.413 86.4 248.725 86.4C247.477 86.4 246.037 86.848 244.789 87.616C244.533 87.776 244.309 87.68 244.181 87.424L243.701 86.464C243.637 86.304 243.541 86.144 243.477 85.984C243.349 85.696 243.445 85.44 243.669 85.28C244.981 84.384 246.997 83.68 249.237 83.68C253.141 83.68 255.573 86.016 255.573 90.624V100C255.573 100.416 255.349 100.64 254.933 100.64ZM248.725 97.6C251.029 97.6 253.013 96.32 253.013 94.912V93.568C251.669 93.056 250.037 92.768 248.725 92.768C246.613 92.768 245.557 93.632 245.557 94.976C245.557 96.64 247.029 97.6 248.725 97.6ZM261.646 99.36C261.646 100 261.326 100.32 260.686 100.32H260.046C259.406 100.32 259.086 100 259.086 99.36V84C259.086 83.36 259.406 83.04 260.046 83.04H260.686C261.326 83.04 261.646 83.36 261.646 84V86.048C262.638 84.768 264.078 84 265.806 84C266.542 84 267.31 84.192 267.726 84.416C267.95 84.544 267.982 84.672 267.95 84.96L267.63 86.944C267.566 87.328 267.342 87.36 267.022 87.296C266.126 87.136 265.55 87.04 265.07 87.04C263.118 87.04 261.646 88.672 261.646 90.912V99.36ZM276.592 100.32C272.016 100.32 269.2 96.896 269.2 92.32C269.2 87.552 272.016 84 276.592 84C281.168 84 283.952 87.552 283.952 92.32C283.952 96.896 281.168 100.32 276.592 100.32ZM276.592 97.6C279.536 97.6 281.392 95.872 281.392 92.32C281.392 88.576 279.536 86.72 276.592 86.72C273.648 86.72 271.76 88.544 271.76 92.32C271.76 95.872 273.648 97.6 276.592 97.6Z" fill="white"/>
</svg>
