<svg width="208" height="122" viewBox="0 0 208 122" fill="none" xmlns="http://www.w3.org/2000/svg">
<path d="M60.478 3.00293C60.478 3.00291 61.5406 25.2248 47.9693 30.1341C36.0409 34.4493 23.3006 23.5642 20.2407 20.7411C23.0638 23.8011 33.9489 36.5414 29.6337 48.4699C24.7244 62.041 2.50244 60.9785 2.50244 60.9785V61.0152C2.50244 61.0152 24.7244 59.9618 29.6337 73.5331C33.959 85.4897 23.0114 98.2621 20.2223 101.28C23.2451 98.4874 36.0158 87.5445 47.9693 91.8689C61.5406 96.7782 60.478 119 60.478 119H60.5239C60.5239 119 59.4613 96.7782 73.0327 91.8689C85.0144 87.5344 97.8172 98.5402 100.798 101.299C98.0398 98.3176 87.034 85.5148 91.3682 73.5331C96.2778 59.9618 118.499 61.0152 118.499 61.0152V60.9785C118.499 60.9785 96.2778 62.041 91.3682 48.4699C87.0441 36.5162 97.9869 23.7458 100.78 20.7228C97.7614 23.5118 84.9893 34.4595 73.0327 30.1341C59.4613 25.2248 60.5239 3.00293 60.5239 3.00293H60.478ZM100.78 20.7228C101.187 20.3461 102.03 19.6107 102.03 19.6107L101.892 19.4728C101.892 19.4728 101.158 20.3138 100.78 20.7228ZM100.798 101.299C101.164 101.694 101.892 102.53 101.892 102.53L102.03 102.392C102.03 102.392 101.193 101.664 100.798 101.299ZM20.2223 101.28C19.8131 101.658 18.9724 102.392 18.9724 102.392L19.1103 102.53C19.1103 102.53 19.8457 101.688 20.2223 101.28ZM20.2407 20.7411C19.852 20.3198 19.1103 19.4728 19.1103 19.4728L18.9724 19.6107C18.9724 19.6107 19.8194 20.3524 20.2407 20.7411ZM60.239 37.9832C73.0044 37.9832 83.354 48.3326 83.354 61.098C83.354 73.8634 73.0044 84.2127 60.239 84.2127C47.4736 84.2127 37.1242 73.8634 37.1242 61.098C37.1242 48.3326 47.4736 37.9832 60.239 37.9832Z" fill="#FF5900"/>
<path d="M19.1102 102.526C19.1102 102.526 34.5418 87.1016 29.6324 73.5303C24.7231 59.9589 2.50049 61.0188 2.50049 61.0188V60.9802C2.50049 60.9802 24.7231 62.0401 29.6324 48.4688C34.5418 34.8975 19.1102 19.4727 19.1102 19.4727L18.9733 19.6098C18.9733 19.6098 34.3979 35.0414 47.9692 30.132C61.5405 25.2224 60.4806 3 60.4806 3H60.5192C60.5192 3 59.4593 25.2224 73.0307 30.132C86.602 35.0414 102.027 19.6098 102.027 19.6098L101.89 19.4727C101.89 19.4727 86.4581 34.8975 91.3674 48.4688C96.277 62.0401 118.499 60.9802 118.499 60.9802V61.0188C118.499 61.0188 96.277 59.9589 91.3674 73.5303C86.4581 87.1016 101.89 102.526 101.89 102.526L102.027 102.389C102.027 102.389 86.602 86.9577 73.0307 91.867C59.4593 96.7764 60.5192 118.999 60.5192 118.999H60.4806C60.4806 118.999 61.5405 96.7764 47.9692 91.867C34.3979 86.9577 18.9733 102.389 18.9733 102.389" stroke="#FF5900" stroke-width="5" stroke-miterlimit="10" stroke-linejoin="round"/>
<path d="M140.646 57H138.214C137.414 57 137.254 56.84 136.742 55.784L130.854 43.592C130.342 42.504 130.598 42.312 131.718 41.832L133.222 41.192C134.278 40.744 134.566 41.16 135.142 42.44L138.95 50.728L141.926 41.32C142.342 40.04 142.758 39.752 143.814 40.072L145.638 40.616C146.758 40.936 146.854 41.288 146.502 42.376L142.118 55.784C141.766 56.84 141.446 57 140.646 57ZM155.408 57.384C150.32 57.384 147.024 53.96 147.024 49C147.024 44.424 149.744 40.616 155.056 40.616C159.184 40.616 161.968 43.4 161.968 47.848C161.968 49.128 161.84 49.672 160.72 49.8L151.792 50.824C152.432 52.232 153.84 53.224 156.016 53.224C157.232 53.224 158.608 52.488 159.696 51.88C160.176 51.592 160.656 51.848 160.88 52.456L161.52 54.12C161.744 54.728 161.904 55.048 161.392 55.464C159.824 56.712 157.456 57.384 155.408 57.384ZM154.736 44.776C153.072 44.776 151.984 45.512 151.6 47.368L157.36 46.696C157.072 45.544 156.112 44.776 154.736 44.776ZM167.997 55.72C167.997 56.584 167.581 57 166.717 57H164.797C163.933 57 163.517 56.584 163.517 55.72V40.68C163.517 39.816 163.933 39.4 164.797 39.4H166.717C167.581 39.4 167.997 39.816 167.997 40.68V43.336C169.053 41.608 170.685 40.616 172.189 40.616C172.893 40.616 173.629 40.776 174.045 41.032C174.301 41.192 174.365 41.416 174.333 41.64L174.013 45.32C173.981 45.8 173.693 45.96 173.149 45.832C172.253 45.64 171.645 45.576 171.101 45.576C169.341 45.576 167.997 46.92 167.997 49.512V55.72ZM184.224 38.824C183.008 38.824 181.952 38.248 180.736 38.248C180.064 38.248 179.232 38.472 178.624 38.696C177.856 38.984 177.376 38.76 177.376 37.928V36.36C177.376 35.72 177.568 35.272 178.336 34.984C179.104 34.696 179.808 34.568 180.512 34.568C181.856 34.568 182.848 35.144 184 35.144C184.672 35.144 185.504 34.92 186.112 34.696C186.88 34.408 187.36 34.632 187.36 35.464V37.032C187.36 37.672 187.168 38.12 186.4 38.408C185.632 38.696 184.928 38.824 184.224 38.824ZM188.352 57.96H185.792C185.152 57.96 184.832 57.64 184.832 57V55.624C183.84 56.584 182.336 57.224 180.928 57.352C180.736 57.384 180.544 57.384 180.384 57.384C177.088 57.384 174.816 55.112 174.816 52.104C174.816 49.32 176.576 46.888 181.024 46.888C182.24 46.888 183.616 47.208 184.832 47.72C184.8 47.496 184.768 47.304 184.736 47.112C184.384 45.576 183.232 44.776 181.504 44.776C180.32 44.776 178.976 45.224 177.728 45.992C177.248 46.28 176.864 46.024 176.544 45.416L176.096 44.488L175.616 43.56C175.52 43.368 175.456 43.208 175.392 43.048C175.328 42.728 175.392 42.472 175.744 42.216C177.248 41.032 179.584 40.296 182.016 40.296C186.496 40.296 189.312 43.08 189.312 47.624V57C189.312 57.224 189.28 57.384 189.216 57.544C189.056 57.832 188.768 57.96 188.352 57.96ZM181.504 53.384C182.816 53.384 184.288 52.872 184.704 51.912C184.8 51.72 184.832 51.528 184.832 51.336V51.208C183.744 50.792 182.528 50.568 181.504 50.568C180.032 50.568 179.296 51.048 179.296 51.976C179.296 52.872 180.32 53.384 181.504 53.384ZM198.794 57.384C193.802 57.384 190.762 53.8 190.762 49C190.762 44.2 193.802 40.616 198.794 40.616C203.786 40.616 206.826 44.2 206.826 49C206.826 53.8 203.786 57.384 198.794 57.384ZM198.794 52.744C200.746 52.744 202.346 51.72 202.346 49C202.346 46.28 200.746 45.256 198.794 45.256C196.842 45.256 195.242 46.28 195.242 49C195.242 51.72 196.842 52.744 198.794 52.744Z" fill="black"/>
<path d="M135.348 92.76C135.348 93.4 135.028 93.72 134.388 93.72H133.748C133.108 93.72 132.788 93.4 132.788 92.76V71.96C132.788 71.32 133.108 71 133.748 71H134.388C135.028 71 135.348 71.32 135.348 71.96V73.592C136.564 72.056 138.356 71.32 140.148 71.32C143.732 71.32 146.58 74.52 146.58 79.48C146.58 84.28 143.604 87.32 139.828 87.32C138.42 87.32 136.82 86.904 135.348 86.232V92.76ZM139.828 84.6C142.228 84.6 144.02 82.936 144.02 79.48C144.02 75.992 141.94 74.04 139.636 74.04C137.396 74.04 135.348 75.992 135.348 78.552V83.224C136.724 84.152 138.292 84.6 139.828 84.6ZM159.784 86.04V84.728C158.504 86.328 156.584 87.32 154.6 87.32C151.56 87.32 149.352 85.528 149.352 81.368V72.28C149.352 71.64 149.672 71.32 150.312 71.32H150.952C151.592 71.32 151.912 71.64 151.912 72.28V80.248C151.912 83.192 153.288 84.6 155.496 84.6C157.736 84.6 159.784 82.648 159.784 80.088V71.32C159.784 70.68 160.104 70.36 160.744 70.36H161.384C162.024 70.36 162.344 70.68 162.344 71.32V86.04C162.344 86.68 162.024 87 161.384 87H160.744C160.104 87 159.784 86.68 159.784 86.04ZM168.673 86.36C168.673 87 168.353 87.32 167.713 87.32H167.073C166.433 87.32 166.113 87 166.113 86.36V71C166.113 70.36 166.433 70.04 167.073 70.04H167.713C168.353 70.04 168.673 70.36 168.673 71V73.048C169.665 71.768 171.105 71 172.833 71C173.569 71 174.337 71.192 174.753 71.416C174.977 71.544 175.009 71.672 174.977 71.96L174.657 73.944C174.593 74.328 174.369 74.36 174.049 74.296C173.153 74.136 172.577 74.04 172.097 74.04C170.145 74.04 168.673 75.672 168.673 77.912V86.36ZM183.619 87.32C179.043 87.32 176.227 83.896 176.227 79.32C176.227 74.552 179.043 71 183.619 71C188.195 71 190.979 74.552 190.979 79.32C190.979 83.896 188.195 87.32 183.619 87.32ZM183.619 84.6C186.563 84.6 188.419 82.872 188.419 79.32C188.419 75.576 186.563 73.72 183.619 73.72C180.675 73.72 178.787 75.544 178.787 79.32C178.787 82.872 180.675 84.6 183.619 84.6Z" fill="black"/>
</svg>
