<svg width="390" height="148" viewBox="0 0 390 148" fill="none" xmlns="http://www.w3.org/2000/svg">
<path d="M106.79 65.0044L128.962 78.8086L147.713 65.3819" stroke="black" stroke-width="5" stroke-miterlimit="10" stroke-linecap="round" stroke-linejoin="round"/>
<path d="M103.261 87.2943L127.752 102.694L152.109 87.2268" stroke="black" stroke-width="5" stroke-miterlimit="10" stroke-linecap="round" stroke-linejoin="round"/>
<path d="M147.713 111.161C163.01 108.676 184.587 76.8755 184.587 76.8755L164.218 74.6703L164.325 74.1184C164.325 74.1184 168.408 69.6871 173.684 66.2737C178.96 62.8604 186.406 60.3698 186.406 60.3698L176.083 54.0964L177.94 37.4255L161.019 39.1381L155.191 32.3235C155.191 32.3235 152.839 38.8603 149.538 43.4593C146.236 48.058 142.86 51.6142 142.86 51.6142L142.599 51.7136C142.599 51.7136 142.405 45.6914 143.776 39.5589C145.147 33.4263 148.713 26.4309 148.713 26.4309L136.952 29.1918L126.592 16L115.725 29.0794L106.791 28.304C106.791 28.304 109.694 34.6156 110.563 40.2096C111.431 45.8035 111.516 50.7065 111.516 50.7065L111.554 50.8195C111.554 50.8195 108.377 47.0836 105.333 42.3111C102.288 37.5382 100.297 30.8824 100.297 30.8824L94.1038 37.3676L77.3046 34.7315L78.2453 51.4789L67.5938 57.1777C67.5938 57.1777 74.8925 60.0722 79.9739 63.7693C85.055 67.4666 88.8888 72.1146 88.8888 72.1146L87.9614 72.8687L67.5938 75.0739C67.5938 75.0739 89.1719 106.874 104.467 109.36" stroke="black" stroke-width="5" stroke-miterlimit="10" stroke-linecap="round" stroke-linejoin="round"/>
<path d="M127 53.085C127 53.085 127.742 73.8794 127.684 90.5082C127.659 97.8 125.285 121.348 122.932 132" stroke="black" stroke-width="6" stroke-miterlimit="10" stroke-linecap="round" stroke-linejoin="round"/>
<path d="M207.548 70.384C202.556 70.384 199.516 66.8 199.516 62C199.516 57.2 202.556 53.616 207.548 53.616C212.54 53.616 215.58 57.2 215.58 62C215.58 66.8 212.54 70.384 207.548 70.384ZM207.548 65.744C209.5 65.744 211.1 64.72 211.1 62C211.1 59.28 209.5 58.256 207.548 58.256C205.596 58.256 203.996 59.28 203.996 62C203.996 64.72 205.596 65.744 207.548 65.744ZM227.498 68.72V67.6C226.282 69.488 224.266 70.384 222.474 70.384C219.37 70.384 217.066 68.368 217.066 63.728V55.28C217.066 54.416 217.482 54 218.346 54H220.266C221.13 54 221.546 54.416 221.546 55.28V62.288C221.546 64.624 222.474 65.744 224.01 65.744C226.122 65.744 227.498 64.432 227.498 61.488V54C227.498 53.136 227.914 52.72 228.778 52.72H230.698C231.562 52.72 231.978 53.136 231.978 54V68.72C231.978 69.584 231.562 70 230.698 70H228.778C227.914 70 227.498 69.584 227.498 68.72ZM247.125 68.976C245.653 70.096 243.541 70.704 241.621 70.704C238.133 70.704 236.117 68.528 236.117 64.208V60.048L234.261 59.952C233.557 59.92 233.365 59.568 233.365 58.96V56.4C233.365 55.792 233.813 55.28 234.453 55.312L236.117 55.408V51.76C236.117 51.12 236.437 50.8 237.077 50.8H239.637C240.277 50.8 240.597 51.12 240.597 51.76V55.664L245.205 55.952C245.909 55.984 246.101 56.336 246.101 56.944V59.504C246.101 60.112 245.653 60.624 245.013 60.592L240.597 60.336V63.408C240.597 65.456 241.429 66.128 242.773 66.128C243.605 66.128 244.533 65.648 245.237 65.2C245.717 64.912 246.165 65.168 246.421 65.776L247.253 67.632C247.509 68.176 247.669 68.592 247.125 68.976ZM256.098 70.384C251.106 70.384 248.066 66.8 248.066 62C248.066 57.2 251.106 53.616 256.098 53.616C261.09 53.616 264.13 57.2 264.13 62C264.13 66.8 261.09 70.384 256.098 70.384ZM256.098 65.744C258.05 65.744 259.65 64.72 259.65 62C259.65 59.28 258.05 58.256 256.098 58.256C254.146 58.256 252.546 59.28 252.546 62C252.546 64.72 254.146 65.744 256.098 65.744ZM270.32 69.36C270.32 70.224 269.904 70.64 269.04 70.64H267.12C266.256 70.64 265.84 70.224 265.84 69.36V54C265.84 53.136 266.256 52.72 267.12 52.72H269.04C269.904 52.72 270.32 53.136 270.32 54V56.4C271.536 54.512 273.552 53.616 275.344 53.616C278.448 53.616 280.752 55.632 280.752 60.272V68.72C280.752 69.584 280.336 70 279.472 70H277.552C276.688 70 276.272 69.584 276.272 68.72V61.712C276.272 59.376 275.344 58.256 273.808 58.256C271.696 58.256 270.32 59.568 270.32 62.512V69.36ZM290.267 70.384C285.275 70.384 282.235 66.8 282.235 62C282.235 57.2 285.275 53.616 290.267 53.616C295.259 53.616 298.299 57.2 298.299 62C298.299 66.8 295.259 70.384 290.267 70.384ZM290.267 65.744C292.219 65.744 293.819 64.72 293.819 62C293.819 59.28 292.219 58.256 290.267 58.256C288.315 58.256 286.715 59.28 286.715 62C286.715 64.72 288.315 65.744 290.267 65.744Z" fill="black"/>
<path d="M203.306 105.76C203.306 106.4 202.986 106.72 202.346 106.72H201.706C201.066 106.72 200.746 106.4 200.746 105.76V84.96C200.746 84.32 201.066 84 201.706 84H202.346C202.986 84 203.306 84.32 203.306 84.96V86.592C204.522 85.056 206.314 84.32 208.106 84.32C211.69 84.32 214.538 87.52 214.538 92.48C214.538 97.28 211.562 100.32 207.786 100.32C206.378 100.32 204.778 99.904 203.306 99.232V105.76ZM207.786 97.6C210.186 97.6 211.978 95.936 211.978 92.48C211.978 88.992 209.898 87.04 207.594 87.04C205.354 87.04 203.306 88.992 203.306 91.552V96.224C204.682 97.152 206.25 97.6 207.786 97.6ZM220.093 99.36C220.093 100 219.773 100.32 219.133 100.32H218.493C217.853 100.32 217.533 100 217.533 99.36V84C217.533 83.36 217.853 83.04 218.493 83.04H219.133C219.773 83.04 220.093 83.36 220.093 84V86.048C221.085 84.768 222.525 84 224.253 84C224.989 84 225.757 84.192 226.173 84.416C226.397 84.544 226.429 84.672 226.397 84.96L226.077 86.944C226.013 87.328 225.789 87.36 225.469 87.296C224.573 87.136 223.997 87.04 223.517 87.04C221.565 87.04 220.093 88.672 220.093 90.912V99.36ZM235.038 100.32C230.462 100.32 227.646 96.896 227.646 92.32C227.646 87.552 230.462 84 235.038 84C239.614 84 242.398 87.552 242.398 92.32C242.398 96.896 239.614 100.32 235.038 100.32ZM235.038 97.6C237.982 97.6 239.838 95.872 239.838 92.32C239.838 88.576 237.982 86.72 235.038 86.72C232.094 86.72 230.206 88.544 230.206 92.32C230.206 95.872 232.094 97.6 235.038 97.6ZM249.657 99.36C249.657 99.776 249.433 100 249.017 100H247.737C247.321 100 247.097 99.776 247.097 99.36V87.296L244.505 87.392C244.057 87.424 243.929 87.136 243.929 86.72V85.44C243.929 85.024 244.249 84.704 244.697 84.672L247.097 84.576V82.528C247.097 78.464 249.273 76.384 252.825 76.672L253.241 76.704C253.369 76.704 253.529 76.736 253.657 76.736C254.169 76.768 254.329 76.96 254.233 77.472L254.137 77.952L253.977 78.912C253.881 79.36 253.689 79.488 253.113 79.424L252.441 79.36C252.249 79.328 252.089 79.328 251.929 79.328C250.329 79.392 249.657 80.576 249.657 83.296V84.48L253.625 84.352C254.073 84.32 254.201 84.608 254.201 85.024V86.304C254.201 86.72 253.881 87.04 253.433 87.072L249.657 87.2V99.36ZM267.197 99.04V97.728C265.917 99.328 263.997 100.32 262.013 100.32C258.973 100.32 256.765 98.528 256.765 94.368V85.28C256.765 84.64 257.085 84.32 257.725 84.32H258.365C259.005 84.32 259.325 84.64 259.325 85.28V93.248C259.325 96.192 260.701 97.6 262.909 97.6C265.149 97.6 267.197 95.648 267.197 93.088V84.32C267.197 83.68 267.517 83.36 268.157 83.36H268.797C269.437 83.36 269.757 83.68 269.757 84.32V99.04C269.757 99.68 269.437 100 268.797 100H268.157C267.517 100 267.197 99.68 267.197 99.04ZM276.087 99.36C276.087 100 275.767 100.32 275.127 100.32H274.487C273.847 100.32 273.527 100 273.527 99.36V84.32C273.527 83.68 273.847 83.36 274.487 83.36H275.127C275.767 83.36 276.087 83.68 276.087 84.32V86.592C277.367 84.992 279.287 84 281.271 84C284.311 84 286.519 85.792 286.519 89.952V99.04C286.519 99.68 286.199 100 285.559 100H284.919C284.279 100 283.959 99.68 283.959 99.04V91.072C283.959 88.128 282.583 86.72 280.375 86.72C278.135 86.72 276.087 88.672 276.087 91.232V99.36ZM302.128 100.32H301.488C300.848 100.32 300.528 100 300.528 99.36V97.728C299.312 99.264 297.52 100 295.728 100C292.144 100 289.296 96.8 289.296 91.84C289.296 87.04 292.272 84 296.048 84C297.456 84 299.056 84.416 300.528 85.088V77.92C300.528 77.28 300.848 76.96 301.488 76.96H302.128C302.768 76.96 303.088 77.28 303.088 77.92V99.36C303.088 100 302.768 100.32 302.128 100.32ZM296.24 97.28C298.48 97.28 300.528 95.328 300.528 92.768V88.096C299.152 87.168 297.584 86.72 296.048 86.72C293.648 86.72 291.856 88.384 291.856 91.84C291.856 95.328 293.936 97.28 296.24 97.28ZM313.476 100.32C308.9 100.32 306.084 96.896 306.084 92.32C306.084 87.552 308.9 84 313.476 84C318.052 84 320.836 87.552 320.836 92.32C320.836 96.896 318.052 100.32 313.476 100.32ZM313.476 97.6C316.42 97.6 318.276 95.872 318.276 92.32C318.276 88.576 316.42 86.72 313.476 86.72C310.532 86.72 308.644 88.544 308.644 92.32C308.644 95.872 310.532 97.6 313.476 97.6Z" fill="black"/>
</svg>
