<svg width="577" height="555" viewBox="0 0 577 555" fill="none" xmlns="http://www.w3.org/2000/svg">
<path d="M220.357 29.113C219.518 35.3965 214.705 40.5751 208.116 41.2065C205.445 41.4625 201.792 43.7715 196.881 47.8078C196.064 48.619 195.667 48.9744 194.762 49.874C194.585 50.0528 194.585 50.0483 194.408 50.226C187.797 56.8296 184.464 60.0005 180.501 63.5291C169.641 76.5938 162.246 83.715 151.374 90.1861C145.392 93.7445 140.823 96.3956 136.717 98.5512V503.588H436.178V83.9876C433.529 83.5748 431.034 82.7967 428.164 81.469C427.524 81.1687 426.906 80.863 426.2 80.5109C425.527 80.1732 423.187 78.9701 422.823 78.798C416.807 75.8643 410.803 72.4726 403.982 68.2663C395.958 63.3128 388.066 57.6629 379.236 51.0329C371.742 46.5065 365.595 42.1601 359.392 36.7728C358.531 36.0333 358.045 35.0808 357.416 34.2023C354.8 32.1361 352.747 30.5435 350.926 29.113H220.357Z" fill="#D2D1D1"/>
<path d="M177.577 69.9297L6.20302 106.966L22.4828 200.188L33.509 304.042L0 525.861C0 525.861 15.143 544.486 40.5174 547.881C65.8919 551.277 97.5135 541.582 97.5135 541.582L116.961 396.055L120.714 438.604L224.496 412.885L227.818 221.856L177.577 69.9297Z" fill="white"/>
<path d="M241.052 14.7096C245.312 21.5405 212.123 68.7112 208.249 124.245C204.386 179.777 228.602 226.566 224.518 227.417C220.545 228.241 180.513 183.115 136.254 150.874C104.29 127.586 92.1602 127.633 92.3588 121.872C92.7672 110.442 103.937 90.5791 146.894 64.6087C189.861 38.6382 236.549 7.49463 241.052 14.7096Z" fill="white" stroke="white" stroke-width="5" stroke-miterlimit="10" stroke-linejoin="round"/>
<path d="M111.332 97.6406C110.637 97.538 109.908 97.7036 109.301 98.1583C107.579 99.4364 105.857 100.732 104.202 102.09C102.767 103.262 101.376 104.451 100.019 105.711C94.9528 110.438 89.1252 117.052 90.0854 124.544C90.6263 128.7 93.2531 131.911 96.189 134.719C100.262 138.606 104.93 141.859 109.61 144.963C117.104 149.931 124.897 154.446 132.722 158.863C137.369 161.484 142.148 163.928 146.585 166.899C153.262 171.372 159.333 176.754 165.315 182.109C176.705 192.315 187.555 203.1 198.702 213.565C201.859 216.533 205.037 219.512 208.393 222.257C210.114 223.661 212.002 225.281 214.187 225.879C215.666 226.267 217.178 225.387 217.564 223.912C217.951 222.439 217.079 220.955 215.6 220.567C214.993 220.435 214.364 219.883 213.878 219.533C212.863 218.799 211.902 217.998 210.942 217.186C208.039 214.733 205.236 212.133 202.466 209.53C192.146 199.845 182.091 189.91 171.628 180.385C164.63 174.017 157.523 167.586 149.653 162.312C145.106 159.261 140.172 156.759 135.415 154.068C128.186 149.988 120.978 145.837 114.025 141.306C108.849 137.932 103.551 134.39 99.1911 129.959C97.3479 128.082 95.6481 125.998 95.5046 123.268C95.339 120.222 97.094 117.344 98.882 115.024C102.657 110.135 107.656 106.231 112.579 102.573C113.804 101.664 114.069 99.9331 113.164 98.7101C112.712 98.0987 112.038 97.7433 111.332 97.6406Z" fill="black"/>
<path d="M217.046 236.777C215.523 236.822 214.32 238.083 214.364 239.606C215.192 268.786 214.011 297.998 213.812 327.18C213.702 342.102 214.144 356.991 213.945 371.914C213.812 382.07 213.316 392.218 212.433 402.335C212.3 403.854 213.426 405.169 214.949 405.302C216.462 405.434 217.819 404.302 217.951 402.784C218.658 394.584 219.155 386.387 219.364 378.157C219.806 360.549 219.21 342.961 219.331 325.351C219.53 296.725 220.689 268.094 219.883 239.468C219.839 237.945 218.581 236.734 217.046 236.777Z" fill="black"/>
<path d="M23.4203 117.508C21.9192 117.26 20.4955 118.28 20.2417 119.784C19.9989 121.288 21.0141 122.709 22.5262 122.958C37.4374 125.406 46.4218 138.314 54.6665 149.791C59.0704 155.918 63.4743 162.064 67.7015 168.313C78.1647 183.783 88.065 199.615 98.2634 215.255C99.0911 216.532 100.813 216.882 102.093 216.049C103.374 215.216 103.716 213.531 102.888 212.255C92.6675 196.589 82.734 180.703 72.2597 165.209C67.6131 158.344 62.7899 151.617 57.9446 144.893C50.7594 134.923 42.7575 124.262 30.9698 119.543C28.5306 118.565 26.014 117.935 23.4203 117.508Z" fill="black"/>
<path d="M28.6964 144.307C25.6832 144.808 23.6415 147.647 24.1381 150.653C30.7494 190.286 39.6453 229.522 45.5612 269.269C47.1064 279.646 48.3867 290.081 49.4573 300.517C49.7664 303.549 52.4594 305.728 55.4946 305.415C58.5299 305.103 60.7373 302.411 60.4282 299.379C59.1148 286.657 57.4924 273.969 55.4946 261.335C49.5346 223.688 41.3119 186.456 35.0427 148.86C34.535 145.853 31.6985 143.806 28.6964 144.307Z" fill="black"/>
<path d="M51.6319 324.938C48.6187 324.449 45.8043 326.516 45.3186 329.525C44.4357 334.962 43.3761 340.337 42.2834 345.735C41.6764 348.723 43.6078 351.649 46.5989 352.255C49.5789 352.86 52.5039 350.93 53.1109 347.943C54.2367 342.404 55.274 336.862 56.1901 331.284C56.6757 328.275 54.645 325.426 51.6319 324.938Z" fill="black"/>
<path d="M44.0819 374.812C41.0578 374.381 38.2654 376.485 37.835 379.503C36.0028 392.331 33.6297 405.031 30.8373 417.685C27.2061 434.102 22.99 450.413 19.3809 466.834C18.3765 471.412 17.5045 476.005 16.5553 480.596C15.9814 483.381 15.3301 486.178 14.8334 488.977C14.3257 491.779 13.9837 494.614 13.5532 497.428C12.8468 502.045 12.1185 506.642 11.4121 511.259C10.9596 514.272 13.0234 517.112 16.0366 517.571C19.0497 518.03 21.8863 515.962 22.3498 512.949C23.1224 507.87 23.8841 502.782 24.6567 497.704C24.9988 495.446 25.2968 493.158 25.6941 490.908C26.257 487.745 27.0076 484.606 27.6588 481.458C28.4976 477.37 29.2813 473.257 30.1753 469.18C33.7844 452.763 37.9784 436.478 41.5986 420.064C44.4462 407.14 46.8964 394.158 48.7727 381.054C49.2032 378.037 47.0951 375.242 44.0819 374.812Z" fill="black"/>
<path d="M215.467 30.038C214.065 29.8228 212.587 30.1374 211.362 31.038C190.347 46.4404 167.4 59.0327 147.202 75.5663C144.851 77.4967 144.52 80.969 146.452 83.3266C148.383 85.6852 151.849 86.0163 154.211 84.0859C174.243 67.6825 197.035 55.2193 217.884 39.9372C220.334 38.1349 220.887 34.7034 219.088 32.2454C218.183 31.0159 216.858 30.2532 215.467 30.038Z" fill="black"/>
<path d="M134.719 84.6035C133.318 84.4125 131.828 84.7492 130.614 85.6719C127.7 88.0581 128.991 86.9997 127.722 88.0515C127.06 88.6022 129.057 86.9842 129.686 86.3959C129.984 86.1156 129.046 86.8672 128.715 87.1211C128.042 87.6508 127.347 88.1839 126.684 88.7424C126.342 89.0327 125.327 89.9157 125.68 89.6386C127.358 88.3363 125.669 89.6431 124.786 90.4322C122.523 92.4719 122.369 95.9629 124.411 98.2267C126.453 100.491 129.907 100.681 132.17 98.6406C134.73 96.5479 133.605 97.4916 134.753 96.5369C135.304 96.0832 133.66 97.4541 133.064 97.8481C132.788 98.0335 133.572 97.3746 133.825 97.1572C134.366 96.698 134.918 96.283 135.481 95.8471C135.779 95.6175 136.662 94.9155 136.375 95.1572C134.995 96.3294 136.364 95.1826 137.313 94.4674C139.73 92.622 140.227 89.1331 138.373 86.7072C137.457 85.4942 136.121 84.7933 134.719 84.6035Z" fill="black"/>
<path d="M123.991 314.279C120.956 314.457 118.605 317.066 118.782 320.108C120.084 342.325 122.413 364.457 124.51 386.607C125.547 397.615 126.452 408.626 127.302 419.65C127.545 422.688 130.194 424.955 133.24 424.72C136.275 424.484 138.538 421.826 138.306 418.788C137.445 407.702 136.562 396.609 135.514 385.538C133.428 363.519 131.11 341.538 129.819 319.453C129.642 316.41 127.037 314.101 123.991 314.279Z" fill="black"/>
<path d="M131.927 244.055C130.845 244.126 129.731 244.226 128.649 244.297C125.614 244.496 123.318 247.119 123.517 250.161C123.704 253.202 126.331 255.498 129.377 255.3C130.459 255.229 131.563 255.163 132.655 255.093C135.691 254.895 137.987 252.27 137.788 249.23C137.589 246.188 134.973 243.858 131.927 244.055Z" fill="black"/>
<path d="M174.046 239.192C167.766 239.379 161.552 240.239 155.282 240.468C152.236 240.581 149.885 243.114 150.007 246.159C150.117 249.205 152.645 251.584 155.691 251.471C161.938 251.239 168.141 250.381 174.388 250.195C177.434 250.105 179.829 247.585 179.73 244.539C179.642 241.493 177.092 239.102 174.046 239.192Z" fill="black"/>
<path d="M398.519 75.4507L569.893 112.488L553.614 205.71L542.587 309.565L576.096 531.383C576.096 531.383 560.954 550.007 535.579 553.403C510.205 556.799 478.583 547.104 478.583 547.104L459.135 401.577L455.383 444.126L351.6 418.408L348.278 227.378L398.519 75.4507Z" fill="white"/>
<path d="M335.045 20.2316C330.773 27.0625 363.973 74.2332 367.847 129.766C371.71 185.299 347.495 232.088 351.578 232.939C355.541 233.763 395.584 188.637 439.843 156.396C471.806 133.108 483.936 133.155 483.738 127.394C483.329 115.964 472.16 96.1011 429.192 70.1307C386.235 44.1591 339.548 13.0166 335.045 20.2316Z" fill="white" stroke="white" stroke-width="5" stroke-miterlimit="10" stroke-linejoin="round"/>
<path d="M464.764 103.159C464.069 103.262 463.396 103.617 462.943 104.229C462.027 105.452 462.303 107.182 463.528 108.092C468.605 111.864 473.815 115.916 477.6 121.061C479.223 123.269 480.746 125.951 480.603 128.787C480.437 131.888 478.251 134.198 476.11 136.237C471.883 140.276 466.927 143.642 462.038 146.825C454.665 151.629 447.05 155.99 439.379 160.311C435.041 162.755 430.582 165.057 426.443 167.831C418.253 173.324 410.848 180.05 403.574 186.698C393.431 195.977 383.63 205.636 373.608 215.049C370.54 217.929 367.483 220.834 364.227 223.499C363.289 224.263 362.317 225.032 361.291 225.672C361.048 225.823 360.783 226.024 360.496 226.086C359.028 226.473 358.145 227.958 358.531 229.431C358.918 230.906 360.441 231.786 361.92 231.398C364.491 230.695 366.732 228.583 368.707 226.914C372.184 223.973 375.54 220.866 378.851 217.739C389.48 207.691 399.888 197.395 410.793 187.628C416.764 182.273 422.845 176.891 429.512 172.418C434.368 169.168 439.621 166.533 444.698 163.656C452.557 159.197 460.416 154.619 467.91 149.55C472.446 146.481 476.993 143.261 480.834 139.34C483.406 136.733 485.536 133.773 486.011 130.063C487.015 122.244 480.647 115.369 475.316 110.541C474.212 109.532 473.031 108.56 471.872 107.609C470.216 106.251 468.528 104.955 466.806 103.677C466.188 103.222 465.471 103.057 464.764 103.159Z" fill="black"/>
<path d="M359.05 242.296C357.527 242.253 356.235 243.464 356.191 244.987C355.353 274.232 356.567 303.486 356.777 332.733C356.876 347.666 356.412 362.603 356.6 377.537C356.732 387.828 357.262 398.085 358.156 408.337C358.289 409.856 359.635 410.953 361.158 410.821C362.67 410.688 363.774 409.373 363.641 407.854C362.935 399.767 362.46 391.656 362.262 383.538C361.82 365.964 362.383 348.411 362.262 330.835C362.063 302.274 360.893 273.686 361.71 245.125C361.754 243.602 360.573 242.34 359.05 242.296Z" fill="black"/>
<path d="M552.653 123.026C550.059 123.453 547.543 124.084 545.093 125.061C532.643 130.047 524.497 141.594 516.948 152.103C512.522 158.271 508.096 164.435 503.847 170.728C493.362 186.222 483.406 202.108 473.186 217.774C472.347 219.05 472.733 220.735 474.013 221.567C475.283 222.4 476.971 222.051 477.81 220.774C488.008 205.134 497.931 189.301 508.394 173.831C513.008 167.012 517.831 160.334 522.643 153.654C530.568 142.656 539.331 130.809 553.547 128.476C555.048 128.228 556.075 126.806 555.821 125.302C555.578 123.799 554.154 122.779 552.653 123.026Z" fill="black"/>
<path d="M547.411 149.826C544.398 149.325 541.561 151.372 541.065 154.379C534.796 191.974 526.573 229.207 520.613 266.854C518.604 279.488 516.982 292.175 515.679 304.898C515.359 307.93 517.578 310.622 520.613 310.934C523.637 311.247 526.33 309.068 526.639 306.036C527.721 295.6 529.001 285.199 530.546 274.822C536.462 235.075 545.358 195.839 551.958 156.206C552.466 153.201 550.413 150.327 547.411 149.826Z" fill="black"/>
<path d="M524.476 330.457C521.463 330.944 519.398 333.794 519.884 336.803C520.789 342.381 521.871 347.923 522.986 353.461C523.593 356.449 526.518 358.378 529.509 357.774C532.5 357.168 534.42 354.242 533.813 351.254C532.72 345.856 531.672 340.481 530.789 335.044C530.292 332.035 527.478 329.967 524.476 330.457Z" fill="black"/>
<path d="M532.025 380.33C529.012 380.761 526.904 383.555 527.334 386.573C529.2 399.676 531.661 412.658 534.509 425.583C538.129 441.996 542.323 458.281 545.921 474.698C546.925 479.231 547.786 483.811 548.713 488.357C549.276 491.047 549.928 493.723 550.413 496.427C550.899 499.135 551.241 501.883 551.649 504.602C552.355 509.219 553.051 513.851 553.757 518.467C554.21 521.48 557.024 523.549 560.037 523.089C563.039 522.63 565.115 519.79 564.651 516.777C563.878 511.699 563.117 506.645 562.344 501.567C561.98 499.214 561.693 496.839 561.274 494.495C560.689 491.238 559.938 488.011 559.276 484.77C558.426 480.635 557.587 476.476 556.682 472.353C553.084 455.932 548.89 439.655 545.27 423.237C542.477 410.584 540.093 397.85 538.272 385.021C537.842 382.004 535.038 379.9 532.025 380.33Z" fill="black"/>
<path d="M360.64 35.5568C359.238 35.772 357.913 36.5347 357.019 37.7642C355.209 40.2222 355.728 43.6537 358.189 45.456C379.039 60.7381 401.864 73.2013 421.896 89.6047C424.258 91.5351 427.724 91.204 429.655 88.8454C431.587 86.4878 431.256 83.0155 428.894 81.0851C408.707 64.5515 385.716 51.9592 364.713 36.5568C363.476 35.6562 362.031 35.3416 360.64 35.5568Z" fill="black"/>
<path d="M441.387 90.1223C439.985 90.3121 438.65 91.0472 437.723 92.2602C435.88 94.6862 436.365 98.1419 438.793 99.9862C441.354 102.079 440.195 101.102 441.343 102.056C441.895 102.508 440.239 101.167 439.732 100.676C439.456 100.418 440.328 101.136 440.626 101.366C441.189 101.802 441.74 102.252 442.281 102.711C442.535 102.929 443.308 103.572 443.043 103.367C441.608 102.254 443.021 103.37 443.904 104.159C446.167 106.2 449.654 106.01 451.696 103.745C453.738 101.482 453.583 97.9907 451.321 95.951C448.396 93.5648 449.654 94.6232 448.385 93.5703C447.723 93.0195 449.698 94.6762 450.416 95.1574C450.791 95.408 449.765 94.5515 449.422 94.2612C448.76 93.7027 448.065 93.1696 447.38 92.6399C447.06 92.386 446.1 91.6487 446.42 91.9147C448.032 93.2844 446.387 91.9059 445.449 91.1907C444.235 90.268 442.778 89.9313 441.387 90.1223Z" fill="black"/>
<path d="M452.105 319.798C449.069 319.62 446.454 321.929 446.277 324.972C444.986 347.057 442.668 369.073 440.593 391.092C439.545 402.162 438.651 413.221 437.79 424.307C437.558 427.345 439.832 430.003 442.867 430.239C445.902 430.474 448.562 428.207 448.793 425.169C449.654 414.145 450.549 403.134 451.586 392.126C453.683 369.976 455.99 347.844 457.281 325.627C457.458 322.585 455.151 319.976 452.105 319.798Z" fill="black"/>
<path d="M238.084 0.0158636C233.272 -0.142189 228.879 0.881176 224.63 3.06874V77.2915H348.323V4.36119C346.601 4.64595 344.968 4.83027 343.147 5.22209C338.732 6.17129 336.48 6.74633 326.381 9.48907C317.651 11.8599 312.518 13.1501 306.613 14.2648C299.45 15.6213 292.155 15.2317 284.164 13.4039C278.414 12.0883 273.877 10.5619 264.264 6.98362C250.545 1.88114 244.828 0.236607 238.084 0.0158636Z" fill="#D2D1D1"/>
<path d="M218.393 80.9282C218.393 80.9282 260.71 163.903 286.471 164.772C312.242 165.641 355.431 81.1633 355.431 81.1633" stroke="#B9B9B9" stroke-width="2" stroke-miterlimit="10" stroke-linecap="round" stroke-linejoin="round" stroke-dasharray="2 2"/>
<path d="M215.645 93.7125C215.645 93.7125 261.151 199.313 286.912 200.181C312.683 201.05 358.488 93.1011 358.488 93.1011" stroke="#B9B9B9" stroke-width="2" stroke-miterlimit="10" stroke-linecap="round" stroke-linejoin="round" stroke-dasharray="2 2"/>
</svg>
