<svg width="310" height="140" viewBox="0 0 310 140" fill="none" xmlns="http://www.w3.org/2000/svg">
<g clip-path="url(#clip0_1280_10780)">
<mask id="mask0_1280_10780" style="mask-type:luminance" maskUnits="userSpaceOnUse" x="0" y="0" width="310" height="140">
<path d="M310 0H0V140H310V0Z" fill="white"/>
</mask>
<g mask="url(#mask0_1280_10780)">
<path d="M42.6718 11.6127C41.6381 11.2647 39.5166 16.0777 39.1494 16.8697C36.8632 21.7947 35.2657 27.4367 32.3682 32.0017C32.9019 32.7247 33.2119 33.1147 33.583 33.4937C34.2524 34.1777 34.9974 34.8397 35.7879 35.5237C35.8566 35.3497 35.9797 35.0117 36.0339 34.9087C37.5277 32.0587 40.2034 26.9577 43.5417 26.1227C45.951 28.5197 48.402 30.8737 50.1283 33.8767C51.9301 37.0107 53.0045 40.8717 54.0285 44.3597C54.4256 45.7147 54.599 47.3237 55.375 48.5247C55.7945 49.1747 56.4019 49.7747 57.0635 50.3487C61.017 52.5277 64.9211 54.3057 68.922 55.6877C69.5885 55.9177 70.1068 56.1267 71.2635 56.6107C71.3739 56.6567 71.4262 56.6797 71.4873 56.7057C72.5432 57.1467 73.3221 57.4387 74.006 57.6517C74.0273 57.4837 74.0661 57.1547 74.0796 57.0887C74.7859 53.6127 73.3976 48.9117 71.7033 45.8927C65.6215 35.0557 57.144 27.0757 48.1462 18.8567C46.6243 17.4677 45.114 15.9157 43.9835 14.1657C43.7674 13.8317 42.9508 11.7067 42.6718 11.6127Z" fill="#1A1A1A"/>
<path d="M86.6643 -10C83.0111 -9.944 79.1971 -8.87695 76.1204 -6.89795C73.0901 -4.94695 70.6847 -0.979991 69.6695 2.49701C69.3818 3.48301 69.128 4.73903 68.7463 5.91302C68.7695 5.91502 68.7918 5.91902 68.8151 5.92102C68.5012 6.62802 68.1795 7.40903 68.3413 7.90503C68.415 8.13003 69.0766 8.23305 69.2549 8.31305C70.026 8.65705 70.7913 9.31501 71.4723 9.83801C71.5014 9.86101 71.5179 9.89601 71.546 9.91901C69.065 9.11601 65.2898 9.10403 62.6741 9.81403C61.4322 10.234 60.2184 10.714 59.0161 11.197C56.3966 12.346 52.5091 14.55 55.2652 15.888C56.4025 16.44 58.4882 15.386 59.6652 15.303C62.6054 15.096 66.2769 16.242 68.8548 17.629C71.7736 19.2 74.6053 25.5251 77.2703 25.7531C79.0441 25.9051 79.7784 24.218 80.9612 23.107C82.3911 21.764 83.7057 20.7871 85.215 20.1281C85.3787 19.9551 85.5754 19.807 85.8089 19.715C85.836 19.704 85.8321 19.695 85.8592 19.684C87.1302 19.186 92.3082 17.378 93.4649 16.939C99.2628 14.739 102.995 12.405 105.112 9.20001C105.008 7.78001 104.436 6.33105 104.232 4.95905C103.712 1.45805 102.487 -2.146 100.365 -5C99.7598 -5.553 98.9693 -6.34299 98.3978 -6.77399C97.1645 -7.70199 95.6795 -8.23496 93.091 -8.80396C92.8275 -8.86196 91.0353 -9.24795 90.6139 -9.34595C89.2295 -9.66795 87.943 -9.846 86.6643 -10Z" fill="#1A1A1A"/>
<path d="M93.4593 28.0862C92.446 28.2802 91.7756 29.2892 91.9645 30.3352C92.1524 31.3812 93.1299 32.0723 94.1432 31.8783C95.1565 31.6833 95.8191 30.6762 95.6302 29.6302C95.4423 28.5842 94.4716 27.8912 93.4593 28.0862ZM121.783 22.6422C120.77 22.8362 120.1 23.8453 120.288 24.8913C120.477 25.9373 121.454 26.6282 122.468 26.4342C123.48 26.2392 124.143 25.2322 123.955 24.1862C123.767 23.1402 122.796 22.4472 121.783 22.6422ZM96.5215 30.6182C95.5082 30.8132 94.8455 31.8202 95.0335 32.8662C95.2224 33.9122 96.1921 34.6052 97.2054 34.4102C98.2187 34.2152 98.8891 33.2072 98.7002 32.1612C98.5113 31.1152 97.5348 30.4232 96.5215 30.6182ZM119.802 26.1432C118.788 26.3382 118.118 27.3472 118.307 28.3932C118.496 29.4382 119.472 30.1302 120.485 29.9362C121.499 29.7412 122.169 28.7322 121.98 27.6862C121.791 26.6412 120.815 25.9492 119.802 26.1432ZM100.351 32.7732C99.3376 32.9672 98.6663 33.9692 98.8552 35.0142C99.0441 36.0602 100.021 36.7522 101.034 36.5572C102.047 36.3632 102.718 35.3543 102.529 34.3083C102.34 33.2633 101.364 32.5782 100.351 32.7732ZM116.98 29.5763C115.966 29.7713 115.302 30.7712 115.491 31.8172C115.679 32.8632 116.649 33.5562 117.662 33.3612C118.676 33.1672 119.346 32.1582 119.157 31.1122C118.968 30.0662 117.993 29.3823 116.98 29.5763ZM104.745 33.5482C103.733 33.7432 103.069 34.7502 103.258 35.7962C103.446 36.8412 104.417 37.5352 105.429 37.3402C106.442 37.1452 107.113 36.1372 106.924 35.0912C106.736 34.0452 105.759 33.3532 104.745 33.5482ZM113.15 31.9322C112.137 32.1272 111.466 33.1362 111.655 34.1822C111.844 35.2272 112.821 35.9192 113.834 35.7252C114.847 35.5302 115.511 34.5233 115.322 33.4773C115.133 32.4313 114.163 31.7382 113.15 31.9322ZM108.886 32.9162C107.873 33.1102 107.21 34.1172 107.399 35.1632C107.587 36.2092 108.557 36.9022 109.57 36.7082C110.583 36.5132 111.253 35.5043 111.064 34.4593C110.876 33.4133 109.899 32.7212 108.886 32.9162Z" fill="#1A1A1A"/>
<path d="M95.686 46.4981C94.5497 46.3871 93.4075 46.5101 92.3216 46.9731C91.9447 47.1341 91.5785 47.3352 91.2385 47.5682C90.881 47.8112 90.5488 48.0891 90.2688 48.4251C89.2303 49.6701 89.2962 51.2281 89.6546 52.7351C89.8571 53.5851 90.1419 54.4121 90.3763 55.2531C90.542 55.8481 90.6854 56.4691 90.695 57.0911C90.7018 57.4981 90.6359 57.9071 90.5478 58.3021C90.1632 60.0261 89.0908 61.4791 88.1026 62.8831C87.6396 63.5411 87.1978 64.2061 86.8065 64.9011C86.4083 64.6211 85.9985 64.3491 85.6323 64.0441C84.6655 64.2241 84.0698 64.7731 83.287 66.0131C83.1989 66.1531 83.0487 66.4031 82.853 66.7271C82.7581 66.9671 82.6312 67.3311 82.5566 67.4861C80.8167 71.0811 75.9613 80.6891 76.2742 86.0451C76.3672 86.0871 76.4495 86.1311 76.5445 86.1721C78.1972 86.8911 79.599 87.3711 82.6893 88.3371C87.1872 89.7431 91.6086 90.5041 97.2661 90.9631C106.436 91.7061 111.207 90.9361 117.143 87.1931C117.691 82.0761 114.085 72.3711 112.902 68.6131C112.643 68.0641 112.316 67.3611 112.177 67.0951C111.783 66.3351 111.425 65.8771 110.956 65.6221C110.641 65.8281 110.332 66.0081 110.018 66.1961C109.918 65.3391 109.764 64.4871 109.563 63.6511C109.11 61.7661 108.474 59.9281 107.722 58.1501C106.974 56.3791 106.101 54.6571 105.084 53.0341C103.999 51.3031 102.746 49.6201 101.027 48.5251C99.4535 47.5241 97.578 46.6841 95.686 46.4981ZM95.2433 47.6741C97.1895 47.7791 99.1726 48.7351 100.746 49.7861C101.417 50.2341 101.99 50.8531 102.505 51.4761C103.084 52.1771 103.603 52.9241 104.085 53.6971C105.065 55.2661 105.899 56.9371 106.62 58.6461C107.377 60.4371 108.021 62.2881 108.457 64.1911C108.657 65.0621 108.806 65.9491 108.879 66.8421C107.35 67.6571 105.835 68.2601 104.278 68.6001C98.9924 69.7531 92.5221 68.4951 87.7597 65.5561C88.2577 64.6671 88.8544 63.8271 89.4376 62.9881C90.5304 61.4141 91.5698 59.7391 91.7955 57.7711C92.0232 55.7881 91.0554 53.9571 90.6824 52.0611C90.4887 51.0751 90.4713 50.0061 91.1445 49.2031C91.3567 48.9521 91.6076 48.7512 91.8769 48.5682C92.9232 47.8582 94.076 47.6121 95.2433 47.6741Z" fill="#1A1A1A"/>
<path d="M48.1477 60.8845C46.7653 60.3375 45.2172 61.0565 44.6873 62.4835L34.2306 90.6545C33.7007 92.0815 34.3876 93.6845 35.77 94.2315L48.9285 99.4365C50.3119 99.9825 51.859 99.2635 52.3889 97.8365L62.8456 69.6655C63.3755 68.2385 62.6896 66.6355 61.3072 66.0895L48.1477 60.8845ZM47.6362 61.6535C48.4316 61.9685 48.8346 62.8845 48.5294 63.7065C48.2242 64.5285 47.3291 64.9405 46.5328 64.6255C45.7365 64.3105 45.3451 63.3895 45.6493 62.5675C45.9544 61.7455 46.8399 61.3385 47.6362 61.6535ZM50.4252 65.3115C51.2216 65.6255 51.6139 66.5475 51.3087 67.3695C51.0036 68.1905 50.1152 68.6065 49.3189 68.2915C48.5236 67.9765 48.1235 67.0525 48.4286 66.2305C48.7338 65.4085 49.6299 64.9965 50.4252 65.3115ZM45.8372 66.5005C46.6326 66.8155 47.0327 67.7395 46.7275 68.5615C46.4224 69.3835 45.5302 69.7875 44.7338 69.4725C43.9375 69.1575 43.5423 68.2445 43.8474 67.4225C44.1526 66.6005 45.0409 66.1855 45.8372 66.5005Z" fill="#1A1A1A"/>
<path d="M29.9111 -5.04004L19.8671 6.97498C20.2033 7.13998 20.5327 7.33295 20.8281 7.59595L25.0596 11.364C25.3551 11.627 25.5905 11.942 25.7988 12.261L35.8428 0.245973L29.9111 -5.04004ZM17.111 7.81396C16.4261 8.00597 15.7858 8.40398 15.2869 9.00098L12.1346 12.7759C10.8055 14.3669 10.9759 16.768 12.5172 18.14L16.1762 21.4009C17.7175 22.7729 20.0415 22.5899 21.3706 20.9999L24.5249 17.231C25.854 15.641 25.6835 13.2389 24.1432 11.8669L20.4832 8.60596C19.5203 7.74896 18.2532 7.49397 17.111 7.81396ZM10.8626 17.753L0 30.752L5.92972 36.032L16.7923 23.032C16.4562 22.867 16.1316 22.665 15.8362 22.402L11.6047 18.634C11.3092 18.371 11.0709 18.072 10.8626 17.753Z" fill="#1A1A1A"/>
<path d="M15.8647 42.4953L14.616 45.7144L18.6363 48.4254L21.0262 46.3643L19.3241 41.6533L15.8647 42.4953ZM16.1398 47.8943C13.0621 52.4393 13.2762 58.6084 16.7705 62.9254C21.0184 68.1734 28.5844 68.8723 33.6674 64.4873C38.7514 60.1023 39.4286 52.2923 35.1806 47.0453C31.7212 42.7713 25.96 41.4373 21.1037 43.6693L21.7479 45.1603C25.962 43.2243 30.9617 44.3854 33.9638 48.0944C37.6509 52.6484 37.0629 59.4253 32.6512 63.2313C28.2395 67.0373 21.6733 66.4303 17.9872 61.8763C14.9541 58.1293 14.77 52.7713 17.4408 48.8283L16.1398 47.8943Z" fill="#1A1A1A"/>
<path d="M246.109 12.6127C245.076 12.2647 242.954 17.0777 242.587 17.8697C240.301 22.7947 238.703 28.4367 235.806 33.0017C236.339 33.7247 236.649 34.1147 237.02 34.4937C237.69 35.1777 238.435 35.8397 239.225 36.5237C239.294 36.3497 239.417 36.0117 239.471 35.9087C240.965 33.0587 243.641 27.9577 246.979 27.1227C249.389 29.5197 251.839 31.8737 253.566 34.8767C255.368 38.0107 256.442 41.8717 257.466 45.3597C257.863 46.7147 258.037 48.3237 258.812 49.5247C259.232 50.1747 259.839 50.7747 260.501 51.3487C264.455 53.5277 268.359 55.3057 272.36 56.6877C273.026 56.9177 273.544 57.1267 274.701 57.6107C274.811 57.6567 274.864 57.6797 274.925 57.7057C275.981 58.1467 276.76 58.4387 277.444 58.6517C277.465 58.4837 277.504 58.1547 277.517 58.0887C278.223 54.6127 276.835 49.9117 275.141 46.8927C269.059 36.0557 260.581 28.0757 251.584 19.8567C250.062 18.4677 248.551 16.9157 247.421 15.1657C247.205 14.8317 246.388 12.7067 246.109 12.6127Z" fill="#1A1A1A"/>
<path d="M290.102 -9C286.449 -8.944 282.635 -7.87695 279.558 -5.89795C276.528 -3.94695 274.122 0.0200093 273.107 3.49701C272.819 4.48301 272.565 5.73903 272.184 6.91302C272.207 6.91502 272.229 6.91902 272.253 6.92102C271.939 7.62802 271.617 8.40903 271.779 8.90503C271.852 9.13003 272.514 9.23305 272.692 9.31305C273.463 9.65705 274.229 10.315 274.91 10.838C274.939 10.861 274.955 10.896 274.983 10.919C272.502 10.116 268.727 10.104 266.112 10.814C264.87 11.234 263.656 11.714 262.454 12.197C259.834 13.346 255.947 15.55 258.703 16.888C259.84 17.44 261.926 16.386 263.103 16.303C266.043 16.096 269.714 17.242 272.292 18.629C275.211 20.2 278.043 26.5251 280.708 26.7531C282.482 26.9051 283.216 25.218 284.399 24.107C285.829 22.764 287.143 21.7871 288.653 21.1281C288.816 20.9551 289.013 20.807 289.246 20.715C289.273 20.704 289.27 20.695 289.297 20.684C290.568 20.186 295.746 18.378 296.902 17.939C302.7 15.739 306.433 13.405 308.55 10.2C308.445 8.78001 307.873 7.33105 307.669 5.95905C307.15 2.45805 305.924 -1.146 303.803 -4C303.197 -4.553 302.407 -5.34299 301.835 -5.77399C300.602 -6.70199 299.117 -7.23496 296.528 -7.80396C296.265 -7.86196 294.473 -8.24795 294.051 -8.34595C292.667 -8.66795 291.381 -8.846 290.102 -9Z" fill="#1A1A1A"/>
<path d="M296.897 29.0862C295.883 29.2802 295.213 30.2892 295.402 31.3352C295.59 32.3812 296.567 33.0723 297.581 32.8783C298.594 32.6833 299.257 31.6762 299.068 30.6302C298.88 29.5842 297.909 28.8912 296.897 29.0862ZM325.22 23.6422C324.208 23.8362 323.537 24.8453 323.725 25.8913C323.914 26.9373 324.892 27.6282 325.905 27.4342C326.917 27.2392 327.581 26.2322 327.392 25.1862C327.204 24.1402 326.233 23.4472 325.22 23.6422ZM299.959 31.6182C298.946 31.8132 298.283 32.8202 298.471 33.8662C298.66 34.9122 299.63 35.6052 300.643 35.4102C301.656 35.2152 302.327 34.2072 302.138 33.1612C301.949 32.1152 300.972 31.4232 299.959 31.6182ZM323.239 27.1432C322.226 27.3382 321.555 28.3472 321.744 29.3932C321.933 30.4382 322.91 31.1302 323.923 30.9362C324.936 30.7412 325.607 29.7322 325.418 28.6862C325.229 27.6412 324.252 26.9492 323.239 27.1432ZM303.788 33.7732C302.775 33.9672 302.104 34.9692 302.293 36.0142C302.482 37.0602 303.458 37.7522 304.471 37.5572C305.485 37.3632 306.155 36.3543 305.966 35.3083C305.777 34.2633 304.802 33.5782 303.788 33.7732ZM320.417 30.5763C319.404 30.7713 318.739 31.7712 318.928 32.8172C319.117 33.8632 320.087 34.5562 321.1 34.3612C322.113 34.1672 322.784 33.1582 322.595 32.1122C322.406 31.0662 321.43 30.3823 320.417 30.5763ZM308.183 34.5482C307.17 34.7432 306.507 35.7502 306.696 36.7962C306.884 37.8412 307.854 38.5352 308.867 38.3402C309.88 38.1452 310.55 37.1372 310.361 36.0912C310.173 35.0452 309.196 34.3532 308.183 34.5482ZM316.588 32.9322C315.574 33.1272 314.904 34.1362 315.093 35.1822C315.282 36.2272 316.258 36.9192 317.272 36.7252C318.285 36.5302 318.948 35.5233 318.76 34.4773C318.571 33.4313 317.601 32.7382 316.588 32.9322ZM312.323 33.9162C311.311 34.1102 310.647 35.1172 310.836 36.1632C311.024 37.2092 311.995 37.9022 313.007 37.7082C314.02 37.5132 314.691 36.5043 314.502 35.4593C314.314 34.4133 313.336 33.7212 312.323 33.9162Z" fill="#1A1A1A"/>
<path d="M299.124 47.4981C297.987 47.3871 296.845 47.5101 295.759 47.9731C295.382 48.1341 295.016 48.3352 294.676 48.5682C294.319 48.8112 293.986 49.0891 293.706 49.4251C292.668 50.6701 292.734 52.2281 293.092 53.7351C293.295 54.5851 293.579 55.4121 293.814 56.2531C293.979 56.8481 294.123 57.4691 294.133 58.0911C294.139 58.4981 294.073 58.9071 293.985 59.3021C293.601 61.0261 292.528 62.4791 291.54 63.8831C291.077 64.5411 290.635 65.2061 290.244 65.9011C289.846 65.6211 289.436 65.3491 289.07 65.0441C288.103 65.2241 287.507 65.7731 286.725 67.0131C286.636 67.1531 286.486 67.4031 286.291 67.7271C286.196 67.9671 286.069 68.3311 285.994 68.4861C284.254 72.0811 279.399 81.6891 279.712 87.0451C279.805 87.0871 279.887 87.1311 279.982 87.1721C281.635 87.8911 283.036 88.3711 286.127 89.3371C290.625 90.7431 295.046 91.5041 300.704 91.9631C309.874 92.7061 314.645 91.9361 320.58 88.1931C321.129 83.0761 317.522 73.3711 316.339 69.6131C316.081 69.0641 315.753 68.3611 315.615 68.0951C315.22 67.3351 314.863 66.8771 314.394 66.6221C314.078 66.8281 313.769 67.0081 313.455 67.1961C313.355 66.3391 313.201 65.4871 313.001 64.6511C312.548 62.7661 311.911 60.9281 311.159 59.1501C310.411 57.3791 309.539 55.6571 308.521 54.0341C307.436 52.3031 306.184 50.6201 304.464 49.5251C302.891 48.5241 301.015 47.6841 299.124 47.4981ZM298.681 48.6741C300.627 48.7791 302.61 49.7351 304.183 50.7861C304.855 51.2341 305.427 51.8531 305.943 52.4761C306.522 53.1771 307.04 53.9241 307.523 54.6971C308.503 56.2661 309.336 57.9371 310.058 59.6461C310.814 61.4371 311.459 63.2881 311.895 65.1911C312.094 66.0621 312.243 66.9491 312.317 67.8421C310.787 68.6571 309.272 69.2601 307.715 69.6001C302.43 70.7531 295.96 69.4951 291.197 66.5561C291.695 65.6671 292.292 64.8271 292.875 63.9881C293.968 62.4141 295.007 60.7391 295.233 58.7711C295.461 56.7881 294.493 54.9571 294.12 53.0611C293.926 52.0751 293.909 51.0061 294.582 50.2031C294.794 49.9521 295.045 49.7512 295.314 49.5682C296.361 48.8582 297.513 48.6121 298.681 48.6741Z" fill="#1A1A1A"/>
<path d="M251.585 61.8845C250.203 61.3375 248.655 62.0565 248.125 63.4835L237.668 91.6545C237.138 93.0815 237.825 94.6845 239.207 95.2315L252.366 100.437C253.749 100.983 255.296 100.264 255.826 98.8365L266.283 70.6655C266.813 69.2385 266.127 67.6355 264.745 67.0895L251.585 61.8845ZM251.074 62.6535C251.869 62.9685 252.272 63.8845 251.967 64.7065C251.662 65.5285 250.767 65.9405 249.97 65.6255C249.174 65.3105 248.783 64.3895 249.087 63.5675C249.392 62.7455 250.277 62.3385 251.074 62.6535ZM253.863 66.3115C254.659 66.6255 255.051 67.5475 254.746 68.3695C254.441 69.1905 253.553 69.6065 252.756 69.2915C251.961 68.9765 251.561 68.0525 251.866 67.2305C252.171 66.4085 253.067 65.9965 253.863 66.3115ZM249.275 67.5005C250.07 67.8155 250.47 68.7395 250.165 69.5615C249.86 70.3835 248.968 70.7875 248.171 70.4725C247.375 70.1575 246.98 69.2445 247.285 68.4225C247.59 67.6005 248.478 67.1855 249.275 67.5005Z" fill="#1A1A1A"/>
<path d="M233.349 -4.04004L223.305 7.97498C223.641 8.13998 223.97 8.33295 224.266 8.59595L228.497 12.364C228.793 12.627 229.028 12.942 229.236 13.261L239.28 1.24597L233.349 -4.04004ZM220.549 8.81396C219.864 9.00597 219.223 9.40398 218.724 10.001L215.572 13.7759C214.243 15.3669 214.413 17.768 215.955 19.14L219.614 22.4009C221.155 23.7729 223.479 23.5899 224.808 21.9999L227.962 18.231C229.291 16.641 229.121 14.2389 227.581 12.8669L223.921 9.60596C222.958 8.74896 221.691 8.49397 220.549 8.81396ZM214.3 18.753L203.438 31.752L209.367 37.032L220.23 24.032C219.894 23.867 219.569 23.665 219.274 23.402L215.042 19.634C214.747 19.371 214.508 19.072 214.3 18.753Z" fill="#1A1A1A"/>
<path d="M219.302 43.4953L218.053 46.7144L222.074 49.4254L224.464 47.3643L222.762 42.6533L219.302 43.4953ZM219.577 48.8943C216.5 53.4393 216.714 59.6084 220.208 63.9254C224.456 69.1734 232.022 69.8723 237.105 65.4873C242.189 61.1023 242.866 53.2923 238.618 48.0453C235.159 43.7713 229.398 42.4373 224.541 44.6693L225.185 46.1603C229.399 44.2243 234.399 45.3854 237.401 49.0944C241.088 53.6484 240.5 60.4253 236.089 64.2313C231.677 68.0373 225.111 67.4303 221.425 62.8763C218.392 59.1293 218.207 53.7713 220.878 49.8283L219.577 48.8943Z" fill="#1A1A1A"/>
<path d="M145.359 54.6127C144.326 54.2647 142.204 59.0777 141.837 59.8697C139.551 64.7947 137.953 70.4367 135.056 75.0017C135.589 75.7247 135.899 76.1147 136.27 76.4937C136.94 77.1777 137.685 77.8397 138.475 78.5237C138.544 78.3497 138.667 78.0117 138.721 77.9087C140.215 75.0587 142.891 69.9577 146.229 69.1227C148.639 71.5197 151.089 73.8737 152.816 76.8767C154.618 80.0107 155.692 83.8717 156.716 87.3597C157.113 88.7147 157.287 90.3237 158.062 91.5247C158.482 92.1747 159.089 92.7747 159.751 93.3487C163.705 95.5277 167.609 97.3057 171.61 98.6877C172.276 98.9177 172.794 99.1267 173.951 99.6107C174.061 99.6567 174.114 99.6797 174.175 99.7057C175.231 100.147 176.01 100.439 176.694 100.652C176.715 100.484 176.754 100.155 176.767 100.089C177.473 96.6127 176.085 91.9117 174.391 88.8927C168.309 78.0557 159.831 70.0757 150.834 61.8567C149.312 60.4677 147.801 58.9157 146.671 57.1657C146.455 56.8317 145.638 54.7067 145.359 54.6127Z" fill="#1A1A1A"/>
<path d="M189.352 33C185.699 33.056 181.885 34.1231 178.808 36.1021C175.778 38.0531 173.372 42.02 172.357 45.497C172.069 46.483 171.815 47.739 171.434 48.913C171.457 48.915 171.479 48.919 171.503 48.921C171.189 49.628 170.867 50.409 171.029 50.905C171.102 51.13 171.764 51.233 171.942 51.313C172.713 51.657 173.479 52.315 174.16 52.838C174.189 52.861 174.205 52.896 174.233 52.919C171.752 52.116 167.977 52.104 165.362 52.814C164.12 53.234 162.906 53.714 161.704 54.197C159.084 55.346 155.197 57.55 157.953 58.888C159.09 59.44 161.176 58.386 162.353 58.303C165.293 58.096 168.964 59.242 171.542 60.629C174.461 62.2 177.293 68.5251 179.958 68.7531C181.732 68.9051 182.466 67.218 183.649 66.107C185.079 64.764 186.393 63.7871 187.903 63.1281C188.066 62.9551 188.263 62.807 188.496 62.715C188.523 62.704 188.52 62.695 188.547 62.684C189.818 62.186 194.996 60.378 196.152 59.939C201.95 57.739 205.683 55.405 207.8 52.2C207.695 50.78 207.123 49.331 206.919 47.959C206.4 44.458 205.174 40.854 203.053 38C202.447 37.447 201.657 36.657 201.085 36.226C199.852 35.298 198.367 34.765 195.778 34.196C195.515 34.138 193.723 33.7521 193.301 33.6541C191.917 33.3321 190.631 33.154 189.352 33Z" fill="#1A1A1A"/>
<path d="M196.147 71.0862C195.133 71.2802 194.463 72.2892 194.652 73.3352C194.84 74.3812 195.817 75.0723 196.831 74.8783C197.844 74.6833 198.507 73.6762 198.318 72.6302C198.13 71.5842 197.159 70.8912 196.147 71.0862ZM224.47 65.6422C223.458 65.8362 222.787 66.8453 222.975 67.8913C223.164 68.9373 224.142 69.6282 225.155 69.4342C226.167 69.2392 226.831 68.2322 226.642 67.1862C226.454 66.1402 225.483 65.4472 224.47 65.6422ZM199.209 73.6182C198.196 73.8132 197.533 74.8202 197.721 75.8662C197.91 76.9122 198.88 77.6052 199.893 77.4102C200.906 77.2152 201.577 76.2072 201.388 75.1612C201.199 74.1152 200.222 73.4232 199.209 73.6182ZM222.489 69.1432C221.476 69.3382 220.805 70.3472 220.994 71.3932C221.183 72.4382 222.16 73.1302 223.173 72.9362C224.186 72.7412 224.857 71.7322 224.668 70.6862C224.479 69.6412 223.502 68.9492 222.489 69.1432ZM203.038 75.7732C202.025 75.9672 201.354 76.9692 201.543 78.0142C201.732 79.0602 202.708 79.7522 203.721 79.5572C204.735 79.3632 205.405 78.3543 205.216 77.3083C205.027 76.2633 204.052 75.5782 203.038 75.7732ZM219.667 72.5763C218.654 72.7713 217.989 73.7712 218.178 74.8172C218.367 75.8632 219.337 76.5562 220.35 76.3612C221.363 76.1672 222.034 75.1582 221.845 74.1122C221.656 73.0662 220.68 72.3823 219.667 72.5763ZM207.433 76.5482C206.42 76.7432 205.757 77.7502 205.946 78.7962C206.134 79.8412 207.104 80.5352 208.117 80.3402C209.13 80.1452 209.8 79.1372 209.611 78.0912C209.423 77.0452 208.446 76.3532 207.433 76.5482ZM215.838 74.9322C214.824 75.1272 214.154 76.1362 214.343 77.1822C214.532 78.2272 215.508 78.9192 216.522 78.7252C217.535 78.5302 218.198 77.5233 218.01 76.4773C217.821 75.4313 216.851 74.7382 215.838 74.9322ZM211.573 75.9162C210.561 76.1102 209.897 77.1172 210.086 78.1632C210.274 79.2092 211.245 79.9022 212.257 79.7082C213.27 79.5132 213.941 78.5043 213.752 77.4593C213.564 76.4133 212.586 75.7212 211.573 75.9162Z" fill="#1A1A1A"/>
<path d="M198.374 89.4981C197.237 89.3871 196.095 89.5101 195.009 89.9731C194.632 90.1341 194.266 90.3352 193.926 90.5682C193.569 90.8112 193.236 91.0891 192.956 91.4251C191.918 92.6701 191.984 94.2281 192.342 95.7351C192.545 96.5851 192.829 97.4121 193.064 98.2531C193.229 98.8481 193.373 99.4691 193.383 100.091C193.389 100.498 193.323 100.907 193.235 101.302C192.851 103.026 191.778 104.479 190.79 105.883C190.327 106.541 189.885 107.206 189.494 107.901C189.096 107.621 188.686 107.349 188.32 107.044C187.353 107.224 186.757 107.773 185.975 109.013C185.886 109.153 185.736 109.403 185.541 109.727C185.446 109.967 185.319 110.331 185.244 110.486C183.504 114.081 178.649 123.689 178.962 129.045C179.055 129.087 179.137 129.131 179.232 129.172C180.885 129.891 182.286 130.371 185.377 131.337C189.875 132.743 194.296 133.504 199.954 133.963C209.124 134.706 213.895 133.936 219.83 130.193C220.379 125.076 216.772 115.371 215.589 111.613C215.331 111.064 215.003 110.361 214.865 110.095C214.47 109.335 214.113 108.877 213.644 108.622C213.328 108.828 213.019 109.008 212.705 109.196C212.605 108.339 212.451 107.487 212.251 106.651C211.798 104.766 211.161 102.928 210.409 101.15C209.661 99.3791 208.789 97.6571 207.771 96.0341C206.686 94.3031 205.434 92.6201 203.714 91.5251C202.141 90.5241 200.265 89.6841 198.374 89.4981ZM197.931 90.6741C199.877 90.7791 201.86 91.7351 203.433 92.7861C204.105 93.2341 204.677 93.8531 205.193 94.4761C205.772 95.1771 206.29 95.9241 206.773 96.6971C207.753 98.2661 208.586 99.9371 209.308 101.646C210.064 103.437 210.709 105.288 211.145 107.191C211.344 108.062 211.493 108.949 211.567 109.842C210.037 110.657 208.522 111.26 206.965 111.6C201.68 112.753 195.21 111.495 190.447 108.556C190.945 107.667 191.542 106.827 192.125 105.988C193.218 104.414 194.257 102.739 194.483 100.771C194.711 98.7881 193.743 96.9571 193.37 95.0611C193.176 94.0751 193.159 93.0061 193.832 92.2031C194.044 91.9521 194.295 91.7512 194.564 91.5682C195.611 90.8582 196.763 90.6121 197.931 90.6741Z" fill="#1A1A1A"/>
<path d="M150.835 103.884C149.453 103.337 147.905 104.056 147.375 105.483L136.918 133.655C136.388 135.082 137.075 136.684 138.457 137.231L151.616 142.437C152.999 142.983 154.546 142.264 155.076 140.837L165.533 112.666C166.063 111.239 165.377 109.636 163.995 109.09L150.835 103.884ZM150.324 104.654C151.119 104.969 151.522 105.885 151.217 106.707C150.912 107.529 150.017 107.941 149.22 107.626C148.424 107.311 148.033 106.39 148.337 105.568C148.642 104.746 149.527 104.339 150.324 104.654ZM153.113 108.312C153.909 108.626 154.301 109.547 153.996 110.369C153.691 111.19 152.803 111.607 152.006 111.292C151.211 110.977 150.811 110.053 151.116 109.231C151.421 108.409 152.317 107.997 153.113 108.312ZM148.525 109.501C149.32 109.816 149.72 110.74 149.415 111.562C149.11 112.384 148.218 112.788 147.421 112.473C146.625 112.158 146.23 111.245 146.535 110.423C146.84 109.601 147.728 109.186 148.525 109.501Z" fill="#1A1A1A"/>
<path d="M132.599 37.96L122.555 49.975C122.891 50.14 123.22 50.3329 123.516 50.5959L127.747 54.364C128.043 54.627 128.278 54.942 128.486 55.261L138.53 43.246L132.599 37.96ZM119.799 50.814C119.114 51.006 118.473 51.404 117.974 52.001L114.822 55.7759C113.493 57.3669 113.663 59.768 115.205 61.14L118.864 64.4009C120.405 65.7729 122.729 65.5899 124.058 63.9999L127.212 60.231C128.541 58.641 128.371 56.2389 126.831 54.8669L123.171 51.606C122.208 50.749 120.941 50.494 119.799 50.814ZM113.55 60.753L102.688 73.752L108.617 79.032L119.48 66.032C119.144 65.867 118.819 65.665 118.524 65.402L114.292 61.634C113.997 61.371 113.758 61.072 113.55 60.753Z" fill="#1A1A1A"/>
<path d="M118.552 85.4953L117.303 88.7144L121.324 91.4254L123.714 89.3643L122.012 84.6533L118.552 85.4953ZM118.827 90.8943C115.75 95.4393 115.964 101.608 119.458 105.925C123.706 111.173 131.272 111.872 136.355 107.487C141.439 103.102 142.116 95.2923 137.868 90.0453C134.409 85.7713 128.648 84.4373 123.791 86.6693L124.435 88.1603C128.649 86.2243 133.649 87.3854 136.651 91.0944C140.338 95.6484 139.75 102.425 135.339 106.231C130.927 110.037 124.361 109.43 120.675 104.876C117.642 101.129 117.457 95.7713 120.128 91.8283L118.827 90.8943Z" fill="#1A1A1A"/>
<path d="M137.022 6.43994C136.502 8.8336 134.486 10.6769 131.928 10.7132C130.892 10.7279 129.412 11.5025 127.394 12.9028C127.054 13.1896 126.89 13.314 126.513 13.632C126.439 13.6953 126.439 13.6936 126.366 13.7565C123.612 16.0921 122.229 17.2087 120.592 18.4433C115.999 23.134 112.927 25.6444 108.537 27.7953C106.121 28.9779 104.278 29.8554 102.629 30.5567L89.9102 186.551L205.244 195.955L218.42 34.3513C217.413 34.1092 216.476 33.7311 215.413 33.1297C215.176 32.9939 214.947 32.8568 214.686 32.699C214.438 32.5478 213.574 32.011 213.439 31.9332C211.215 30.6144 209.009 29.1196 206.514 27.2855C203.579 25.1257 200.717 22.7019 197.524 19.8712C194.78 17.8926 192.549 16.0255 190.329 13.7559C190.021 13.4441 189.864 13.062 189.649 12.7039C188.707 11.826 187.966 11.1481 187.309 10.54L137.022 6.43994Z" fill="#8B8B8B"/>
<path d="M119.264 20.8203L52.0982 29.7029L55.4408 66.1174L56.4262 106.462L36.5551 190.84C36.5551 190.84 41.8024 198.489 51.4684 200.593C61.1344 202.698 73.6175 199.957 73.6175 199.957L85.6772 144.52L85.7864 161.025L126.564 154.379L133.843 80.9105L119.264 20.8203Z" fill="white"/>
<path d="M145.445 1.54534C146.871 4.30996 132.608 21.4349 129.372 42.7013C126.14 63.9676 133.997 82.7481 132.398 82.9476C130.842 83.1404 116.841 64.5034 100.807 50.6965C89.2284 40.7235 84.5553 40.3609 84.8127 38.1482C85.3289 33.7589 90.2545 26.4599 107.614 17.8066C124.978 9.15366 143.937 -1.37483 145.445 1.54534Z" fill="white" stroke="white" stroke-width="5" stroke-miterlimit="10" stroke-linejoin="round"/>
<path d="M92.8805 29.4104C92.6159 29.349 92.3301 29.3899 92.082 29.546C91.3787 29.9841 90.6749 30.4291 89.9946 30.9C89.4052 31.3064 88.8324 31.7205 88.2699 32.1633C86.1704 33.8249 83.7183 36.189 83.8528 39.1046C83.9306 40.7224 84.8415 42.0415 85.884 43.2151C87.3305 44.8401 89.0264 46.2394 90.7313 47.5817C93.4616 49.7308 96.3209 51.714 99.196 53.6609C100.903 54.8164 102.667 55.9076 104.283 57.1913C106.714 59.1238 108.883 61.3872 111.019 63.6375C115.085 67.9259 118.925 72.4201 122.89 76.8008C124.012 78.043 125.143 79.2901 126.349 80.4526C126.968 81.0474 127.644 81.7307 128.467 82.0297C129.024 82.2253 129.634 81.934 129.829 81.3782C130.024 80.8229 129.735 80.2238 129.178 80.0281C128.948 79.9581 128.723 79.7258 128.547 79.5758C128.179 79.2612 127.834 78.9224 127.49 78.5798C126.449 77.5437 125.451 76.4542 124.466 75.3649C120.796 71.3107 117.235 67.1688 113.504 63.1718C111.009 60.4993 108.474 57.7996 105.609 55.521C103.953 54.2033 102.131 53.0847 100.384 51.899C97.7276 50.1004 95.0822 48.2754 92.5465 46.312C90.6588 44.85 88.7296 43.3196 87.1897 41.476C86.5387 40.6955 85.9495 39.8395 85.98 38.7834C86.0119 37.6049 86.7781 36.5518 87.5396 35.7145C89.147 33.9499 91.1951 32.6034 93.2059 31.3492C93.7063 31.0374 93.8626 30.3792 93.5525 29.8798C93.3974 29.6301 93.1493 29.4721 92.8805 29.4104Z" fill="black"/>
<path d="M129.224 86.3174C128.636 86.2866 128.133 86.7347 128.102 87.3227C127.505 98.587 126.133 109.801 125.14 121.033C124.629 126.777 124.331 132.525 123.786 138.266C123.416 142.173 122.906 146.066 122.249 149.935C122.15 150.516 122.542 151.058 123.125 151.157C123.703 151.255 124.261 150.862 124.36 150.281C124.889 147.145 125.338 144.004 125.677 140.841C126.4 134.073 126.723 127.28 127.323 120.502C128.298 109.483 129.644 98.4931 130.232 87.4428C130.263 86.8548 129.817 86.349 129.224 86.3174Z" fill="black"/>
<path d="M58.3988 34.3006C57.8285 34.1583 57.2482 34.5063 57.1032 35.0773C56.9624 35.6491 57.3088 36.2285 57.8834 36.3716C63.5494 37.7827 66.6042 43.0361 69.4192 47.7155C70.9229 50.2134 72.4261 52.7185 73.8579 55.2581C77.4019 61.5446 80.7177 67.9533 84.1544 74.297C84.4331 74.8148 85.0852 75.0036 85.6045 74.7229C86.1237 74.4426 86.3084 73.8042 86.0296 73.2868C82.5853 66.9323 79.2583 60.5021 75.7108 54.2059C74.1368 51.416 72.4906 48.6736 70.8356 45.9319C68.3814 41.8665 65.6342 37.5093 61.2425 35.3215C60.3338 34.8683 59.3844 34.5466 58.3988 34.3006Z" fill="black"/>
<path d="M59.5904 44.7898C58.4142 44.8881 57.5387 45.9173 57.6356 47.0909C58.9373 62.5623 61.1314 77.9529 62.1617 93.4468C62.4309 97.4919 62.5963 101.551 62.681 105.604C62.7048 106.781 63.6736 107.705 64.8523 107.68C66.0311 107.655 66.9658 106.688 66.942 105.51C66.8357 100.569 66.6092 95.6319 66.2365 90.7032C65.1233 76.0169 63.1256 61.419 61.8917 46.7425C61.7906 45.5687 60.7624 44.6911 59.5904 44.7898Z" fill="black"/>
<path d="M62.7515 115.078C61.6064 114.795 60.4575 115.502 60.176 116.646C59.6652 118.712 59.0883 120.749 58.498 122.794C58.1704 123.925 58.8223 125.113 59.9553 125.44C61.084 125.767 62.2711 125.116 62.5988 123.984C63.2063 121.886 63.7798 119.785 64.3078 117.665C64.5893 116.521 63.8967 115.36 62.7515 115.078Z" fill="black"/>
<path d="M58.2765 134.045C57.1253 133.785 55.9838 134.507 55.7232 135.656C54.6148 140.539 53.302 145.356 51.8292 150.141C49.9151 156.351 47.7792 162.5 45.8735 168.711C45.3429 170.443 44.8629 172.184 44.3531 173.923C44.0446 174.977 43.706 176.034 43.4268 177.096C43.1433 178.16 42.9225 179.24 42.6683 180.311C42.2513 182.067 41.8264 183.814 41.4094 185.57C41.1405 186.717 41.8462 187.875 42.9923 188.147C44.1383 188.418 45.2957 187.711 45.5689 186.565C46.0259 184.633 46.479 182.697 46.936 180.766C47.1387 179.907 47.3253 179.035 47.549 178.181C47.8651 176.981 48.2527 175.795 48.6024 174.603C49.0538 173.055 49.4848 171.495 49.9572 169.953C51.8627 163.744 53.9893 157.604 55.899 151.396C57.4016 146.508 58.7529 141.585 59.887 136.597C60.1476 135.448 59.4234 134.306 58.2765 134.045Z" fill="black"/>
<path d="M135.109 6.64586C134.576 6.51895 133.997 6.59367 133.496 6.90207C124.919 12.1742 115.686 16.3034 107.388 22.0369C106.422 22.7066 106.185 24.0335 106.855 25.0021C107.525 25.9711 108.849 26.2075 109.82 25.5382C118.05 19.8497 127.219 15.7653 135.729 10.5344C136.729 9.91711 137.05 8.61287 136.434 7.60972C136.124 7.10776 135.638 6.77242 135.109 6.64586Z" fill="black"/>
<path d="M102.297 25.1249C101.763 25.0073 101.179 25.0902 100.682 25.4074C99.4848 26.2349 100.015 25.8678 99.4935 26.2331C99.2211 26.4244 100.041 25.864 100.302 25.6571C100.426 25.5585 100.041 25.8186 99.9053 25.9059C99.6294 26.0888 99.3448 26.2723 99.0722 26.4666C98.9313 26.5677 98.5126 26.8758 98.6573 26.7802C99.3443 26.3313 98.6529 26.7816 98.288 27.0578C97.3526 27.7723 97.1834 29.112 97.8987 30.0479C98.614 30.9843 99.9386 31.1659 100.874 30.451C101.926 29.7254 101.463 30.0535 101.935 29.7219C102.162 29.5645 101.485 30.0408 101.243 30.1739C101.131 30.2366 101.454 30.0074 101.558 29.9317C101.781 29.7718 102.007 29.6293 102.237 29.4791C102.359 29.4 102.721 29.1574 102.603 29.2415C102.035 29.6496 102.598 29.2509 102.986 29.0053C103.975 28.3704 104.276 27.0423 103.638 26.0498C103.323 25.5539 102.831 25.242 102.297 25.1249Z" fill="black"/>
<path d="M90.9521 113.242C89.7775 113.215 88.7901 114.146 88.7626 115.323C88.5666 123.92 88.7685 132.518 88.8806 141.114C88.9345 145.387 88.9373 149.656 88.9185 153.928C88.9166 155.106 89.8655 156.062 91.0461 156.067C92.2225 156.072 93.1774 155.119 93.1836 153.942C93.2001 149.645 93.2084 145.345 93.1522 141.048C93.0403 132.502 92.8379 123.964 93.034 115.418C93.0616 114.24 92.1309 113.269 90.9521 113.242Z" fill="black"/>
<path d="M96.2132 86.4477C95.7944 86.4409 95.3619 86.4446 94.9431 86.4378C93.7679 86.4191 92.8012 87.3574 92.7822 88.5351C92.759 89.7121 93.6987 90.6788 94.8781 90.6984C95.2969 90.7051 95.724 90.7143 96.1471 90.7214C97.3223 90.7406 98.2889 89.8019 98.3079 88.6245C98.3269 87.4467 97.3926 86.4673 96.2132 86.4477Z" fill="black"/>
<path d="M112.589 85.8966C110.164 85.7712 107.744 85.9072 105.323 85.7988C104.146 85.7465 103.161 86.6482 103.112 87.8248C103.059 89.0015 103.958 89.997 105.134 90.0493C107.548 90.1562 109.964 90.0202 112.375 90.145C113.551 90.2058 114.553 89.3105 114.61 88.1342C114.672 86.9582 113.765 85.9574 112.589 85.8966Z" fill="black"/>
<path d="M204.182 29.8794L269.021 49.5254L259.824 84.9175L252.316 124.569L258.256 211.052C258.256 211.052 251.839 217.749 241.96 218.261C232.081 218.772 220.207 214.045 220.207 214.045L217.286 157.386L214.505 173.656L175.342 160.491L180.061 86.8148L204.182 29.8794Z" fill="white"/>
<path d="M181.469 6.62025C179.609 9.11696 190.915 28.3267 190.663 49.8359C190.407 71.3453 179.611 88.6049 181.157 89.0609C182.658 89.5029 199.497 73.3804 217.555 62.3531C230.597 54.3876 235.267 54.7868 235.371 52.5616C235.573 48.1466 231.895 40.1461 216.162 28.7946C200.433 17.4431 183.43 3.98289 181.469 6.62025Z" fill="white" stroke="white" stroke-width="5" stroke-miterlimit="10" stroke-linejoin="round"/>
<path d="M228.825 42.6333C228.554 42.651 228.284 42.7668 228.09 42.9881C227.699 43.4303 227.751 44.1055 228.194 44.4942C230.031 46.1066 231.91 47.8306 233.207 49.9308C233.762 50.8324 234.265 51.9132 234.12 53.0007C233.959 54.19 233.045 55.011 232.156 55.7289C230.401 57.152 228.387 58.2924 226.404 59.3648C223.414 60.9837 220.344 62.4241 217.254 63.8474C215.506 64.6523 213.717 65.399 212.035 66.3373C208.709 68.1957 205.645 70.5536 202.635 72.8855C198.437 76.1407 194.359 79.5532 190.204 82.8636C188.932 83.8767 187.663 84.8995 186.326 85.8235C185.94 86.0881 185.542 86.3539 185.127 86.5682C185.028 86.6189 184.92 86.6879 184.807 86.7027C184.23 86.8058 183.843 87.3498 183.946 87.9294C184.048 88.5095 184.607 88.8961 185.189 88.7933C186.202 88.6033 187.131 87.86 187.944 87.2794C189.375 86.2561 190.765 85.1649 192.139 84.0642C196.548 80.5284 200.88 76.8896 205.386 73.4705C207.854 71.5955 210.365 69.7138 213.073 68.2003C215.046 67.1013 217.152 66.2512 219.197 65.3029C222.364 63.8323 225.534 62.3158 228.58 60.5988C230.423 59.5595 232.276 58.4619 233.878 57.0726C234.951 56.1493 235.864 55.0761 236.163 53.6619C236.796 50.6822 234.559 47.8343 232.657 45.8076C232.264 45.3845 231.839 44.9729 231.423 44.5701C230.828 43.9952 230.218 43.4431 229.595 42.8968C229.372 42.7023 229.1 42.616 228.825 42.6333Z" fill="black"/>
<path d="M183.742 92.9C183.156 92.8356 182.621 93.2614 182.556 93.8466C181.315 105.084 180.864 116.389 180.026 127.659C179.596 133.414 178.948 139.152 178.551 144.909C178.279 148.877 178.161 152.844 178.183 156.821C178.187 157.41 178.671 157.875 179.262 157.871C179.848 157.868 180.315 157.396 180.311 156.807C180.293 153.67 180.365 150.531 180.543 147.398C180.925 140.616 181.693 133.874 182.198 127.101C183.019 116.095 183.466 105.047 184.677 94.0731C184.742 93.4878 184.327 92.9649 183.742 92.9Z" fill="black"/>
<path d="M262.052 53.0451C261.039 53.1282 260.05 53.2919 259.076 53.5915C254.124 55.1207 250.625 59.3121 247.387 63.1223C245.489 65.3591 243.591 67.5942 241.757 69.8842C237.232 75.5222 232.899 81.3278 228.47 87.0405C228.107 87.5055 228.203 88.1668 228.67 88.5275C229.133 88.8883 229.794 88.8065 230.157 88.3411C234.576 82.6379 238.895 76.8517 243.41 71.2223C245.401 68.7406 247.469 66.3203 249.532 63.8988C252.929 59.9117 256.676 55.624 262.225 55.1722C262.811 55.1237 263.251 54.6085 263.2 54.0211C263.154 53.4345 262.637 52.997 262.052 53.0451Z" fill="black"/>
<path d="M259.191 63.2004C258.046 62.9128 256.889 63.6122 256.603 64.7546C253.008 79.0373 248.672 93.1188 245.195 107.431C244.024 112.234 243.001 117.069 242.1 121.928C241.881 123.086 242.651 124.192 243.811 124.408C244.965 124.623 246.071 123.868 246.285 122.71C247.03 118.725 247.849 114.759 248.77 110.811C252.297 95.6891 256.955 80.8572 260.742 65.8006C261.031 64.659 260.331 63.4877 259.191 63.2004Z" fill="black"/>
<path d="M244.686 132.048C243.51 132.141 242.626 133.174 242.718 134.348C242.892 136.525 243.134 138.693 243.39 140.861C243.53 142.031 244.596 142.866 245.767 142.727C246.938 142.588 247.769 141.521 247.629 140.351C247.378 138.238 247.143 136.135 246.973 134.013C246.877 132.839 245.858 131.954 244.686 132.048Z" fill="black"/>
<path d="M190.845 13.3288C190.298 13.3677 189.764 13.6198 189.381 14.0653C188.607 14.9551 188.699 16.293 189.59 17.0644C197.14 23.6048 205.54 29.1216 212.74 36.0682C213.589 36.8859 214.934 36.8672 215.752 36.0194C216.57 35.1721 216.551 33.8244 215.702 33.0067C208.447 26.0051 199.988 20.4334 192.382 13.8418C191.934 13.4561 191.387 13.2896 190.845 13.3288Z" fill="black"/>
<path d="M220.231 36.879C219.686 36.9081 219.148 37.1493 218.753 37.5874C217.967 38.4638 218.045 39.81 218.923 40.5965C219.843 41.4829 219.427 41.0703 219.84 41.4736C220.038 41.6652 219.442 41.0968 219.262 40.8917C219.164 40.7835 219.477 41.0877 219.585 41.1854C219.788 41.371 219.986 41.5618 220.18 41.7556C220.271 41.8473 220.549 42.1194 220.453 42.032C219.935 41.5585 220.445 42.0326 220.76 42.3643C221.567 43.2213 222.916 43.2577 223.774 42.4495C224.631 41.6418 224.681 40.2924 223.874 39.4358C222.823 38.4249 223.274 38.8721 222.818 38.4267C222.58 38.1938 223.289 38.8939 223.55 39.1018C223.687 39.21 223.319 38.848 223.196 38.7254C222.959 38.4895 222.707 38.2624 222.461 38.0368C222.345 37.929 221.999 37.6149 222.113 37.7274C222.691 38.3055 222.101 37.723 221.762 37.4181C221.324 37.0246 220.773 36.8492 220.231 36.879Z" fill="black"/>
<path d="M217.149 125.671C215.986 125.508 214.906 126.315 214.742 127.481C213.551 135.946 211.967 144.353 210.477 152.768C209.725 156.998 209.034 161.23 208.354 165.472C208.169 166.635 208.962 167.73 210.123 167.916C211.285 168.102 212.38 167.313 212.565 166.15C213.243 161.931 213.933 157.718 214.678 153.511C216.181 145.047 217.765 136.595 218.96 128.079C219.123 126.913 218.317 125.836 217.149 125.671Z" fill="black"/>
<path d="M144.762 -4.20909C142.914 -4.42107 141.19 -4.16488 139.485 -3.4558L137.154 25.1301L184.793 29.0143L187.083 0.926169C186.411 0.981773 185.776 1.00146 185.062 1.09518C183.332 1.32212 182.447 1.47289 178.471 2.21209C175.035 2.85102 173.017 3.18677 170.708 3.43068C167.907 3.72817 165.109 3.34903 162.089 2.39416C159.916 1.70689 158.216 0.976548 154.626 -0.703446C149.503 -3.09941 147.353 -3.91231 144.762 -4.20909Z" fill="#8B8B8B"/>
<path d="M134.639 26.334C134.639 26.334 148.331 59.6196 158.225 60.7631C168.123 61.9069 187.41 30.7278 187.41 30.7278" stroke="#B9B9B9" stroke-width="2" stroke-miterlimit="10" stroke-linecap="round" stroke-linejoin="round" stroke-dasharray="2 2"/>
<path d="M133.178 31.1721C133.178 31.1721 147.388 73.2717 157.282 74.4152C167.181 75.559 188.211 35.4221 188.211 35.4221" stroke="#B9B9B9" stroke-width="2" stroke-miterlimit="10" stroke-linecap="round" stroke-linejoin="round" stroke-dasharray="2 2"/>
</g>
</g>
<defs>
<clipPath id="clip0_1280_10780">
<rect width="310" height="140" fill="white"/>
</clipPath>
</defs>
</svg>
