<svg width="577" height="555" viewBox="0 0 577 555" fill="none" xmlns="http://www.w3.org/2000/svg">
<path d="M221.26 29.112C220.421 35.3955 215.608 40.5741 209.019 41.2054C206.348 41.4615 202.695 43.7705 197.784 47.8068C196.967 48.618 196.57 48.9734 195.665 49.8729C195.488 50.0517 195.488 50.0473 195.311 50.225C188.7 56.8285 185.367 59.9995 181.404 63.5281C170.544 76.5928 163.149 83.714 152.278 90.1851C146.295 93.7435 141.726 96.3946 137.62 98.5501V503.587H437.081V83.9866C434.432 83.5738 431.937 82.7957 429.067 81.4679C428.427 81.1677 427.809 80.862 427.103 80.5099C426.43 80.1721 424.09 78.9691 423.726 78.7969C417.71 75.8632 411.706 72.4715 404.885 68.2653C396.861 63.3118 388.969 57.6618 380.14 51.0318C372.645 46.5055 366.498 42.159 360.295 36.7718C359.434 36.0323 358.948 35.0798 358.319 34.2012C355.703 32.1351 353.65 30.5424 351.829 29.112H221.26Z" fill="#272727"/>
<path d="M178.48 69.9286L7.10634 106.965L23.3862 200.187L34.4123 304.041L0.90332 525.86C0.90332 525.86 16.0463 544.485 41.4207 547.88C66.7952 551.276 98.4168 541.581 98.4168 541.581L117.864 396.054L121.617 438.603L225.4 412.884L228.721 221.855L178.48 69.9286Z" fill="black"/>
<path d="M241.955 14.7085C246.215 21.5394 213.026 68.7101 209.152 124.244C205.289 179.776 229.505 226.565 225.421 227.416C221.448 228.24 181.416 183.114 137.157 150.873C105.193 127.585 93.0635 127.632 93.2622 121.871C93.6705 110.441 104.84 90.578 147.797 64.6076C190.765 38.6371 237.452 7.49353 241.955 14.7085Z" fill="black" stroke="black" stroke-width="5" stroke-miterlimit="10" stroke-linejoin="round"/>
<path d="M112.235 97.6395C111.54 97.5369 110.811 97.7025 110.204 98.1572C108.482 99.4353 106.76 100.731 105.105 102.089C103.67 103.261 102.28 104.449 100.922 105.71C95.8559 110.437 90.0283 117.051 90.9885 124.543C91.5293 128.699 94.1562 131.91 97.0921 134.718C101.165 138.605 105.833 141.858 110.513 144.961C118.007 149.93 125.8 154.445 133.625 158.862C138.272 161.483 143.051 163.927 147.488 166.898C154.165 171.371 160.236 176.753 166.218 182.108C177.608 192.314 188.458 203.099 199.605 213.564C202.762 216.532 205.94 219.511 209.296 222.256C211.017 223.66 212.905 225.28 215.09 225.878C216.569 226.266 218.081 225.386 218.468 223.911C218.854 222.438 217.982 220.953 216.503 220.566C215.896 220.434 215.267 219.882 214.781 219.532C213.766 218.798 212.805 217.997 211.845 217.185C208.942 214.732 206.139 212.131 203.369 209.529C193.049 199.844 182.994 189.909 172.531 180.384C165.533 174.016 158.426 167.585 150.556 162.311C146.009 159.26 141.075 156.758 136.318 154.067C129.089 149.987 121.881 145.836 114.928 141.305C109.752 137.931 104.454 134.389 100.094 129.957C98.251 128.081 96.5511 125.997 96.4077 123.267C96.2421 120.22 97.9971 117.343 99.7851 115.023C103.56 110.134 108.56 106.23 113.482 102.572C114.707 101.663 114.972 99.932 114.067 98.709C113.615 98.0976 112.941 97.7422 112.235 97.6395Z" fill="white"/>
<path d="M217.95 236.776C216.426 236.821 215.223 238.082 215.267 239.605C216.095 268.785 214.914 297.997 214.715 327.179C214.605 342.101 215.047 356.99 214.848 371.913C214.716 382.069 214.219 392.217 213.336 402.334C213.203 403.853 214.329 405.168 215.853 405.301C217.365 405.433 218.722 404.301 218.854 402.783C219.561 394.583 220.058 386.386 220.267 378.156C220.709 360.548 220.113 342.96 220.234 325.35C220.433 296.724 221.592 268.093 220.786 239.467C220.742 237.944 219.484 236.733 217.95 236.776Z" fill="white"/>
<path d="M24.3238 117.507C22.8228 117.259 21.3991 118.279 21.1452 119.782C20.9024 121.287 21.9176 122.708 23.4297 122.957C38.341 125.405 47.3253 138.313 55.5701 149.79C59.9739 155.917 64.3778 162.063 68.6051 168.312C79.0683 183.781 88.9686 199.614 99.1669 215.254C99.9947 216.531 101.716 216.881 102.997 216.048C104.277 215.215 104.619 213.53 103.791 212.254C93.571 196.588 83.6376 180.702 73.1633 165.208C68.5166 158.343 63.6934 151.616 58.8481 144.892C51.6629 134.922 43.661 124.261 31.8733 119.542C29.4341 118.564 26.9176 117.934 24.3238 117.507Z" fill="white"/>
<path d="M29.5994 144.306C26.5863 144.807 24.5445 147.646 25.0412 150.652C31.6525 190.284 40.5483 229.52 46.4643 269.268C48.0095 279.645 49.2898 290.08 50.3604 300.516C50.6695 303.548 53.3625 305.727 56.3977 305.414C59.4329 305.102 61.6403 302.41 61.3313 299.378C60.0179 286.656 58.3955 273.968 56.3977 261.334C50.4376 223.687 42.2149 186.455 35.9458 148.859C35.4381 145.852 32.6016 143.805 29.5994 144.306Z" fill="white"/>
<path d="M52.5352 324.937C49.522 324.448 46.7076 326.515 46.222 329.524C45.339 334.961 44.2794 340.336 43.1867 345.734C42.5797 348.722 44.5111 351.648 47.5022 352.254C50.4822 352.859 53.4072 350.929 54.0143 347.942C55.1401 342.403 56.1773 336.861 57.0934 331.283C57.5791 328.274 55.5483 325.425 52.5352 324.937Z" fill="white"/>
<path d="M44.985 374.81C41.9608 374.38 39.1685 376.484 38.7381 379.501C36.9059 392.33 34.5328 405.03 31.7404 417.683C28.1092 434.101 23.8931 450.412 20.284 466.833C19.2796 471.411 18.4076 476.004 17.4584 480.595C16.8844 483.38 16.2332 486.177 15.7365 488.976C15.2288 491.778 14.8867 494.612 14.4563 497.427C13.7499 502.044 13.0215 506.641 12.3152 511.257C11.8626 514.271 13.9265 517.11 16.9397 517.57C19.9528 518.029 22.7893 515.96 23.2529 512.947C24.0255 507.869 24.7872 502.781 25.5598 497.703C25.9019 495.444 26.1998 493.156 26.5972 490.907C27.1601 487.744 27.9106 484.605 28.5618 481.457C29.4007 477.369 30.1843 473.255 31.0783 469.178C34.6875 452.762 38.8815 436.476 42.5016 420.063C45.3492 407.138 47.7995 394.156 49.6758 381.053C50.1063 378.035 47.9982 375.241 44.985 374.81Z" fill="white"/>
<path d="M216.37 30.0369C214.968 29.8217 213.49 30.1363 212.265 31.0369C191.25 46.4393 168.303 59.0316 148.105 75.5652C145.755 77.4956 145.423 80.9679 147.355 83.3255C149.286 85.6841 152.752 86.0152 155.114 84.0848C175.146 67.6814 197.938 55.2182 218.787 39.9361C221.238 38.1338 221.79 34.7023 219.991 32.2443C219.086 31.0148 217.761 30.2521 216.37 30.0369Z" fill="white"/>
<path d="M135.622 84.6025C134.221 84.4115 132.731 84.7481 131.516 85.6709C128.603 88.0571 129.894 86.9986 128.625 88.0505C127.962 88.6012 129.96 86.9832 130.589 86.3949C130.887 86.1145 129.949 86.8662 129.618 87.12C128.945 87.6498 128.249 88.1829 127.587 88.7414C127.245 89.0317 126.23 89.9146 126.583 89.6376C128.261 88.3352 126.572 89.642 125.689 90.4312C123.426 92.4708 123.272 95.9619 125.313 98.2256C127.355 100.49 130.81 100.68 133.073 98.6395C135.633 96.5469 134.508 97.4906 135.655 96.5358C136.207 96.0822 134.563 97.453 133.967 97.8471C133.691 98.0325 134.474 97.3736 134.728 97.1561C135.269 96.697 135.821 96.282 136.384 95.846C136.682 95.6164 137.565 94.9145 137.278 95.1562C135.898 96.3283 137.267 95.1816 138.216 94.4664C140.633 92.621 141.13 89.1321 139.276 86.7061C138.36 85.4931 137.024 84.7923 135.622 84.6025Z" fill="white"/>
<path d="M124.895 314.278C121.859 314.456 119.509 317.065 119.685 320.107C120.988 342.324 123.316 364.457 125.413 386.606C126.451 397.614 127.356 408.625 128.206 419.649C128.449 422.688 131.097 424.955 134.144 424.72C137.179 424.483 139.442 421.826 139.21 418.787C138.349 407.701 137.466 396.608 136.417 385.538C134.331 363.518 132.014 341.537 130.722 319.452C130.546 316.41 127.941 314.101 124.895 314.278Z" fill="white"/>
<path d="M132.831 244.054C131.749 244.125 130.634 244.225 129.553 244.296C126.517 244.495 124.222 247.118 124.42 250.16C124.608 253.201 127.235 255.496 130.281 255.299C131.363 255.228 132.466 255.162 133.559 255.091C136.594 254.894 138.89 252.269 138.691 249.228C138.493 246.187 135.877 243.857 132.831 244.054Z" fill="white"/>
<path d="M174.949 239.191C168.669 239.378 162.455 240.238 156.186 240.467C153.139 240.58 150.788 243.113 150.91 246.158C151.02 249.204 153.548 251.583 156.594 251.47C162.841 251.238 169.044 250.38 175.291 250.194C178.337 250.104 180.732 247.584 180.633 244.538C180.545 241.491 177.995 239.101 174.949 239.191Z" fill="white"/>
<path d="M399.423 75.4495L570.797 112.487L554.517 205.709L543.491 309.563L577 531.382C577 531.382 561.857 550.006 536.483 553.402C511.108 556.798 479.487 547.103 479.487 547.103L460.039 401.576L456.286 444.125L352.504 418.406L349.182 227.377L399.423 75.4495Z" fill="black"/>
<path d="M335.948 20.2305C331.677 27.0614 364.877 74.232 368.751 129.764C372.614 185.298 348.398 232.087 352.482 232.938C356.444 233.762 396.487 188.636 440.746 156.395C472.71 133.106 484.84 133.154 484.641 127.393C484.233 115.962 473.063 96.1 430.095 70.1295C387.139 44.158 340.451 13.0155 335.948 20.2305Z" fill="black" stroke="black" stroke-width="5" stroke-miterlimit="10" stroke-linejoin="round"/>
<path d="M465.667 103.158C464.972 103.261 464.299 103.616 463.846 104.228C462.93 105.451 463.206 107.181 464.431 108.091C469.508 111.863 474.718 115.915 478.503 121.059C480.126 123.268 481.649 125.95 481.506 128.785C481.34 131.887 479.154 134.197 477.013 136.236C472.786 140.275 467.83 143.64 462.941 146.824C455.568 151.628 447.953 155.989 440.282 160.31C435.944 162.753 431.485 165.056 427.346 167.829C419.156 173.323 411.751 180.049 404.477 186.696C394.334 195.975 384.533 205.635 374.511 215.048C371.443 217.928 368.386 220.833 365.13 223.498C364.192 224.261 363.22 225.031 362.194 225.671C361.951 225.822 361.686 226.023 361.399 226.085C359.931 226.472 359.048 227.957 359.435 229.43C359.821 230.905 361.344 231.784 362.823 231.397C365.394 230.694 367.635 228.581 369.61 226.913C373.087 223.972 376.443 220.865 379.754 217.737C390.383 207.69 400.791 197.394 411.696 187.627C417.667 182.272 423.748 176.89 430.415 172.417C435.271 169.167 440.524 166.532 445.602 163.655C453.46 159.196 461.319 154.618 468.813 149.549C473.349 146.48 477.897 143.26 481.737 139.339C484.309 136.732 486.439 133.772 486.914 130.061C487.918 122.243 481.55 115.368 476.219 110.54C475.115 109.531 473.934 108.559 472.775 107.607C471.12 106.25 469.431 104.954 467.709 103.676C467.091 103.221 466.374 103.056 465.667 103.158Z" fill="white"/>
<path d="M359.953 242.295C358.43 242.252 357.139 243.463 357.095 244.986C356.256 274.231 357.47 303.485 357.68 332.731C357.779 347.665 357.316 362.601 357.503 377.536C357.636 387.827 358.166 398.084 359.06 408.336C359.192 409.855 360.538 410.952 362.061 410.819C363.573 410.687 364.677 409.371 364.545 407.853C363.838 399.766 363.364 391.654 363.165 383.537C362.724 365.963 363.287 348.41 363.165 330.834C362.966 302.273 361.796 273.685 362.613 245.124C362.657 243.601 361.476 242.339 359.953 242.295Z" fill="white"/>
<path d="M553.556 123.025C550.962 123.452 548.446 124.083 545.996 125.06C533.546 130.046 525.4 141.593 517.851 152.101C513.425 158.27 508.999 164.434 504.75 170.727C494.265 186.221 484.309 202.106 474.089 217.773C473.25 219.049 473.636 220.734 474.916 221.566C476.186 222.399 477.874 222.05 478.713 220.773C488.911 205.133 498.834 189.3 509.297 173.83C513.911 167.01 518.734 160.333 523.546 153.653C531.471 142.655 540.234 130.807 554.45 128.475C555.951 128.227 556.978 126.805 556.724 125.301C556.481 123.798 555.057 122.778 553.556 123.025Z" fill="white"/>
<path d="M548.314 149.825C545.301 149.323 542.465 151.371 541.968 154.377C535.699 191.973 527.476 229.206 521.516 266.853C519.508 279.487 517.885 292.174 516.582 304.897C516.262 307.929 518.481 310.621 521.516 310.933C524.541 311.245 527.234 309.067 527.543 306.035C528.624 295.599 529.905 285.198 531.45 274.82C537.366 235.073 546.262 195.837 552.862 156.205C553.369 153.2 551.316 150.326 548.314 149.825Z" fill="white"/>
<path d="M525.379 330.455C522.366 330.943 520.302 333.793 520.788 336.802C521.693 342.38 522.774 347.922 523.889 353.46C524.496 356.448 527.421 358.377 530.412 357.772C533.403 357.166 535.324 354.241 534.717 351.253C533.624 345.855 532.575 340.479 531.692 335.042C531.196 332.034 528.381 329.965 525.379 330.455Z" fill="white"/>
<path d="M532.928 380.329C529.915 380.76 527.807 383.554 528.237 386.572C530.103 399.675 532.564 412.657 535.412 425.581C539.032 441.995 543.226 458.28 546.824 474.697C547.828 479.23 548.689 483.81 549.617 488.355C550.179 491.046 550.831 493.722 551.316 496.426C551.802 499.134 552.144 501.881 552.552 504.601C553.258 509.218 553.954 513.85 554.66 518.466C555.113 521.479 557.927 523.547 560.94 523.088C563.943 522.629 566.018 519.789 565.554 516.776C564.782 511.698 564.02 506.644 563.248 501.566C562.883 499.213 562.596 496.837 562.177 494.494C561.592 491.237 560.841 488.01 560.179 484.768C559.329 480.634 558.49 476.475 557.585 472.351C553.987 455.93 549.793 439.654 546.173 423.236C543.38 410.583 540.997 397.848 539.175 385.02C538.745 382.002 535.941 379.899 532.928 380.329Z" fill="white"/>
<path d="M361.543 35.5556C360.142 35.7708 358.817 36.5335 357.923 37.763C356.113 40.221 356.631 43.6525 359.093 45.4548C379.942 60.7369 402.767 73.2001 422.8 89.6035C425.161 91.5339 428.627 91.2028 430.558 88.8442C432.49 86.4866 432.159 83.0143 429.797 81.0839C409.61 64.5502 386.62 51.9579 365.616 36.5556C364.38 35.6549 362.934 35.3404 361.543 35.5556Z" fill="white"/>
<path d="M442.29 90.1211C440.889 90.311 439.553 91.046 438.626 92.259C436.783 94.685 437.268 98.1407 439.697 99.985C442.257 102.078 441.098 101.101 442.246 102.055C442.798 102.507 441.143 101.166 440.635 100.675C440.359 100.417 441.231 101.135 441.529 101.365C442.092 101.801 442.644 102.251 443.185 102.71C443.438 102.928 444.211 103.571 443.946 103.366C442.511 102.253 443.924 103.369 444.807 104.158C447.07 106.199 450.558 106.009 452.6 103.744C454.641 101.481 454.486 97.9895 452.224 95.9498C449.299 93.5636 450.558 94.6221 449.288 93.5691C448.626 93.0184 450.602 94.6751 451.319 95.1563C451.694 95.4068 450.668 94.5503 450.326 94.2601C449.664 93.7016 448.968 93.1685 448.284 92.6387C447.964 92.3848 447.003 91.6476 447.323 91.9136C448.935 93.2833 447.29 91.9047 446.352 91.1895C445.138 90.2668 443.681 89.9302 442.29 90.1211Z" fill="white"/>
<path d="M453.008 319.797C449.973 319.619 447.357 321.928 447.181 324.971C445.889 347.055 443.571 369.071 441.497 391.09C440.448 402.161 439.554 413.22 438.693 424.306C438.461 427.344 440.735 430.002 443.77 430.238C446.805 430.473 449.465 428.206 449.697 425.168C450.558 414.144 451.452 403.133 452.489 392.125C454.587 369.975 456.893 347.842 458.184 325.626C458.361 322.584 456.054 319.975 453.008 319.797Z" fill="white"/>
<path d="M238.987 0.0147649C234.175 -0.143287 229.783 0.880078 225.533 3.06764V77.2904H349.227V4.36009C347.505 4.64485 345.871 4.82917 344.05 5.22099C339.635 6.17019 337.384 6.74523 327.285 9.48797C318.554 11.8588 313.422 13.149 307.517 14.2637C300.354 15.6202 293.059 15.2306 285.068 13.4028C279.317 12.0872 274.781 10.5608 265.167 6.98253C251.448 1.88004 245.731 0.235508 238.987 0.0147649Z" fill="#272727"/>
<path d="M219.297 80.9271C219.297 80.9271 261.614 163.902 287.374 164.771C313.146 165.64 356.335 81.1622 356.335 81.1622" stroke="#B9B9B9" stroke-width="2" stroke-miterlimit="10" stroke-linecap="round" stroke-linejoin="round" stroke-dasharray="2 2"/>
<path d="M216.548 93.7115C216.548 93.7115 262.054 199.312 287.815 200.18C313.586 201.049 359.391 93.1 359.391 93.1" stroke="#B9B9B9" stroke-width="2" stroke-miterlimit="10" stroke-linecap="round" stroke-linejoin="round" stroke-dasharray="2 2"/>
</svg>
