<svg width="219" height="120" viewBox="0 0 219 120" fill="none" xmlns="http://www.w3.org/2000/svg">
<path d="M53.502 3V117" stroke="#AF52DE" stroke-width="5" stroke-miterlimit="10" stroke-linecap="round" stroke-linejoin="round"/>
<path d="M44.4336 7.03906L53.5019 14.3313L62.5678 7.03906" stroke="#AF52DE" stroke-width="5" stroke-miterlimit="10" stroke-linecap="round" stroke-linejoin="round"/>
<path d="M40.0723 18.5308L53.5017 29.3317L66.9311 18.5308" stroke="#AF52DE" stroke-width="5" stroke-miterlimit="10" stroke-linecap="round" stroke-linejoin="round"/>
<path d="M44.4336 112.961L53.5019 105.669L62.5678 112.961" stroke="#AF52DE" stroke-width="5" stroke-miterlimit="10" stroke-linecap="round" stroke-linejoin="round"/>
<path d="M40.0723 101.469L53.5017 90.6682L66.9311 101.469" stroke="#AF52DE" stroke-width="5" stroke-miterlimit="10" stroke-linecap="round" stroke-linejoin="round"/>
<path d="M102.915 31.5403L4.08594 88.4601" stroke="#AF52DE" stroke-width="5" stroke-miterlimit="10" stroke-linecap="round" stroke-linejoin="round"/>
<path d="M94.8877 25.7056L93.0928 37.1979L103.941 41.4083" stroke="#AF52DE" stroke-width="5" stroke-miterlimit="10" stroke-linecap="round" stroke-linejoin="round"/>
<path d="M82.7466 27.6658L80.0889 44.6875L96.1562 50.9232" stroke="#AF52DE" stroke-width="5" stroke-miterlimit="10" stroke-linecap="round" stroke-linejoin="round"/>
<path d="M3.05957 78.5918L13.9104 82.8022L12.1155 94.2945" stroke="#AF52DE" stroke-width="5" stroke-miterlimit="10" stroke-linecap="round" stroke-linejoin="round"/>
<path d="M10.8447 69.0767L26.9145 75.3127L24.2544 92.3341" stroke="#AF52DE" stroke-width="5" stroke-miterlimit="10" stroke-linecap="round" stroke-linejoin="round"/>
<path d="M103.006 88.3005L3.99414 31.7" stroke="#AF52DE" stroke-width="5" stroke-miterlimit="10" stroke-linecap="round" stroke-linejoin="round"/>
<path d="M104 78.4292L93.1641 82.6744L94.996 94.1611" stroke="#AF52DE" stroke-width="5" stroke-miterlimit="10" stroke-linecap="round" stroke-linejoin="round"/>
<path d="M96.1853 68.9392L80.1377 75.2269L82.8498 92.2396" stroke="#AF52DE" stroke-width="5" stroke-miterlimit="10" stroke-linecap="round" stroke-linejoin="round"/>
<path d="M12.004 25.8394L13.836 37.326L3 41.5712" stroke="#AF52DE" stroke-width="5" stroke-miterlimit="10" stroke-linecap="round" stroke-linejoin="round"/>
<path d="M24.1499 27.7607L26.8645 44.7735L10.8145 51.0614" stroke="#AF52DE" stroke-width="5" stroke-miterlimit="10" stroke-linecap="round" stroke-linejoin="round"/>
<path d="M53.5012 77.9325L37.2188 68.5372V49.7471L53.5012 40.3518L69.7836 49.7471V68.5372L53.5012 77.9325Z" stroke="#AF52DE" stroke-width="5" stroke-miterlimit="10" stroke-linejoin="round"/>
<path d="M119.958 38.432C118.486 38.432 117.238 37.184 117.238 35.68C117.238 34.208 118.486 32.96 119.958 32.96C121.43 32.96 122.678 34.208 122.678 35.68C122.678 37.184 121.43 38.432 119.958 38.432ZM122.198 54.72C122.198 55.584 121.782 56 120.918 56H118.998C118.134 56 117.718 55.584 117.718 54.72V41.92C117.718 41.056 118.134 40.64 118.998 40.64H120.918C121.782 40.64 122.198 41.056 122.198 41.92V54.72ZM129.173 55.36C129.173 56.224 128.757 56.64 127.893 56.64H125.973C125.109 56.64 124.693 56.224 124.693 55.36V40C124.693 39.136 125.109 38.72 125.973 38.72H127.893C128.757 38.72 129.173 39.136 129.173 40V42.4C130.389 40.512 132.405 39.616 134.197 39.616C137.301 39.616 139.605 41.632 139.605 46.272V54.72C139.605 55.584 139.189 56 138.325 56H136.405C135.541 56 135.125 55.584 135.125 54.72V47.712C135.125 45.376 134.197 44.256 132.661 44.256C130.549 44.256 129.173 45.568 129.173 48.512V55.36ZM150.56 56H148.128C147.328 56 147.168 55.84 146.656 54.784L140.768 42.592C140.256 41.504 140.512 41.312 141.632 40.832L143.136 40.192C144.192 39.744 144.48 40.16 145.056 41.44L148.864 49.728L151.84 40.32C152.256 39.04 152.672 38.752 153.728 39.072L155.552 39.616C156.672 39.936 156.768 40.288 156.416 41.376L152.032 54.784C151.68 55.84 151.36 56 150.56 56ZM165.322 56.384C160.234 56.384 156.938 52.96 156.938 48C156.938 43.424 159.658 39.616 164.97 39.616C169.098 39.616 171.882 42.4 171.882 46.848C171.882 48.128 171.754 48.672 170.634 48.8L161.706 49.824C162.346 51.232 163.754 52.224 165.93 52.224C167.146 52.224 168.522 51.488 169.61 50.88C170.09 50.592 170.57 50.848 170.794 51.456L171.434 53.12C171.658 53.728 171.818 54.048 171.306 54.464C169.738 55.712 167.37 56.384 165.322 56.384ZM164.65 43.776C162.986 43.776 161.898 44.512 161.514 46.368L167.274 45.696C166.986 44.544 166.026 43.776 164.65 43.776ZM177.911 54.72C177.911 55.584 177.495 56 176.631 56H174.711C173.847 56 173.431 55.584 173.431 54.72V39.68C173.431 38.816 173.847 38.4 174.711 38.4H176.631C177.495 38.4 177.911 38.816 177.911 39.68V42.336C178.967 40.608 180.599 39.616 182.103 39.616C182.807 39.616 183.543 39.776 183.959 40.032C184.215 40.192 184.279 40.416 184.247 40.64L183.927 44.32C183.895 44.8 183.607 44.96 183.063 44.832C182.167 44.64 181.559 44.576 181.015 44.576C179.255 44.576 177.911 45.92 177.911 48.512V54.72ZM190.073 55.36C190.073 56.224 189.657 56.64 188.793 56.64H186.873C186.009 56.64 185.593 56.224 185.593 55.36V40C185.593 39.136 186.009 38.72 186.873 38.72H188.793C189.657 38.72 190.073 39.136 190.073 40V42.4C191.289 40.512 193.305 39.616 195.097 39.616C198.201 39.616 200.505 41.632 200.505 46.272V54.72C200.505 55.584 200.089 56 199.225 56H197.305C196.441 56 196.025 55.584 196.025 54.72V47.712C196.025 45.376 195.097 44.256 193.561 44.256C191.449 44.256 190.073 45.568 190.073 48.512V55.36ZM210.02 56.384C205.028 56.384 201.988 52.8 201.988 48C201.988 43.2 205.028 39.616 210.02 39.616C215.012 39.616 218.052 43.2 218.052 48C218.052 52.8 215.012 56.384 210.02 56.384ZM210.02 51.744C211.972 51.744 213.572 50.72 213.572 48C213.572 45.28 211.972 44.256 210.02 44.256C208.068 44.256 206.468 45.28 206.468 48C206.468 50.72 208.068 51.744 210.02 51.744Z" fill="black"/>
<path d="M119.575 67.152C118.359 67.152 117.495 66.256 117.495 65.04C117.495 63.856 118.391 62.96 119.575 62.96C120.759 62.96 121.655 63.856 121.655 65.04C121.655 66.256 120.791 67.152 119.575 67.152ZM120.855 85.04C120.855 85.68 120.535 86 119.895 86H119.255C118.615 86 118.295 85.68 118.295 85.04V71.6C118.295 70.96 118.615 70.64 119.255 70.64H119.895C120.535 70.64 120.855 70.96 120.855 71.6V85.04ZM127.143 85.36C127.143 86 126.823 86.32 126.183 86.32H125.543C124.903 86.32 124.583 86 124.583 85.36V70.32C124.583 69.68 124.903 69.36 125.543 69.36H126.183C126.823 69.36 127.143 69.68 127.143 70.32V72.592C128.423 70.992 130.343 70 132.327 70C135.367 70 137.575 71.792 137.575 75.952V85.04C137.575 85.68 137.255 86 136.615 86H135.975C135.335 86 135.015 85.68 135.015 85.04V77.072C135.015 74.128 133.639 72.72 131.431 72.72C129.191 72.72 127.143 74.672 127.143 77.232V85.36ZM152.065 85.648C151.233 86.192 149.825 86.64 148.417 86.64C145.249 86.64 143.329 84.848 143.329 80.752V73.808L140.737 73.712C140.289 73.712 140.161 73.456 140.161 73.04V71.76C140.161 71.344 140.481 70.992 140.929 70.992L143.329 71.056V67.12C143.329 66.704 143.553 66.48 143.969 66.48H145.249C145.665 66.48 145.889 66.704 145.889 67.12V71.152L150.817 71.312C151.265 71.312 151.393 71.568 151.393 71.984V73.264C151.393 73.68 151.073 74.032 150.625 74.032L145.889 73.872V79.984C145.889 83.024 146.625 83.952 148.353 83.952C149.249 83.952 150.465 83.536 150.977 83.28C151.233 83.152 151.457 83.184 151.585 83.472L152.257 84.944C152.385 85.232 152.289 85.488 152.065 85.648ZM161.297 86.32C156.433 86.32 153.265 83.088 153.265 78.32C153.265 73.968 155.889 70 160.497 70C163.985 70 166.929 72.592 166.929 77.456C166.929 78.096 166.833 78.32 166.257 78.384L155.953 79.568C156.401 81.872 158.225 83.568 161.297 83.568C162.865 83.568 164.561 83.12 165.521 82.608C165.809 82.48 166.001 82.576 166.097 82.832L166.641 84.24C166.769 84.56 166.737 84.784 166.449 84.976C165.425 85.712 163.217 86.32 161.297 86.32ZM160.337 72.72C158.001 72.72 156.337 74.288 155.921 77.008L164.145 76.048C163.889 74.096 162.353 72.72 160.337 72.72ZM172.318 85.36C172.318 86 171.998 86.32 171.358 86.32H170.718C170.078 86.32 169.758 86 169.758 85.36V70.32C169.758 69.68 170.078 69.36 170.718 69.36H171.358C171.998 69.36 172.318 69.68 172.318 70.32V72.592C173.598 70.992 175.518 70 177.502 70C180.542 70 182.75 71.792 182.75 75.952V85.04C182.75 85.68 182.43 86 181.79 86H181.15C180.51 86 180.19 85.68 180.19 85.04V77.072C180.19 74.128 178.814 72.72 176.606 72.72C174.366 72.72 172.318 74.672 172.318 77.232V85.36ZM185.72 74.544C185.72 71.92 187.48 70 191.192 70C192.568 70 194.68 70.48 195.672 71.12C195.928 71.28 196.024 71.536 195.896 71.824L195.192 73.264C195.064 73.52 194.808 73.616 194.552 73.52C193.4 73.04 192.088 72.72 191 72.72C189.208 72.72 188.28 73.392 188.28 74.544C188.28 77.616 196.568 76.528 196.568 81.936C196.568 84.624 194.424 86.32 190.776 86.32C189.208 86.32 186.904 85.68 185.656 84.88C185.4 84.72 185.304 84.464 185.432 84.176L186.136 82.736C186.264 82.448 186.488 82.384 186.744 82.512C188.216 83.248 189.72 83.6 190.968 83.6C192.984 83.6 194.008 82.992 194.008 81.936C194.008 78.864 185.72 79.952 185.72 74.544ZM206.082 86.32C201.506 86.32 198.69 82.896 198.69 78.32C198.69 73.552 201.506 70 206.082 70C210.658 70 213.442 73.552 213.442 78.32C213.442 82.896 210.658 86.32 206.082 86.32ZM206.082 83.6C209.026 83.6 210.882 81.872 210.882 78.32C210.882 74.576 209.026 72.72 206.082 72.72C203.138 72.72 201.25 74.544 201.25 78.32C201.25 81.872 203.138 83.6 206.082 83.6Z" fill="black"/>
</svg>
