<svg width="208" height="122" viewBox="0 0 208 122" fill="none" xmlns="http://www.w3.org/2000/svg">
<path d="M19.1099 102.527C19.1099 102.527 34.5415 87.1023 29.6322 73.531C24.7227 59.9595 2.5 61.0194 2.5 61.0194V60.9806C2.5 60.9806 24.7227 62.0405 29.6322 48.4693C34.5415 34.8977 19.1099 19.4729 19.1099 19.4729L18.9729 19.6099C18.9729 19.6099 34.3977 35.0418 47.9692 30.1323C61.5405 25.2227 60.4806 3 60.4806 3H60.5194C60.5194 3 59.4595 25.2227 73.031 30.1323C86.6023 35.0418 102.026 19.6099 102.026 19.6099L101.889 19.4729C101.889 19.4729 86.4585 34.8977 91.3685 48.4693C96.2765 62.0405 118.5 60.9806 118.5 60.9806V61.0194C118.5 61.0194 96.2765 59.9595 91.3685 73.531C86.4585 87.1023 101.889 102.527 101.889 102.527L102.026 102.39C102.026 102.39 86.6023 86.9585 73.031 91.868C59.4595 96.7773 60.5194 119 60.5194 119H60.4806C60.4806 119 61.5405 96.7773 47.9692 91.868C34.3977 86.9585 18.9729 102.39 18.9729 102.39" stroke="black" stroke-width="5" stroke-miterlimit="10" stroke-linejoin="round"/>
<path d="M37.126 61.0962C37.126 48.3308 47.4746 37.9822 60.24 37.9822C73.0056 37.9822 83.354 48.3308 83.354 61.0962C83.354 73.8618 73.0056 84.2102 60.24 84.2102C47.4746 84.2102 37.126 73.8618 37.126 61.0962Z" stroke="black" stroke-width="5" stroke-miterlimit="10" stroke-linejoin="round"/>
<path d="M140.647 57H138.215C137.415 57 137.255 56.84 136.743 55.784L130.855 43.592C130.343 42.504 130.599 42.312 131.719 41.832L133.223 41.192C134.279 40.744 134.567 41.16 135.143 42.44L138.951 50.728L141.927 41.32C142.343 40.04 142.759 39.752 143.815 40.072L145.639 40.616C146.759 40.936 146.855 41.288 146.503 42.376L142.119 55.784C141.767 56.84 141.447 57 140.647 57ZM155.409 57.384C150.321 57.384 147.025 53.96 147.025 49C147.025 44.424 149.745 40.616 155.057 40.616C159.185 40.616 161.969 43.4 161.969 47.848C161.969 49.128 161.841 49.672 160.721 49.8L151.793 50.824C152.433 52.232 153.841 53.224 156.017 53.224C157.233 53.224 158.609 52.488 159.697 51.88C160.177 51.592 160.657 51.848 160.881 52.456L161.521 54.12C161.745 54.728 161.905 55.048 161.393 55.464C159.825 56.712 157.457 57.384 155.409 57.384ZM154.737 44.776C153.073 44.776 151.985 45.512 151.601 47.368L157.361 46.696C157.073 45.544 156.113 44.776 154.737 44.776ZM167.998 55.72C167.998 56.584 167.582 57 166.718 57H164.798C163.934 57 163.518 56.584 163.518 55.72V40.68C163.518 39.816 163.934 39.4 164.798 39.4H166.718C167.582 39.4 167.998 39.816 167.998 40.68V43.336C169.054 41.608 170.686 40.616 172.19 40.616C172.894 40.616 173.63 40.776 174.046 41.032C174.302 41.192 174.366 41.416 174.334 41.64L174.014 45.32C173.982 45.8 173.694 45.96 173.15 45.832C172.254 45.64 171.646 45.576 171.102 45.576C169.342 45.576 167.998 46.92 167.998 49.512V55.72ZM184.225 38.824C183.009 38.824 181.953 38.248 180.737 38.248C180.065 38.248 179.233 38.472 178.625 38.696C177.857 38.984 177.377 38.76 177.377 37.928V36.36C177.377 35.72 177.569 35.272 178.337 34.984C179.105 34.696 179.809 34.568 180.513 34.568C181.857 34.568 182.849 35.144 184.001 35.144C184.673 35.144 185.505 34.92 186.113 34.696C186.881 34.408 187.361 34.632 187.361 35.464V37.032C187.361 37.672 187.169 38.12 186.401 38.408C185.633 38.696 184.929 38.824 184.225 38.824ZM188.353 57.96H185.793C185.153 57.96 184.833 57.64 184.833 57V55.624C183.841 56.584 182.337 57.224 180.929 57.352C180.737 57.384 180.545 57.384 180.385 57.384C177.089 57.384 174.817 55.112 174.817 52.104C174.817 49.32 176.577 46.888 181.025 46.888C182.241 46.888 183.617 47.208 184.833 47.72C184.801 47.496 184.769 47.304 184.737 47.112C184.385 45.576 183.233 44.776 181.505 44.776C180.321 44.776 178.977 45.224 177.729 45.992C177.249 46.28 176.865 46.024 176.545 45.416L176.097 44.488L175.617 43.56C175.521 43.368 175.457 43.208 175.393 43.048C175.329 42.728 175.393 42.472 175.745 42.216C177.249 41.032 179.585 40.296 182.017 40.296C186.497 40.296 189.313 43.08 189.313 47.624V57C189.313 57.224 189.281 57.384 189.217 57.544C189.057 57.832 188.769 57.96 188.353 57.96ZM181.505 53.384C182.817 53.384 184.289 52.872 184.705 51.912C184.801 51.72 184.833 51.528 184.833 51.336V51.208C183.745 50.792 182.529 50.568 181.505 50.568C180.033 50.568 179.297 51.048 179.297 51.976C179.297 52.872 180.321 53.384 181.505 53.384ZM198.795 57.384C193.803 57.384 190.763 53.8 190.763 49C190.763 44.2 193.803 40.616 198.795 40.616C203.787 40.616 206.827 44.2 206.827 49C206.827 53.8 203.787 57.384 198.795 57.384ZM198.795 52.744C200.747 52.744 202.347 51.72 202.347 49C202.347 46.28 200.747 45.256 198.795 45.256C196.843 45.256 195.243 46.28 195.243 49C195.243 51.72 196.843 52.744 198.795 52.744Z" fill="black"/>
<path d="M134.609 79.48C134.609 82.936 136.433 84.6 139.441 84.6C141.042 84.6 142.801 84.152 143.825 83.608C144.082 83.48 144.306 83.576 144.401 83.832L144.946 85.24C145.073 85.528 145.009 85.784 144.753 85.976C143.698 86.744 141.393 87.32 139.41 87.32C134.961 87.32 132.049 84.248 132.049 79.48C132.049 74.552 134.961 71.32 139.41 71.32C141.266 71.32 143.41 71.928 144.434 72.664C144.689 72.856 144.753 73.112 144.625 73.4L144.082 74.808C143.986 75.064 143.761 75.16 143.505 75.032C142.545 74.52 140.913 74.04 139.441 74.04C136.433 74.04 134.609 75.832 134.609 79.48ZM150.102 86.04C150.102 86.68 149.782 87 149.142 87H148.502C147.862 87 147.542 86.68 147.542 86.04V64.92C147.542 64.28 147.862 63.96 148.502 63.96H149.142C149.782 63.96 150.102 64.28 150.102 64.92V86.04ZM164.933 87.64H163.653C163.237 87.64 163.013 87.416 163.013 87V85.656C161.957 86.68 160.325 87.32 158.565 87.32C158.341 87.32 158.117 87.32 157.925 87.288C154.981 87.032 152.997 84.888 152.997 82.104C152.997 79.48 154.565 77.208 158.565 77.208C160.005 77.208 161.637 77.464 163.013 78.04V77.752C163.013 74.872 161.413 73.4 158.725 73.4C157.477 73.4 156.037 73.848 154.789 74.616C154.533 74.776 154.309 74.68 154.181 74.424L153.701 73.464C153.637 73.304 153.541 73.144 153.477 72.984C153.349 72.696 153.445 72.44 153.669 72.28C154.981 71.384 156.997 70.68 159.237 70.68C163.141 70.68 165.573 73.016 165.573 77.624V87C165.573 87.416 165.349 87.64 164.933 87.64ZM158.725 84.6C161.029 84.6 163.013 83.32 163.013 81.912V80.568C161.669 80.056 160.037 79.768 158.725 79.768C156.613 79.768 155.557 80.632 155.557 81.976C155.557 83.64 157.029 84.6 158.725 84.6ZM171.646 86.36C171.646 87 171.326 87.32 170.686 87.32H170.046C169.406 87.32 169.086 87 169.086 86.36V71C169.086 70.36 169.406 70.04 170.046 70.04H170.686C171.326 70.04 171.646 70.36 171.646 71V73.048C172.638 71.768 174.078 71 175.806 71C176.542 71 177.31 71.192 177.726 71.416C177.95 71.544 177.982 71.672 177.95 71.96L177.63 73.944C177.566 74.328 177.342 74.36 177.022 74.296C176.126 74.136 175.55 74.04 175.07 74.04C173.118 74.04 171.646 75.672 171.646 77.912V86.36ZM186.592 87.32C182.016 87.32 179.2 83.896 179.2 79.32C179.2 74.552 182.016 71 186.592 71C191.168 71 193.952 74.552 193.952 79.32C193.952 83.896 191.168 87.32 186.592 87.32ZM186.592 84.6C189.536 84.6 191.392 82.872 191.392 79.32C191.392 75.576 189.536 73.72 186.592 73.72C183.648 73.72 181.76 75.544 181.76 79.32C181.76 82.872 183.648 84.6 186.592 84.6Z" fill="black"/>
</svg>
