<svg width="232" height="120" viewBox="0 0 232 120" fill="none" xmlns="http://www.w3.org/2000/svg">
<path d="M57.8682 100.869C57.127 106.676 56.2784 112.171 55.4326 116" stroke="#AF52DE" stroke-width="6" stroke-miterlimit="10" stroke-linecap="square" stroke-linejoin="round"/>
<path d="M59.088 0L48.2228 13.0745L39.2953 12.305C39.2953 12.305 42.1933 18.6173 43.0619 24.2113C43.9303 29.8056 44.0125 34.7054 44.0125 34.7054L44.0577 34.814C44.0577 34.814 40.8822 31.0848 37.8376 26.3119C34.793 21.5393 32.7941 14.8854 32.7941 14.8854L26.6009 21.3683L9.80517 18.7334L10.7468 35.4749L0.0898438 41.1793C0.0898438 41.1793 7.39497 44.0738 12.4761 47.7709C17.5576 51.468 21.3856 56.1099 21.3856 56.1099L20.4622 56.8705L0.0898438 59.0707C0.0898438 59.0707 21.6727 90.874 36.9684 93.3597C42.9811 94.3367 48.5823 95.1941 54.0993 95.7408C54.462 92.6244 54.7347 89.7388 55.0047 86.8223L34.2159 73.7478C32.861 72.896 32.4586 71.1094 33.3104 69.7549C34.162 68.4004 35.9485 67.9886 37.3033 68.8405L55.5659 80.3214C55.7206 78.0232 55.8325 75.9458 55.8377 74.4904C55.8467 71.8509 55.8394 69.0065 55.8105 65.9883C55.8003 64.9351 55.7612 63.7442 55.747 62.6653L37.7559 51.4651C36.3976 50.6193 35.9868 48.8305 36.8325 47.4722C37.3083 46.7078 38.0868 46.2428 38.9149 46.1321C39.191 46.095 39.4691 46.0971 39.7479 46.1411C40.1196 46.1999 40.4858 46.337 40.8254 46.5485L55.6294 55.7567C55.5839 53.4336 55.5621 51.2414 55.5025 48.8664C55.4277 45.878 55.1597 37.2762 55.1585 37.2406C55.0731 34.8418 56.9428 32.8261 59.3415 32.7406C61.7403 32.6552 63.756 34.5341 63.8418 36.9329C63.8432 36.9726 63.847 37.0398 63.8507 37.1502C63.8571 37.333 64.1103 45.6419 64.1857 48.6491C64.2596 51.5897 64.2859 54.3294 64.3395 57.1874L78.5278 47.0283C79.8287 46.0968 81.6344 46.3975 82.5662 47.6984C83.4977 48.9994 83.2062 50.805 81.905 51.7366L64.4754 64.2226C64.4818 64.7635 64.4974 65.3726 64.5027 65.9069C64.5319 68.961 64.5392 71.8468 64.5299 74.5266C64.5244 76.0993 64.4096 78.3002 64.2491 80.7198L83.055 68.777C83.3928 68.5626 83.7614 68.4317 84.1325 68.3697C84.411 68.323 84.6894 68.3172 84.9655 68.3514C85.7939 68.4545 86.5745 68.9135 87.0572 69.6735C87.9148 71.0243 87.5115 72.8177 86.1607 73.6754L63.6245 87.9903C63.3683 90.7297 63.1168 93.3945 62.7822 96.2933C68.3959 96.4408 74.0904 96.1563 80.2121 95.1613C95.5074 92.6759 117.09 60.8726 117.09 60.8726L96.718 58.6723L96.8266 58.1201C96.8266 58.1201 100.913 53.6833 106.189 50.2699C111.465 46.8565 118.91 44.3664 118.91 44.3664L108.579 38.0918L110.435 21.4225L93.5218 23.134L87.6908 16.3251C87.6908 16.3251 85.3422 22.8631 82.0409 27.4619C78.7396 32.0609 75.3589 35.6108 75.3589 35.6108L75.0961 35.7105C75.0961 35.7105 74.9023 29.692 76.2733 23.5594C77.6441 17.427 81.2169 10.4307 81.2169 10.4307L69.4555 13.1922L59.088 0Z" fill="#AF52DE"/>
<path d="M140.052 54.384C135.06 54.384 132.02 50.8 132.02 46C132.02 41.2 135.06 37.616 140.052 37.616C145.044 37.616 148.084 41.2 148.084 46C148.084 50.8 145.044 54.384 140.052 54.384ZM140.052 49.744C142.004 49.744 143.604 48.72 143.604 46C143.604 43.28 142.004 42.256 140.052 42.256C138.1 42.256 136.5 43.28 136.5 46C136.5 48.72 138.1 49.744 140.052 49.744ZM160.002 52.72V51.6C158.786 53.488 156.77 54.384 154.978 54.384C151.874 54.384 149.57 52.368 149.57 47.728V39.28C149.57 38.416 149.986 38 150.85 38H152.77C153.634 38 154.05 38.416 154.05 39.28V46.288C154.05 48.624 154.978 49.744 156.514 49.744C158.626 49.744 160.002 48.432 160.002 45.488V38C160.002 37.136 160.418 36.72 161.282 36.72H163.202C164.066 36.72 164.482 37.136 164.482 38V52.72C164.482 53.584 164.066 54 163.202 54H161.282C160.418 54 160.002 53.584 160.002 52.72ZM179.628 52.976C178.156 54.096 176.044 54.704 174.124 54.704C170.636 54.704 168.62 52.528 168.62 48.208V44.048L166.764 43.952C166.06 43.92 165.868 43.568 165.868 42.96V40.4C165.868 39.792 166.316 39.28 166.956 39.312L168.62 39.408V35.76C168.62 35.12 168.94 34.8 169.58 34.8H172.14C172.78 34.8 173.1 35.12 173.1 35.76V39.664L177.708 39.952C178.412 39.984 178.604 40.336 178.604 40.944V43.504C178.604 44.112 178.156 44.624 177.516 44.592L173.1 44.336V47.408C173.1 49.456 173.932 50.128 175.276 50.128C176.108 50.128 177.036 49.648 177.74 49.2C178.22 48.912 178.668 49.168 178.924 49.776L179.756 51.632C180.012 52.176 180.172 52.592 179.628 52.976ZM188.602 54.384C183.61 54.384 180.57 50.8 180.57 46C180.57 41.2 183.61 37.616 188.602 37.616C193.594 37.616 196.634 41.2 196.634 46C196.634 50.8 193.594 54.384 188.602 54.384ZM188.602 49.744C190.554 49.744 192.154 48.72 192.154 46C192.154 43.28 190.554 42.256 188.602 42.256C186.65 42.256 185.05 43.28 185.05 46C185.05 48.72 186.65 49.744 188.602 49.744ZM202.824 53.36C202.824 54.224 202.408 54.64 201.544 54.64H199.624C198.76 54.64 198.344 54.224 198.344 53.36V38C198.344 37.136 198.76 36.72 199.624 36.72H201.544C202.408 36.72 202.824 37.136 202.824 38V40.4C204.04 38.512 206.056 37.616 207.848 37.616C210.952 37.616 213.256 39.632 213.256 44.272V52.72C213.256 53.584 212.84 54 211.976 54H210.056C209.192 54 208.776 53.584 208.776 52.72V45.712C208.776 43.376 207.848 42.256 206.312 42.256C204.2 42.256 202.824 43.568 202.824 46.512V53.36ZM222.77 54.384C217.778 54.384 214.738 50.8 214.738 46C214.738 41.2 217.778 37.616 222.77 37.616C227.762 37.616 230.802 41.2 230.802 46C230.802 50.8 227.762 54.384 222.77 54.384ZM222.77 49.744C224.722 49.744 226.322 48.72 226.322 46C226.322 43.28 224.722 42.256 222.77 42.256C220.818 42.256 219.218 43.28 219.218 46C219.218 48.72 220.818 49.744 222.77 49.744Z" fill="black"/>
<path d="M135.76 89.76C135.76 90.4 135.44 90.72 134.8 90.72H134.16C133.52 90.72 133.2 90.4 133.2 89.76V68.96C133.2 68.32 133.52 68 134.16 68H134.8C135.44 68 135.76 68.32 135.76 68.96V70.592C136.976 69.056 138.768 68.32 140.56 68.32C144.144 68.32 146.992 71.52 146.992 76.48C146.992 81.28 144.016 84.32 140.24 84.32C138.832 84.32 137.232 83.904 135.76 83.232V89.76ZM140.24 81.6C142.64 81.6 144.432 79.936 144.432 76.48C144.432 72.992 142.352 71.04 140.048 71.04C137.808 71.04 135.76 72.992 135.76 75.552V80.224C137.136 81.152 138.704 81.6 140.24 81.6ZM160.195 83.04V81.728C158.915 83.328 156.995 84.32 155.011 84.32C151.971 84.32 149.763 82.528 149.763 78.368V69.28C149.763 68.64 150.083 68.32 150.723 68.32H151.363C152.003 68.32 152.323 68.64 152.323 69.28V77.248C152.323 80.192 153.699 81.6 155.907 81.6C158.147 81.6 160.195 79.648 160.195 77.088V68.32C160.195 67.68 160.515 67.36 161.155 67.36H161.795C162.435 67.36 162.755 67.68 162.755 68.32V83.04C162.755 83.68 162.435 84 161.795 84H161.155C160.515 84 160.195 83.68 160.195 83.04ZM169.085 83.36C169.085 84 168.765 84.32 168.125 84.32H167.485C166.845 84.32 166.525 84 166.525 83.36V68C166.525 67.36 166.845 67.04 167.485 67.04H168.125C168.765 67.04 169.085 67.36 169.085 68V70.048C170.077 68.768 171.517 68 173.245 68C173.981 68 174.749 68.192 175.165 68.416C175.389 68.544 175.421 68.672 175.389 68.96L175.069 70.944C175.005 71.328 174.781 71.36 174.461 71.296C173.565 71.136 172.989 71.04 172.509 71.04C170.557 71.04 169.085 72.672 169.085 74.912V83.36ZM184.03 84.32C179.454 84.32 176.638 80.896 176.638 76.32C176.638 71.552 179.454 68 184.03 68C188.606 68 191.39 71.552 191.39 76.32C191.39 80.896 188.606 84.32 184.03 84.32ZM184.03 81.6C186.974 81.6 188.83 79.872 188.83 76.32C188.83 72.576 186.974 70.72 184.03 70.72C181.086 70.72 179.198 72.544 179.198 76.32C179.198 79.872 181.086 81.6 184.03 81.6Z" fill="black"/>
</svg>
