<svg width="373" height="372" viewBox="0 0 373 372" fill="none" xmlns="http://www.w3.org/2000/svg">
<g clip-path="url(#clip0_304_6322)">
<mask id="mask0_304_6322" style="mask-type:luminance" maskUnits="userSpaceOnUse" x="-8" y="-119" width="390" height="844">
<path d="M382 -119H-8V725H382V-119Z" fill="white"/>
</mask>
<g mask="url(#mask0_304_6322)">
<path d="M-15.1074 126.837C-15.1074 126.837 26.5036 173.871 100.83 165.998C175.156 158.124 329.968 70.8929 318.47 25.9289C306.971 -19.0345 253.454 -9.91707 280.417 -9.91707C307.38 -9.91707 255.912 -20.6917 248.248 13.2909C240.584 47.2729 273.163 157.505 352.69 108.811C432.216 60.1179 413.736 22.4079 413.736 22.4079" stroke="#ED835E" stroke-width="5" stroke-miterlimit="10" stroke-linejoin="round" stroke-dasharray="20 20"/>
<path d="M-16.0938 193.375C-19.8648 193.431 -23.8247 194.489 -27 196.469C-30.1285 198.419 -32.608 202.398 -33.6562 205.875C-33.9534 206.861 -34.1993 208.108 -34.5938 209.281C-34.5698 209.283 -34.5552 209.311 -34.5312 209.312C-34.8557 210.02 -35.1978 210.786 -35.0312 211.281C-34.9555 211.506 -34.2463 211.608 -34.0625 211.688C-33.2668 212.032 -32.4842 212.695 -31.7812 213.219C-31.7513 213.241 -31.7478 213.289 -31.7188 213.312C-34.2792 212.509 -38.1741 212.477 -40.875 213.188C-42.1567 213.608 -43.4144 214.079 -44.6562 214.562C-47.3596 215.711 -51.3762 217.944 -48.5312 219.281C-47.3573 219.833 -45.1839 218.771 -43.9688 218.688C-40.9339 218.48 -37.1612 219.613 -34.5 221C-31.4873 222.571 -28.5637 228.897 -25.8125 229.125C-23.981 229.277 -23.2213 227.611 -22 226.5C-20.524 225.157 -19.151 224.159 -17.5938 223.5C-17.4242 223.327 -17.2414 223.186 -17 223.094C-16.9723 223.083 -16.9652 223.073 -16.9375 223.062C-15.6252 222.564 -10.2879 220.752 -9.09375 220.312C-3.10863 218.112 0.752197 215.799 2.9375 212.594C2.8298 211.174 2.24191 209.716 2.0312 208.344C1.49483 204.843 0.221329 201.229 -1.96875 198.375C-2.5943 197.821 -3.40992 197.024 -4 196.594C-5.27234 195.665 -6.79703 195.132 -9.46875 194.562C-9.74023 194.505 -11.5961 194.129 -12.0312 194.031C-13.4602 193.709 -14.7737 193.529 -16.0938 193.375ZM-74.6875 198.344L-85.0625 210.344C-84.7154 210.509 -84.3677 210.705 -84.0625 210.969L-79.6875 214.75C-79.3823 215.013 -79.1521 215.337 -78.9375 215.656L-68.5625 203.625L-74.6875 198.344ZM-86.0938 211.156C-86.6925 211.025 -87.317 211.028 -87.9062 211.188C-88.6133 211.379 -89.2667 211.778 -89.7812 212.375L-93.0312 216.156C-94.4034 217.747 -94.2468 220.159 -92.6562 221.531L-88.875 224.781C-87.2844 226.153 -84.8722 225.965 -83.5 224.375L-80.25 220.625C-78.8778 219.034 -79.0657 216.622 -80.6562 215.25L-84.4375 212C-84.9346 211.571 -85.495 211.287 -86.0938 211.156ZM-61.5312 215C-62.5984 214.651 -64.777 219.459 -65.1562 220.25C-67.5161 225.175 -69.1656 230.81 -72.1562 235.375C-71.6052 236.098 -71.2892 236.496 -70.9062 236.875C-70.2154 237.559 -69.4405 238.223 -68.625 238.906C-68.5534 238.733 -68.4309 238.384 -68.375 238.281C-66.8327 235.431 -64.071 230.336 -60.625 229.5C-58.138 231.897 -55.5943 234.247 -53.8125 237.25C-51.9526 240.385 -50.8383 244.262 -49.7812 247.75C-49.3707 249.105 -49.2065 250.704 -48.4062 251.906C-47.9734 252.556 -47.339 253.145 -46.6562 253.719C-42.5745 255.898 -38.5366 257.681 -34.4062 259.062C-33.7181 259.293 -33.1946 259.516 -32 260C-31.8867 260.046 -31.8438 260.069 -31.7812 260.094C-30.6908 260.535 -29.8934 260.818 -29.1875 261.031C-29.1656 260.863 -29.1078 260.535 -29.0938 260.469C-28.3648 256.994 -29.8137 252.3 -31.5625 249.281C-37.8402 238.444 -46.5868 230.468 -55.875 222.25C-57.4458 220.86 -58.9889 219.282 -60.1562 217.531C-60.3785 217.198 -61.244 215.094 -61.5312 215ZM-94.3438 221.125L-105.562 234.125L-99.4375 239.406L-88.2188 226.406C-88.5659 226.241 -88.9135 226.045 -89.2188 225.781L-93.5938 222C-93.899 221.737 -94.1292 221.444 -94.3438 221.125ZM20.1562 226.031C19.1104 226.226 18.399 227.236 18.5938 228.281C18.7885 229.327 19.7979 230.007 20.8438 229.812C21.8896 229.618 22.5697 228.608 22.375 227.562C22.1803 226.517 21.2021 225.837 20.1562 226.031ZM18.0938 229.531C17.0479 229.726 16.3678 230.736 16.5625 231.781C16.7572 232.827 17.7667 233.507 18.8125 233.312C19.8583 233.118 20.5385 232.108 20.3438 231.062C20.149 230.017 19.1396 229.337 18.0938 229.531ZM-9.09375 231.469C-10.1396 231.664 -10.8197 232.673 -10.625 233.719C-10.4303 234.765 -9.42084 235.445 -8.375 235.25C-7.32916 235.055 -6.64902 234.046 -6.84375 233C-7.03848 231.954 -8.04791 231.274 -9.09375 231.469ZM15.1875 232.969C14.1417 233.163 13.4615 234.142 13.6562 235.188C13.851 236.233 14.8604 236.945 15.9062 236.75C16.9521 236.555 17.6322 235.545 17.4375 234.5C17.2428 233.454 16.2333 232.774 15.1875 232.969ZM-5.9375 234C-6.98335 234.195 -7.66348 235.204 -7.46875 236.25C-7.274 237.296 -6.26459 237.976 -5.21875 237.781C-4.17292 237.587 -3.49277 236.577 -3.6875 235.531C-3.88223 234.485 -4.89166 233.805 -5.9375 234ZM11.2188 235.312C10.1729 235.507 9.4928 236.517 9.6875 237.562C9.8822 238.608 10.8917 239.288 11.9375 239.094C12.9833 238.899 13.6635 237.889 13.4688 236.844C13.274 235.798 12.2646 235.118 11.2188 235.312ZM-1.96875 236.156C-3.0146 236.351 -3.72598 237.36 -3.53125 238.406C-3.33653 239.452 -2.32709 240.132 -1.28125 239.938C-0.23542 239.743 0.47599 238.733 0.28125 237.688C0.0865173 236.642 -0.922913 235.962 -1.96875 236.156ZM6.8438 236.281C5.7979 236.476 5.0865 237.485 5.2812 238.531C5.47601 239.577 6.4854 240.288 7.5312 240.094C8.5771 239.899 9.2885 238.89 9.0938 237.844C8.89899 236.798 7.8896 236.086 6.8438 236.281ZM2.5625 236.938C1.51667 237.132 0.83651 238.142 1.03125 239.188C1.22598 240.233 2.2042 240.914 3.25 240.719C4.2958 240.524 5.0072 239.514 4.8125 238.469C4.6177 237.423 3.6083 236.743 2.5625 236.938ZM-85.625 245.031L-89.1875 245.875L-90.4688 249.094L-86.3438 251.812L-83.875 249.75L-85.625 245.031ZM-79.9062 246.031C-81.2245 246.153 -82.5279 246.504 -83.7812 247.062L-83.125 248.531C-78.7755 246.595 -73.599 247.76 -70.5 251.469C-66.6944 256.023 -67.321 262.819 -71.875 266.625C-76.4291 270.431 -83.1944 269.804 -87 265.25C-90.1306 261.504 -90.319 256.162 -87.5625 252.219L-88.9062 251.281C-92.0835 255.826 -91.8574 261.995 -88.25 266.312C-83.8649 271.56 -76.06 272.26 -70.8125 267.875C-65.5649 263.49 -64.8649 255.685 -69.25 250.438C-71.9282 247.233 -75.9514 245.665 -79.9062 246.031ZM-6.78125 249.875C-7.95347 249.764 -9.16014 249.881 -10.2812 250.344C-10.6707 250.505 -11.0234 250.705 -11.375 250.938C-11.7439 251.181 -12.0857 251.476 -12.375 251.812C-13.4468 253.057 -13.4012 254.618 -13.0312 256.125C-12.8227 256.975 -12.5228 257.784 -12.2812 258.625C-12.1104 259.22 -11.9478 259.847 -11.9375 260.469C-11.9308 260.875 -12.0027 261.293 -12.0938 261.688C-12.4912 263.412 -13.6048 264.846 -14.625 266.25C-15.1027 266.907 -15.5645 267.586 -15.9688 268.281C-16.3799 268.001 -16.7781 267.743 -17.1562 267.438C-18.1539 267.618 -18.7863 268.166 -19.5938 269.406C-19.6854 269.547 -19.8297 269.77 -20.0312 270.094C-20.1297 270.334 -20.2667 270.721 -20.3438 270.875C-22.1391 274.47 -27.166 284.082 -26.8438 289.438C-26.7477 289.479 -26.6603 289.521 -26.5625 289.562C-24.8563 290.281 -23.4089 290.753 -20.2188 291.719C-15.5754 293.124 -10.9961 293.885 -5.15625 294.344C4.3098 295.087 9.21629 294.306 15.3438 290.562C15.9096 285.446 12.1897 275.758 10.9688 272C10.7018 271.452 10.3615 270.735 10.2188 270.469C9.811 269.709 9.452 269.255 8.9688 269C8.64249 269.206 8.3232 269.375 8 269.562C7.8962 268.706 7.7387 267.868 7.5312 267.031C7.0638 265.147 6.4009 263.31 5.625 261.531C4.8524 259.76 3.95641 258.029 2.9062 256.406C1.78609 254.675 0.494423 253.001 -1.28125 251.906C-2.90505 250.905 -4.82755 250.061 -6.78125 249.875ZM-7.25 251.062C-5.24128 251.167 -3.18636 252.106 -1.5625 253.156C-0.86982 253.604 -0.282402 254.22 0.25 254.844C0.847649 255.544 1.37637 256.289 1.875 257.062C2.8864 258.631 3.755 260.321 4.5 262.031C5.2802 263.822 5.9248 265.66 6.375 267.562C6.5813 268.434 6.7371 269.325 6.8125 270.219C5.2341 271.034 3.6697 271.629 2.0625 271.969C-3.39347 273.122 -10.0536 271.876 -14.9688 268.938C-14.4547 268.048 -13.8518 267.214 -13.25 266.375C-12.1212 264.801 -11.0454 263.124 -10.8125 261.156C-10.5778 259.174 -11.5836 257.333 -11.9688 255.438C-12.169 254.452 -12.1639 253.396 -11.4688 252.594C-11.2505 252.342 -10.9963 252.12 -10.7188 251.938C-9.63863 251.227 -8.45523 251 -7.25 251.062ZM-55.875 264.25C-57.3022 263.703 -58.8906 264.448 -59.4375 265.875L-70.2188 294.031C-70.7656 295.458 -70.0834 297.078 -68.6562 297.625L-55.0625 302.812C-53.6353 303.359 -52.0468 302.646 -51.5 301.219L-40.6875 273.031C-40.1406 271.604 -40.8541 270.015 -42.2812 269.469L-55.875 264.25ZM-56.4062 265.031C-55.5845 265.346 -55.1539 266.272 -55.4688 267.094C-55.7836 267.916 -56.7094 268.315 -57.5312 268C-58.353 267.685 -58.7524 266.759 -58.4375 265.938C-58.1226 265.116 -57.2281 264.717 -56.4062 265.031ZM-53.5 268.688C-52.6782 269.002 -52.2788 269.928 -52.5938 270.75C-52.9086 271.572 -53.8344 272.002 -54.6562 271.688C-55.478 271.373 -55.8774 270.447 -55.5625 269.625C-55.2476 268.803 -54.3218 268.373 -53.5 268.688ZM-58.25 269.875C-57.4282 270.19 -57.0289 271.116 -57.3438 271.938C-57.6586 272.759 -58.5531 273.159 -59.375 272.844C-60.1968 272.529 -60.6274 271.634 -60.3125 270.812C-59.9976 269.991 -59.0718 269.56 -58.25 269.875ZM5.7812 331.062C2.01021 331.118 -1.91844 332.177 -5.09375 334.156C-8.2223 336.107 -10.7017 340.085 -11.75 343.562C-12.0471 344.548 -12.293 345.795 -12.6875 346.969C-12.6636 346.971 -12.649 346.967 -12.625 346.969C-12.9494 347.676 -13.2916 348.473 -13.125 348.969C-13.0493 349.194 -12.3713 349.296 -12.1875 349.375C-11.3918 349.719 -10.578 350.352 -9.875 350.875C-9.84503 350.897 -9.84151 350.946 -9.8125 350.969C-12.373 350.166 -16.2678 350.165 -18.9688 350.875C-20.2505 351.295 -21.5081 351.766 -22.75 352.25C-25.4534 353.399 -29.4699 355.6 -26.625 356.938C-25.4511 357.489 -23.2776 356.427 -22.0625 356.344C-19.0277 356.136 -15.2549 357.3 -12.5938 358.688C-9.58107 360.258 -6.65748 366.584 -3.90625 366.812C-2.07477 366.965 -1.31505 365.268 -0.09375 364.156C1.38229 362.813 2.7552 361.846 4.3125 361.188C4.482 361.015 4.6649 360.873 4.9062 360.781C4.93391 360.771 4.94099 360.76 4.9688 360.75C6.2811 360.251 11.6183 358.439 12.8125 358C18.7976 355.799 22.6585 353.455 24.8438 350.25C24.736 348.83 24.1481 347.372 23.9375 346C23.4011 342.5 22.1276 338.916 19.9375 336.062C19.3119 335.509 18.4963 334.712 17.9062 334.281C16.6339 333.353 15.1092 332.819 12.4375 332.25C12.166 332.192 10.3101 331.817 9.875 331.719C8.4461 331.397 7.1013 331.216 5.7812 331.062ZM-52.7812 336L-63.1562 348.031C-62.8091 348.197 -62.4615 348.393 -62.1562 348.656L-57.8125 352.406C-57.5073 352.67 -57.2458 352.993 -57.0312 353.312L-46.6562 341.312L-52.7812 336ZM-64.1875 348.812C-64.7862 348.682 -65.4108 348.715 -66 348.875C-66.7071 349.067 -67.3605 349.466 -67.875 350.062L-71.125 353.812C-72.4972 355.403 -72.3406 357.815 -70.75 359.188L-66.9688 362.469C-65.3782 363.841 -62.9659 363.653 -61.5938 362.062L-58.3438 358.281C-56.9716 356.691 -57.1594 354.278 -58.75 352.906L-62.5312 349.656C-63.0283 349.227 -63.5888 348.943 -64.1875 348.812ZM-39.625 352.656C-40.6922 352.308 -42.8707 357.146 -43.25 357.938C-45.6099 362.862 -47.2593 368.497 -50.25 373.062C-49.699 373.785 -49.383 374.152 -49 374.531C-48.3092 375.215 -47.5342 375.879 -46.7188 376.562C-46.6472 376.389 -46.5246 376.072 -46.4688 375.969C-44.9264 373.119 -42.1647 368.023 -38.7188 367.188C-36.2317 369.585 -33.688 371.935 -31.9062 374.938C-30.0463 378.072 -28.9633 381.918 -27.9062 385.406C-27.4957 386.761 -27.3003 388.361 -26.5 389.562C-26.0672 390.212 -25.4327 390.832 -24.75 391.406C-20.6683 393.585 -16.6616 395.368 -12.5312 396.75C-11.8431 396.98 -11.2884 397.172 -10.0938 397.656C-9.98041 397.702 -9.93755 397.725 -9.875 397.75C-8.78455 398.191 -7.98718 398.506 -7.28125 398.719C-7.25939 398.551 -7.20153 398.223 -7.1875 398.156C-6.45852 394.681 -7.90739 389.957 -9.65625 386.938C-15.934 376.101 -24.6805 368.125 -33.9688 359.906C-35.5395 358.516 -37.0827 356.969 -38.25 355.219C-38.4723 354.885 -39.3377 352.75 -39.625 352.656ZM-72.4375 358.812L-83.6562 371.812L-77.5312 377.094L-66.3438 364.094C-66.6909 363.928 -67.0073 363.732 -67.3125 363.469L-71.6875 359.688C-71.9927 359.424 -72.2229 359.132 -72.4375 358.812ZM133.781 358.969C130.01 359.024 126.082 360.083 122.906 362.062C119.778 364.013 117.298 367.992 116.25 371.469C115.953 372.454 115.676 373.701 115.281 374.875C115.305 374.877 115.32 374.873 115.344 374.875C115.019 375.582 114.708 376.379 114.875 376.875C114.951 377.1 115.629 377.202 115.812 377.281C116.608 377.626 117.391 378.258 118.094 378.781C118.124 378.804 118.158 378.852 118.188 378.875C115.627 378.072 111.732 378.071 109.031 378.781C107.75 379.202 106.492 379.673 105.25 380.156C102.547 381.305 98.53 383.506 101.375 384.844C102.549 385.396 104.691 384.333 105.906 384.25C108.941 384.043 112.745 385.206 115.406 386.594C118.419 388.164 121.342 394.49 124.094 394.719C125.925 394.871 126.685 393.174 127.906 392.062C129.382 390.719 130.724 389.753 132.281 389.094C132.451 388.921 132.665 388.748 132.906 388.656C132.934 388.646 132.91 388.636 132.938 388.625C134.25 388.126 139.618 386.345 140.812 385.906C146.798 383.706 150.627 381.361 152.812 378.156C152.705 376.736 152.117 375.278 151.906 373.906C151.37 370.406 150.128 366.822 147.938 363.969C147.312 363.415 146.496 362.618 145.906 362.188C144.634 361.259 143.078 360.726 140.406 360.156C140.135 360.098 138.279 359.723 137.844 359.625C136.415 359.303 135.101 359.123 133.781 358.969ZM42.0312 363.688C40.9854 363.882 40.3053 364.892 40.5 365.938C40.6947 366.983 41.7041 367.695 42.75 367.5C43.7958 367.305 44.476 366.296 44.2812 365.25C44.0865 364.204 43.0771 363.493 42.0312 363.688ZM75.1875 363.906L64.8438 375.938C65.1909 376.103 65.5073 376.299 65.8125 376.562L70.1875 380.312C70.4927 380.576 70.7229 380.9 70.9375 381.219L81.3125 369.188L75.1875 363.906ZM40 367.188C38.9542 367.382 38.274 368.392 38.4688 369.438C38.6635 370.483 39.6729 371.195 40.7188 371C41.7646 370.805 42.4447 369.796 42.25 368.75C42.0553 367.704 41.0459 366.993 40 367.188ZM12.8125 369.125C11.7667 369.32 11.0553 370.329 11.25 371.375C11.4447 372.421 12.4542 373.132 13.5 372.938C14.5458 372.743 15.2572 371.734 15.0625 370.688C14.8678 369.642 13.8584 368.93 12.8125 369.125ZM37.0938 370.625C36.0479 370.82 35.3678 371.83 35.5625 372.875C35.7572 373.921 36.7354 374.601 37.7812 374.406C38.8271 374.212 39.5385 373.202 39.3438 372.156C39.149 371.11 38.1396 370.43 37.0938 370.625ZM15.9688 371.656C14.9229 371.851 14.2428 372.86 14.4375 373.906C14.6323 374.952 15.6417 375.663 16.6875 375.469C17.7333 375.274 18.4135 374.265 18.2188 373.219C18.024 372.173 17.0146 371.461 15.9688 371.656ZM33.125 373C32.0792 373.195 31.399 374.173 31.5938 375.219C31.7885 376.265 32.7979 376.976 33.8438 376.781C34.8896 376.587 35.5697 375.577 35.375 374.531C35.1803 373.485 34.1708 372.805 33.125 373ZM19.9375 373.812C18.8917 374.007 18.1803 375.017 18.375 376.062C18.5697 377.108 19.5792 377.82 20.625 377.625C21.6708 377.43 22.351 376.421 22.1562 375.375C21.9615 374.329 20.9833 373.618 19.9375 373.812ZM28.7188 373.969C27.6729 374.163 26.9928 375.173 27.1875 376.219C27.3822 377.265 28.3917 377.944 29.4375 377.75C30.4833 377.555 31.1635 376.546 30.9688 375.5C30.774 374.454 29.7646 373.774 28.7188 373.969ZM24.4688 374.594C23.4229 374.788 22.7428 375.798 22.9375 376.844C23.1322 377.89 24.1104 378.601 25.1562 378.406C26.2021 378.212 26.9135 377.202 26.7188 376.156C26.524 375.11 25.5146 374.399 24.4688 374.594ZM63.7812 376.719C63.1825 376.588 62.558 376.622 61.9688 376.781C61.2617 376.973 60.6083 377.372 60.0938 377.969L56.8438 381.719C55.4716 383.309 55.6594 385.722 57.25 387.094L61.0312 390.344C62.6218 391.716 65.0028 391.559 66.375 389.969L69.625 386.188C70.9972 384.597 70.8406 382.184 69.25 380.812L65.4688 377.562C64.9717 377.134 64.38 376.85 63.7812 376.719ZM88.375 380.562C87.3078 380.214 85.098 385.021 84.7188 385.812C82.3589 390.737 80.7093 396.404 77.7188 400.969C78.2698 401.692 78.6171 402.058 79 402.438C79.6908 403.122 80.4346 403.785 81.25 404.469C81.3216 404.295 81.4753 403.978 81.5312 403.875C83.0736 401.025 85.8352 395.929 89.2812 395.094C91.7683 397.491 94.281 399.841 96.062 402.844C97.922 405.979 99.037 409.824 100.094 413.312C100.504 414.667 100.668 416.267 101.469 417.469C101.902 418.119 102.536 418.738 103.219 419.312C107.3 421.492 111.338 423.274 115.469 424.656C116.157 424.886 116.68 425.078 117.875 425.562C117.988 425.608 118.062 425.631 118.125 425.656C119.215 426.098 120.013 426.381 120.719 426.594C120.741 426.426 120.767 426.098 120.781 426.031C121.51 422.556 120.093 417.863 118.344 414.844C112.066 404.007 103.319 396.031 94.031 387.812C92.46 386.423 90.886 384.876 89.7188 383.125C89.4965 382.792 88.6624 380.656 88.375 380.562ZM-63.7188 382.719L-67.2812 383.562L-68.5938 386.781L-64.4375 389.469L-61.9688 387.406L-63.7188 382.719ZM-58 383.719C-59.3183 383.841 -60.6217 384.161 -61.875 384.719L-61.2188 386.219C-56.8692 384.283 -51.6927 385.448 -48.5938 389.156C-44.7882 393.71 -45.4147 400.476 -49.9688 404.281C-54.5228 408.087 -61.2882 407.492 -65.0938 402.938C-68.2243 399.191 -68.4127 393.818 -65.6562 389.875L-67 388.938C-70.1772 393.483 -69.9511 399.652 -66.3438 403.969C-61.9587 409.216 -54.1538 409.916 -48.9062 405.531C-43.6587 401.146 -42.9586 393.341 -47.3438 388.094C-50.0219 384.889 -54.0451 383.353 -58 383.719ZM55.5312 386.719L44.3125 399.719L50.4375 405L61.6562 392C61.3091 391.835 60.9615 391.607 60.6562 391.344L56.3125 387.594C56.0073 387.33 55.7458 387.038 55.5312 386.719ZM15.0938 387.562C13.9215 387.451 12.7461 387.568 11.625 388.031C11.2355 388.192 10.8828 388.393 10.5312 388.625C10.1624 388.869 9.7893 389.133 9.5 389.469C8.4282 390.713 8.5051 392.274 8.875 393.781C9.0836 394.631 9.3835 395.472 9.625 396.312C9.7959 396.907 9.9585 397.534 9.9688 398.156C9.97549 398.563 9.9036 398.949 9.8125 399.344C9.4151 401.068 8.30151 402.533 7.2812 403.938C6.8036 404.595 6.3417 405.274 5.9375 405.969C5.5264 405.689 5.09689 405.399 4.7188 405.094C3.72109 405.274 3.1199 405.822 2.3125 407.062C2.2208 407.203 2.0766 407.458 1.875 407.781C1.77652 408.021 1.63953 408.377 1.5625 408.531C-0.23288 412.126 -5.25972 421.738 -4.9375 427.094C-4.84142 427.135 -4.75406 427.178 -4.65625 427.219C-2.95009 427.938 -1.5026 428.409 1.6875 429.375C6.3308 430.781 10.9102 431.541 16.75 432C26.216 432.743 31.1225 431.993 37.25 428.25C37.8159 423.133 34.0959 413.414 32.875 409.656C32.608 409.108 32.2678 408.422 32.125 408.156C31.7172 407.397 31.3583 406.942 30.875 406.688C30.5487 406.894 30.2294 407.062 29.9062 407.25C29.8024 406.393 29.6449 405.524 29.4375 404.688C28.97 402.803 28.3072 400.966 27.5312 399.188C26.7587 397.417 25.8627 395.717 24.8125 394.094C23.6923 392.363 22.4007 390.657 20.625 389.562C19.0012 388.561 17.0474 387.748 15.0938 387.562ZM14.6562 388.719C16.665 388.823 18.7199 389.793 20.3438 390.844C21.0364 391.292 21.6239 391.908 22.1562 392.531C22.7539 393.231 23.2826 393.977 23.7812 394.75C24.7927 396.318 25.6613 397.978 26.4062 399.688C27.1864 401.478 27.831 403.348 28.2812 405.25C28.4876 406.122 28.6433 407.013 28.7188 407.906C27.1404 408.721 25.5759 409.317 23.9688 409.656C18.5128 410.81 11.8527 409.532 6.9375 406.594C7.4515 405.704 8.0545 404.87 8.6562 404.031C9.7851 402.457 10.8608 400.78 11.0938 398.812C11.3284 396.83 10.3227 395.021 9.9375 393.125C9.7372 392.139 9.71111 391.052 10.4062 390.25C10.6245 389.998 10.9099 389.807 11.1875 389.625C12.2676 388.915 13.451 388.656 14.6562 388.719ZM170.031 391.594C168.985 391.788 168.305 392.798 168.5 393.844C168.695 394.89 169.704 395.57 170.75 395.375C171.796 395.18 172.476 394.202 172.281 393.156C172.087 392.11 171.077 391.399 170.031 391.594ZM168 395.094C166.954 395.288 166.243 396.298 166.438 397.344C166.632 398.39 167.642 399.101 168.688 398.906C169.733 398.712 170.445 397.702 170.25 396.656C170.055 395.61 169.046 394.899 168 395.094ZM140.781 397.031C139.735 397.226 139.055 398.235 139.25 399.281C139.445 400.327 140.454 401.039 141.5 400.844C142.546 400.649 143.226 399.64 143.031 398.594C142.837 397.548 141.827 396.836 140.781 397.031ZM165.062 398.531C164.017 398.726 163.336 399.736 163.531 400.781C163.726 401.827 164.735 402.507 165.781 402.312C166.827 402.118 167.507 401.108 167.312 400.062C167.118 399.017 166.108 398.337 165.062 398.531ZM143.969 399.562C142.923 399.757 142.211 400.767 142.406 401.812C142.601 402.858 143.61 403.57 144.656 403.375C145.702 403.18 146.413 402.171 146.219 401.125C146.024 400.079 145.015 399.368 143.969 399.562ZM161.125 400.875C160.079 401.07 159.368 402.079 159.562 403.125C159.757 404.171 160.767 404.882 161.812 404.688C162.858 404.493 163.57 403.483 163.375 402.438C163.18 401.392 162.171 400.68 161.125 400.875ZM147.906 401.719C146.86 401.913 146.18 402.923 146.375 403.969C146.57 405.015 147.579 405.695 148.625 405.5C149.671 405.305 150.351 404.296 150.156 403.25C149.962 402.204 148.952 401.524 147.906 401.719ZM156.719 401.875C155.673 402.07 154.993 403.079 155.188 404.125C155.382 405.171 156.392 405.851 157.438 405.656C158.483 405.462 159.163 404.452 158.969 403.406C158.774 402.36 157.765 401.68 156.719 401.875ZM-33.9688 401.938C-35.3959 401.391 -36.9844 402.104 -37.5312 403.531L-48.3438 431.719C-48.8906 433.146 -48.1772 434.734 -46.75 435.281L-33.1562 440.5C-31.7291 441.047 -30.1406 440.302 -29.5938 438.875L-18.7812 410.719C-18.2344 409.292 -18.9478 407.703 -20.375 407.156L-33.9688 401.938ZM152.438 402.5C151.392 402.695 150.712 403.704 150.906 404.75C151.101 405.796 152.11 406.476 153.156 406.281C154.202 406.087 154.882 405.077 154.688 404.031C154.493 402.985 153.483 402.305 152.438 402.5ZM-34.5 402.719C-33.6782 403.034 -33.2476 403.928 -33.5625 404.75C-33.8774 405.572 -34.8032 406.002 -35.625 405.688C-36.4468 405.373 -36.8462 404.447 -36.5312 403.625C-36.2164 402.803 -35.3218 402.404 -34.5 402.719ZM-31.625 406.375C-30.8032 406.69 -30.3726 407.585 -30.6875 408.406C-31.0024 409.228 -31.9282 409.659 -32.75 409.344C-33.5718 409.029 -34.0024 408.103 -33.6875 407.281C-33.3726 406.459 -32.4468 406.06 -31.625 406.375ZM-36.3438 407.562C-35.522 407.877 -35.1226 408.803 -35.4375 409.625C-35.7524 410.447 -36.6782 410.846 -37.5 410.531C-38.3218 410.216 -38.7212 409.291 -38.4062 408.469C-38.0914 407.647 -37.1656 407.248 -36.3438 407.562ZM64.2812 410.594L60.6875 411.438L59.4062 414.656L63.5625 417.375L66.0312 415.312L64.2812 410.594ZM70 411.625C68.6817 411.747 67.3471 412.067 66.0938 412.625L66.7812 414.125C71.1308 412.189 76.276 413.354 79.375 417.062C83.1806 421.617 82.5853 428.382 78.0312 432.188C73.4772 435.993 66.6806 435.398 62.875 430.844C59.7444 427.097 59.556 421.724 62.3125 417.781L60.9688 416.844C57.7915 421.389 58.0176 427.558 61.625 431.875C66.0101 437.123 73.8149 437.823 79.0625 433.438C84.3101 429.052 85.0101 421.247 80.625 416C77.9468 412.795 73.9548 411.259 70 411.625ZM143.094 415.469C141.922 415.357 140.746 415.474 139.625 415.938C139.236 416.098 138.852 416.299 138.5 416.531C138.131 416.775 137.789 417.039 137.5 417.375C136.428 418.62 136.505 420.18 136.875 421.688C137.084 422.538 137.383 423.378 137.625 424.219C137.796 424.814 137.927 425.441 137.938 426.062C137.944 426.469 137.872 426.855 137.781 427.25C137.384 428.974 136.27 430.44 135.25 431.844C134.772 432.501 134.342 433.149 133.938 433.844C133.526 433.564 133.097 433.306 132.719 433C131.721 433.18 131.089 433.729 130.281 434.969C130.19 435.109 130.045 435.364 129.844 435.688C129.745 435.927 129.608 436.283 129.531 436.438C127.736 440.032 122.74 449.644 123.062 455C123.159 455.042 123.246 455.084 123.344 455.125C125.05 455.844 126.497 456.315 129.688 457.281C134.331 458.687 138.879 459.448 144.719 459.906C154.185 460.649 159.123 459.9 165.25 456.156C165.816 451.04 162.096 441.32 160.875 437.562C160.608 437.014 160.268 436.329 160.125 436.062C159.717 435.303 159.327 434.817 158.844 434.562C158.517 434.769 158.198 434.968 157.875 435.156C157.771 434.3 157.614 433.43 157.406 432.594C156.939 430.709 156.307 428.872 155.531 427.094C154.759 425.323 153.831 423.623 152.781 422C151.661 420.269 150.369 418.563 148.594 417.469C146.97 416.468 145.047 415.654 143.094 415.469ZM142.625 416.625C144.634 416.73 146.689 417.699 148.312 418.75C149.005 419.198 149.593 419.814 150.125 420.438C150.723 421.138 151.251 421.883 151.75 422.656C152.761 424.225 153.63 425.884 154.375 427.594C155.155 429.385 155.831 431.254 156.281 433.156C156.488 434.028 156.643 434.919 156.719 435.812C155.14 436.627 153.576 437.223 151.969 437.562C146.513 438.716 139.821 437.438 134.906 434.5C135.42 433.61 136.055 432.776 136.656 431.938C137.785 430.364 138.83 428.687 139.062 426.719C139.297 424.736 138.323 422.927 137.938 421.031C137.737 420.046 137.711 418.959 138.406 418.156C138.624 417.904 138.879 417.714 139.156 417.531C140.236 416.821 141.42 416.563 142.625 416.625ZM94.031 429.844C92.604 429.297 90.9844 430.01 90.4375 431.438L79.6562 459.625C79.1094 461.052 79.8229 462.641 81.25 463.188L94.812 468.406C96.24 468.953 97.859 468.208 98.406 466.781L109.188 438.625C109.734 437.198 109.021 435.578 107.594 435.031L94.031 429.844ZM93.5 430.625C94.322 430.94 94.721 431.834 94.406 432.656C94.091 433.478 93.166 433.909 92.344 433.594C91.522 433.279 91.1226 432.353 91.4375 431.531C91.7524 430.709 92.678 430.31 93.5 430.625ZM96.375 434.281C97.197 434.596 97.596 435.491 97.281 436.312C96.966 437.134 96.041 437.565 95.219 437.25C94.397 436.935 93.998 436.009 94.312 435.188C94.627 434.366 95.553 433.966 96.375 434.281ZM91.625 435.469C92.447 435.784 92.877 436.71 92.562 437.531C92.248 438.353 91.3217 438.752 90.5 438.438C89.6782 438.123 89.2789 437.197 89.5938 436.375C89.9086 435.553 90.8032 435.154 91.625 435.469ZM47.875 456.281C44.104 456.337 40.1753 457.395 37 459.375C33.8715 461.326 31.392 465.304 30.3438 468.781C30.0466 469.767 29.7695 471.014 29.375 472.188C29.3989 472.189 29.4448 472.186 29.4688 472.188C29.1443 472.895 28.8022 473.692 28.9688 474.188C29.0445 474.413 29.7225 474.514 29.9062 474.594C30.702 474.938 31.5158 475.601 32.2188 476.125C32.2487 476.147 32.2522 476.164 32.2812 476.188C29.7208 475.384 25.8259 475.383 23.125 476.094C21.8433 476.514 20.5856 476.985 19.3438 477.469C16.6404 478.617 12.6238 480.819 15.4688 482.156C16.6427 482.708 18.8161 481.677 20.0312 481.594C23.0661 481.386 26.8388 482.519 29.5 483.906C32.5127 485.477 35.4363 491.803 38.1875 492.031C40.019 492.183 40.7787 490.486 42 489.375C43.476 488.032 44.8177 487.065 46.375 486.406C46.5445 486.233 46.7586 486.092 47 486C47.0277 485.989 47.0347 485.979 47.0625 485.969C48.3748 485.47 53.712 483.658 54.9062 483.219C60.8914 481.018 64.7522 478.674 66.9375 475.469C66.8298 474.049 66.2419 472.622 66.0312 471.25C65.4948 467.75 64.2213 464.135 62.0312 461.281C61.4057 460.728 60.59 459.931 60 459.5C58.7277 458.571 57.203 458.038 54.5312 457.469C54.2598 457.411 52.4039 457.036 51.9688 456.938C50.5398 456.615 49.195 456.435 47.875 456.281ZM-23.9062 474.094C-24.6133 474.286 -25.2667 474.685 -25.7812 475.281L-27.1562 476.875C-26.7781 476.818 -26.3966 476.732 -26.0312 476.719C-25.2162 475.85 -24.3908 474.951 -23.5625 474.094C-23.6762 474.115 -23.7946 474.064 -23.9062 474.094ZM2.4688 477.875C1.40159 477.526 -0.77697 482.365 -1.15625 483.156C-3.51612 488.081 -5.1656 493.716 -8.15625 498.281C-7.60524 499.004 -7.28923 499.402 -6.90625 499.781C-6.21541 500.465 -5.44046 501.129 -4.625 501.812C-4.55343 501.639 -4.43088 501.291 -4.375 501.188C-2.83266 498.338 -0.070961 493.242 3.375 492.406C5.862 494.803 8.3745 497.154 10.1562 500.156C12.0162 503.291 13.1304 507.137 14.1875 510.625C14.5981 511.98 14.7935 513.611 15.5938 514.812C16.0266 515.462 16.661 516.051 17.3438 516.625C21.4255 518.804 25.4321 520.587 29.5625 521.969C30.2506 522.199 30.8054 522.391 32 522.875C32.1133 522.921 32.1562 522.943 32.2188 522.969C33.3092 523.41 34.1066 523.724 34.8125 523.938C34.8344 523.769 34.8922 523.442 34.9062 523.375C35.6352 519.9 34.1863 515.176 32.4375 512.156C26.1598 501.319 17.4132 493.344 8.125 485.125C6.5542 483.735 5.01109 482.188 3.8438 480.438C3.6215 480.104 2.756 477.969 2.4688 477.875ZM84.125 488.906C83.0792 489.101 82.399 490.111 82.5938 491.156C82.7885 492.202 83.7979 492.913 84.8438 492.719C85.8896 492.524 86.5698 491.514 86.375 490.469C86.1803 489.423 85.1709 488.712 84.125 488.906ZM82.0938 492.406C81.0479 492.601 80.3677 493.611 80.5625 494.656C80.7572 495.702 81.7666 496.414 82.8125 496.219C83.8583 496.024 84.5385 495.014 84.3438 493.969C84.149 492.923 83.1396 492.212 82.0938 492.406ZM54.9062 494.375C53.8604 494.57 53.149 495.579 53.3438 496.625C53.5385 497.671 54.5479 498.351 55.5938 498.156C56.6396 497.962 57.351 496.952 57.1562 495.906C56.9615 494.86 55.9521 494.18 54.9062 494.375ZM79.1875 495.844C78.1417 496.038 77.4615 497.048 77.6562 498.094C77.851 499.14 78.8291 499.82 79.875 499.625C80.9208 499.43 81.6323 498.421 81.4375 497.375C81.2428 496.329 80.2334 495.649 79.1875 495.844ZM58.0625 496.906C57.0166 497.101 56.3365 498.11 56.5312 499.156C56.726 500.202 57.7354 500.882 58.7812 500.688C59.8271 500.493 60.5072 499.484 60.3125 498.438C60.1178 497.392 59.1084 496.712 58.0625 496.906ZM75.2188 498.219C74.1729 498.413 73.4928 499.423 73.6875 500.469C73.8822 501.515 74.8916 502.195 75.9375 502C76.9833 501.805 77.6635 500.796 77.4688 499.75C77.274 498.704 76.2646 498.024 75.2188 498.219ZM62 499.062C60.9542 499.257 60.274 500.235 60.4688 501.281C60.6635 502.327 61.6729 503.038 62.7188 502.844C63.7646 502.649 64.4447 501.64 64.25 500.594C64.0553 499.548 63.0458 498.868 62 499.062ZM70.8125 499.188C69.7667 499.382 69.0865 500.391 69.2812 501.438C69.476 502.483 70.4854 503.163 71.5312 502.969C72.5771 502.774 73.2572 501.796 73.0625 500.75C72.8678 499.704 71.8584 498.993 70.8125 499.188ZM66.5625 499.812C65.5167 500.007 64.8052 501.016 65 502.062C65.1947 503.108 66.2042 503.82 67.25 503.625C68.2958 503.43 69.0072 502.421 68.8125 501.375C68.6177 500.329 67.6083 499.618 66.5625 499.812ZM-21.625 507.938L-25.1875 508.781L-26 510.781C-24.6988 509.46 -23.1742 508.753 -21.5938 508.656C-21.511 508.651 -21.4267 508.689 -21.3438 508.688L-21.625 507.938Z" fill="#F4F4F4"/>
<path d="M455.312 122.188L448 125.625L455.312 141.156C455.605 140.907 455.916 140.703 456.281 140.531L461.5 138.062C461.865 137.891 462.246 137.784 462.625 137.719L455.312 122.188ZM422.969 124.406C421.626 124.33 420.26 124.492 418.906 124.875C412.326 126.737 408.482 133.576 410.344 140.156C412.206 146.736 419.045 150.55 425.625 148.688C430.983 147.171 434.648 142.3 434.656 136.812H433C432.993 141.574 429.837 145.809 425.188 147.125C419.477 148.741 413.554 145.429 411.938 139.719C410.321 134.008 413.633 128.054 419.344 126.438C424.041 125.108 428.993 127.124 431.469 131.25L432.875 130.406C430.735 126.84 426.995 124.634 422.969 124.406ZM384.25 129.188C383.542 129.185 382.853 129.46 382.312 130L372 140.281C370.918 141.361 370.921 143.106 372 144.188L393.344 165.531C394.424 166.613 396.169 166.642 397.25 165.562L407.531 155.281C408.613 154.201 408.611 152.425 407.531 151.344L386.219 130C385.679 129.459 384.958 129.19 384.25 129.188ZM435.5 129.875L431.344 132.531L432.219 135.625L437.25 135.969L437.938 132.344L435.5 129.875ZM463.031 138.781C462.538 138.8 462.039 138.902 461.562 139.125L457.062 141.25C455.161 142.142 454.327 144.411 455.219 146.312L457.344 150.812C458.236 152.714 460.504 153.549 462.406 152.656L466.906 150.531C468.095 149.974 468.874 148.894 469.062 147.688C469.176 146.964 469.085 146.182 468.75 145.469L466.625 140.969C465.956 139.542 464.512 138.724 463.031 138.781ZM402.25 148.094C402.656 148.094 403.064 148.251 403.375 148.562C403.997 149.185 403.998 150.191 403.375 150.812C402.752 151.434 401.747 151.435 401.125 150.812C400.503 150.19 400.502 149.185 401.125 148.562C401.436 148.252 401.845 148.093 402.25 148.094ZM468.656 150.625C468.364 150.874 468.052 151.11 467.688 151.281L462.469 153.719C462.104 153.89 461.723 153.997 461.344 154.062L468.094 168.406L475.406 165L468.656 150.625ZM405.938 151.75C406.345 151.752 406.752 151.907 407.062 152.219C407.684 152.842 407.685 153.847 407.062 154.469C406.44 155.091 405.435 155.091 404.812 154.469C404.191 153.846 404.19 152.841 404.812 152.219C405.124 151.908 405.531 151.748 405.938 151.75ZM440.562 152.188C439.678 152.396 439.19 152.524 438.688 152.719C437.781 153.07 436.863 153.503 435.906 153.969C436.036 154.105 436.272 154.376 436.344 154.469C438.316 157.04 441.863 161.638 441.219 165.125C438.015 166.417 434.843 167.755 431.375 168.156C427.754 168.575 423.772 168.021 420.156 167.562C418.752 167.385 417.205 166.885 415.781 167.125C415.011 167.255 414.209 167.58 413.406 167.969C409.751 170.806 406.479 173.762 403.531 176.969C403.04 177.503 402.649 177.92 401.719 178.812C401.631 178.897 401.58 178.922 401.531 178.969C400.683 179.784 400.076 180.411 399.594 180.969C399.738 181.057 400.038 181.21 400.094 181.25C402.969 183.333 407.842 183.958 411.312 183.594C423.768 182.284 434.613 177.533 445.906 172.406C447.816 171.539 449.862 170.758 451.938 170.406C452.333 170.339 454.642 170.443 454.844 170.219C455.598 169.387 452.068 165.419 451.5 164.75C447.967 160.586 443.511 156.781 440.562 152.188ZM401.406 152.875C401.815 152.875 402.22 153.032 402.531 153.344C403.153 153.967 403.154 155.003 402.531 155.625C401.908 156.247 400.903 156.216 400.281 155.594C399.659 154.971 399.658 153.966 400.281 153.344C400.593 153.033 400.998 152.875 401.406 152.875ZM372.719 171.5C372.642 171.571 372.578 171.646 372.5 171.719C371.147 172.983 370.121 174.106 367.938 176.625C364.76 180.291 362.177 184.137 359.375 189.281C354.834 197.62 353.551 202.441 354.469 209.562C358.909 212.167 369.29 212.738 373.219 213.156C373.828 213.136 374.605 213.115 374.906 213.094C375.766 213.031 376.32 212.868 376.75 212.531C376.695 212.149 376.665 211.778 376.625 211.406C377.449 211.661 378.308 211.879 379.156 212.031C381.068 212.373 382.998 212.514 384.938 212.531C386.87 212.548 388.808 212.422 390.719 212.125C392.756 211.809 394.839 211.331 396.562 210.156C398.139 209.082 399.69 207.645 400.656 205.938C401.236 204.913 401.59 203.806 401.625 202.594C401.637 202.173 401.632 201.728 401.562 201.312C401.49 200.876 401.376 200.463 401.188 200.062C400.488 198.576 399.027 197.996 397.5 197.719C396.639 197.562 395.773 197.498 394.906 197.375C394.293 197.288 393.665 197.15 393.094 196.906C392.72 196.747 392.356 196.526 392.031 196.281C390.619 195.215 389.741 193.629 388.875 192.125C388.47 191.421 388.064 190.715 387.594 190.062C388.017 189.802 388.443 189.533 388.875 189.312C389.117 188.328 388.866 187.525 388.062 186.281C387.971 186.14 387.807 185.91 387.594 185.594C387.415 185.406 387.141 185.134 387.031 185C384.482 181.894 377.74 173.391 372.719 171.5ZM447.062 179.906C446.693 179.721 446.22 179.831 445.625 180.344C444.642 181.19 444.732 183.576 444.312 184.719C443.264 187.574 440.665 190.574 438.312 192.438C435.649 194.547 428.675 194.644 427.344 197.062C426.458 198.673 427.702 200.056 428.219 201.625C428.843 203.521 429.159 205.153 429.125 206.844C429.214 207.069 429.264 207.304 429.25 207.562C429.248 207.592 429.283 207.595 429.281 207.625C429.201 209.027 428.649 214.637 428.562 215.906C428.13 222.268 428.684 226.729 430.719 230.031C432.059 230.512 433.63 230.569 434.969 230.938C438.383 231.876 442.188 232.21 445.688 231.375C446.448 231.03 447.523 230.613 448.156 230.25C449.523 229.467 450.608 228.27 452.219 226.062C452.382 225.838 453.514 224.295 453.781 223.938C454.658 222.764 455.352 221.642 456.031 220.5C457.519 217.034 458.137 212.988 457.625 209.281C457.121 205.629 454.528 201.751 451.781 199.375C451.003 198.702 449.973 197.964 449.062 197.125C449.051 197.146 449.011 197.166 449 197.188C448.487 196.603 447.926 195.957 447.406 195.906C447.17 195.883 446.803 196.49 446.656 196.625C446.017 197.211 445.077 197.665 444.312 198.094C444.28 198.112 444.251 198.108 444.219 198.125C445.997 196.115 447.577 192.568 448.031 189.812C448.17 188.471 448.247 187.112 448.312 185.781C448.353 183.579 448.17 180.462 447.062 179.906ZM386.594 190.688C387.196 191.52 387.698 192.421 388.219 193.312C389.195 194.985 390.299 196.672 392 197.688C393.714 198.711 395.8 198.547 397.688 198.969C398.669 199.188 399.644 199.6 400.094 200.562C400.235 200.864 400.322 201.172 400.375 201.5C400.583 202.776 400.299 203.988 399.75 205.062C398.835 206.854 397.152 208.321 395.531 209.375C394.839 209.825 394.005 210.112 393.219 210.344C392.336 210.604 391.441 210.798 390.531 210.938C388.687 211.221 386.834 211.299 384.969 211.281C383.015 211.263 381.046 211.115 379.125 210.75C378.245 210.583 377.377 210.358 376.531 210.062C376.431 208.289 376.498 206.637 376.844 205.031C378.017 199.579 381.906 193.976 386.594 190.688ZM416.969 209.031C415.934 208.782 414.906 209.435 414.656 210.469C414.407 211.503 415.028 212.532 416.062 212.781C417.097 213.03 418.157 212.378 418.406 211.344C418.655 210.309 418.003 209.28 416.969 209.031ZM413.375 210.906C412.341 210.657 411.28 211.278 411.031 212.312C410.782 213.347 411.434 214.376 412.469 214.625C413.503 214.874 414.564 214.253 414.812 213.219C415.061 212.184 414.409 211.155 413.375 210.906ZM409.812 213.625C408.778 213.376 407.717 213.997 407.469 215.031C407.22 216.066 407.872 217.126 408.906 217.375C409.941 217.624 410.97 216.972 411.219 215.938C411.468 214.903 410.847 213.874 409.812 213.625ZM407.219 217.438C406.184 217.189 405.155 217.841 404.906 218.875C404.657 219.909 405.309 220.938 406.344 221.188C407.378 221.436 408.408 220.784 408.656 219.75C408.905 218.716 408.253 217.686 407.219 217.438ZM406.062 221.594C405.028 221.345 403.999 221.997 403.75 223.031C403.501 224.066 404.122 225.095 405.156 225.344C406.191 225.593 407.25 224.972 407.5 223.938C407.749 222.903 407.097 221.843 406.062 221.594ZM405.156 226.031C404.122 225.782 403.093 226.403 402.844 227.438C402.595 228.472 403.247 229.501 404.281 229.75C405.316 229.999 406.345 229.378 406.594 228.344C406.843 227.309 406.191 226.28 405.156 226.031ZM405.719 230.594C404.684 230.345 403.624 230.965 403.375 232C403.126 233.034 403.778 234.095 404.812 234.344C405.847 234.593 406.876 233.941 407.125 232.906C407.374 231.872 406.753 230.843 405.719 230.594ZM407.656 234.656C406.622 234.407 405.562 235.028 405.312 236.062C405.064 237.097 405.715 238.157 406.75 238.406C407.784 238.655 408.813 238.003 409.062 236.969C409.311 235.934 408.691 234.905 407.656 234.656ZM410.031 237.938C408.997 237.689 407.936 238.34 407.688 239.375C407.439 240.409 408.09 241.439 409.125 241.688C410.159 241.936 411.188 241.316 411.438 240.281C411.686 239.247 411.066 238.186 410.031 237.938ZM372.25 240.469C371.318 240.52 370.246 240.673 368.906 240.938C368.634 240.991 366.783 241.356 366.344 241.438C364.904 241.705 363.618 242.058 362.344 242.438C358.9 243.976 355.699 246.522 353.562 249.594C351.457 252.62 350.747 257.235 351.156 260.844C351.272 261.867 351.525 263.141 351.625 264.375C351.648 264.367 351.665 264.351 351.688 264.344C351.668 265.122 351.682 265.985 352.031 266.375C352.19 266.552 352.862 266.374 353.062 266.375C353.93 266.378 354.898 266.671 355.75 266.875C355.786 266.884 355.808 266.896 355.844 266.906C353.174 267.178 349.609 268.719 347.406 270.438C346.394 271.329 345.418 272.253 344.469 273.188C342.438 275.309 339.608 278.925 342.75 279.031C344.046 279.075 345.635 277.243 346.719 276.688C349.426 275.3 353.351 274.869 356.344 275.094C359.732 275.348 364.913 280 367.531 279.125C369.274 278.542 369.316 276.69 370 275.188C370.826 273.371 371.673 271.938 372.844 270.719C372.931 270.493 373.065 270.273 373.25 270.094C373.271 270.073 373.26 270.084 373.281 270.062C374.29 269.087 378.482 265.312 379.406 264.438C384.038 260.054 386.662 256.401 387.406 252.594C386.747 251.331 385.641 250.209 384.906 249.031C383.032 246.026 380.45 243.227 377.312 241.469C376.519 241.207 375.461 240.788 374.75 240.625C373.982 240.449 373.182 240.418 372.25 240.469ZM409.969 257.844C409.486 257.747 408.974 257.861 408.531 258.156C407.647 258.748 407.408 259.928 408 260.812C408.592 261.697 409.772 261.935 410.656 261.344C411.54 260.752 411.779 259.572 411.188 258.688C410.892 258.245 410.452 257.941 409.969 257.844ZM409.469 261.875C408.984 261.779 408.473 261.86 408.031 262.156C407.147 262.748 406.908 263.959 407.5 264.844C408.092 265.728 409.272 265.967 410.156 265.375C411.04 264.783 411.279 263.572 410.688 262.688C410.392 262.245 409.953 261.971 409.469 261.875ZM408.156 266.188C407.673 266.093 407.161 266.173 406.719 266.469C405.835 267.06 405.596 268.24 406.188 269.125C406.779 270.009 407.959 270.279 408.844 269.688C409.728 269.096 409.966 267.884 409.375 267C409.079 266.558 408.639 266.282 408.156 266.188ZM405.438 269.906C404.955 269.809 404.442 269.892 404 270.188C403.116 270.779 402.877 271.99 403.469 272.875C404.06 273.759 405.272 273.998 406.156 273.406C407.04 272.815 407.248 271.603 406.656 270.719C406.36 270.277 405.92 270.004 405.438 269.906ZM401.781 272.562C401.297 272.466 400.786 272.548 400.344 272.844C399.46 273.435 399.221 274.615 399.812 275.5C400.404 276.384 401.616 276.622 402.5 276.031C403.384 275.44 403.623 274.26 403.031 273.375C402.735 272.933 402.266 272.658 401.781 272.562ZM385.25 274.406C384.767 274.309 384.255 274.392 383.812 274.688C382.928 275.279 382.689 276.46 383.281 277.344C383.873 278.228 385.053 278.466 385.938 277.875C386.822 277.283 387.06 276.103 386.469 275.219C386.173 274.777 385.733 274.503 385.25 274.406ZM398.125 274.812C397.641 274.716 397.099 274.798 396.656 275.094C395.772 275.685 395.565 276.898 396.156 277.781C396.748 278.665 397.928 278.904 398.812 278.312C399.697 277.721 399.935 276.51 399.344 275.625C399.048 275.183 398.609 274.909 398.125 274.812ZM389.156 275.469C388.672 275.373 388.161 275.454 387.719 275.75C386.835 276.342 386.596 277.554 387.188 278.438C387.779 279.322 388.96 279.561 389.844 278.969C390.728 278.377 390.966 277.165 390.375 276.281C390.079 275.839 389.641 275.565 389.156 275.469ZM393.625 275.875C393.142 275.78 392.629 275.891 392.188 276.188C391.303 276.779 391.065 277.96 391.656 278.844C392.248 279.728 393.46 279.967 394.344 279.375C395.228 278.783 395.466 277.603 394.875 276.719C394.579 276.277 394.108 275.969 393.625 275.875ZM329.125 280.219C328.007 280.319 327.911 285.623 327.875 286.5C327.649 291.957 328.353 297.781 327.406 303.156C328.198 303.603 328.655 303.834 329.156 304.031C330.061 304.387 331.012 304.694 332.031 305C332.029 304.812 332.021 304.46 332.031 304.344C332.324 301.117 332.851 295.346 335.688 293.219C338.919 294.44 342.178 295.6 345 297.656C347.946 299.803 350.465 302.899 352.812 305.688C353.724 306.77 354.54 308.181 355.75 308.969C356.404 309.395 357.208 309.711 358.062 309.969C362.673 310.361 367.066 310.391 371.406 310.031C372.129 309.971 372.711 309.964 374 309.938C374.122 309.935 374.182 309.939 374.25 309.938C375.426 309.913 376.298 309.864 377.031 309.781C376.985 309.618 376.888 309.285 376.875 309.219C376.174 305.738 372.986 301.991 370.188 299.906C360.144 292.425 348.965 288.544 337.188 284.656C335.196 283.999 333.138 283.179 331.375 282.031C331.039 281.813 329.426 280.191 329.125 280.219ZM396.094 290.219C395.097 290.257 394.121 290.388 393.188 290.688C392.066 291.048 391.035 291.632 390.188 292.5C389.893 292.801 389.607 293.147 389.375 293.5C389.132 293.87 388.946 294.233 388.812 294.656C388.319 296.223 388.972 297.636 389.906 298.875C390.433 299.574 391.041 300.229 391.594 300.906C391.985 301.385 392.37 301.901 392.625 302.469C392.792 302.84 392.897 303.225 392.969 303.625C393.284 305.366 392.822 307.151 392.438 308.844C392.258 309.636 392.128 310.42 392.031 311.219C391.543 311.123 391.03 311.038 390.562 310.906C389.717 311.466 389.377 312.229 389.125 313.688C389.096 313.853 389.058 314.123 389 314.5C389.004 314.759 389.01 315.14 389 315.312C388.768 319.324 387.967 330.143 390.375 334.938C390.48 334.938 390.581 334.938 390.688 334.938C392.539 334.925 394.031 334.809 397.344 334.438C402.165 333.898 406.672 332.789 412.219 330.906C421.21 327.855 425.44 325.201 429.594 319.344C428.095 314.419 420.854 306.971 418.25 304C417.788 303.601 417.174 303.094 416.938 302.906C416.263 302.369 415.763 302.075 415.219 302.031C415 302.35 414.786 302.669 414.562 302.969C414.129 302.223 413.645 301.499 413.125 300.812C411.952 299.265 410.603 297.829 409.188 296.5C407.779 295.177 406.292 293.952 404.688 292.875C402.975 291.726 401.126 290.68 399.062 290.375C398.119 290.235 397.091 290.181 396.094 290.219ZM396.25 291.406C397.289 291.378 398.328 291.494 399.281 291.656C400.095 291.795 400.89 292.137 401.625 292.5C402.45 292.908 403.237 293.36 404 293.875C405.548 294.917 406.985 296.129 408.344 297.406C409.767 298.744 411.117 300.18 412.281 301.75C412.815 302.47 413.297 303.209 413.719 304C412.59 305.371 411.406 306.554 410.062 307.5C405.504 310.712 398.863 312.199 393.188 311.438C393.309 310.417 393.528 309.383 393.75 308.375C394.166 306.484 394.5 304.525 393.938 302.625C393.371 300.711 391.727 299.434 390.625 297.844C390.052 297.017 389.615 296.043 389.938 295.031C390.039 294.714 390.192 294.434 390.375 294.156C391.087 293.078 392.087 292.387 393.219 291.969C394.162 291.621 395.211 291.435 396.25 291.406ZM329.156 314.562C326.214 314.857 323.409 316.203 321.312 318.469L322.531 319.562C325.764 316.067 330.939 315.096 335.25 317.281C340.543 319.965 342.684 326.457 340 331.75C337.317 337.043 330.825 339.152 325.531 336.469C321.177 334.261 318.897 329.399 319.875 324.688L318.281 324.375C317.155 329.805 319.795 335.394 324.812 337.938C330.912 341.03 338.345 338.568 341.438 332.469C344.53 326.369 342.099 318.936 336 315.844C334.758 315.214 333.443 314.812 332.125 314.625C331.136 314.485 330.137 314.464 329.156 314.562ZM318.844 317.344L315.875 319.531L315.969 323L320.844 323.844L322.312 320.969L318.844 317.344ZM368.312 322.688L353.75 323.281C352.223 323.342 351.064 324.629 351.125 326.156L352.312 356.281C352.373 357.808 353.66 359.03 355.188 358.969L369.719 358.375C371.246 358.314 372.436 357.028 372.375 355.5L371.156 325.344C371.096 323.817 369.84 322.627 368.312 322.688ZM353.594 324.188C354.473 324.153 355.216 324.839 355.25 325.719C355.285 326.598 354.598 327.341 353.719 327.375C352.839 327.41 352.097 326.723 352.062 325.844C352.028 324.964 352.715 324.222 353.594 324.188ZM357.688 326.406C358.567 326.371 359.278 327.058 359.312 327.938C359.347 328.817 358.692 329.56 357.812 329.594C356.933 329.629 356.19 328.942 356.156 328.062C356.121 327.183 356.808 326.441 357.688 326.406ZM353.781 329.375C354.661 329.34 355.403 330.027 355.438 330.906C355.472 331.786 354.786 332.528 353.906 332.562C353.027 332.597 352.284 331.91 352.25 331.031C352.215 330.152 352.902 329.409 353.781 329.375ZM391.062 358.969C387.291 359.024 383.363 360.083 380.188 362.062C377.059 364.013 374.58 367.992 373.531 371.469C373.234 372.454 372.957 373.701 372.562 374.875C372.586 374.877 372.601 374.874 372.625 374.875C372.301 375.582 371.99 376.379 372.156 376.875C372.232 377.1 372.91 377.202 373.094 377.281C373.889 377.626 374.671 378.258 375.375 378.781C375.405 378.804 375.44 378.852 375.469 378.875C372.908 378.072 369.014 378.071 366.312 378.781C365.031 379.202 363.773 379.673 362.531 380.156C359.828 381.305 355.811 383.506 358.656 384.844C359.83 385.396 361.973 384.332 363.188 384.25C366.222 384.043 370.026 385.206 372.688 386.594C375.7 388.164 378.624 394.49 381.375 394.719C383.206 394.871 383.967 393.174 385.188 392.062C386.664 390.719 388.006 389.753 389.562 389.094C389.732 388.921 389.946 388.748 390.188 388.656C390.215 388.646 390.191 388.636 390.219 388.625C391.531 388.126 396.9 386.345 398.094 385.906C404.079 383.706 407.908 381.361 410.094 378.156C409.986 376.736 409.397 375.278 409.188 373.906C408.651 370.406 407.409 366.822 405.219 363.969C404.593 363.415 403.778 362.619 403.188 362.188C401.915 361.259 400.36 360.726 397.688 360.156C397.416 360.098 395.56 359.724 395.125 359.625C393.696 359.303 392.383 359.123 391.062 358.969ZM345.656 380.562C344.589 380.214 342.38 385.021 342 385.812C339.64 390.737 337.991 396.404 335 400.969C335.551 401.692 335.898 402.058 336.281 402.438C336.972 403.122 337.715 403.785 338.531 404.469C338.603 404.295 338.757 403.978 338.812 403.875C340.355 401.025 343.117 395.929 346.562 395.094C349.05 397.491 351.562 399.841 353.344 402.844C355.204 405.979 356.318 409.824 357.375 413.312C357.786 414.667 357.949 416.267 358.75 417.469C359.183 418.119 359.817 418.738 360.5 419.312C364.582 421.492 368.62 423.274 372.75 424.656C373.438 424.886 373.962 425.078 375.156 425.562C375.27 425.608 375.344 425.631 375.406 425.656C376.497 426.098 377.295 426.381 378 426.594C378.022 426.426 378.048 426.098 378.062 426.031C378.791 422.556 377.374 417.863 375.625 414.844C369.347 404.007 360.601 396.031 351.312 387.812C349.742 386.423 348.168 384.876 347 383.125C346.778 382.792 345.944 380.656 345.656 380.562ZM427.312 391.594C426.267 391.788 425.587 392.799 425.781 393.844C425.976 394.89 426.986 395.57 428.031 395.375C429.077 395.18 429.757 394.202 429.562 393.156C429.368 392.11 428.358 391.399 427.312 391.594ZM425.281 395.094C424.235 395.288 423.524 396.298 423.719 397.344C423.913 398.39 424.923 399.101 425.969 398.906C427.015 398.712 427.726 397.702 427.531 396.656C427.337 395.61 426.326 394.899 425.281 395.094ZM398.062 397.031C397.017 397.226 396.337 398.235 396.531 399.281C396.726 400.327 397.735 401.039 398.781 400.844C399.827 400.649 400.508 399.64 400.312 398.594C400.118 397.548 399.108 396.836 398.062 397.031ZM422.344 398.531C421.298 398.726 420.618 399.736 420.812 400.781C421.007 401.827 422.017 402.507 423.062 402.312C424.108 402.118 424.788 401.108 424.594 400.062C424.399 399.017 423.389 398.337 422.344 398.531ZM401.25 399.562C400.204 399.757 399.493 400.767 399.688 401.812C399.882 402.858 400.892 403.57 401.938 403.375C402.983 403.18 403.695 402.171 403.5 401.125C403.305 400.079 402.296 399.368 401.25 399.562ZM418.406 400.875C417.36 401.07 416.649 402.08 416.844 403.125C417.038 404.171 418.048 404.882 419.094 404.688C420.14 404.493 420.851 403.483 420.656 402.438C420.462 401.392 419.452 400.68 418.406 400.875ZM405.188 401.719C404.142 401.913 403.462 402.923 403.656 403.969C403.851 405.015 404.861 405.695 405.906 405.5C406.952 405.305 407.633 404.296 407.438 403.25C407.243 402.204 406.233 401.524 405.188 401.719ZM414 401.875C412.954 402.07 412.274 403.079 412.469 404.125C412.663 405.171 413.673 405.851 414.719 405.656C415.765 405.462 416.444 404.452 416.25 403.406C416.055 402.36 415.046 401.68 414 401.875ZM409.719 402.5C408.673 402.695 407.993 403.704 408.188 404.75C408.382 405.796 409.392 406.476 410.438 406.281C411.483 406.087 412.164 405.077 411.969 404.031C411.774 402.985 410.765 402.306 409.719 402.5ZM396.906 415.938C396.517 416.098 396.132 416.299 395.781 416.531C395.412 416.775 395.07 417.039 394.781 417.375C394.626 417.555 394.641 417.777 394.531 417.969C394.746 417.948 394.936 417.845 395.156 417.844C395.745 417.096 396.316 416.605 396.906 415.938Z" fill="#F4F4F4"/>
<path d="M-11.167 564.879C-11.167 564.879 79.2495 584.551 145.294 532.038C211.339 479.525 291.154 410.625 285.762 384.105C280.369 357.585 268.37 353.773 247.653 357.494C226.936 361.214 208.834 451.733 279.593 467.503C350.352 483.273 382.868 457.093 419.027 499.978" stroke="#ED835E" stroke-width="5" stroke-miterlimit="10" stroke-linejoin="round" stroke-dasharray="20 20"/>
</g>
<mask id="mask1_304_6322" style="mask-type:luminance" maskUnits="userSpaceOnUse" x="-8" y="-119" width="390" height="844">
<path d="M382 -119H-8V725H382V-119Z" fill="white"/>
</mask>
<g mask="url(#mask1_304_6322)">
<path d="M207.75 37.8119C206.697 37.9249 205.843 38.2929 205.062 38.7499C204.62 39.5089 203.97 40.0369 203.438 40.6879C202.665 44.0419 199.909 46.9649 195.688 49.5939C192.281 51.7149 188.619 53.1089 185.719 53.5619C185.65 53.5889 185.603 53.6319 185.531 53.6559C185.368 53.7119 185.194 53.7259 185.031 53.7809C178.922 56.5869 172.245 58.2969 165.938 58.3439C157.609 59.8509 149.223 61.1749 141.156 63.5939L154.5 63.1879C153.48 66.1839 152.701 69.2189 152.031 72.3119C147.379 66.8899 139.527 66.2529 134.125 68.6249C133.792 68.9919 133.342 69.4959 133.281 69.5619C131.57 71.4369 130.619 72.4569 129.531 73.5939C126.78 76.4699 124.407 79.1619 119.938 84.4379C119.496 84.9589 119.505 84.9459 119.062 85.4689C112.049 93.7469 108.474 97.7099 103.812 101.969C103.36 102.383 102.856 102.71 102.312 102.906C102.309 102.911 102.285 102.901 102.281 102.906C101.36 104.179 100.48 105.533 99.5308 106.75C93.1428 114.942 87.1371 123.612 79.1248 130.344C75.5867 133.316 71.4849 134.752 67.406 136.344C67.1284 137.289 66.6172 138.169 65.7498 138.781C64.5554 139.625 61.4999 141.389 61.4686 141.406C59.9931 142.228 59.3283 142.611 58.5936 143.094C57.7755 143.631 56.8466 143.759 55.9373 143.719C55.4693 144.089 55.0894 144.574 54.5623 144.875C53.1736 145.668 50.5555 144.794 49.9686 146.281C48.4469 150.137 66.4723 163.588 71.0936 162.906C75.307 162.284 77.4118 158.373 80.531 156.062C87.3658 150.999 94.4148 146.333 101.312 141.344C114.239 131.993 125.811 122.657 136.875 111.031C140.13 107.61 141.812 103.17 145.156 99.6879C146.446 98.3439 147.865 96.6699 149.219 94.8749C147.958 111.857 147.458 129.139 140.656 144.812C137.803 151.386 126.322 166.716 130.094 173.375C142.509 195.293 164.419 199.773 187.188 205.219C202.569 208.898 217.176 213.362 232.875 215.688C238.833 216.57 263.593 218.75 268.031 214C271.447 210.345 269.82 199.527 270.156 194.844C271.362 178.081 270.774 160.883 273.156 144.188C275.929 124.757 280.276 105.041 281.438 85.4999C281.71 80.9099 284.693 68.9349 282.156 64.8749C280.578 62.3489 254.365 57.2169 249.344 54.9999C239.576 50.6869 246.551 43.5409 244.281 40.9689C244.253 40.9369 221.626 39.5529 219.25 39.2189C216.414 38.8199 211.49 37.4139 207.75 37.8119ZM287.594 72.4689L287.844 82.2189C280.976 94.1549 278.348 114.482 286.938 126.656C291.637 133.317 296.554 139.098 299.906 146.844C301.753 151.111 301.603 165.853 302.844 167.188C306.142 170.734 321.411 168.074 323.875 164.25C323.988 164.075 324.002 163.12 324.062 162.562C330.609 151.684 323.767 125.635 319.469 116.562C319.465 116.554 319.473 116.539 319.469 116.531C316.94 108.323 313.613 100.306 310.375 91.4059C309.317 88.4989 309.259 85.2329 307.5 82.5619C303.159 75.9719 294.993 72.4689 287.594 72.4689Z" fill="white"/>
<path d="M278.781 136.031C277.939 135.777 277.036 136.283 276.781 137.125C274.259 145.487 270.025 153.341 269.219 162.156C268.444 170.623 268.352 179.129 268.281 187.625C268.174 200.625 267.931 213.861 264 226.375C262.492 231.176 260.449 235.707 257.938 240.062C257.521 240.784 257.747 241.709 258.469 242.125C259.19 242.541 260.115 242.284 260.531 241.562C263.437 236.524 265.749 231.246 267.375 225.656C271.119 212.783 271.257 199.265 271.406 185.969C271.494 178.116 271.622 170.293 272.344 162.469C273.134 153.899 277.385 146.165 279.844 138.031C280.098 137.189 279.623 136.286 278.781 136.031Z" fill="black"/>
<path d="M191.688 195.281C191.591 196.54 191.753 197.04 191.844 197.312C191.848 197.317 191.873 197.303 191.875 197.312C192.177 198.932 191.867 197.304 192.188 197.219C192.724 197.076 193.049 196.537 192.906 196C192.763 195.463 192.224 195.138 191.688 195.281ZM191.844 197.312C191.802 197.268 191.677 197.376 191.594 197.406C191.435 197.465 191.308 197.582 191.156 197.656C191.181 197.858 191.259 197.984 191.469 197.875C191.937 197.631 191.94 197.602 191.844 197.312ZM191.156 197.656C191.094 197.148 191.454 195.955 191.312 195.375C191.28 195.24 191.037 195.452 190.906 195.5C190.528 195.639 190.161 195.829 189.812 196.031C188.623 196.723 187.632 197.746 187 198.969C185.549 201.776 186.216 205.505 189.781 205.938C192.211 206.232 194.795 205.136 195.75 202.781C195.967 202.246 196.103 201.642 196.031 201.062C195.897 199.984 195.033 199.236 193.938 199.281C193.404 199.303 192.876 199.508 192.406 199.75C192.944 199.61 192.664 201.248 193 201.875C193.071 202.007 193.242 201.695 193.375 201.625C193.546 201.534 193.749 201.457 193.938 201.406C193.895 201.463 193.912 201.626 193.875 201.75C193.437 203.23 191.96 203.829 190.531 203.875C189.527 203.907 188.585 203.54 188.344 202.469C187.996 200.922 188.96 199.204 190.125 198.25C190.434 197.997 190.799 197.831 191.156 197.656ZM192.406 199.75C192.379 199.757 192.376 199.702 192.344 199.719C192.265 199.76 192.33 199.784 192.281 199.812C192.321 199.779 192.341 199.768 192.375 199.75C192.384 199.745 192.397 199.755 192.406 199.75ZM192.281 199.812C192.096 199.966 191.871 200.267 191.844 200.094C191.592 198.512 191.839 200.081 191.281 200.469C190.8 200.804 190.664 201.457 191 201.938C191.336 202.418 192.019 202.555 192.5 202.219C192.366 199.982 191.859 200.06 192.281 199.812Z" fill="black"/>
<path d="M204.5 37.1559C204.119 37.3009 203.774 37.5989 203.594 37.9999C202.829 39.7039 201.962 41.3009 200.812 42.7809C197.075 47.5949 191.523 50.5199 185.875 52.4999C175.645 56.0859 164.78 56.8179 154.219 58.9379C153.402 59.1009 152.868 59.9019 153.031 60.7189C153.195 61.5349 153.996 62.0389 154.812 61.8749C165.518 59.7329 176.521 59.0499 186.906 55.4689C193.152 53.3149 199.188 50.0519 203.312 44.7499C204.618 43.0709 205.627 41.2449 206.5 39.3119C206.861 38.5099 206.521 37.5489 205.719 37.1879C205.318 37.0069 204.881 37.0119 204.5 37.1559Z" fill="black"/>
<path d="M244.344 41.2188C243.527 41.0558 242.725 41.5888 242.562 42.4058C241.939 45.5378 240.765 48.8208 242.344 51.8748C243.064 53.2668 244.469 54.2568 245.781 55.0308C248.117 56.4088 250.705 57.3998 253.25 58.3118C262.733 61.7098 272.636 63.8328 282.469 65.9378C283.329 66.1208 284.16 65.5788 284.344 64.7188C284.527 63.8578 283.985 63.0268 283.125 62.8438C273.426 60.7818 263.651 58.7008 254.281 55.4058C251.913 54.5738 249.516 53.6788 247.344 52.4058C246.572 51.9538 245.457 51.3418 245.031 50.4998C243.864 48.1918 245.034 45.3148 245.5 42.9688C245.663 42.1518 245.161 41.3808 244.344 41.2188Z" fill="black"/>
<path d="M139.531 64.3119C139.147 64.2739 138.76 64.3929 138.438 64.6559C131.067 70.6849 124.367 77.4289 118 84.4999C111.67 91.5299 105.674 98.8489 99.3748 105.906C97.4188 108.098 95.3968 110.245 93.4058 112.406C92.2248 113.689 91.0717 115.012 89.8436 116.25C87.3783 118.735 84.711 121.075 82.156 123.469C77.425 127.901 72.3946 132.049 66.9998 135.656C61.8434 139.104 56.2974 141.992 50.1248 143C49.2567 143.142 48.6698 143.976 48.8123 144.844C48.9548 145.712 49.7567 146.299 50.6248 146.156C57.2509 145.064 63.212 142.02 68.7498 138.312C74.794 134.266 80.3046 129.504 85.5936 124.531C87.7447 122.509 89.9882 120.57 92.0618 118.469C94.1418 116.363 96.0938 114.088 98.0938 111.906C112 96.7369 124.328 80.1069 140.344 66.9999C140.988 66.4729 141.09 65.5199 140.562 64.8749C140.299 64.5529 139.915 64.3509 139.531 64.3119Z" fill="black"/>
<path d="M141.469 99.8748C141.065 99.9288 140.705 100.119 140.438 100.469C136.107 106.135 132.108 112.083 127.5 117.531C125.496 119.901 123.33 122.131 121.094 124.281C107.492 137.364 91.1506 147.183 75.6873 157.844C75.0015 158.316 74.8084 159.252 75.281 159.938C75.7537 160.623 76.689 160.785 77.3748 160.312C92.9788 149.564 109.496 139.725 123.25 126.562C125.57 124.343 127.828 122.043 129.906 119.594C134.557 114.113 138.602 108.11 142.969 102.406C143.503 101.708 143.355 100.722 142.656 100.188C142.307 99.9198 141.873 99.8208 141.469 99.8748Z" fill="black"/>
<path d="M132.883 112.965C137.563 107.422 135.284 87.989 134.088 81.072C133.777 79.275 131.373 74.45 131.935 72.779C132.26 71.81 134.277 70.611 135.028 69.9C137.558 67.508 142.843 62.551 143.894 68.729C144.573 72.721 143.361 77.543 142.995 81.496C142.44 87.485 142.628 94.761 140.968 100.59C139.945 104.183 137.307 107.34 135.537 110.585" fill="black"/>
<path d="M278.719 114.562C278.333 114.552 277.927 114.682 277.625 114.969C277.02 115.541 276.99 116.489 277.562 117.094C282.343 122.147 286.855 127.44 290.562 133.344C294.274 139.254 297.115 145.665 299.031 152.375C299.709 154.749 300.275 157.171 300.75 159.594C301.203 161.901 301.54 164.194 301.188 166.531C301.058 167.401 301.63 168.183 302.5 168.312C303.37 168.442 304.183 167.87 304.312 167C304.785 163.787 304.239 160.649 303.562 157.5C302.99 154.835 302.29 152.194 301.469 149.594C299.481 143.303 296.693 137.287 293.156 131.719C289.314 125.669 284.668 120.225 279.75 115.031C279.464 114.729 279.105 114.573 278.719 114.562Z" fill="black"/>
<path d="M289.031 68.312C288.2 68.362 287.576 69.075 287.625 69.906C287.674 70.738 288.387 71.393 289.219 71.344C291.06 71.235 292.896 71.269 294.688 71.75C302.321 73.798 305.743 82.471 308.281 89.094C308.713 90.221 309.021 91.115 309.438 92.25C314.224 105.302 318.599 118.577 321.375 132.219C323.31 141.728 324.384 151.309 324.812 161C324.852 161.879 325.59 162.57 326.469 162.531C327.348 162.492 328.039 161.754 328 160.875C327.557 151.02 326.457 141.23 324.469 131.562C321.518 117.215 316.865 103.287 311.719 89.594C308.573 81.225 304.514 70.786 294.719 68.656C292.841 68.248 290.942 68.2 289.031 68.312Z" fill="black"/>
<path d="M144.031 124.844C143.153 124.901 142.474 125.653 142.531 126.531C142.872 131.684 141.694 136.783 140 141.625C138.385 146.242 136.285 150.715 133.656 154.844C131.534 158.177 129.009 161.249 127 164.656C126.056 166.257 125.273 167.897 124.594 169.625C124.289 170.4 124.694 171.289 125.469 171.594C126.244 171.898 127.102 171.494 127.406 170.719C129.64 165.034 133.75 160.559 136.906 155.406C139.368 151.388 141.423 147.096 143 142.656C144.862 137.412 146.074 131.931 145.719 126.344C145.662 125.466 144.909 124.787 144.031 124.844Z" fill="black"/>
<path d="M160.759 59.437C159.629 64.072 159.856 70.761 160.879 75.43C161.293 77.318 168.617 83.378 170.406 85.115C182.562 96.914 196.531 108.034 214.34 108.361C224.577 108.549 235.27 108.041 245.067 105.038C247.23 104.375 260.764 100.243 260.077 102.297C258.924 105.747 255.018 109.379 252.834 112.153C249.935 115.834 247.147 119.836 243.286 122.608C236.721 127.321 227.806 128.444 220.036 129.426C206.156 131.18 193.114 131.436 179.297 128.932C172.376 127.678 166.839 125.672 160.711 122.299C152.23 117.631 144.271 114.221 138.958 105.706C135.596 100.318 139.155 99.854 140.421 94.939C142.308 87.617 143.105 79.963 144.451 72.536C144.751 70.877 144.388 63.266 145.916 62.428C149.092 60.687 153.892 60.29 157.411 59.571" fill="black"/>
<path d="M279.492 64.5699C280.833 70.0409 278.506 76.1099 277.099 81.5459C276.547 83.6789 270.432 96.8329 274.367 96.4469C281.541 95.7429 285.714 75.1019 286.139 68.7879C286.25 67.1379 285.893 65.5229 284.153 64.8579C283.001 64.4179 279.296 63.7699 279.492 64.5699Z" fill="black"/>
<path d="M290.697 69.6809C289.53 70.1719 288.484 71.0629 287.594 72.4649C281.525 82.0239 283.899 95.9419 283.357 106.654C283.203 109.694 282.303 112.669 281.933 115.687C281.161 121.991 280.811 121.174 284.9 125.444C285.412 125.98 286.32 127.293 287.213 127.216C287.423 127.198 287.474 126.893 287.56 126.674C287.812 128.102 288.277 129.578 289.139 131.125L290.496 132.474C290.583 132.316 290.643 132.142 290.728 131.982C290.825 129.295 291.06 126.505 291.622 123.316C291.952 121.44 293.883 112.227 294.271 110.269C295.534 103.895 296.13 101.089 297.048 97.4939C299.134 89.3299 301.805 82.9169 305.433 77.5479C302.865 74.3349 299.715 72.6009 293.768 70.8069C293.426 70.7029 293.073 70.5869 292.662 70.4279C292.445 70.3439 291.268 69.8559 291.07 69.7839C290.893 69.7199 290.82 69.7129 290.697 69.6809Z" fill="black"/>
<path d="M271.851 142.053C267.6 141.729 262.635 142.5 258.947 142.349C250.883 142.019 242.874 141.133 234.81 140.788C226.369 140.426 217.909 140.174 209.461 139.825C207.801 139.38 206.178 138.908 204.51 138.465C194.007 135.676 182.392 132.109 171.395 133.995L144.115 132.291C146.757 133.384 149.177 136.204 151.5 137.901C156.164 141.308 161.004 144.527 166.111 147.241C176.806 152.924 187.709 158.418 198.801 163.488C199.555 163.745 200.307 163.946 201.06 164.182C204.345 164.925 207.593 165.618 210.516 166.216C226.742 167.781 244.167 165.911 270.525 160.573C270.615 160.555 270.66 160.525 270.75 160.507C270.747 160.326 270.77 160.226 270.762 160.047C271.426 159.832 272.279 159.647 272.447 159.391C273.782 157.368 272.682 151.771 273.225 149.208C273.559 147.627 274.195 145.931 274.835 144.445C275.084 143.869 276.393 143.054 275.802 142.841C274.616 142.412 273.268 142.161 271.851 142.053Z" fill="black"/>
<path d="M271.661 159.156C271.123 158.581 257.271 161.614 255.545 161.874C239.876 164.24 223.992 165.928 208.177 163.595L199.822 163.458L198.878 163.251C199.066 163.331 199.25 163.378 199.438 163.458H198.633C199.614 163.732 200.559 164.006 201.535 164.283C210.656 167.986 219.439 170.594 228.942 171.889C236.505 173.787 244.132 175.445 252.084 176.432C254.851 176.775 267.431 179.344 269.493 178.359C271.526 177.387 271.959 165.441 271.696 163.251C271.615 162.584 272.012 159.531 271.661 159.156Z" fill="black"/>
<path d="M126.928 157.054C126.642 157.527 126.143 158.353 126.045 158.516C122.589 164.272 120.288 168.407 118.122 172.765C117.564 173.89 117.181 174.915 116.387 177.428C116.346 177.558 116.347 177.567 116.306 177.697C115.098 181.516 114.318 183.455 112.858 185.593C101.928 201.602 88.1207 215.898 67.1142 234.406C60.364 240.353 52.8331 245.324 44.3206 249.749C45.2011 251.543 47.4019 252.841 48.6402 254.165C56.4944 262.559 66.6944 268.95 77.5668 272.954C81.3641 274.352 86.2044 274.706 89.7562 276.647C94.4919 279.234 95.0259 287.779 98.0759 292.241C99.9229 294.943 103.556 296.75 106.32 298.315C116.371 304.01 128.129 308.351 139.532 310.312C143.799 311.046 153.497 308.119 156.714 310.007C159.96 311.912 160.625 316.536 164.691 318.316C180.615 325.287 210.282 332.428 227.648 330.824C234.454 330.195 238.897 325.321 245.197 324.181C247.706 323.727 251.836 325.288 254.488 325.442C263.726 325.979 272.695 326.042 281.85 324.821C284.254 324.5 289.762 324.208 293.274 322.625C293.081 322.413 292.49 321.78 292.478 321.768C291.351 320.536 290.662 319.722 290.008 318.792C282.539 308.171 277.591 296.914 273.59 282.423C269.102 266.173 267.534 248.547 270.292 235.255C270.505 234.231 270.861 233.397 271.294 232.627C271.321 232.474 271.297 232.326 271.343 232.173C273.016 226.651 273.971 221.97 275.763 211.586C276.002 210.206 276.119 209.636 276.249 208.919C246.83 206.767 217.967 201.181 191.587 192.004C188.865 191.057 177.322 187.266 175.661 186.71C158.718 181.043 148.417 176.376 139.054 169.082C135.373 166.214 132.839 163.618 127.44 157.59C127.19 157.312 127.152 157.303 126.928 157.054Z" fill="#AF52DE"/>
<path d="M284.493 61.9258C284.441 62.0878 284.426 62.0378 284.368 62.2228C283.343 65.4488 282.654 67.0588 281.89 69.2138C281.727 69.9688 281.576 70.7928 281.537 70.9658C280.734 74.5718 280.135 76.8598 279.421 79.3038C278.18 83.5508 276.646 86.9158 274.831 89.8988C263.298 96.6138 235.115 111.274 210.802 109.089C183.914 106.671 163.526 84.3548 158.138 77.9368C158.127 77.8778 158.104 77.8498 158.094 77.7868C158.049 77.5098 157.971 77.2388 157.927 76.9378C157.771 75.8698 157.533 73.6628 157.546 73.7358C157.512 73.5388 157.507 73.3498 157.474 73.1538C156.505 68.5018 155.884 63.0958 155.292 55.5288C155.256 55.0658 155.171 54.2888 155.122 53.7178C150.344 54.1008 145.536 54.5158 140.711 55.0578C140.024 62.4718 139.347 68.6548 138.607 78.0648C138.502 79.4058 137 98.8468 136.471 104.981C136.326 106.653 135.817 108.938 134.928 112.711C134.651 113.885 133.178 120.142 132.759 121.929C132.168 124.448 131.886 125.955 131.512 127.826C133.773 129.027 136.411 129.98 136.893 130.154C145.666 135.879 169.507 150.128 199.326 156.312C245.161 165.817 272.944 151.738 281.078 146.777C282.166 146.615 283.134 146.401 283.627 146.064C284.33 145.586 284.951 144.539 285.543 143.35C285.751 142.366 285.964 141.269 286.174 140.261C286.173 140.233 286.188 140.22 286.187 140.192C286.091 138.101 286.105 136.317 286.218 134.324C287.342 114.177 289.926 94.2738 294.73 65.3468C294.76 65.1668 294.928 64.2708 294.967 64.0368C291.47 63.3248 287.782 62.5568 284.493 61.9258Z" fill="#AF52DE"/>
<path d="M135.531 210.406C135.158 210.503 134.805 210.766 134.594 211.125C127.611 223.018 120.245 234.675 112.281 245.938C102.88 259.234 92.7059 271.936 81.8749 284.094C81.29 284.751 81.374 285.759 82.0311 286.344C82.6883 286.929 83.6962 286.845 84.2811 286.188C92.6769 276.748 100.692 267.023 108.219 256.875C118.731 242.702 128.262 227.872 137.188 212.656C137.609 211.938 137.375 210.984 136.656 210.562C136.297 210.352 135.905 210.309 135.531 210.406Z" fill="black"/>
<path d="M168.906 243.031C168.086 242.887 167.332 243.43 167.188 244.25C162.774 269.285 157.557 294.146 151.406 318.812C151.194 319.666 151.709 320.506 152.562 320.719C153.416 320.931 154.288 320.416 154.5 319.562C160.646 294.818 165.741 269.89 170.156 244.781C170.301 243.961 169.727 243.176 168.906 243.031Z" fill="black"/>
<path d="M236.125 264.156C235.295 264.226 234.68 264.951 234.75 265.781C235.476 274.45 238.42 282.638 240.719 290.969C242.835 298.639 244.846 306.346 247.531 313.844C249.383 319.015 251.574 324.028 254.031 328.938C254.425 329.724 255.401 330.019 256.188 329.625C256.974 329.231 257.3 328.287 256.906 327.5C254.022 321.753 251.536 315.872 249.469 309.781C247.157 302.969 245.359 296.003 243.375 289.094C241.143 281.323 238.463 273.639 237.781 265.531C237.712 264.701 236.955 264.087 236.125 264.156Z" fill="black"/>
<path d="M198.812 122.656C198.437 122.565 198.012 122.627 197.656 122.844C196.945 123.278 196.722 124.195 197.156 124.906C198.867 127.712 199.899 130.758 201.156 133.781C201.43 134.441 201.836 135.103 202.062 135.781C202.191 136.166 202.285 136.66 202.562 136.969C202.793 137.226 203.03 137.511 203.344 137.656C203.631 137.789 203.965 137.791 204.281 137.781C205.357 137.748 206.432 136.415 207.094 135.75C210.037 132.794 212.733 129.588 215.5 126.469C216.083 125.81 216.034 124.802 215.375 124.219C214.716 123.636 213.708 123.716 213.125 124.375C211.746 125.938 210.384 127.504 209 129.062C207.793 130.422 206.566 131.776 205.312 133.094C205.063 133.356 204.818 133.619 204.562 133.875C204.497 133.744 204.425 133.578 204.375 133.469C203.966 132.58 203.617 131.688 203.25 130.781C202.21 128.214 201.166 125.714 199.719 123.344C199.502 122.988 199.188 122.747 198.812 122.656Z" fill="black"/>
<path d="M176.031 218.562C175.666 218.688 175.339 218.938 175.156 219.312C174.791 220.061 175.127 220.978 175.875 221.344C189.162 227.838 203.118 232.732 217.5 236.188C234.427 240.254 251.694 242.388 269 244.031C269.876 244.114 270.667 243.47 270.75 242.594C270.833 241.718 270.188 240.927 269.312 240.844C250.858 239.105 232.396 236.848 214.406 232.25C201.555 228.965 189.102 224.443 177.188 218.625C176.813 218.442 176.396 218.437 176.031 218.562Z" fill="black"/>
<path d="M196.594 187.344C196.611 187.135 196.177 187.351 195.969 187.375C195.377 187.443 194.783 187.643 194.25 187.906C192.763 188.641 191.611 190.082 191.281 191.719C190.999 193.117 191.393 194.541 192.438 195.531C192.594 195.68 192.761 195.813 192.938 195.938C193.122 196.067 193.4 196.515 193.5 196.312C194.915 193.436 193.515 196.291 194.062 196.531C194.871 196.877 195.81 196.528 196.156 195.719C196.502 194.91 196.121 193.971 195.312 193.625C196.112 192.02 196.192 192.647 196.125 192C196.061 191.382 195.38 193.033 194.938 193.469C194.908 193.498 194.648 193.24 194.625 193.219C194.309 192.929 194.293 192.484 194.406 192.094C194.59 191.458 195.04 190.899 195.625 190.594C195.643 190.584 195.77 190.571 195.875 190.531C195.632 190.99 195.578 191.09 195.594 191.969C195.609 192.84 195.87 191.825 196.125 190.469C196.338 190.404 196.586 190.301 196.562 190.375C196.217 191.48 196.555 190.377 196.906 190.406C197.737 190.47 198.468 189.831 198.531 189C198.595 188.17 197.987 187.47 197.156 187.406C196.643 188.928 196.482 189.16 196.25 189.656C196.393 188.806 196.552 187.862 196.594 187.344Z" fill="black"/>
</g>
</g>
<defs>
<clipPath id="clip0_304_6322">
<rect width="372" height="372" fill="white" transform="translate(0.5)"/>
</clipPath>
</defs>
</svg>
