<svg width="264" height="119" viewBox="0 0 264 119" fill="none" xmlns="http://www.w3.org/2000/svg">
<path d="M64.8481 36.8911C57.1562 36.8911 50.9192 43.127 50.9192 50.8186C50.9192 53.2722 51.5595 55.5684 52.6742 57.5707C52.1454 58.1881 51.6138 58.8083 51.0993 59.4572C46.0599 65.8028 42.3212 72.8676 40.4546 80.5898C38.4852 88.7413 39.0826 96.6156 41.8495 103.773C44.2048 109.855 48.0579 115.177 52.577 119L57.1819 113.555C53.5603 110.492 50.4132 106.146 48.4981 101.195C46.2457 95.3702 45.7627 88.9763 47.3862 82.2611C48.9869 75.6325 52.2483 69.4775 56.6845 63.8917C57.0018 63.4907 57.3334 63.1133 57.6564 62.7255C59.7573 63.9963 62.2126 64.746 64.8481 64.746C72.54 64.746 78.7741 58.5099 78.7741 50.8186C78.7741 43.127 72.54 36.8911 64.8481 36.8911Z" fill="#FF5900"/>
<path d="M61.8663 72.6697C61.8663 72.6697 62.3923 104.556 80.14 97.2918C100.855 88.8132 95.1179 76.9321 83.1584 68.8846C71.2018 60.8371 104.05 88.5403 109.89 70.2743C116.704 48.9545 86.3169 49.3393 86.3169 49.3393C86.3169 49.3393 118.145 47.3678 110.084 29.968C100.675 9.65892 86.2712 20.2752 78.7737 32.586C71.279 44.897 95.8325 6.08446 76.8471 3.39283C47.3086 -0.79467 59.0366 29.8768 59.0366 29.8768C59.0366 29.8768 52.0135 -2.23552 37.1956 9.93596C19.8996 24.1426 30.3898 36.0126 44.1901 40.1787C57.9875 44.3448 17.8272 24.6934 15.1547 43.6825C12.0333 65.8467 29.8925 64.7485 42.8724 58.4781" stroke="#FF5900" stroke-width="5" stroke-miterlimit="10" stroke-linejoin="round"/>
<path d="M2.16057 65.1348C2.16057 65.1348 -3.57619 79.4353 6.99411 92.4949C18.2247 106.37 29.4553 99.2244 33.3255 96.023C32.0907 93.263 29.4067 88.2511 24.9476 85.5991C18.6563 81.8549 11.8162 80.4271 11.8162 80.4271C11.8162 80.4271 21.4975 81.068 26.5026 84.3751C31.5419 87.7063 34.0944 90.298 35.3721 91.7892C35.8838 87.5188 35.6237 79.5224 27.4058 75.148C15.878 69.0119 9.36942 73.669 2.16057 65.1348Z" fill="#FF5900"/>
<path d="M129.803 62.44C129.803 63.304 129.387 63.72 128.523 63.72H126.603C125.739 63.72 125.323 63.304 125.323 62.44V41.64C125.323 40.776 125.739 40.36 126.603 40.36H128.523C129.387 40.36 129.803 40.776 129.803 41.64V42.824C130.923 41.64 132.523 41 134.283 41C137.995 41 141.035 44.232 141.035 49.192C141.035 54.216 137.515 57.384 133.003 57.384C131.915 57.384 130.859 57.256 129.803 57V62.44ZM133.003 52.776C135.051 52.776 136.555 51.592 136.555 49.192C136.555 47.112 135.307 45.64 133.355 45.64C131.115 45.64 129.803 47.176 129.803 49.896V52.296C130.763 52.616 131.787 52.776 133.003 52.776ZM147.216 55.72C147.216 56.584 146.8 57 145.936 57H144.016C143.152 57 142.736 56.584 142.736 55.72V40.68C142.736 39.816 143.152 39.4 144.016 39.4H145.936C146.8 39.4 147.216 39.816 147.216 40.68V43.336C148.272 41.608 149.904 40.616 151.408 40.616C152.112 40.616 152.848 40.776 153.264 41.032C153.52 41.192 153.584 41.416 153.552 41.64L153.232 45.32C153.2 45.8 152.912 45.96 152.368 45.832C151.472 45.64 150.864 45.576 150.32 45.576C148.56 45.576 147.216 46.92 147.216 49.512V55.72ZM157.138 39.432C155.666 39.432 154.418 38.184 154.418 36.68C154.418 35.208 155.666 33.96 157.138 33.96C158.61 33.96 159.858 35.208 159.858 36.68C159.858 38.184 158.61 39.432 157.138 39.432ZM159.378 55.72C159.378 56.584 158.962 57 158.098 57H156.178C155.314 57 154.898 56.584 154.898 55.72V42.92C154.898 42.056 155.314 41.64 156.178 41.64H158.098C158.962 41.64 159.378 42.056 159.378 42.92V55.72ZM176.305 56.36C176.305 57.224 175.889 57.64 175.025 57.64H173.105C172.241 57.64 171.825 57.224 171.825 56.36V48.712C171.825 46.344 170.897 45.224 169.361 45.224C167.249 45.224 166.353 46.536 166.353 49.512V55.72C166.353 56.584 165.937 57 165.073 57H163.153C162.289 57 161.873 56.584 161.873 55.72V41C161.873 40.136 162.289 39.72 163.153 39.72H165.073C165.937 39.72 166.353 40.136 166.353 41V43.24C167.441 41.48 169.169 40.616 170.897 40.616C173.105 40.616 174.929 41.64 175.793 43.944C176.913 41.928 178.833 41 180.849 41C183.953 41 186.257 43.016 186.257 47.656V55.72C186.257 56.584 185.841 57 184.977 57H183.057C182.193 57 181.777 56.584 181.777 55.72V49.096C181.777 46.728 180.849 45.608 179.313 45.608C177.201 45.608 176.305 46.92 176.305 49.896V56.36ZM201.176 57.96H198.616C197.976 57.96 197.656 57.64 197.656 57V55.624C196.664 56.584 195.16 57.224 193.752 57.352C193.56 57.384 193.368 57.384 193.208 57.384C189.912 57.384 187.64 55.112 187.64 52.104C187.64 49.32 189.4 46.888 193.848 46.888C195.064 46.888 196.44 47.208 197.656 47.72C197.624 47.496 197.592 47.304 197.56 47.112C197.208 45.576 196.056 44.776 194.328 44.776C193.144 44.776 191.8 45.224 190.552 45.992C190.072 46.28 189.688 46.024 189.368 45.416L188.92 44.488L188.44 43.56C188.344 43.368 188.28 43.208 188.216 43.048C188.152 42.728 188.216 42.472 188.568 42.216C190.072 41.032 192.408 40.296 194.84 40.296C199.32 40.296 202.136 43.08 202.136 47.624V57C202.136 57.224 202.104 57.384 202.04 57.544C201.88 57.832 201.592 57.96 201.176 57.96ZM194.328 53.384C195.64 53.384 197.112 52.872 197.528 51.912C197.624 51.72 197.656 51.528 197.656 51.336V51.208C196.568 50.792 195.352 50.568 194.328 50.568C192.856 50.568 192.12 51.048 192.12 51.976C192.12 52.872 193.144 53.384 194.328 53.384ZM213.058 57H210.626C209.826 57 209.666 56.84 209.154 55.784L203.266 43.592C202.754 42.504 203.01 42.312 204.13 41.832L205.634 41.192C206.69 40.744 206.978 41.16 207.554 42.44L211.362 50.728L214.338 41.32C214.754 40.04 215.17 39.752 216.226 40.072L218.05 40.616C219.17 40.936 219.266 41.288 218.914 42.376L214.53 55.784C214.178 56.84 213.858 57 213.058 57ZM227.82 57.384C222.732 57.384 219.436 53.96 219.436 49C219.436 44.424 222.156 40.616 227.468 40.616C231.596 40.616 234.38 43.4 234.38 47.848C234.38 49.128 234.252 49.672 233.132 49.8L224.204 50.824C224.844 52.232 226.252 53.224 228.428 53.224C229.644 53.224 231.02 52.488 232.108 51.88C232.588 51.592 233.068 51.848 233.292 52.456L233.932 54.12C234.156 54.728 234.316 55.048 233.804 55.464C232.236 56.712 229.868 57.384 227.82 57.384ZM227.148 44.776C225.484 44.776 224.396 45.512 224.012 47.368L229.772 46.696C229.484 45.544 228.524 44.776 227.148 44.776ZM240.409 55.72C240.409 56.584 239.993 57 239.129 57H237.209C236.345 57 235.929 56.584 235.929 55.72V40.68C235.929 39.816 236.345 39.4 237.209 39.4H239.129C239.993 39.4 240.409 39.816 240.409 40.68V43.336C241.465 41.608 243.097 40.616 244.601 40.616C245.305 40.616 246.041 40.776 246.457 41.032C246.713 41.192 246.777 41.416 246.745 41.64L246.425 45.32C246.393 45.8 246.105 45.96 245.561 45.832C244.665 45.64 244.057 45.576 243.513 45.576C241.753 45.576 240.409 46.92 240.409 49.512V55.72ZM260.764 57.96H258.204C257.564 57.96 257.244 57.64 257.244 57V55.624C256.252 56.584 254.748 57.224 253.34 57.352C253.148 57.384 252.956 57.384 252.796 57.384C249.5 57.384 247.228 55.112 247.228 52.104C247.228 49.32 248.988 46.888 253.436 46.888C254.652 46.888 256.028 47.208 257.244 47.72C257.212 47.496 257.18 47.304 257.148 47.112C256.796 45.576 255.644 44.776 253.916 44.776C252.732 44.776 251.388 45.224 250.14 45.992C249.66 46.28 249.276 46.024 248.956 45.416L248.508 44.488L248.028 43.56C247.932 43.368 247.868 43.208 247.804 43.048C247.74 42.728 247.804 42.472 248.156 42.216C249.66 41.032 251.996 40.296 254.428 40.296C258.908 40.296 261.724 43.08 261.724 47.624V57C261.724 57.224 261.692 57.384 261.628 57.544C261.468 57.832 261.18 57.96 260.764 57.96ZM253.916 53.384C255.228 53.384 256.7 52.872 257.116 51.912C257.212 51.72 257.244 51.528 257.244 51.336V51.208C256.156 50.792 254.94 50.568 253.916 50.568C252.444 50.568 251.708 51.048 251.708 51.976C251.708 52.872 252.732 53.384 253.916 53.384Z" fill="black"/>
<path d="M126.842 68.152C125.626 68.152 124.762 67.256 124.762 66.04C124.762 64.856 125.658 63.96 126.842 63.96C128.026 63.96 128.922 64.856 128.922 66.04C128.922 67.256 128.058 68.152 126.842 68.152ZM128.122 86.04C128.122 86.68 127.802 87 127.162 87H126.522C125.882 87 125.562 86.68 125.562 86.04V72.6C125.562 71.96 125.882 71.64 126.522 71.64H127.162C127.802 71.64 128.122 71.96 128.122 72.6V86.04ZM134.411 86.36C134.411 87 134.091 87.32 133.451 87.32H132.811C132.171 87.32 131.851 87 131.851 86.36V71.32C131.851 70.68 132.171 70.36 132.811 70.36H133.451C134.091 70.36 134.411 70.68 134.411 71.32V73.592C135.691 71.992 137.611 71 139.595 71C142.635 71 144.843 72.792 144.843 76.952V86.04C144.843 86.68 144.523 87 143.883 87H143.243C142.603 87 142.283 86.68 142.283 86.04V78.072C142.283 75.128 140.907 73.72 138.699 73.72C136.459 73.72 134.411 75.672 134.411 78.232V86.36ZM159.332 86.648C158.5 87.192 157.092 87.64 155.684 87.64C152.516 87.64 150.596 85.848 150.596 81.752V74.808L148.004 74.712C147.556 74.712 147.428 74.456 147.428 74.04V72.76C147.428 72.344 147.748 71.992 148.196 71.992L150.596 72.056V68.12C150.596 67.704 150.82 67.48 151.236 67.48H152.516C152.932 67.48 153.156 67.704 153.156 68.12V72.152L158.084 72.312C158.532 72.312 158.66 72.568 158.66 72.984V74.264C158.66 74.68 158.34 75.032 157.892 75.032L153.156 74.872V80.984C153.156 84.024 153.892 84.952 155.62 84.952C156.516 84.952 157.732 84.536 158.244 84.28C158.5 84.152 158.724 84.184 158.852 84.472L159.524 85.944C159.652 86.232 159.556 86.488 159.332 86.648ZM168.565 87.32C163.701 87.32 160.533 84.088 160.533 79.32C160.533 74.968 163.157 71 167.765 71C171.253 71 174.197 73.592 174.197 78.456C174.197 79.096 174.101 79.32 173.525 79.384L163.221 80.568C163.669 82.872 165.493 84.568 168.565 84.568C170.133 84.568 171.829 84.12 172.789 83.608C173.077 83.48 173.269 83.576 173.365 83.832L173.909 85.24C174.037 85.56 174.005 85.784 173.717 85.976C172.693 86.712 170.485 87.32 168.565 87.32ZM167.605 73.72C165.269 73.72 163.605 75.288 163.189 78.008L171.413 77.048C171.157 75.096 169.621 73.72 167.605 73.72ZM179.586 86.36C179.586 87 179.266 87.32 178.626 87.32H177.986C177.346 87.32 177.026 87 177.026 86.36V71.32C177.026 70.68 177.346 70.36 177.986 70.36H178.626C179.266 70.36 179.586 70.68 179.586 71.32V73.592C180.866 71.992 182.786 71 184.77 71C187.81 71 190.018 72.792 190.018 76.952V86.04C190.018 86.68 189.698 87 189.058 87H188.418C187.778 87 187.458 86.68 187.458 86.04V78.072C187.458 75.128 186.082 73.72 183.874 73.72C181.634 73.72 179.586 75.672 179.586 78.232V86.36ZM192.987 75.544C192.987 72.92 194.747 71 198.459 71C199.835 71 201.947 71.48 202.939 72.12C203.195 72.28 203.291 72.536 203.163 72.824L202.459 74.264C202.331 74.52 202.075 74.616 201.819 74.52C200.667 74.04 199.355 73.72 198.267 73.72C196.475 73.72 195.547 74.392 195.547 75.544C195.547 78.616 203.835 77.528 203.835 82.936C203.835 85.624 201.691 87.32 198.043 87.32C196.475 87.32 194.171 86.68 192.923 85.88C192.667 85.72 192.571 85.464 192.699 85.176L193.403 83.736C193.531 83.448 193.755 83.384 194.011 83.512C195.483 84.248 196.987 84.6 198.235 84.6C200.251 84.6 201.275 83.992 201.275 82.936C201.275 79.864 192.987 80.952 192.987 75.544ZM217.798 87.64H216.518C216.102 87.64 215.878 87.416 215.878 87V85.656C214.822 86.68 213.19 87.32 211.43 87.32C211.206 87.32 210.982 87.32 210.79 87.288C207.846 87.032 205.862 84.888 205.862 82.104C205.862 79.48 207.43 77.208 211.43 77.208C212.87 77.208 214.502 77.464 215.878 78.04V77.752C215.878 74.872 214.278 73.4 211.59 73.4C210.342 73.4 208.902 73.848 207.654 74.616C207.398 74.776 207.174 74.68 207.046 74.424L206.566 73.464C206.502 73.304 206.406 73.144 206.342 72.984C206.214 72.696 206.31 72.44 206.534 72.28C207.846 71.384 209.862 70.68 212.102 70.68C216.006 70.68 218.438 73.016 218.438 77.624V87C218.438 87.416 218.214 87.64 217.798 87.64ZM211.59 84.6C213.894 84.6 215.878 83.32 215.878 81.912V80.568C214.534 80.056 212.902 79.768 211.59 79.768C209.478 79.768 208.422 80.632 208.422 81.976C208.422 83.64 209.894 84.6 211.59 84.6Z" fill="black"/>
</svg>
