<svg width="208" height="122" viewBox="0 0 208 122" fill="none" xmlns="http://www.w3.org/2000/svg">
<path d="M19.1087 102.527C19.1087 102.527 34.5411 87.1021 29.6315 73.5309C24.7218 59.9594 2.49951 61.0192 2.49951 61.0192V60.9806C2.49951 60.9806 24.7218 62.0404 29.6315 48.4692C34.5411 34.8977 19.1087 19.4728 19.1087 19.4728L18.9734 19.61C18.9734 19.61 34.3984 35.0417 47.9681 30.1323C61.5404 25.2226 60.4813 3 60.4813 3H60.5189C60.5189 3 59.4598 25.2226 73.0296 30.1323C86.6018 35.0417 102.027 19.61 102.027 19.61L101.889 19.4728C101.889 19.4728 86.4591 34.8977 91.3662 48.4692C96.2759 62.0404 118.501 60.9806 118.501 60.9806V61.0192C118.501 61.0192 96.2759 59.9594 91.3662 73.5309C86.4591 87.1021 101.889 102.527 101.889 102.527L102.027 102.39C102.027 102.39 86.6018 86.9584 73.0296 91.8678C59.4598 96.7772 60.5189 119 60.5189 119H60.4813C60.4813 119 61.5404 96.7772 47.9681 91.8678C34.3984 86.9584 18.9734 102.39 18.9734 102.39" stroke="#FF5900" stroke-width="5" stroke-miterlimit="10" stroke-linejoin="round"/>
<path d="M37.125 61.096C37.125 48.3307 47.4751 37.9822 60.2411 37.9822C73.0047 37.9822 83.3547 48.3307 83.3547 61.096C83.3547 73.8616 73.0047 84.2101 60.2411 84.2101C47.4751 84.2101 37.125 73.8616 37.125 61.096Z" stroke="#FF5900" stroke-width="5" stroke-miterlimit="10" stroke-linejoin="round"/>
<path d="M140.648 57H138.216C137.416 57 137.256 56.84 136.744 55.784L130.856 43.592C130.344 42.504 130.6 42.312 131.72 41.832L133.224 41.192C134.28 40.744 134.568 41.16 135.144 42.44L138.952 50.728L141.928 41.32C142.344 40.04 142.76 39.752 143.816 40.072L145.64 40.616C146.76 40.936 146.856 41.288 146.504 42.376L142.12 55.784C141.768 56.84 141.448 57 140.648 57ZM155.41 57.384C150.322 57.384 147.026 53.96 147.026 49C147.026 44.424 149.746 40.616 155.058 40.616C159.186 40.616 161.97 43.4 161.97 47.848C161.97 49.128 161.842 49.672 160.722 49.8L151.794 50.824C152.434 52.232 153.842 53.224 156.018 53.224C157.234 53.224 158.61 52.488 159.698 51.88C160.178 51.592 160.658 51.848 160.882 52.456L161.522 54.12C161.746 54.728 161.906 55.048 161.394 55.464C159.826 56.712 157.458 57.384 155.41 57.384ZM154.738 44.776C153.074 44.776 151.986 45.512 151.602 47.368L157.362 46.696C157.074 45.544 156.114 44.776 154.738 44.776ZM167.999 55.72C167.999 56.584 167.583 57 166.719 57H164.799C163.935 57 163.519 56.584 163.519 55.72V40.68C163.519 39.816 163.935 39.4 164.799 39.4H166.719C167.583 39.4 167.999 39.816 167.999 40.68V43.336C169.055 41.608 170.687 40.616 172.191 40.616C172.895 40.616 173.631 40.776 174.047 41.032C174.303 41.192 174.367 41.416 174.335 41.64L174.015 45.32C173.983 45.8 173.695 45.96 173.151 45.832C172.255 45.64 171.647 45.576 171.103 45.576C169.343 45.576 167.999 46.92 167.999 49.512V55.72ZM184.226 38.824C183.01 38.824 181.954 38.248 180.738 38.248C180.066 38.248 179.234 38.472 178.626 38.696C177.858 38.984 177.378 38.76 177.378 37.928V36.36C177.378 35.72 177.57 35.272 178.338 34.984C179.106 34.696 179.81 34.568 180.514 34.568C181.858 34.568 182.85 35.144 184.002 35.144C184.674 35.144 185.506 34.92 186.114 34.696C186.882 34.408 187.362 34.632 187.362 35.464V37.032C187.362 37.672 187.17 38.12 186.402 38.408C185.634 38.696 184.93 38.824 184.226 38.824ZM188.354 57.96H185.794C185.154 57.96 184.834 57.64 184.834 57V55.624C183.842 56.584 182.338 57.224 180.93 57.352C180.738 57.384 180.546 57.384 180.386 57.384C177.09 57.384 174.818 55.112 174.818 52.104C174.818 49.32 176.578 46.888 181.026 46.888C182.242 46.888 183.618 47.208 184.834 47.72C184.802 47.496 184.77 47.304 184.738 47.112C184.386 45.576 183.234 44.776 181.506 44.776C180.322 44.776 178.978 45.224 177.73 45.992C177.25 46.28 176.866 46.024 176.546 45.416L176.098 44.488L175.618 43.56C175.522 43.368 175.458 43.208 175.394 43.048C175.33 42.728 175.394 42.472 175.746 42.216C177.25 41.032 179.586 40.296 182.018 40.296C186.498 40.296 189.314 43.08 189.314 47.624V57C189.314 57.224 189.282 57.384 189.218 57.544C189.058 57.832 188.77 57.96 188.354 57.96ZM181.506 53.384C182.818 53.384 184.29 52.872 184.706 51.912C184.802 51.72 184.834 51.528 184.834 51.336V51.208C183.746 50.792 182.53 50.568 181.506 50.568C180.034 50.568 179.298 51.048 179.298 51.976C179.298 52.872 180.322 53.384 181.506 53.384ZM198.796 57.384C193.804 57.384 190.764 53.8 190.764 49C190.764 44.2 193.804 40.616 198.796 40.616C203.788 40.616 206.828 44.2 206.828 49C206.828 53.8 203.788 57.384 198.796 57.384ZM198.796 52.744C200.748 52.744 202.348 51.72 202.348 49C202.348 46.28 200.748 45.256 198.796 45.256C196.844 45.256 195.244 46.28 195.244 49C195.244 51.72 196.844 52.744 198.796 52.744Z" fill="black"/>
<path d="M132.242 75.544C132.242 72.92 134.002 71 137.714 71C139.09 71 141.202 71.48 142.194 72.12C142.45 72.28 142.546 72.536 142.418 72.824L141.714 74.264C141.586 74.52 141.33 74.616 141.074 74.52C139.922 74.04 138.61 73.72 137.522 73.72C135.73 73.72 134.802 74.392 134.802 75.544C134.802 78.616 143.09 77.528 143.09 82.936C143.09 85.624 140.946 87.32 137.298 87.32C135.73 87.32 133.426 86.68 132.178 85.88C131.922 85.72 131.826 85.464 131.954 85.176L132.658 83.736C132.786 83.448 133.01 83.384 133.266 83.512C134.738 84.248 136.242 84.6 137.49 84.6C139.506 84.6 140.53 83.992 140.53 82.936C140.53 79.864 132.242 80.952 132.242 75.544ZM156.189 86.04V84.728C154.909 86.328 152.989 87.32 151.005 87.32C147.965 87.32 145.757 85.528 145.757 81.368V72.28C145.757 71.64 146.077 71.32 146.717 71.32H147.357C147.997 71.32 148.317 71.64 148.317 72.28V80.248C148.317 83.192 149.693 84.6 151.901 84.6C154.141 84.6 156.189 82.648 156.189 80.088V71.32C156.189 70.68 156.509 70.36 157.149 70.36H157.789C158.429 70.36 158.749 70.68 158.749 71.32V86.04C158.749 86.68 158.429 87 157.789 87H157.149C156.509 87 156.189 86.68 156.189 86.04ZM173.59 87.64H172.31C171.894 87.64 171.67 87.416 171.67 87V85.656C170.614 86.68 168.982 87.32 167.222 87.32C166.998 87.32 166.774 87.32 166.582 87.288C163.638 87.032 161.654 84.888 161.654 82.104C161.654 79.48 163.222 77.208 167.222 77.208C168.662 77.208 170.294 77.464 171.67 78.04V77.752C171.67 74.872 170.07 73.4 167.382 73.4C166.134 73.4 164.694 73.848 163.446 74.616C163.19 74.776 162.966 74.68 162.838 74.424L162.358 73.464C162.294 73.304 162.198 73.144 162.134 72.984C162.006 72.696 162.102 72.44 162.326 72.28C163.638 71.384 165.654 70.68 167.894 70.68C171.798 70.68 174.23 73.016 174.23 77.624V87C174.23 87.416 174.006 87.64 173.59 87.64ZM167.382 84.6C169.686 84.6 171.67 83.32 171.67 81.912V80.568C170.326 80.056 168.694 79.768 167.382 79.768C165.27 79.768 164.214 80.632 164.214 81.976C164.214 83.64 165.686 84.6 167.382 84.6ZM184.92 87H183.096C182.776 86.968 182.648 86.84 182.488 86.552L176.088 72.664C175.992 72.44 176.056 72.184 176.312 72.056L177.752 71.384C177.976 71.288 178.264 71.352 178.392 71.608L183.768 83.384L187.672 71C187.768 70.744 188.024 70.648 188.28 70.712L189.944 71.224C190.2 71.288 190.328 71.576 190.232 71.832L185.56 86.552C185.464 86.84 185.24 87 184.92 87ZM199.482 87.32C194.618 87.32 191.45 84.088 191.45 79.32C191.45 74.968 194.074 71 198.682 71C202.17 71 205.114 73.592 205.114 78.456C205.114 79.096 205.018 79.32 204.442 79.384L194.138 80.568C194.586 82.872 196.41 84.568 199.482 84.568C201.05 84.568 202.746 84.12 203.706 83.608C203.994 83.48 204.186 83.576 204.282 83.832L204.826 85.24C204.954 85.56 204.922 85.784 204.634 85.976C203.61 86.712 201.402 87.32 199.482 87.32ZM198.522 73.72C196.186 73.72 194.522 75.288 194.106 78.008L202.33 77.048C202.074 75.096 200.538 73.72 198.522 73.72Z" fill="black"/>
</svg>
