<svg width="635" height="515" viewBox="0 0 635 515" fill="none" xmlns="http://www.w3.org/2000/svg">
<path d="M462.185 13.8843C471.065 38.7593 479.304 56.1733 475.834 86.9923C472.804 113.926 449.515 134.426 436.705 176.935C436.345 178.149 426.394 201.73 424.814 207.017C419.314 206.449 406.104 206.259 375.564 186.358C342.064 164.527 319.485 123.552 319.385 123.367C337.455 123.277 352.094 108.532 352.094 90.3053C352.094 77.8503 345.174 67.1143 335.084 61.4633L462.185 13.8843Z" fill="#FF5900"/>
<path d="M453.115 18.1902L493.715 0.093154C493.715 0.093154 502.424 -0.91184 508.814 3.68016C515.214 8.27316 519.294 18.4632 519.294 18.4632L629.465 259.071C629.465 259.071 637.345 273.183 628.865 284.619C620.385 296.056 585.205 320.624 557.695 325.603C530.175 330.582 469.695 291.147 469.695 291.147L453.115 18.1902Z" fill="#FF5900"/>
<path d="M209.044 201.335C209.044 201.335 263.275 208.724 316.905 208.607C370.535 208.489 423.784 202.7 423.784 202.7L422.824 245.007C422.824 245.007 371.835 257.896 316.905 258.69C261.975 259.483 209.215 243.426 209.215 243.426L209.044 201.335Z" fill="#FF5900"/>
<path d="M172.594 13.8843C163.714 38.7593 155.484 56.1733 158.944 86.9923C161.974 113.926 185.274 134.426 198.074 176.935C198.444 178.149 208.384 201.73 209.974 207.017C215.464 206.449 228.674 206.259 259.214 186.358C292.724 164.527 315.294 123.552 315.394 123.367C297.324 123.277 282.684 108.532 282.684 90.3053C282.684 77.8503 289.614 67.1143 299.694 61.4633L172.594 13.8843Z" fill="#FF5900"/>
<path d="M319.385 48.7952C296.405 48.7952 277.784 67.4182 277.784 90.3952C277.784 113.372 296.405 131.994 319.385 131.994C342.365 131.994 360.985 113.372 360.985 90.3952C360.985 67.4182 342.365 48.7952 319.385 48.7952ZM319.385 63.7912C334.075 63.7912 345.985 75.7042 345.985 90.3952C345.985 105.085 334.075 116.998 319.385 116.998C304.695 116.998 292.784 105.086 292.784 90.3952C292.784 75.7042 304.695 63.7912 319.385 63.7912Z" fill="#FFCA00" stroke="white" stroke-width="5" stroke-miterlimit="10" stroke-linejoin="round"/>
<path d="M181.675 18.1902L141.075 0.093154C141.075 0.093154 132.365 -0.91184 125.965 3.68016C119.575 8.27316 115.495 18.4632 115.495 18.4632L5.32457 259.071C5.32457 259.071 -2.55533 273.183 5.92467 284.619C14.4047 296.056 49.5746 320.624 77.0946 325.603C104.615 330.582 165.095 291.147 165.095 291.147L181.675 18.1902Z" fill="#FF5900"/>
<path d="M166.915 105.081C164.985 104.853 163.005 105.782 161.975 107.581C160.615 109.981 161.454 113.028 163.854 114.394C167.084 116.213 168.975 119.533 170.505 122.8C171.875 125.694 172.934 128.701 174.104 131.675C174.964 133.871 175.864 136.055 176.764 138.238C182.224 151.594 187.685 164.949 193.165 178.3C195.905 184.983 198.215 192.028 202.885 197.675C204.645 199.802 206.695 201.589 208.945 203.175C211.205 204.762 214.325 204.216 215.915 201.957C217.505 199.697 216.955 196.575 214.695 194.988C213.425 194.096 212.245 193.146 211.195 191.988C208.585 189.09 206.905 185.495 205.415 181.925C204.265 179.149 203.165 176.329 202.005 173.55C197.905 163.637 193.864 153.706 189.824 143.769C187.684 138.52 185.485 133.295 183.415 128.019C180.105 119.589 177.134 110.492 168.794 105.707C168.194 105.365 167.565 105.158 166.915 105.081Z" fill="white"/>
<path d="M309.294 129.425C307.914 129.38 306.775 130.483 306.725 131.863C306.525 138.265 303.865 144.154 300.635 149.581C295.245 158.64 288.094 166.47 281.354 174.519C280.464 175.578 280.605 177.164 281.665 178.05C282.725 178.937 284.285 178.796 285.165 177.738C292.075 169.48 299.385 161.436 304.915 152.144C308.585 145.978 311.485 139.28 311.725 132.019C311.775 130.639 310.674 129.471 309.294 129.425Z" fill="white"/>
<path d="M327.164 130.8C325.834 131.158 325.024 132.529 325.384 133.863C327.134 140.381 329.284 146.759 332.384 152.769C335.044 157.91 338.364 162.612 342.104 167.019C342.994 168.072 344.584 168.193 345.634 167.3C346.684 166.407 346.804 164.853 345.914 163.8C342.424 159.682 339.304 155.293 336.824 150.488C333.884 144.797 331.885 138.721 330.225 132.55C329.875 131.217 328.494 130.443 327.164 130.8Z" fill="white"/>
<path d="M208.475 201.675C207.105 201.763 206.045 202.954 206.135 204.331C206.995 217.846 207.575 231.386 206.945 244.925C206.495 254.558 205.395 264.123 203.695 273.613C203.455 274.972 204.335 276.275 205.695 276.519C207.055 276.763 208.365 275.847 208.605 274.488C210.345 264.784 211.485 255.025 211.945 245.175C212.585 231.452 211.975 217.718 211.105 204.019C211.015 202.641 209.855 201.587 208.475 201.675Z" fill="white"/>
<path d="M423.005 202.207C421.635 202.153 420.464 203.233 420.414 204.613C419.924 217.222 419.494 229.837 419.884 242.457C420.164 251.52 420.894 260.541 422.164 269.519C422.354 270.886 423.645 271.837 425.005 271.644C426.375 271.451 427.324 270.199 427.134 268.831C425.894 260.033 425.164 251.182 424.884 242.3C424.494 229.797 424.934 217.293 425.414 204.8C425.464 203.421 424.385 202.26 423.005 202.207Z" fill="white"/>
<path d="M272.135 204.425C270.765 204.279 269.535 205.271 269.385 206.644C269.235 208.017 270.234 209.248 271.604 209.394C283.734 210.684 295.904 211.531 308.104 211.831C325.154 212.251 342.215 211.663 359.225 210.519C360.605 210.426 361.634 209.24 361.544 207.863C361.444 206.485 360.265 205.458 358.885 205.55C342.025 206.684 325.125 207.247 308.225 206.831C296.165 206.535 284.125 205.701 272.135 204.425Z" fill="white"/>
<path d="M171.195 11.8C169.835 11.564 168.555 12.471 168.325 13.831C168.085 15.192 168.995 16.47 170.355 16.707C186.305 19.476 202.125 23.004 218.105 25.581C223.315 26.422 228.514 27.15 233.764 27.707C236.264 27.973 238.795 28.25 241.325 28.3C242.975 28.333 244.614 28.313 246.264 28.269C250.914 28.144 255.705 27.773 260.325 28.581C263.265 29.097 266.155 30.169 268.355 32.269C269.365 33.239 270.125 34.369 270.825 35.581C271.505 36.779 273.035 37.174 274.225 36.488C275.425 35.801 275.855 34.279 275.165 33.081C274.235 31.454 273.155 29.946 271.795 28.644C263.845 21.041 251.345 23.494 241.415 23.3C238.105 23.236 234.765 22.815 231.475 22.425C226.785 21.87 222.135 21.177 217.475 20.425C201.985 17.927 186.655 14.485 171.195 11.8Z" fill="white"/>
<path d="M466.324 8.73812C440.164 14.5901 413.975 21.4091 387.135 23.1441C383.735 23.3641 380.434 23.2901 377.044 22.8631C370.674 22.0611 363.705 20.2641 357.725 23.5501C356.435 24.2611 355.255 25.1781 354.195 26.2071C352.145 28.2141 350.614 30.6281 349.264 33.1441C348.604 34.3601 349.074 35.8651 350.294 36.5191C351.504 37.1731 353.015 36.7351 353.665 35.5191C355.235 32.5921 357.145 29.5741 360.135 27.9251C364.075 25.7571 368.925 26.7551 373.135 27.3631C376.015 27.7781 378.914 28.1951 381.824 28.3001C383.714 28.3681 385.565 28.2661 387.445 28.1441C414.555 26.3911 441.005 19.5231 467.415 13.6131C468.765 13.3111 469.624 11.9911 469.324 10.6441C469.024 9.29712 467.664 8.43612 466.324 8.73812Z" fill="white"/>
<path d="M460.005 110.019C458.105 110.426 456.525 111.954 456.135 113.988C455.165 119.068 453.625 123.91 451.545 128.644C448.495 135.567 444.575 142.09 441.475 148.988C437.565 157.698 435.325 166.943 432.355 175.988C430.645 181.195 428.675 186.541 425.545 191.081C423.855 193.516 421.835 195.593 419.045 196.675C416.475 197.686 415.215 200.605 416.225 203.175C417.235 205.745 420.125 206.998 422.695 205.988C429.865 203.14 434.285 196.983 437.505 190.238C442.485 179.853 444.495 168.429 448.635 157.738C451.985 149.084 456.965 141.154 460.695 132.675C463.085 127.253 464.825 121.681 465.945 115.863C466.465 113.151 464.695 110.539 461.975 110.019C461.305 109.889 460.645 109.883 460.005 110.019Z" fill="white"/>
<path d="M176.884 118.05C175.504 117.952 174.295 118.986 174.195 120.363C172.425 145.101 170.104 169.795 167.794 194.488C166.634 206.864 165.524 219.222 164.544 231.613C164.194 235.957 163.804 240.294 163.544 244.644C162.884 255.525 163.774 266.424 164.104 277.3C164.184 280.027 164.565 282.704 164.695 285.425C164.785 287.223 164.764 289.3 163.794 290.894C163.104 292.018 161.995 292.88 160.915 293.613C159.105 294.85 157.104 295.795 155.074 296.613C148.084 299.423 140.544 301.31 133.074 302.269C131.704 302.445 130.745 303.681 130.915 305.05C131.095 306.42 132.355 307.382 133.725 307.207C138.045 306.652 142.334 305.745 146.544 304.644C150.644 303.571 154.704 302.297 158.574 300.55C162.084 298.964 165.964 296.879 168.044 293.488C170.804 288.979 169.345 283.545 169.165 278.613C168.775 267.901 167.935 257.114 168.445 246.394C168.695 241.166 169.224 235.955 169.634 230.738C170.514 219.651 171.504 208.56 172.544 197.488C174.934 171.906 177.365 146.335 179.195 120.707C179.295 119.329 178.264 118.149 176.884 118.05Z" fill="white"/>
<path d="M21.0443 221.238C20.4343 221.454 19.9244 221.895 19.6344 222.519C18.1144 225.739 16.4543 228.891 14.7643 232.019C13.4343 234.469 12.0743 236.905 10.7643 239.363C9.67431 241.395 8.6244 243.451 7.6044 245.519C1.6844 257.529 -3.58554 272.143 3.16446 284.925C4.30446 287.072 5.70437 289.054 7.32437 290.863C9.23437 293 11.4544 295.049 13.8844 296.581C18.5844 299.539 24.2645 300.305 29.4445 302.05C30.7545 302.491 32.1644 301.796 32.6044 300.488C33.0444 299.179 32.3443 297.772 31.0443 297.331C28.2643 296.397 25.4044 295.703 22.6044 294.863C20.5244 294.239 18.3943 293.533 16.5443 292.363C14.5043 291.072 12.6443 289.312 11.0443 287.519C9.69434 286.014 8.51437 284.369 7.57437 282.581C1.66437 271.408 6.94437 258.11 12.0744 247.707C13.0644 245.689 14.1045 243.721 15.1645 241.738C16.4745 239.288 17.8044 236.836 19.1344 234.394C20.8744 231.183 22.6045 227.948 24.1645 224.644C24.7545 223.395 24.1945 221.921 22.9445 221.331C22.3245 221.037 21.6443 221.022 21.0443 221.238Z" fill="white"/>
<path d="M458.665 123.863C457.325 124.175 456.475 125.518 456.795 126.863C460.285 141.94 460.655 157.439 461.915 172.8C462.565 180.697 463.345 188.588 463.945 196.488C464.605 205.091 464.895 213.676 465.105 222.3C465.205 226.352 465.385 230.434 465.355 234.488C465.315 238.969 465.055 243.448 464.885 247.925C464.535 256.816 464.315 265.778 465.225 274.644C465.955 281.697 467.305 289.173 471.135 295.269C472.115 296.831 473.245 298.263 474.605 299.519C480.535 305.012 489.005 305.334 496.635 305.207C499.545 305.158 502.465 305.123 505.355 304.8C508.635 304.434 511.825 303.728 515.005 302.863C516.345 302.5 517.155 301.133 516.795 299.8C516.425 298.468 515.025 297.688 513.695 298.05C510.765 298.849 507.815 299.494 504.795 299.831C500.835 300.273 496.765 300.276 492.795 300.207C486.385 300.095 479.955 299.11 475.975 293.519C472.105 288.077 470.865 280.61 470.195 274.113C468.875 261.314 470.095 248.489 470.325 235.675C470.405 231.18 470.215 226.7 470.105 222.207C469.955 216.158 469.815 210.091 469.475 204.05C468.885 193.477 467.745 182.946 466.885 172.394C465.605 156.784 465.215 141.059 461.665 125.738C461.355 124.393 460.015 123.551 458.665 123.863Z" fill="white"/>
<path d="M616.634 224.363C616.034 224.129 615.364 224.118 614.724 224.394C613.464 224.945 612.894 226.409 613.444 227.675C614.944 231.104 616.613 234.474 618.263 237.831C619.413 240.196 620.554 242.537 621.664 244.925C622.574 246.879 623.463 248.872 624.293 250.863C625.103 252.824 625.863 254.787 626.543 256.8C629.133 264.538 631.174 274.461 625.604 281.425C624.654 282.617 623.513 283.676 622.293 284.581C620.593 285.834 618.684 286.833 616.724 287.613C613.964 288.712 610.904 288.191 608.004 288.175C606.624 288.168 605.514 289.263 605.504 290.644C605.504 292.025 606.594 293.168 607.974 293.175C611.584 293.194 615.123 293.627 618.573 292.269C621.203 291.234 623.734 289.839 625.944 288.081C627.464 286.88 628.824 285.482 629.974 283.925C637.544 273.682 633.314 259.59 628.914 248.957C628.064 246.899 627.134 244.85 626.194 242.831C625.074 240.411 623.904 238.008 622.724 235.613C621.114 232.323 619.503 229.066 618.043 225.707C617.763 225.074 617.234 224.597 616.634 224.363Z" fill="white"/>
<path d="M132.324 17.8942C131.724 17.6582 131.015 17.6522 130.385 17.9252C129.115 18.4722 128.554 19.9382 129.104 21.2072C132.084 28.1252 135.104 35.0182 138.044 41.9572C143.914 55.8352 149.535 69.8192 155.225 83.7692C155.755 85.0472 157.235 85.6662 158.505 85.1442C159.785 84.6222 160.405 83.1722 159.885 81.8942C154.185 67.9242 148.515 53.9162 142.635 40.0192C139.695 33.0702 136.655 26.1672 133.665 19.2382C133.395 18.6042 132.914 18.1302 132.324 17.8942Z" fill="white"/>
<path d="M492.134 31.4252C490.844 30.9412 489.404 31.6011 488.914 32.8941C481.674 52.2121 475.184 71.7841 467.974 91.1131C467.494 92.4061 468.154 93.8491 469.444 94.3311C470.744 94.8141 472.184 94.1561 472.664 92.8631C479.874 73.5371 486.363 53.9591 493.603 34.6441C494.083 33.3511 493.424 31.9102 492.134 31.4252Z" fill="white"/>
<path d="M501.504 10.8311C500.874 10.9141 500.274 11.2221 499.854 11.7691C498.204 14.9041 498.804 13.7141 498.194 14.8941C497.734 15.7941 499.124 13.1001 499.544 12.1751C499.604 12.0421 499.354 12.4051 499.264 12.5191C499.184 12.6191 499.124 12.7321 499.044 12.8311C498.854 13.0641 498.634 13.2891 498.444 13.5191C497.714 14.4161 497.264 15.2491 496.974 16.3631C496.904 16.6521 496.834 16.9491 496.764 17.2381C496.724 17.3611 496.604 17.7241 496.664 17.6131C497.754 15.6821 496.654 17.6181 496.544 18.0501C496.174 19.3821 496.954 20.7491 498.294 21.1131C499.624 21.4771 501.024 20.6951 501.384 19.3631C502.604 17.0951 502.134 18.0001 502.604 17.0811C502.924 16.4521 501.914 18.3131 501.504 18.8941C501.434 19.0071 501.564 18.6531 501.604 18.5191C501.684 18.2201 501.744 17.9121 501.824 17.6131C501.834 17.5741 502.054 16.8661 501.914 17.2071C501.904 17.2311 501.934 17.1661 501.944 17.1441C501.984 17.0951 502.034 17.0351 502.074 16.9881C502.154 16.8861 502.234 16.7771 502.324 16.6751C502.524 16.4311 502.714 16.2031 502.914 15.9571C503.004 15.8471 503.114 15.7231 503.194 15.6131C503.294 15.4871 503.544 15.0941 503.474 15.2381C502.804 16.6241 503.494 15.2531 503.824 14.8311C504.664 13.7381 504.444 12.1431 503.354 11.3001C502.804 10.8791 502.144 10.7491 501.504 10.8311Z" fill="white"/>
<path d="M389.264 247.988C362.484 254.871 334.715 256.696 307.165 255.457C305.785 255.394 304.634 256.483 304.574 257.863C304.514 259.242 305.565 260.394 306.945 260.457C334.995 261.718 363.255 259.838 390.505 252.831C391.845 252.488 392.634 251.106 392.294 249.769C391.944 248.432 390.594 247.644 389.264 247.988Z" fill="white"/>
<path d="M258.294 251.425C256.924 251.261 255.675 252.242 255.505 253.613C255.345 254.984 256.325 256.229 257.695 256.394C264.975 257.269 272.215 258.421 279.475 259.457C280.845 259.651 282.094 258.698 282.294 257.331C282.484 255.965 281.565 254.683 280.195 254.488C272.905 253.447 265.604 252.305 258.294 251.425Z" fill="white"/>
<path d="M204.235 282.108C204.235 282.108 285.954 316.073 352.594 308.189C419.244 300.305 425.024 279.926 425.024 279.926C425.024 279.926 444.124 289.124 469.314 357.822C494.504 426.52 501.824 510.105 501.824 510.105C501.824 510.105 355.125 516.661 283.255 512.833C211.395 509.005 144.475 496.394 144.475 496.394C144.475 496.394 166.325 391.41 176.695 355.579C186.395 322.05 204.235 282.108 204.235 282.108Z" fill="#FF5900"/>
<path d="M246.855 363.457C246.245 363.639 245.685 364.068 245.355 364.675C244.695 365.889 245.175 367.392 246.385 368.05C264.695 377.977 283.235 387.46 302.445 395.519C318.795 402.376 335.535 408.062 352.605 412.831C353.935 413.203 355.325 412.442 355.695 411.113C356.065 409.783 355.275 408.391 353.945 408.019C337.075 403.305 320.545 397.702 304.385 390.925C285.325 382.931 266.914 373.523 248.764 363.675C248.154 363.346 247.465 363.274 246.855 363.457Z" fill="white"/>
<path d="M284.264 402.988C282.894 402.778 281.625 403.717 281.415 405.081C281.205 406.446 282.145 407.716 283.505 407.925C295.715 409.798 307.925 411.744 320.105 413.8C321.465 414.03 322.745 413.099 322.975 411.738C323.205 410.376 322.275 409.093 320.915 408.863C308.715 406.802 296.494 404.864 284.264 402.988Z" fill="white"/>
</svg>
