<svg width="310" height="140" viewBox="0 0 310 140" fill="none" xmlns="http://www.w3.org/2000/svg">
<g clip-path="url(#clip0_1280_10692)">
<mask id="mask0_1280_10692" style="mask-type:luminance" maskUnits="userSpaceOnUse" x="0" y="0" width="310" height="140">
<path d="M310 0H0V140H310V0Z" fill="white"/>
</mask>
<g mask="url(#mask0_1280_10692)">
<path d="M42.6713 11.6132C41.6377 11.2652 39.5161 16.0781 39.1489 16.8701C36.8627 21.7951 35.2652 27.4372 32.3677 32.0022C32.9015 32.7252 33.2115 33.1152 33.5825 33.4942C34.2519 34.1782 34.9969 34.8402 35.7874 35.5242C35.8561 35.3502 35.9792 35.0121 36.0334 34.9091C37.5272 32.0591 40.2029 26.9582 43.5412 26.1232C45.9505 28.5202 48.4015 30.8742 50.1278 33.8772C51.9297 37.0112 53.004 40.8722 54.028 44.3602C54.4252 45.7152 54.5985 47.3242 55.3745 48.5252C55.794 49.1752 56.4014 49.7751 57.0631 50.3491C61.0165 52.5281 64.9206 54.3062 68.9215 55.6882C69.588 55.9182 70.1063 56.1272 71.263 56.6112C71.3734 56.6572 71.4257 56.6802 71.4868 56.7062C72.5427 57.1472 73.3216 57.4392 74.0055 57.6522C74.0268 57.4842 74.0656 57.1552 74.0792 57.0892C74.7854 53.6132 73.3971 48.9122 71.7028 45.8932C65.621 35.0562 57.1435 27.0761 48.1457 18.8571C46.6238 17.4681 45.1135 15.9162 43.983 14.1662C43.7669 13.8322 42.9503 11.7072 42.6713 11.6132Z" fill="#1A1A1A"/>
<path d="M86.6643 -10C83.0111 -9.944 79.1971 -8.87695 76.1204 -6.89795C73.0901 -4.94695 70.6847 -0.979991 69.6695 2.49701C69.3818 3.48301 69.128 4.73902 68.7463 5.91302C68.7695 5.91502 68.7918 5.91902 68.8151 5.92102C68.5012 6.62802 68.1795 7.40903 68.3413 7.90503C68.415 8.13003 69.0766 8.23305 69.2549 8.31305C70.026 8.65705 70.7913 9.31501 71.4723 9.83801C71.5014 9.86101 71.5179 9.89601 71.546 9.91901C69.065 9.11601 65.2898 9.10403 62.6741 9.81403C61.4322 10.234 60.2184 10.714 59.0161 11.197C56.3966 12.346 52.5091 14.55 55.2652 15.888C56.4025 16.44 58.4882 15.386 59.6652 15.303C62.6054 15.096 66.2769 16.242 68.8548 17.629C71.7736 19.2 74.6053 25.5251 77.2703 25.7531C79.0441 25.9051 79.7784 24.218 80.9612 23.107C82.3911 21.764 83.7057 20.7871 85.215 20.1281C85.3787 19.9551 85.5754 19.807 85.8089 19.715C85.836 19.704 85.8321 19.695 85.8592 19.684C87.1302 19.186 92.3082 17.378 93.4649 16.939C99.2628 14.739 102.995 12.405 105.112 9.20001C105.008 7.78001 104.436 6.33105 104.232 4.95905C103.712 1.45805 102.487 -2.146 100.365 -5C99.7598 -5.553 98.9693 -6.34299 98.3978 -6.77399C97.1645 -7.70199 95.6795 -8.23496 93.091 -8.80396C92.8275 -8.86196 91.0353 -9.24795 90.6139 -9.34595C89.2295 -9.66795 87.943 -9.846 86.6643 -10Z" fill="#1A1A1A"/>
<path d="M93.4593 28.0862C92.446 28.2802 91.7756 29.2892 91.9645 30.3352C92.1524 31.3812 93.1299 32.0723 94.1432 31.8783C95.1565 31.6833 95.8191 30.6762 95.6302 29.6302C95.4423 28.5842 94.4716 27.8912 93.4593 28.0862ZM121.783 22.6422C120.77 22.8362 120.1 23.8453 120.288 24.8913C120.477 25.9373 121.454 26.6282 122.468 26.4342C123.48 26.2392 124.143 25.2322 123.955 24.1862C123.767 23.1402 122.796 22.4472 121.783 22.6422ZM96.5215 30.6182C95.5082 30.8132 94.8455 31.8202 95.0335 32.8662C95.2224 33.9122 96.1921 34.6052 97.2054 34.4102C98.2187 34.2152 98.8891 33.2072 98.7002 32.1612C98.5113 31.1152 97.5348 30.4232 96.5215 30.6182ZM119.802 26.1432C118.788 26.3382 118.118 27.3472 118.307 28.3932C118.496 29.4382 119.472 30.1302 120.485 29.9362C121.499 29.7412 122.169 28.7322 121.98 27.6862C121.791 26.6412 120.815 25.9492 119.802 26.1432ZM100.351 32.7732C99.3376 32.9672 98.6663 33.9692 98.8552 35.0142C99.0441 36.0602 100.021 36.7522 101.034 36.5572C102.047 36.3632 102.718 35.3543 102.529 34.3083C102.34 33.2633 101.364 32.5782 100.351 32.7732ZM116.98 29.5763C115.966 29.7713 115.302 30.7712 115.491 31.8172C115.679 32.8632 116.649 33.5562 117.662 33.3612C118.676 33.1672 119.346 32.1582 119.157 31.1122C118.968 30.0662 117.993 29.3823 116.98 29.5763ZM104.745 33.5482C103.733 33.7432 103.069 34.7502 103.258 35.7962C103.446 36.8412 104.417 37.5352 105.429 37.3402C106.442 37.1452 107.113 36.1372 106.924 35.0912C106.736 34.0452 105.759 33.3532 104.745 33.5482ZM113.15 31.9322C112.137 32.1272 111.466 33.1362 111.655 34.1822C111.844 35.2272 112.821 35.9192 113.834 35.7252C114.847 35.5302 115.511 34.5233 115.322 33.4773C115.133 32.4313 114.163 31.7382 113.15 31.9322ZM108.886 32.9162C107.873 33.1102 107.21 34.1172 107.399 35.1632C107.587 36.2092 108.557 36.9022 109.57 36.7082C110.583 36.5132 111.253 35.5043 111.064 34.4593C110.876 33.4133 109.899 32.7212 108.886 32.9162Z" fill="#1A1A1A"/>
<path d="M95.6865 46.4981C94.5502 46.3871 93.408 46.5101 92.322 46.9731C91.9452 47.1341 91.579 47.3352 91.239 47.5682C90.8815 47.8112 90.5492 48.0891 90.2693 48.4251C89.2308 49.6701 89.2967 51.2281 89.6551 52.7351C89.8576 53.5851 90.1424 54.4121 90.3768 55.2531C90.5425 55.8481 90.6858 56.4691 90.6955 57.0911C90.7023 57.4981 90.6364 57.9071 90.5483 58.3021C90.1637 60.0261 89.0913 61.4791 88.1031 62.8831C87.6401 63.5411 87.1983 64.2061 86.807 64.9011C86.4088 64.6211 85.999 64.3491 85.6328 64.0441C84.666 64.2241 84.0702 64.7731 83.2875 66.0131C83.1993 66.1531 83.0492 66.4031 82.8535 66.7271C82.7586 66.9671 82.6317 67.3311 82.5571 67.4861C80.8172 71.0811 75.9618 80.6891 76.2747 86.0451C76.3677 86.0871 76.45 86.1311 76.545 86.1721C78.1977 86.8911 79.5995 87.3711 82.6898 88.3371C87.1877 89.7431 91.6091 90.5041 97.2666 90.9631C106.437 91.7061 111.208 90.9361 117.143 87.1931C117.692 82.0761 114.085 72.3711 112.902 68.6131C112.644 68.0641 112.316 67.3611 112.178 67.0951C111.783 66.3351 111.426 65.8771 110.957 65.6221C110.641 65.8281 110.332 66.0081 110.018 66.1961C109.918 65.3391 109.764 64.4871 109.564 63.6511C109.11 61.7661 108.474 59.9281 107.722 58.1501C106.974 56.3791 106.102 54.6571 105.084 53.0341C103.999 51.3031 102.747 49.6201 101.027 48.5251C99.454 47.5241 97.5785 46.6841 95.6865 46.4981ZM95.2438 47.6741C97.19 47.7791 99.1731 48.7351 100.746 49.7861C101.418 50.2341 101.99 50.8531 102.506 51.4761C103.085 52.1771 103.603 52.9241 104.086 53.6971C105.066 55.2661 105.899 56.9371 106.621 58.6461C107.377 60.4371 108.022 62.2881 108.458 64.1911C108.657 65.0621 108.806 65.9491 108.88 66.8421C107.35 67.6571 105.835 68.2601 104.278 68.6001C98.9929 69.7531 92.5226 68.4951 87.7602 65.5561C88.2582 64.6671 88.8549 63.8271 89.4381 62.9881C90.5308 61.4141 91.5703 59.7391 91.796 57.7711C92.0237 55.7881 91.0559 53.9571 90.6829 52.0611C90.4892 51.0751 90.4717 50.0061 91.145 49.2031C91.3572 48.9521 91.6081 48.7512 91.8774 48.5682C92.9237 47.8582 94.0764 47.6121 95.2438 47.6741Z" fill="#1A1A1A"/>
<path d="M48.1477 60.885C46.7653 60.338 45.2172 61.057 44.6873 62.484L34.2306 90.655C33.7007 92.082 34.3876 93.685 35.77 94.232L48.9285 99.437C50.3119 99.983 51.859 99.264 52.3889 97.837L62.8456 69.666C63.3755 68.239 62.6896 66.636 61.3072 66.09L48.1477 60.885ZM47.6362 61.654C48.4316 61.969 48.8346 62.885 48.5294 63.707C48.2242 64.529 47.3291 64.941 46.5328 64.626C45.7365 64.311 45.3451 63.39 45.6493 62.568C45.9544 61.746 46.8399 61.339 47.6362 61.654ZM50.4252 65.312C51.2216 65.626 51.6139 66.548 51.3087 67.37C51.0036 68.191 50.1152 68.607 49.3189 68.292C48.5236 67.977 48.1235 67.053 48.4286 66.231C48.7338 65.409 49.6299 64.997 50.4252 65.312ZM45.8372 66.501C46.6326 66.816 47.0327 67.74 46.7275 68.562C46.4224 69.384 45.5302 69.788 44.7338 69.473C43.9375 69.158 43.5423 68.245 43.8474 67.423C44.1526 66.601 45.0409 66.186 45.8372 66.501Z" fill="#1A1A1A"/>
<path d="M29.9111 -5.04004L19.8671 6.97498C20.2033 7.13998 20.5327 7.33295 20.8281 7.59595L25.0596 11.364C25.3551 11.627 25.5905 11.942 25.7988 12.261L35.8428 0.245973L29.9111 -5.04004ZM17.111 7.81396C16.4261 8.00596 15.7858 8.40398 15.2869 9.00098L12.1346 12.7759C10.8055 14.3669 10.9759 16.768 12.5172 18.14L16.1762 21.4009C17.7175 22.7729 20.0415 22.5899 21.3706 20.9999L24.5249 17.231C25.854 15.641 25.6835 13.2389 24.1432 11.8669L20.4832 8.60596C19.5203 7.74896 18.2532 7.49396 17.111 7.81396ZM10.8626 17.753L0 30.752L5.92972 36.032L16.7923 23.032C16.4562 22.867 16.1316 22.665 15.8362 22.402L11.6047 18.634C11.3092 18.371 11.0709 18.072 10.8626 17.753Z" fill="#1A1A1A"/>
<path d="M15.8642 42.4948L14.6155 45.7139L18.6358 48.4249L21.0257 46.3638L19.3236 41.6528L15.8642 42.4948ZM16.1393 47.8939C13.0616 52.4389 13.2757 58.6079 16.77 62.9249C21.018 68.1729 28.5839 68.8718 33.6669 64.4868C38.7509 60.1018 39.4281 52.2919 35.1801 47.0449C31.7207 42.7709 25.9595 41.4368 21.1032 43.6688L21.7474 45.1599C25.9615 43.2239 30.9612 44.3849 33.9634 48.0939C37.6504 52.6479 37.0624 59.4248 32.6507 63.2308C28.239 67.0368 21.6728 66.4299 17.9867 61.8759C14.9536 58.1289 14.7695 52.7708 17.4403 48.8278L16.1393 47.8939Z" fill="#1A1A1A"/>
<path d="M246.109 12.6132C245.075 12.2652 242.954 17.0781 242.586 17.8701C240.3 22.7951 238.703 28.4372 235.805 33.0022C236.339 33.7252 236.649 34.1152 237.02 34.4942C237.689 35.1782 238.434 35.8402 239.225 36.5242C239.294 36.3502 239.417 36.0121 239.471 35.9091C240.965 33.0591 243.64 27.9582 246.979 27.1232C249.388 29.5202 251.839 31.8742 253.565 34.8772C255.367 38.0112 256.441 41.8722 257.465 45.3602C257.863 46.7152 258.036 48.3242 258.812 49.5252C259.231 50.1752 259.839 50.7751 260.501 51.3491C264.454 53.5281 268.358 55.3062 272.359 56.6882C273.026 56.9182 273.544 57.1272 274.7 57.6112C274.811 57.6572 274.863 57.6802 274.924 57.7062C275.98 58.1472 276.759 58.4392 277.443 58.6522C277.464 58.4842 277.503 58.1552 277.517 58.0892C278.223 54.6132 276.835 49.9122 275.14 46.8932C269.058 36.0562 260.581 28.0761 251.583 19.8571C250.061 18.4681 248.551 16.9162 247.42 15.1662C247.204 14.8322 246.388 12.7072 246.109 12.6132Z" fill="#1A1A1A"/>
<path d="M290.102 -9C286.449 -8.944 282.635 -7.87695 279.558 -5.89795C276.528 -3.94695 274.122 0.0200095 273.107 3.49701C272.819 4.48301 272.565 5.73902 272.184 6.91302C272.207 6.91502 272.229 6.91902 272.253 6.92102C271.939 7.62802 271.617 8.40903 271.779 8.90503C271.852 9.13003 272.514 9.23305 272.692 9.31305C273.463 9.65705 274.229 10.315 274.91 10.838C274.939 10.861 274.955 10.896 274.983 10.919C272.502 10.116 268.727 10.104 266.112 10.814C264.87 11.234 263.656 11.714 262.454 12.197C259.834 13.346 255.947 15.55 258.703 16.888C259.84 17.44 261.926 16.386 263.103 16.303C266.043 16.096 269.714 17.242 272.292 18.629C275.211 20.2 278.043 26.5251 280.708 26.7531C282.482 26.9051 283.216 25.218 284.399 24.107C285.829 22.764 287.143 21.7871 288.653 21.1281C288.816 20.9551 289.013 20.807 289.246 20.715C289.273 20.704 289.27 20.695 289.297 20.684C290.568 20.186 295.746 18.378 296.902 17.939C302.7 15.739 306.433 13.405 308.55 10.2C308.445 8.78001 307.873 7.33105 307.669 5.95905C307.15 2.45805 305.924 -1.146 303.803 -4C303.197 -4.553 302.407 -5.34299 301.835 -5.77399C300.602 -6.70199 299.117 -7.23496 296.528 -7.80396C296.265 -7.86196 294.473 -8.24795 294.051 -8.34595C292.667 -8.66795 291.381 -8.846 290.102 -9Z" fill="#1A1A1A"/>
<path d="M296.897 29.0862C295.883 29.2802 295.213 30.2892 295.402 31.3352C295.59 32.3812 296.567 33.0723 297.581 32.8783C298.594 32.6833 299.257 31.6762 299.068 30.6302C298.88 29.5842 297.909 28.8912 296.897 29.0862ZM325.22 23.6422C324.208 23.8362 323.537 24.8453 323.725 25.8913C323.914 26.9373 324.892 27.6282 325.905 27.4342C326.917 27.2392 327.581 26.2322 327.392 25.1862C327.204 24.1402 326.233 23.4472 325.22 23.6422ZM299.959 31.6182C298.946 31.8132 298.283 32.8202 298.471 33.8662C298.66 34.9122 299.63 35.6052 300.643 35.4102C301.656 35.2152 302.327 34.2072 302.138 33.1612C301.949 32.1152 300.972 31.4232 299.959 31.6182ZM323.239 27.1432C322.226 27.3382 321.555 28.3472 321.744 29.3932C321.933 30.4382 322.91 31.1302 323.923 30.9362C324.936 30.7412 325.607 29.7322 325.418 28.6862C325.229 27.6412 324.252 26.9492 323.239 27.1432ZM303.788 33.7732C302.775 33.9672 302.104 34.9692 302.293 36.0142C302.482 37.0602 303.458 37.7522 304.471 37.5572C305.485 37.3632 306.155 36.3543 305.966 35.3083C305.777 34.2633 304.802 33.5782 303.788 33.7732ZM320.417 30.5763C319.404 30.7713 318.739 31.7712 318.928 32.8172C319.117 33.8632 320.087 34.5562 321.1 34.3612C322.113 34.1672 322.784 33.1582 322.595 32.1122C322.406 31.0662 321.43 30.3823 320.417 30.5763ZM308.183 34.5482C307.17 34.7432 306.507 35.7502 306.696 36.7962C306.884 37.8412 307.854 38.5352 308.867 38.3402C309.88 38.1452 310.55 37.1372 310.361 36.0912C310.173 35.0452 309.196 34.3532 308.183 34.5482ZM316.588 32.9322C315.574 33.1272 314.904 34.1362 315.093 35.1822C315.282 36.2272 316.258 36.9192 317.272 36.7252C318.285 36.5302 318.948 35.5233 318.76 34.4773C318.571 33.4313 317.601 32.7382 316.588 32.9322ZM312.323 33.9162C311.311 34.1102 310.647 35.1172 310.836 36.1632C311.024 37.2092 311.995 37.9022 313.007 37.7082C314.02 37.5132 314.691 36.5043 314.502 35.4593C314.314 34.4133 313.336 33.7212 312.323 33.9162Z" fill="#1A1A1A"/>
<path d="M299.124 47.4981C297.988 47.3871 296.846 47.5101 295.76 47.9731C295.383 48.1341 295.017 48.3352 294.676 48.5682C294.319 48.8112 293.987 49.0891 293.707 49.4251C292.668 50.6701 292.734 52.2281 293.093 53.7351C293.295 54.5851 293.58 55.4121 293.814 56.2531C293.98 56.8481 294.123 57.4691 294.133 58.0911C294.14 58.4981 294.074 58.9071 293.986 59.3021C293.601 61.0261 292.529 62.4791 291.541 63.8831C291.078 64.5411 290.636 65.2061 290.244 65.9011C289.846 65.6211 289.437 65.3491 289.07 65.0441C288.104 65.2241 287.508 65.7731 286.725 67.0131C286.637 67.1531 286.487 67.4031 286.291 67.7271C286.196 67.9671 286.069 68.3311 285.995 68.4861C284.255 72.0811 279.399 81.6891 279.712 87.0451C279.805 87.0871 279.888 87.1311 279.982 87.1721C281.635 87.8911 283.037 88.3711 286.127 89.3371C290.625 90.7431 295.047 91.5041 300.704 91.9631C309.874 92.7061 314.645 91.9361 320.581 88.1931C321.129 83.0761 317.523 73.3711 316.34 69.6131C316.081 69.0641 315.754 68.3611 315.615 68.0951C315.221 67.3351 314.863 66.8771 314.394 66.6221C314.079 66.8281 313.77 67.0081 313.456 67.1961C313.356 66.3391 313.202 65.4871 313.001 64.6511C312.548 62.7661 311.912 60.9281 311.16 59.1501C310.412 57.3791 309.539 55.6571 308.522 54.0341C307.437 52.3031 306.184 50.6201 304.465 49.5251C302.891 48.5241 301.016 47.6841 299.124 47.4981ZM298.681 48.6741C300.628 48.7791 302.611 49.7351 304.184 50.7861C304.855 51.2341 305.428 51.8531 305.943 52.4761C306.522 53.1771 307.041 53.9241 307.523 54.6971C308.503 56.2661 309.337 57.9371 310.058 59.6461C310.815 61.4371 311.459 63.2881 311.895 65.1911C312.095 66.0621 312.244 66.9491 312.317 67.8421C310.788 68.6571 309.273 69.2601 307.716 69.6001C302.43 70.7531 295.96 69.4951 291.198 66.5561C291.696 65.6671 292.292 64.8271 292.876 63.9881C293.968 62.4141 295.008 60.7391 295.234 58.7711C295.461 56.7881 294.493 54.9571 294.12 53.0611C293.927 52.0751 293.909 51.0061 294.583 50.2031C294.795 49.9521 295.046 49.7512 295.315 49.5682C296.361 48.8582 297.514 48.6121 298.681 48.6741Z" fill="#1A1A1A"/>
<path d="M251.585 61.885C250.203 61.338 248.655 62.057 248.125 63.484L237.668 91.655C237.138 93.082 237.825 94.685 239.207 95.232L252.366 100.437C253.749 100.983 255.296 100.264 255.826 98.837L266.283 70.666C266.813 69.239 266.127 67.636 264.745 67.09L251.585 61.885ZM251.074 62.654C251.869 62.969 252.272 63.885 251.967 64.707C251.662 65.529 250.767 65.941 249.97 65.626C249.174 65.311 248.783 64.39 249.087 63.568C249.392 62.746 250.277 62.339 251.074 62.654ZM253.863 66.312C254.659 66.626 255.051 67.548 254.746 68.37C254.441 69.191 253.553 69.607 252.756 69.292C251.961 68.977 251.561 68.053 251.866 67.231C252.171 66.409 253.067 65.997 253.863 66.312ZM249.275 67.501C250.07 67.816 250.47 68.74 250.165 69.562C249.86 70.384 248.968 70.788 248.171 70.473C247.375 70.158 246.98 69.245 247.285 68.423C247.59 67.601 248.478 67.186 249.275 67.501Z" fill="#1A1A1A"/>
<path d="M233.349 -4.04004L223.305 7.97498C223.641 8.13998 223.97 8.33295 224.266 8.59595L228.497 12.364C228.793 12.627 229.028 12.942 229.236 13.261L239.28 1.24597L233.349 -4.04004ZM220.549 8.81396C219.864 9.00596 219.223 9.40398 218.724 10.001L215.572 13.7759C214.243 15.3669 214.413 17.768 215.955 19.14L219.614 22.4009C221.155 23.7729 223.479 23.5899 224.808 21.9999L227.962 18.231C229.291 16.641 229.121 14.2389 227.581 12.8669L223.921 9.60596C222.958 8.74896 221.691 8.49396 220.549 8.81396ZM214.3 18.753L203.438 31.752L209.367 37.032L220.23 24.032C219.894 23.867 219.569 23.665 219.274 23.402L215.042 19.634C214.747 19.371 214.508 19.072 214.3 18.753Z" fill="#1A1A1A"/>
<path d="M219.302 43.4948L218.053 46.7139L222.073 49.4249L224.463 47.3638L222.761 42.6528L219.302 43.4948ZM219.577 48.8939C216.499 53.4389 216.713 59.6079 220.207 63.9249C224.455 69.1729 232.021 69.8718 237.104 65.4868C242.188 61.1018 242.866 53.2919 238.618 48.0449C235.158 43.7709 229.397 42.4368 224.541 44.6688L225.185 46.1599C229.399 44.2239 234.399 45.3849 237.401 49.0939C241.088 53.6479 240.5 60.4248 236.088 64.2308C231.676 68.0368 225.11 67.4299 221.424 62.8759C218.391 59.1289 218.207 53.7708 220.878 49.8278L219.577 48.8939Z" fill="#1A1A1A"/>
<path d="M145.359 54.6132C144.325 54.2652 142.204 59.0781 141.836 59.8701C139.55 64.7951 137.953 70.4372 135.055 75.0022C135.589 75.7252 135.899 76.1152 136.27 76.4942C136.939 77.1782 137.684 77.8402 138.475 78.5242C138.544 78.3502 138.667 78.0121 138.721 77.9091C140.215 75.0591 142.89 69.9582 146.229 69.1232C148.638 71.5202 151.089 73.8742 152.815 76.8772C154.617 80.0112 155.691 83.8722 156.715 87.3602C157.113 88.7152 157.286 90.3242 158.062 91.5252C158.481 92.1752 159.089 92.7751 159.751 93.3491C163.704 95.5281 167.608 97.3062 171.609 98.6882C172.276 98.9182 172.794 99.1272 173.95 99.6112C174.061 99.6572 174.113 99.6802 174.174 99.7062C175.23 100.147 176.009 100.439 176.693 100.652C176.714 100.484 176.753 100.155 176.767 100.089C177.473 96.6132 176.085 91.9122 174.39 88.8932C168.308 78.0562 159.831 70.0761 150.833 61.8571C149.311 60.4681 147.801 58.9162 146.67 57.1662C146.454 56.8322 145.638 54.7072 145.359 54.6132Z" fill="#1A1A1A"/>
<path d="M189.352 33C185.699 33.056 181.885 34.1231 178.808 36.1021C175.778 38.0531 173.372 42.02 172.357 45.497C172.069 46.483 171.815 47.739 171.434 48.913C171.457 48.915 171.479 48.919 171.503 48.921C171.189 49.628 170.867 50.409 171.029 50.905C171.102 51.13 171.764 51.233 171.942 51.313C172.713 51.657 173.479 52.315 174.16 52.838C174.189 52.861 174.205 52.896 174.233 52.919C171.752 52.116 167.977 52.104 165.362 52.814C164.12 53.234 162.906 53.714 161.704 54.197C159.084 55.346 155.197 57.55 157.953 58.888C159.09 59.44 161.176 58.386 162.353 58.303C165.293 58.096 168.964 59.242 171.542 60.629C174.461 62.2 177.293 68.5251 179.958 68.7531C181.732 68.9051 182.466 67.218 183.649 66.107C185.079 64.764 186.393 63.7871 187.903 63.1281C188.066 62.9551 188.263 62.807 188.496 62.715C188.523 62.704 188.52 62.695 188.547 62.684C189.818 62.186 194.996 60.378 196.152 59.939C201.95 57.739 205.683 55.405 207.8 52.2C207.695 50.78 207.123 49.331 206.919 47.959C206.4 44.458 205.174 40.854 203.053 38C202.447 37.447 201.657 36.657 201.085 36.226C199.852 35.298 198.367 34.765 195.778 34.196C195.515 34.138 193.723 33.7521 193.301 33.6541C191.917 33.3321 190.631 33.154 189.352 33Z" fill="#1A1A1A"/>
<path d="M196.147 71.0862C195.133 71.2802 194.463 72.2892 194.652 73.3352C194.84 74.3812 195.817 75.0723 196.831 74.8783C197.844 74.6833 198.507 73.6762 198.318 72.6302C198.13 71.5842 197.159 70.8912 196.147 71.0862ZM224.47 65.6422C223.458 65.8362 222.787 66.8453 222.975 67.8913C223.164 68.9373 224.142 69.6282 225.155 69.4342C226.167 69.2392 226.831 68.2322 226.642 67.1862C226.454 66.1402 225.483 65.4472 224.47 65.6422ZM199.209 73.6182C198.196 73.8132 197.533 74.8202 197.721 75.8662C197.91 76.9122 198.88 77.6052 199.893 77.4102C200.906 77.2152 201.577 76.2072 201.388 75.1612C201.199 74.1152 200.222 73.4232 199.209 73.6182ZM222.489 69.1432C221.476 69.3382 220.805 70.3472 220.994 71.3932C221.183 72.4382 222.16 73.1302 223.173 72.9362C224.186 72.7412 224.857 71.7322 224.668 70.6862C224.479 69.6412 223.502 68.9492 222.489 69.1432ZM203.038 75.7732C202.025 75.9672 201.354 76.9692 201.543 78.0142C201.732 79.0602 202.708 79.7522 203.721 79.5572C204.735 79.3632 205.405 78.3543 205.216 77.3083C205.027 76.2633 204.052 75.5782 203.038 75.7732ZM219.667 72.5763C218.654 72.7713 217.989 73.7712 218.178 74.8172C218.367 75.8632 219.337 76.5562 220.35 76.3612C221.363 76.1672 222.034 75.1582 221.845 74.1122C221.656 73.0662 220.68 72.3823 219.667 72.5763ZM207.433 76.5482C206.42 76.7432 205.757 77.7502 205.946 78.7962C206.134 79.8412 207.104 80.5352 208.117 80.3402C209.13 80.1452 209.8 79.1372 209.611 78.0912C209.423 77.0452 208.446 76.3532 207.433 76.5482ZM215.838 74.9322C214.824 75.1272 214.154 76.1362 214.343 77.1822C214.532 78.2272 215.508 78.9192 216.522 78.7252C217.535 78.5302 218.198 77.5233 218.01 76.4773C217.821 75.4313 216.851 74.7382 215.838 74.9322ZM211.573 75.9162C210.561 76.1102 209.897 77.1172 210.086 78.1632C210.274 79.2092 211.245 79.9022 212.257 79.7082C213.27 79.5132 213.941 78.5043 213.752 77.4593C213.564 76.4133 212.586 75.7212 211.573 75.9162Z" fill="#1A1A1A"/>
<path d="M198.374 89.4981C197.238 89.3871 196.096 89.5101 195.01 89.9731C194.633 90.1341 194.267 90.3352 193.926 90.5682C193.569 90.8112 193.237 91.0891 192.957 91.4251C191.918 92.6701 191.984 94.2281 192.343 95.7351C192.545 96.5851 192.83 97.4121 193.064 98.2531C193.23 98.8481 193.373 99.4691 193.383 100.091C193.39 100.498 193.324 100.907 193.236 101.302C192.851 103.026 191.779 104.479 190.791 105.883C190.328 106.541 189.886 107.206 189.494 107.901C189.096 107.621 188.687 107.349 188.32 107.044C187.354 107.224 186.758 107.773 185.975 109.013C185.887 109.153 185.737 109.403 185.541 109.727C185.446 109.967 185.319 110.331 185.245 110.486C183.505 114.081 178.649 123.689 178.962 129.045C179.055 129.087 179.138 129.131 179.232 129.172C180.885 129.891 182.287 130.371 185.377 131.337C189.875 132.743 194.297 133.504 199.954 133.963C209.124 134.706 213.895 133.936 219.831 130.193C220.379 125.076 216.773 115.371 215.59 111.613C215.331 111.064 215.004 110.361 214.865 110.095C214.471 109.335 214.113 108.877 213.644 108.622C213.329 108.828 213.02 109.008 212.706 109.196C212.606 108.339 212.452 107.487 212.251 106.651C211.798 104.766 211.162 102.928 210.41 101.15C209.662 99.3791 208.789 97.6571 207.772 96.0341C206.687 94.3031 205.434 92.6201 203.715 91.5251C202.141 90.5241 200.266 89.6841 198.374 89.4981ZM197.931 90.6741C199.878 90.7791 201.861 91.7351 203.434 92.7861C204.105 93.2341 204.678 93.8531 205.193 94.4761C205.772 95.1771 206.291 95.9241 206.773 96.6971C207.753 98.2661 208.587 99.9371 209.308 101.646C210.065 103.437 210.709 105.288 211.145 107.191C211.345 108.062 211.494 108.949 211.567 109.842C210.038 110.657 208.523 111.26 206.966 111.6C201.68 112.753 195.21 111.495 190.448 108.556C190.946 107.667 191.542 106.827 192.126 105.988C193.218 104.414 194.258 102.739 194.484 100.771C194.711 98.7881 193.743 96.9571 193.37 95.0611C193.177 94.0751 193.159 93.0061 193.833 92.2031C194.045 91.9521 194.296 91.7512 194.565 91.5682C195.611 90.8582 196.764 90.6121 197.931 90.6741Z" fill="#1A1A1A"/>
<path d="M150.835 103.885C149.453 103.338 147.905 104.057 147.375 105.484L136.918 133.655C136.388 135.082 137.075 136.685 138.457 137.232L151.616 142.437C152.999 142.983 154.546 142.264 155.076 140.837L165.533 112.666C166.063 111.239 165.377 109.636 163.995 109.09L150.835 103.885ZM150.324 104.654C151.119 104.969 151.522 105.885 151.217 106.707C150.912 107.529 150.017 107.941 149.22 107.626C148.424 107.311 148.033 106.39 148.337 105.568C148.642 104.746 149.527 104.339 150.324 104.654ZM153.113 108.312C153.909 108.626 154.301 109.548 153.996 110.37C153.691 111.191 152.803 111.607 152.006 111.292C151.211 110.977 150.811 110.053 151.116 109.231C151.421 108.409 152.317 107.997 153.113 108.312ZM148.525 109.501C149.32 109.816 149.72 110.74 149.415 111.562C149.11 112.384 148.218 112.788 147.421 112.473C146.625 112.158 146.23 111.245 146.535 110.423C146.84 109.601 147.728 109.186 148.525 109.501Z" fill="#1A1A1A"/>
<path d="M132.599 37.96L122.555 49.975C122.891 50.14 123.22 50.3329 123.516 50.5959L127.747 54.364C128.043 54.627 128.278 54.942 128.486 55.261L138.53 43.246L132.599 37.96ZM119.799 50.814C119.114 51.006 118.473 51.404 117.974 52.001L114.822 55.7759C113.493 57.3669 113.663 59.768 115.205 61.14L118.864 64.4009C120.405 65.7729 122.729 65.5899 124.058 63.9999L127.212 60.231C128.541 58.641 128.371 56.2389 126.831 54.8669L123.171 51.606C122.208 50.749 120.941 50.494 119.799 50.814ZM113.55 60.753L102.688 73.752L108.617 79.032L119.48 66.032C119.144 65.867 118.819 65.665 118.524 65.402L114.292 61.634C113.997 61.371 113.758 61.072 113.55 60.753Z" fill="#1A1A1A"/>
<path d="M118.552 85.4948L117.303 88.7139L121.323 91.4249L123.713 89.3638L122.011 84.6528L118.552 85.4948ZM118.827 90.8939C115.749 95.4389 115.963 101.608 119.457 105.925C123.705 111.173 131.271 111.872 136.354 107.487C141.438 103.102 142.116 95.2919 137.868 90.0449C134.408 85.7709 128.647 84.4368 123.791 86.6688L124.435 88.1599C128.649 86.2239 133.649 87.3849 136.651 91.0939C140.338 95.6479 139.75 102.425 135.338 106.231C130.926 110.037 124.36 109.43 120.674 104.876C117.641 101.129 117.457 95.7708 120.128 91.8278L118.827 90.8939Z" fill="#1A1A1A"/>
<path d="M197.427 4.5166C201.37 12.8172 204.831 18.5574 204.706 29.3469C204.598 38.7762 197.252 46.6859 194.302 61.8483C194.22 62.2811 191.599 70.7914 191.237 72.6767C189.313 72.6722 184.734 73.0678 173.467 67.2456C161.108 60.8587 151.861 47.4635 151.82 47.4029C158.072 46.7406 162.624 41.1251 161.988 34.8157C161.553 30.5043 158.782 27.0296 155.092 25.4259L197.427 4.5166Z" fill="#FF5900"/>
<path d="M194.438 6.32414L207.86 -1.35839C207.86 -1.35839 210.84 -2.01049 213.212 -0.64412C215.588 0.722254 217.356 4.10712 217.356 4.10712L263.896 83.5479C263.896 83.5479 267.117 88.1577 264.581 92.4126C262.045 96.6678 250.725 106.401 241.376 109.085C232.024 111.77 209.711 100.232 209.711 100.232L194.438 6.32414Z" fill="#FF5900"/>
<path d="M116.347 78.2462C116.347 78.2462 135.378 78.9098 153.938 76.9961C172.498 75.0821 190.729 71.2183 190.729 71.2183L191.875 85.8968C191.875 85.8968 174.674 92.1394 155.687 94.3329C136.7 96.5259 117.876 92.8105 117.876 92.8105L116.347 78.2462Z" fill="#FF5900"/>
<path d="M97.1826 14.6311C94.9775 23.552 92.7369 29.8675 95.011 40.415C97.0006 49.6326 105.782 55.915 111.698 70.1829C111.868 70.5902 116.133 78.4058 116.868 80.1804C118.748 79.792 123.315 79.2649 133.191 71.3092C144.028 62.5818 150.41 47.6096 150.438 47.542C144.18 48.142 138.597 43.5493 137.961 37.2398C137.526 32.9284 139.549 28.97 142.841 26.6617L97.1826 14.6311Z" fill="#FF5900"/>
<path d="M149.215 21.5889C141.26 22.3915 135.465 29.4884 136.267 37.4421C137.07 45.3959 144.166 51.1917 152.121 50.389C160.075 49.5864 165.871 42.4898 165.068 34.5361C164.265 26.5824 157.169 20.7862 149.215 21.5889ZM149.739 26.7799C154.824 26.2668 159.362 29.9746 159.876 35.0601C160.389 40.1451 156.682 44.6849 151.597 45.198C146.512 45.7111 141.973 42.0037 141.46 36.9182C140.947 31.8328 144.653 27.293 149.739 26.7799Z" fill="#FFCA00" stroke="white" stroke-width="2" stroke-miterlimit="10" stroke-linejoin="round"/>
<path d="M100.476 15.8045L85.7901 10.9581C85.7901 10.9581 82.74 10.9145 80.6849 12.7276C78.6334 14.5407 77.577 18.2105 77.577 18.2105L47.8444 105.347C47.8444 105.347 45.6096 110.508 48.9445 114.17C52.2794 117.833 65.3119 125.109 75.0122 125.871C84.7124 126.634 104.271 110.87 104.271 110.87L100.476 15.8045Z" fill="#FF5900"/>
<path d="M98.4018 46.3984C97.7258 46.3869 97.0729 46.7776 96.7791 47.4364C96.3922 48.3146 96.7894 49.3401 97.6678 49.7291C98.8495 50.2459 99.6197 51.3292 100.263 52.4066C100.839 53.3606 101.311 54.3645 101.82 55.3531C102.194 56.0832 102.582 56.8078 102.97 57.532C105.326 61.9646 107.683 66.3969 110.046 70.827C111.228 73.0447 112.274 75.4027 114.087 77.1944C114.771 77.8692 115.543 78.4162 116.377 78.8866C117.215 79.357 118.276 79.059 118.747 78.2215C119.219 77.3837 118.919 76.3222 118.082 75.8517C117.611 75.5873 117.169 75.2997 116.765 74.9355C115.761 74.0235 115.053 72.8377 114.413 71.654C113.918 70.7332 113.439 69.7955 112.94 68.874C111.175 65.5857 109.429 62.2891 107.684 58.9905C106.759 57.2482 105.815 55.5164 104.915 53.7623C103.474 50.9598 102.129 47.9145 99.0744 46.5495C98.8548 46.452 98.6295 46.4024 98.4018 46.3984Z" fill="white"/>
<path d="M148.538 49.8523C148.059 49.8849 147.703 50.3065 147.734 50.7859C147.888 53.009 147.173 55.1405 146.244 57.1319C144.695 60.456 142.493 63.4162 140.441 66.4379C140.17 66.8355 140.274 67.3797 140.672 67.6493C141.07 67.9194 141.605 67.8161 141.873 67.4191C143.976 64.3191 146.226 61.2793 147.816 57.8696C148.871 55.607 149.641 53.1872 149.47 50.6653C149.439 50.1859 149.017 49.82 148.538 49.8523Z" fill="white"/>
<path d="M154.772 49.7042C154.324 49.8746 154.092 50.3774 154.263 50.8266C155.097 53.0218 156.064 55.1545 157.347 57.1266C158.447 58.8133 159.76 60.325 161.209 61.7199C161.554 62.0533 162.109 62.0397 162.441 61.6939C162.773 61.3481 162.76 60.806 162.415 60.4726C161.064 59.169 159.83 57.7586 158.804 56.182C157.587 54.3147 156.683 52.2812 155.893 50.2031C155.725 49.7539 155.22 49.5341 154.772 49.7042Z" fill="white"/>
<path d="M116.162 78.3838C115.691 78.4622 115.366 78.9115 115.445 79.385C116.215 84.0333 116.888 88.7 117.143 93.4087C117.324 96.759 117.277 100.108 117.02 103.453C116.985 103.932 117.335 104.352 117.814 104.389C118.293 104.426 118.715 104.063 118.75 103.584C119.014 100.164 119.067 96.7463 118.883 93.3206C118.625 88.5479 117.934 83.815 117.154 79.1034C117.075 78.6295 116.637 78.3052 116.162 78.3838Z" fill="white"/>
<path d="M190.442 71.075C189.966 71.1041 189.599 71.5189 189.63 71.9983C189.9 76.3801 190.192 80.762 190.768 85.1169C191.181 88.2444 191.749 91.3416 192.502 94.405C192.616 94.8716 193.096 95.1557 193.56 95.0414C194.027 94.9268 194.312 94.4602 194.199 93.9933C193.462 90.9911 192.9 87.9527 192.493 84.8879C191.922 80.5735 191.637 76.2297 191.367 71.8884C191.336 71.4093 190.922 71.0451 190.442 71.075Z" fill="white"/>
<path d="M138.295 77.1125C137.815 77.1098 137.424 77.4961 137.42 77.9766C137.416 78.4572 137.805 78.8484 138.285 78.851C142.529 78.8739 146.771 78.742 151.005 78.4198C156.921 77.9696 162.806 77.1702 168.654 76.1801C169.129 76.0997 169.444 75.6532 169.365 75.1797C169.282 74.7061 168.838 74.3918 168.363 74.4719C162.567 75.4533 156.736 76.2385 150.871 76.6848C146.686 77.0035 142.49 77.1354 138.295 77.1125Z" fill="white"/>
<path d="M96.6253 13.9588C96.1463 13.9246 95.7348 14.2833 95.7027 14.7621C95.6672 15.2416 96.0268 15.6522 96.5059 15.6868C102.124 16.0882 107.723 16.7569 113.345 17.0908C115.178 17.1999 117.003 17.2703 118.84 17.2797C119.715 17.2845 120.6 17.292 121.478 17.221C122.05 17.1747 122.617 17.1105 123.187 17.0377C124.792 16.832 126.437 16.5363 128.065 16.6546C129.1 16.7305 130.138 17.0007 130.973 17.6508C131.357 17.9513 131.659 18.3159 131.944 18.711C132.221 19.1019 132.764 19.1852 133.152 18.9062C133.544 18.6264 133.64 18.0846 133.359 17.694C132.98 17.1633 132.554 16.679 132.037 16.2758C129.02 13.9216 124.778 15.2073 121.334 15.487C120.186 15.5805 119.015 15.5514 117.863 15.5313C116.22 15.503 114.586 15.4255 112.947 15.328C107.498 15.0043 102.071 14.3483 96.6253 13.9588Z" fill="white"/>
<path d="M198.68 2.59079C189.829 5.53023 181.002 8.80545 171.771 10.3435C170.602 10.5385 169.457 10.6281 168.269 10.5987C166.036 10.5436 163.56 10.165 161.605 11.5113C161.183 11.8025 160.807 12.1611 160.476 12.5544C159.836 13.3207 159.391 14.2098 159.011 15.1279C158.825 15.5719 159.041 16.0764 159.486 16.2602C159.928 16.4443 160.435 16.2399 160.618 15.7963C161.059 14.7283 161.614 13.6168 162.592 12.9416C163.88 12.0535 165.594 12.2296 167.072 12.293C168.084 12.336 169.102 12.3791 170.113 12.3138C170.77 12.2713 171.407 12.1714 172.053 12.0635C181.376 10.5098 190.292 7.20849 199.228 4.24024C199.685 4.08855 199.936 3.60158 199.785 3.14578C199.635 2.68999 199.134 2.43944 198.68 2.59079Z" fill="white"/>
<path d="M200.03 37.8706C199.386 38.0778 198.893 38.6619 198.829 39.3796C198.671 41.172 198.307 42.9019 197.752 44.6133C196.938 47.1163 195.809 49.5112 194.977 52.0073C193.927 55.1589 193.475 58.4374 192.763 61.6721C192.353 63.5343 191.857 65.4537 190.933 67.1346C190.433 68.0365 189.806 68.826 188.878 69.298C188.024 69.7378 187.689 70.7922 188.129 71.6466C188.568 72.5009 189.612 72.8337 190.467 72.3943C192.849 71.158 194.164 68.8723 195.043 66.425C196.404 62.6562 196.701 58.6315 197.761 54.7861C198.618 51.6734 200.065 48.7544 201.06 45.6891C201.698 43.7287 202.106 41.7391 202.29 39.686C202.376 38.7291 201.672 37.8868 200.712 37.8018C200.475 37.7802 200.247 37.8011 200.03 37.8706Z" fill="white"/>
<path d="M102.306 50.5394C101.825 50.5536 101.442 50.9538 101.456 51.434C101.707 60.0591 101.767 68.6882 101.829 77.3166C101.86 81.6412 101.907 85.9578 102.001 90.2813C102.032 91.7973 102.048 93.3122 102.11 94.8271C102.262 98.6167 102.95 102.358 103.445 106.112C103.567 107.053 103.793 107.966 103.933 108.904C104.027 109.523 104.092 110.243 103.812 110.828C103.612 111.242 103.258 111.579 102.91 111.87C102.327 112.362 101.667 112.759 100.993 113.113C98.6717 114.329 96.1276 115.246 93.5753 115.839C93.1072 115.948 92.8181 116.409 92.9247 116.877C93.0349 117.345 93.5047 117.634 93.9728 117.525C95.4488 117.182 96.9021 116.719 98.321 116.191C99.7028 115.676 101.064 115.093 102.342 114.353C103.502 113.682 104.772 112.824 105.374 111.578C106.172 109.921 105.477 108.091 105.242 106.39C104.733 102.695 104.065 98.9903 103.867 95.2617C103.771 93.4432 103.773 91.6209 103.732 89.8006C103.65 85.932 103.605 82.0582 103.578 78.1892C103.512 69.2503 103.46 60.3137 103.199 51.3784C103.185 50.8979 102.787 50.5254 102.306 50.5394Z" fill="white"/>
<path d="M51.9646 91.7021C51.761 91.7982 51.5999 91.9687 51.5213 92.1948C51.1076 93.3625 50.6431 94.5116 50.1673 95.6534C49.7925 96.548 49.4068 97.4387 49.0392 98.3354C48.7328 99.0768 48.4412 99.8252 48.1604 100.577C46.5306 104.941 45.2168 110.184 47.9998 114.372C48.4694 115.076 49.0232 115.713 49.6472 116.283C50.383 116.956 51.2231 117.587 52.1177 118.033C53.848 118.893 55.841 118.959 57.695 119.383C58.1639 119.489 58.6277 119.2 58.7343 118.731C58.8409 118.263 58.5494 117.8 58.084 117.693C57.0891 117.467 56.0748 117.327 55.0762 117.134C54.3344 116.99 53.5724 116.82 52.8912 116.48C52.1399 116.104 51.4346 115.56 50.8181 114.995C50.2982 114.521 49.8323 113.993 49.4445 113.407C47.0084 109.746 48.3717 104.958 49.7841 101.178C50.0563 100.445 50.3476 99.7273 50.6453 99.0038C51.0132 98.1099 51.3879 97.2147 51.763 96.3229C52.2532 95.1506 52.7391 93.9704 53.1637 92.7722C53.3243 92.3192 53.079 91.8285 52.6256 91.668C52.4008 91.5879 52.1648 91.6064 51.9646 91.7021Z" fill="white"/>
<path d="M200.05 42.7098C199.597 42.8646 199.35 43.3592 199.507 43.8136C201.242 48.9107 201.912 54.263 202.884 59.5363C203.385 62.2472 203.931 64.9515 204.414 67.6652C204.943 70.6202 205.343 73.5818 205.717 76.5597C205.894 77.9588 206.098 79.3656 206.23 80.77C206.372 82.3225 206.439 83.882 206.536 85.4377C206.726 88.5277 206.963 91.6376 207.587 94.6749C208.086 97.0909 208.815 99.6317 210.353 101.608C210.747 102.114 211.188 102.571 211.703 102.958C213.948 104.652 216.891 104.468 219.528 104.157C220.533 104.039 221.543 103.925 222.532 103.712C223.655 103.471 224.734 103.115 225.805 102.704C226.256 102.532 226.488 102.031 226.317 101.582C226.143 101.134 225.631 100.912 225.183 101.084C224.197 101.463 223.198 101.789 222.164 102.012C220.809 102.303 219.4 102.446 218.024 102.561C215.801 102.746 213.541 102.63 211.968 100.833C210.438 99.0846 209.748 96.5431 209.289 94.3175C208.385 89.9331 208.359 85.4511 207.991 81.0074C207.862 79.4486 207.64 77.9043 207.445 76.3529C207.182 74.2642 206.921 72.169 206.593 70.0897C206.019 66.4504 205.257 62.8448 204.59 59.2222C203.602 53.8633 202.918 48.4336 201.154 43.2541C201 42.7993 200.506 42.5546 200.05 42.7098Z" fill="white"/>
<path d="M258.243 71.9813C258.027 71.9213 257.794 71.9408 257.583 72.0587C257.166 72.2935 257.019 72.8201 257.254 73.2391C257.893 74.3737 258.589 75.482 259.277 76.5865C259.758 77.365 260.234 78.1355 260.702 78.9234C261.085 79.568 261.463 80.2268 261.82 80.887C262.169 81.5375 262.5 82.1905 262.806 82.8636C263.973 85.4517 265.026 88.8154 263.341 91.4206C263.054 91.8664 262.696 92.2728 262.305 92.6287C261.76 93.1218 261.134 93.5343 260.483 93.8728C259.566 94.3496 258.489 94.2761 257.484 94.3719C257.006 94.4177 256.66 94.8354 256.705 95.3138C256.753 95.7918 257.17 96.1494 257.648 96.1036C258.899 95.9841 260.139 96.0104 261.286 95.4198C262.16 94.9696 262.987 94.3985 263.691 93.7127C264.175 93.2439 264.597 92.7125 264.941 92.1333C267.203 88.3232 265.247 83.5928 263.353 80.0657C262.986 79.383 262.593 78.7062 262.197 78.0402C261.725 77.2416 261.236 76.4507 260.744 75.6629C260.072 74.5803 259.4 73.509 258.778 72.3973C258.659 72.188 258.459 72.0413 258.243 71.9813Z" fill="white"/>
<path d="M83.3827 17.4258C83.1668 17.365 82.9208 17.3878 82.7123 17.5043C82.2918 17.738 82.1491 18.265 82.3838 18.6851C83.657 20.9757 84.9432 23.2563 86.2032 25.5556C88.7199 30.1546 91.1538 34.799 93.6107 39.4292C93.8388 39.8531 94.3728 40.0157 94.7942 39.7906C95.219 39.5652 95.3829 39.0416 95.1583 38.6174C92.6972 33.9806 90.2453 29.3297 87.7244 24.7245C86.464 22.4217 85.1706 20.1383 83.8936 17.8442C83.778 17.6342 83.5952 17.4869 83.3827 17.4258Z" fill="white"/>
<path d="M208.407 9.54253C207.943 9.42005 207.468 9.69881 207.344 10.1635C205.512 17.1035 203.949 24.1052 202.128 31.048C202.007 31.5123 202.286 31.9888 202.75 32.1106C203.217 32.2324 203.692 31.9543 203.813 31.49C205.634 24.5482 207.197 17.5445 209.028 10.6055C209.149 10.1411 208.87 9.66536 208.407 9.54253Z" fill="white"/>
<path d="M210.931 2.08638C210.716 2.13712 210.519 2.2647 210.393 2.46871C209.931 3.61156 210.097 3.17867 209.927 3.60844C209.8 3.93605 210.187 2.95495 210.3 2.62008C210.316 2.57195 210.242 2.70634 210.215 2.74895C210.191 2.78636 210.174 2.82756 210.15 2.86463C210.092 2.95192 210.024 3.03749 209.966 3.12374C209.745 3.45974 209.618 3.76381 209.556 4.15956C209.542 4.26205 209.528 4.36731 209.514 4.46979C209.505 4.51377 209.476 4.64361 209.493 4.60309C209.803 3.89659 209.489 4.60517 209.466 4.75856C209.385 5.23257 209.703 5.67852 210.179 5.75772C210.652 5.83727 211.11 5.51767 211.188 5.04401C211.531 4.21631 211.4 4.546 211.53 4.21146C211.619 3.98255 211.335 4.66203 211.213 4.87747C211.193 4.91903 211.225 4.79195 211.234 4.74417C211.252 4.63787 211.262 4.52916 211.279 4.42287C211.281 4.40902 211.332 4.15625 211.296 4.27918C211.293 4.28784 211.301 4.26429 211.304 4.25632C211.316 4.23796 211.331 4.21545 211.344 4.19778C211.368 4.15968 211.392 4.11916 211.419 4.0807C211.48 3.98925 211.538 3.90369 211.598 3.81155C211.626 3.77033 211.659 3.72356 211.683 3.68269C211.714 3.63558 211.786 3.49081 211.767 3.5431C211.584 4.04628 211.775 3.5476 211.874 3.38999C212.127 2.9823 211.995 2.43786 211.588 2.18412C211.383 2.05759 211.15 2.03564 210.931 2.08638Z" fill="white"/>
<path d="M180.362 88.1011C171.332 91.4191 161.783 93.0208 152.203 93.5542C151.723 93.5805 151.363 93.9977 151.391 94.4775C151.418 94.9569 151.822 95.319 152.302 95.2926C162.055 94.7494 171.772 93.1116 180.96 89.7343C181.412 89.5687 181.637 89.0627 181.473 88.6118C181.305 88.1612 180.81 87.9356 180.362 88.1011Z" fill="white"/>
<path d="M135.145 93.8651C134.665 93.8562 134.267 94.2394 134.256 94.7199C134.248 95.2001 134.631 95.5968 135.111 95.6061C137.662 95.6547 140.208 95.8006 142.757 95.9057C143.238 95.925 143.638 95.5514 143.659 95.0712C143.677 94.5918 143.314 94.1801 142.833 94.1604C140.273 94.0547 137.706 93.9144 135.145 93.8651Z" fill="white"/>
<path d="M117.503 106.375C117.503 106.375 146.978 115.278 169.771 110.221C192.567 105.164 193.856 97.9075 193.856 97.9075C193.856 97.9075 200.789 100.424 211.908 123.325C223.027 146.226 228.481 174.904 228.481 174.904C228.481 174.904 177.928 182.297 152.916 183.482C127.907 184.667 104.302 182.639 104.302 182.639C104.302 182.639 108.198 145.535 110.536 132.769C112.723 120.824 117.503 106.375 117.503 106.375Z" fill="#FF5900"/>
<path d="M135.098 133.046C134.893 133.13 134.715 133.298 134.622 133.52C134.436 133.963 134.654 134.466 135.096 134.652C141.781 137.449 148.53 140.084 155.461 142.202C161.36 144.005 167.354 145.389 173.429 146.443C173.903 146.525 174.357 146.214 174.439 145.741C174.52 145.267 174.198 144.813 173.725 144.731C167.721 143.688 161.803 142.326 155.972 140.544C149.095 138.443 142.394 135.829 135.767 133.054C135.544 132.962 135.303 132.961 135.098 133.046Z" fill="white"/>
</g>
</g>
<defs>
<clipPath id="clip0_1280_10692">
<rect width="310" height="140" fill="white"/>
</clipPath>
</defs>
</svg>
