<svg width="635" height="515" viewBox="0 0 635 515" fill="none" xmlns="http://www.w3.org/2000/svg">
<path d="M462.802 14.615C471.682 39.49 479.922 56.904 476.452 87.723C473.422 114.657 450.132 135.157 437.322 177.666C436.962 178.88 427.012 202.461 425.432 207.748C419.932 207.18 406.722 206.99 376.182 187.089C342.682 165.258 320.102 124.283 320.002 124.098C338.072 124.008 352.712 109.263 352.712 91.036C352.712 78.581 345.792 67.845 335.702 62.194L462.802 14.615Z" fill="#FF5900"/>
<path d="M453.731 18.921L494.332 0.823989C494.332 0.823989 503.041 -0.181005 509.431 4.41099C515.831 9.00399 519.911 19.194 519.911 19.194L630.082 259.802C630.082 259.802 637.961 273.914 629.481 285.35C621.001 296.787 585.822 321.355 558.312 326.334C530.792 331.313 470.312 291.878 470.312 291.878L453.731 18.921Z" fill="#FF5900"/>
<path d="M209.662 202.066C209.662 202.066 263.892 209.455 317.522 209.338C371.152 209.22 424.402 203.431 424.402 203.431L423.442 245.738C423.442 245.738 372.452 258.627 317.522 259.421C262.592 260.214 209.832 244.157 209.832 244.157L209.662 202.066Z" fill="#FF5900"/>
<path d="M173.212 14.615C164.332 39.49 156.102 56.904 159.562 87.723C162.592 114.657 185.892 135.157 198.692 177.666C199.062 178.88 209.002 202.461 210.592 207.748C216.082 207.18 229.292 206.99 259.832 187.089C293.342 165.258 315.912 124.283 316.012 124.098C297.942 124.008 283.302 109.263 283.302 91.036C283.302 78.581 290.232 67.845 300.312 62.194L173.212 14.615Z" fill="#FF5900"/>
<path d="M320.001 49.526C297.021 49.526 278.401 68.149 278.401 91.126C278.401 114.103 297.021 132.725 320.001 132.725C342.981 132.725 361.602 114.103 361.602 91.126C361.602 68.149 342.981 49.526 320.001 49.526ZM320.001 64.522C334.691 64.522 346.602 76.435 346.602 91.126C346.602 105.816 334.691 117.729 320.001 117.729C305.311 117.729 293.401 105.817 293.401 91.126C293.401 76.435 305.311 64.522 320.001 64.522Z" fill="#FFCA00" stroke="black" stroke-width="5" stroke-miterlimit="10" stroke-linejoin="round"/>
<path d="M182.292 18.921L141.692 0.823989C141.692 0.823989 132.982 -0.181005 126.582 4.41099C120.192 9.00399 116.112 19.194 116.112 19.194L5.94225 259.802C5.94225 259.802 -1.93765 273.914 6.54235 285.35C15.0223 296.787 50.1923 321.355 77.7123 326.334C105.232 331.313 165.712 291.878 165.712 291.878L182.292 18.921Z" fill="#FF5900"/>
<path d="M167.532 105.812C165.602 105.584 163.622 106.513 162.592 108.312C161.232 110.712 162.072 113.759 164.472 115.125C167.702 116.944 169.592 120.264 171.122 123.531C172.492 126.425 173.552 129.432 174.722 132.406C175.582 134.602 176.482 136.786 177.382 138.969C182.842 152.325 188.302 165.68 193.782 179.031C196.522 185.714 198.832 192.759 203.502 198.406C205.262 200.533 207.312 202.32 209.562 203.906C211.822 205.493 214.942 204.947 216.532 202.688C218.122 200.428 217.572 197.306 215.312 195.719C214.042 194.827 212.862 193.877 211.812 192.719C209.202 189.821 207.522 186.226 206.032 182.656C204.882 179.88 203.782 177.06 202.622 174.281C198.522 164.368 194.482 154.437 190.442 144.5C188.302 139.251 186.102 134.026 184.032 128.75C180.722 120.32 177.752 111.223 169.412 106.438C168.812 106.096 168.182 105.889 167.532 105.812Z" fill="black"/>
<path d="M309.912 130.156C308.532 130.111 307.392 131.214 307.342 132.594C307.142 138.996 304.482 144.885 301.252 150.312C295.862 159.371 288.712 167.201 281.972 175.25C281.082 176.309 281.222 177.895 282.282 178.781C283.342 179.668 284.902 179.527 285.782 178.469C292.692 170.211 300.002 162.167 305.532 152.875C309.202 146.709 312.102 140.011 312.342 132.75C312.392 131.37 311.292 130.202 309.912 130.156Z" fill="black"/>
<path d="M327.782 131.531C326.452 131.889 325.642 133.26 326.002 134.594C327.752 141.112 329.902 147.49 333.002 153.5C335.662 158.641 338.982 163.343 342.722 167.75C343.612 168.803 345.202 168.924 346.252 168.031C347.302 167.138 347.422 165.584 346.532 164.531C343.042 160.413 339.922 156.024 337.442 151.219C334.502 145.528 332.502 139.452 330.842 133.281C330.492 131.948 329.112 131.174 327.782 131.531Z" fill="black"/>
<path d="M209.092 202.406C207.722 202.494 206.662 203.685 206.752 205.062C207.612 218.577 208.192 232.117 207.562 245.656C207.112 255.289 206.012 264.854 204.312 274.344C204.072 275.703 204.952 277.006 206.312 277.25C207.672 277.494 208.982 276.578 209.222 275.219C210.962 265.515 212.102 255.756 212.562 245.906C213.202 232.183 212.592 218.449 211.722 204.75C211.632 203.372 210.472 202.318 209.092 202.406Z" fill="black"/>
<path d="M423.621 202.938C422.251 202.884 421.081 203.964 421.031 205.344C420.541 217.953 420.111 230.568 420.501 243.188C420.781 252.251 421.511 261.272 422.781 270.25C422.971 271.617 424.261 272.568 425.621 272.375C426.991 272.182 427.941 270.93 427.751 269.562C426.511 260.764 425.781 251.913 425.501 243.031C425.111 230.528 425.551 218.024 426.031 205.531C426.081 204.152 425.001 202.991 423.621 202.938Z" fill="black"/>
<path d="M272.751 205.156C271.381 205.01 270.151 206.002 270.001 207.375C269.851 208.748 270.851 209.979 272.221 210.125C284.351 211.415 296.521 212.262 308.721 212.562C325.771 212.982 342.831 212.394 359.841 211.25C361.221 211.157 362.251 209.971 362.161 208.594C362.061 207.216 360.881 206.189 359.501 206.281C342.641 207.415 325.741 207.978 308.841 207.562C296.781 207.266 284.741 206.432 272.751 205.156Z" fill="black"/>
<path d="M171.812 12.531C170.452 12.295 169.172 13.202 168.942 14.562C168.702 15.923 169.612 17.201 170.972 17.438C186.922 20.207 202.742 23.735 218.722 26.312C223.932 27.153 229.132 27.881 234.382 28.438C236.882 28.704 239.412 28.981 241.942 29.031C243.592 29.064 245.232 29.044 246.882 29C251.532 28.875 256.322 28.504 260.942 29.312C263.882 29.828 266.772 30.9 268.972 33C269.982 33.97 270.742 35.1 271.442 36.312C272.122 37.51 273.652 37.905 274.842 37.219C276.042 36.532 276.472 35.01 275.782 33.812C274.852 32.185 273.772 30.677 272.412 29.375C264.462 21.772 251.962 24.225 242.032 24.031C238.722 23.967 235.382 23.546 232.092 23.156C227.402 22.601 222.752 21.908 218.092 21.156C202.602 18.658 187.272 15.216 171.812 12.531Z" fill="black"/>
<path d="M466.941 9.46902C440.781 15.321 414.591 22.14 387.751 23.875C384.351 24.095 381.051 24.021 377.661 23.594C371.291 22.792 364.322 20.995 358.342 24.281C357.052 24.992 355.872 25.909 354.812 26.938C352.762 28.945 351.231 31.359 349.881 33.875C349.221 35.091 349.691 36.596 350.911 37.25C352.121 37.904 353.632 37.466 354.282 36.25C355.852 33.323 357.761 30.305 360.751 28.656C364.691 26.488 369.541 27.486 373.751 28.094C376.631 28.509 379.531 28.926 382.441 29.031C384.331 29.099 386.182 28.997 388.062 28.875C415.172 27.122 441.622 20.254 468.032 14.344C469.382 14.042 470.241 12.722 469.941 11.375C469.641 10.028 468.281 9.16702 466.941 9.46902Z" fill="black"/>
<path d="M460.622 110.75C458.722 111.157 457.142 112.685 456.752 114.719C455.782 119.799 454.241 124.641 452.161 129.375C449.111 136.298 445.192 142.821 442.092 149.719C438.182 158.429 435.942 167.674 432.972 176.719C431.262 181.926 429.291 187.272 426.161 191.812C424.471 194.247 422.451 196.324 419.661 197.406C417.091 198.417 415.832 201.336 416.842 203.906C417.852 206.476 420.742 207.729 423.312 206.719C430.482 203.871 434.902 197.714 438.122 190.969C443.102 180.584 445.112 169.16 449.252 158.469C452.602 149.815 457.582 141.885 461.312 133.406C463.702 127.984 465.442 122.412 466.562 116.594C467.082 113.882 465.312 111.27 462.592 110.75C461.922 110.62 461.262 110.614 460.622 110.75Z" fill="black"/>
<path d="M177.501 118.781C176.121 118.683 174.911 119.717 174.811 121.094C173.041 145.832 170.721 170.526 168.411 195.219C167.251 207.595 166.141 219.953 165.161 232.344C164.811 236.688 164.421 241.025 164.161 245.375C163.501 256.256 164.391 267.155 164.721 278.031C164.801 280.758 165.181 283.435 165.311 286.156C165.401 287.954 165.381 290.031 164.411 291.625C163.721 292.749 162.611 293.611 161.531 294.344C159.721 295.581 157.721 296.526 155.691 297.344C148.701 300.154 141.161 302.041 133.691 303C132.321 303.176 131.361 304.412 131.531 305.781C131.711 307.151 132.971 308.113 134.341 307.938C138.661 307.383 142.951 306.476 147.161 305.375C151.261 304.302 155.321 303.028 159.191 301.281C162.701 299.695 166.581 297.61 168.661 294.219C171.421 289.71 169.961 284.276 169.781 279.344C169.391 268.632 168.551 257.845 169.061 247.125C169.311 241.897 169.841 236.686 170.251 231.469C171.131 220.382 172.121 209.291 173.161 198.219C175.551 172.637 177.981 147.066 179.811 121.438C179.911 120.06 178.881 118.88 177.501 118.781Z" fill="black"/>
<path d="M21.6615 221.969C21.0515 222.185 20.5416 222.626 20.2516 223.25C18.7316 226.47 17.0715 229.622 15.3815 232.75C14.0515 235.2 12.6915 237.636 11.3815 240.094C10.2915 242.126 9.24159 244.182 8.22159 246.25C2.30159 258.26 -2.96835 272.874 3.78165 285.656C4.92165 287.803 6.32156 289.785 7.94156 291.594C9.85156 293.731 12.0716 295.78 14.5016 297.312C19.2016 300.27 24.8817 301.036 30.0617 302.781C31.3717 303.222 32.7816 302.527 33.2216 301.219C33.6616 299.91 32.9615 298.503 31.6615 298.062C28.8815 297.128 26.0216 296.434 23.2216 295.594C21.1416 294.97 19.0115 294.264 17.1615 293.094C15.1215 291.803 13.2615 290.043 11.6615 288.25C10.3115 286.745 9.13156 285.1 8.19156 283.312C2.28156 272.139 7.56156 258.841 12.6916 248.438C13.6816 246.42 14.7216 244.452 15.7816 242.469C17.0916 240.019 18.4216 237.567 19.7516 235.125C21.4916 231.914 23.2216 228.679 24.7816 225.375C25.3716 224.126 24.8117 222.652 23.5617 222.062C22.9417 221.768 22.2615 221.753 21.6615 221.969Z" fill="black"/>
<path d="M459.281 124.594C457.941 124.906 457.091 126.249 457.411 127.594C460.901 142.671 461.271 158.17 462.531 173.531C463.181 181.428 463.961 189.319 464.561 197.219C465.221 205.822 465.511 214.407 465.721 223.031C465.821 227.083 466.001 231.165 465.971 235.219C465.931 239.7 465.671 244.179 465.501 248.656C465.151 257.547 464.931 266.509 465.841 275.375C466.571 282.428 467.921 289.904 471.751 296C472.731 297.562 473.861 298.994 475.221 300.25C481.151 305.743 489.621 306.065 497.251 305.938C500.161 305.889 503.081 305.854 505.971 305.531C509.251 305.165 512.441 304.459 515.621 303.594C516.961 303.231 517.771 301.864 517.411 300.531C517.041 299.199 515.641 298.419 514.311 298.781C511.381 299.58 508.431 300.225 505.411 300.562C501.451 301.004 497.381 301.007 493.411 300.938C487.001 300.826 480.571 299.841 476.591 294.25C472.721 288.808 471.481 281.341 470.811 274.844C469.491 262.045 470.711 249.22 470.941 236.406C471.021 231.911 470.831 227.431 470.721 222.938C470.571 216.889 470.431 210.822 470.091 204.781C469.501 194.208 468.361 183.677 467.501 173.125C466.221 157.515 465.831 141.79 462.281 126.469C461.971 125.124 460.631 124.282 459.281 124.594Z" fill="black"/>
<path d="M617.251 225.094C616.651 224.86 615.981 224.849 615.341 225.125C614.081 225.676 613.511 227.14 614.061 228.406C615.561 231.835 617.231 235.205 618.881 238.562C620.031 240.927 621.171 243.268 622.281 245.656C623.191 247.61 624.081 249.603 624.911 251.594C625.721 253.555 626.481 255.518 627.161 257.531C629.751 265.269 631.791 275.192 626.221 282.156C625.271 283.348 624.131 284.407 622.911 285.312C621.211 286.565 619.301 287.564 617.341 288.344C614.581 289.443 611.521 288.922 608.621 288.906C607.241 288.899 606.131 289.994 606.121 291.375C606.121 292.756 607.211 293.899 608.591 293.906C612.201 293.925 615.741 294.358 619.191 293C621.821 291.965 624.351 290.57 626.561 288.812C628.081 287.611 629.441 286.213 630.591 284.656C638.161 274.413 633.931 260.321 629.531 249.688C628.681 247.63 627.751 245.581 626.811 243.562C625.691 241.142 624.521 238.739 623.341 236.344C621.731 233.054 620.121 229.797 618.661 226.438C618.381 225.805 617.851 225.328 617.251 225.094Z" fill="black"/>
<path d="M132.942 18.625C132.342 18.389 131.632 18.383 131.002 18.656C129.732 19.203 129.172 20.669 129.722 21.938C132.702 28.856 135.722 35.749 138.662 42.688C144.532 56.566 150.152 70.55 155.842 84.5C156.372 85.778 157.852 86.397 159.122 85.875C160.402 85.353 161.022 83.903 160.502 82.625C154.802 68.655 149.132 54.647 143.252 40.75C140.312 33.801 137.272 26.898 134.282 19.969C134.012 19.335 133.532 18.861 132.942 18.625Z" fill="black"/>
<path d="M492.75 32.156C491.46 31.672 490.02 32.332 489.53 33.625C482.29 52.943 475.8 72.515 468.59 91.844C468.11 93.137 468.77 94.58 470.06 95.062C471.36 95.545 472.8 94.887 473.28 93.594C480.49 74.268 486.98 54.69 494.22 35.375C494.7 34.082 494.04 32.641 492.75 32.156Z" fill="black"/>
<path d="M502.12 11.5619C501.49 11.6449 500.89 11.9529 500.47 12.4999C498.82 15.6349 499.42 14.4449 498.81 15.6249C498.35 16.5249 499.74 13.8309 500.16 12.9059C500.22 12.7729 499.97 13.1359 499.88 13.2499C499.8 13.3499 499.74 13.4629 499.66 13.5619C499.47 13.7949 499.25 14.0199 499.06 14.2499C498.33 15.1469 497.88 15.9799 497.59 17.0939C497.52 17.3829 497.45 17.6799 497.38 17.9689C497.34 18.0919 497.22 18.4549 497.28 18.3439C498.37 16.4129 497.27 18.3489 497.16 18.7809C496.79 20.1129 497.57 21.4799 498.91 21.8439C500.24 22.2079 501.64 21.4259 502 20.0939C503.22 17.8259 502.75 18.7309 503.22 17.8119C503.54 17.1829 502.53 19.0439 502.12 19.6249C502.05 19.7379 502.18 19.3839 502.22 19.2499C502.3 18.9509 502.36 18.6429 502.44 18.3439C502.45 18.3049 502.67 17.5969 502.53 17.9379C502.52 17.9619 502.55 17.8969 502.56 17.8749C502.6 17.8259 502.65 17.7659 502.69 17.7189C502.77 17.6169 502.85 17.5079 502.94 17.4059C503.14 17.1619 503.33 16.9339 503.53 16.6879C503.62 16.5779 503.73 16.4539 503.81 16.3439C503.91 16.2179 504.16 15.8249 504.09 15.9689C503.42 17.3549 504.11 15.9839 504.44 15.5619C505.28 14.4689 505.06 12.8739 503.97 12.0309C503.42 11.6099 502.76 11.4799 502.12 11.5619Z" fill="black"/>
<path d="M389.882 248.719C363.102 255.602 335.332 257.427 307.782 256.188C306.402 256.125 305.252 257.214 305.192 258.594C305.132 259.973 306.182 261.125 307.562 261.188C335.612 262.449 363.872 260.569 391.122 253.562C392.462 253.219 393.252 251.837 392.912 250.5C392.562 249.163 391.212 248.375 389.882 248.719Z" fill="black"/>
<path d="M258.911 252.156C257.541 251.992 256.292 252.973 256.122 254.344C255.962 255.715 256.942 256.96 258.312 257.125C265.592 258 272.832 259.152 280.092 260.188C281.462 260.382 282.711 259.429 282.911 258.062C283.101 256.696 282.182 255.414 280.812 255.219C273.522 254.178 266.221 253.036 258.911 252.156Z" fill="black"/>
<path d="M204.852 282.839C204.852 282.839 286.572 316.804 353.212 308.92C419.862 301.036 425.642 280.657 425.642 280.657C425.642 280.657 444.742 289.855 469.932 358.553C495.122 427.251 502.442 510.836 502.442 510.836C502.442 510.836 355.742 517.392 283.872 513.564C212.012 509.736 145.092 497.125 145.092 497.125C145.092 497.125 166.942 392.141 177.312 356.31C187.012 322.781 204.852 282.839 204.852 282.839Z" fill="#FF5900"/>
<path d="M247.471 364.188C246.861 364.37 246.301 364.799 245.971 365.406C245.311 366.62 245.791 368.123 247.001 368.781C265.311 378.708 283.851 388.191 303.061 396.25C319.411 403.107 336.151 408.793 353.221 413.562C354.551 413.934 355.941 413.173 356.311 411.844C356.681 410.514 355.891 409.122 354.561 408.75C337.691 404.036 321.161 398.433 305.001 391.656C285.941 383.662 267.531 374.254 249.381 364.406C248.771 364.077 248.081 364.005 247.471 364.188Z" fill="black"/>
<path d="M284.881 403.719C283.511 403.509 282.241 404.448 282.031 405.812C281.821 407.177 282.761 408.447 284.121 408.656C296.331 410.529 308.541 412.475 320.721 414.531C322.081 414.761 323.361 413.83 323.591 412.469C323.821 411.107 322.891 409.824 321.531 409.594C309.331 407.533 297.111 405.595 284.881 403.719Z" fill="black"/>
</svg>
