<svg width="287" height="148" viewBox="0 0 287 148" fill="none" xmlns="http://www.w3.org/2000/svg">
<path d="M55.1963 65.0044L77.3684 78.8086L96.119 65.3819" stroke="black" stroke-width="5" stroke-miterlimit="10" stroke-linecap="round" stroke-linejoin="round"/>
<path d="M51.667 87.2943L76.1582 102.694L100.515 87.2268" stroke="black" stroke-width="5" stroke-miterlimit="10" stroke-linecap="round" stroke-linejoin="round"/>
<path d="M96.1195 111.161C111.416 108.676 132.993 76.8755 132.993 76.8755L112.624 74.6703L112.732 74.1184C112.732 74.1184 116.814 69.6871 122.09 66.2737C127.366 62.8604 134.812 60.3698 134.812 60.3698L124.489 54.0964L126.346 37.4255L109.426 39.1381L103.598 32.3235C103.598 32.3235 101.245 38.8603 97.9439 43.4593C94.6427 48.058 91.2664 51.6142 91.2664 51.6142L91.0053 51.7136C91.0053 51.7136 90.8115 45.6914 92.1822 39.5589C93.553 33.4263 97.1191 26.4309 97.1191 26.4309L85.3584 29.1918L74.9982 16L64.1308 29.0794L55.1968 28.304C55.1968 28.304 58.1005 34.6156 58.9688 40.2096C59.8375 45.8035 59.9218 50.7065 59.9218 50.7065L59.96 50.8195C59.96 50.8195 56.7836 47.0836 53.7391 42.3111C50.6945 37.5382 48.7035 30.8824 48.7035 30.8824L42.51 37.3676L25.7108 34.7315L26.6516 51.4789L16 57.1777C16 57.1777 23.2987 60.0722 28.3801 63.7693C33.4613 67.4666 37.2951 72.1146 37.2951 72.1146L36.3676 72.8687L16 75.0739C16 75.0739 37.5781 106.874 52.8736 109.36" stroke="black" stroke-width="5" stroke-miterlimit="10" stroke-linecap="round" stroke-linejoin="round"/>
<path d="M75.4064 53.085C75.4064 53.085 76.1484 73.8794 76.0907 90.5082C76.0655 97.8 73.6914 121.348 71.3379 132" stroke="black" stroke-width="6" stroke-miterlimit="10" stroke-linecap="round" stroke-linejoin="round"/>
<path d="M155.954 70.384C150.962 70.384 147.922 66.8 147.922 62C147.922 57.2 150.962 53.616 155.954 53.616C160.946 53.616 163.986 57.2 163.986 62C163.986 66.8 160.946 70.384 155.954 70.384ZM155.954 65.744C157.906 65.744 159.506 64.72 159.506 62C159.506 59.28 157.906 58.256 155.954 58.256C154.002 58.256 152.402 59.28 152.402 62C152.402 64.72 154.002 65.744 155.954 65.744ZM175.904 68.72V67.6C174.688 69.488 172.672 70.384 170.88 70.384C167.776 70.384 165.472 68.368 165.472 63.728V55.28C165.472 54.416 165.888 54 166.752 54H168.672C169.536 54 169.952 54.416 169.952 55.28V62.288C169.952 64.624 170.88 65.744 172.416 65.744C174.528 65.744 175.904 64.432 175.904 61.488V54C175.904 53.136 176.32 52.72 177.184 52.72H179.104C179.968 52.72 180.384 53.136 180.384 54V68.72C180.384 69.584 179.968 70 179.104 70H177.184C176.32 70 175.904 69.584 175.904 68.72ZM195.531 68.976C194.059 70.096 191.947 70.704 190.027 70.704C186.539 70.704 184.523 68.528 184.523 64.208V60.048L182.667 59.952C181.963 59.92 181.771 59.568 181.771 58.96V56.4C181.771 55.792 182.219 55.28 182.859 55.312L184.523 55.408V51.76C184.523 51.12 184.843 50.8 185.483 50.8H188.043C188.683 50.8 189.003 51.12 189.003 51.76V55.664L193.611 55.952C194.315 55.984 194.507 56.336 194.507 56.944V59.504C194.507 60.112 194.059 60.624 193.419 60.592L189.003 60.336V63.408C189.003 65.456 189.835 66.128 191.179 66.128C192.011 66.128 192.939 65.648 193.643 65.2C194.123 64.912 194.571 65.168 194.827 65.776L195.659 67.632C195.915 68.176 196.075 68.592 195.531 68.976ZM204.504 70.384C199.512 70.384 196.472 66.8 196.472 62C196.472 57.2 199.512 53.616 204.504 53.616C209.496 53.616 212.536 57.2 212.536 62C212.536 66.8 209.496 70.384 204.504 70.384ZM204.504 65.744C206.456 65.744 208.056 64.72 208.056 62C208.056 59.28 206.456 58.256 204.504 58.256C202.552 58.256 200.952 59.28 200.952 62C200.952 64.72 202.552 65.744 204.504 65.744ZM218.726 69.36C218.726 70.224 218.31 70.64 217.446 70.64H215.526C214.662 70.64 214.246 70.224 214.246 69.36V54C214.246 53.136 214.662 52.72 215.526 52.72H217.446C218.31 52.72 218.726 53.136 218.726 54V56.4C219.942 54.512 221.958 53.616 223.75 53.616C226.854 53.616 229.158 55.632 229.158 60.272V68.72C229.158 69.584 228.742 70 227.878 70H225.958C225.094 70 224.678 69.584 224.678 68.72V61.712C224.678 59.376 223.75 58.256 222.214 58.256C220.102 58.256 218.726 59.568 218.726 62.512V69.36ZM238.673 70.384C233.681 70.384 230.641 66.8 230.641 62C230.641 57.2 233.681 53.616 238.673 53.616C243.665 53.616 246.705 57.2 246.705 62C246.705 66.8 243.665 70.384 238.673 70.384ZM238.673 65.744C240.625 65.744 242.225 64.72 242.225 62C242.225 59.28 240.625 58.256 238.673 58.256C236.721 58.256 235.121 59.28 235.121 62C235.121 64.72 236.721 65.744 238.673 65.744Z" fill="black"/>
<path d="M151.712 105.76C151.712 106.4 151.392 106.72 150.752 106.72H150.112C149.472 106.72 149.152 106.4 149.152 105.76V84.96C149.152 84.32 149.472 84 150.112 84H150.752C151.392 84 151.712 84.32 151.712 84.96V86.592C152.928 85.056 154.72 84.32 156.512 84.32C160.096 84.32 162.944 87.52 162.944 92.48C162.944 97.28 159.968 100.32 156.192 100.32C154.784 100.32 153.184 99.904 151.712 99.232V105.76ZM156.192 97.6C158.592 97.6 160.384 95.936 160.384 92.48C160.384 88.992 158.304 87.04 156 87.04C153.76 87.04 151.712 88.992 151.712 91.552V96.224C153.088 97.152 154.656 97.6 156.192 97.6ZM168.499 99.36C168.499 100 168.179 100.32 167.539 100.32H166.899C166.259 100.32 165.939 100 165.939 99.36V84C165.939 83.36 166.259 83.04 166.899 83.04H167.539C168.179 83.04 168.499 83.36 168.499 84V86.048C169.491 84.768 170.931 84 172.659 84C173.395 84 174.163 84.192 174.579 84.416C174.803 84.544 174.835 84.672 174.803 84.96L174.483 86.944C174.419 87.328 174.195 87.36 173.875 87.296C172.979 87.136 172.403 87.04 171.923 87.04C169.971 87.04 168.499 88.672 168.499 90.912V99.36ZM183.445 100.32C178.869 100.32 176.053 96.896 176.053 92.32C176.053 87.552 178.869 84 183.445 84C188.021 84 190.805 87.552 190.805 92.32C190.805 96.896 188.021 100.32 183.445 100.32ZM183.445 97.6C186.389 97.6 188.245 95.872 188.245 92.32C188.245 88.576 186.389 86.72 183.445 86.72C180.501 86.72 178.613 88.544 178.613 92.32C178.613 95.872 180.501 97.6 183.445 97.6ZM198.063 99.36C198.063 99.776 197.839 100 197.423 100H196.143C195.727 100 195.503 99.776 195.503 99.36V87.296L192.911 87.392C192.463 87.424 192.335 87.136 192.335 86.72V85.44C192.335 85.024 192.655 84.704 193.103 84.672L195.503 84.576V82.528C195.503 78.464 197.679 76.384 201.231 76.672L201.647 76.704C201.775 76.704 201.935 76.736 202.063 76.736C202.575 76.768 202.735 76.96 202.639 77.472L202.543 77.952L202.383 78.912C202.287 79.36 202.095 79.488 201.519 79.424L200.847 79.36C200.655 79.328 200.495 79.328 200.335 79.328C198.735 79.392 198.063 80.576 198.063 83.296V84.48L202.031 84.352C202.479 84.32 202.607 84.608 202.607 85.024V86.304C202.607 86.72 202.287 87.04 201.839 87.072L198.063 87.2V99.36ZM215.604 99.04V97.728C214.324 99.328 212.404 100.32 210.42 100.32C207.38 100.32 205.172 98.528 205.172 94.368V85.28C205.172 84.64 205.492 84.32 206.132 84.32H206.772C207.412 84.32 207.732 84.64 207.732 85.28V93.248C207.732 96.192 209.108 97.6 211.316 97.6C213.556 97.6 215.604 95.648 215.604 93.088V84.32C215.604 83.68 215.924 83.36 216.564 83.36H217.204C217.844 83.36 218.164 83.68 218.164 84.32V99.04C218.164 99.68 217.844 100 217.204 100H216.564C215.924 100 215.604 99.68 215.604 99.04ZM224.493 99.36C224.493 100 224.173 100.32 223.533 100.32H222.893C222.253 100.32 221.933 100 221.933 99.36V84.32C221.933 83.68 222.253 83.36 222.893 83.36H223.533C224.173 83.36 224.493 83.68 224.493 84.32V86.592C225.773 84.992 227.693 84 229.677 84C232.717 84 234.925 85.792 234.925 89.952V99.04C234.925 99.68 234.605 100 233.965 100H233.325C232.685 100 232.365 99.68 232.365 99.04V91.072C232.365 88.128 230.989 86.72 228.781 86.72C226.541 86.72 224.493 88.672 224.493 91.232V99.36ZM250.535 100.32H249.895C249.255 100.32 248.935 100 248.935 99.36V97.728C247.719 99.264 245.927 100 244.135 100C240.551 100 237.703 96.8 237.703 91.84C237.703 87.04 240.679 84 244.455 84C245.863 84 247.463 84.416 248.935 85.088V77.92C248.935 77.28 249.255 76.96 249.895 76.96H250.535C251.175 76.96 251.495 77.28 251.495 77.92V99.36C251.495 100 251.175 100.32 250.535 100.32ZM244.647 97.28C246.887 97.28 248.935 95.328 248.935 92.768V88.096C247.559 87.168 245.991 86.72 244.455 86.72C242.055 86.72 240.263 88.384 240.263 91.84C240.263 95.328 242.343 97.28 244.647 97.28ZM261.882 100.32C257.306 100.32 254.49 96.896 254.49 92.32C254.49 87.552 257.306 84 261.882 84C266.458 84 269.242 87.552 269.242 92.32C269.242 96.896 266.458 100.32 261.882 100.32ZM261.882 97.6C264.826 97.6 266.682 95.872 266.682 92.32C266.682 88.576 264.826 86.72 261.882 86.72C258.938 86.72 257.05 88.544 257.05 92.32C257.05 95.872 258.938 97.6 261.882 97.6Z" fill="black"/>
</svg>
