<svg width="390" height="146" viewBox="0 0 390 146" fill="none" xmlns="http://www.w3.org/2000/svg">
<path d="M137.501 16V130" stroke="#AF52DE" stroke-width="5" stroke-miterlimit="10" stroke-linecap="round" stroke-linejoin="round"/>
<path d="M128.433 20.0391L137.501 27.3313L146.567 20.0391" stroke="#AF52DE" stroke-width="5" stroke-miterlimit="10" stroke-linecap="round" stroke-linejoin="round"/>
<path d="M124.072 31.5308L137.501 42.3317L150.931 31.5308" stroke="#AF52DE" stroke-width="5" stroke-miterlimit="10" stroke-linecap="round" stroke-linejoin="round"/>
<path d="M128.433 125.961L137.501 118.669L146.567 125.961" stroke="#AF52DE" stroke-width="5" stroke-miterlimit="10" stroke-linecap="round" stroke-linejoin="round"/>
<path d="M124.072 114.469L137.501 103.668L150.931 114.469" stroke="#AF52DE" stroke-width="5" stroke-miterlimit="10" stroke-linecap="round" stroke-linejoin="round"/>
<path d="M186.915 44.5403L88.0852 101.46" stroke="#AF52DE" stroke-width="5" stroke-miterlimit="10" stroke-linecap="round" stroke-linejoin="round"/>
<path d="M178.887 38.7056L177.092 50.1979L187.941 54.4083" stroke="#AF52DE" stroke-width="5" stroke-miterlimit="10" stroke-linecap="round" stroke-linejoin="round"/>
<path d="M166.746 40.6658L164.088 57.6875L180.155 63.9232" stroke="#AF52DE" stroke-width="5" stroke-miterlimit="10" stroke-linecap="round" stroke-linejoin="round"/>
<path d="M87.0593 91.5918L97.9102 95.8022L96.1153 107.295" stroke="#AF52DE" stroke-width="5" stroke-miterlimit="10" stroke-linecap="round" stroke-linejoin="round"/>
<path d="M94.8445 82.0767L110.914 88.3127L108.254 105.334" stroke="#AF52DE" stroke-width="5" stroke-miterlimit="10" stroke-linecap="round" stroke-linejoin="round"/>
<path d="M187.006 101.301L87.9939 44.7" stroke="#AF52DE" stroke-width="5" stroke-miterlimit="10" stroke-linecap="round" stroke-linejoin="round"/>
<path d="M188 91.4292L177.164 95.6744L178.996 107.161" stroke="#AF52DE" stroke-width="5" stroke-miterlimit="10" stroke-linecap="round" stroke-linejoin="round"/>
<path d="M180.185 81.9392L164.137 88.2269L166.85 105.24" stroke="#AF52DE" stroke-width="5" stroke-miterlimit="10" stroke-linecap="round" stroke-linejoin="round"/>
<path d="M96.004 38.8394L97.836 50.326L87 54.5712" stroke="#AF52DE" stroke-width="5" stroke-miterlimit="10" stroke-linecap="round" stroke-linejoin="round"/>
<path d="M108.15 40.7607L110.865 57.7735L94.8149 64.0614" stroke="#AF52DE" stroke-width="5" stroke-miterlimit="10" stroke-linecap="round" stroke-linejoin="round"/>
<path d="M137.501 90.9325L121.219 81.5372V62.7471L137.501 53.3518L153.784 62.7471V81.5372L137.501 90.9325Z" stroke="#AF52DE" stroke-width="5" stroke-miterlimit="10" stroke-linejoin="round"/>
<path d="M203.958 51.432C202.486 51.432 201.238 50.184 201.238 48.68C201.238 47.208 202.486 45.96 203.958 45.96C205.43 45.96 206.678 47.208 206.678 48.68C206.678 50.184 205.43 51.432 203.958 51.432ZM206.198 67.72C206.198 68.584 205.782 69 204.918 69H202.998C202.134 69 201.718 68.584 201.718 67.72V54.92C201.718 54.056 202.134 53.64 202.998 53.64H204.918C205.782 53.64 206.198 54.056 206.198 54.92V67.72ZM213.173 68.36C213.173 69.224 212.757 69.64 211.893 69.64H209.973C209.109 69.64 208.693 69.224 208.693 68.36V53C208.693 52.136 209.109 51.72 209.973 51.72H211.893C212.757 51.72 213.173 52.136 213.173 53V55.4C214.389 53.512 216.405 52.616 218.197 52.616C221.301 52.616 223.605 54.632 223.605 59.272V67.72C223.605 68.584 223.189 69 222.325 69H220.405C219.541 69 219.125 68.584 219.125 67.72V60.712C219.125 58.376 218.197 57.256 216.661 57.256C214.549 57.256 213.173 58.568 213.173 61.512V68.36ZM234.56 69H232.128C231.328 69 231.168 68.84 230.656 67.784L224.768 55.592C224.256 54.504 224.512 54.312 225.632 53.832L227.136 53.192C228.192 52.744 228.48 53.16 229.056 54.44L232.864 62.728L235.84 53.32C236.256 52.04 236.672 51.752 237.728 52.072L239.552 52.616C240.672 52.936 240.768 53.288 240.416 54.376L236.032 67.784C235.68 68.84 235.36 69 234.56 69ZM249.322 69.384C244.234 69.384 240.938 65.96 240.938 61C240.938 56.424 243.658 52.616 248.97 52.616C253.098 52.616 255.882 55.4 255.882 59.848C255.882 61.128 255.754 61.672 254.634 61.8L245.706 62.824C246.346 64.232 247.754 65.224 249.93 65.224C251.146 65.224 252.522 64.488 253.61 63.88C254.09 63.592 254.57 63.848 254.794 64.456L255.434 66.12C255.658 66.728 255.818 67.048 255.306 67.464C253.738 68.712 251.37 69.384 249.322 69.384ZM248.65 56.776C246.986 56.776 245.898 57.512 245.514 59.368L251.274 58.696C250.986 57.544 250.026 56.776 248.65 56.776ZM261.911 67.72C261.911 68.584 261.495 69 260.631 69H258.711C257.847 69 257.431 68.584 257.431 67.72V52.68C257.431 51.816 257.847 51.4 258.711 51.4H260.631C261.495 51.4 261.911 51.816 261.911 52.68V55.336C262.967 53.608 264.599 52.616 266.103 52.616C266.807 52.616 267.543 52.776 267.959 53.032C268.215 53.192 268.279 53.416 268.247 53.64L267.927 57.32C267.895 57.8 267.607 57.96 267.063 57.832C266.167 57.64 265.559 57.576 265.015 57.576C263.255 57.576 261.911 58.92 261.911 61.512V67.72ZM274.073 68.36C274.073 69.224 273.657 69.64 272.793 69.64H270.873C270.009 69.64 269.593 69.224 269.593 68.36V53C269.593 52.136 270.009 51.72 270.873 51.72H272.793C273.657 51.72 274.073 52.136 274.073 53V55.4C275.289 53.512 277.305 52.616 279.097 52.616C282.201 52.616 284.505 54.632 284.505 59.272V67.72C284.505 68.584 284.089 69 283.225 69H281.305C280.441 69 280.025 68.584 280.025 67.72V60.712C280.025 58.376 279.097 57.256 277.561 57.256C275.449 57.256 274.073 58.568 274.073 61.512V68.36ZM294.02 69.384C289.028 69.384 285.988 65.8 285.988 61C285.988 56.2 289.028 52.616 294.02 52.616C299.012 52.616 302.052 56.2 302.052 61C302.052 65.8 299.012 69.384 294.02 69.384ZM294.02 64.744C295.972 64.744 297.572 63.72 297.572 61C297.572 58.28 295.972 57.256 294.02 57.256C292.068 57.256 290.468 58.28 290.468 61C290.468 63.72 292.068 64.744 294.02 64.744Z" fill="white"/>
<path d="M203.575 80.152C202.359 80.152 201.495 79.256 201.495 78.04C201.495 76.856 202.391 75.96 203.575 75.96C204.759 75.96 205.655 76.856 205.655 78.04C205.655 79.256 204.791 80.152 203.575 80.152ZM204.855 98.04C204.855 98.68 204.535 99 203.895 99H203.255C202.615 99 202.295 98.68 202.295 98.04V84.6C202.295 83.96 202.615 83.64 203.255 83.64H203.895C204.535 83.64 204.855 83.96 204.855 84.6V98.04ZM211.143 98.36C211.143 99 210.823 99.32 210.183 99.32H209.543C208.903 99.32 208.583 99 208.583 98.36V83.32C208.583 82.68 208.903 82.36 209.543 82.36H210.183C210.823 82.36 211.143 82.68 211.143 83.32V85.592C212.423 83.992 214.343 83 216.327 83C219.367 83 221.575 84.792 221.575 88.952V98.04C221.575 98.68 221.255 99 220.615 99H219.975C219.335 99 219.015 98.68 219.015 98.04V90.072C219.015 87.128 217.639 85.72 215.431 85.72C213.191 85.72 211.143 87.672 211.143 90.232V98.36ZM236.065 98.648C235.233 99.192 233.825 99.64 232.417 99.64C229.249 99.64 227.329 97.848 227.329 93.752V86.808L224.737 86.712C224.289 86.712 224.161 86.456 224.161 86.04V84.76C224.161 84.344 224.481 83.992 224.929 83.992L227.329 84.056V80.12C227.329 79.704 227.553 79.48 227.969 79.48H229.249C229.665 79.48 229.889 79.704 229.889 80.12V84.152L234.817 84.312C235.265 84.312 235.393 84.568 235.393 84.984V86.264C235.393 86.68 235.073 87.032 234.625 87.032L229.889 86.872V92.984C229.889 96.024 230.625 96.952 232.353 96.952C233.249 96.952 234.465 96.536 234.977 96.28C235.233 96.152 235.457 96.184 235.585 96.472L236.257 97.944C236.385 98.232 236.289 98.488 236.065 98.648ZM245.297 99.32C240.433 99.32 237.265 96.088 237.265 91.32C237.265 86.968 239.889 83 244.497 83C247.985 83 250.929 85.592 250.929 90.456C250.929 91.096 250.833 91.32 250.257 91.384L239.953 92.568C240.401 94.872 242.225 96.568 245.297 96.568C246.865 96.568 248.561 96.12 249.521 95.608C249.809 95.48 250.001 95.576 250.097 95.832L250.641 97.24C250.769 97.56 250.737 97.784 250.449 97.976C249.425 98.712 247.217 99.32 245.297 99.32ZM244.337 85.72C242.001 85.72 240.337 87.288 239.921 90.008L248.145 89.048C247.889 87.096 246.353 85.72 244.337 85.72ZM256.318 98.36C256.318 99 255.998 99.32 255.358 99.32H254.718C254.078 99.32 253.758 99 253.758 98.36V83.32C253.758 82.68 254.078 82.36 254.718 82.36H255.358C255.998 82.36 256.318 82.68 256.318 83.32V85.592C257.598 83.992 259.518 83 261.502 83C264.542 83 266.75 84.792 266.75 88.952V98.04C266.75 98.68 266.43 99 265.79 99H265.15C264.51 99 264.19 98.68 264.19 98.04V90.072C264.19 87.128 262.814 85.72 260.606 85.72C258.366 85.72 256.318 87.672 256.318 90.232V98.36ZM269.72 87.544C269.72 84.92 271.48 83 275.192 83C276.568 83 278.68 83.48 279.672 84.12C279.928 84.28 280.024 84.536 279.896 84.824L279.192 86.264C279.064 86.52 278.808 86.616 278.552 86.52C277.4 86.04 276.088 85.72 275 85.72C273.208 85.72 272.28 86.392 272.28 87.544C272.28 90.616 280.568 89.528 280.568 94.936C280.568 97.624 278.424 99.32 274.776 99.32C273.208 99.32 270.904 98.68 269.656 97.88C269.4 97.72 269.304 97.464 269.432 97.176L270.136 95.736C270.264 95.448 270.488 95.384 270.744 95.512C272.216 96.248 273.72 96.6 274.968 96.6C276.984 96.6 278.008 95.992 278.008 94.936C278.008 91.864 269.72 92.952 269.72 87.544ZM290.082 99.32C285.506 99.32 282.69 95.896 282.69 91.32C282.69 86.552 285.506 83 290.082 83C294.658 83 297.442 86.552 297.442 91.32C297.442 95.896 294.658 99.32 290.082 99.32ZM290.082 96.6C293.026 96.6 294.882 94.872 294.882 91.32C294.882 87.576 293.026 85.72 290.082 85.72C287.138 85.72 285.25 87.544 285.25 91.32C285.25 94.872 287.138 96.6 290.082 96.6Z" fill="white"/>
</svg>
