<svg width="264" height="122" viewBox="0 0 264 122" fill="none" xmlns="http://www.w3.org/2000/svg">
<path d="M64.8474 36.8911C57.1561 36.8911 50.92 43.127 50.92 50.8186C50.92 53.2722 51.5591 55.5684 52.673 57.5707C52.1445 58.1881 51.6137 58.8083 51.0983 59.4572C46.0587 65.8028 42.3208 72.8676 40.454 80.5898C38.4834 88.7413 39.0823 96.6156 41.8503 103.773C44.203 109.855 48.0579 115.177 52.5764 119L57.1818 113.555C53.5603 110.492 50.4134 106.146 48.4986 101.195C46.2456 95.3702 45.7609 88.9763 47.3844 82.2611C48.9866 75.6325 52.248 69.4775 56.6842 63.8917C57.0026 63.4907 57.3327 63.1133 57.6572 62.7255C59.7578 63.9963 62.2132 64.746 64.8474 64.746C72.5391 64.746 78.7749 58.5099 78.7749 50.8186C78.7749 43.127 72.5391 36.8911 64.8474 36.8911Z" stroke="black" stroke-width="5" stroke-miterlimit="10" stroke-linejoin="round"/>
<path d="M61.8654 72.6697C61.8654 72.6697 62.3917 104.556 80.1391 97.2918C100.853 88.8132 95.1164 76.9321 83.1592 68.8846C71.2009 60.8371 104.052 88.5403 109.891 70.2743C116.706 48.9545 86.3155 49.3393 86.3155 49.3393C86.3155 49.3393 118.146 47.3678 110.086 29.968C100.676 9.65892 86.2726 20.2752 78.775 32.586C71.2781 44.897 95.8339 6.08446 76.8471 3.39283C47.3085 -0.79467 59.0362 29.8768 59.0362 29.8768C59.0362 29.8768 52.014 -2.23552 37.1956 9.93596C19.8992 24.1426 30.3912 36.0126 44.19 40.1787C57.9889 44.3448 17.8283 24.6934 15.1546 43.6825C12.0335 65.8467 29.893 64.7485 42.8718 58.4781" stroke="black" stroke-width="5" stroke-miterlimit="10" stroke-linejoin="round"/>
<path d="M2.16163 65.1348C2.16163 65.1348 -3.57743 79.4353 6.99401 92.4949C18.2257 106.37 29.454 99.2244 33.3269 96.023C32.0898 93.263 29.4057 88.2511 24.9484 85.5991C18.6551 81.8549 11.8175 80.4271 11.8175 80.4271C11.8175 80.4271 21.498 81.068 26.5025 84.3751C31.5429 87.7063 34.0955 90.298 35.3723 91.7892C35.8845 87.5188 35.6227 79.5224 27.4046 75.148C15.877 69.0119 9.36933 73.669 2.16163 65.1348Z" fill="black"/>
<path d="M129.804 62.44C129.804 63.304 129.388 63.72 128.524 63.72H126.604C125.74 63.72 125.324 63.304 125.324 62.44V41.64C125.324 40.776 125.74 40.36 126.604 40.36H128.524C129.388 40.36 129.804 40.776 129.804 41.64V42.824C130.924 41.64 132.524 41 134.284 41C137.996 41 141.036 44.232 141.036 49.192C141.036 54.216 137.516 57.384 133.004 57.384C131.916 57.384 130.86 57.256 129.804 57V62.44ZM133.004 52.776C135.052 52.776 136.556 51.592 136.556 49.192C136.556 47.112 135.308 45.64 133.356 45.64C131.116 45.64 129.804 47.176 129.804 49.896V52.296C130.764 52.616 131.788 52.776 133.004 52.776ZM147.217 55.72C147.217 56.584 146.801 57 145.937 57H144.017C143.153 57 142.737 56.584 142.737 55.72V40.68C142.737 39.816 143.153 39.4 144.017 39.4H145.937C146.801 39.4 147.217 39.816 147.217 40.68V43.336C148.273 41.608 149.905 40.616 151.409 40.616C152.113 40.616 152.849 40.776 153.265 41.032C153.521 41.192 153.585 41.416 153.553 41.64L153.233 45.32C153.201 45.8 152.913 45.96 152.369 45.832C151.473 45.64 150.865 45.576 150.321 45.576C148.561 45.576 147.217 46.92 147.217 49.512V55.72ZM157.139 39.432C155.667 39.432 154.419 38.184 154.419 36.68C154.419 35.208 155.667 33.96 157.139 33.96C158.611 33.96 159.859 35.208 159.859 36.68C159.859 38.184 158.611 39.432 157.139 39.432ZM159.379 55.72C159.379 56.584 158.963 57 158.099 57H156.179C155.315 57 154.899 56.584 154.899 55.72V42.92C154.899 42.056 155.315 41.64 156.179 41.64H158.099C158.963 41.64 159.379 42.056 159.379 42.92V55.72ZM176.306 56.36C176.306 57.224 175.89 57.64 175.026 57.64H173.106C172.242 57.64 171.826 57.224 171.826 56.36V48.712C171.826 46.344 170.898 45.224 169.362 45.224C167.25 45.224 166.354 46.536 166.354 49.512V55.72C166.354 56.584 165.938 57 165.074 57H163.154C162.29 57 161.874 56.584 161.874 55.72V41C161.874 40.136 162.29 39.72 163.154 39.72H165.074C165.938 39.72 166.354 40.136 166.354 41V43.24C167.442 41.48 169.17 40.616 170.898 40.616C173.106 40.616 174.93 41.64 175.794 43.944C176.914 41.928 178.834 41 180.85 41C183.954 41 186.258 43.016 186.258 47.656V55.72C186.258 56.584 185.842 57 184.978 57H183.058C182.194 57 181.778 56.584 181.778 55.72V49.096C181.778 46.728 180.85 45.608 179.314 45.608C177.202 45.608 176.306 46.92 176.306 49.896V56.36ZM201.177 57.96H198.617C197.977 57.96 197.657 57.64 197.657 57V55.624C196.665 56.584 195.161 57.224 193.753 57.352C193.561 57.384 193.369 57.384 193.209 57.384C189.913 57.384 187.641 55.112 187.641 52.104C187.641 49.32 189.401 46.888 193.849 46.888C195.065 46.888 196.441 47.208 197.657 47.72C197.625 47.496 197.593 47.304 197.561 47.112C197.209 45.576 196.057 44.776 194.329 44.776C193.145 44.776 191.801 45.224 190.553 45.992C190.073 46.28 189.689 46.024 189.369 45.416L188.921 44.488L188.441 43.56C188.345 43.368 188.281 43.208 188.217 43.048C188.153 42.728 188.217 42.472 188.569 42.216C190.073 41.032 192.409 40.296 194.841 40.296C199.321 40.296 202.137 43.08 202.137 47.624V57C202.137 57.224 202.105 57.384 202.041 57.544C201.881 57.832 201.593 57.96 201.177 57.96ZM194.329 53.384C195.641 53.384 197.113 52.872 197.529 51.912C197.625 51.72 197.657 51.528 197.657 51.336V51.208C196.569 50.792 195.353 50.568 194.329 50.568C192.857 50.568 192.121 51.048 192.121 51.976C192.121 52.872 193.145 53.384 194.329 53.384ZM213.059 57H210.627C209.827 57 209.667 56.84 209.155 55.784L203.267 43.592C202.755 42.504 203.011 42.312 204.131 41.832L205.635 41.192C206.691 40.744 206.979 41.16 207.555 42.44L211.363 50.728L214.339 41.32C214.755 40.04 215.171 39.752 216.227 40.072L218.051 40.616C219.171 40.936 219.267 41.288 218.915 42.376L214.531 55.784C214.179 56.84 213.859 57 213.059 57ZM227.821 57.384C222.733 57.384 219.437 53.96 219.437 49C219.437 44.424 222.157 40.616 227.469 40.616C231.597 40.616 234.381 43.4 234.381 47.848C234.381 49.128 234.253 49.672 233.133 49.8L224.205 50.824C224.845 52.232 226.253 53.224 228.429 53.224C229.645 53.224 231.021 52.488 232.109 51.88C232.589 51.592 233.069 51.848 233.293 52.456L233.933 54.12C234.157 54.728 234.317 55.048 233.805 55.464C232.237 56.712 229.869 57.384 227.821 57.384ZM227.149 44.776C225.485 44.776 224.397 45.512 224.013 47.368L229.773 46.696C229.485 45.544 228.525 44.776 227.149 44.776ZM240.41 55.72C240.41 56.584 239.994 57 239.13 57H237.21C236.346 57 235.93 56.584 235.93 55.72V40.68C235.93 39.816 236.346 39.4 237.21 39.4H239.13C239.994 39.4 240.41 39.816 240.41 40.68V43.336C241.466 41.608 243.098 40.616 244.602 40.616C245.306 40.616 246.042 40.776 246.458 41.032C246.714 41.192 246.778 41.416 246.746 41.64L246.426 45.32C246.394 45.8 246.106 45.96 245.562 45.832C244.666 45.64 244.058 45.576 243.514 45.576C241.754 45.576 240.41 46.92 240.41 49.512V55.72ZM260.765 57.96H258.205C257.565 57.96 257.245 57.64 257.245 57V55.624C256.253 56.584 254.749 57.224 253.341 57.352C253.149 57.384 252.957 57.384 252.797 57.384C249.501 57.384 247.229 55.112 247.229 52.104C247.229 49.32 248.989 46.888 253.437 46.888C254.653 46.888 256.029 47.208 257.245 47.72C257.213 47.496 257.181 47.304 257.149 47.112C256.797 45.576 255.645 44.776 253.917 44.776C252.733 44.776 251.389 45.224 250.141 45.992C249.661 46.28 249.277 46.024 248.957 45.416L248.509 44.488L248.029 43.56C247.933 43.368 247.869 43.208 247.805 43.048C247.741 42.728 247.805 42.472 248.157 42.216C249.661 41.032 251.997 40.296 254.429 40.296C258.909 40.296 261.725 43.08 261.725 47.624V57C261.725 57.224 261.693 57.384 261.629 57.544C261.469 57.832 261.181 57.96 260.765 57.96ZM253.917 53.384C255.229 53.384 256.701 52.872 257.117 51.912C257.213 51.72 257.245 51.528 257.245 51.336V51.208C256.157 50.792 254.941 50.568 253.917 50.568C252.445 50.568 251.709 51.048 251.709 51.976C251.709 52.872 252.733 53.384 253.917 53.384Z" fill="black"/>
<path d="M127.566 79.48C127.566 82.936 129.39 84.6 132.398 84.6C133.998 84.6 135.758 84.152 136.782 83.608C137.038 83.48 137.262 83.576 137.358 83.832L137.902 85.24C138.03 85.528 137.966 85.784 137.71 85.976C136.654 86.744 134.35 87.32 132.366 87.32C127.918 87.32 125.006 84.248 125.006 79.48C125.006 74.552 127.918 71.32 132.366 71.32C134.222 71.32 136.366 71.928 137.39 72.664C137.646 72.856 137.71 73.112 137.582 73.4L137.038 74.808C136.942 75.064 136.718 75.16 136.462 75.032C135.502 74.52 133.87 74.04 132.398 74.04C129.39 74.04 127.566 75.832 127.566 79.48ZM143.059 86.04C143.059 86.68 142.739 87 142.099 87H141.459C140.819 87 140.499 86.68 140.499 86.04V64.92C140.499 64.28 140.819 63.96 141.459 63.96H142.099C142.739 63.96 143.059 64.28 143.059 64.92V86.04ZM157.889 87.64H156.609C156.193 87.64 155.969 87.416 155.969 87V85.656C154.913 86.68 153.281 87.32 151.521 87.32C151.297 87.32 151.073 87.32 150.881 87.288C147.937 87.032 145.953 84.888 145.953 82.104C145.953 79.48 147.521 77.208 151.521 77.208C152.961 77.208 154.593 77.464 155.969 78.04V77.752C155.969 74.872 154.369 73.4 151.681 73.4C150.433 73.4 148.993 73.848 147.745 74.616C147.489 74.776 147.265 74.68 147.137 74.424L146.657 73.464C146.593 73.304 146.497 73.144 146.433 72.984C146.305 72.696 146.401 72.44 146.625 72.28C147.937 71.384 149.953 70.68 152.193 70.68C156.097 70.68 158.529 73.016 158.529 77.624V87C158.529 87.416 158.305 87.64 157.889 87.64ZM151.681 84.6C153.985 84.6 155.969 83.32 155.969 81.912V80.568C154.625 80.056 152.993 79.768 151.681 79.768C149.569 79.768 148.513 80.632 148.513 81.976C148.513 83.64 149.985 84.6 151.681 84.6ZM164.602 86.36C164.602 87 164.282 87.32 163.642 87.32H163.002C162.362 87.32 162.042 87 162.042 86.36V71C162.042 70.36 162.362 70.04 163.002 70.04H163.642C164.282 70.04 164.602 70.36 164.602 71V73.048C165.594 71.768 167.034 71 168.762 71C169.498 71 170.266 71.192 170.682 71.416C170.906 71.544 170.938 71.672 170.906 71.96L170.586 73.944C170.522 74.328 170.298 74.36 169.978 74.296C169.082 74.136 168.506 74.04 168.026 74.04C166.074 74.04 164.602 75.672 164.602 77.912V86.36ZM184.621 87.64H183.341C182.925 87.64 182.701 87.416 182.701 87V85.656C181.645 86.68 180.013 87.32 178.253 87.32C178.029 87.32 177.805 87.32 177.613 87.288C174.669 87.032 172.685 84.888 172.685 82.104C172.685 79.48 174.253 77.208 178.253 77.208C179.693 77.208 181.325 77.464 182.701 78.04V77.752C182.701 74.872 181.101 73.4 178.413 73.4C177.165 73.4 175.725 73.848 174.477 74.616C174.221 74.776 173.997 74.68 173.869 74.424L173.389 73.464C173.325 73.304 173.229 73.144 173.165 72.984C173.037 72.696 173.133 72.44 173.357 72.28C174.669 71.384 176.685 70.68 178.925 70.68C182.829 70.68 185.261 73.016 185.261 77.624V87C185.261 87.416 185.037 87.64 184.621 87.64ZM178.413 84.6C180.717 84.6 182.701 83.32 182.701 81.912V80.568C181.357 80.056 179.725 79.768 178.413 79.768C176.301 79.768 175.245 80.632 175.245 81.976C175.245 83.64 176.717 84.6 178.413 84.6Z" fill="black"/>
</svg>
