<svg width="390" height="148" viewBox="0 0 390 148" fill="none" xmlns="http://www.w3.org/2000/svg">
<path d="M127.847 49.8911C120.156 49.8911 113.92 56.127 113.92 63.8186C113.92 66.2722 114.559 68.5684 115.673 70.5707C115.144 71.1881 114.614 71.8083 114.098 72.4572C109.059 78.8028 105.321 85.8676 103.454 93.5898C101.483 101.741 102.082 109.616 104.85 116.773C107.203 122.855 111.058 128.177 115.576 132L120.182 126.555C116.56 123.492 113.413 119.146 111.499 114.195C109.246 108.37 108.761 101.976 110.384 95.2611C111.987 88.6325 115.248 82.4775 119.684 76.8917C120.003 76.4907 120.333 76.1133 120.657 75.7255C122.758 76.9963 125.213 77.746 127.847 77.746C135.539 77.746 141.775 71.5099 141.775 63.8186C141.775 56.127 135.539 49.8911 127.847 49.8911Z" stroke="white" stroke-width="5" stroke-miterlimit="10" stroke-linejoin="round"/>
<path d="M124.865 85.6697C124.865 85.6697 125.392 117.556 143.139 110.292C163.853 101.813 158.116 89.9321 146.159 81.8846C134.201 73.8371 167.052 101.54 172.891 83.2743C179.706 61.9545 149.315 62.3393 149.315 62.3393C149.315 62.3393 181.146 60.3678 173.086 42.968C163.676 22.6589 149.273 33.2752 141.775 45.586C134.278 57.897 158.834 19.0845 139.847 16.3928C110.309 12.2053 122.036 42.8768 122.036 42.8768C122.036 42.8768 115.014 10.7645 100.196 22.936C82.8992 37.1426 93.3912 49.0126 107.19 53.1787C120.989 57.3448 80.8283 37.6934 78.1546 56.6825C75.0335 78.8467 92.893 77.7485 105.872 71.4781" stroke="white" stroke-width="5" stroke-miterlimit="10" stroke-linejoin="round"/>
<path d="M65.1615 78.1348C65.1615 78.1348 59.4224 92.4353 69.9939 105.495C81.2256 119.37 92.4539 112.224 96.3267 109.023C95.0896 106.263 92.4056 101.251 87.9482 98.5991C81.6549 94.8549 74.8174 93.4271 74.8174 93.4271C74.8174 93.4271 84.4979 94.068 89.5024 97.3751C94.5428 100.706 97.0954 103.298 98.3722 104.789C98.8844 100.519 98.6226 92.5224 90.4045 88.148C78.8769 82.0119 72.3692 86.669 65.1615 78.1348Z" fill="white"/>
<path d="M192.804 75.44C192.804 76.304 192.388 76.72 191.524 76.72H189.604C188.74 76.72 188.324 76.304 188.324 75.44V54.64C188.324 53.776 188.74 53.36 189.604 53.36H191.524C192.388 53.36 192.804 53.776 192.804 54.64V55.824C193.924 54.64 195.524 54 197.284 54C200.996 54 204.036 57.232 204.036 62.192C204.036 67.216 200.516 70.384 196.004 70.384C194.916 70.384 193.86 70.256 192.804 70V75.44ZM196.004 65.776C198.052 65.776 199.556 64.592 199.556 62.192C199.556 60.112 198.308 58.64 196.356 58.64C194.116 58.64 192.804 60.176 192.804 62.896V65.296C193.764 65.616 194.788 65.776 196.004 65.776ZM210.217 68.72C210.217 69.584 209.801 70 208.937 70H207.017C206.153 70 205.737 69.584 205.737 68.72V53.68C205.737 52.816 206.153 52.4 207.017 52.4H208.937C209.801 52.4 210.217 52.816 210.217 53.68V56.336C211.273 54.608 212.905 53.616 214.409 53.616C215.113 53.616 215.849 53.776 216.265 54.032C216.521 54.192 216.585 54.416 216.553 54.64L216.233 58.32C216.201 58.8 215.913 58.96 215.369 58.832C214.473 58.64 213.865 58.576 213.321 58.576C211.561 58.576 210.217 59.92 210.217 62.512V68.72ZM220.139 52.432C218.667 52.432 217.419 51.184 217.419 49.68C217.419 48.208 218.667 46.96 220.139 46.96C221.611 46.96 222.859 48.208 222.859 49.68C222.859 51.184 221.611 52.432 220.139 52.432ZM222.379 68.72C222.379 69.584 221.963 70 221.099 70H219.179C218.315 70 217.899 69.584 217.899 68.72V55.92C217.899 55.056 218.315 54.64 219.179 54.64H221.099C221.963 54.64 222.379 55.056 222.379 55.92V68.72ZM239.306 69.36C239.306 70.224 238.89 70.64 238.026 70.64H236.106C235.242 70.64 234.826 70.224 234.826 69.36V61.712C234.826 59.344 233.898 58.224 232.362 58.224C230.25 58.224 229.354 59.536 229.354 62.512V68.72C229.354 69.584 228.938 70 228.074 70H226.154C225.29 70 224.874 69.584 224.874 68.72V54C224.874 53.136 225.29 52.72 226.154 52.72H228.074C228.938 52.72 229.354 53.136 229.354 54V56.24C230.442 54.48 232.17 53.616 233.898 53.616C236.106 53.616 237.93 54.64 238.794 56.944C239.914 54.928 241.834 54 243.85 54C246.954 54 249.258 56.016 249.258 60.656V68.72C249.258 69.584 248.842 70 247.978 70H246.058C245.194 70 244.778 69.584 244.778 68.72V62.096C244.778 59.728 243.85 58.608 242.314 58.608C240.202 58.608 239.306 59.92 239.306 62.896V69.36ZM264.178 70.96H261.618C260.978 70.96 260.658 70.64 260.658 70V68.624C259.666 69.584 258.162 70.224 256.754 70.352C256.562 70.384 256.37 70.384 256.21 70.384C252.914 70.384 250.642 68.112 250.642 65.104C250.642 62.32 252.402 59.888 256.85 59.888C258.066 59.888 259.442 60.208 260.658 60.72C260.626 60.496 260.594 60.304 260.562 60.112C260.21 58.576 259.058 57.776 257.33 57.776C256.146 57.776 254.802 58.224 253.554 58.992C253.074 59.28 252.69 59.024 252.37 58.416L251.922 57.488L251.442 56.56C251.346 56.368 251.282 56.208 251.218 56.048C251.154 55.728 251.218 55.472 251.57 55.216C253.074 54.032 255.41 53.296 257.842 53.296C262.322 53.296 265.138 56.08 265.138 60.624V70C265.138 70.224 265.106 70.384 265.042 70.544C264.882 70.832 264.594 70.96 264.178 70.96ZM257.33 66.384C258.642 66.384 260.114 65.872 260.53 64.912C260.626 64.72 260.658 64.528 260.658 64.336V64.208C259.57 63.792 258.354 63.568 257.33 63.568C255.858 63.568 255.122 64.048 255.122 64.976C255.122 65.872 256.146 66.384 257.33 66.384ZM276.06 70H273.628C272.828 70 272.668 69.84 272.156 68.784L266.268 56.592C265.756 55.504 266.012 55.312 267.132 54.832L268.636 54.192C269.692 53.744 269.98 54.16 270.556 55.44L274.364 63.728L277.34 54.32C277.756 53.04 278.172 52.752 279.228 53.072L281.052 53.616C282.172 53.936 282.268 54.288 281.916 55.376L277.532 68.784C277.18 69.84 276.86 70 276.06 70ZM290.822 70.384C285.734 70.384 282.438 66.96 282.438 62C282.438 57.424 285.158 53.616 290.47 53.616C294.598 53.616 297.382 56.4 297.382 60.848C297.382 62.128 297.254 62.672 296.134 62.8L287.206 63.824C287.846 65.232 289.254 66.224 291.43 66.224C292.646 66.224 294.022 65.488 295.11 64.88C295.59 64.592 296.07 64.848 296.294 65.456L296.934 67.12C297.158 67.728 297.318 68.048 296.806 68.464C295.238 69.712 292.87 70.384 290.822 70.384ZM290.15 57.776C288.486 57.776 287.398 58.512 287.014 60.368L292.774 59.696C292.486 58.544 291.526 57.776 290.15 57.776ZM303.411 68.72C303.411 69.584 302.995 70 302.131 70H300.211C299.347 70 298.931 69.584 298.931 68.72V53.68C298.931 52.816 299.347 52.4 300.211 52.4H302.131C302.995 52.4 303.411 52.816 303.411 53.68V56.336C304.467 54.608 306.099 53.616 307.603 53.616C308.307 53.616 309.043 53.776 309.459 54.032C309.715 54.192 309.779 54.416 309.747 54.64L309.427 58.32C309.395 58.8 309.107 58.96 308.563 58.832C307.667 58.64 307.059 58.576 306.515 58.576C304.755 58.576 303.411 59.92 303.411 62.512V68.72ZM323.765 70.96H321.205C320.565 70.96 320.245 70.64 320.245 70V68.624C319.253 69.584 317.749 70.224 316.341 70.352C316.149 70.384 315.957 70.384 315.797 70.384C312.501 70.384 310.229 68.112 310.229 65.104C310.229 62.32 311.989 59.888 316.437 59.888C317.653 59.888 319.029 60.208 320.245 60.72C320.213 60.496 320.181 60.304 320.149 60.112C319.797 58.576 318.645 57.776 316.917 57.776C315.733 57.776 314.389 58.224 313.141 58.992C312.661 59.28 312.277 59.024 311.957 58.416L311.509 57.488L311.029 56.56C310.933 56.368 310.869 56.208 310.805 56.048C310.741 55.728 310.805 55.472 311.157 55.216C312.661 54.032 314.997 53.296 317.429 53.296C321.909 53.296 324.725 56.08 324.725 60.624V70C324.725 70.224 324.693 70.384 324.629 70.544C324.469 70.832 324.181 70.96 323.765 70.96ZM316.917 66.384C318.229 66.384 319.701 65.872 320.117 64.912C320.213 64.72 320.245 64.528 320.245 64.336V64.208C319.157 63.792 317.941 63.568 316.917 63.568C315.445 63.568 314.709 64.048 314.709 64.976C314.709 65.872 315.733 66.384 316.917 66.384Z" fill="white"/>
<path d="M190.566 92.48C190.566 95.936 192.39 97.6 195.398 97.6C196.998 97.6 198.758 97.152 199.782 96.608C200.038 96.48 200.262 96.576 200.358 96.832L200.902 98.24C201.03 98.528 200.966 98.784 200.71 98.976C199.654 99.744 197.35 100.32 195.366 100.32C190.918 100.32 188.006 97.248 188.006 92.48C188.006 87.552 190.918 84.32 195.366 84.32C197.222 84.32 199.366 84.928 200.39 85.664C200.646 85.856 200.71 86.112 200.582 86.4L200.038 87.808C199.942 88.064 199.718 88.16 199.462 88.032C198.502 87.52 196.87 87.04 195.398 87.04C192.39 87.04 190.566 88.832 190.566 92.48ZM206.059 99.04C206.059 99.68 205.739 100 205.099 100H204.459C203.819 100 203.499 99.68 203.499 99.04V77.92C203.499 77.28 203.819 76.96 204.459 76.96H205.099C205.739 76.96 206.059 77.28 206.059 77.92V99.04ZM220.89 100.64H219.61C219.194 100.64 218.97 100.416 218.97 100V98.656C217.914 99.68 216.282 100.32 214.522 100.32C214.298 100.32 214.074 100.32 213.882 100.288C210.938 100.032 208.954 97.888 208.954 95.104C208.954 92.48 210.522 90.208 214.522 90.208C215.962 90.208 217.594 90.464 218.97 91.04V90.752C218.97 87.872 217.37 86.4 214.682 86.4C213.434 86.4 211.994 86.848 210.746 87.616C210.49 87.776 210.266 87.68 210.138 87.424L209.658 86.464C209.594 86.304 209.498 86.144 209.434 85.984C209.306 85.696 209.402 85.44 209.626 85.28C210.938 84.384 212.954 83.68 215.194 83.68C219.098 83.68 221.53 86.016 221.53 90.624V100C221.53 100.416 221.306 100.64 220.89 100.64ZM214.682 97.6C216.986 97.6 218.97 96.32 218.97 94.912V93.568C217.626 93.056 215.994 92.768 214.682 92.768C212.57 92.768 211.514 93.632 211.514 94.976C211.514 96.64 212.986 97.6 214.682 97.6ZM227.603 99.36C227.603 100 227.283 100.32 226.643 100.32H226.003C225.363 100.32 225.043 100 225.043 99.36V84C225.043 83.36 225.363 83.04 226.003 83.04H226.643C227.283 83.04 227.603 83.36 227.603 84V86.048C228.595 84.768 230.035 84 231.763 84C232.499 84 233.267 84.192 233.683 84.416C233.907 84.544 233.939 84.672 233.907 84.96L233.587 86.944C233.523 87.328 233.299 87.36 232.979 87.296C232.083 87.136 231.507 87.04 231.027 87.04C229.075 87.04 227.603 88.672 227.603 90.912V99.36ZM247.621 100.64H246.341C245.925 100.64 245.701 100.416 245.701 100V98.656C244.645 99.68 243.013 100.32 241.253 100.32C241.029 100.32 240.805 100.32 240.613 100.288C237.669 100.032 235.685 97.888 235.685 95.104C235.685 92.48 237.253 90.208 241.253 90.208C242.693 90.208 244.325 90.464 245.701 91.04V90.752C245.701 87.872 244.101 86.4 241.413 86.4C240.165 86.4 238.725 86.848 237.477 87.616C237.221 87.776 236.997 87.68 236.869 87.424L236.389 86.464C236.325 86.304 236.229 86.144 236.165 85.984C236.037 85.696 236.133 85.44 236.357 85.28C237.669 84.384 239.685 83.68 241.925 83.68C245.829 83.68 248.261 86.016 248.261 90.624V100C248.261 100.416 248.037 100.64 247.621 100.64ZM241.413 97.6C243.717 97.6 245.701 96.32 245.701 94.912V93.568C244.357 93.056 242.725 92.768 241.413 92.768C239.301 92.768 238.245 93.632 238.245 94.976C238.245 96.64 239.717 97.6 241.413 97.6Z" fill="white"/>
</svg>
