<svg width="390" height="148" viewBox="0 0 390 148" fill="none" xmlns="http://www.w3.org/2000/svg">
<path d="M127.847 49.8911C120.156 49.8911 113.92 56.127 113.92 63.8186C113.92 66.2722 114.559 68.5684 115.673 70.5707C115.144 71.1881 114.614 71.8083 114.098 72.4572C109.059 78.8028 105.321 85.8676 103.454 93.5898C101.483 101.741 102.082 109.616 104.85 116.773C107.203 122.855 111.058 128.177 115.576 132L120.182 126.555C116.56 123.492 113.413 119.146 111.499 114.195C109.246 108.37 108.761 101.976 110.384 95.2611C111.987 88.6325 115.248 82.4775 119.684 76.8917C120.003 76.4907 120.333 76.1133 120.657 75.7255C122.758 76.9963 125.213 77.746 127.847 77.746C135.539 77.746 141.775 71.5099 141.775 63.8186C141.775 56.127 135.539 49.8911 127.847 49.8911Z" stroke="black" stroke-width="5" stroke-miterlimit="10" stroke-linejoin="round"/>
<path d="M124.865 85.6697C124.865 85.6697 125.392 117.556 143.139 110.292C163.853 101.813 158.116 89.9321 146.159 81.8846C134.201 73.8371 167.052 101.54 172.891 83.2743C179.706 61.9545 149.315 62.3393 149.315 62.3393C149.315 62.3393 181.146 60.3678 173.086 42.968C163.676 22.6589 149.273 33.2752 141.775 45.586C134.278 57.897 158.834 19.0845 139.847 16.3928C110.309 12.2053 122.036 42.8768 122.036 42.8768C122.036 42.8768 115.014 10.7645 100.196 22.936C82.8992 37.1426 93.3912 49.0126 107.19 53.1787C120.989 57.3448 80.8283 37.6934 78.1546 56.6825C75.0335 78.8467 92.893 77.7485 105.872 71.4781" stroke="black" stroke-width="5" stroke-miterlimit="10" stroke-linejoin="round"/>
<path d="M65.1616 78.1348C65.1616 78.1348 59.4226 92.4353 69.994 105.495C81.2257 119.37 92.454 112.224 96.3269 109.023C95.0898 106.263 92.4057 101.251 87.9484 98.5991C81.6551 94.8549 74.8175 93.4271 74.8175 93.4271C74.8175 93.4271 84.498 94.068 89.5025 97.3751C94.5429 100.706 97.0955 103.298 98.3723 104.789C98.8845 100.519 98.6227 92.5224 90.4046 88.148C78.877 82.0119 72.3693 86.669 65.1616 78.1348Z" fill="black"/>
<path d="M192.804 75.44C192.804 76.304 192.388 76.72 191.524 76.72H189.604C188.74 76.72 188.324 76.304 188.324 75.44V54.64C188.324 53.776 188.74 53.36 189.604 53.36H191.524C192.388 53.36 192.804 53.776 192.804 54.64V55.824C193.924 54.64 195.524 54 197.284 54C200.996 54 204.036 57.232 204.036 62.192C204.036 67.216 200.516 70.384 196.004 70.384C194.916 70.384 193.86 70.256 192.804 70V75.44ZM196.004 65.776C198.052 65.776 199.556 64.592 199.556 62.192C199.556 60.112 198.308 58.64 196.356 58.64C194.116 58.64 192.804 60.176 192.804 62.896V65.296C193.764 65.616 194.788 65.776 196.004 65.776ZM210.217 68.72C210.217 69.584 209.801 70 208.937 70H207.017C206.153 70 205.737 69.584 205.737 68.72V53.68C205.737 52.816 206.153 52.4 207.017 52.4H208.937C209.801 52.4 210.217 52.816 210.217 53.68V56.336C211.273 54.608 212.905 53.616 214.409 53.616C215.113 53.616 215.849 53.776 216.265 54.032C216.521 54.192 216.585 54.416 216.553 54.64L216.233 58.32C216.201 58.8 215.913 58.96 215.369 58.832C214.473 58.64 213.865 58.576 213.321 58.576C211.561 58.576 210.217 59.92 210.217 62.512V68.72ZM220.139 52.432C218.667 52.432 217.419 51.184 217.419 49.68C217.419 48.208 218.667 46.96 220.139 46.96C221.611 46.96 222.859 48.208 222.859 49.68C222.859 51.184 221.611 52.432 220.139 52.432ZM222.379 68.72C222.379 69.584 221.963 70 221.099 70H219.179C218.315 70 217.899 69.584 217.899 68.72V55.92C217.899 55.056 218.315 54.64 219.179 54.64H221.099C221.963 54.64 222.379 55.056 222.379 55.92V68.72ZM239.306 69.36C239.306 70.224 238.89 70.64 238.026 70.64H236.106C235.242 70.64 234.826 70.224 234.826 69.36V61.712C234.826 59.344 233.898 58.224 232.362 58.224C230.25 58.224 229.354 59.536 229.354 62.512V68.72C229.354 69.584 228.938 70 228.074 70H226.154C225.29 70 224.874 69.584 224.874 68.72V54C224.874 53.136 225.29 52.72 226.154 52.72H228.074C228.938 52.72 229.354 53.136 229.354 54V56.24C230.442 54.48 232.17 53.616 233.898 53.616C236.106 53.616 237.93 54.64 238.794 56.944C239.914 54.928 241.834 54 243.85 54C246.954 54 249.258 56.016 249.258 60.656V68.72C249.258 69.584 248.842 70 247.978 70H246.058C245.194 70 244.778 69.584 244.778 68.72V62.096C244.778 59.728 243.85 58.608 242.314 58.608C240.202 58.608 239.306 59.92 239.306 62.896V69.36ZM264.177 70.96H261.617C260.977 70.96 260.657 70.64 260.657 70V68.624C259.665 69.584 258.161 70.224 256.753 70.352C256.561 70.384 256.369 70.384 256.209 70.384C252.913 70.384 250.641 68.112 250.641 65.104C250.641 62.32 252.401 59.888 256.849 59.888C258.065 59.888 259.441 60.208 260.657 60.72C260.625 60.496 260.593 60.304 260.561 60.112C260.209 58.576 259.057 57.776 257.329 57.776C256.145 57.776 254.801 58.224 253.553 58.992C253.073 59.28 252.689 59.024 252.369 58.416L251.921 57.488L251.441 56.56C251.345 56.368 251.281 56.208 251.217 56.048C251.153 55.728 251.217 55.472 251.569 55.216C253.073 54.032 255.409 53.296 257.841 53.296C262.321 53.296 265.137 56.08 265.137 60.624V70C265.137 70.224 265.105 70.384 265.041 70.544C264.881 70.832 264.593 70.96 264.177 70.96ZM257.329 66.384C258.641 66.384 260.113 65.872 260.529 64.912C260.625 64.72 260.657 64.528 260.657 64.336V64.208C259.569 63.792 258.353 63.568 257.329 63.568C255.857 63.568 255.121 64.048 255.121 64.976C255.121 65.872 256.145 66.384 257.329 66.384ZM276.059 70H273.627C272.827 70 272.667 69.84 272.155 68.784L266.267 56.592C265.755 55.504 266.011 55.312 267.131 54.832L268.635 54.192C269.691 53.744 269.979 54.16 270.555 55.44L274.363 63.728L277.339 54.32C277.755 53.04 278.171 52.752 279.227 53.072L281.051 53.616C282.171 53.936 282.267 54.288 281.915 55.376L277.531 68.784C277.179 69.84 276.859 70 276.059 70ZM290.821 70.384C285.733 70.384 282.437 66.96 282.437 62C282.437 57.424 285.157 53.616 290.469 53.616C294.597 53.616 297.381 56.4 297.381 60.848C297.381 62.128 297.253 62.672 296.133 62.8L287.205 63.824C287.845 65.232 289.253 66.224 291.429 66.224C292.645 66.224 294.021 65.488 295.109 64.88C295.589 64.592 296.069 64.848 296.293 65.456L296.933 67.12C297.157 67.728 297.317 68.048 296.805 68.464C295.237 69.712 292.869 70.384 290.821 70.384ZM290.149 57.776C288.485 57.776 287.397 58.512 287.013 60.368L292.773 59.696C292.485 58.544 291.525 57.776 290.149 57.776ZM303.41 68.72C303.41 69.584 302.994 70 302.13 70H300.21C299.346 70 298.93 69.584 298.93 68.72V53.68C298.93 52.816 299.346 52.4 300.21 52.4H302.13C302.994 52.4 303.41 52.816 303.41 53.68V56.336C304.466 54.608 306.098 53.616 307.602 53.616C308.306 53.616 309.042 53.776 309.458 54.032C309.714 54.192 309.778 54.416 309.746 54.64L309.426 58.32C309.394 58.8 309.106 58.96 308.562 58.832C307.666 58.64 307.058 58.576 306.514 58.576C304.754 58.576 303.41 59.92 303.41 62.512V68.72ZM323.765 70.96H321.205C320.565 70.96 320.245 70.64 320.245 70V68.624C319.253 69.584 317.749 70.224 316.341 70.352C316.149 70.384 315.957 70.384 315.797 70.384C312.501 70.384 310.229 68.112 310.229 65.104C310.229 62.32 311.989 59.888 316.437 59.888C317.653 59.888 319.029 60.208 320.245 60.72C320.213 60.496 320.181 60.304 320.149 60.112C319.797 58.576 318.645 57.776 316.917 57.776C315.733 57.776 314.389 58.224 313.141 58.992C312.661 59.28 312.277 59.024 311.957 58.416L311.509 57.488L311.029 56.56C310.933 56.368 310.869 56.208 310.805 56.048C310.741 55.728 310.805 55.472 311.157 55.216C312.661 54.032 314.997 53.296 317.429 53.296C321.909 53.296 324.725 56.08 324.725 60.624V70C324.725 70.224 324.693 70.384 324.629 70.544C324.469 70.832 324.181 70.96 323.765 70.96ZM316.917 66.384C318.229 66.384 319.701 65.872 320.117 64.912C320.213 64.72 320.245 64.528 320.245 64.336V64.208C319.157 63.792 317.941 63.568 316.917 63.568C315.445 63.568 314.709 64.048 314.709 64.976C314.709 65.872 315.733 66.384 316.917 66.384Z" fill="black"/>
<path d="M190.566 92.48C190.566 95.936 192.39 97.6 195.398 97.6C196.998 97.6 198.758 97.152 199.782 96.608C200.038 96.48 200.262 96.576 200.358 96.832L200.902 98.24C201.03 98.528 200.966 98.784 200.71 98.976C199.654 99.744 197.35 100.32 195.366 100.32C190.918 100.32 188.006 97.248 188.006 92.48C188.006 87.552 190.918 84.32 195.366 84.32C197.222 84.32 199.366 84.928 200.39 85.664C200.646 85.856 200.71 86.112 200.582 86.4L200.038 87.808C199.942 88.064 199.718 88.16 199.462 88.032C198.502 87.52 196.87 87.04 195.398 87.04C192.39 87.04 190.566 88.832 190.566 92.48ZM206.059 99.04C206.059 99.68 205.739 100 205.099 100H204.459C203.819 100 203.499 99.68 203.499 99.04V77.92C203.499 77.28 203.819 76.96 204.459 76.96H205.099C205.739 76.96 206.059 77.28 206.059 77.92V99.04ZM220.889 100.64H219.609C219.193 100.64 218.969 100.416 218.969 100V98.656C217.913 99.68 216.281 100.32 214.521 100.32C214.297 100.32 214.073 100.32 213.881 100.288C210.937 100.032 208.953 97.888 208.953 95.104C208.953 92.48 210.521 90.208 214.521 90.208C215.961 90.208 217.593 90.464 218.969 91.04V90.752C218.969 87.872 217.369 86.4 214.681 86.4C213.433 86.4 211.993 86.848 210.745 87.616C210.489 87.776 210.265 87.68 210.137 87.424L209.657 86.464C209.593 86.304 209.497 86.144 209.433 85.984C209.305 85.696 209.401 85.44 209.625 85.28C210.937 84.384 212.953 83.68 215.193 83.68C219.097 83.68 221.529 86.016 221.529 90.624V100C221.529 100.416 221.305 100.64 220.889 100.64ZM214.681 97.6C216.985 97.6 218.969 96.32 218.969 94.912V93.568C217.625 93.056 215.993 92.768 214.681 92.768C212.569 92.768 211.513 93.632 211.513 94.976C211.513 96.64 212.985 97.6 214.681 97.6ZM227.602 99.36C227.602 100 227.282 100.32 226.642 100.32H226.002C225.362 100.32 225.042 100 225.042 99.36V84C225.042 83.36 225.362 83.04 226.002 83.04H226.642C227.282 83.04 227.602 83.36 227.602 84V86.048C228.594 84.768 230.034 84 231.762 84C232.498 84 233.266 84.192 233.682 84.416C233.906 84.544 233.938 84.672 233.906 84.96L233.586 86.944C233.522 87.328 233.298 87.36 232.978 87.296C232.082 87.136 231.506 87.04 231.026 87.04C229.074 87.04 227.602 88.672 227.602 90.912V99.36ZM247.621 100.64H246.341C245.925 100.64 245.701 100.416 245.701 100V98.656C244.645 99.68 243.013 100.32 241.253 100.32C241.029 100.32 240.805 100.32 240.613 100.288C237.669 100.032 235.685 97.888 235.685 95.104C235.685 92.48 237.253 90.208 241.253 90.208C242.693 90.208 244.325 90.464 245.701 91.04V90.752C245.701 87.872 244.101 86.4 241.413 86.4C240.165 86.4 238.725 86.848 237.477 87.616C237.221 87.776 236.997 87.68 236.869 87.424L236.389 86.464C236.325 86.304 236.229 86.144 236.165 85.984C236.037 85.696 236.133 85.44 236.357 85.28C237.669 84.384 239.685 83.68 241.925 83.68C245.829 83.68 248.261 86.016 248.261 90.624V100C248.261 100.416 248.037 100.64 247.621 100.64ZM241.413 97.6C243.717 97.6 245.701 96.32 245.701 94.912V93.568C244.357 93.056 242.725 92.768 241.413 92.768C239.301 92.768 238.245 93.632 238.245 94.976C238.245 96.64 239.717 97.6 241.413 97.6Z" fill="black"/>
</svg>
