<svg width="672" height="476" viewBox="0 0 672 476" fill="none" xmlns="http://www.w3.org/2000/svg">
<path d="M164.321 6.37402C164.321 6.37402 93.4253 10.3543 62.9789 69.6104C32.5324 128.868 3.3457 186.428 3.3457 186.428L153.398 237.716L171.004 203.718V462.893H498.136V199.541L517.89 237.716L667.953 186.428C667.953 186.428 638.722 128.868 608.276 69.6104C577.829 10.3543 506.967 6.37402 506.967 6.37402C506.967 6.37402 503.154 6.75967 498.136 7.50467V6.37402H411.311C403.642 31.6427 372.505 50.5745 335.2 50.5745C297.895 50.5745 266.77 31.6427 259.09 6.37402H171.004V7.12779C167.06 6.61287 164.321 6.37402 164.321 6.37402Z" fill="#FF5900"/>
<path d="M164.321 6.40906C164.321 6.40906 143.209 7.6405 119.095 18.3236H264.776C262.311 14.5613 260.36 10.5723 259.09 6.40906H171.004V7.12777C167.06 6.61284 164.321 6.40906 164.321 6.40906ZM411.311 6.40906C410.04 10.5723 408.133 14.5613 405.657 18.3236H552.16C528.068 7.6405 506.967 6.40906 506.967 6.40906C506.967 6.40906 503.154 6.75965 498.136 7.50465V6.40906H411.311Z" fill="#FFCA00"/>
<path d="M602.611 59.9385H68.6425C66.6485 62.9952 64.7532 66.1801 63.0003 69.5939C59.2424 76.9059 59.297 76.8522 55.6377 84.0075H615.648C611.989 76.8533 612.044 76.9048 608.286 69.5939C606.533 66.1801 604.605 62.9952 602.611 59.9385Z" fill="#FFCA00"/>
<path d="M636.915 125.64H34.3738C28.6877 136.793 22.9468 147.99 19.5176 154.741H651.772C648.342 147.989 642.601 136.792 636.915 125.64Z" fill="#FFCA00"/>
<path d="M10.1709 188.739L95.2434 217.84H163.685L171.015 203.735V217.84H498.147V199.558L507.602 217.84H576.076L661.149 188.739H10.1709Z" fill="#FFCA00"/>
<path d="M132.899 12.9837C132.899 12.9837 145.269 32.4151 153.946 64.793C162.612 97.1699 162.261 120.694 164.781 135.885C170.095 167.897 168.594 462.887 168.594 462.887C168.594 462.887 269.005 469.654 335.649 471.569C402.305 473.484 500.218 462.887 500.218 462.887L498.827 141.152C498.827 141.152 502.059 106.61 513.409 72.9146C524.759 39.2209 543.867 14.8823 543.867 14.8823C543.867 14.8823 520.081 2.59748 493.612 1.73525C467.142 0.874114 442.787 6.25894 442.787 6.25894L334.565 110.717L231.273 5.91274C231.273 5.91274 197.495 -0.0122213 176.657 1.35946C155.819 2.73114 132.899 12.9837 132.899 12.9837Z" fill="#AF52DE"/>
<path d="M196.443 1.68591L334.543 144.165L473.979 2.20084C473.979 2.20084 466.046 2.63469 458.202 3.67769C450.357 4.72179 442.59 6.37504 442.59 6.37504L335.649 109.645L231.218 5.93132C231.218 5.93132 220.755 4.16084 212.056 3.09922C203.367 2.03759 196.443 1.68591 196.443 1.68591Z" fill="#52B1DE"/>
<path d="M149.027 6.89545C149.027 6.89545 171.968 66.7004 176.657 117.104C181.346 167.507 167.783 208.508 167.783 208.508C167.783 208.508 168.616 160.275 161.188 110.913C156.039 76.61 132.899 12.9486 132.899 12.9486C132.899 12.9486 136.833 11.1299 140.864 9.6169C144.896 8.10389 149.027 6.89545 149.027 6.89545Z" fill="#52B1DE"/>
<path d="M520.541 6.37506C520.541 6.37506 494.762 61.4909 490.313 111.894C485.854 162.296 498.75 203.298 498.75 203.298C498.75 203.298 497.961 155.065 505.016 105.703C509.914 71.4005 544.326 14.34 544.326 14.34C544.326 14.34 536.679 10.9853 532.845 9.47229C529.01 7.95928 520.541 6.37506 520.541 6.37506Z" fill="#52B1DE"/>
<path d="M409.46 125.657C403.511 126.069 400.673 136.805 401.451 141.441C401.528 141.923 402.963 146.49 403.368 147.295C404.398 149.347 406.206 150.354 405.691 150.547C404.771 150.901 403.796 149.927 402.821 149.76C401.878 149.598 398.789 149.622 397.825 149.622C390.955 149.622 379.922 154.936 383.406 163.797C385.214 168.398 396.51 168.597 400.213 167.221C400.586 167.087 400.739 167.018 401.145 166.844C390.912 173.43 381.851 181.924 379.09 194.303C378.17 198.454 374.116 217.534 382.924 215.29C386.31 214.429 384.699 202.801 385.324 199.301C385.357 199.111 385.455 198.91 385.499 198.719C388.392 203.998 396.137 204.633 403.576 201.287C404.661 200.796 412.199 194.859 411.377 193.515C411.005 192.893 410.347 194.614 409.668 194.884C408.036 195.541 405.472 194.99 403.982 194.2C399.939 192.041 399.118 185.33 393.848 184.887C392.807 184.8 391.689 184.955 390.594 185.264C393.026 181.162 396.148 177.533 399.95 174.959C399.38 179.259 400.191 183.84 404.946 185.161C410.183 186.616 414.576 182.09 417.129 178.177C417.611 177.443 418.619 174.969 418.882 174.239C419.101 173.616 418.893 171.959 419.43 172.356C420.657 173.279 419.517 175.52 420.175 176.91C420.668 177.939 422.256 179.573 423.122 180.299C430.188 186.253 440.75 181.441 439.15 171.74C438.734 169.255 435.612 165.903 433.673 164.448C433.125 164.043 431.558 164.08 431.886 163.489C432.226 162.884 433.212 163.913 433.869 164.105C435.721 164.641 436.061 164.719 438.121 164.825C442.897 165.07 447.63 163.672 449.317 158.696C451.618 151.889 446.918 146.937 440.103 146.302C439.391 146.236 436.28 146.35 435.656 146.439C434.954 146.537 433.661 147.62 433.596 146.918C433.53 146.132 434.965 146.106 435.59 145.617C436.061 145.239 436.521 144.843 436.882 144.35C438.58 142.046 440.048 137.038 439.008 134.182C437.726 130.65 431.371 130.769 428.6 131.477C426.277 132.07 422.968 136.384 420.383 140.482C420.481 135.37 417.994 129.524 413.229 127.095C412.034 126.485 410.807 125.564 409.46 125.657ZM418.027 150.205C422.519 150.205 426.168 153.854 426.168 158.353C426.168 162.854 422.519 166.502 418.027 166.502C413.524 166.502 409.876 162.854 409.876 158.353C409.876 153.854 413.524 150.205 418.027 150.205Z" fill="white"/>
<path d="M552.435 11.0302C551.734 11.0478 551.043 11.3041 550.518 11.8519C542.914 19.8508 534.971 27.7007 528.54 36.7087C520.246 48.3176 514.045 61.2444 508.885 74.5066C504.36 86.1505 500.526 98.1297 498.553 110.49C497.611 116.311 497.184 122.161 497.107 128.054C497.097 129.567 498.301 130.809 499.813 130.826C501.325 130.845 502.574 129.634 502.585 128.123C502.651 122.498 503.068 116.937 503.955 111.38C505.938 99.0007 509.849 87.0029 514.44 75.3622C519.326 62.9251 525.231 50.7969 533.021 39.8925C539.309 31.096 547.066 23.4641 554.494 15.6525C555.535 14.557 555.48 12.827 554.385 11.784C553.837 11.2625 553.136 11.0138 552.435 11.0302Z" fill="black"/>
<path d="M129.338 2.23163C128.681 1.97745 127.936 1.96211 127.246 2.26558C125.854 2.87473 125.23 4.47539 125.843 5.86131C132.219 20.391 137.435 35.3929 142.244 50.5066C146.134 62.7575 150.078 75.0424 152.652 87.6537C155.764 102.95 157.024 118.485 157.101 134.079C157.112 135.592 158.328 136.826 159.84 136.818C161.352 136.811 162.579 135.592 162.579 134.079C162.502 118.126 161.209 102.206 158.021 86.5581C155.413 73.755 151.436 61.3004 147.481 48.8632C142.617 33.5655 137.325 18.3762 130.872 3.67013C130.565 2.97772 129.984 2.4869 129.338 2.23163Z" fill="black"/>
<path d="M14.9482 165.544C14.1813 165.456 13.425 165.468 12.6581 165.646C9.55758 166.364 7.805 169 7.27912 171.98C7.26816 172.003 7.25691 172.009 7.24595 172.048C7.235 172.096 7.21332 172.138 7.21332 172.185C6.36971 173.93 5.54779 175.713 4.78087 177.492C4.2769 178.651 3.81669 179.782 3.34559 180.95C1.50499 185.43 -1.67192 191.345 2.00927 195.775C2.39272 196.241 2.87478 196.733 3.37875 197.076C4.12375 197.594 4.60571 197.794 5.46027 198.068C5.69034 198.142 5.9425 198.189 6.18353 198.24C6.315 198.268 6.42439 198.286 6.55586 198.308C6.5449 198.305 6.51173 198.27 6.52269 198.274C6.55556 198.284 6.58853 198.298 6.63236 198.308C7.27875 198.492 7.92545 198.673 8.58281 198.856C12.4831 199.954 16.4599 200.879 20.393 201.903C28.1389 203.925 35.6987 206.471 43.3678 208.784C46.9504 209.869 50.5986 210.867 54.214 211.866C67.6898 215.591 81.2095 219.107 94.5866 223.199C113.727 229.056 132.538 235.908 151.93 240.933C154.855 241.693 157.846 239.959 158.602 237.031C159.369 234.102 157.594 231.113 154.669 230.354C135.43 225.368 116.794 218.534 97.7964 212.722C84.3316 208.6 70.7028 205.038 57.1285 201.287C52.7899 200.086 48.4513 198.885 44.1456 197.554C37.583 195.525 31.0204 193.368 24.3592 191.632C20.7657 190.695 17.1613 189.861 13.5788 188.893C13.0967 188.762 12.6255 188.619 12.1435 188.482C12.1435 188.472 12.1325 188.458 12.1435 188.448C12.2859 188.079 12.4392 187.72 12.5816 187.352C12.8774 186.611 13.1733 185.866 13.4691 185.127C13.9292 184.017 14.3672 182.908 14.8493 181.806C15.408 180.482 16.0217 179.177 16.6243 177.869C17.8185 178.278 19.0234 178.668 20.2176 179.032C24.1179 180.222 28.051 181.307 31.9952 182.354C44.4739 185.669 57.0186 188.726 69.4207 192.35C72.324 193.201 75.3478 191.557 76.2023 188.654C77.0459 185.749 75.4027 182.689 72.4994 181.84C67.9308 180.505 63.3292 179.199 58.7387 177.972C48.977 175.363 39.1605 173.027 29.4317 170.303C26.7584 169.553 24.1073 168.768 21.456 167.94C20.7877 167.734 20.13 167.528 19.4617 167.324C19.4069 167.291 19.3522 167.253 19.2974 167.221C19.1769 167.157 19.1005 167.08 18.9909 167.016C18.8375 166.928 18.6623 166.825 18.5089 166.742C18.1035 166.524 17.621 166.292 17.2047 166.125C16.4816 165.837 15.7152 165.631 14.9482 165.544Z" fill="black"/>
<path fill-rule="evenodd" clip-rule="evenodd" d="M645.594 157.196C646.881 156.479 648.179 155.757 649.668 155.717C650.676 155.691 651.596 155.889 652.483 156.334C654.989 157.6 656.715 160.33 658.233 162.731C658.487 163.133 658.735 163.525 658.98 163.9C661.829 168.238 664.14 172.924 666.375 177.595C667.383 179.691 668.282 181.76 669.18 183.895C669.305 184.183 669.449 184.464 669.594 184.745C669.665 184.884 669.736 185.022 669.804 185.161C669.818 185.176 669.832 185.19 669.846 185.205C669.865 185.224 669.884 185.243 669.903 185.264L669.946 185.309C670.147 185.518 670.57 185.959 670.692 186.154L670.725 186.208C671.363 187.259 671.768 187.926 671.919 189.099C671.995 189.614 671.963 190.144 671.888 190.658L649.326 198.034L649.585 198.151C648.58 198.516 647.579 198.89 646.577 199.263C645.713 199.586 644.849 199.908 643.982 200.225C638.588 202.205 633.186 204.177 627.783 206.149C626.908 206.468 626.034 206.788 625.159 207.107C603.806 214.904 582.453 222.67 561.067 230.354C560.081 230.708 559.096 231.066 558.11 231.424C555.124 232.509 552.138 233.594 549.114 234.566C544.846 235.938 540.522 237.123 536.198 238.308C534.762 238.702 533.326 239.095 531.892 239.496C531.365 239.643 530.837 239.797 530.307 239.952C529.515 240.182 528.72 240.414 527.925 240.625C526.786 241.458 525.296 242.192 523.915 242.406C521.483 242.783 519.271 241.925 517.551 240.215C516.673 239.341 516.06 238.315 515.436 237.27C515.32 237.076 515.204 236.882 515.085 236.688C514.829 236.269 514.549 235.877 514.267 235.482C514.115 235.27 513.964 235.058 513.814 234.84C513.041 233.694 512.294 232.51 511.553 231.336C511.339 230.996 511.125 230.657 510.911 230.32C510.782 230.119 510.653 229.918 510.524 229.717C509.869 228.694 509.217 227.677 508.512 226.691C508.252 226.327 507.971 225.968 507.688 225.606C507.04 224.776 506.38 223.932 505.937 222.993C505.137 221.27 505.301 219.417 506.112 217.755C507.777 214.328 511.963 213.094 515.392 212.38C516.201 212.211 517.408 211.698 518.532 211.22C519.035 211.006 519.523 210.799 519.95 210.634C523.226 209.359 526.501 208.137 529.843 207.039C532.713 206.093 535.814 207.657 536.756 210.531C537.698 213.405 536.143 216.502 533.261 217.447C530.265 218.432 527.319 219.554 524.376 220.675C522.993 221.202 521.611 221.728 520.224 222.24C519.94 222.344 519.655 222.423 519.374 222.501C519.199 222.549 519.026 222.598 518.854 222.651C519.272 223.28 519.695 223.903 520.118 224.527C520.749 225.457 521.382 226.389 521.998 227.341C522.341 227.867 522.697 228.382 523.054 228.896C523.404 229.401 523.754 229.906 524.091 230.422C524.169 230.393 524.242 230.35 524.315 230.307C524.396 230.259 524.476 230.212 524.562 230.183C526.489 229.572 528.441 229.058 530.394 228.544C531.339 228.295 532.285 228.046 533.228 227.786C537.424 226.629 541.621 225.455 545.762 224.123C548.84 223.133 551.883 222.031 554.925 220.93C555.738 220.635 556.551 220.341 557.364 220.049C581.248 211.467 605.088 202.769 628.928 194.063C630.548 193.47 632.17 192.88 633.794 192.29C636.486 191.311 639.181 190.331 641.867 189.338C642.203 189.213 642.539 189.089 642.875 188.964C646.603 187.582 650.333 186.199 654.192 185.195C655.222 184.926 656.383 184.692 657.479 184.476C657.426 184.361 657.377 184.243 657.329 184.125C657.279 184.001 657.229 183.877 657.173 183.758C657.064 183.53 656.955 183.302 656.847 183.074C654.918 179.028 652.986 174.974 650.632 171.158C650.147 170.377 649.634 169.617 649.122 168.857C648.916 168.552 648.71 168.246 648.506 167.94C648.312 168.029 648.12 168.122 647.927 168.215C647.531 168.405 647.133 168.597 646.721 168.761C642.612 170.411 638.361 171.583 634.055 172.63C631.119 173.345 628.128 171.564 627.416 168.624C626.704 165.685 628.512 162.697 631.459 161.983C635.611 160.972 639.676 159.797 643.642 158.182C644.305 157.913 644.948 157.555 645.594 157.196Z" fill="black"/>
<path d="M166.929 203.101C163.905 203.28 161.583 205.868 161.758 208.887C162.591 223.053 162.405 237.228 162.514 251.41C162.668 271.46 162.832 291.514 162.887 311.565C162.941 330.757 162.996 349.96 163.193 369.152C163.336 382.931 163.632 396.699 163.884 410.476C163.993 416.687 163.566 422.892 163.774 429.101C163.949 434.087 164.53 439.065 165.012 444.028C165.582 449.994 166.086 455.948 166.381 461.935C166.524 464.956 169.109 467.289 172.133 467.139C175.157 466.989 177.447 464.408 177.305 461.387C176.998 455.232 176.527 449.101 175.935 442.967C175.475 438.233 174.894 433.481 174.73 428.724C174.522 422.574 174.949 416.423 174.84 410.271C174.599 396.52 174.291 382.767 174.149 369.014C173.941 349.203 173.897 329.391 173.842 309.579C173.788 289.51 173.591 269.459 173.426 249.39C173.328 235.667 173.525 221.944 172.714 208.236C172.539 205.217 169.942 202.923 166.929 203.101Z" fill="black"/>
<path d="M498.202 221.726C497.501 221.606 496.745 221.622 496.011 221.795C493.064 222.486 491.245 225.423 491.935 228.369C493.809 236.294 493.251 244.438 493.108 252.506C492.944 261.167 493.195 269.829 493.239 278.492C493.436 313.239 492.954 347.998 493.239 382.744C493.382 399.31 494.532 415.835 495.124 432.388C495.321 437.971 495.277 443.578 495.398 449.164C495.442 451.139 495.485 453.112 495.464 455.087C495.464 455.11 495.464 455.133 495.464 455.156C494.291 455.37 493.141 455.615 491.979 455.806C489.032 456.287 486.085 456.712 483.138 457.107C476.4 458.011 469.706 459.136 462.979 460.154C453.272 461.621 443.511 462.869 433.705 463.338C425.094 463.75 416.46 463.551 407.849 463.852C404.08 463.984 400.322 464.265 396.553 464.571C393.54 464.816 391.317 467.444 391.558 470.459C391.799 473.476 394.428 475.738 397.441 475.492C401.045 475.2 404.661 474.934 408.266 474.808C418.203 474.46 428.15 474.722 438.087 474.055C451.223 473.171 464.173 471.009 477.189 469.022C483.806 468.011 490.467 467.236 497.074 466.112C499.079 465.771 501.138 465.335 502.891 464.263C503.373 463.969 503.932 463.693 504.261 463.235C504.896 462.353 505.554 461.463 505.981 460.462C506.255 459.803 506.277 459.053 506.354 458.34C506.463 457.29 506.408 456.245 506.419 455.19C506.452 451.853 506.365 448.494 506.288 445.158C506.189 441.216 506.211 437.288 506.112 433.346C505.849 422.733 505.192 412.147 504.743 401.54C504.009 383.887 504.13 366.206 504.162 348.541C504.195 326.566 504.261 304.575 504.228 282.601C504.217 277.049 504.196 271.511 504.13 265.961C504.086 261.962 503.965 257.942 504.031 253.943C504.151 244.518 504.787 235.133 502.617 225.869C502.103 223.66 500.306 222.087 498.202 221.726Z" fill="black"/>
<path d="M200.037 460.736C197.013 460.498 194.384 462.753 194.143 465.769C193.902 468.785 196.159 471.42 199.172 471.658C201.527 471.998 200.453 471.865 201.538 472C202.075 472.068 200.454 471.841 199.928 471.726C199.709 471.679 200.388 471.764 200.618 471.795C201.1 471.862 201.669 471.987 202.151 472.069C202.447 472.117 203.302 472.243 203.006 472.206C201.735 472.04 202.984 472.196 203.872 472.343C206.852 472.839 209.7 470.842 210.204 467.858C210.697 464.873 208.67 462.055 205.68 461.558C202.864 461.161 204.146 461.299 202.875 461.147C202.217 461.068 204.167 461.323 204.825 461.387C205.109 461.415 204.255 461.298 203.97 461.25C203.368 461.147 202.688 461.023 202.086 460.942C201.735 460.895 200.673 460.782 201.023 460.839C202.579 461.092 201.012 460.815 200.037 460.736Z" fill="black"/>
<path d="M226.462 462.551C223.439 462.474 220.93 464.868 220.853 467.891C220.777 470.916 223.132 473.43 226.156 473.507C228.785 473.68 227.339 473.568 228.796 473.678C229.037 473.697 227.821 473.554 228.073 473.541C228.632 473.511 230.275 473.657 229.717 473.643C228.533 473.614 229.717 473.625 231.426 473.849C234.428 474.237 237.167 472.125 237.561 469.125C237.945 466.124 235.83 463.384 232.828 462.996C229.64 462.779 231.382 462.891 229.651 462.756C229.3 462.729 231.02 462.771 230.681 462.722C229.936 462.619 227.711 462.525 228.445 462.619C229.903 462.804 228.467 462.603 226.462 462.551Z" fill="black"/>
<path d="M447.258 0.00636903C446.557 -0.0429325 445.845 0.19481 445.275 0.691113C418.86 23.6361 392.906 47.0762 367.97 71.6306C360.41 79.0696 352.971 86.5941 345.609 94.2271C342.508 97.4482 339.353 100.651 336.329 103.95C335.102 102.668 333.82 101.444 332.571 100.185C327.663 95.2394 322.711 90.3115 317.737 85.4284C304.349 72.2682 290.852 59.2416 277.551 45.9872C271.975 40.4293 266.387 34.8615 260.942 29.1765C256.121 24.1389 251.388 19.0159 246.491 14.0431C243.204 10.7037 239.83 7.47172 236.423 4.25178C235.327 3.21207 233.563 3.25588 232.522 4.35476C231.482 5.45364 231.558 7.18358 232.665 8.22329C236.017 11.3983 239.348 14.5843 242.591 17.8776C247.466 22.833 252.199 27.9571 257.009 32.9771C262.958 39.1967 269.06 45.3112 275.185 51.3622C289.537 65.5358 304.01 79.567 318.362 93.7472C322.306 97.653 326.25 101.582 330.172 105.525C330.654 106.019 331.147 106.504 331.64 106.997C332.769 108.138 334.094 109.619 335.782 109.976C336.625 110.155 337.523 110.052 338.279 109.633C339.189 109.134 340.131 107.895 340.822 107.168C341.183 106.785 341.556 106.423 341.917 106.039C342.279 105.656 342.618 105.256 342.98 104.875C343.703 104.11 344.437 103.344 345.171 102.581C351.35 96.0896 357.638 89.6947 363.96 83.3391C391.174 56.0009 419.758 30.0902 448.868 4.79958C450.008 3.80807 450.139 2.07265 449.142 0.931041C448.649 0.360238 447.959 0.0556706 447.258 0.00636903Z" fill="black"/>
<path d="M407.619 66.7695C406.918 66.8045 406.239 67.1321 405.735 67.693C402.875 70.8659 400.07 74.1022 397.134 77.2115C394.22 80.3098 391.185 83.3162 388.161 86.3181C378.246 96.1882 367.948 105.671 358.35 115.865C353.179 121.35 348.336 127.066 343.757 133.053C342.015 135.333 340.47 137.751 338.696 140.002C338.356 140.431 337.983 140.849 337.633 141.27C337.567 141.353 337.468 141.471 337.359 141.577C337.205 141.387 337.03 141.167 336.877 140.996C336.197 140.231 335.365 139.636 334.587 138.975C331.87 136.668 329.273 134.314 326.161 132.539C324.847 131.788 323.182 132.252 322.426 133.565C321.681 134.879 322.141 136.548 323.456 137.297C326.841 139.223 329.624 141.976 332.604 144.453C333.327 145.058 333.721 145.95 334.521 146.508C334.949 146.81 335.387 147.131 335.891 147.295C336.351 147.444 336.877 147.429 337.359 147.431C340.262 147.449 342.661 143.902 344.108 141.953C345.138 140.559 346.091 139.107 347.121 137.709C349.892 133.92 352.85 130.247 355.918 126.684C367.071 113.696 379.912 102.278 392.04 90.2216C395.096 87.177 398.186 84.1192 401.144 80.9771C404.102 77.8393 406.918 74.558 409.81 71.3567C410.818 70.2337 410.719 68.5005 409.602 67.4881C409.032 66.9809 408.309 66.7333 407.619 66.7695Z" fill="black"/>
<path d="M500.699 141.645C499.187 141.667 497.982 142.906 498.004 144.418C498.026 145.644 498.026 145.293 498.037 145.652C498.015 145.249 498.026 146.447 498.037 146.849C498.048 147.662 498.048 148.468 498.07 149.281C498.081 149.69 498.147 150.923 498.136 150.513C498.103 148.486 498.125 150.508 498.168 151.712C498.223 153.224 499.494 154.402 501.006 154.348C502.518 154.293 503.701 153.018 503.646 151.506C503.624 150.301 503.625 150.659 503.614 150.308C503.614 150.7 503.559 149.536 503.548 149.144C503.526 148.352 503.526 147.54 503.515 146.748C503.504 146.347 503.504 145.149 503.515 145.549C503.559 147.535 503.493 145.554 503.482 144.35C503.46 142.837 502.211 141.625 500.699 141.645Z" fill="black"/>
<path d="M498.991 164.448C497.479 164.448 496.252 165.674 496.252 167.187C496.252 179.337 496.252 191.498 496.252 203.649C496.252 205.162 497.479 206.388 498.991 206.388C500.503 206.388 501.73 205.162 501.73 203.649C501.73 191.498 501.73 179.337 501.73 167.187C501.73 165.674 500.503 164.448 498.991 164.448Z" fill="black"/>
<path d="M164.737 171.774C163.236 171.958 162.151 173.32 162.337 174.821C163.181 181.731 163.893 188.637 163.948 195.603C163.959 197.116 165.208 198.32 166.72 198.308C168.232 198.296 169.437 197.082 169.426 195.569C169.371 188.394 168.648 181.286 167.783 174.171C167.596 172.669 166.237 171.591 164.737 171.774Z" fill="black"/>
<path d="M162.852 149.075C161.34 149.171 160.19 150.476 160.277 151.986C160.321 154.467 160.277 153.088 160.321 154.485C160.321 154.769 160.365 153.344 160.387 153.629C160.431 154.168 160.42 155.778 160.387 155.238C160.321 154.155 160.365 155.238 160.354 156.95C160.332 158.463 161.548 159.706 163.06 159.723C164.572 159.739 165.81 158.531 165.832 157.018C165.788 154.333 165.832 155.845 165.799 154.348C165.788 154.031 165.843 155.588 165.865 155.272C165.909 154.665 165.865 152.849 165.865 153.457C165.854 154.645 165.876 153.449 165.755 151.643C165.667 150.133 164.364 148.979 162.852 149.075Z" fill="black"/>
</svg>
