<svg width="310" height="140" viewBox="0 0 310 140" fill="none" xmlns="http://www.w3.org/2000/svg">
<g clip-path="url(#clip0_1202_11925)">
<path d="M42.6718 11.6132C41.6381 11.2652 39.5166 16.0781 39.1494 16.8701C36.8632 21.7951 35.2657 27.4372 32.3682 32.0022C32.9019 32.7252 33.2119 33.1152 33.583 33.4942C34.2524 34.1782 34.9974 34.8402 35.7879 35.5242C35.8566 35.3502 35.9797 35.0121 36.0339 34.9091C37.5277 32.0591 40.2034 26.9582 43.5417 26.1232C45.951 28.5202 48.402 30.8742 50.1283 33.8772C51.9301 37.0112 53.0045 40.8722 54.0285 44.3602C54.4256 45.7152 54.599 47.3242 55.375 48.5252C55.7945 49.1752 56.4019 49.7751 57.0635 50.3491C61.017 52.5281 64.9211 54.3062 68.922 55.6882C69.5885 55.9182 70.1068 56.1272 71.2635 56.6112C71.3739 56.6572 71.4262 56.6802 71.4873 56.7062C72.5432 57.1472 73.3221 57.4392 74.006 57.6522C74.0273 57.4842 74.0661 57.1552 74.0796 57.0892C74.7859 53.6132 73.3976 48.9122 71.7033 45.8932C65.6215 35.0562 57.144 27.0761 48.1462 18.8571C46.6243 17.4681 45.114 15.9162 43.9835 14.1662C43.7674 13.8322 42.9508 11.7072 42.6718 11.6132Z" fill="#F4F4F4"/>
<path d="M86.6643 -10C83.0111 -9.944 79.1971 -8.87695 76.1204 -6.89795C73.0901 -4.94695 70.6847 -0.979991 69.6695 2.49701C69.3818 3.48301 69.128 4.73903 68.7463 5.91302C68.7695 5.91502 68.7918 5.91902 68.8151 5.92102C68.5012 6.62802 68.1795 7.40903 68.3413 7.90503C68.415 8.13003 69.0766 8.23305 69.2549 8.31305C70.026 8.65705 70.7913 9.31501 71.4723 9.83801C71.5014 9.86101 71.5179 9.89601 71.546 9.91901C69.065 9.11601 65.2898 9.10403 62.6741 9.81403C61.4322 10.234 60.2184 10.714 59.0161 11.197C56.3966 12.346 52.5091 14.55 55.2652 15.888C56.4025 16.44 58.4882 15.386 59.6652 15.303C62.6054 15.096 66.2769 16.242 68.8548 17.629C71.7736 19.2 74.6053 25.5251 77.2703 25.7531C79.0441 25.9051 79.7784 24.218 80.9612 23.107C82.3911 21.764 83.7057 20.7871 85.215 20.1281C85.3787 19.9551 85.5754 19.807 85.8089 19.715C85.836 19.704 85.8321 19.695 85.8592 19.684C87.1302 19.186 92.3082 17.378 93.4649 16.939C99.2628 14.739 102.995 12.405 105.112 9.20001C105.008 7.78001 104.436 6.33105 104.232 4.95905C103.712 1.45805 102.487 -2.146 100.365 -5C99.7598 -5.553 98.9693 -6.34299 98.3978 -6.77399C97.1645 -7.70199 95.6795 -8.23496 93.091 -8.80396C92.8275 -8.86196 91.0353 -9.24795 90.6139 -9.34595C89.2295 -9.66795 87.943 -9.846 86.6643 -10Z" fill="#F4F4F4"/>
<path d="M93.4593 28.0862C92.446 28.2802 91.7756 29.2892 91.9645 30.3352C92.1524 31.3812 93.1299 32.0723 94.1432 31.8783C95.1565 31.6833 95.8191 30.6762 95.6302 29.6302C95.4423 28.5842 94.4716 27.8912 93.4593 28.0862ZM121.783 22.6422C120.77 22.8362 120.1 23.8453 120.288 24.8913C120.477 25.9373 121.454 26.6282 122.468 26.4342C123.48 26.2392 124.143 25.2322 123.955 24.1862C123.767 23.1402 122.796 22.4472 121.783 22.6422ZM96.5215 30.6182C95.5082 30.8132 94.8455 31.8202 95.0335 32.8662C95.2224 33.9122 96.1921 34.6052 97.2054 34.4102C98.2187 34.2152 98.8891 33.2072 98.7002 32.1612C98.5113 31.1152 97.5348 30.4232 96.5215 30.6182ZM119.802 26.1432C118.788 26.3382 118.118 27.3472 118.307 28.3932C118.496 29.4382 119.472 30.1302 120.485 29.9362C121.499 29.7412 122.169 28.7322 121.98 27.6862C121.791 26.6412 120.815 25.9492 119.802 26.1432ZM100.351 32.7732C99.3376 32.9672 98.6663 33.9692 98.8552 35.0142C99.0441 36.0602 100.021 36.7522 101.034 36.5572C102.047 36.3632 102.718 35.3543 102.529 34.3083C102.34 33.2633 101.364 32.5782 100.351 32.7732ZM116.98 29.5763C115.966 29.7713 115.302 30.7712 115.491 31.8172C115.679 32.8632 116.649 33.5562 117.662 33.3612C118.676 33.1672 119.346 32.1582 119.157 31.1122C118.968 30.0662 117.993 29.3823 116.98 29.5763ZM104.745 33.5482C103.733 33.7432 103.069 34.7502 103.258 35.7962C103.446 36.8412 104.417 37.5352 105.429 37.3402C106.442 37.1452 107.113 36.1372 106.924 35.0912C106.736 34.0452 105.759 33.3532 104.745 33.5482ZM113.15 31.9322C112.137 32.1272 111.466 33.1362 111.655 34.1822C111.844 35.2272 112.821 35.9192 113.834 35.7252C114.847 35.5302 115.511 34.5233 115.322 33.4773C115.133 32.4313 114.163 31.7382 113.15 31.9322ZM108.886 32.9162C107.873 33.1102 107.21 34.1172 107.399 35.1632C107.587 36.2092 108.557 36.9022 109.57 36.7082C110.583 36.5132 111.253 35.5043 111.064 34.4593C110.876 33.4133 109.899 32.7212 108.886 32.9162Z" fill="#F4F4F4"/>
<path d="M95.686 46.4981C94.5497 46.3871 93.4075 46.5101 92.3216 46.9731C91.9447 47.1341 91.5785 47.3352 91.2385 47.5682C90.881 47.8112 90.5488 48.0891 90.2688 48.4251C89.2303 49.6701 89.2962 51.2281 89.6546 52.7351C89.8571 53.5851 90.1419 54.4121 90.3763 55.2531C90.542 55.8481 90.6854 56.4691 90.695 57.0911C90.7018 57.4981 90.6359 57.9071 90.5478 58.3021C90.1632 60.0261 89.0908 61.4791 88.1026 62.8831C87.6396 63.5411 87.1978 64.2061 86.8065 64.9011C86.4083 64.6211 85.9985 64.3491 85.6323 64.0441C84.6655 64.2241 84.0698 64.7731 83.287 66.0131C83.1989 66.1531 83.0487 66.4031 82.853 66.7271C82.7581 66.9671 82.6312 67.3311 82.5566 67.4861C80.8167 71.0811 75.9613 80.6891 76.2742 86.0451C76.3672 86.0871 76.4495 86.1311 76.5445 86.1721C78.1972 86.8911 79.599 87.3711 82.6893 88.3371C87.1872 89.7431 91.6086 90.5041 97.2661 90.9631C106.436 91.7061 111.207 90.9361 117.143 87.1931C117.691 82.0761 114.085 72.3711 112.902 68.6131C112.643 68.0641 112.316 67.3611 112.177 67.0951C111.783 66.3351 111.425 65.8771 110.956 65.6221C110.641 65.8281 110.332 66.0081 110.018 66.1961C109.918 65.3391 109.764 64.4871 109.563 63.6511C109.11 61.7661 108.474 59.9281 107.722 58.1501C106.974 56.3791 106.101 54.6571 105.084 53.0341C103.999 51.3031 102.746 49.6201 101.027 48.5251C99.4535 47.5241 97.578 46.6841 95.686 46.4981ZM95.2433 47.6741C97.1895 47.7791 99.1726 48.7351 100.746 49.7861C101.417 50.2341 101.99 50.8531 102.505 51.4761C103.084 52.1771 103.603 52.9241 104.085 53.6971C105.065 55.2661 105.899 56.9371 106.62 58.6461C107.377 60.4371 108.021 62.2881 108.457 64.1911C108.657 65.0621 108.806 65.9491 108.879 66.8421C107.35 67.6571 105.835 68.2601 104.278 68.6001C98.9924 69.7531 92.5221 68.4951 87.7597 65.5561C88.2577 64.6671 88.8544 63.8271 89.4376 62.9881C90.5304 61.4141 91.5698 59.7391 91.7955 57.7711C92.0232 55.7881 91.0554 53.9571 90.6824 52.0611C90.4887 51.0751 90.4713 50.0061 91.1445 49.2031C91.3567 48.9521 91.6076 48.7512 91.8769 48.5682C92.9232 47.8582 94.076 47.6121 95.2433 47.6741Z" fill="#F4F4F4"/>
<path d="M48.1477 60.885C46.7653 60.338 45.2172 61.057 44.6873 62.484L34.2306 90.655C33.7007 92.082 34.3876 93.685 35.77 94.232L48.9285 99.437C50.3119 99.983 51.859 99.264 52.3889 97.837L62.8456 69.666C63.3755 68.239 62.6896 66.636 61.3072 66.09L48.1477 60.885ZM47.6362 61.654C48.4316 61.969 48.8346 62.885 48.5294 63.707C48.2242 64.529 47.3291 64.941 46.5328 64.626C45.7365 64.311 45.3451 63.39 45.6493 62.568C45.9544 61.746 46.8399 61.339 47.6362 61.654ZM50.4252 65.312C51.2216 65.626 51.6139 66.548 51.3087 67.37C51.0036 68.191 50.1152 68.607 49.3189 68.292C48.5236 67.977 48.1235 67.053 48.4286 66.231C48.7338 65.409 49.6299 64.997 50.4252 65.312ZM45.8372 66.501C46.6326 66.816 47.0327 67.74 46.7275 68.562C46.4224 69.384 45.5302 69.788 44.7338 69.473C43.9375 69.158 43.5423 68.245 43.8474 67.423C44.1526 66.601 45.0409 66.186 45.8372 66.501Z" fill="#F4F4F4"/>
<path d="M29.9111 -5.04004L19.8671 6.97498C20.2033 7.13998 20.5327 7.33295 20.8281 7.59595L25.0596 11.364C25.3551 11.627 25.5905 11.942 25.7988 12.261L35.8428 0.245972L29.9111 -5.04004ZM17.111 7.81396C16.4261 8.00597 15.7858 8.40398 15.2869 9.00098L12.1346 12.7759C10.8055 14.3669 10.9759 16.768 12.5172 18.14L16.1762 21.4009C17.7175 22.7729 20.0415 22.5899 21.3706 20.9999L24.5249 17.231C25.854 15.641 25.6835 13.2389 24.1432 11.8669L20.4832 8.60596C19.5203 7.74896 18.2532 7.49397 17.111 7.81396ZM10.8626 17.753L0 30.752L5.92972 36.032L16.7923 23.032C16.4562 22.867 16.1316 22.665 15.8362 22.402L11.6047 18.634C11.3092 18.371 11.0709 18.072 10.8626 17.753Z" fill="#F4F4F4"/>
<path d="M15.8647 42.4948L14.616 45.7139L18.6363 48.4249L21.0262 46.3638L19.3241 41.6528L15.8647 42.4948ZM16.1398 47.8939C13.0621 52.4389 13.2762 58.6079 16.7705 62.9249C21.0184 68.1729 28.5844 68.8718 33.6674 64.4868C38.7514 60.1018 39.4286 52.2919 35.1806 47.0449C31.7212 42.7709 25.96 41.4368 21.1037 43.6688L21.7479 45.1599C25.962 43.2239 30.9617 44.3849 33.9638 48.0939C37.6509 52.6479 37.0629 59.4248 32.6512 63.2308C28.2395 67.0368 21.6733 66.4299 17.9872 61.8759C14.9541 58.1289 14.77 52.7708 17.4408 48.8278L16.1398 47.8939Z" fill="#F4F4F4"/>
<path d="M246.109 12.6132C245.076 12.2652 242.954 17.0781 242.587 17.8701C240.301 22.7951 238.703 28.4372 235.806 33.0022C236.339 33.7252 236.649 34.1152 237.02 34.4942C237.69 35.1782 238.435 35.8402 239.225 36.5242C239.294 36.3502 239.417 36.0121 239.471 35.9091C240.965 33.0591 243.641 27.9582 246.979 27.1232C249.389 29.5202 251.839 31.8742 253.566 34.8772C255.368 38.0112 256.442 41.8722 257.466 45.3602C257.863 46.7152 258.037 48.3242 258.812 49.5252C259.232 50.1752 259.839 50.7751 260.501 51.3491C264.455 53.5281 268.359 55.3062 272.36 56.6882C273.026 56.9182 273.544 57.1272 274.701 57.6112C274.811 57.6572 274.864 57.6802 274.925 57.7062C275.981 58.1472 276.76 58.4392 277.444 58.6522C277.465 58.4842 277.504 58.1552 277.517 58.0892C278.223 54.6132 276.835 49.9122 275.141 46.8932C269.059 36.0562 260.581 28.0761 251.584 19.8571C250.062 18.4681 248.551 16.9162 247.421 15.1662C247.205 14.8322 246.388 12.7072 246.109 12.6132Z" fill="#F4F4F4"/>
<path d="M290.102 -9C286.449 -8.944 282.635 -7.87695 279.558 -5.89795C276.528 -3.94695 274.122 0.020009 273.107 3.49701C272.819 4.48301 272.565 5.73903 272.184 6.91302C272.207 6.91502 272.229 6.91902 272.253 6.92102C271.939 7.62802 271.617 8.40903 271.779 8.90503C271.852 9.13003 272.514 9.23305 272.692 9.31305C273.463 9.65705 274.229 10.315 274.91 10.838C274.939 10.861 274.955 10.896 274.983 10.919C272.502 10.116 268.727 10.104 266.112 10.814C264.87 11.234 263.656 11.714 262.454 12.197C259.834 13.346 255.947 15.55 258.703 16.888C259.84 17.44 261.926 16.386 263.103 16.303C266.043 16.096 269.714 17.242 272.292 18.629C275.211 20.2 278.043 26.5251 280.708 26.7531C282.482 26.9051 283.216 25.218 284.399 24.107C285.829 22.764 287.143 21.7871 288.653 21.1281C288.816 20.9551 289.013 20.807 289.246 20.715C289.273 20.704 289.27 20.695 289.297 20.684C290.568 20.186 295.746 18.378 296.902 17.939C302.7 15.739 306.433 13.405 308.55 10.2C308.445 8.78001 307.873 7.33105 307.669 5.95905C307.15 2.45805 305.924 -1.146 303.803 -4C303.197 -4.553 302.407 -5.34299 301.835 -5.77399C300.602 -6.70199 299.117 -7.23496 296.528 -7.80396C296.265 -7.86196 294.473 -8.24795 294.051 -8.34595C292.667 -8.66795 291.381 -8.846 290.102 -9Z" fill="#F4F4F4"/>
<path d="M296.897 29.0862C295.883 29.2802 295.213 30.2892 295.402 31.3352C295.59 32.3812 296.567 33.0723 297.581 32.8783C298.594 32.6833 299.257 31.6762 299.068 30.6302C298.88 29.5842 297.909 28.8912 296.897 29.0862ZM325.22 23.6422C324.208 23.8362 323.537 24.8453 323.725 25.8913C323.914 26.9373 324.892 27.6282 325.905 27.4342C326.917 27.2392 327.581 26.2322 327.392 25.1862C327.204 24.1402 326.233 23.4472 325.22 23.6422ZM299.959 31.6182C298.946 31.8132 298.283 32.8202 298.471 33.8662C298.66 34.9122 299.63 35.6052 300.643 35.4102C301.656 35.2152 302.327 34.2072 302.138 33.1612C301.949 32.1152 300.972 31.4232 299.959 31.6182ZM323.239 27.1432C322.226 27.3382 321.555 28.3472 321.744 29.3932C321.933 30.4382 322.91 31.1302 323.923 30.9362C324.936 30.7412 325.607 29.7322 325.418 28.6862C325.229 27.6412 324.252 26.9492 323.239 27.1432ZM303.788 33.7732C302.775 33.9672 302.104 34.9692 302.293 36.0142C302.482 37.0602 303.458 37.7522 304.471 37.5572C305.485 37.3632 306.155 36.3543 305.966 35.3083C305.777 34.2633 304.802 33.5782 303.788 33.7732ZM320.417 30.5763C319.404 30.7713 318.739 31.7712 318.928 32.8172C319.117 33.8632 320.087 34.5562 321.1 34.3612C322.113 34.1672 322.784 33.1582 322.595 32.1122C322.406 31.0662 321.43 30.3823 320.417 30.5763ZM308.183 34.5482C307.17 34.7432 306.507 35.7502 306.696 36.7962C306.884 37.8412 307.854 38.5352 308.867 38.3402C309.88 38.1452 310.55 37.1372 310.361 36.0912C310.173 35.0452 309.196 34.3532 308.183 34.5482ZM316.588 32.9322C315.574 33.1272 314.904 34.1362 315.093 35.1822C315.282 36.2272 316.258 36.9192 317.272 36.7252C318.285 36.5302 318.948 35.5233 318.76 34.4773C318.571 33.4313 317.601 32.7382 316.588 32.9322ZM312.323 33.9162C311.311 34.1102 310.647 35.1172 310.836 36.1632C311.024 37.2092 311.995 37.9022 313.007 37.7082C314.02 37.5132 314.691 36.5043 314.502 35.4593C314.314 34.4133 313.336 33.7212 312.323 33.9162Z" fill="#F4F4F4"/>
<path d="M299.124 47.4981C297.987 47.3871 296.845 47.5101 295.759 47.9731C295.382 48.1341 295.016 48.3352 294.676 48.5682C294.319 48.8112 293.986 49.0891 293.706 49.4251C292.668 50.6701 292.734 52.2281 293.092 53.7351C293.295 54.5851 293.579 55.4121 293.814 56.2531C293.979 56.8481 294.123 57.4691 294.133 58.0911C294.139 58.4981 294.073 58.9071 293.985 59.3021C293.601 61.0261 292.528 62.4791 291.54 63.8831C291.077 64.5411 290.635 65.2061 290.244 65.9011C289.846 65.6211 289.436 65.3491 289.07 65.0441C288.103 65.2241 287.507 65.7731 286.725 67.0131C286.636 67.1531 286.486 67.4031 286.291 67.7271C286.196 67.9671 286.069 68.3311 285.994 68.4861C284.254 72.0811 279.399 81.6891 279.712 87.0451C279.805 87.0871 279.887 87.1311 279.982 87.1721C281.635 87.8911 283.036 88.3711 286.127 89.3371C290.625 90.7431 295.046 91.5041 300.704 91.9631C309.874 92.7061 314.645 91.9361 320.58 88.1931C321.129 83.0761 317.522 73.3711 316.339 69.6131C316.081 69.0641 315.753 68.3611 315.615 68.0951C315.22 67.3351 314.863 66.8771 314.394 66.6221C314.078 66.8281 313.769 67.0081 313.455 67.1961C313.355 66.3391 313.201 65.4871 313.001 64.6511C312.548 62.7661 311.911 60.9281 311.159 59.1501C310.411 57.3791 309.539 55.6571 308.521 54.0341C307.436 52.3031 306.184 50.6201 304.464 49.5251C302.891 48.5241 301.015 47.6841 299.124 47.4981ZM298.681 48.6741C300.627 48.7791 302.61 49.7351 304.183 50.7861C304.855 51.2341 305.427 51.8531 305.943 52.4761C306.522 53.1771 307.04 53.9241 307.523 54.6971C308.503 56.2661 309.336 57.9371 310.058 59.6461C310.814 61.4371 311.459 63.2881 311.895 65.1911C312.094 66.0621 312.243 66.9491 312.317 67.8421C310.787 68.6571 309.272 69.2601 307.715 69.6001C302.43 70.7531 295.96 69.4951 291.197 66.5561C291.695 65.6671 292.292 64.8271 292.875 63.9881C293.968 62.4141 295.007 60.7391 295.233 58.7711C295.461 56.7881 294.493 54.9571 294.12 53.0611C293.926 52.0751 293.909 51.0061 294.582 50.2031C294.794 49.9521 295.045 49.7512 295.314 49.5682C296.361 48.8582 297.513 48.6121 298.681 48.6741Z" fill="#F4F4F4"/>
<path d="M251.585 61.885C250.203 61.338 248.655 62.057 248.125 63.484L237.668 91.655C237.138 93.082 237.825 94.685 239.207 95.232L252.366 100.437C253.749 100.983 255.296 100.264 255.826 98.837L266.283 70.666C266.813 69.239 266.127 67.636 264.745 67.09L251.585 61.885ZM251.074 62.654C251.869 62.969 252.272 63.885 251.967 64.707C251.662 65.529 250.767 65.941 249.97 65.626C249.174 65.311 248.783 64.39 249.087 63.568C249.392 62.746 250.277 62.339 251.074 62.654ZM253.863 66.312C254.659 66.626 255.051 67.548 254.746 68.37C254.441 69.191 253.553 69.607 252.756 69.292C251.961 68.977 251.561 68.053 251.866 67.231C252.171 66.409 253.067 65.997 253.863 66.312ZM249.275 67.501C250.07 67.816 250.47 68.74 250.165 69.562C249.86 70.384 248.968 70.788 248.171 70.473C247.375 70.158 246.98 69.245 247.285 68.423C247.59 67.601 248.478 67.186 249.275 67.501Z" fill="#F4F4F4"/>
<path d="M233.349 -4.04004L223.305 7.97498C223.641 8.13998 223.97 8.33295 224.266 8.59595L228.497 12.364C228.793 12.627 229.028 12.942 229.236 13.261L239.28 1.24597L233.349 -4.04004ZM220.549 8.81396C219.864 9.00597 219.223 9.40398 218.724 10.001L215.572 13.7759C214.243 15.3669 214.413 17.768 215.955 19.14L219.614 22.4009C221.155 23.7729 223.479 23.5899 224.808 21.9999L227.962 18.231C229.291 16.641 229.121 14.2389 227.581 12.8669L223.921 9.60596C222.958 8.74896 221.691 8.49397 220.549 8.81396ZM214.3 18.753L203.438 31.752L209.367 37.032L220.23 24.032C219.894 23.867 219.569 23.665 219.274 23.402L215.042 19.634C214.747 19.371 214.508 19.072 214.3 18.753Z" fill="#F4F4F4"/>
<path d="M219.302 43.4948L218.053 46.7139L222.074 49.4249L224.464 47.3638L222.762 42.6528L219.302 43.4948ZM219.577 48.8939C216.5 53.4389 216.714 59.6079 220.208 63.9249C224.456 69.1729 232.022 69.8718 237.105 65.4868C242.189 61.1018 242.866 53.2919 238.618 48.0449C235.159 43.7709 229.398 42.4368 224.541 44.6688L225.185 46.1599C229.399 44.2239 234.399 45.3849 237.401 49.0939C241.088 53.6479 240.5 60.4248 236.089 64.2308C231.677 68.0368 225.111 67.4299 221.425 62.8759C218.392 59.1289 218.207 53.7708 220.878 49.8278L219.577 48.8939Z" fill="#F4F4F4"/>
<path d="M145.359 54.6132C144.326 54.2652 142.204 59.0781 141.837 59.8701C139.551 64.7951 137.953 70.4372 135.056 75.0022C135.589 75.7252 135.899 76.1152 136.27 76.4942C136.94 77.1782 137.685 77.8402 138.475 78.5242C138.544 78.3502 138.667 78.0121 138.721 77.9091C140.215 75.0591 142.891 69.9582 146.229 69.1232C148.639 71.5202 151.089 73.8742 152.816 76.8772C154.618 80.0112 155.692 83.8722 156.716 87.3602C157.113 88.7152 157.287 90.3242 158.062 91.5252C158.482 92.1752 159.089 92.7751 159.751 93.3491C163.705 95.5281 167.609 97.3062 171.61 98.6882C172.276 98.9182 172.794 99.1272 173.951 99.6112C174.061 99.6572 174.114 99.6802 174.175 99.7062C175.231 100.147 176.01 100.439 176.694 100.652C176.715 100.484 176.754 100.155 176.767 100.089C177.473 96.6132 176.085 91.9122 174.391 88.8932C168.309 78.0562 159.831 70.0761 150.834 61.8571C149.312 60.4681 147.801 58.9162 146.671 57.1662C146.455 56.8322 145.638 54.7072 145.359 54.6132Z" fill="#F4F4F4"/>
<path d="M189.352 33C185.699 33.056 181.885 34.1231 178.808 36.1021C175.778 38.0531 173.372 42.02 172.357 45.497C172.069 46.483 171.815 47.739 171.434 48.913C171.457 48.915 171.479 48.919 171.503 48.921C171.189 49.628 170.867 50.409 171.029 50.905C171.102 51.13 171.764 51.233 171.942 51.313C172.713 51.657 173.479 52.315 174.16 52.838C174.189 52.861 174.205 52.896 174.233 52.919C171.752 52.116 167.977 52.104 165.362 52.814C164.12 53.234 162.906 53.714 161.704 54.197C159.084 55.346 155.197 57.55 157.953 58.888C159.09 59.44 161.176 58.386 162.353 58.303C165.293 58.096 168.964 59.242 171.542 60.629C174.461 62.2 177.293 68.5251 179.958 68.7531C181.732 68.9051 182.466 67.218 183.649 66.107C185.079 64.764 186.393 63.7871 187.903 63.1281C188.066 62.9551 188.263 62.807 188.496 62.715C188.523 62.704 188.52 62.695 188.547 62.684C189.818 62.186 194.996 60.378 196.152 59.939C201.95 57.739 205.683 55.405 207.8 52.2C207.695 50.78 207.123 49.331 206.919 47.959C206.4 44.458 205.174 40.854 203.053 38C202.447 37.447 201.657 36.657 201.085 36.226C199.852 35.298 198.367 34.765 195.778 34.196C195.515 34.138 193.723 33.7521 193.301 33.6541C191.917 33.3321 190.631 33.154 189.352 33Z" fill="#F4F4F4"/>
<path d="M196.147 71.0862C195.133 71.2802 194.463 72.2892 194.652 73.3352C194.84 74.3812 195.817 75.0723 196.831 74.8783C197.844 74.6833 198.507 73.6762 198.318 72.6302C198.13 71.5842 197.159 70.8912 196.147 71.0862ZM224.47 65.6422C223.458 65.8362 222.787 66.8453 222.975 67.8913C223.164 68.9373 224.142 69.6282 225.155 69.4342C226.167 69.2392 226.831 68.2322 226.642 67.1862C226.454 66.1402 225.483 65.4472 224.47 65.6422ZM199.209 73.6182C198.196 73.8132 197.533 74.8202 197.721 75.8662C197.91 76.9122 198.88 77.6052 199.893 77.4102C200.906 77.2152 201.577 76.2072 201.388 75.1612C201.199 74.1152 200.222 73.4232 199.209 73.6182ZM222.489 69.1432C221.476 69.3382 220.805 70.3472 220.994 71.3932C221.183 72.4382 222.16 73.1302 223.173 72.9362C224.186 72.7412 224.857 71.7322 224.668 70.6862C224.479 69.6412 223.502 68.9492 222.489 69.1432ZM203.038 75.7732C202.025 75.9672 201.354 76.9692 201.543 78.0142C201.732 79.0602 202.708 79.7522 203.721 79.5572C204.735 79.3632 205.405 78.3543 205.216 77.3083C205.027 76.2633 204.052 75.5782 203.038 75.7732ZM219.667 72.5763C218.654 72.7713 217.989 73.7712 218.178 74.8172C218.367 75.8632 219.337 76.5562 220.35 76.3612C221.363 76.1672 222.034 75.1582 221.845 74.1122C221.656 73.0662 220.68 72.3823 219.667 72.5763ZM207.433 76.5482C206.42 76.7432 205.757 77.7502 205.946 78.7962C206.134 79.8412 207.104 80.5352 208.117 80.3402C209.13 80.1452 209.8 79.1372 209.611 78.0912C209.423 77.0452 208.446 76.3532 207.433 76.5482ZM215.838 74.9322C214.824 75.1272 214.154 76.1362 214.343 77.1822C214.532 78.2272 215.508 78.9192 216.522 78.7252C217.535 78.5302 218.198 77.5233 218.01 76.4773C217.821 75.4313 216.851 74.7382 215.838 74.9322ZM211.573 75.9162C210.561 76.1102 209.897 77.1172 210.086 78.1632C210.274 79.2092 211.245 79.9022 212.257 79.7082C213.27 79.5132 213.941 78.5043 213.752 77.4593C213.564 76.4133 212.586 75.7212 211.573 75.9162Z" fill="#F4F4F4"/>
<path d="M198.374 89.4981C197.237 89.3871 196.095 89.5101 195.009 89.9731C194.632 90.1341 194.266 90.3352 193.926 90.5682C193.569 90.8112 193.236 91.0891 192.956 91.4251C191.918 92.6701 191.984 94.2281 192.342 95.7351C192.545 96.5851 192.829 97.4121 193.064 98.2531C193.229 98.8481 193.373 99.4691 193.383 100.091C193.389 100.498 193.323 100.907 193.235 101.302C192.851 103.026 191.778 104.479 190.79 105.883C190.327 106.541 189.885 107.206 189.494 107.901C189.096 107.621 188.686 107.349 188.32 107.044C187.353 107.224 186.757 107.773 185.975 109.013C185.886 109.153 185.736 109.403 185.541 109.727C185.446 109.967 185.319 110.331 185.244 110.486C183.504 114.081 178.649 123.689 178.962 129.045C179.055 129.087 179.137 129.131 179.232 129.172C180.885 129.891 182.286 130.371 185.377 131.337C189.875 132.743 194.296 133.504 199.954 133.963C209.124 134.706 213.895 133.936 219.83 130.193C220.379 125.076 216.772 115.371 215.589 111.613C215.331 111.064 215.003 110.361 214.865 110.095C214.47 109.335 214.113 108.877 213.644 108.622C213.328 108.828 213.019 109.008 212.705 109.196C212.605 108.339 212.451 107.487 212.251 106.651C211.798 104.766 211.161 102.928 210.409 101.15C209.661 99.3791 208.789 97.6571 207.771 96.0341C206.686 94.3031 205.434 92.6201 203.714 91.5251C202.141 90.5241 200.265 89.6841 198.374 89.4981ZM197.931 90.6741C199.877 90.7791 201.86 91.7351 203.433 92.7861C204.105 93.2341 204.677 93.8531 205.193 94.4761C205.772 95.1771 206.29 95.9241 206.773 96.6971C207.753 98.2661 208.586 99.9371 209.308 101.646C210.064 103.437 210.709 105.288 211.145 107.191C211.344 108.062 211.493 108.949 211.567 109.842C210.037 110.657 208.522 111.26 206.965 111.6C201.68 112.753 195.21 111.495 190.447 108.556C190.945 107.667 191.542 106.827 192.125 105.988C193.218 104.414 194.257 102.739 194.483 100.771C194.711 98.7881 193.743 96.9571 193.37 95.0611C193.176 94.0751 193.159 93.0061 193.832 92.2031C194.044 91.9521 194.295 91.7512 194.564 91.5682C195.611 90.8582 196.763 90.6121 197.931 90.6741Z" fill="#F4F4F4"/>
<path d="M150.835 103.884C149.453 103.337 147.905 104.056 147.375 105.483L136.918 133.655C136.388 135.082 137.075 136.684 138.457 137.231L151.616 142.437C152.999 142.983 154.546 142.264 155.076 140.837L165.533 112.666C166.063 111.239 165.377 109.636 163.995 109.09L150.835 103.884ZM150.324 104.654C151.119 104.969 151.522 105.885 151.217 106.707C150.912 107.529 150.017 107.941 149.22 107.626C148.424 107.311 148.033 106.39 148.337 105.568C148.642 104.746 149.527 104.339 150.324 104.654ZM153.113 108.312C153.909 108.626 154.301 109.547 153.996 110.369C153.691 111.19 152.803 111.607 152.006 111.292C151.211 110.977 150.811 110.053 151.116 109.231C151.421 108.409 152.317 107.997 153.113 108.312ZM148.525 109.501C149.32 109.816 149.72 110.74 149.415 111.562C149.11 112.384 148.218 112.788 147.421 112.473C146.625 112.158 146.23 111.245 146.535 110.423C146.84 109.601 147.728 109.186 148.525 109.501Z" fill="#F4F4F4"/>
<path d="M132.599 37.96L122.555 49.975C122.891 50.14 123.22 50.3329 123.516 50.5959L127.747 54.364C128.043 54.627 128.278 54.942 128.486 55.261L138.53 43.246L132.599 37.96ZM119.799 50.814C119.114 51.006 118.473 51.404 117.974 52.001L114.822 55.7759C113.493 57.3669 113.663 59.768 115.205 61.14L118.864 64.4009C120.405 65.7729 122.729 65.5899 124.058 63.9999L127.212 60.231C128.541 58.641 128.371 56.2389 126.831 54.8669L123.171 51.606C122.208 50.749 120.941 50.494 119.799 50.814ZM113.55 60.753L102.688 73.752L108.617 79.032L119.48 66.032C119.144 65.867 118.819 65.665 118.524 65.402L114.292 61.634C113.997 61.371 113.758 61.072 113.55 60.753Z" fill="#F4F4F4"/>
<path d="M118.552 85.4953L117.303 88.7144L121.324 91.4254L123.714 89.3643L122.012 84.6533L118.552 85.4953ZM118.827 90.8943C115.75 95.4393 115.964 101.608 119.458 105.925C123.706 111.173 131.272 111.872 136.355 107.487C141.439 103.102 142.116 95.2923 137.868 90.0453C134.409 85.7713 128.648 84.4373 123.791 86.6693L124.435 88.1603C128.649 86.2243 133.649 87.3854 136.651 91.0944C140.338 95.6484 139.75 102.425 135.339 106.231C130.927 110.037 124.361 109.43 120.675 104.876C117.642 101.129 117.457 95.7713 120.128 91.8283L118.827 90.8943Z" fill="#F4F4F4"/>
<path d="M80.4025 21.2022C80.4025 21.2022 54.1709 25.9522 45.5575 49.4334C36.9441 72.915 28.7218 95.7062 28.7218 95.7062L86.993 107.901L91.9864 94.4227L103.929 190.989L225.815 175.914L213.68 77.7917L222.799 91.1049L276.347 65.0805C276.347 65.0805 262.804 44.9812 248.729 24.3056C234.655 3.63042 208.069 5.41281 208.069 5.41281C208.069 5.41281 206.666 5.73219 204.831 6.24099L204.779 5.81973L172.428 9.82072C170.735 19.589 160.006 28.0776 146.107 29.7966C132.208 31.5157 119.738 25.8962 115.712 16.8352L82.8926 20.8943L82.9273 21.1751C81.4341 21.165 80.4025 21.2022 80.4025 21.2022Z" fill="#FF5900"/>
<path d="M80.4036 21.2157C80.4036 21.2157 72.5941 22.6474 64.1018 27.739L118.381 21.0259C117.289 19.7378 116.379 18.3413 115.713 16.8487L82.8937 20.9078L82.9268 21.1756C81.4335 21.1654 80.4036 21.2157 80.4036 21.2157ZM172.429 9.83423C172.148 11.444 171.621 13.0181 170.872 14.534L225.457 7.78301C215.989 4.91278 208.07 5.42631 208.07 5.42631C208.07 5.42631 206.665 5.73263 204.83 6.24144L204.78 5.83323L172.429 9.83423Z" fill="#FFCA00"/>
<path d="M246.174 20.9634L47.2224 45.5692C46.6203 46.8 46.0609 48.074 45.5651 49.4267C44.5019 52.3242 44.5198 52.3017 43.4861 55.1363L252.14 29.3305C250.447 26.8336 250.47 26.8502 248.733 24.2994C247.923 23.1082 247.057 22.0104 246.174 20.9634Z" fill="#FFCA00"/>
<path d="M261.982 43.8623L37.4816 71.6279C35.8769 76.0455 34.2539 80.4819 33.2873 83.1553L268.858 54.0204C267.27 51.6627 264.615 47.7554 261.982 43.8623Z" fill="#FFCA00"/>
<path d="M31.3711 96.2529L64.4092 103.175L89.9099 100.022L91.9908 94.4282L92.6408 99.6839L214.527 84.6093L213.684 77.7976L218.05 84.1736L243.563 81.0183L273.919 66.2553L31.3711 96.2529Z" fill="#FFCA00"/>
<path d="M69.0002 25.1129C69.0002 25.1129 74.5043 31.7829 79.2293 43.4467C83.9501 55.1107 84.9036 63.8918 86.5424 69.4355C89.9974 81.118 103.032 191.097 103.032 191.097C103.032 191.097 140.755 188.992 165.675 186.634C190.598 184.276 226.591 175.816 226.591 175.816L211.247 56.005C211.247 56.005 210.859 42.9857 213.536 29.9084C216.212 16.8314 222.21 6.8826 222.21 6.8826C222.21 6.8826 212.782 3.40145 202.88 4.29993C192.978 5.19881 184.151 8.32745 184.151 8.32745L148.642 52.2344L105.327 17.9452C105.327 17.9452 92.4691 17.2941 84.7683 18.7655C77.0674 20.2368 69.0002 25.1129 69.0002 25.1129Z" fill="#AF52DE"/>
<path d="M92.1553 17.9756L150.175 64.6981L195.586 5.37837C195.586 5.37837 192.65 5.90555 189.775 6.65564C186.901 7.40614 184.083 8.38007 184.083 8.38007L148.997 51.7854L105.307 17.955C105.307 17.955 101.327 17.7774 98.0373 17.7827C94.7513 17.7875 92.1553 17.9756 92.1553 17.9756Z" fill="#52B1DE"/>
<path d="M74.7276 22.1016C74.7276 22.1016 86.0312 43.3271 90.101 61.8909C94.1707 80.4544 91.0066 96.356 91.0066 96.356C91.0066 96.356 89.0942 78.3464 84.052 60.297C80.5527 47.7534 68.9977 25.1001 68.9977 25.1001C68.9977 25.1001 70.3793 24.2412 71.8118 23.4917C73.2443 22.7422 74.7276 22.1016 74.7276 22.1016Z" fill="#52B1DE"/>
<path d="M213.126 4.788C213.126 4.788 206.061 26.5115 206.726 45.496C207.388 64.481 214.082 79.1634 214.082 79.1634C214.082 79.1634 211.565 61.2289 211.919 42.5121C212.163 29.5055 222.356 6.65961 222.356 6.65961C222.356 6.65961 219.352 5.76207 217.853 5.37504C216.355 4.98801 213.126 4.788 213.126 4.788Z" fill="#52B1DE"/>
<path d="M177.235 54.3498C175.038 54.7775 174.475 58.9082 174.979 60.5995C175.029 60.7756 175.775 62.4112 175.963 62.6926C176.441 63.4097 177.161 63.7016 176.978 63.7971C176.652 63.9714 176.243 63.6534 175.872 63.6363C175.514 63.6193 174.364 63.7707 174.005 63.8151C171.445 64.1316 167.579 66.6198 169.286 69.7609C170.171 71.3916 174.389 70.9454 175.705 70.262C175.838 70.1951 175.892 70.1623 176.035 70.0787C172.526 73.0039 169.541 76.5863 169.083 81.3258C168.931 82.9149 168.3 90.2106 171.479 88.9687C172.701 88.4919 171.565 84.2338 171.636 82.9008C171.64 82.8287 171.667 82.749 171.675 82.676C172.996 84.5094 175.911 84.3892 178.528 82.7998C178.91 82.5669 181.445 80.0075 181.077 79.5445C180.909 79.3298 180.744 80.0014 180.503 80.1335C179.925 80.4533 178.944 80.3661 178.353 80.1404C176.747 79.5225 176.132 77.0597 174.148 77.1377C173.756 77.153 173.347 77.2624 172.953 77.428C173.67 75.7876 174.666 74.2914 175.964 73.1573C175.95 74.7858 176.463 76.4551 178.296 76.7283C180.314 77.0291 181.742 75.1403 182.513 73.5646C182.659 73.2689 182.92 72.3007 182.985 72.0167C183.038 71.7743 182.884 71.1667 183.102 71.2898C183.602 71.5773 183.28 72.4646 183.589 72.9524C183.82 73.3129 184.488 73.8484 184.844 74.0791C187.751 75.9721 191.464 73.6922 190.421 70.1516C190.152 69.245 188.834 68.1398 188.044 67.687C187.821 67.5612 187.239 67.6473 187.335 67.4121C187.433 67.1712 187.848 67.509 188.102 67.5502C188.816 67.6645 188.947 67.6778 189.719 67.6225C191.51 67.4938 193.209 66.7548 193.608 64.823C194.152 62.1808 192.172 60.5523 189.604 60.6296C189.336 60.6379 188.182 60.8237 187.953 60.8856C187.697 60.9546 187.265 61.4175 187.208 61.1593C187.147 60.8692 187.681 60.7933 187.891 60.5824C188.049 60.4199 188.202 60.2513 188.314 60.051C188.841 59.1143 189.157 57.1807 188.637 56.1645C187.997 54.9075 185.635 55.2448 184.635 55.6363C183.797 55.9641 182.763 57.7241 181.988 59.3699C181.789 57.4607 180.593 55.3971 178.706 54.7117C178.233 54.5394 177.733 54.253 177.235 54.3498ZM181.559 63.1013C183.232 62.8943 184.76 64.0855 184.967 65.762C185.175 67.4389 183.983 68.9664 182.31 69.1734C180.632 69.3809 179.105 68.1896 178.897 66.5127C178.69 64.8362 179.881 63.3088 181.559 63.1013Z" fill="white"/>
<path d="M225.224 5.05231C224.963 5.09115 224.718 5.21848 224.547 5.44682C222.083 8.7775 219.485 12.0683 217.504 15.7209C214.949 20.4285 213.234 25.5306 211.923 30.7097C210.773 35.2566 209.897 39.8967 209.731 44.5929C209.649 46.8051 209.759 49.0046 210.002 51.2035C210.068 51.7677 210.574 52.1751 211.138 52.112C211.702 52.0492 212.112 51.5406 212.046 50.9768C211.811 48.878 211.71 46.7868 211.785 44.6755C211.953 39.9718 212.858 35.3213 214.032 30.7726C215.279 25.9135 216.92 21.1225 219.32 16.7007C221.258 13.1334 223.797 9.93243 226.204 6.67963C226.542 6.22346 226.441 5.58143 225.985 5.24331C225.757 5.07424 225.484 5.01388 225.224 5.05231Z" fill="black"/>
<path d="M67.1772 21.2708C66.9205 21.2064 66.6424 21.235 66.3992 21.3799C65.9088 21.6709 65.7498 22.2961 66.0423 22.7842C69.0876 27.904 71.722 33.2533 74.2105 38.6628C76.2241 43.0481 78.2598 47.4436 79.8002 52.0238C81.6644 57.5798 82.8497 63.3097 83.5969 69.1165C83.6707 69.6798 84.1806 70.0834 84.7436 70.0108C85.3066 69.9383 85.7076 69.4278 85.6379 68.8641C84.8742 62.9238 83.6588 57.0517 81.7499 51.3682C80.1884 46.7181 78.1326 42.2609 76.0859 37.8092C73.5685 32.3336 70.8969 26.9181 67.8149 21.7361C67.6687 21.4922 67.4298 21.3361 67.1772 21.2708Z" fill="black"/>
<path d="M32.0823 87.3902C31.7925 87.3929 31.5113 87.4322 31.2337 87.5341C30.1116 87.9443 29.5801 89.0072 29.5214 90.1418C29.5184 90.1509 29.5145 90.1534 29.5122 90.1686C29.5104 90.1871 29.5042 90.2036 29.5064 90.2212C29.2725 90.9103 29.0484 91.6123 28.8446 92.3106C28.7103 92.7657 28.5909 93.2082 28.4692 93.665C27.9898 95.419 27.0787 97.7693 28.6545 99.2504C28.8188 99.4063 29.0211 99.5673 29.2246 99.6719C29.5261 99.8306 29.7149 99.8831 30.0459 99.9458C30.135 99.9625 30.2312 99.9685 30.3233 99.9766C30.3736 99.9807 30.4152 99.9826 30.4652 99.9847C30.461 99.984 30.447 99.9725 30.4513 99.9736C30.464 99.9757 30.4769 99.9795 30.4937 99.9812C30.743 100.02 30.9923 100.058 31.2457 100.095C32.7494 100.325 34.2738 100.486 35.7864 100.686C38.7656 101.083 41.6997 101.683 44.6637 102.192C46.0485 102.431 47.4538 102.634 48.8469 102.84C54.0395 103.607 59.2388 104.294 64.4115 105.202C71.8128 106.502 79.1373 108.189 86.5941 109.167C87.719 109.315 88.7535 108.532 88.9002 107.406C89.051 106.279 88.2521 105.248 87.1272 105.1C79.7293 104.128 72.4708 102.441 65.1246 101.151C59.9179 100.235 54.6758 99.5364 49.4453 98.7642C47.7735 98.5167 46.1015 98.2689 44.436 97.9717C41.8974 97.5181 39.3528 97.0168 36.7909 96.6767C35.4088 96.4933 34.0274 96.3487 32.648 96.153C32.4624 96.1266 32.2802 96.0948 32.0943 96.066C32.0938 96.0624 32.0891 96.0576 32.0927 96.0534C32.1288 95.9092 32.1694 95.7687 32.2055 95.625C32.2815 95.335 32.3574 95.0438 32.4336 94.755C32.5539 94.3203 32.6659 93.8866 32.7948 93.4541C32.942 92.9349 33.1105 92.4204 33.2747 91.9053C33.7385 92.0025 34.2054 92.0923 34.6672 92.1732C36.1752 92.4368 37.6906 92.6597 39.2084 92.8682C44.0107 93.5283 48.8255 94.0892 53.6134 94.868C54.7344 95.051 55.7852 94.2993 55.9699 93.1782C56.1503 92.0572 55.3971 90.9928 54.2762 90.8102C52.5124 90.5232 50.7378 90.2486 48.9708 90.003C45.2135 89.4809 41.4484 89.0629 37.698 88.496C36.6674 88.34 35.6434 88.1695 34.6174 87.9831C34.3589 87.9371 34.1044 87.8907 33.846 87.8455C33.824 87.8358 33.8019 87.824 33.78 87.8147C33.7322 87.7966 33.7001 87.7711 33.6564 87.7525C33.5952 87.7269 33.5252 87.6966 33.4642 87.6727C33.3031 87.6101 33.1126 87.5458 32.9498 87.503C32.6671 87.4289 32.3721 87.3875 32.0823 87.3902Z" fill="black"/>
<path fill-rule="evenodd" clip-rule="evenodd" d="M266.671 55.2191C267.117 54.8929 267.568 54.5637 268.121 54.4805C268.495 54.4242 268.847 54.4557 269.198 54.5806C270.19 54.9368 270.959 55.8746 271.635 56.6991C271.748 56.8371 271.859 56.9719 271.967 57.1002C273.229 58.5851 274.306 60.2248 275.354 61.862C275.826 62.5965 276.256 63.3262 276.689 64.08C276.749 64.1817 276.816 64.2797 276.882 64.3778C276.915 64.4261 276.948 64.4744 276.98 64.5231C276.986 64.528 276.992 64.5327 276.998 64.5374C277.006 64.5437 277.014 64.55 277.022 64.5569L277.04 64.5718C277.124 64.6404 277.302 64.785 277.356 64.852L277.371 64.8708C277.658 65.2329 277.839 65.4627 277.949 65.8927C278.001 66.0813 278.014 66.28 278.01 66.4752L269.943 70.263L270.045 70.2947C269.688 70.4769 269.332 70.6623 268.976 70.8478C268.669 71.0077 268.361 71.1676 268.053 71.3258C266.134 72.312 264.212 73.2958 262.29 74.2798C261.979 74.4389 261.668 74.598 261.357 74.7571C253.76 78.6463 246.162 82.5236 238.548 86.3723C238.197 86.5495 237.846 86.7283 237.496 86.907C236.433 87.4488 235.37 87.9907 234.289 88.4922C232.762 89.2003 231.205 89.8411 229.649 90.4818C229.132 90.6946 228.615 90.9075 228.099 91.1228C227.91 91.202 227.72 91.2837 227.53 91.3655C227.245 91.4881 226.96 91.611 226.673 91.7264C226.287 92.0891 225.766 92.4313 225.261 92.5745C224.372 92.827 223.508 92.6093 222.789 92.0514C222.421 91.7665 222.146 91.4124 221.865 91.0518C221.813 90.985 221.761 90.9179 221.708 90.851C221.593 90.7068 221.47 90.5736 221.347 90.4394C221.281 90.3675 221.215 90.2952 221.149 90.2209C220.808 89.8297 220.475 89.4231 220.145 89.0196C220.05 88.903 219.954 88.7865 219.859 88.6708C219.802 88.6019 219.744 88.5329 219.687 88.4641C219.396 88.113 219.106 87.7641 218.798 87.429C218.684 87.3056 218.563 87.1847 218.441 87.0628C218.161 86.7835 217.876 86.4994 217.668 86.17C217.291 85.5647 217.267 84.8669 217.492 84.2103C217.955 82.8567 219.457 82.2042 220.702 81.78C220.996 81.6796 221.422 81.433 221.818 81.2033C221.996 81.1003 222.168 81.0008 222.32 80.9193C223.481 80.2936 224.646 79.6871 225.84 79.1241C226.866 78.6395 228.093 79.0792 228.577 80.1065C229.06 81.1342 228.623 82.3595 227.593 82.8445C226.522 83.3494 225.476 83.9032 224.432 84.4565C223.941 84.7166 223.45 84.9765 222.957 85.2312C222.855 85.2831 222.753 85.3255 222.652 85.3676C222.589 85.3936 222.527 85.4195 222.465 85.4474C222.65 85.6624 222.836 85.8751 223.022 86.088C223.301 86.4056 223.579 86.7236 223.853 87.05C224.005 87.2303 224.161 87.4055 224.318 87.5807C224.472 87.7528 224.625 87.9248 224.774 88.1015C224.802 88.0868 224.827 88.0675 224.853 88.0481C224.88 88.0268 224.908 88.0055 224.939 87.9908C225.629 87.6742 226.332 87.3928 227.036 87.1113C227.377 86.975 227.718 86.8387 228.057 86.6983C229.567 86.0739 231.077 85.4429 232.559 84.7557C233.66 84.245 234.743 83.6943 235.825 83.1439C236.115 82.9967 236.404 82.8496 236.694 82.7033C245.197 78.4053 253.679 74.066 262.16 69.7234C262.736 69.4279 263.314 69.1333 263.892 68.8385C264.85 68.3497 265.808 67.8606 266.763 67.3665C266.883 67.3048 267.002 67.2429 267.122 67.181C268.447 66.4943 269.773 65.8071 271.165 65.2552C271.536 65.1073 271.958 64.9668 272.356 64.8359C272.331 64.7954 272.308 64.7535 272.284 64.7117C272.26 64.6679 272.235 64.6242 272.209 64.5823C272.158 64.5023 272.107 64.4224 272.056 64.3424C271.151 62.924 270.244 61.5025 269.191 60.1893C268.975 59.9207 268.749 59.661 268.523 59.4013C268.432 59.2971 268.341 59.1928 268.251 59.0879C268.183 59.1302 268.115 59.1736 268.048 59.2172C267.909 59.3065 267.77 59.3962 267.624 59.4764C266.169 60.2805 264.639 60.9131 263.083 61.5014C262.022 61.9032 260.825 61.3773 260.425 60.3149C260.024 59.2525 260.56 58.056 261.625 57.6541C263.125 57.086 264.586 56.4611 265.989 55.6766C266.223 55.5458 266.447 55.3828 266.671 55.2191Z" fill="black"/>
<path d="M90.4393 94.3811C89.3209 94.587 88.5749 95.6582 88.7793 96.7752C89.7423 102.015 90.3261 107.305 91.0205 112.584C92.0015 120.047 92.9868 127.512 93.9312 134.98C94.836 142.128 95.7412 149.28 96.6991 156.422C97.387 161.549 98.1319 166.665 98.8606 171.787C99.1876 174.096 99.3143 176.428 99.678 178.732C99.9731 180.581 100.419 182.409 100.827 184.236C101.314 186.433 101.776 188.628 102.162 190.845C102.355 191.964 103.426 192.714 104.545 192.519C105.665 192.324 106.399 191.257 106.207 190.137C105.809 187.858 105.351 185.596 104.848 183.337C104.458 181.595 104.023 179.851 103.743 178.086C103.382 175.805 103.258 173.493 102.933 171.206C102.21 166.094 101.462 160.984 100.775 155.866C99.7843 148.494 98.8551 141.114 97.9217 133.735C96.9765 126.26 95.9791 118.798 94.9931 111.328C94.324 106.22 93.7651 101.098 92.8314 96.0278C92.6269 94.9109 91.5537 94.1758 90.4393 94.3811Z" fill="black"/>
<path d="M214.727 86.0553C214.461 86.0428 214.18 86.0837 213.914 86.182C212.848 86.575 212.305 87.7532 212.698 88.8191C213.762 91.6857 213.929 94.7456 214.248 97.7582C214.585 100.993 215.078 104.209 215.494 107.434C217.168 120.372 218.591 133.344 220.298 146.278C221.114 152.443 222.305 158.547 223.288 164.687C223.618 166.758 223.861 168.85 224.163 170.926C224.27 171.659 224.377 172.392 224.46 173.129C224.461 173.138 224.462 173.146 224.463 173.155C224.037 173.289 223.619 173.433 223.195 173.558C222.119 173.873 221.041 174.167 219.961 174.45C217.492 175.097 215.05 175.825 212.591 176.514C209.041 177.508 205.462 178.423 201.83 179.049C198.64 179.6 195.415 179.923 192.22 180.432C190.822 180.655 189.435 180.933 188.044 181.221C186.933 181.451 186.226 182.533 186.455 183.645C186.683 184.758 187.767 185.479 188.878 185.249C190.208 184.974 191.543 184.708 192.88 184.495C196.566 183.908 200.285 183.547 203.957 182.841C208.81 181.906 213.536 180.504 218.293 179.163C220.712 178.482 223.159 177.886 225.568 177.163C226.3 176.944 227.047 176.686 227.651 176.206C227.817 176.074 228.012 175.946 228.114 175.76C228.31 175.402 228.514 175.04 228.627 174.647C228.698 174.389 228.672 174.109 228.668 173.839C228.66 173.443 228.592 173.056 228.547 172.663C228.406 171.418 228.218 170.17 228.036 168.931C227.817 167.467 227.644 166.002 227.426 164.538C226.839 160.596 226.106 156.682 225.45 152.751C224.363 146.207 223.593 139.614 222.792 133.03C221.791 124.841 220.802 116.645 219.778 108.459C219.518 106.391 219.254 104.328 218.974 102.264C218.774 100.776 218.543 99.2834 218.383 97.7905C217.994 94.2731 217.798 90.7471 216.563 87.3953C216.27 86.5961 215.528 86.0927 214.727 86.0553Z" fill="black"/>
<path d="M185.528 5.7915C185.264 5.80544 185.01 5.92684 184.821 6.13801C176.036 15.9043 167.446 25.8338 159.287 36.1316C156.813 39.2517 154.388 42.398 151.996 45.5813C150.99 46.9242 149.962 48.2628 148.987 49.6317C148.471 49.2102 147.937 48.8133 147.413 48.4019C145.357 46.7854 143.284 45.1775 141.206 43.5873C135.611 39.3009 129.982 35.0693 124.416 30.7437C122.082 28.9299 119.743 27.1128 117.453 25.2456C115.424 23.5908 113.425 21.9001 111.371 20.2729C109.993 19.1802 108.586 18.1315 107.169 17.0888C106.712 16.7519 106.057 16.8495 105.72 17.3069C105.383 17.7643 105.491 18.4053 105.951 18.7417C107.347 19.7702 108.735 20.8038 110.095 21.8814C112.139 23.503 114.139 25.1941 116.162 26.8429C118.666 28.8861 121.221 30.8831 123.782 32.8554C129.782 37.475 135.821 42.036 141.822 46.658C143.472 47.9315 145.122 49.2136 146.765 50.502C146.968 50.6639 147.174 50.822 147.38 50.983C147.853 51.3559 148.415 51.8467 149.061 51.902C149.383 51.9297 149.713 51.85 149.975 51.6592C150.291 51.4311 150.585 50.926 150.809 50.6236C150.926 50.464 151.048 50.3122 151.165 50.1522C151.282 49.9931 151.39 49.8285 151.507 49.6698C151.742 49.3515 151.98 49.0319 152.218 48.714C154.221 46.0106 156.27 43.3382 158.332 40.6789C167.212 29.2389 176.668 18.2676 186.349 7.5032C186.728 7.08127 186.697 6.42861 186.273 6.0492C186.063 5.85924 185.791 5.77756 185.528 5.7915Z" fill="black"/>
<path d="M173.836 32.4937C173.576 32.539 173.338 32.6924 173.176 32.9246C172.257 34.2385 171.361 35.5736 170.411 36.8674C169.468 38.1561 168.475 39.4161 167.487 40.6739C164.248 44.8083 160.847 48.8159 157.741 53.0565C156.067 55.3383 154.526 57.6914 153.096 60.1329C152.552 61.0627 152.088 62.0347 151.53 62.9554C151.424 63.1311 151.304 63.3037 151.193 63.4767C151.172 63.5107 151.141 63.5593 151.105 63.604C151.039 63.54 150.964 63.466 150.899 63.4094C150.61 63.1558 150.273 62.9725 149.952 62.7622C148.834 62.0277 147.758 61.2702 146.516 60.7523C145.992 60.5332 145.393 60.7826 145.172 61.3069C144.955 61.8307 145.203 62.4312 145.728 62.6498C147.078 63.2114 148.241 64.109 149.466 64.8946C149.763 65.0866 149.951 65.4007 150.275 65.5717C150.448 65.6646 150.626 65.764 150.822 65.802C151 65.8364 151.195 65.8064 151.375 65.785C152.457 65.6578 153.188 64.2258 153.637 63.433C153.956 62.8659 154.245 62.2811 154.564 61.7128C155.422 60.1735 156.355 58.6685 157.334 57.1996C160.891 51.8464 165.149 47.0004 169.112 41.9496C170.111 40.6743 171.121 39.3927 172.078 38.0856C173.036 36.7802 173.934 35.4279 174.864 34.1019C175.187 33.637 175.071 32.9958 174.608 32.6701C174.372 32.5073 174.091 32.4484 173.836 32.4937Z" fill="black"/>
<path d="M211.967 56.1025C211.405 56.1803 211.013 56.6975 211.091 57.2598C211.155 57.7156 211.139 57.5845 211.16 57.7179C211.133 57.5687 211.193 58.0148 211.215 58.1641C211.257 58.4665 211.294 58.7665 211.339 59.0684C211.362 59.2206 211.444 59.6768 211.421 59.5246C211.315 58.7709 211.416 59.5231 211.488 59.9697C211.578 60.5305 212.106 60.9111 212.667 60.821C213.228 60.731 213.61 60.2013 213.52 59.6405C213.456 59.1925 213.472 59.3259 213.452 59.1958C213.47 59.342 213.396 58.9106 213.374 58.7649C213.329 58.4708 213.292 58.1683 213.252 57.8737C213.229 57.7248 213.174 57.2786 213.196 57.4271C213.304 58.1652 213.188 57.4302 213.129 56.9821C213.051 56.4194 212.53 56.025 211.967 56.1025Z" fill="black"/>
<path d="M212.381 64.677C211.818 64.7467 211.417 65.26 211.487 65.8237C212.046 70.3507 212.607 74.8818 213.167 79.4092C213.237 79.973 213.75 80.3732 214.314 80.3035C214.877 80.2339 215.278 79.7205 215.208 79.1568C214.648 74.6294 214.087 70.0983 213.528 65.5713C213.458 65.0076 212.944 64.6073 212.381 64.677Z" fill="black"/>
<path d="M88.179 82.8091C87.6282 82.9469 87.2869 83.5042 87.4255 84.0549C88.0582 86.5906 88.6419 89.1311 88.9833 91.7239C89.0571 92.2871 89.5778 92.6782 90.1406 92.604C90.7034 92.5299 91.0965 92.0221 91.0227 91.4588C90.6717 88.788 90.0747 86.1729 89.4244 83.5619C89.2858 83.0108 88.7298 82.6718 88.179 82.8091Z" fill="black"/>
<path d="M86.4311 74.4398C85.8722 74.5454 85.5036 75.0846 85.6059 75.6431C85.7365 76.5656 85.6567 76.0537 85.7374 76.5722C85.7505 76.6783 85.7012 76.1452 85.7225 76.2503C85.7636 76.4491 85.8338 77.0497 85.7966 76.85C85.7222 76.4493 85.7883 76.851 85.8631 77.4891C85.9247 78.0539 86.4352 78.4611 86.9993 78.3976C87.5633 78.334 87.9688 77.8268 87.9073 77.262C87.7673 76.2639 87.8533 76.8252 87.7721 76.2687C87.7534 76.1512 87.8456 76.7288 87.8392 76.6102C87.8276 76.382 87.7275 75.7073 87.7556 75.9338C87.8062 76.3768 87.7592 75.9305 87.6311 75.2629C87.5289 74.7044 86.99 74.3346 86.4311 74.4398Z" fill="black"/>
</g>
<defs>
<clipPath id="clip0_1202_11925">
<rect width="310" height="140" fill="white"/>
</clipPath>
</defs>
</svg>
