<svg width="672" height="476" viewBox="0 0 672 476" fill="none" xmlns="http://www.w3.org/2000/svg">
<path d="M164.011 6.37402C164.011 6.37402 93.115 10.3543 62.6686 69.6104C32.2221 128.868 3.0354 186.428 3.0354 186.428L153.087 237.716L170.694 203.718V462.893H497.826V199.541L517.579 237.716L667.642 186.428C667.642 186.428 638.412 128.868 607.965 69.6104C577.519 10.3543 506.657 6.37402 506.657 6.37402C506.657 6.37402 502.844 6.75967 497.826 7.50467V6.37402H411C403.331 31.6427 372.194 50.5745 334.89 50.5745C297.585 50.5745 266.459 31.6427 258.779 6.37402H170.694V7.12779C166.75 6.61287 164.011 6.37402 164.011 6.37402Z" fill="#FF5900"/>
<path d="M164.01 6.40918C164.01 6.40918 142.898 7.64062 118.784 18.3237H264.465C262 14.5615 260.05 10.5724 258.779 6.40918H170.693V7.12789C166.749 6.61297 164.01 6.40918 164.01 6.40918ZM411 6.40918C409.729 10.5724 407.822 14.5615 405.346 18.3237H551.849C527.757 7.64062 506.656 6.40918 506.656 6.40918C506.656 6.40918 502.843 6.75977 497.825 7.50477V6.40918H411Z" fill="#FFCA00"/>
<path d="M602.301 59.9385H68.3321C66.3381 62.9952 64.4428 66.1801 62.6899 69.5939C58.932 76.9059 58.9865 76.8522 55.3273 84.0075H615.338C611.679 76.8533 611.734 76.9048 607.976 69.5939C606.223 66.1801 604.295 62.9952 602.301 59.9385Z" fill="#FFCA00"/>
<path d="M636.605 125.64H34.0633C28.3772 136.793 22.6362 147.99 19.207 154.741H651.461C648.032 147.989 642.291 136.792 636.605 125.64Z" fill="#FFCA00"/>
<path d="M9.86035 188.739L94.9328 217.84H163.375L170.704 203.735V217.84H497.836V199.558L507.291 217.84H575.766L660.838 188.739H9.86035Z" fill="#FFCA00"/>
<path d="M132.589 12.9836C132.589 12.9836 144.958 32.415 153.635 64.793C162.301 97.1698 161.951 120.694 164.471 135.885C169.784 167.897 168.283 462.887 168.283 462.887C168.283 462.887 268.694 469.654 335.339 471.569C401.995 473.484 499.907 462.887 499.907 462.887L498.516 141.152C498.516 141.152 501.748 106.609 513.098 72.9146C524.449 39.2208 543.556 14.8823 543.556 14.8823C543.556 14.8823 519.771 2.59742 493.301 1.73519C466.832 0.874053 442.477 6.25888 442.477 6.25888L334.255 110.717L230.962 5.91268C230.962 5.91268 197.185 -0.0122823 176.347 1.3594C155.509 2.73108 132.589 12.9836 132.589 12.9836Z" fill="#AF52DE"/>
<path d="M196.133 1.68604L334.233 144.165L473.668 2.20096C473.668 2.20096 465.736 2.63481 457.891 3.67781C450.047 4.72191 442.279 6.37516 442.279 6.37516L335.339 109.645L230.907 5.93145C230.907 5.93145 220.444 4.16097 211.745 3.09934C203.057 2.03771 196.133 1.68604 196.133 1.68604Z" fill="#52B1DE"/>
<path d="M148.716 6.89551C148.716 6.89551 171.658 66.7005 176.347 117.104C181.036 167.507 167.473 208.508 167.473 208.508C167.473 208.508 168.305 160.275 160.877 110.913C155.728 76.6101 132.589 12.9487 132.589 12.9487C132.589 12.9487 136.522 11.13 140.554 9.61696C144.586 8.10395 148.716 6.89551 148.716 6.89551Z" fill="#52B1DE"/>
<path d="M520.231 6.375C520.231 6.375 494.451 61.4909 490.003 111.893C485.544 162.296 498.439 203.297 498.439 203.297C498.439 203.297 497.65 155.065 504.706 105.703C509.603 71.4005 544.016 14.3399 544.016 14.3399C544.016 14.3399 536.369 10.9852 532.534 9.47223C528.7 7.95922 520.231 6.375 520.231 6.375Z" fill="#52B1DE"/>
<path d="M409.149 125.657C403.2 126.069 400.363 136.805 401.141 141.441C401.217 141.923 402.652 146.49 403.058 147.295C404.088 149.347 405.895 150.354 405.381 150.547C404.46 150.901 403.485 149.927 402.51 149.76C401.568 149.598 398.478 149.622 397.514 149.622C390.645 149.622 379.612 154.936 383.096 163.797C384.904 168.398 396.2 168.597 399.903 167.221C400.275 167.087 400.429 167.018 400.834 166.844C390.601 173.43 381.54 181.924 378.779 194.303C377.859 198.454 373.805 217.534 382.614 215.29C385.999 214.429 384.389 202.801 385.013 199.301C385.046 199.111 385.145 198.91 385.189 198.719C388.081 203.998 395.827 204.633 403.266 201.287C404.351 200.796 411.888 194.859 411.067 193.515C410.694 192.893 410.037 194.614 409.357 194.884C407.725 195.541 405.161 194.99 403.671 194.2C399.629 192.041 398.807 185.33 393.537 184.887C392.496 184.8 391.379 184.955 390.283 185.264C392.715 181.162 395.838 177.533 399.639 174.959C399.07 179.259 399.881 183.84 404.635 185.161C409.872 186.616 414.266 182.09 416.818 178.177C417.301 177.443 418.309 174.969 418.572 174.239C418.791 173.616 418.582 171.959 419.119 172.356C420.346 173.279 419.207 175.52 419.864 176.91C420.357 177.939 421.946 179.573 422.811 180.299C429.878 186.253 440.439 181.441 438.84 171.74C438.424 169.255 435.301 165.903 433.362 164.448C432.814 164.043 431.247 164.08 431.576 163.489C431.915 162.884 432.901 163.913 433.559 164.105C435.41 164.641 435.75 164.719 437.81 164.825C442.587 165.07 447.32 163.672 449.007 158.696C451.308 151.889 446.607 146.937 439.793 146.302C439.081 146.236 435.97 146.35 435.345 146.439C434.644 146.537 433.351 147.62 433.285 146.918C433.219 146.132 434.655 146.106 435.279 145.617C435.75 145.239 436.21 144.843 436.572 144.35C438.27 142.046 439.738 137.038 438.697 134.182C437.415 130.65 431.061 130.769 428.289 131.477C425.966 132.07 422.658 136.384 420.072 140.482C420.171 135.37 417.684 129.524 412.918 127.095C411.724 126.485 410.497 125.564 409.149 125.657ZM417.717 150.205C422.209 150.205 425.857 153.854 425.857 158.353C425.857 162.854 422.209 166.502 417.717 166.502C413.214 166.502 409.566 162.854 409.566 158.353C409.566 153.854 413.214 150.205 417.717 150.205Z" fill="black"/>
<path d="M552.124 11.0301C551.423 11.0476 550.733 11.304 550.207 11.8518C542.603 19.8507 534.66 27.7006 528.229 36.7085C519.936 48.3174 513.735 61.2443 508.574 74.5064C504.05 86.1503 500.215 98.1295 498.243 110.49C497.3 116.311 496.873 122.161 496.797 128.053C496.786 129.566 497.991 130.809 499.503 130.826C501.014 130.845 502.264 129.634 502.275 128.122C502.34 122.498 502.757 116.936 503.644 111.38C505.627 99.0005 509.538 87.0027 514.129 75.362C519.015 62.9249 524.92 50.7967 532.71 39.8923C538.999 31.0958 546.755 23.4639 554.184 15.6524C555.224 14.5568 555.17 12.8268 554.074 11.7838C553.526 11.2623 552.825 11.0136 552.124 11.0301Z" fill="white"/>
<path d="M129.028 2.23175C128.37 1.97758 127.626 1.96223 126.935 2.26571C125.544 2.87485 124.919 4.47551 125.533 5.86143C131.909 20.3911 137.124 35.3931 141.934 50.5067C145.823 62.7576 149.767 75.0425 152.342 87.6538C155.454 102.95 156.714 118.485 156.79 134.079C156.801 135.592 158.017 136.826 159.529 136.818C161.041 136.811 162.268 135.592 162.268 134.079C162.191 118.127 160.898 102.207 157.71 86.5582C155.103 73.7552 151.126 61.3005 147.171 48.8633C142.306 33.5656 137.014 18.3764 130.561 3.67025C130.255 2.97784 129.674 2.48703 129.028 2.23175Z" fill="white"/>
<path d="M14.6377 165.543C13.8708 165.456 13.1145 165.468 12.3476 165.646C9.24704 166.364 7.49445 169 6.96857 171.98C6.95762 172.003 6.94636 172.008 6.9354 172.048C6.92445 172.096 6.90277 172.138 6.90277 172.185C6.05917 173.93 5.23724 175.713 4.47033 177.492C3.96635 178.651 3.50614 179.782 3.03504 180.95C1.19445 185.429 -1.98246 191.344 1.69872 195.775C2.08217 196.241 2.56423 196.733 3.06821 197.076C3.81321 197.594 4.29516 197.794 5.14972 198.068C5.37979 198.142 5.63195 198.189 5.87298 198.24C6.00445 198.268 6.11384 198.286 6.24531 198.308C6.23435 198.305 6.20119 198.27 6.21214 198.274C6.24501 198.284 6.27799 198.298 6.32181 198.308C6.96821 198.492 7.61491 198.673 8.27226 198.856C12.1726 199.954 16.1493 200.878 20.0825 201.903C27.8283 203.925 35.3881 206.471 43.0573 208.784C46.6398 209.869 50.288 210.867 53.9035 211.866C67.3792 215.591 80.8989 219.107 94.2761 223.199C113.416 229.056 132.227 235.908 151.619 240.933C154.544 241.692 157.535 239.959 158.291 237.031C159.058 234.102 157.283 231.113 154.358 230.354C135.12 225.368 116.483 218.534 97.4858 212.722C84.021 208.6 70.3923 205.038 56.8179 201.287C52.4794 200.086 48.1407 198.884 43.8351 197.554C37.2725 195.525 30.7098 193.368 24.0487 191.632C20.4551 190.695 16.8508 189.861 13.2682 188.893C12.7862 188.762 12.315 188.619 11.8329 188.482C11.8329 188.472 11.822 188.458 11.8329 188.448C11.9754 188.079 12.1286 187.72 12.2711 187.352C12.5669 186.61 12.8627 185.865 13.1585 185.127C13.6187 184.017 14.0567 182.907 14.5387 181.806C15.0975 180.482 15.7111 179.177 16.3137 177.869C17.5079 178.277 18.7128 178.667 19.907 179.032C23.8073 180.222 27.7405 181.307 31.6846 182.354C44.1634 185.669 56.7081 188.726 69.1102 192.35C72.0135 193.2 75.0372 191.557 75.8918 188.654C76.7354 185.749 75.0921 182.689 72.1888 181.84C67.6202 180.505 63.0187 179.199 58.4281 177.972C48.6664 175.363 38.8499 173.027 29.1211 170.303C26.4479 169.553 23.7968 168.768 21.1454 167.939C20.4771 167.733 19.8194 167.527 19.1511 167.324C19.0963 167.291 19.0417 167.252 18.9869 167.221C18.8664 167.157 18.7899 167.079 18.6804 167.016C18.527 166.928 18.3518 166.825 18.1984 166.742C17.793 166.524 17.3105 166.292 16.8941 166.125C16.1711 165.837 15.4046 165.631 14.6377 165.543Z" fill="white"/>
<path fill-rule="evenodd" clip-rule="evenodd" d="M645.283 157.196C646.57 156.479 647.869 155.757 649.357 155.717C650.365 155.691 651.285 155.889 652.173 156.334C654.678 157.6 656.405 160.33 657.923 162.731C658.177 163.133 658.425 163.525 658.67 163.9C661.518 168.238 663.83 172.924 666.065 177.595C667.073 179.691 667.971 181.76 668.87 183.895C668.994 184.183 669.139 184.464 669.283 184.745C669.354 184.884 669.425 185.022 669.494 185.161C669.508 185.176 669.522 185.19 669.536 185.205C669.555 185.224 669.573 185.243 669.592 185.264L669.636 185.309C669.837 185.518 670.26 185.959 670.381 186.154L670.414 186.208C671.053 187.259 671.458 187.926 671.609 189.099C671.685 189.614 671.653 190.144 671.578 190.658L649.015 198.034L649.274 198.151C648.27 198.516 647.269 198.89 646.267 199.263C645.403 199.586 644.538 199.908 643.671 200.225C638.277 202.205 632.875 204.177 627.472 206.149C626.598 206.468 625.723 206.788 624.849 207.107C603.496 214.904 582.142 222.67 560.757 230.354C559.77 230.708 558.785 231.066 557.8 231.424C554.813 232.509 551.827 233.594 548.803 234.566C544.535 235.938 540.211 237.123 535.888 238.308C534.451 238.702 533.015 239.095 531.581 239.496C531.054 239.643 530.526 239.797 529.997 239.952C529.204 240.182 528.41 240.414 527.615 240.625C526.476 241.458 524.985 242.192 523.605 242.406C521.173 242.783 518.96 241.925 517.24 240.215C516.362 239.341 515.749 238.315 515.125 237.27C515.009 237.076 514.893 236.882 514.775 236.688C514.518 236.269 514.238 235.877 513.956 235.482C513.805 235.27 513.653 235.058 513.504 234.84C512.731 233.694 511.984 232.51 511.243 231.336C511.028 230.996 510.814 230.657 510.601 230.32C510.471 230.119 510.343 229.918 510.214 229.717C509.558 228.694 508.907 227.677 508.201 226.691C507.942 226.327 507.661 225.968 507.378 225.606C506.729 224.776 506.069 223.932 505.627 222.993C504.827 221.27 504.991 219.417 505.802 217.755C507.467 214.328 511.652 213.094 515.081 212.38C515.891 212.211 517.097 211.698 518.221 211.22C518.725 211.006 519.212 210.799 519.639 210.634C522.915 209.359 526.191 208.137 529.532 207.039C532.403 206.093 535.503 207.657 536.445 210.531C537.388 213.405 535.832 216.502 532.951 217.447C529.954 218.432 527.009 219.554 524.066 220.675C522.683 221.202 521.3 221.728 519.913 222.24C519.629 222.344 519.345 222.423 519.063 222.501C518.889 222.549 518.715 222.598 518.544 222.651C518.961 223.28 519.384 223.903 519.807 224.527C520.439 225.457 521.071 226.389 521.688 227.341C522.03 227.867 522.387 228.382 522.743 228.896C523.094 229.401 523.444 229.906 523.78 230.422C523.858 230.393 523.932 230.35 524.004 230.307C524.085 230.259 524.165 230.212 524.252 230.183C526.179 229.572 528.13 229.058 530.083 228.544C531.029 228.295 531.974 228.046 532.917 227.786C537.114 226.629 541.31 225.455 545.451 224.123C548.529 223.133 551.573 222.031 554.614 220.93C555.427 220.635 556.24 220.341 557.054 220.049C580.937 211.467 604.777 202.769 628.617 194.063C630.237 193.47 631.86 192.88 633.483 192.29C636.176 191.311 638.87 190.331 641.556 189.338C641.892 189.213 642.228 189.089 642.564 188.964C646.292 187.582 650.022 186.199 653.882 185.195C654.912 184.926 656.073 184.692 657.168 184.476C657.115 184.361 657.067 184.243 657.019 184.125C656.968 184.001 656.918 183.877 656.862 183.758C656.753 183.53 656.645 183.302 656.536 183.074C654.608 179.028 652.675 174.974 650.321 171.158C649.836 170.377 649.324 169.617 648.811 168.857C648.605 168.552 648.4 168.246 648.196 167.94C648.002 168.029 647.809 168.122 647.616 168.215C647.22 168.405 646.822 168.597 646.41 168.761C642.302 170.411 638.051 171.583 633.745 172.63C630.809 173.345 627.818 171.564 627.106 168.624C626.393 165.685 628.201 162.697 631.148 161.983C635.301 160.972 639.365 159.797 643.331 158.182C643.994 157.913 644.637 157.555 645.283 157.196Z" fill="white"/>
<path d="M166.619 203.102C163.595 203.28 161.272 205.868 161.448 208.887C162.28 223.053 162.094 237.228 162.204 251.411C162.357 271.46 162.521 291.515 162.576 311.565C162.631 330.758 162.685 349.96 162.883 369.152C163.025 382.931 163.321 396.699 163.573 410.476C163.683 416.687 163.255 422.892 163.463 429.101C163.639 434.087 164.219 439.065 164.701 444.028C165.271 449.994 165.775 455.948 166.071 461.935C166.213 464.956 168.799 467.289 171.823 467.139C174.847 466.989 177.137 464.409 176.994 461.387C176.687 455.232 176.216 449.101 175.625 442.967C175.165 438.233 174.584 433.481 174.419 428.724C174.211 422.575 174.639 416.423 174.529 410.271C174.288 396.52 173.981 382.767 173.838 369.014C173.63 349.203 173.587 329.391 173.532 309.579C173.477 289.51 173.28 269.459 173.116 249.39C173.017 235.667 173.214 221.945 172.404 208.237C172.228 205.217 169.632 202.923 166.619 203.102Z" fill="white"/>
<path d="M497.892 221.726C497.191 221.606 496.435 221.622 495.701 221.795C492.754 222.486 490.935 225.423 491.625 228.369C493.498 236.294 492.94 244.438 492.798 252.506C492.633 261.167 492.885 269.829 492.929 278.492C493.126 313.239 492.644 347.998 492.929 382.744C493.071 399.309 494.222 415.835 494.813 432.388C495.01 437.971 494.967 443.578 495.087 449.164C495.131 451.139 495.175 453.112 495.153 455.087C495.153 455.11 495.153 455.133 495.153 455.156C493.981 455.37 492.83 455.615 491.669 455.806C488.722 456.287 485.775 456.712 482.828 457.107C476.09 458.011 469.396 459.136 462.669 460.154C452.962 461.621 443.2 462.869 433.394 463.338C424.783 463.75 416.15 463.551 407.538 463.852C403.77 463.984 400.012 464.265 396.243 464.571C393.23 464.816 391.006 467.444 391.247 470.459C391.488 473.475 394.117 475.738 397.13 475.492C400.735 475.2 404.351 474.934 407.955 474.808C417.892 474.46 427.84 474.722 437.777 474.055C450.913 473.171 463.863 471.009 476.878 469.022C483.496 468.011 490.157 467.236 496.763 466.112C498.768 465.771 500.828 465.335 502.581 464.263C503.063 463.969 503.622 463.693 503.95 463.235C504.586 462.353 505.243 461.463 505.671 460.462C505.945 459.802 505.966 459.053 506.043 458.34C506.153 457.29 506.098 456.245 506.109 455.19C506.142 451.853 506.054 448.494 505.977 445.158C505.879 441.216 505.9 437.288 505.802 433.346C505.539 422.733 504.882 412.147 504.432 401.54C503.698 383.887 503.819 366.206 503.852 348.541C503.885 326.566 503.951 304.575 503.918 282.601C503.907 277.049 503.885 271.511 503.819 265.961C503.775 261.962 503.655 257.942 503.72 253.943C503.841 244.518 504.476 235.133 502.307 225.869C501.792 223.66 499.995 222.087 497.892 221.726Z" fill="white"/>
<path d="M199.727 460.736C196.703 460.498 194.073 462.753 193.832 465.769C193.591 468.785 195.848 471.42 198.861 471.658C201.217 471.998 200.143 471.865 201.227 472C201.764 472.068 200.143 471.841 199.617 471.726C199.398 471.679 200.077 471.764 200.307 471.795C200.789 471.862 201.359 471.987 201.841 472.069C202.137 472.117 202.992 472.243 202.696 472.206C201.425 472.04 202.674 472.196 203.561 472.343C206.541 472.839 209.39 470.842 209.894 467.857C210.387 464.873 208.36 462.055 205.369 461.558C202.553 461.161 203.835 461.299 202.564 461.147C201.907 461.068 203.857 461.323 204.514 461.387C204.799 461.415 203.945 461.298 203.66 461.25C203.057 461.147 202.378 461.023 201.775 460.942C201.425 460.895 200.362 460.782 200.713 460.839C202.269 461.092 200.702 460.815 199.727 460.736Z" fill="white"/>
<path d="M226.152 462.552C223.128 462.474 220.62 464.868 220.543 467.892C220.466 470.917 222.821 473.43 225.845 473.508C228.475 473.681 227.029 473.568 228.486 473.678C228.727 473.697 227.511 473.555 227.763 473.542C228.321 473.511 229.965 473.658 229.406 473.643C228.223 473.614 229.406 473.625 231.115 473.849C234.117 474.237 236.856 472.125 237.251 469.125C237.634 466.124 235.519 463.384 232.517 462.996C229.329 462.78 231.071 462.891 229.34 462.757C228.99 462.729 230.71 462.771 230.37 462.723C229.625 462.62 227.401 462.525 228.135 462.62C229.592 462.805 228.157 462.603 226.152 462.552Z" fill="white"/>
<path d="M446.947 0.00636903C446.246 -0.0429325 445.534 0.19481 444.964 0.691113C418.55 23.6361 392.595 47.0762 367.659 71.6306C360.1 79.0696 352.661 86.5941 345.298 94.2271C342.198 97.4482 339.043 100.651 336.019 103.95C334.792 102.668 333.51 101.444 332.261 100.185C327.353 95.2394 322.401 90.3115 317.427 85.4284C304.038 72.2682 290.541 59.2416 277.241 45.9872C271.664 40.4293 266.076 34.8615 260.631 29.1765C255.811 24.1389 251.078 19.0159 246.181 14.0431C242.894 10.7037 239.519 7.47172 236.112 4.25178C235.017 3.21207 233.253 3.25588 232.212 4.35476C231.171 5.45364 231.248 7.18358 232.354 8.22329C235.707 11.3983 239.037 14.5843 242.28 17.8776C247.156 22.833 251.889 27.9571 256.698 32.9771C262.647 39.1967 268.75 45.3112 274.874 51.3622C289.226 65.5358 303.699 79.567 318.051 93.7472C321.996 97.653 325.939 101.582 329.862 105.525C330.344 106.019 330.837 106.504 331.33 106.997C332.458 108.138 333.784 109.619 335.471 109.976C336.315 110.155 337.213 110.052 337.969 109.633C338.878 109.134 339.821 107.895 340.511 107.168C340.873 106.785 341.245 106.423 341.607 106.039C341.968 105.656 342.307 105.256 342.669 104.875C343.392 104.11 344.126 103.344 344.86 102.581C351.039 96.0896 357.328 89.6947 363.649 83.3391C390.864 56.0009 419.448 30.0902 448.558 4.79958C449.697 3.80807 449.829 2.07265 448.832 0.931041C448.339 0.360238 447.649 0.0556706 446.947 0.00636903Z" fill="white"/>
<path d="M407.308 66.7696C406.607 66.8046 405.928 67.1322 405.424 67.6932C402.565 70.866 399.76 74.1023 396.824 77.2116C393.91 80.31 390.875 83.3163 387.851 86.3182C377.936 96.1884 367.637 105.671 358.04 115.865C352.869 121.35 348.026 127.066 343.446 133.053C341.704 135.333 340.16 137.751 338.385 140.002C338.046 140.432 337.673 140.849 337.322 141.27C337.257 141.353 337.158 141.471 337.048 141.578C336.895 141.387 336.72 141.167 336.566 140.996C335.887 140.231 335.055 139.636 334.277 138.976C331.56 136.668 328.963 134.314 325.851 132.539C324.536 131.788 322.872 132.252 322.116 133.566C321.371 134.879 321.831 136.548 323.145 137.297C326.531 139.223 329.314 141.976 332.294 144.453C333.017 145.058 333.411 145.95 334.211 146.508C334.638 146.81 335.076 147.131 335.58 147.295C336.041 147.444 336.566 147.429 337.048 147.431C339.952 147.449 342.351 143.902 343.797 141.953C344.827 140.559 345.78 139.107 346.81 137.709C349.582 133.92 352.54 130.247 355.608 126.684C366.761 113.696 379.601 102.278 391.729 90.2218C394.786 87.1771 397.876 84.1193 400.834 80.9772C403.792 77.8394 406.607 74.5581 409.5 71.3568C410.508 70.2338 410.409 68.5006 409.292 67.4883C408.722 66.981 407.999 66.7334 407.308 66.7696Z" fill="white"/>
<path d="M500.389 141.645C498.877 141.667 497.672 142.906 497.694 144.418C497.716 145.644 497.716 145.292 497.727 145.652C497.705 145.249 497.716 146.447 497.727 146.849C497.738 147.662 497.738 148.468 497.759 149.28C497.77 149.69 497.836 150.923 497.825 150.513C497.792 148.486 497.814 150.507 497.858 151.712C497.913 153.223 499.184 154.402 500.696 154.348C502.208 154.293 503.391 153.018 503.336 151.506C503.314 150.3 503.314 150.659 503.303 150.308C503.303 150.7 503.248 149.536 503.237 149.143C503.215 148.351 503.216 147.54 503.205 146.747C503.194 146.346 503.194 145.149 503.205 145.549C503.249 147.535 503.183 145.554 503.172 144.35C503.15 142.837 501.901 141.624 500.389 141.645Z" fill="white"/>
<path d="M498.68 164.448C497.168 164.448 495.941 165.674 495.941 167.187C495.941 179.337 495.941 191.498 495.941 203.649C495.941 205.162 497.168 206.388 498.68 206.388C500.192 206.388 501.419 205.162 501.419 203.649C501.419 191.498 501.419 179.337 501.419 167.187C501.419 165.674 500.192 164.448 498.68 164.448Z" fill="white"/>
<path d="M164.426 171.774C162.925 171.958 161.841 173.32 162.027 174.821C162.871 181.731 163.583 188.637 163.638 195.603C163.649 197.116 164.897 198.32 166.409 198.308C167.921 198.296 169.127 197.082 169.116 195.569C169.061 188.394 168.338 181.286 167.472 174.171C167.286 172.669 165.927 171.591 164.426 171.774Z" fill="white"/>
<path d="M162.542 149.074C161.03 149.171 159.879 150.476 159.967 151.985C160.011 154.467 159.967 153.087 160.011 154.484C160.011 154.769 160.055 153.344 160.077 153.629C160.12 154.168 160.11 155.778 160.077 155.238C160.011 154.155 160.054 155.238 160.043 156.949C160.022 158.462 161.238 159.706 162.75 159.722C164.262 159.739 165.5 158.53 165.521 157.017C165.478 154.333 165.522 155.845 165.489 154.347C165.478 154.031 165.533 155.588 165.555 155.272C165.598 154.665 165.555 152.849 165.555 153.457C165.544 154.644 165.565 153.449 165.445 151.642C165.357 150.133 164.054 148.979 162.542 149.074Z" fill="white"/>
</svg>
