<svg width="363" height="349" viewBox="0 0 363 349" fill="none" xmlns="http://www.w3.org/2000/svg">
<g clip-path="url(#clip0_303_2813)">
<path d="M63.7639 317.159C64.311 316.451 61.2845 313.522 60.7919 313.026C57.7274 309.94 53.9354 307.196 51.309 303.733C50.6196 303.953 50.2418 304.089 49.855 304.275C49.1573 304.611 48.4547 305.011 47.7241 305.44C47.8352 305.54 48.0553 305.726 48.1177 305.795C49.8438 307.714 52.9329 311.148 52.6392 313.956C50.1763 315.182 47.7344 316.452 45.0056 316.986C42.1569 317.544 38.9647 317.345 36.0654 317.206C34.9394 317.152 33.6843 316.857 32.5689 317.136C31.9657 317.287 31.3485 317.598 30.7354 317.957C28.0102 320.437 25.5997 322.985 23.4597 325.715C23.1032 326.169 22.8038 326.515 22.1213 327.281C22.0566 327.354 22.0249 327.389 21.9891 327.429C21.3667 328.129 20.933 328.655 20.5845 329.127C20.7047 329.189 20.9407 329.306 20.9869 329.334C23.3994 330.81 27.3094 330.991 30.0416 330.485C39.8487 328.67 48.1732 324.236 56.8202 319.463C58.2824 318.656 59.8628 317.9 61.488 317.492C61.7975 317.415 63.617 317.349 63.7639 317.159Z" fill="#F4F4F4"/>
<path d="M67.8484 357.002C68.8147 354.158 69.0656 350.919 68.4286 348.008C67.8007 345.139 65.4876 342.217 63.159 340.502C62.4991 340.016 61.6263 339.484 60.8511 338.874C60.8433 338.892 60.8337 338.909 60.826 338.926C60.382 338.494 59.8847 338.036 59.4684 338.029C59.2792 338.026 59.019 338.511 58.9102 338.627C58.4392 339.133 57.7347 339.549 57.1543 339.937C57.1295 339.954 57.0986 339.956 57.0735 339.972C58.36 338.266 59.4102 335.346 59.5988 333.13C59.6258 332.056 59.6008 330.988 59.5696 329.927C59.43 327.592 58.8482 323.992 57.0848 325.769C56.3572 326.503 56.5726 328.4 56.3103 329.334C55.6551 331.666 53.7827 334.204 52.031 335.829C50.048 337.67 44.522 338.173 43.6157 340.176C43.0124 341.509 44.0758 342.528 44.5834 343.741C45.1969 345.207 45.5674 346.487 45.6455 347.831C45.7299 348.005 45.787 348.196 45.7917 348.402C45.7922 348.426 45.8001 348.425 45.8006 348.449C45.8242 349.567 45.7523 354.059 45.7628 355.072C45.8151 360.15 46.5368 363.664 48.3577 366.16C49.4519 366.458 50.6967 366.403 51.7822 366.611C54.5517 367.144 57.5936 367.158 60.3196 366.277C60.902 365.955 61.7125 365.554 62.1932 365.226C63.2297 364.52 64.0385 363.512 65.1798 361.659C65.2954 361.471 66.0799 360.186 66.2696 359.885C66.8926 358.9 67.3803 357.951 67.8484 357.002Z" fill="#F4F4F4"/>
<path d="M22.9744 348.897C23.3711 348.047 23.5933 347.129 23.5453 346.164C23.5286 345.829 23.4787 345.493 23.3983 345.167C23.314 344.825 23.1973 344.493 23.0225 344.187C22.375 343.05 21.188 342.685 19.9582 342.56C19.2648 342.489 18.5657 342.49 17.8705 342.446C17.3785 342.415 16.8726 342.36 16.4033 342.202C16.0965 342.098 15.8077 341.939 15.5355 341.765C14.3479 341.006 13.5532 339.787 12.7725 338.647C12.4069 338.113 12.0296 337.593 11.6162 337.104C11.9362 336.87 12.253 336.626 12.5831 336.424C12.7142 335.627 12.4672 335.019 11.7525 334.082C11.6714 333.976 11.5255 333.793 11.3366 333.555C11.1829 333.417 10.9441 333.221 10.8487 333.122C8.63136 330.815 2.76192 324.488 -1.34243 323.299C-1.39935 323.36 -1.45551 323.413 -1.51255 323.475C-2.50767 324.563 -3.2542 325.52 -4.83092 327.656C-7.12587 330.764 -8.91628 333.984 -10.8202 338.243C-13.9063 345.146 -14.6446 349.047 -13.4729 354.643C-9.78548 356.435 -1.50924 356.234 1.63613 356.322C2.11892 356.268 2.73708 356.203 2.9747 356.167C3.65346 356.064 4.09589 355.909 4.41634 355.615C4.3487 355.315 4.29922 355.027 4.24439 354.734C4.91481 354.885 5.59661 354.994 6.27947 355.062C7.81828 355.214 9.37236 355.213 10.9139 355.105C12.4489 354.999 13.9811 354.783 15.4793 354.429C17.0772 354.051 18.6855 353.531 19.9812 352.491C21.1659 351.54 22.3133 350.313 22.9744 348.897ZM22.2139 348.24C21.5989 349.719 20.3343 350.999 19.1123 351.937C18.591 352.337 17.9692 352.615 17.3591 352.848C16.6741 353.109 15.9706 353.311 15.2572 353.478C13.8104 353.819 12.3269 354.017 10.845 354.12C9.29317 354.227 7.7268 354.232 6.17928 354.061C5.47012 353.983 4.76387 353.861 4.07345 353.68C3.88381 352.278 3.84911 350.944 4.02366 349.647C4.61557 345.245 7.34399 340.571 10.8615 337.668C11.3916 338.291 11.8576 338.977 12.3263 339.653C13.2055 340.92 14.1758 342.172 15.5898 342.873C17.0146 343.578 18.6554 343.318 20.1805 343.536C20.9734 343.649 21.7806 343.922 22.1968 344.657C22.3275 344.889 22.4087 345.137 22.4715 345.393C22.7159 346.394 22.5828 347.352 22.2139 348.24Z" fill="#F4F4F4"/>
<path d="M25.2888 308.238C26.0803 307.314 25.9676 305.923 25.043 305.131L6.79151 289.508C5.8669 288.717 4.47526 288.82 3.68379 289.745L-3.84931 298.545C-4.64079 299.47 -4.52813 300.861 -3.60348 301.652L14.648 317.275C15.5726 318.067 16.9642 317.963 17.7557 317.039L25.2888 308.238ZM24.8532 307.636C24.3974 308.169 23.5989 308.236 23.0664 307.78C22.534 307.324 22.4716 306.52 22.9274 305.988C23.3832 305.456 24.1824 305.398 24.7149 305.854C25.2473 306.31 25.3089 307.104 24.8532 307.636ZM21.3398 308.82C20.8841 309.352 20.0848 309.41 19.5524 308.954C19.0199 308.498 18.9532 307.7 19.409 307.167C19.8647 306.635 20.6684 306.572 21.2008 307.028C21.7332 307.484 21.7956 308.287 21.3398 308.82ZM21.713 304.949C21.2572 305.481 20.4536 305.543 19.9212 305.088C19.3888 304.632 19.3315 303.833 19.7872 303.3C20.243 302.768 21.0372 302.706 21.5696 303.162C22.1021 303.618 22.1687 304.416 21.713 304.949Z" fill="#F4F4F4"/>
<path d="M79.7768 311.725L73.532 300.737C73.3147 300.953 73.0798 301.157 72.8007 301.315L68.8072 303.586C68.5282 303.744 68.2271 303.843 67.9303 303.919L74.1751 314.907L79.7768 311.725ZM73.6623 298.379C73.7076 297.797 73.5852 297.194 73.275 296.649L71.3119 293.199C70.4851 291.745 68.6365 291.235 67.1819 292.062L63.7269 294.025C62.2724 294.852 61.7688 296.701 62.5956 298.155L64.553 301.605C65.3797 303.059 67.2284 303.568 68.683 302.741L72.138 300.779C73.0473 300.262 73.587 299.348 73.6623 298.379ZM67.9285 290.885L61.1714 279L55.5757 282.182L62.333 294.067C62.5498 293.85 62.7904 293.653 63.0694 293.494L67.0632 291.224C67.3422 291.065 67.6317 290.961 67.9285 290.885Z" fill="#F4F4F4"/>
<path d="M47.9874 288.149L45.9164 286.322L42.7742 288.711L43.6617 291.112L47.6652 291.053L47.9874 288.149ZM43.8613 286.92C41.3 283.322 36.6126 281.84 32.4103 283.393C27.3021 285.281 24.6915 290.953 26.5796 296.062C28.4677 301.17 34.1398 303.781 39.2481 301.892C43.4079 300.355 45.9971 296.25 45.662 291.893L44.3657 291.993C44.6565 295.774 42.4063 299.336 38.7963 300.67C34.3631 302.309 29.4406 300.043 27.802 295.61C26.1634 291.177 28.429 286.254 32.8622 284.616C36.509 283.268 40.5795 284.556 42.8016 287.678L43.8613 286.92Z" fill="#F4F4F4"/>
<path d="M149.988 368.312C150.882 368.337 151.464 364.166 151.575 363.476C152.262 359.181 152.244 354.5 153.494 350.338C152.909 349.91 152.577 349.685 152.199 349.482C151.517 349.116 150.779 348.785 150.002 348.447C149.986 348.596 149.966 348.883 149.947 348.975C149.414 351.5 148.46 356.02 146.018 357.437C143.577 356.17 141.112 354.946 139.072 353.056C136.942 351.084 135.222 348.387 133.625 345.963C133.005 345.022 132.504 343.834 131.621 343.098C131.143 342.699 130.529 342.384 129.877 342.1C126.268 341.36 122.788 340.914 119.322 340.794C118.744 340.774 118.289 340.736 117.267 340.636C117.17 340.627 117.124 340.622 117.07 340.617C116.138 340.527 115.458 340.486 114.87 340.483C114.892 340.616 114.936 340.876 114.94 340.93C115.17 343.748 117.329 347.014 119.347 348.923C126.594 355.776 135.082 359.888 144.034 364.061C145.548 364.766 147.09 365.598 148.377 366.67C148.622 366.874 149.747 368.306 149.988 368.312Z" fill="#F4F4F4"/>
<path d="M100.308 354.065C101.228 353.885 102.101 353.524 102.852 352.916C103.113 352.705 103.355 352.466 103.571 352.209C103.798 351.94 103.997 351.65 104.142 351.328C104.678 350.135 104.274 348.961 103.65 347.893C103.298 347.292 102.886 346.727 102.511 346.14C102.246 345.724 101.993 345.283 101.844 344.811C101.747 344.502 101.705 344.175 101.686 343.852C101.599 342.445 102.115 341.085 102.576 339.782C102.792 339.172 102.989 338.561 103.141 337.939C103.518 338.06 103.902 338.172 104.26 338.319C104.981 337.956 105.327 337.398 105.662 336.268C105.701 336.14 105.762 335.914 105.843 335.621C105.864 335.416 105.881 335.108 105.905 334.972C106.462 331.821 108.114 323.351 106.656 319.334C106.573 319.324 106.497 319.31 106.413 319.3C104.948 319.138 103.735 319.099 101.081 319.083C97.217 319.061 93.5604 319.512 88.9975 320.485C81.6018 322.06 78.0155 323.762 74.1847 328.007C74.9109 332.042 79.9508 338.61 81.7334 341.203C82.0614 341.561 82.4786 342.022 82.6478 342.193C83.1309 342.68 83.5168 342.947 83.9434 343.032C84.1458 342.801 84.349 342.591 84.5535 342.374C84.8265 343.005 85.1403 343.62 85.4879 344.211C86.2717 345.544 87.1891 346.799 88.1842 347.981C89.1749 349.158 90.2524 350.269 91.4216 351.27C92.6684 352.339 94.0365 353.331 95.64 353.765C97.1065 354.162 98.7744 354.366 100.308 354.065ZM100.39 353.064C98.8329 353.439 97.0534 353.171 95.5758 352.737C94.9453 352.551 94.3544 352.213 93.8064 351.857C93.1917 351.458 92.6139 351.009 92.0585 350.531C90.9309 349.563 89.8959 348.481 88.94 347.344C87.9389 346.154 87.0118 344.891 86.2376 343.54C85.8825 342.922 85.5646 342.279 85.3045 341.615C86.3253 340.635 87.3826 339.821 88.533 339.198C92.4378 337.082 97.8223 336.531 102.241 337.661C102.049 338.457 101.77 339.238 101.5 340.015C100.995 341.472 100.555 342.994 100.822 344.549C101.092 346.116 102.269 347.288 102.992 348.649C103.368 349.356 103.624 350.168 103.275 350.938C103.165 351.18 103.012 351.392 102.842 351.594C102.178 352.381 101.325 352.838 100.39 353.064Z" fill="#F4F4F4"/>
<path d="M134.519 331.972C135.732 332.067 136.79 331.156 136.884 329.942L138.749 305.99C138.843 304.777 137.939 303.713 136.726 303.619L125.177 302.72C123.963 302.625 122.906 303.536 122.811 304.749L120.947 328.702C120.852 329.915 121.756 330.979 122.969 331.073L134.519 331.972ZM134.748 331.266C134.05 331.211 133.525 330.605 133.579 329.907C133.634 329.208 134.246 328.684 134.945 328.738C135.644 328.793 136.161 329.405 136.107 330.103C136.052 330.802 135.447 331.32 134.748 331.266ZM131.722 329.125C131.023 329.07 130.506 328.458 130.56 327.76C130.614 327.061 131.22 326.536 131.919 326.591C132.618 326.645 133.142 327.258 133.087 327.956C133.033 328.655 132.42 329.179 131.722 329.125ZM135.069 327.145C134.37 327.09 133.846 326.478 133.901 325.779C133.955 325.08 134.567 324.563 135.266 324.617C135.965 324.672 136.482 325.277 136.428 325.976C136.374 326.674 135.768 327.199 135.069 327.145Z" fill="#F4F4F4"/>
<path d="M163.815 378.046L169.011 366.525C168.709 366.477 168.406 366.407 168.113 366.275L163.925 364.387C163.633 364.255 163.376 364.07 163.14 363.875L157.943 375.396L163.815 378.046ZM170.994 365.241C171.49 364.934 171.905 364.48 172.163 363.908L173.793 360.289C174.48 358.764 173.802 356.97 172.277 356.283L168.655 354.648C167.13 353.96 165.339 354.643 164.652 356.168L163.019 359.783C162.331 361.308 163.009 363.101 164.534 363.789L168.156 365.424C169.11 365.854 170.166 365.751 170.994 365.241ZM173.668 356.192L179.287 343.728L173.419 341.083L167.8 353.547C168.102 353.594 168.404 353.672 168.696 353.804L172.884 355.693C173.177 355.825 173.432 355.997 173.668 356.192Z" fill="#F4F4F4"/>
<path d="M164.126 338.47L164.382 335.72L160.599 334.59L159.183 336.722L161.59 339.921L164.126 338.47ZM162.687 334.412C164.084 330.223 162.519 325.562 158.788 323.083C154.252 320.069 148.131 321.303 145.117 325.839C142.103 330.375 143.337 336.495 147.873 339.509C151.566 341.964 156.409 341.636 159.731 338.797L158.886 337.81C156.003 340.273 151.799 340.554 148.594 338.424C144.657 335.808 143.586 330.496 146.202 326.56C148.818 322.623 154.13 321.552 158.066 324.168C161.305 326.32 162.663 330.368 161.451 334.003L162.687 334.412Z" fill="#F4F4F4"/>
<path d="M253.988 350.312C254.882 350.337 255.464 346.166 255.575 345.476C256.262 341.181 256.244 336.5 257.494 332.338C256.909 331.91 256.577 331.685 256.199 331.482C255.517 331.116 254.779 330.785 254.002 330.447C253.986 330.596 253.966 330.883 253.947 330.975C253.414 333.5 252.46 338.02 250.018 339.437C247.577 338.17 245.112 336.946 243.072 335.056C240.942 333.084 239.222 330.387 237.625 327.963C237.005 327.022 236.504 325.834 235.621 325.098C235.143 324.699 234.529 324.384 233.877 324.1C230.268 323.36 226.788 322.914 223.322 322.794C222.744 322.774 222.289 322.736 221.267 322.636C221.17 322.627 221.124 322.622 221.07 322.617C220.138 322.527 219.458 322.486 218.87 322.483C218.892 322.616 218.936 322.876 218.94 322.93C219.17 325.748 221.329 329.014 223.347 330.923C230.594 337.776 239.082 341.888 248.034 346.061C249.548 346.766 251.09 347.598 252.377 348.67C252.622 348.874 253.747 350.306 253.988 350.312Z" fill="#F4F4F4"/>
<path d="M224.207 377.094C227.075 376.198 229.839 374.492 231.815 372.262C233.762 370.064 234.76 366.473 234.774 363.581C234.777 362.762 234.692 361.743 234.728 360.758C234.709 360.762 234.69 360.764 234.672 360.768C234.759 360.154 234.836 359.483 234.596 359.142C234.487 358.987 233.942 359.063 233.784 359.044C233.098 358.961 232.346 358.638 231.69 358.398C231.662 358.387 231.642 358.364 231.615 358.353C233.752 358.386 236.729 357.514 238.631 356.36C239.514 355.749 240.362 355.1 241.201 354.449C243.005 352.96 245.57 350.369 243.095 349.991C242.074 349.836 240.668 351.128 239.759 351.466C237.489 352.311 234.335 352.294 231.99 351.838C229.334 351.32 225.671 347.153 223.518 347.601C222.086 347.899 221.889 349.359 221.209 350.484C220.386 351.844 219.57 352.897 218.53 353.752C218.44 353.923 218.319 354.082 218.156 354.207C218.137 354.221 218.142 354.227 218.123 354.242C217.233 354.92 213.562 357.509 212.749 358.115C208.678 361.15 206.265 363.804 205.322 366.746C205.726 367.805 206.504 368.778 206.975 369.778C208.178 372.329 209.959 374.795 212.277 376.478C212.88 376.759 213.682 377.178 214.23 377.373C215.411 377.794 216.703 377.853 218.872 377.683C219.092 377.666 220.593 377.542 220.947 377.518C222.111 377.44 223.165 377.275 224.207 377.094Z" fill="#F4F4F4"/>
<path d="M210.232 349.603C210.986 349.217 211.286 348.291 210.9 347.536C210.515 346.782 209.589 346.482 208.834 346.867C208.079 347.253 207.785 348.177 208.17 348.931C208.556 349.685 209.477 349.988 210.232 349.603ZM189.14 360.378C189.895 359.992 190.194 359.066 189.809 358.311C189.424 357.557 188.497 357.257 187.742 357.643C186.988 358.028 186.693 358.952 187.079 359.706C187.464 360.46 188.386 360.763 189.14 360.378ZM207.244 348.385C207.999 348 208.293 347.076 207.908 346.321C207.523 345.567 206.601 345.264 205.847 345.649C205.093 346.035 204.792 346.961 205.178 347.716C205.563 348.47 206.49 348.77 207.244 348.385ZM189.909 357.241C190.663 356.856 190.964 355.929 190.578 355.174C190.192 354.42 189.266 354.12 188.512 354.505C187.757 354.891 187.457 355.818 187.842 356.572C188.228 357.327 189.155 357.626 189.909 357.241ZM203.738 347.635C204.493 347.249 204.795 346.328 204.41 345.573C204.025 344.819 203.098 344.519 202.343 344.904C201.589 345.29 201.289 346.217 201.675 346.971C202.06 347.725 202.984 348.02 203.738 347.635ZM191.356 353.96C192.11 353.575 192.408 352.656 192.022 351.902C191.637 351.147 190.715 350.845 189.961 351.23C189.207 351.615 188.907 352.542 189.292 353.297C189.678 354.051 190.601 354.346 191.356 353.96ZM200.099 348.07C200.854 347.684 201.149 346.76 200.763 346.006C200.378 345.251 199.456 344.949 198.702 345.334C197.948 345.719 197.647 346.646 198.033 347.401C198.418 348.155 199.345 348.455 200.099 348.07ZM193.841 351.267C194.595 350.881 194.895 349.955 194.51 349.2C194.125 348.446 193.198 348.146 192.443 348.531C191.689 348.917 191.394 349.841 191.779 350.595C192.165 351.35 193.086 351.652 193.841 351.267ZM196.979 349.52C197.734 349.134 198.029 348.21 197.643 347.456C197.258 346.702 196.336 346.399 195.582 346.784C194.827 347.17 194.527 348.096 194.913 348.851C195.298 349.605 196.225 349.905 196.979 349.52Z" fill="#F4F4F4"/>
<path d="M204.308 336.065C205.228 335.885 206.101 335.524 206.852 334.916C207.113 334.705 207.355 334.466 207.571 334.209C207.798 333.94 207.997 333.65 208.142 333.328C208.678 332.135 208.274 330.961 207.65 329.893C207.298 329.292 206.886 328.727 206.511 328.14C206.246 327.724 205.993 327.283 205.844 326.811C205.747 326.502 205.705 326.175 205.686 325.852C205.599 324.445 206.115 323.085 206.576 321.782C206.792 321.172 206.989 320.561 207.141 319.939C207.518 320.06 207.902 320.172 208.26 320.319C208.981 319.956 209.327 319.398 209.662 318.268C209.701 318.14 209.762 317.914 209.843 317.621C209.864 317.416 209.881 317.108 209.905 316.972C210.462 313.821 212.114 305.351 210.656 301.334C210.573 301.324 210.497 301.31 210.413 301.3C208.948 301.138 207.735 301.099 205.081 301.083C201.217 301.061 197.56 301.512 192.998 302.485C185.602 304.06 182.016 305.762 178.185 310.007C178.911 314.042 183.951 320.61 185.733 323.203C186.061 323.561 186.479 324.022 186.648 324.193C187.131 324.68 187.517 324.947 187.943 325.032C188.146 324.801 188.349 324.591 188.553 324.374C188.826 325.005 189.14 325.62 189.488 326.211C190.272 327.544 191.189 328.799 192.184 329.981C193.175 331.158 194.252 332.269 195.422 333.27C196.668 334.339 198.036 335.331 199.64 335.765C201.107 336.162 202.774 336.366 204.308 336.065ZM204.39 335.064C202.833 335.439 201.053 335.171 199.576 334.737C198.945 334.551 198.354 334.213 197.806 333.857C197.192 333.458 196.614 333.009 196.059 332.531C194.931 331.563 193.896 330.481 192.94 329.344C191.939 328.154 191.012 326.891 190.238 325.54C189.882 324.922 189.565 324.279 189.305 323.615C190.325 322.635 191.383 321.821 192.533 321.198C196.438 319.082 201.822 318.531 206.241 319.661C206.049 320.457 205.77 321.238 205.5 322.015C204.995 323.472 204.555 324.994 204.822 326.549C205.092 328.116 206.269 329.288 206.992 330.649C207.368 331.356 207.624 332.168 207.275 332.938C207.165 333.18 207.012 333.392 206.842 333.594C206.178 334.381 205.325 334.838 204.39 335.064Z" fill="#F4F4F4"/>
<path d="M238.519 313.972C239.732 314.067 240.79 313.156 240.884 311.942L242.749 287.99C242.843 286.777 241.939 285.713 240.726 285.619L229.177 284.72C227.963 284.625 226.906 285.536 226.811 286.749L224.947 310.702C224.852 311.915 225.756 312.979 226.969 313.073L238.519 313.972ZM238.748 313.266C238.05 313.211 237.525 312.605 237.579 311.907C237.634 311.208 238.246 310.684 238.945 310.738C239.644 310.793 240.161 311.405 240.107 312.103C240.052 312.802 239.447 313.32 238.748 313.266ZM235.722 311.125C235.023 311.07 234.506 310.458 234.56 309.76C234.614 309.061 235.22 308.536 235.919 308.591C236.618 308.645 237.142 309.258 237.087 309.956C237.033 310.655 236.42 311.179 235.722 311.125ZM239.069 309.145C238.37 309.09 237.846 308.478 237.901 307.779C237.955 307.08 238.567 306.563 239.266 306.617C239.965 306.672 240.482 307.277 240.428 307.976C240.374 308.674 239.768 309.199 239.069 309.145Z" fill="#F4F4F4"/>
<path d="M267.815 360.046L273.011 348.525C272.709 348.477 272.406 348.407 272.113 348.275L267.925 346.387C267.633 346.255 267.376 346.07 267.14 345.875L261.943 357.396L267.815 360.046ZM274.994 347.241C275.49 346.934 275.905 346.48 276.163 345.908L277.793 342.289C278.48 340.764 277.802 338.97 276.277 338.283L272.655 336.648C271.13 335.96 269.339 336.643 268.652 338.168L267.019 341.783C266.331 343.308 267.009 345.101 268.534 345.789L272.156 347.424C273.11 347.854 274.166 347.751 274.994 347.241ZM277.668 338.192L283.287 325.728L277.419 323.083L271.8 335.547C272.102 335.594 272.404 335.672 272.696 335.804L276.884 337.693C277.177 337.825 277.432 337.997 277.668 338.192Z" fill="#F4F4F4"/>
<path d="M268.126 320.47L268.382 317.72L264.599 316.59L263.183 318.722L265.59 321.921L268.126 320.47ZM266.687 316.412C268.084 312.223 266.519 307.562 262.788 305.083C258.252 302.069 252.131 303.303 249.117 307.839C246.103 312.375 247.337 318.495 251.873 321.509C255.566 323.964 260.409 323.636 263.731 320.797L262.886 319.81C260.003 322.273 255.799 322.554 252.594 320.424C248.657 317.808 247.586 312.496 250.202 308.56C252.818 304.623 258.13 303.552 262.066 306.168C265.305 308.32 266.663 312.368 265.451 316.003L266.687 316.412Z" fill="#F4F4F4"/>
<path d="M354.988 331.312C355.882 331.337 356.464 327.166 356.575 326.476C357.262 322.181 357.244 317.5 358.494 313.338C357.909 312.91 357.577 312.685 357.199 312.482C356.517 312.116 355.779 311.785 355.002 311.447C354.986 311.596 354.966 311.883 354.947 311.975C354.414 314.5 353.46 319.02 351.018 320.437C348.577 319.17 346.112 317.946 344.072 316.056C341.942 314.084 340.222 311.387 338.625 308.963C338.005 308.022 337.504 306.834 336.621 306.098C336.143 305.699 335.529 305.384 334.877 305.1C331.268 304.36 327.788 303.914 324.322 303.794C323.744 303.774 323.289 303.736 322.267 303.636C322.17 303.627 322.124 303.622 322.07 303.617C321.138 303.527 320.458 303.486 319.87 303.483C319.892 303.616 319.936 303.876 319.94 303.93C320.17 306.748 322.329 310.014 324.347 311.923C331.594 318.776 340.082 322.888 349.034 327.061C350.548 327.766 352.09 328.598 353.377 329.67C353.622 329.874 354.747 331.306 354.988 331.312Z" fill="#F4F4F4"/>
<path d="M325.207 358.094C328.075 357.198 330.839 355.492 332.815 353.262C334.762 351.064 335.76 347.473 335.774 344.581C335.777 343.762 335.692 342.743 335.728 341.758C335.709 341.762 335.69 341.764 335.672 341.768C335.759 341.154 335.836 340.483 335.596 340.142C335.487 339.987 334.942 340.063 334.784 340.044C334.098 339.961 333.346 339.638 332.69 339.398C332.662 339.387 332.642 339.364 332.615 339.353C334.752 339.386 337.729 338.514 339.631 337.36C340.514 336.749 341.362 336.1 342.201 335.449C344.005 333.96 346.57 331.369 344.095 330.991C343.074 330.836 341.668 332.128 340.759 332.466C338.489 333.311 335.335 333.294 332.99 332.838C330.334 332.32 326.671 328.153 324.518 328.601C323.086 328.899 322.889 330.359 322.209 331.484C321.386 332.844 320.57 333.897 319.53 334.752C319.44 334.923 319.319 335.082 319.156 335.207C319.137 335.221 319.142 335.227 319.123 335.242C318.233 335.92 314.562 338.509 313.749 339.115C309.678 342.15 307.265 344.804 306.322 347.746C306.726 348.805 307.504 349.778 307.975 350.778C309.178 353.329 310.959 355.795 313.277 357.478C313.88 357.759 314.682 358.178 315.23 358.373C316.411 358.794 317.703 358.853 319.872 358.683C320.092 358.666 321.593 358.542 321.947 358.518C323.111 358.44 324.165 358.275 325.207 358.094Z" fill="#F4F4F4"/>
<path d="M311.232 330.603C311.986 330.217 312.286 329.291 311.9 328.536C311.515 327.782 310.589 327.482 309.834 327.867C309.079 328.253 308.785 329.177 309.17 329.931C309.556 330.685 310.477 330.988 311.232 330.603ZM290.14 341.378C290.895 340.992 291.194 340.066 290.809 339.311C290.424 338.557 289.497 338.257 288.742 338.643C287.988 339.028 287.693 339.952 288.079 340.706C288.464 341.46 289.386 341.763 290.14 341.378ZM308.244 329.385C308.999 329 309.293 328.076 308.908 327.321C308.523 326.567 307.601 326.264 306.847 326.649C306.093 327.035 305.792 327.961 306.178 328.716C306.563 329.47 307.49 329.77 308.244 329.385ZM290.909 338.241C291.663 337.856 291.964 336.929 291.578 336.174C291.192 335.42 290.266 335.12 289.512 335.505C288.757 335.891 288.457 336.818 288.842 337.572C289.228 338.327 290.155 338.626 290.909 338.241ZM304.738 328.635C305.493 328.249 305.795 327.328 305.41 326.573C305.025 325.819 304.098 325.519 303.343 325.904C302.589 326.29 302.289 327.217 302.675 327.971C303.06 328.725 303.984 329.02 304.738 328.635ZM292.356 334.96C293.11 334.575 293.408 333.656 293.022 332.902C292.637 332.147 291.715 331.845 290.961 332.23C290.207 332.615 289.907 333.542 290.292 334.297C290.678 335.051 291.601 335.346 292.356 334.96ZM301.099 329.07C301.854 328.684 302.149 327.76 301.763 327.006C301.378 326.251 300.456 325.949 299.702 326.334C298.948 326.719 298.647 327.646 299.033 328.401C299.418 329.155 300.345 329.455 301.099 329.07ZM294.841 332.267C295.595 331.881 295.895 330.955 295.51 330.2C295.125 329.446 294.198 329.146 293.443 329.531C292.689 329.917 292.394 330.841 292.779 331.595C293.165 332.35 294.086 332.652 294.841 332.267ZM297.979 330.52C298.734 330.134 299.029 329.21 298.643 328.456C298.258 327.702 297.336 327.399 296.582 327.784C295.827 328.17 295.527 329.096 295.913 329.851C296.298 330.605 297.225 330.905 297.979 330.52Z" fill="#F4F4F4"/>
<path d="M305.308 317.065C306.228 316.885 307.101 316.524 307.852 315.916C308.113 315.705 308.355 315.466 308.571 315.209C308.798 314.94 308.997 314.65 309.142 314.328C309.678 313.135 309.274 311.961 308.65 310.893C308.298 310.292 307.886 309.727 307.511 309.14C307.246 308.724 306.993 308.283 306.844 307.811C306.747 307.502 306.705 307.175 306.686 306.852C306.599 305.445 307.115 304.085 307.576 302.782C307.792 302.172 307.989 301.561 308.141 300.939C308.518 301.06 308.902 301.172 309.26 301.319C309.981 300.956 310.327 300.398 310.662 299.268C310.701 299.14 310.762 298.914 310.843 298.621C310.864 298.416 310.881 298.108 310.905 297.972C311.462 294.821 313.114 286.351 311.656 282.334C311.573 282.324 311.497 282.31 311.413 282.3C309.948 282.138 308.735 282.099 306.081 282.083C302.217 282.061 298.56 282.512 293.998 283.485C286.602 285.06 283.016 286.762 279.185 291.007C279.911 295.042 284.951 301.61 286.733 304.203C287.061 304.561 287.479 305.022 287.648 305.193C288.131 305.68 288.517 305.947 288.943 306.032C289.146 305.801 289.349 305.591 289.553 305.374C289.826 306.005 290.14 306.62 290.488 307.211C291.272 308.544 292.189 309.799 293.184 310.981C294.175 312.158 295.252 313.269 296.422 314.27C297.668 315.339 299.036 316.331 300.64 316.765C302.107 317.162 303.774 317.366 305.308 317.065ZM305.39 316.064C303.833 316.439 302.053 316.171 300.576 315.737C299.945 315.551 299.354 315.213 298.806 314.857C298.192 314.458 297.614 314.009 297.059 313.531C295.931 312.563 294.896 311.481 293.94 310.344C292.939 309.154 292.012 307.891 291.238 306.54C290.882 305.922 290.565 305.279 290.305 304.615C291.325 303.635 292.383 302.821 293.533 302.198C297.438 300.082 302.822 299.531 307.241 300.661C307.049 301.457 306.77 302.238 306.5 303.015C305.995 304.472 305.555 305.994 305.822 307.549C306.092 309.116 307.269 310.288 307.992 311.649C308.368 312.356 308.624 313.168 308.275 313.938C308.165 314.18 308.012 314.392 307.842 314.594C307.178 315.381 306.325 315.838 305.39 316.064Z" fill="#F4F4F4"/>
<path d="M339.519 294.972C340.732 295.067 341.79 294.156 341.884 292.942L343.749 268.99C343.843 267.777 342.939 266.713 341.726 266.619L330.177 265.72C328.963 265.625 327.906 266.536 327.811 267.749L325.947 291.702C325.852 292.915 326.756 293.979 327.969 294.073L339.519 294.972ZM339.748 294.266C339.05 294.211 338.525 293.605 338.579 292.907C338.634 292.208 339.246 291.684 339.945 291.738C340.644 291.793 341.161 292.405 341.107 293.103C341.052 293.802 340.447 294.32 339.748 294.266ZM336.722 292.125C336.023 292.07 335.506 291.458 335.56 290.76C335.614 290.061 336.22 289.536 336.919 289.591C337.618 289.645 338.142 290.258 338.087 290.956C338.033 291.655 337.42 292.179 336.722 292.125ZM340.069 290.145C339.37 290.09 338.846 289.478 338.901 288.779C338.955 288.08 339.567 287.563 340.266 287.617C340.965 287.672 341.482 288.277 341.428 288.976C341.374 289.674 340.768 290.199 340.069 290.145Z" fill="#F4F4F4"/>
<path d="M368.815 341.046L374.011 329.525C373.709 329.477 373.406 329.407 373.113 329.275L368.925 327.387C368.633 327.255 368.376 327.07 368.14 326.875L362.943 338.396L368.815 341.046ZM375.994 328.241C376.49 327.934 376.905 327.48 377.163 326.908L378.793 323.289C379.48 321.764 378.802 319.97 377.277 319.283L373.655 317.648C372.13 316.96 370.339 317.643 369.652 319.168L368.019 322.783C367.331 324.308 368.009 326.101 369.534 326.789L373.156 328.424C374.11 328.854 375.166 328.751 375.994 328.241ZM378.668 319.192L384.287 306.728L378.419 304.083L372.8 316.547C373.102 316.594 373.404 316.672 373.696 316.804L377.884 318.693C378.177 318.825 378.432 318.997 378.668 319.192Z" fill="#F4F4F4"/>
<path d="M369.126 301.47L369.382 298.72L365.599 297.59L364.183 299.722L366.59 302.921L369.126 301.47ZM367.687 297.412C369.084 293.223 367.519 288.562 363.788 286.083C359.252 283.069 353.131 284.303 350.117 288.839C347.103 293.375 348.337 299.495 352.873 302.509C356.566 304.964 361.409 304.636 364.731 301.797L363.886 300.81C361.003 303.273 356.799 303.554 353.594 301.424C349.657 298.808 348.586 293.496 351.202 289.56C353.818 285.623 359.13 284.552 363.066 287.168C366.305 289.32 367.663 293.368 366.451 297.003L367.687 297.412Z" fill="#F4F4F4"/>
<path d="M339.408 250.555C340.29 250.7 341.429 246.645 341.631 245.976C342.89 241.813 343.502 237.173 345.3 233.216C344.779 232.714 344.48 232.446 344.132 232.194C343.505 231.74 342.819 231.312 342.094 230.873C342.059 231.018 342 231.3 341.969 231.388C341.102 233.819 339.548 238.169 336.938 239.245C334.689 237.661 332.411 236.116 330.644 233.969C328.799 231.728 327.457 228.825 326.201 226.208C325.713 225.192 325.376 223.947 324.6 223.099C324.181 222.64 323.614 222.244 323.007 221.876C319.529 220.657 316.142 219.747 312.723 219.162C312.154 219.064 311.708 218.965 310.708 218.729C310.614 218.707 310.568 218.695 310.516 218.683C309.604 218.468 308.935 218.336 308.354 218.254C308.357 218.389 308.366 218.653 308.363 218.707C308.212 221.53 309.911 225.057 311.655 227.22C317.913 234.986 325.771 240.202 334.08 245.541C335.485 246.444 336.901 247.476 338.033 248.711C338.248 248.947 339.17 250.517 339.408 250.555Z" fill="#F4F4F4"/>
<path d="M306.295 273.087C309.257 272.585 312.226 271.266 314.484 269.322C316.709 267.407 318.181 263.982 318.583 261.118C318.697 260.307 318.75 259.286 318.918 258.314C318.898 258.316 318.879 258.315 318.861 258.317C319.03 257.721 319.196 257.066 319.005 256.696C318.917 256.528 318.367 256.53 318.213 256.489C317.544 256.315 316.843 255.893 316.225 255.567C316.199 255.553 316.182 255.527 316.156 255.513C318.269 255.833 321.337 255.37 323.377 254.482C324.335 253.995 325.262 253.466 326.18 252.934C328.168 251.702 331.059 249.479 328.658 248.772C327.667 248.48 326.1 249.571 325.154 249.784C322.79 250.317 319.668 249.875 317.404 249.107C314.843 248.237 311.773 243.615 309.58 243.769C308.12 243.872 307.729 245.292 306.904 246.315C305.905 247.552 304.956 248.486 303.81 249.194C303.698 249.35 303.556 249.492 303.378 249.593C303.357 249.605 303.361 249.612 303.34 249.624C302.368 250.176 298.381 252.248 297.495 252.739C293.052 255.198 290.304 257.503 288.974 260.292C289.231 261.396 289.872 262.465 290.204 263.519C291.052 266.209 292.485 268.892 294.556 270.872C295.116 271.231 295.854 271.754 296.371 272.021C297.485 272.597 298.757 272.829 300.929 272.953C301.15 272.965 302.653 273.045 303.008 273.069C304.171 273.148 305.237 273.126 306.295 273.087Z" fill="#F4F4F4"/>
<path d="M296.145 243.965C296.944 243.685 297.366 242.807 297.085 242.008C296.805 241.208 295.927 240.786 295.127 241.067C294.328 241.347 293.912 242.223 294.192 243.022C294.473 243.822 295.345 244.245 296.145 243.965ZM273.795 251.805C274.595 251.524 275.016 250.647 274.736 249.847C274.456 249.047 273.578 248.625 272.778 248.906C271.979 249.186 271.562 250.062 271.843 250.862C272.124 251.661 272.996 252.085 273.795 251.805ZM293.348 242.357C294.148 242.076 294.564 241.2 294.284 240.401C294.003 239.601 293.131 239.177 292.332 239.458C291.532 239.738 291.11 240.616 291.39 241.416C291.671 242.215 292.549 242.637 293.348 242.357ZM274.979 248.8C275.778 248.519 276.201 247.641 275.92 246.842C275.639 246.043 274.762 245.621 273.963 245.901C273.163 246.182 272.741 247.059 273.021 247.859C273.302 248.658 274.18 249.08 274.979 248.8ZM289.975 241.141C290.774 240.861 291.198 239.989 290.918 239.189C290.638 238.39 289.759 237.968 288.96 238.248C288.161 238.529 287.739 239.407 288.019 240.206C288.3 241.005 289.176 241.422 289.975 241.141ZM276.854 245.744C277.654 245.463 278.072 244.593 277.791 243.794C277.511 242.994 276.639 242.57 275.839 242.851C275.04 243.131 274.618 244.009 274.898 244.808C275.179 245.608 276.054 246.024 276.854 245.744ZM286.311 241.083C287.11 240.802 287.527 239.926 287.246 239.127C286.966 238.327 286.093 237.904 285.294 238.184C284.495 238.464 284.072 239.342 284.353 240.142C284.634 240.941 285.511 241.363 286.311 241.083ZM279.679 243.409C280.478 243.128 280.9 242.251 280.62 241.451C280.34 240.652 279.461 240.23 278.662 240.51C277.863 240.791 277.446 241.667 277.727 242.466C278.007 243.266 278.879 243.689 279.679 243.409ZM283.024 242.1C283.823 241.819 284.24 240.944 283.959 240.144C283.679 239.345 282.806 238.921 282.007 239.201C281.208 239.482 280.786 240.36 281.066 241.159C281.347 241.958 282.224 242.38 283.024 242.1Z" fill="#F4F4F4"/>
<path d="M292.097 229.754C293.033 229.699 293.946 229.458 294.772 228.957C295.059 228.783 295.331 228.579 295.58 228.354C295.84 228.117 296.077 227.857 296.263 227.557C296.955 226.447 296.713 225.229 296.239 224.088C295.971 223.444 295.638 222.83 295.346 222.197C295.139 221.75 294.947 221.278 294.863 220.79C294.809 220.471 294.812 220.141 294.836 219.819C294.939 218.413 295.633 217.135 296.266 215.906C296.561 215.331 296.84 214.751 297.073 214.155C297.431 214.326 297.796 214.488 298.131 214.683C298.894 214.42 299.312 213.913 299.797 212.839C299.852 212.717 299.943 212.502 300.063 212.222C300.111 212.022 300.17 211.719 300.212 211.587C301.188 208.54 303.964 200.369 303.059 196.193C302.979 196.171 302.906 196.147 302.824 196.127C301.393 195.768 300.197 195.566 297.569 195.194C293.743 194.652 290.059 194.607 285.407 194.957C277.866 195.523 274.084 196.727 269.717 200.418C269.893 204.514 274.004 211.7 275.421 214.509C275.698 214.909 276.05 215.421 276.194 215.613C276.607 216.161 276.954 216.477 277.365 216.619C277.597 216.417 277.826 216.237 278.058 216.049C278.244 216.711 278.472 217.363 278.737 217.996C279.334 219.422 280.075 220.788 280.902 222.094C281.725 223.394 282.643 224.639 283.667 225.789C284.759 227.015 285.981 228.183 287.511 228.829C288.911 229.419 290.536 229.845 292.097 229.754ZM292.313 228.773C290.719 228.934 288.992 228.43 287.586 227.801C286.986 227.532 286.446 227.117 285.951 226.691C285.396 226.213 284.884 225.69 284.398 225.142C283.411 224.031 282.53 222.82 281.736 221.565C280.904 220.25 280.155 218.874 279.57 217.432C279.301 216.771 279.073 216.092 278.905 215.398C280.048 214.565 281.205 213.9 282.429 213.437C286.583 211.866 291.993 212.044 296.219 213.759C295.922 214.522 295.54 215.258 295.168 215.992C294.471 217.367 293.831 218.816 293.887 220.393C293.943 221.982 294.952 223.302 295.485 224.748C295.763 225.499 295.906 226.339 295.457 227.054C295.316 227.279 295.136 227.469 294.94 227.646C294.176 228.337 293.269 228.675 292.313 228.773Z" fill="#F4F4F4"/>
<path d="M328.968 212.464C330.158 212.721 331.328 211.961 331.585 210.771L336.655 187.287C336.912 186.098 336.16 184.922 334.97 184.666L323.647 182.221C322.457 181.964 321.287 182.724 321.03 183.914L315.96 207.398C315.703 208.588 316.455 209.763 317.645 210.02L328.968 212.464ZM329.291 211.795C328.606 211.647 328.168 210.976 328.315 210.291C328.463 209.606 329.141 209.169 329.826 209.317C330.511 209.465 330.941 210.141 330.793 210.826C330.645 211.511 329.976 211.943 329.291 211.795ZM326.58 209.266C325.895 209.118 325.464 208.443 325.612 207.757C325.76 207.072 326.431 206.634 327.116 206.782C327.801 206.93 328.238 207.607 328.09 208.292C327.942 208.977 327.265 209.414 326.58 209.266ZM330.163 207.755C329.478 207.607 329.041 206.929 329.189 206.244C329.337 205.559 330.013 205.129 330.698 205.277C331.383 205.425 331.815 206.094 331.667 206.779C331.519 207.464 330.848 207.902 330.163 207.755Z" fill="#F4F4F4"/>
<path d="M351.8 262.061L358.499 251.344C358.205 251.256 357.915 251.146 357.642 250.975L353.747 248.541C353.474 248.371 353.245 248.153 353.037 247.928L346.338 258.645L351.8 262.061ZM360.636 250.338C361.169 250.101 361.641 249.707 361.974 249.175L364.075 245.808C364.962 244.389 364.531 242.521 363.113 241.634L359.743 239.527C358.325 238.64 356.459 239.076 355.572 240.495L353.468 243.856C352.581 245.275 353.012 247.144 354.43 248.03L357.8 250.137C358.686 250.692 359.747 250.732 360.636 250.338ZM364.503 241.731L371.748 230.137L366.289 226.726L359.044 238.32C359.338 238.408 359.626 238.526 359.898 238.696L363.794 241.131C364.066 241.301 364.296 241.506 364.503 241.731Z" fill="#F4F4F4"/>
<path d="M357.432 222.886L358.056 220.196L354.46 218.567L352.769 220.489L354.724 223.983L357.432 222.886ZM356.552 218.672C358.5 214.708 357.577 209.88 354.213 206.921C350.123 203.324 343.892 203.723 340.295 207.812C336.698 211.902 337.098 218.133 341.187 221.73C344.517 224.659 349.359 224.986 353.033 222.62L352.329 221.527C349.141 223.58 344.937 223.293 342.047 220.751C338.499 217.63 338.152 212.222 341.274 208.673C344.395 205.124 349.803 204.778 353.352 207.899C356.271 210.467 357.072 214.661 355.382 218.1L356.552 218.672Z" fill="#F4F4F4"/>
<path d="M60.4079 54.5553C61.2903 54.7003 62.4288 50.6454 62.631 49.9763C63.8896 45.8132 64.5015 41.1726 66.3002 37.2158C65.7786 36.7139 65.4796 36.446 65.1321 36.1941C64.5052 35.7398 63.8192 35.3118 63.0943 34.8731C63.059 35.0184 63.0003 35.3003 62.9689 35.3882C62.1015 37.8187 60.5482 42.169 57.9376 43.2454C55.6888 41.6611 53.4109 40.1162 51.6435 37.9694C49.7985 35.7284 48.4568 32.8249 47.2008 30.2082C46.7129 29.1919 46.3762 27.9473 45.6003 27.0987C45.1806 26.6398 44.614 26.2444 44.0069 25.8755C40.5295 24.6568 37.1418 23.7472 33.723 23.1618C33.1535 23.0642 32.7075 22.9649 31.7084 22.729C31.6136 22.7066 31.568 22.6952 31.5157 22.6829C30.6038 22.468 29.9354 22.3362 29.3539 22.2542C29.3571 22.3891 29.3659 22.6527 29.363 22.7067C29.2118 25.5304 30.911 29.0565 32.6545 31.2201C38.9129 38.9858 46.7708 44.2023 55.0802 49.5413C56.4854 50.4442 57.9011 51.4756 59.0327 52.7115C59.2482 52.9468 60.1705 54.5166 60.4079 54.5553Z" fill="#F4F4F4"/>
<path d="M27.2949 77.0871C30.2566 76.5853 33.2256 75.2665 35.4839 73.3224C37.709 71.4067 39.1809 67.9824 39.5832 65.1184C39.697 64.3068 39.75 63.2862 39.9178 62.3145C39.8984 62.316 39.8793 62.3154 39.8606 62.3168C40.0297 61.7208 40.196 61.0658 40.0046 60.696C39.9174 60.528 39.3667 60.5298 39.2127 60.4893C38.5442 60.3152 37.8426 59.8934 37.2254 59.5672C37.1991 59.5533 37.1823 59.5272 37.1563 59.5127C39.2694 59.8333 42.3373 59.3697 44.3769 58.482C45.3347 57.9954 46.2619 57.466 47.1805 56.9343C49.1685 55.7016 52.0592 53.4787 49.6575 52.7718C48.6665 52.4802 47.0999 53.5714 46.1536 53.7845C43.7903 54.3166 40.6676 53.8754 38.4045 53.1071C35.843 52.237 32.7733 47.6145 30.5803 47.7692C29.1204 47.8722 28.7295 49.2921 27.9036 50.3152C26.9052 51.5518 25.9556 52.486 24.8099 53.1938C24.6976 53.3503 24.5562 53.4916 24.3775 53.5934C24.3568 53.6053 24.3611 53.6119 24.3403 53.6237C23.3679 54.1758 19.3814 56.2479 18.4948 56.7387C14.0521 59.1984 11.3037 61.5035 9.97361 64.2917C10.2309 65.3962 10.8716 66.465 11.204 67.5193C12.052 70.2089 13.4855 72.8919 15.5559 74.8717C16.1159 75.2312 16.8538 75.7537 17.3709 76.0207C18.4849 76.597 19.7566 76.8293 21.9287 76.953C22.1495 76.9651 23.6531 77.0445 24.0076 77.0686C25.171 77.1481 26.2374 77.1264 27.2949 77.0871Z" fill="#F4F4F4"/>
<path d="M17.1445 47.9651C17.9438 47.6847 18.3655 46.807 18.0852 46.0075C17.8049 45.208 16.9273 44.7859 16.1274 45.0666C15.3281 45.3469 14.9117 46.2228 15.192 47.0223C15.4729 47.8216 16.3452 48.2454 17.1445 47.9651ZM-5.2048 55.8046C-4.40547 55.5242 -3.9838 54.6465 -4.26413 53.847C-4.54443 53.0475 -5.42206 52.6254 -6.22191 52.9061C-7.02124 53.1865 -7.43762 54.0624 -7.15732 54.8619C-6.87648 55.6611 -6.00413 56.0849 -5.2048 55.8046ZM14.3482 46.3565C15.1475 46.0762 15.5639 45.2003 15.2836 44.4008C15.0033 43.6013 14.131 43.1774 13.3316 43.4578C12.5323 43.7381 12.1101 44.6161 12.3904 45.4156C12.6712 46.2148 13.5489 46.6369 14.3482 46.3565ZM-4.02092 52.7998C-3.22159 52.5195 -2.79939 51.6415 -3.07969 50.842C-3.36053 50.0428 -4.23817 49.6207 -5.0375 49.9011C-5.83737 50.1817 -6.259 51.0595 -5.9787 51.859C-5.6984 52.6585 -4.82023 53.0802 -4.02092 52.7998ZM10.975 45.1414C11.7743 44.8611 12.1982 43.9887 11.9179 43.1892C11.6376 42.3897 10.7594 41.9679 9.96009 42.2483C9.16075 42.5286 8.73855 43.4066 9.01939 44.2059C9.29969 45.0054 10.1757 45.4218 10.975 45.1414ZM-2.14566 49.7437C-1.34633 49.4633 -0.927748 48.5928 -1.20859 47.7936C-1.48889 46.9941 -2.36124 46.5702 -3.16058 46.8506C-3.95991 47.1309 -4.38208 48.009 -4.10178 48.8085C-3.82094 49.6077 -2.9455 50.0244 -2.14566 49.7437ZM7.31057 45.0828C8.10987 44.8024 8.52679 43.9262 8.24595 43.127C7.96565 42.3275 7.0933 41.9036 6.29396 42.184C5.49466 42.4644 5.07246 43.3424 5.35276 44.1419C5.6336 44.9411 6.51123 45.3631 7.31057 45.0828ZM0.679151 47.4088C1.47848 47.1284 1.90015 46.2507 1.61985 45.4512C1.33955 44.6517 0.461375 44.2299 -0.337959 44.5103C-1.13726 44.7907 -1.55365 45.6666 -1.27335 46.4661C-0.993046 47.2656 -0.12072 47.6894 0.679151 47.4088ZM4.0236 46.1001C4.82347 45.8194 5.23986 44.9435 4.95902 44.1443C4.67872 43.3448 3.80637 42.921 3.00704 43.2013C2.20773 43.4817 1.78553 44.3597 2.06637 45.1589C2.34667 45.9584 3.2243 46.3805 4.0236 46.1001Z" fill="#F4F4F4"/>
<path d="M13.0966 33.7537C14.033 33.6987 14.9456 33.4582 15.7719 32.9573C16.059 32.7833 16.3314 32.5793 16.5796 32.3539C16.8405 32.1171 17.0768 31.8568 17.2635 31.5573C17.9555 30.4475 17.7127 29.2295 17.2385 28.0879C16.9708 27.4443 16.638 26.8295 16.3458 26.1972C16.1394 25.7495 15.9474 25.2783 15.8633 24.7904C15.809 24.471 15.8117 24.1412 15.8357 23.8188C15.9388 22.4133 16.6331 21.1351 17.2655 19.9059C17.5612 19.3307 17.8395 18.7515 18.0732 18.1553C18.431 18.3258 18.7964 18.4885 19.1309 18.6829C19.8942 18.4195 20.312 17.9132 20.7966 16.839C20.8517 16.717 20.9433 16.5017 21.063 16.2224C21.1111 16.0217 21.1699 15.7185 21.2117 15.5875C22.1875 12.5401 24.9641 4.36881 24.0593 0.192596C23.9786 0.171486 23.9057 0.147057 23.8237 0.126518C22.3935 -0.231849 21.1967 -0.433808 18.5685 -0.806054C14.7431 -1.34786 11.0591 -1.39253 6.40688 -1.04322C-1.13361 -0.477202 -4.91625 0.727194 -9.28344 4.41835C-9.10663 8.51396 -4.99621 15.7001 -3.57869 18.5093C-3.30184 18.9085 -2.95041 19.4213 -2.8057 19.6132C-2.39263 20.1615 -2.04611 20.4771 -1.63483 20.6192C-1.40317 20.4171 -1.17365 20.2369 -0.941821 20.0493C-0.756138 20.711 -0.527901 21.3627 -0.263087 21.9957C0.334272 23.422 1.07457 24.7885 1.9015 26.0938C2.72479 27.3937 3.64313 28.6391 4.66699 29.7889C5.75868 31.0152 6.98076 32.183 8.51134 32.8288C9.91114 33.4192 11.5365 33.8451 13.0966 33.7537ZM13.3128 32.7725C11.7192 32.9345 9.99179 32.4304 8.58612 31.8008C7.98622 31.5324 7.44628 31.1174 6.95113 30.6914C6.39567 30.213 5.88359 29.69 5.39755 29.1418C4.41052 28.0306 3.5304 26.8199 2.73613 25.5647C1.90428 24.2502 1.15545 22.8744 0.5701 21.4317C0.301403 20.7709 0.0728486 20.0916 -0.0954159 19.3978C1.0479 18.5646 2.20511 17.9 3.42893 17.4372C7.58293 15.8658 12.9926 16.0444 17.2186 17.7593C16.922 18.5221 16.5399 19.2581 16.1683 19.9916C15.4712 21.3675 14.8309 22.8163 14.8865 24.3934C14.943 25.9823 15.9517 27.3023 16.4849 28.7476C16.7627 29.4987 16.9063 30.3387 16.457 31.0545C16.3156 31.2794 16.1356 31.469 15.9399 31.6461C15.1757 32.3366 14.2694 32.6751 13.3128 32.7725Z" fill="#F4F4F4"/>
<path d="M49.9684 16.4644C51.1582 16.7212 52.3283 15.961 52.5852 14.7713L57.6553 -8.7125C57.9121 -9.90219 57.1598 -11.0775 55.9701 -11.3344L44.6466 -13.779C43.4569 -14.0359 42.2867 -13.2757 42.0299 -12.0859L36.9598 11.3978C36.703 12.5875 37.4553 13.7628 38.645 14.0197L49.9684 16.4644ZM50.2909 15.795C49.6058 15.6471 49.1676 14.9762 49.3155 14.2912C49.4634 13.6061 50.1407 13.1692 50.8258 13.3172C51.5109 13.4651 51.9412 14.141 51.7933 14.8261C51.6454 15.5112 50.9759 15.9429 50.2909 15.795ZM47.5797 13.2664C46.8947 13.1185 46.4643 12.4425 46.6123 11.7574C46.7602 11.0724 47.431 10.6341 48.1161 10.7821C48.8012 10.9299 49.2381 11.6073 49.0901 12.2924C48.9422 12.9774 48.2648 13.4143 47.5797 13.2664ZM51.1632 11.7546C50.4781 11.6067 50.0413 10.9293 50.1892 10.2442C50.3371 9.55921 51.013 9.12895 51.6982 9.27678C52.3832 9.42472 52.8149 10.0942 52.667 10.7792C52.5191 11.4643 51.8482 11.9025 51.1632 11.7546Z" fill="#F4F4F4"/>
<path d="M72.7996 66.061L79.4987 55.344C79.2052 55.2556 78.9145 55.1455 78.6423 54.9754L74.7466 52.541C74.4744 52.3709 74.2447 52.1529 74.0369 51.9277L67.3378 62.6448L72.7996 66.061ZM81.6357 54.3376C82.169 54.1009 82.6412 53.7067 82.9735 53.1746L85.0754 49.8078C85.962 48.3891 85.5314 46.5205 84.1126 45.6338L80.7435 43.527C79.3247 42.6403 77.4585 43.0761 76.572 44.4947L74.4677 47.8564C73.5811 49.2751 74.0116 51.1437 75.4304 52.0304L78.7996 54.1372C79.6864 54.6917 80.7469 54.7322 81.6357 54.3376ZM85.5034 45.7309L92.7481 34.1369L87.289 30.7261L80.0444 42.3203C80.3377 42.4083 80.6257 42.5262 80.8979 42.6963L84.7937 45.1309C85.0659 45.301 85.2957 45.5058 85.5034 45.7309Z" fill="#F4F4F4"/>
<path d="M78.4325 26.8861L79.0557 24.1956L75.4598 22.5668L73.7691 24.4889L75.7243 27.983L78.4325 26.8861ZM77.5524 22.6718C79.5004 18.7083 78.5765 13.8797 75.2126 10.9207C71.1233 7.32391 64.8921 7.72304 61.2952 11.8123C57.6984 15.9015 58.0975 22.1328 62.1868 25.7297C65.5168 28.6587 70.3591 28.9856 74.0335 26.6197L73.3286 25.527C70.1408 27.5798 65.9374 27.293 63.0475 24.7512C59.4986 21.6296 59.1522 16.2218 62.2738 12.673C65.3953 9.12423 70.803 8.77778 74.3519 11.8993C77.2712 14.4672 78.0721 18.661 76.3821 22.0996L77.5524 22.6718Z" fill="#F4F4F4"/>
<path d="M152.408 11.5553C153.29 11.7003 154.429 7.64541 154.631 6.97631C155.89 2.81323 156.502 -1.82743 158.3 -5.78422C157.779 -6.28611 157.48 -6.55401 157.132 -6.8059C156.505 -7.26021 155.819 -7.68817 155.094 -8.12694C155.059 -7.98158 155 -7.69971 154.969 -7.61178C154.102 -5.1813 152.548 -0.830997 149.938 0.245415C147.689 -1.33894 145.411 -2.8838 143.644 -5.03056C141.799 -7.27164 140.457 -10.1751 139.201 -12.7918C138.713 -13.8081 138.376 -15.0527 137.6 -15.9013C137.181 -16.3602 136.614 -16.7556 136.007 -17.1245C132.529 -18.3432 129.142 -19.2528 125.723 -19.8382C125.154 -19.9358 124.708 -20.0351 123.708 -20.271C123.614 -20.2934 123.568 -20.3048 123.516 -20.3171C122.604 -20.532 121.935 -20.6638 121.354 -20.7458C121.357 -20.6109 121.366 -20.3473 121.363 -20.2933C121.212 -17.4696 122.911 -13.9435 124.655 -11.7799C130.913 -4.01418 138.771 1.20228 147.08 6.54129C148.485 7.44416 149.901 8.4756 151.033 9.71145C151.248 9.94678 152.17 11.5166 152.408 11.5553Z" fill="#F4F4F4"/>
<path d="M119.295 34.0871C122.257 33.5853 125.226 32.2665 127.484 30.3224C129.709 28.4067 131.181 24.9824 131.583 22.1184C131.697 21.3068 131.75 20.2862 131.918 19.3145C131.898 19.316 131.879 19.3154 131.861 19.3168C132.03 18.7208 132.196 18.0658 132.005 17.696C131.917 17.528 131.367 17.5298 131.213 17.4893C130.544 17.3152 129.843 16.8934 129.225 16.5672C129.199 16.5533 129.182 16.5272 129.156 16.5127C131.269 16.8333 134.337 16.3697 136.377 15.482C137.335 14.9954 138.262 14.466 139.18 13.9343C141.168 12.7016 144.059 10.4787 141.658 9.77184C140.667 9.48023 139.1 10.5714 138.154 10.7845C135.79 11.3166 132.668 10.8754 130.404 10.1071C127.843 9.23699 124.773 4.61453 122.58 4.76917C121.12 4.87221 120.729 6.29206 119.904 7.31515C118.905 8.5518 117.956 9.486 116.81 10.1938C116.698 10.3503 116.556 10.4916 116.378 10.5934C116.357 10.6053 116.361 10.6119 116.34 10.6237C115.368 11.1758 111.381 13.2479 110.495 13.7387C106.052 16.1984 103.304 18.5035 101.974 21.2917C102.231 22.3962 102.872 23.465 103.204 24.5193C104.052 27.2089 105.485 29.8919 107.556 31.8717C108.116 32.2312 108.854 32.7537 109.371 33.0207C110.485 33.597 111.757 33.8293 113.929 33.953C114.15 33.9651 115.653 34.0445 116.008 34.0686C117.171 34.1481 118.237 34.1264 119.295 34.0871Z" fill="#F4F4F4"/>
<path d="M109.145 4.96506C109.944 4.68471 110.366 3.807 110.085 3.0075C109.805 2.208 108.927 1.78595 108.127 2.06659C107.328 2.34694 106.912 3.22284 107.192 4.02234C107.473 4.8216 108.345 5.24541 109.145 4.96506ZM86.7952 12.8046C87.5945 12.5242 88.0162 11.6465 87.7359 10.847C87.4556 10.0475 86.5779 9.62541 85.7781 9.90611C84.9788 10.1865 84.5624 11.0624 84.8427 11.8619C85.1235 12.6611 85.9959 13.0849 86.7952 12.8046ZM106.348 3.35651C107.148 3.07616 107.564 2.20027 107.284 1.40077C107.003 0.601268 106.131 0.177407 105.332 0.457756C104.532 0.738106 104.11 1.6161 104.39 2.4156C104.671 3.21481 105.549 3.63686 106.348 3.35651ZM87.9791 9.79984C88.7784 9.51949 89.2006 8.64149 88.9203 7.84199C88.6395 7.04279 87.7618 6.62073 86.9625 6.90108C86.1626 7.18172 85.741 8.05948 86.0213 8.85898C86.3016 9.65848 87.1798 10.0802 87.9791 9.79984ZM102.975 2.14141C103.774 1.86106 104.198 0.988707 103.918 0.189154C103.638 -0.610291 102.759 -1.03205 101.96 -0.751703C101.161 -0.471354 100.739 0.406645 101.019 1.20585C101.3 2.00535 102.176 2.42176 102.975 2.14141ZM89.8543 6.74368C90.6537 6.46333 91.0723 5.59279 90.7914 4.79358C90.5111 3.99408 89.6388 3.57022 88.8394 3.85057C88.0401 4.13092 87.6179 5.00897 87.8982 5.80847C88.1791 6.60768 89.0545 7.02438 89.8543 6.74368ZM99.3106 2.08278C100.11 1.80238 100.527 0.926191 100.246 0.126983C99.9657 -0.672516 99.0933 -1.09638 98.294 -0.816028C97.4947 -0.535625 97.0725 0.342371 97.3528 1.14187C97.6336 1.94108 98.5112 2.36313 99.3106 2.08278ZM92.6792 4.40876C93.4785 4.12841 93.9002 3.2507 93.6199 2.4512C93.3396 1.6517 92.4614 1.22994 91.662 1.51029C90.8627 1.7907 90.4464 2.66659 90.7267 3.46609C91.007 4.26559 91.8793 4.6894 92.6792 4.40876ZM96.0236 3.10007C96.8235 2.81943 97.2399 1.94354 96.959 1.14433C96.6787 0.344829 95.8064 -0.0790349 95.007 0.201315C94.2077 0.481718 93.7855 1.35972 94.0664 2.15892C94.3467 2.95842 95.2243 3.38048 96.0236 3.10007Z" fill="#F4F4F4"/>
<path d="M164.8 23.061L171.499 12.344C171.205 12.2556 170.915 12.1455 170.642 11.9754L166.747 9.54103C166.474 9.37094 166.245 9.15285 166.037 8.92774L159.338 19.6448L164.8 23.061ZM173.636 11.3376C174.169 11.1009 174.641 10.7067 174.974 10.1746L177.075 6.80777C177.962 5.38913 177.531 3.52053 176.113 2.63376L172.743 0.526971C171.325 -0.359747 169.459 0.0760836 168.572 1.49474L166.468 4.85642C165.581 6.27505 166.012 8.14365 167.43 9.03043L170.8 11.1372C171.686 11.6917 172.747 11.7322 173.636 11.3376ZM177.503 2.73095L184.748 -8.86309L179.289 -12.2739L172.044 -0.679714C172.338 -0.591723 172.626 -0.473831 172.898 -0.303744L176.794 2.13088C177.066 2.30097 177.296 2.50584 177.503 2.73095Z" fill="#F4F4F4"/>
<path d="M257.408 32.5553C258.29 32.7003 259.429 28.6454 259.631 27.9763C260.89 23.8132 261.502 19.1726 263.3 15.2158C262.779 14.7139 262.48 14.446 262.132 14.1941C261.505 13.7398 260.819 13.3118 260.094 12.8731C260.059 13.0184 260 13.3003 259.969 13.3882C259.102 15.8187 257.548 20.169 254.938 21.2454C252.689 19.6611 250.411 18.1162 248.644 15.9694C246.799 13.7284 245.457 10.8249 244.201 8.20819C243.713 7.1919 243.376 5.94728 242.6 5.09873C242.181 4.6398 241.614 4.24445 241.007 3.87554C237.529 2.65679 234.142 1.74719 230.723 1.16176C230.154 1.06423 229.708 0.964925 228.708 0.728967C228.614 0.706589 228.568 0.695191 228.516 0.682859C227.604 0.467984 226.935 0.336213 226.354 0.254208C226.357 0.389147 226.366 0.652653 226.363 0.706739C226.212 3.53043 227.911 7.05653 229.655 9.22009C235.913 16.9858 243.771 22.2023 252.08 27.5413C253.485 28.4442 254.901 29.4756 256.033 30.7115C256.248 30.9468 257.17 32.5166 257.408 32.5553Z" fill="#F4F4F4"/>
<path d="M224.295 55.0871C227.257 54.5853 230.226 53.2665 232.484 51.3224C234.709 49.4067 236.181 45.9824 236.583 43.1184C236.697 42.3068 236.75 41.2862 236.918 40.3145C236.898 40.316 236.879 40.3154 236.861 40.3168C237.03 39.7208 237.196 39.0658 237.005 38.696C236.917 38.528 236.367 38.5298 236.213 38.4893C235.544 38.3152 234.843 37.8934 234.225 37.5672C234.199 37.5533 234.182 37.5272 234.156 37.5127C236.269 37.8333 239.337 37.3697 241.377 36.482C242.335 35.9954 243.262 35.466 244.18 34.9343C246.168 33.7016 249.059 31.4787 246.658 30.7718C245.667 30.4802 244.1 31.5714 243.154 31.7845C240.79 32.3166 237.668 31.8754 235.404 31.1071C232.843 30.237 229.773 25.6145 227.58 25.7692C226.12 25.8722 225.729 27.2921 224.904 28.3152C223.905 29.5518 222.956 30.486 221.81 31.1938C221.698 31.3503 221.556 31.4916 221.378 31.5934C221.357 31.6053 221.361 31.6119 221.34 31.6237C220.368 32.1758 216.381 34.2479 215.495 34.7387C211.052 37.1984 208.304 39.5035 206.974 42.2917C207.231 43.3962 207.872 44.465 208.204 45.5193C209.052 48.2089 210.485 50.8919 212.556 52.8717C213.116 53.2312 213.854 53.7537 214.371 54.0207C215.485 54.597 216.757 54.8293 218.929 54.953C219.15 54.9651 220.653 55.0445 221.008 55.0686C222.171 55.1481 223.237 55.1264 224.295 55.0871Z" fill="#F4F4F4"/>
<path d="M214.145 25.9651C214.944 25.6847 215.366 24.807 215.085 24.0075C214.805 23.208 213.927 22.7859 213.127 23.0666C212.328 23.3469 211.912 24.2228 212.192 25.0223C212.473 25.8216 213.345 26.2454 214.145 25.9651ZM191.795 33.8046C192.595 33.5242 193.016 32.6465 192.736 31.847C192.456 31.0475 191.578 30.6254 190.778 30.9061C189.979 31.1865 189.562 32.0624 189.843 32.8619C190.124 33.6611 190.996 34.0849 191.795 33.8046ZM211.348 24.3565C212.148 24.0762 212.564 23.2003 212.284 22.4008C212.003 21.6013 211.131 21.1774 210.332 21.4578C209.532 21.7381 209.11 22.6161 209.39 23.4156C209.671 24.2148 210.549 24.6369 211.348 24.3565ZM192.979 30.7998C193.778 30.5195 194.201 29.6415 193.92 28.842C193.639 28.0428 192.762 27.6207 191.963 27.9011C191.163 28.1817 190.741 29.0595 191.021 29.859C191.302 30.6585 192.18 31.0802 192.979 30.7998ZM207.975 23.1414C208.774 22.8611 209.198 21.9887 208.918 21.1892C208.638 20.3897 207.759 19.9679 206.96 20.2483C206.161 20.5286 205.739 21.4066 206.019 22.2059C206.3 23.0054 207.176 23.4218 207.975 23.1414ZM194.854 27.7437C195.654 27.4633 196.072 26.5928 195.791 25.7936C195.511 24.9941 194.639 24.5702 193.839 24.8506C193.04 25.1309 192.618 26.009 192.898 26.8085C193.179 27.6077 194.054 28.0244 194.854 27.7437ZM204.311 23.0828C205.11 22.8024 205.527 21.9262 205.246 21.127C204.966 20.3275 204.093 19.9036 203.294 20.184C202.495 20.4644 202.072 21.3424 202.353 22.1419C202.634 22.9411 203.511 23.3631 204.311 23.0828ZM197.679 25.4088C198.478 25.1284 198.9 24.2507 198.62 23.4512C198.34 22.6517 197.461 22.2299 196.662 22.5103C195.863 22.7907 195.446 23.6666 195.727 24.4661C196.007 25.2656 196.879 25.6894 197.679 25.4088ZM201.024 24.1001C201.823 23.8194 202.24 22.9435 201.959 22.1443C201.679 21.3448 200.806 20.921 200.007 21.2013C199.208 21.4817 198.786 22.3597 199.066 23.1589C199.347 23.9584 200.224 24.3805 201.024 24.1001Z" fill="#F4F4F4"/>
<path d="M210.097 11.7537C211.033 11.6987 211.946 11.4582 212.772 10.9573C213.059 10.7833 213.331 10.5793 213.58 10.3539C213.84 10.1171 214.077 9.85676 214.263 9.55727C214.955 8.44746 214.713 7.2295 214.239 6.08786C213.971 5.4443 213.638 4.82954 213.346 4.19722C213.139 3.74951 212.947 3.2783 212.863 2.79036C212.809 2.47097 212.812 2.14122 212.836 1.81885C212.939 0.413318 213.633 -0.864949 214.266 -2.09405C214.561 -2.66932 214.84 -3.24853 215.073 -3.84467C215.431 -3.6742 215.796 -3.51153 216.131 -3.31711C216.894 -3.58049 217.312 -4.08685 217.797 -5.161C217.852 -5.28295 217.943 -5.49833 218.063 -5.77762C218.111 -5.97831 218.17 -6.28147 218.212 -6.41252C219.188 -9.45995 221.964 -17.6312 221.059 -21.8074C220.979 -21.8285 220.906 -21.8529 220.824 -21.8735C219.393 -22.2318 218.197 -22.4338 215.569 -22.8061C211.743 -23.3479 208.059 -23.3925 203.407 -23.0432C195.866 -22.4772 192.084 -21.2728 187.717 -17.5816C187.893 -13.486 192.004 -6.29988 193.421 -3.49065C193.698 -3.09148 194.05 -2.57874 194.194 -2.38683C194.607 -1.83852 194.954 -1.52285 195.365 -1.38082C195.597 -1.58285 195.826 -1.7631 196.058 -1.95066C196.244 -1.28897 196.472 -0.637339 196.737 -0.0042614C197.334 1.42203 198.075 2.78846 198.902 4.09382C199.725 5.39371 200.643 6.63912 201.667 7.78886C202.759 9.01525 203.981 10.183 205.511 10.8288C206.911 11.4192 208.536 11.8451 210.097 11.7537ZM210.313 10.7725C208.719 10.9345 206.992 10.4304 205.586 9.80079C204.986 9.53236 204.446 9.1174 203.951 8.69139C203.396 8.21297 202.884 7.68996 202.398 7.14176C201.411 6.03056 200.53 4.81987 199.736 3.56467C198.904 2.25021 198.155 0.874416 197.57 -0.568267C197.301 -1.22913 197.073 -1.90839 196.905 -2.60222C198.048 -3.43544 199.205 -4.10005 200.429 -4.56282C204.583 -6.13423 209.993 -5.95563 214.219 -4.24073C213.922 -3.47793 213.54 -2.74189 213.168 -2.00842C212.471 -0.63253 211.831 0.816257 211.887 2.39341C211.943 3.98232 212.952 5.30229 213.485 6.74762C213.763 7.49874 213.906 8.33866 213.457 9.05449C213.316 9.27938 213.136 9.46897 212.94 9.64609C212.176 10.3366 211.269 10.6751 210.313 10.7725Z" fill="#F4F4F4"/>
<path d="M269.8 44.061L276.499 33.344C276.205 33.2556 275.915 33.1455 275.642 32.9754L271.747 30.541C271.474 30.3709 271.245 30.1529 271.037 29.9277L264.338 40.6448L269.8 44.061ZM278.636 32.3376C279.169 32.1009 279.641 31.7067 279.974 31.1746L282.075 27.8078C282.962 26.3891 282.531 24.5205 281.113 23.6338L277.743 21.527C276.325 20.6403 274.459 21.0761 273.572 22.4947L271.468 25.8564C270.581 27.2751 271.012 29.1437 272.43 30.0304L275.8 32.1372C276.686 32.6917 277.747 32.7322 278.636 32.3376ZM282.503 23.7309L289.748 12.1369L284.289 8.72612L277.044 20.3203C277.338 20.4083 277.626 20.5262 277.898 20.6963L281.794 23.1309C282.066 23.301 282.296 23.5058 282.503 23.7309Z" fill="#F4F4F4"/>
<path d="M275.432 4.88614L276.056 2.19556L272.46 0.566792L270.769 2.48891L272.724 5.983L275.432 4.88614ZM274.552 0.671832C276.5 -3.29169 275.577 -8.12028 272.213 -11.0793C268.123 -14.6761 261.892 -14.277 258.295 -10.1877C254.698 -6.09847 255.098 0.132775 259.187 3.72965C262.517 6.65872 267.359 6.98559 271.033 4.61966L270.329 3.52704C267.141 5.57976 262.937 5.29304 260.047 2.75116C256.499 -0.370381 256.152 -5.77816 259.274 -9.32698C262.395 -12.8758 267.803 -13.2222 271.352 -10.1007C274.271 -7.53285 275.072 -3.33901 273.382 0.099614L274.552 0.671832Z" fill="#F4F4F4"/>
<path d="M365.408 43.5553C366.29 43.7003 367.429 39.6454 367.631 38.9763C368.89 34.8132 369.502 30.1726 371.3 26.2158C370.779 25.7139 370.48 25.446 370.132 25.1941C369.505 24.7398 368.819 24.3118 368.094 23.8731C368.059 24.0184 368 24.3003 367.969 24.3882C367.102 26.8187 365.548 31.169 362.938 32.2454C360.689 30.6611 358.411 29.1162 356.644 26.9694C354.799 24.7284 353.457 21.8249 352.201 19.2082C351.713 18.1919 351.376 16.9473 350.6 16.0987C350.181 15.6398 349.614 15.2444 349.007 14.8755C345.529 13.6568 342.142 12.7472 338.723 12.1618C338.154 12.0642 337.708 11.9649 336.708 11.729C336.614 11.7066 336.568 11.6952 336.516 11.6829C335.604 11.468 334.935 11.3362 334.354 11.2542C334.357 11.3891 334.366 11.6527 334.363 11.7067C334.212 14.5304 335.911 18.0565 337.655 20.2201C343.913 27.9858 351.771 33.2023 360.08 38.5413C361.485 39.4442 362.901 40.4756 364.033 41.7115C364.248 41.9468 365.17 43.5166 365.408 43.5553Z" fill="#F4F4F4"/>
<path d="M332.295 66.0871C335.257 65.5853 338.226 64.2665 340.484 62.3224C342.709 60.4067 344.181 56.9824 344.583 54.1184C344.697 53.3068 344.75 52.2862 344.918 51.3145C344.898 51.316 344.879 51.3154 344.861 51.3168C345.03 50.7208 345.196 50.0658 345.005 49.696C344.917 49.528 344.367 49.5298 344.213 49.4893C343.544 49.3152 342.843 48.8934 342.225 48.5672C342.199 48.5533 342.182 48.5272 342.156 48.5127C344.269 48.8333 347.337 48.3697 349.377 47.482C350.335 46.9954 351.262 46.466 352.18 45.9343C354.168 44.7016 357.059 42.4787 354.658 41.7718C353.667 41.4802 352.1 42.5714 351.154 42.7845C348.79 43.3166 345.668 42.8754 343.404 42.1071C340.843 41.237 337.773 36.6145 335.58 36.7692C334.12 36.8722 333.729 38.2921 332.904 39.3152C331.905 40.5518 330.956 41.486 329.81 42.1938C329.698 42.3503 329.556 42.4916 329.378 42.5934C329.357 42.6053 329.361 42.6119 329.34 42.6237C328.368 43.1758 324.381 45.2479 323.495 45.7387C319.052 48.1984 316.304 50.5035 314.974 53.2917C315.231 54.3962 315.872 55.465 316.204 56.5193C317.052 59.2089 318.485 61.8919 320.556 63.8717C321.116 64.2312 321.854 64.7537 322.371 65.0207C323.485 65.597 324.757 65.8293 326.929 65.953C327.15 65.9651 328.653 66.0445 329.008 66.0686C330.171 66.1481 331.237 66.1264 332.295 66.0871Z" fill="#F4F4F4"/>
<path d="M322.145 36.9651C322.944 36.6847 323.366 35.807 323.085 35.0075C322.805 34.208 321.927 33.7859 321.127 34.0666C320.328 34.3469 319.912 35.2228 320.192 36.0223C320.473 36.8216 321.345 37.2454 322.145 36.9651ZM299.795 44.8046C300.595 44.5242 301.016 43.6465 300.736 42.847C300.456 42.0475 299.578 41.6254 298.778 41.9061C297.979 42.1865 297.562 43.0624 297.843 43.8619C298.124 44.6611 298.996 45.0849 299.795 44.8046ZM319.348 35.3565C320.148 35.0762 320.564 34.2003 320.284 33.4008C320.003 32.6013 319.131 32.1774 318.332 32.4578C317.532 32.7381 317.11 33.6161 317.39 34.4156C317.671 35.2148 318.549 35.6369 319.348 35.3565ZM300.979 41.7998C301.778 41.5195 302.201 40.6415 301.92 39.842C301.639 39.0428 300.762 38.6207 299.963 38.9011C299.163 39.1817 298.741 40.0595 299.021 40.859C299.302 41.6585 300.18 42.0802 300.979 41.7998ZM315.975 34.1414C316.774 33.8611 317.198 32.9887 316.918 32.1892C316.638 31.3897 315.759 30.9679 314.96 31.2483C314.161 31.5286 313.739 32.4066 314.019 33.2059C314.3 34.0054 315.176 34.4218 315.975 34.1414ZM302.854 38.7437C303.654 38.4633 304.072 37.5928 303.791 36.7936C303.511 35.9941 302.639 35.5702 301.839 35.8506C301.04 36.1309 300.618 37.009 300.898 37.8085C301.179 38.6077 302.054 39.0244 302.854 38.7437ZM312.311 34.0828C313.11 33.8024 313.527 32.9262 313.246 32.127C312.966 31.3275 312.093 30.9036 311.294 31.184C310.495 31.4644 310.072 32.3424 310.353 33.1419C310.634 33.9411 311.511 34.3631 312.311 34.0828ZM305.679 36.4088C306.478 36.1284 306.9 35.2507 306.62 34.4512C306.34 33.6517 305.461 33.2299 304.662 33.5103C303.863 33.7907 303.446 34.6666 303.727 35.4661C304.007 36.2656 304.879 36.6894 305.679 36.4088ZM309.024 35.1001C309.823 34.8194 310.24 33.9435 309.959 33.1443C309.679 32.3448 308.806 31.921 308.007 32.2013C307.208 32.4817 306.786 33.3597 307.066 34.1589C307.347 34.9584 308.224 35.3805 309.024 35.1001Z" fill="#F4F4F4"/>
<path d="M318.097 22.7537C319.033 22.6987 319.946 22.4582 320.772 21.9573C321.059 21.7833 321.331 21.5793 321.58 21.3539C321.84 21.1171 322.077 20.8568 322.263 20.5573C322.955 19.4475 322.713 18.2295 322.239 17.0879C321.971 16.4443 321.638 15.8295 321.346 15.1972C321.139 14.7495 320.947 14.2783 320.863 13.7904C320.809 13.471 320.812 13.1412 320.836 12.8188C320.939 11.4133 321.633 10.1351 322.266 8.90595C322.561 8.33068 322.84 7.75147 323.073 7.15533C323.431 7.3258 323.796 7.48847 324.131 7.68289C324.894 7.41951 325.312 6.91315 325.797 5.839C325.852 5.71705 325.943 5.50167 326.063 5.22238C326.111 5.02169 326.17 4.71853 326.212 4.58748C327.188 1.54005 329.964 -6.63119 329.059 -10.8074C328.979 -10.8285 328.906 -10.8529 328.824 -10.8735C327.393 -11.2318 326.197 -11.4338 323.569 -11.8061C319.743 -12.3479 316.059 -12.3925 311.407 -12.0432C303.866 -11.4772 300.084 -10.2728 295.717 -6.58165C295.893 -2.48604 300.004 4.70012 301.421 7.50935C301.698 7.90852 302.05 8.42126 302.194 8.61317C302.607 9.16148 302.954 9.47715 303.365 9.61918C303.597 9.41715 303.826 9.2369 304.058 9.04934C304.244 9.71103 304.472 10.3627 304.737 10.9957C305.334 12.422 306.075 13.7885 306.902 15.0938C307.725 16.3937 308.643 17.6391 309.667 18.7889C310.759 20.0152 311.981 21.183 313.511 21.8288C314.911 22.4192 316.536 22.8451 318.097 22.7537ZM318.313 21.7725C316.719 21.9345 314.992 21.4304 313.586 20.8008C312.986 20.5324 312.446 20.1174 311.951 19.6914C311.396 19.213 310.884 18.69 310.398 18.1418C309.411 17.0306 308.53 15.8199 307.736 14.5647C306.904 13.2502 306.155 11.8744 305.57 10.4317C305.301 9.77087 305.073 9.09161 304.905 8.39778C306.048 7.56456 307.205 6.89995 308.429 6.43718C312.583 4.86577 317.993 5.04437 322.219 6.75927C321.922 7.52207 321.54 8.25811 321.168 8.99158C320.471 10.3675 319.831 11.8163 319.887 13.3934C319.943 14.9823 320.952 16.3023 321.485 17.7476C321.763 18.4987 321.906 19.3387 321.457 20.0545C321.316 20.2794 321.136 20.469 320.94 20.6461C320.176 21.3366 319.269 21.6751 318.313 21.7725Z" fill="#F4F4F4"/>
<path d="M354.968 5.46436C356.158 5.72119 357.328 4.96097 357.585 3.77128L362.655 -19.7125C362.912 -20.9022 362.16 -22.0775 360.97 -22.3344L349.647 -24.779C348.457 -25.0359 347.287 -24.2757 347.03 -23.0859L341.96 0.397807C341.703 1.58752 342.455 2.76281 343.645 3.01967L354.968 5.46436ZM355.291 4.79501C354.606 4.64707 354.168 3.97623 354.315 3.29116C354.463 2.60607 355.141 2.16925 355.826 2.31716C356.511 2.46508 356.941 3.14105 356.793 3.82614C356.645 4.51117 355.976 4.94287 355.291 4.79501ZM352.58 2.26636C351.895 2.1185 351.464 1.4425 351.612 0.757437C351.76 0.0723746 352.431 -0.365858 353.116 -0.217944C353.801 -0.0700847 354.238 0.607318 354.09 1.29235C353.942 1.97745 353.265 2.41427 352.58 2.26636ZM356.163 0.75463C355.478 0.606715 355.041 -0.0706933 355.189 -0.755755C355.337 -1.44079 356.013 -1.87105 356.698 -1.72322C357.383 -1.57528 357.815 -0.90579 357.667 -0.220781C357.519 0.46431 356.848 0.902489 356.163 0.75463Z" fill="#F4F4F4"/>
<path d="M383.432 15.8861L384.056 13.1956L380.46 11.5668L378.769 13.4889L380.724 16.983L383.432 15.8861ZM382.552 11.6718C384.5 7.70831 383.577 2.87972 380.213 -0.0792617C376.123 -3.67609 369.892 -3.27696 366.295 0.812299C362.698 4.90153 363.098 11.1328 367.187 14.7297C370.517 17.6587 375.359 17.9856 379.033 15.6197L378.329 14.527C375.141 16.5798 370.937 16.293 368.047 13.7512C364.499 10.6296 364.152 5.22184 367.274 1.67302C370.395 -1.87577 375.803 -2.22222 379.352 0.899288C382.271 3.46715 383.072 7.66099 381.382 11.0996L382.552 11.6718Z" fill="#F4F4F4"/>
<path d="M76.4368 185.224C78.6149 192.077 76.1498 228.233 69.4552 232.908C67.7342 234.11 66.857 232.921 65.5535 232.019C62.1579 229.673 46.7491 221.204 45.3539 217.951C44.3471 215.604 49.453 204.573 49.8596 201.489C50.1662 199.163 54.7419 170.028 56.3761 169.853C61.6766 169.284 75.3536 181.814 76.4368 185.224Z" fill="black"/>
<path d="M-78.0969 0.943167C-79.7372 0.889877 -81.1063 2.19262 -81.1595 3.83298C-81.5749 16.6291 -80.9909 29.3957 -79.1171 42.0683C-73.4264 80.5568 -57.0977 116.97 -34.283 148.317C-4.38119 189.402 36.8117 222.789 83.2922 243.355C91.7056 247.077 100.303 250.318 109.037 253.199C110.595 253.714 112.287 252.865 112.801 251.306C113.315 249.748 112.467 248.057 110.908 247.542C102.358 244.721 93.9391 241.555 85.7028 237.911C40.1758 217.767 -0.197795 185.059 -29.4858 144.817C-51.7368 114.243 -67.6805 78.727 -73.2311 41.1859C-75.0529 28.8646 -75.6362 16.4681 -75.2323 4.02678C-75.179 2.3865 -76.4565 0.996457 -78.0969 0.943167Z" fill="black"/>
<path d="M-39.5127 -16.8506C-41.1536 -16.8817 -42.5002 -15.5743 -42.5313 -13.9334C-42.8104 0.827888 -41.676 15.5581 -38.9906 30.0812C-31.3988 71.1373 -12.0379 109.98 16.4381 140.542C23.433 148.05 30.9858 155.04 38.9999 161.449C43.5916 165.119 48.3541 168.531 53.1459 171.931C57.9167 175.317 62.7362 178.668 67.593 181.929C87.3776 195.21 108.123 207.462 130.965 214.667C132.531 215.162 134.194 214.289 134.687 212.724C135.18 211.159 134.309 209.496 132.743 209.002C109.854 201.782 89.0019 189.342 69.2646 175.904C64.4875 172.652 59.7554 169.341 55.0427 165.997C50.8581 163.028 46.6975 160.026 42.6889 156.821C34.9 150.593 27.5939 143.785 20.7966 136.489C-6.91192 106.75 -25.7699 68.9566 -33.1569 29.0075C-35.7697 14.8775 -36.8693 0.552698 -36.5977 -13.809C-36.5666 -15.4499 -37.8718 -16.8196 -39.5127 -16.8506Z" fill="black"/>
<path d="M111.489 244.775C111.108 244.711 110.716 244.735 110.317 244.831C108.722 245.213 107.742 246.81 108.124 248.406C109.026 252.159 110.335 255.781 112.294 259.117C113.5 261.167 114.94 263.074 116.551 264.822C127.689 276.911 145.881 279.108 161.374 277.116C164.014 276.777 166.648 276.306 169.244 275.716C172.582 274.958 175.843 273.964 179.068 272.817C180.614 272.267 181.412 270.564 180.862 269.018C180.312 267.472 178.609 266.674 177.063 267.224C173.8 268.385 170.511 269.355 167.125 270.09C164.435 270.674 161.72 271.13 158.983 271.418C145.708 272.82 129.743 270.919 120.443 260.261C119.314 258.967 118.291 257.57 117.421 256.09C115.759 253.261 114.656 250.206 113.894 247.024C113.606 245.827 112.631 244.964 111.489 244.775ZM184.51 251.355C182.891 251.086 181.361 252.173 181.092 253.792C180.824 255.411 181.911 256.94 183.529 257.21C186.374 257.682 189.202 258.284 191.921 259.261C193.271 259.746 194.586 260.319 195.812 261.064C196.663 261.581 197.486 262.195 198.159 262.934C198.54 263.352 198.883 263.796 199.129 264.306C200.675 267.503 197.837 271.182 195.692 273.316C195.202 273.802 194.693 274.271 194.165 274.714C192.833 275.832 191.406 276.83 189.904 277.704C188.554 278.489 187.148 279.174 185.704 279.767C184.746 280.161 183.757 280.502 182.766 280.803C177.649 282.357 170.593 283.01 166.755 278.449C165.915 277.451 165.368 276.313 164.893 275.107C164.289 273.582 162.561 272.843 161.035 273.448C159.509 274.053 158.748 275.778 159.353 277.304C160.069 279.104 160.954 280.785 162.207 282.275C168.352 289.576 179.041 288.709 187.104 285.607C188.533 285.057 189.932 284.416 191.288 283.706C192.889 282.869 194.438 281.941 195.906 280.889C197.769 279.554 199.51 278.038 201.034 276.323C204.781 272.108 207.174 266.292 204.096 260.984C203.515 259.982 202.753 259.093 201.919 258.29C200.24 256.674 198.206 255.454 196.086 254.515C192.408 252.883 188.464 252.012 184.51 251.355ZM199.37 238.542C197.696 238.323 196.049 238.33 194.367 238.434C192.729 238.536 191.482 239.944 191.584 241.582C191.686 243.22 193.095 244.468 194.733 244.365C200.999 243.966 207.407 246.599 211.503 251.405C212.343 252.391 213.07 253.471 213.606 254.652C213.92 255.344 214.163 256.087 214.292 256.836C214.914 260.474 212.395 262.934 209.371 264.475C207.379 265.491 205.239 266.1 203.068 266.601C201.469 266.971 200.459 268.574 200.829 270.173C201.199 271.772 202.803 272.759 204.402 272.389C207.723 271.621 211.015 270.57 213.902 268.714C215.162 267.904 216.328 266.939 217.315 265.81C218.093 264.92 218.766 263.936 219.264 262.864C221.729 257.56 219.634 251.784 216.029 247.554C211.878 242.684 205.707 239.373 199.37 238.542ZM207.031 220.337C204.665 220.267 202.275 220.599 199.938 221.413C198.389 221.953 197.582 223.637 198.124 225.186C198.664 226.735 200.345 227.565 201.895 227.024C208.502 224.71 215.794 227.94 220.156 233.058C221.252 234.345 222.198 235.782 222.864 237.34C223.274 238.298 223.553 239.285 223.734 240.31C224.48 244.543 222.149 247.854 218.818 250.188C217.475 251.13 217.145 252.997 218.087 254.34C219.03 255.684 220.873 256.011 222.217 255.069C224.048 253.783 225.72 252.281 227.023 250.451C231.598 244.025 230.032 236.064 225.394 230.088C220.984 224.406 214.127 220.549 207.031 220.337ZM206.874 203.491C196.831 202.138 186.11 203.651 176.19 204.29C174.552 204.396 173.298 205.824 173.404 207.462C173.51 209.1 174.94 210.33 176.578 210.225C184.027 209.744 191.489 208.84 198.962 208.92C205.589 208.991 212.349 209.936 218.195 213.248C219.232 213.835 220.214 214.481 221.164 215.199C221.922 215.772 222.652 216.388 223.351 217.032C224.094 217.718 224.817 218.446 225.482 219.209C226.01 219.812 226.258 220.125 226.738 220.77C228.056 222.538 229.841 225.667 228.353 227.819C227.813 228.6 227.031 229.119 226.231 229.605C224.829 230.46 224.396 232.287 225.25 233.689C226.105 235.09 227.93 235.547 229.332 234.692C230.641 233.89 231.85 232.979 232.816 231.772C233.411 231.028 233.909 230.203 234.254 229.315C236.368 223.883 232.714 218.183 229.12 214.366C228.551 213.762 228 213.209 227.39 212.646C226.291 211.631 225.117 210.692 223.895 209.831C218.667 206.152 212.9 204.302 206.874 203.491ZM189.19 174.895C186.716 174.792 184.096 175.423 181.937 176.189C180.984 176.526 180.046 176.929 179.126 177.353C177.554 178.077 175.999 178.901 174.58 179.896C172.978 181.021 171.465 182.286 169.915 183.479C167.317 185.479 164.699 187.465 162.072 189.427C152.159 196.832 141.939 204.008 130.633 209.135C129.139 209.813 128.477 211.562 129.155 213.056C129.832 214.551 131.581 215.213 133.076 214.535C149.397 207.133 163.464 195.806 177.63 185.025C178.846 184.1 180.21 183.369 181.593 182.731C183.53 181.838 185.587 181.136 187.709 180.867C188.669 180.746 190.633 180.655 190.849 181.972C191.001 182.898 190.612 183.91 190.246 184.737C189.414 186.618 188.205 188.329 186.969 189.962C184.31 193.474 181.262 196.679 178.335 199.964C176.662 201.842 174.865 203.749 173.746 206.025C173.028 207.501 173.631 209.278 175.107 209.997C176.582 210.714 178.36 210.111 179.078 208.635C179.549 207.652 180.284 206.795 180.979 205.965C182.057 204.676 183.205 203.44 184.332 202.193C187.254 198.958 190.202 195.7 192.737 192.146C194.304 189.949 195.782 187.544 196.478 184.912C196.818 183.627 196.954 182.266 196.725 180.948C196.543 179.899 196.132 178.914 195.522 178.04C193.985 175.833 191.665 174.999 189.19 174.895Z" fill="black"/>
<path d="M-36.9794 -27.4972C-37.226 -27.4876 -38.0694 -27.4702 -38.1325 -27.4676C-40.9931 -27.3478 -42.8028 -27.2273 -43.886 -27.0817C-44.0773 -27.0559 -44.2247 -27.0424 -44.3314 -27.021C-63.1531 -23.2491 -76.8755 -18.0348 -86.7615 -10.0358C-86.9101 -9.87963 -87.0989 -9.72983 -87.2439 -9.57252C-87.5362 -9.25534 -87.6958 -8.93869 -87.9737 -8.6244C-88.0082 -8.3287 -88.0587 -8.02048 -88.0842 -7.78866C-88.2025 -6.71198 -88.8218 -1.38843 -88.9288 -0.422423C-89.5105 4.83775 -89.8006 8.54111 -89.918 12.2088C-90.5804 32.9096 -89.039 58.2889 -85.7112 74.0722C-75.6026 122.02 -58.9041 161.078 -29.6638 208.191C-28.2315 210.498 -24.971 215.924 -22.8152 219.477C-13.5584 229.525 2.84856 247.416 17.7994 249.965C34.3155 243.738 46.9699 231.526 55.6437 214.356C62.0661 201.644 66.1092 186.525 67.673 170.627C67.6472 169.135 67.6058 167.096 67.5964 166.662C67.5691 165.39 67.3483 164.861 67.2358 163.956C64.3962 162.795 61.5626 161.584 58.9721 159.984C43.1925 150.239 28.3084 138.222 16.8463 123.47C1.41692 103.613 -16.7242 72.1779 -21.3283 47.1906C-24.8742 27.947 -22.0536 5.74542 -27.1562 -12.8594C-28.6461 -18.2921 -32.2746 -23.324 -36.9794 -27.4972Z" fill="#FF5900"/>
<path d="M94.6235 221.348C92.8481 231.035 83.2045 240.907 73.0527 245.524C73.7735 246.629 74.9277 247.677 75.677 248.268C78.4975 250.492 85.5092 253.995 89.2238 252.928C90.9539 252.431 92.4955 250.801 93.6649 249.512C98.6127 244.06 100.317 237.956 101.962 230.987C102.29 229.592 102.672 227.829 102.881 226.131C101.182 225.794 99.5289 225.014 96.9066 223.012C96.1202 222.411 95.871 222.216 95.4836 221.934C95.1625 221.701 94.8982 221.533 94.6235 221.348Z" fill="#FFCA00"/>
<path d="M111.266 183.389C110.639 183.248 109.919 183.349 109.243 183.305C105.034 183.997 101.007 184.847 97.1038 185.812C97.8885 186.602 98.6599 187.432 99.3164 188.62C100.206 189.925 101.118 191.155 102.484 190.974C105.453 190.58 109.928 190.87 112.244 192.647C112.653 192.961 112.928 193.473 113.247 193.89C114.084 191.644 114.815 189.395 115.418 187.186C115.258 186.208 114.925 185.304 114.157 184.703C113.338 184.061 112.359 183.634 111.266 183.389Z" fill="#FFCA00"/>
<path d="M90.7021 205.998C91.414 198.235 98.2856 192.518 106.049 193.23C113.814 193.942 119.53 200.813 118.818 208.577C118.106 216.341 111.235 222.058 103.471 221.346C95.7073 220.634 89.99 213.763 90.7021 205.998Z" fill="#FFCA00"/>
<path d="M195.177 178.884C197.569 175.246 202.053 172.118 206.68 172.288C213.792 172.548 220.361 176.354 216.488 184.176C213.584 190.044 209.875 195.476 206.602 201.141C206.018 202.151 204.596 205.304 203.547 205.842C203.308 205.964 199.904 205.608 199.803 205.602C197.2 205.431 194.517 205.533 191.949 206.012C188.102 206.729 184.311 207.634 180.446 208.243C179.447 208.4 177.997 209.142 177.805 207.179C177.628 205.373 182.225 200.053 183.323 198.648C186.611 194.44 189.705 189.027 191.952 184.187" fill="black"/>
<path d="M227.174 76.1368C195.999 73.2781 168.422 96.2227 165.563 127.397C162.704 158.572 185.649 186.149 216.823 189.008C247.998 191.867 275.609 168.925 278.468 137.751C281.327 106.576 258.348 78.9956 227.174 76.1368ZM225.755 91.6046C248.378 93.6792 265.041 113.706 262.967 136.329C260.892 158.952 240.864 175.615 218.242 173.541C195.619 171.466 178.956 151.438 181.03 128.816C183.105 106.193 203.132 89.5301 225.755 91.6046Z" fill="black"/>
<path d="M264.885 109.61C264.514 109.524 264.121 109.573 263.772 109.788C263.075 110.22 262.851 111.12 263.283 111.818C264.272 113.416 265.232 115.035 266.001 116.754C267.828 120.835 268.61 125.185 268.27 129.645C268.207 130.463 268.821 131.176 269.639 131.238C270.457 131.301 271.171 130.687 271.233 129.869C271.608 124.917 270.728 120.087 268.699 115.556C267.876 113.717 266.886 111.967 265.827 110.256C265.612 109.908 265.255 109.697 264.885 109.61Z" fill="white"/>
<path d="M269.469 136.142C268.672 135.946 267.886 136.441 267.69 137.238C267.602 137.594 267.516 137.953 267.428 138.31C267.233 139.106 267.702 139.914 268.499 140.11C269.296 140.306 270.105 139.813 270.301 139.016C270.389 138.659 270.475 138.301 270.562 137.944C270.759 137.148 270.266 136.338 269.469 136.142Z" fill="white"/>
<path d="M206.729 187.274C206.357 187.351 206.034 187.57 205.808 187.913C203.925 190.767 202.037 193.611 200.151 196.463C199.029 198.161 197.704 199.739 197.015 201.677C196.742 202.451 197.139 203.305 197.913 203.578C198.687 203.852 199.541 203.454 199.814 202.68C200.408 200.989 201.635 199.588 202.611 198.11C204.498 195.257 206.388 192.392 208.27 189.537C208.722 188.852 208.537 187.946 207.851 187.494C207.509 187.268 207.101 187.198 206.729 187.274Z" fill="white"/>
<path d="M213.113 198.747C212.68 198.72 212.227 198.776 211.791 198.929C210.05 199.543 209.154 201.455 209.768 203.197C211.797 208.913 209.83 215.217 206.19 219.841C205.049 221.293 205.31 223.392 206.763 224.533C208.214 225.673 210.314 225.412 211.454 223.961C216.543 217.475 218.847 208.928 216.057 200.976C215.596 199.67 214.414 198.827 213.113 198.747Z" fill="#FFCA00"/>
<path d="M-78.1758 -4.51733C-78.1758 -4.51733 -72.0162 89.5616 -44.1136 148.608C-16.2109 207.655 18.8594 223.216 18.8594 223.216" stroke="white" stroke-width="4" stroke-miterlimit="10" stroke-linejoin="round" stroke-dasharray="13 13"/>
<path d="M220.547 115.45C220.547 115.45 221.944 112.331 228.244 112.957C234.82 113.433 235.563 116.827 235.563 116.827L232.156 153.984C232.156 153.984 228.394 153.674 224.641 153.33C220.887 152.986 217.14 152.607 217.14 152.607L220.547 115.45Z" fill="black"/>
<path d="M228.293 133.649C227.476 133.567 226.761 134.153 226.679 134.97C226.662 135.139 226.627 135.307 226.61 135.476C226.528 136.293 227.135 137.033 227.952 137.114C228.768 137.196 229.485 136.587 229.567 135.77C229.584 135.601 229.62 135.433 229.637 135.264C229.718 134.447 229.11 133.73 228.293 133.649Z" fill="white"/>
<path d="M227.535 111.408C226.613 111.373 225.715 111.41 224.821 111.509C223.821 111.618 222.826 111.829 221.872 112.148C219.982 112.777 218.006 113.896 216.826 115.555C216.354 116.226 216.502 117.143 217.174 117.615C217.845 118.087 218.785 117.941 219.257 117.27C219.21 117.329 219.342 117.129 219.391 117.072C219.426 117.033 219.459 117.002 219.494 116.965C219.652 116.799 219.829 116.646 220.004 116.499C220.572 116.021 221.207 115.624 221.884 115.319C223.877 114.421 226.08 114.283 228.235 114.456C230.356 114.627 232.512 115.221 234.278 116.432C234.886 116.85 235.442 117.343 235.914 117.912C236.058 118.085 236.183 118.271 236.307 118.46C236.357 118.538 236.403 118.626 236.447 118.707C236.465 118.737 236.526 118.813 236.51 118.782C236.855 119.527 237.727 119.866 238.471 119.521C239.215 119.177 239.557 118.282 239.212 117.537C238.443 115.901 236.955 114.578 235.442 113.648C233.125 112.222 230.3 111.511 227.535 111.408Z" fill="black"/>
<path d="M216.388 151.091C215.571 151.017 214.847 151.618 214.773 152.435C214.698 153.252 215.3 153.976 216.116 154.05C221.663 154.559 227.217 155.069 232.762 155.577C233.58 155.651 234.303 155.05 234.378 154.233C234.453 153.416 233.851 152.692 233.034 152.617C227.488 152.109 221.934 151.599 216.388 151.091Z" fill="black"/>
<path d="M229.579 117.843C228.762 117.769 228.038 118.37 227.963 119.187C227.627 122.91 227.299 126.633 226.963 130.356C226.889 131.173 227.489 131.897 228.307 131.971C229.124 132.045 229.848 131.444 229.922 130.627C230.259 126.904 230.586 123.182 230.923 119.459C230.997 118.641 230.396 117.917 229.579 117.843Z" fill="white"/>
</g>
<defs>
<clipPath id="clip0_303_2813">
<rect width="363" height="349" fill="white"/>
</clipPath>
</defs>
</svg>
