<svg width="363" height="349" viewBox="0 0 363 349" fill="none" xmlns="http://www.w3.org/2000/svg">
<g clip-path="url(#clip0_341_4651)">
<path d="M63.7639 317.159C64.311 316.451 61.2845 313.522 60.7919 313.026C57.7274 309.94 53.9354 307.196 51.309 303.733C50.6196 303.953 50.2418 304.089 49.855 304.275C49.1573 304.61 48.4547 305.011 47.7241 305.44C47.8352 305.54 48.0553 305.726 48.1177 305.795C49.8438 307.713 52.9329 311.148 52.6392 313.956C50.1763 315.182 47.7344 316.452 45.0056 316.986C42.1569 317.544 38.9647 317.345 36.0654 317.206C34.9394 317.152 33.6843 316.857 32.5689 317.136C31.9657 317.287 31.3485 317.598 30.7354 317.957C28.0102 320.437 25.5997 322.985 23.4597 325.715C23.1032 326.169 22.8038 326.515 22.1213 327.281C22.0566 327.354 22.0249 327.389 21.9891 327.429C21.3667 328.129 20.933 328.655 20.5845 329.127C20.7047 329.189 20.9407 329.306 20.9869 329.334C23.3994 330.81 27.3094 330.991 30.0416 330.485C39.8487 328.67 48.1732 324.236 56.8202 319.463C58.2824 318.656 59.8628 317.9 61.488 317.492C61.7975 317.415 63.617 317.349 63.7639 317.159Z" fill="#1A1A1A"/>
<path d="M67.8485 357.002C68.8148 354.158 69.0656 350.919 68.4286 348.008C67.8008 345.139 65.4876 342.217 63.1591 340.502C62.4991 340.016 61.6264 339.484 60.8512 338.874C60.8433 338.892 60.8337 338.909 60.826 338.926C60.3821 338.494 59.8848 338.036 59.4684 338.029C59.2792 338.026 59.019 338.511 58.9102 338.627C58.4393 339.133 57.7348 339.549 57.1543 339.937C57.1296 339.954 57.0986 339.956 57.0736 339.972C58.36 338.266 59.4103 335.346 59.5988 333.13C59.6259 332.056 59.6009 330.988 59.5697 329.927C59.4301 327.592 58.8483 323.992 57.0849 325.769C56.3573 326.503 56.5726 328.4 56.3103 329.334C55.6552 331.666 53.7827 334.203 52.0311 335.829C50.048 337.669 44.522 338.173 43.6157 340.176C43.0125 341.509 44.0759 342.528 44.5835 343.741C45.1969 345.207 45.5675 346.487 45.6456 347.831C45.7299 348.005 45.7871 348.196 45.7917 348.402C45.7923 348.426 45.8002 348.425 45.8007 348.449C45.8242 349.567 45.7524 354.059 45.7629 355.072C45.8152 360.15 46.5369 363.664 48.3578 366.16C49.4519 366.458 50.6968 366.402 51.7823 366.611C54.5518 367.144 57.5936 367.158 60.3196 366.277C60.9021 365.955 61.7125 365.554 62.1932 365.226C63.2298 364.52 64.0386 363.512 65.1798 361.659C65.2955 361.471 66.08 360.186 66.2697 359.885C66.8927 358.899 67.3804 357.951 67.8485 357.002Z" fill="#1A1A1A"/>
<path d="M22.9745 348.897C23.3711 348.047 23.5934 347.129 23.5454 346.164C23.5287 345.829 23.4788 345.493 23.3984 345.167C23.314 344.825 23.1973 344.493 23.0226 344.187C22.3751 343.05 21.1881 342.685 19.9583 342.56C19.2648 342.489 18.5658 342.49 17.8705 342.446C17.3785 342.415 16.8727 342.36 16.4034 342.202C16.0966 342.098 15.8077 341.939 15.5356 341.765C14.348 341.006 13.5533 339.787 12.7725 338.647C12.407 338.113 12.0296 337.593 11.6162 337.104C11.9363 336.87 12.2531 336.626 12.5831 336.424C12.7142 335.627 12.4673 335.019 11.7526 334.082C11.6715 333.976 11.5255 333.793 11.3367 333.555C11.183 333.417 10.9442 333.221 10.8488 333.122C8.63142 330.815 2.76198 324.488 -1.34237 323.299C-1.39929 323.36 -1.45545 323.413 -1.51249 323.475C-2.50761 324.563 -3.25414 325.52 -4.83086 327.656C-7.12581 330.764 -8.91622 333.984 -10.8201 338.243C-13.9063 345.146 -14.6446 349.047 -13.4728 354.643C-9.78542 356.435 -1.50918 356.234 1.63619 356.322C2.11898 356.268 2.73714 356.203 2.97477 356.167C3.65352 356.064 4.09595 355.909 4.4164 355.615C4.34876 355.315 4.29928 355.027 4.24445 354.734C4.91487 354.885 5.59667 354.994 6.27953 355.062C7.81834 355.214 9.37242 355.213 10.914 355.105C12.4489 354.999 13.9812 354.783 15.4794 354.429C17.0773 354.051 18.6856 353.531 19.9812 352.491C21.166 351.54 22.3133 350.313 22.9745 348.897ZM22.2139 348.24C21.5989 349.719 20.3344 350.999 19.1123 351.937C18.591 352.337 17.9693 352.615 17.3591 352.848C16.6742 353.109 15.9706 353.311 15.2573 353.478C13.8105 353.819 12.327 354.017 10.8451 354.12C9.29323 354.227 7.72686 354.232 6.17934 354.061C5.47018 353.983 4.76393 353.861 4.07351 353.68C3.88387 352.278 3.84917 350.944 4.02372 349.647C4.61563 345.245 7.34406 340.571 10.8616 337.668C11.3917 338.291 11.8577 338.977 12.3264 339.653C13.2055 340.92 14.1758 342.172 15.5899 342.873C17.0147 343.578 18.6555 343.318 20.1805 343.536C20.9734 343.649 21.7806 343.922 22.1969 344.657C22.3275 344.889 22.4088 345.137 22.4716 345.393C22.7159 346.394 22.5829 347.352 22.2139 348.24Z" fill="#1A1A1A"/>
<path d="M25.2889 308.238C26.0804 307.314 25.9678 305.923 25.0431 305.131L6.79163 289.508C5.86702 288.717 4.47538 288.82 3.68391 289.745L-3.84919 298.545C-4.64067 299.47 -4.52801 300.861 -3.60336 301.652L14.6481 317.275C15.5728 318.067 16.9644 317.963 17.7558 317.039L25.2889 308.238ZM24.8533 307.636C24.3975 308.169 23.599 308.235 23.0666 307.78C22.5341 307.324 22.4718 306.52 22.9275 305.988C23.3833 305.456 24.1825 305.398 24.715 305.854C25.2474 306.31 25.309 307.104 24.8533 307.636ZM21.3399 308.82C20.8842 309.352 20.0849 309.41 19.5525 308.954C19.0201 308.498 18.9534 307.699 19.4091 307.167C19.8648 306.635 20.6685 306.572 21.2009 307.028C21.7333 307.484 21.7957 308.287 21.3399 308.82ZM21.7131 304.948C21.2574 305.481 20.4538 305.543 19.9213 305.087C19.3889 304.632 19.3317 303.833 19.7874 303.3C20.2431 302.768 21.0374 302.706 21.5698 303.162C22.1022 303.617 22.1688 304.416 21.7131 304.948Z" fill="#1A1A1A"/>
<path d="M79.7769 311.725L73.5321 300.737C73.3149 300.953 73.0799 301.157 72.8008 301.315L68.8073 303.586C68.5283 303.744 68.2272 303.843 67.9304 303.919L74.1752 314.907L79.7769 311.725ZM73.6624 298.379C73.7077 297.797 73.5853 297.194 73.2751 296.649L71.312 293.199C70.4853 291.745 68.6366 291.235 67.182 292.062L63.727 294.025C62.2725 294.852 61.7689 296.701 62.5957 298.155L64.5531 301.605C65.3799 303.059 67.2285 303.568 68.6831 302.741L72.1381 300.779C73.0474 300.262 73.5872 299.348 73.6624 298.379ZM67.9286 290.885L61.1715 279L55.5758 282.182L62.3331 294.067C62.5499 293.85 62.7905 293.653 63.0695 293.494L67.0633 291.224C67.3423 291.065 67.6318 290.961 67.9286 290.885Z" fill="#1A1A1A"/>
<path d="M47.9876 288.149L45.9166 286.322L42.7744 288.711L43.6619 291.112L47.6654 291.053L47.9876 288.149ZM43.8615 286.92C41.3002 283.322 36.6128 281.84 32.4105 283.393C27.3023 285.281 24.6916 290.953 26.5798 296.062C28.4679 301.17 34.14 303.781 39.2482 301.892C43.4081 300.355 45.9973 296.25 45.6622 291.893L44.3659 291.993C44.6567 295.774 42.4065 299.336 38.7965 300.67C34.3633 302.309 29.4408 300.043 27.8022 295.61C26.1636 291.177 28.4292 286.254 32.8624 284.616C36.5092 283.268 40.5797 284.556 42.8018 287.678L43.8615 286.92Z" fill="#1A1A1A"/>
<path d="M149.988 368.312C150.882 368.337 151.465 364.166 151.575 363.476C152.262 359.181 152.244 354.5 153.494 350.338C152.91 349.91 152.577 349.685 152.199 349.482C151.517 349.116 150.779 348.785 150.002 348.447C149.987 348.596 149.966 348.883 149.947 348.975C149.415 351.5 148.461 356.02 146.019 357.437C143.577 356.17 141.112 354.946 139.072 353.056C136.942 351.084 135.222 348.387 133.625 345.963C133.005 345.022 132.504 343.834 131.621 343.098C131.144 342.699 130.529 342.384 129.878 342.1C126.268 341.36 122.789 340.914 119.322 340.794C118.745 340.774 118.289 340.736 117.268 340.636C117.171 340.627 117.124 340.622 117.07 340.617C116.138 340.527 115.458 340.486 114.871 340.483C114.892 340.616 114.936 340.876 114.941 340.93C115.171 343.748 117.329 347.014 119.348 348.923C126.594 355.776 135.082 359.888 144.034 364.061C145.548 364.766 147.09 365.598 148.377 366.67C148.623 366.874 149.748 368.306 149.988 368.312Z" fill="#1A1A1A"/>
<path d="M100.308 354.065C101.229 353.885 102.101 353.524 102.852 352.916C103.113 352.705 103.356 352.466 103.571 352.209C103.798 351.94 103.997 351.65 104.142 351.328C104.678 350.135 104.274 348.961 103.65 347.894C103.298 347.292 102.886 346.727 102.511 346.14C102.247 345.724 101.993 345.283 101.844 344.811C101.747 344.502 101.705 344.175 101.686 343.852C101.599 342.445 102.115 341.085 102.576 339.782C102.792 339.173 102.99 338.561 103.141 337.939C103.518 338.06 103.902 338.172 104.26 338.319C104.981 337.956 105.327 337.398 105.663 336.268C105.701 336.14 105.763 335.914 105.844 335.621C105.864 335.416 105.882 335.108 105.906 334.972C106.462 331.821 108.114 323.351 106.656 319.334C106.573 319.324 106.498 319.31 106.414 319.3C104.948 319.138 103.735 319.099 101.081 319.083C97.2173 319.061 93.5607 319.513 88.9978 320.485C81.602 322.06 78.0158 323.762 74.1849 328.008C74.9112 332.042 79.951 338.61 81.7336 341.203C82.0617 341.561 82.4789 342.022 82.6481 342.193C83.1312 342.68 83.517 342.947 83.9437 343.032C84.146 342.801 84.3492 342.591 84.5537 342.374C84.8267 343.005 85.1406 343.62 85.4881 344.211C86.272 345.544 87.1894 346.799 88.1844 347.981C89.1751 349.158 90.2527 350.269 91.4219 351.27C92.6687 352.339 94.0367 353.332 95.6403 353.765C97.1068 354.162 98.7747 354.366 100.308 354.065ZM100.391 353.064C98.8332 353.439 97.0537 353.172 95.5761 352.737C94.9455 352.552 94.3547 352.213 93.8067 351.857C93.1919 351.458 92.6141 351.009 92.0588 350.531C90.9312 349.563 89.8962 348.481 88.9403 347.344C87.9391 346.154 87.012 344.891 86.2379 343.541C85.8827 342.922 85.5648 342.279 85.3048 341.615C86.3256 340.635 87.3828 339.821 88.5333 339.198C92.4381 337.082 97.8226 336.531 102.241 337.662C102.05 338.457 101.77 339.238 101.501 340.015C100.995 341.472 100.555 342.994 100.823 344.549C101.092 346.116 102.269 347.288 102.992 348.649C103.369 349.356 103.624 350.169 103.275 350.938C103.165 351.18 103.012 351.392 102.842 351.594C102.178 352.381 101.325 352.839 100.391 353.064Z" fill="#1A1A1A"/>
<path d="M134.519 331.972C135.732 332.067 136.79 331.156 136.884 329.942L138.749 305.99C138.843 304.777 137.939 303.713 136.726 303.619L125.177 302.72C123.963 302.625 122.906 303.536 122.811 304.749L120.947 328.702C120.852 329.915 121.756 330.979 122.969 331.073L134.519 331.972ZM134.748 331.266C134.05 331.211 133.525 330.605 133.579 329.907C133.634 329.208 134.246 328.684 134.945 328.738C135.644 328.793 136.161 329.405 136.107 330.103C136.052 330.802 135.447 331.32 134.748 331.266ZM131.722 329.125C131.023 329.07 130.506 328.458 130.56 327.76C130.614 327.061 131.22 326.536 131.919 326.591C132.618 326.645 133.142 327.258 133.087 327.956C133.033 328.655 132.42 329.179 131.722 329.125ZM135.069 327.145C134.37 327.09 133.846 326.478 133.901 325.779C133.955 325.08 134.567 324.563 135.266 324.617C135.965 324.672 136.482 325.277 136.428 325.976C136.374 326.674 135.768 327.199 135.069 327.145Z" fill="#1A1A1A"/>
<path d="M163.815 378.046L169.012 366.525C168.709 366.477 168.406 366.407 168.114 366.275L163.926 364.387C163.633 364.255 163.376 364.07 163.14 363.875L157.944 375.396L163.815 378.046ZM170.994 365.241C171.491 364.934 171.905 364.48 172.163 363.908L173.793 360.289C174.481 358.764 173.803 356.97 172.277 356.283L168.655 354.648C167.13 353.96 165.34 354.643 164.652 356.168L163.019 359.783C162.331 361.308 163.009 363.101 164.535 363.789L168.157 365.424C169.11 365.854 170.166 365.751 170.994 365.241ZM173.669 356.192L179.288 343.728L173.419 341.083L167.8 353.547C168.103 353.594 168.404 353.672 168.697 353.804L172.885 355.693C173.177 355.825 173.432 355.997 173.669 356.192Z" fill="#1A1A1A"/>
<path d="M164.126 338.47L164.382 335.72L160.599 334.589L159.183 336.722L161.59 339.921L164.126 338.47ZM162.687 334.412C164.084 330.222 162.519 325.562 158.788 323.083C154.252 320.069 148.131 321.303 145.117 325.839C142.103 330.374 143.337 336.495 147.873 339.509C151.566 341.964 156.409 341.636 159.731 338.797L158.886 337.81C156.003 340.273 151.799 340.554 148.594 338.424C144.657 335.808 143.586 330.496 146.202 326.56C148.818 322.623 154.13 321.552 158.066 324.168C161.305 326.32 162.663 330.368 161.451 334.002L162.687 334.412Z" fill="#1A1A1A"/>
<path d="M253.988 350.312C254.882 350.337 255.465 346.166 255.575 345.476C256.262 341.181 256.244 336.5 257.494 332.338C256.91 331.91 256.577 331.685 256.199 331.482C255.517 331.116 254.779 330.785 254.002 330.447C253.987 330.596 253.966 330.883 253.947 330.975C253.415 333.5 252.461 338.02 250.019 339.437C247.577 338.17 245.112 336.946 243.072 335.056C240.942 333.084 239.222 330.387 237.625 327.963C237.005 327.022 236.504 325.834 235.621 325.098C235.143 324.699 234.529 324.384 233.878 324.1C230.268 323.36 226.789 322.914 223.322 322.794C222.745 322.774 222.289 322.736 221.268 322.636C221.171 322.627 221.124 322.622 221.07 322.617C220.138 322.527 219.458 322.486 218.871 322.483C218.892 322.616 218.936 322.876 218.94 322.93C219.171 325.748 221.329 329.014 223.347 330.923C230.594 337.776 239.082 341.888 248.034 346.061C249.548 346.766 251.09 347.598 252.377 348.67C252.622 348.874 253.748 350.306 253.988 350.312Z" fill="#1A1A1A"/>
<path d="M224.208 377.094C227.075 376.198 229.839 374.492 231.816 372.262C233.763 370.064 234.76 366.473 234.774 363.581C234.777 362.762 234.693 361.743 234.728 360.758C234.709 360.762 234.69 360.764 234.672 360.768C234.759 360.154 234.836 359.483 234.596 359.142C234.487 358.987 233.942 359.063 233.784 359.044C233.098 358.961 232.346 358.638 231.691 358.398C231.663 358.387 231.642 358.364 231.615 358.353C233.752 358.386 236.729 357.514 238.631 356.36C239.515 355.749 240.362 355.1 241.201 354.449C243.005 352.96 245.57 350.369 243.095 349.991C242.074 349.836 240.669 351.128 239.76 351.466C237.489 352.311 234.336 352.294 231.99 351.838C229.334 351.32 225.671 347.153 223.519 347.601C222.086 347.899 221.889 349.359 221.209 350.484C220.386 351.844 219.571 352.897 218.53 353.752C218.44 353.923 218.319 354.082 218.156 354.207C218.137 354.221 218.142 354.227 218.123 354.242C217.234 354.92 213.562 357.509 212.75 358.115C208.678 361.15 206.265 363.804 205.322 366.746C205.726 367.805 206.504 368.778 206.976 369.778C208.178 372.329 209.959 374.795 212.277 376.478C212.881 376.759 213.682 377.178 214.23 377.373C215.412 377.794 216.703 377.853 218.872 377.683C219.093 377.666 220.593 377.542 220.948 377.518C222.111 377.44 223.165 377.275 224.208 377.094Z" fill="#1A1A1A"/>
<path d="M210.232 349.603C210.986 349.217 211.286 348.291 210.9 347.536C210.515 346.782 209.589 346.482 208.834 346.867C208.08 347.253 207.785 348.177 208.17 348.931C208.556 349.685 209.477 349.988 210.232 349.603ZM189.14 360.378C189.895 359.992 190.194 359.066 189.809 358.311C189.424 357.557 188.497 357.257 187.742 357.643C186.988 358.028 186.693 358.952 187.079 359.706C187.465 360.46 188.386 360.763 189.14 360.378ZM207.244 348.385C207.999 348 208.293 347.076 207.908 346.321C207.523 345.567 206.601 345.264 205.847 345.649C205.093 346.035 204.792 346.961 205.178 347.716C205.564 348.47 206.49 348.77 207.244 348.385ZM189.909 357.241C190.664 356.856 190.964 355.929 190.578 355.174C190.193 354.42 189.266 354.12 188.512 354.505C187.757 354.891 187.457 355.818 187.843 356.572C188.228 357.327 189.155 357.626 189.909 357.241ZM203.738 347.635C204.493 347.249 204.795 346.328 204.41 345.573C204.025 344.819 203.098 344.519 202.343 344.904C201.589 345.29 201.289 346.217 201.675 346.971C202.06 347.725 202.984 348.02 203.738 347.635ZM191.356 353.96C192.111 353.575 192.408 352.656 192.022 351.902C191.637 351.147 190.716 350.845 189.961 351.23C189.207 351.615 188.907 352.542 189.292 353.297C189.678 354.051 190.601 354.346 191.356 353.96ZM200.099 348.07C200.854 347.684 201.149 346.76 200.763 346.006C200.378 345.251 199.456 344.949 198.702 345.334C197.948 345.719 197.647 346.646 198.033 347.401C198.419 348.155 199.345 348.455 200.099 348.07ZM193.841 351.267C194.596 350.881 194.895 349.955 194.51 349.2C194.125 348.446 193.198 348.146 192.443 348.531C191.689 348.917 191.394 349.841 191.78 350.595C192.165 351.35 193.086 351.652 193.841 351.267ZM196.979 349.52C197.734 349.134 198.029 348.21 197.643 347.456C197.258 346.702 196.336 346.399 195.582 346.784C194.828 347.17 194.527 348.096 194.913 348.851C195.298 349.605 196.225 349.905 196.979 349.52Z" fill="#1A1A1A"/>
<path d="M204.308 336.065C205.229 335.885 206.101 335.524 206.852 334.916C207.113 334.705 207.356 334.466 207.571 334.209C207.798 333.94 207.997 333.65 208.142 333.328C208.678 332.135 208.274 330.961 207.65 329.894C207.298 329.292 206.886 328.727 206.511 328.14C206.246 327.724 205.993 327.283 205.844 326.811C205.747 326.502 205.705 326.175 205.686 325.852C205.599 324.445 206.115 323.085 206.576 321.782C206.792 321.173 206.99 320.561 207.141 319.939C207.518 320.06 207.902 320.172 208.26 320.319C208.981 319.956 209.327 319.398 209.662 318.268C209.701 318.14 209.762 317.914 209.843 317.621C209.864 317.416 209.882 317.108 209.905 316.972C210.462 313.821 212.114 305.351 210.656 301.334C210.573 301.324 210.498 301.31 210.414 301.3C208.948 301.138 207.735 301.099 205.081 301.083C201.217 301.061 197.561 301.513 192.998 302.485C185.602 304.06 182.016 305.762 178.185 310.008C178.911 314.042 183.951 320.61 185.733 323.203C186.062 323.561 186.479 324.022 186.648 324.193C187.131 324.68 187.517 324.947 187.944 325.032C188.146 324.801 188.349 324.591 188.554 324.374C188.827 325.005 189.14 325.62 189.488 326.211C190.272 327.544 191.189 328.799 192.184 329.981C193.175 331.158 194.253 332.269 195.422 333.27C196.669 334.339 198.037 335.332 199.64 335.765C201.107 336.162 202.775 336.366 204.308 336.065ZM204.39 335.064C202.833 335.439 201.054 335.172 199.576 334.737C198.945 334.552 198.355 334.213 197.807 333.857C197.192 333.458 196.614 333.009 196.059 332.531C194.931 331.563 193.896 330.481 192.94 329.344C191.939 328.154 191.012 326.891 190.238 325.541C189.883 324.922 189.565 324.279 189.305 323.615C190.325 322.635 191.383 321.821 192.533 321.198C196.438 319.082 201.822 318.531 206.241 319.662C206.05 320.457 205.77 321.238 205.5 322.015C204.995 323.472 204.555 324.994 204.822 326.549C205.092 328.116 206.269 329.288 206.992 330.649C207.368 331.356 207.624 332.169 207.275 332.938C207.165 333.18 207.012 333.392 206.842 333.594C206.178 334.381 205.325 334.839 204.39 335.064Z" fill="#1A1A1A"/>
<path d="M238.519 313.972C239.732 314.067 240.79 313.156 240.884 311.942L242.748 287.99C242.843 286.777 241.939 285.713 240.726 285.619L229.176 284.72C227.963 284.625 226.906 285.536 226.811 286.749L224.947 310.702C224.852 311.915 225.756 312.979 226.969 313.073L238.519 313.972ZM238.748 313.266C238.05 313.211 237.525 312.605 237.579 311.907C237.634 311.208 238.246 310.684 238.945 310.738C239.644 310.793 240.161 311.405 240.107 312.103C240.052 312.802 239.447 313.32 238.748 313.266ZM235.722 311.125C235.023 311.07 234.505 310.458 234.56 309.76C234.614 309.061 235.22 308.536 235.919 308.591C236.618 308.645 237.142 309.258 237.087 309.956C237.033 310.655 236.42 311.179 235.722 311.125ZM239.069 309.145C238.37 309.09 237.846 308.478 237.901 307.779C237.955 307.08 238.567 306.563 239.266 306.617C239.964 306.672 240.482 307.277 240.428 307.976C240.374 308.674 239.768 309.199 239.069 309.145Z" fill="#1A1A1A"/>
<path d="M267.815 360.046L273.012 348.525C272.709 348.477 272.406 348.407 272.114 348.275L267.926 346.387C267.633 346.255 267.376 346.07 267.14 345.875L261.944 357.396L267.815 360.046ZM274.994 347.241C275.49 346.934 275.905 346.48 276.163 345.908L277.793 342.289C278.48 340.764 277.802 338.97 276.277 338.283L272.655 336.648C271.13 335.96 269.34 336.643 268.652 338.168L267.019 341.783C266.331 343.308 267.009 345.101 268.535 345.789L272.157 347.424C273.11 347.854 274.166 347.751 274.994 347.241ZM277.668 338.192L283.287 325.728L277.419 323.083L271.8 335.547C272.103 335.594 272.404 335.672 272.697 335.804L276.884 337.693C277.177 337.825 277.432 337.997 277.668 338.192Z" fill="#1A1A1A"/>
<path d="M268.126 320.47L268.382 317.72L264.599 316.589L263.183 318.722L265.59 321.921L268.126 320.47ZM266.687 316.412C268.084 312.222 266.519 307.562 262.787 305.083C258.251 302.069 252.131 303.303 249.117 307.839C246.103 312.374 247.336 318.495 251.872 321.509C255.566 323.964 260.409 323.636 263.731 320.797L262.886 319.81C260.003 322.273 255.799 322.554 252.594 320.424C248.657 317.808 247.586 312.496 250.202 308.56C252.818 304.623 258.13 303.552 262.066 306.168C265.305 308.32 266.662 312.368 265.45 316.002L266.687 316.412Z" fill="#1A1A1A"/>
<path d="M354.988 331.312C355.882 331.337 356.465 327.166 356.575 326.476C357.262 322.181 357.244 317.5 358.494 313.338C357.91 312.91 357.577 312.685 357.199 312.482C356.517 312.116 355.779 311.785 355.002 311.447C354.987 311.596 354.966 311.883 354.947 311.975C354.415 314.5 353.461 319.02 351.019 320.437C348.577 319.17 346.112 317.946 344.072 316.056C341.942 314.084 340.222 311.387 338.625 308.963C338.005 308.022 337.504 306.834 336.621 306.098C336.143 305.699 335.529 305.384 334.878 305.1C331.268 304.36 327.789 303.914 324.322 303.794C323.745 303.774 323.289 303.736 322.268 303.636C322.171 303.627 322.124 303.622 322.07 303.617C321.138 303.527 320.458 303.486 319.871 303.483C319.892 303.616 319.936 303.876 319.94 303.93C320.171 306.748 322.329 310.014 324.347 311.923C331.594 318.776 340.082 322.888 349.034 327.061C350.548 327.766 352.09 328.598 353.377 329.67C353.622 329.874 354.748 331.306 354.988 331.312Z" fill="#1A1A1A"/>
<path d="M325.208 358.094C328.075 357.198 330.839 355.492 332.816 353.262C334.763 351.064 335.76 347.473 335.774 344.581C335.777 343.762 335.693 342.743 335.728 341.758C335.709 341.762 335.69 341.764 335.672 341.768C335.759 341.154 335.836 340.483 335.596 340.142C335.487 339.987 334.942 340.063 334.784 340.044C334.098 339.961 333.346 339.638 332.691 339.398C332.663 339.387 332.642 339.364 332.615 339.353C334.752 339.386 337.729 338.514 339.631 337.36C340.515 336.749 341.362 336.1 342.201 335.449C344.005 333.96 346.57 331.369 344.095 330.991C343.074 330.836 341.669 332.128 340.76 332.466C338.489 333.311 335.336 333.294 332.99 332.838C330.334 332.32 326.671 328.153 324.519 328.601C323.086 328.899 322.889 330.359 322.209 331.484C321.386 332.844 320.571 333.897 319.53 334.752C319.44 334.923 319.319 335.082 319.156 335.207C319.137 335.221 319.142 335.227 319.123 335.242C318.234 335.92 314.562 338.509 313.75 339.115C309.678 342.15 307.265 344.804 306.322 347.746C306.726 348.805 307.504 349.778 307.976 350.778C309.178 353.329 310.959 355.795 313.277 357.478C313.881 357.759 314.682 358.178 315.23 358.373C316.412 358.794 317.703 358.853 319.872 358.683C320.093 358.666 321.593 358.542 321.948 358.518C323.111 358.44 324.165 358.275 325.208 358.094Z" fill="#1A1A1A"/>
<path d="M311.232 330.603C311.986 330.217 312.286 329.291 311.9 328.536C311.515 327.782 310.589 327.482 309.834 327.867C309.08 328.253 308.785 329.177 309.17 329.931C309.556 330.685 310.477 330.988 311.232 330.603ZM290.14 341.378C290.895 340.992 291.194 340.066 290.809 339.311C290.424 338.557 289.497 338.257 288.742 338.643C287.988 339.028 287.693 339.952 288.079 340.706C288.465 341.46 289.386 341.763 290.14 341.378ZM308.244 329.385C308.999 329 309.293 328.076 308.908 327.321C308.523 326.567 307.601 326.264 306.847 326.649C306.093 327.035 305.792 327.961 306.178 328.716C306.564 329.47 307.49 329.77 308.244 329.385ZM290.909 338.241C291.664 337.856 291.964 336.929 291.578 336.174C291.193 335.42 290.266 335.12 289.512 335.505C288.757 335.891 288.457 336.818 288.843 337.572C289.228 338.327 290.155 338.626 290.909 338.241ZM304.738 328.635C305.493 328.249 305.795 327.328 305.41 326.573C305.025 325.819 304.098 325.519 303.343 325.904C302.589 326.29 302.289 327.217 302.675 327.971C303.06 328.725 303.984 329.02 304.738 328.635ZM292.356 334.96C293.111 334.575 293.408 333.656 293.022 332.902C292.637 332.147 291.716 331.845 290.961 332.23C290.207 332.615 289.907 333.542 290.292 334.297C290.678 335.051 291.601 335.346 292.356 334.96ZM301.099 329.07C301.854 328.684 302.149 327.76 301.763 327.006C301.378 326.251 300.456 325.949 299.702 326.334C298.948 326.719 298.647 327.646 299.033 328.401C299.419 329.155 300.345 329.455 301.099 329.07ZM294.841 332.267C295.596 331.881 295.895 330.955 295.51 330.2C295.125 329.446 294.198 329.146 293.443 329.531C292.689 329.917 292.394 330.841 292.78 331.595C293.165 332.35 294.086 332.652 294.841 332.267ZM297.979 330.52C298.734 330.134 299.029 329.21 298.643 328.456C298.258 327.702 297.336 327.399 296.582 327.784C295.828 328.17 295.527 329.096 295.913 329.851C296.298 330.605 297.225 330.905 297.979 330.52Z" fill="#1A1A1A"/>
<path d="M305.308 317.065C306.229 316.885 307.101 316.524 307.852 315.916C308.113 315.705 308.356 315.466 308.571 315.209C308.798 314.94 308.997 314.65 309.142 314.328C309.678 313.135 309.274 311.961 308.65 310.894C308.298 310.292 307.886 309.727 307.511 309.14C307.246 308.724 306.993 308.283 306.844 307.811C306.747 307.502 306.705 307.175 306.686 306.852C306.599 305.445 307.115 304.085 307.576 302.782C307.792 302.173 307.99 301.561 308.141 300.939C308.518 301.06 308.902 301.172 309.26 301.319C309.981 300.956 310.327 300.398 310.662 299.268C310.701 299.14 310.762 298.914 310.843 298.621C310.864 298.416 310.882 298.108 310.905 297.972C311.462 294.821 313.114 286.351 311.656 282.334C311.573 282.324 311.498 282.31 311.414 282.3C309.948 282.138 308.735 282.099 306.081 282.083C302.217 282.061 298.561 282.513 293.998 283.485C286.602 285.06 283.016 286.762 279.185 291.008C279.911 295.042 284.951 301.61 286.733 304.203C287.062 304.561 287.479 305.022 287.648 305.193C288.131 305.68 288.517 305.947 288.944 306.032C289.146 305.801 289.349 305.591 289.554 305.374C289.827 306.005 290.14 306.62 290.488 307.211C291.272 308.544 292.189 309.799 293.184 310.981C294.175 312.158 295.253 313.269 296.422 314.27C297.669 315.339 299.037 316.332 300.64 316.765C302.107 317.162 303.775 317.366 305.308 317.065ZM305.39 316.064C303.833 316.439 302.054 316.172 300.576 315.737C299.945 315.552 299.355 315.213 298.807 314.857C298.192 314.458 297.614 314.009 297.059 313.531C295.931 312.563 294.896 311.481 293.94 310.344C292.939 309.154 292.012 307.891 291.238 306.541C290.883 305.922 290.565 305.279 290.305 304.615C291.325 303.635 292.383 302.821 293.533 302.198C297.438 300.082 302.822 299.531 307.241 300.662C307.05 301.457 306.77 302.238 306.5 303.015C305.995 304.472 305.555 305.994 305.822 307.549C306.092 309.116 307.269 310.288 307.992 311.649C308.368 312.356 308.624 313.169 308.275 313.938C308.165 314.18 308.012 314.392 307.842 314.594C307.178 315.381 306.325 315.839 305.39 316.064Z" fill="#1A1A1A"/>
<path d="M339.519 294.972C340.732 295.067 341.79 294.156 341.884 292.942L343.748 268.99C343.843 267.777 342.939 266.713 341.726 266.619L330.176 265.72C328.963 265.625 327.906 266.536 327.811 267.749L325.947 291.702C325.852 292.915 326.756 293.979 327.969 294.073L339.519 294.972ZM339.748 294.266C339.05 294.211 338.525 293.605 338.579 292.907C338.634 292.208 339.246 291.684 339.945 291.738C340.644 291.793 341.161 292.405 341.107 293.103C341.052 293.802 340.447 294.32 339.748 294.266ZM336.722 292.125C336.023 292.07 335.505 291.458 335.56 290.76C335.614 290.061 336.22 289.536 336.919 289.591C337.618 289.645 338.142 290.258 338.087 290.956C338.033 291.655 337.42 292.179 336.722 292.125ZM340.069 290.145C339.37 290.09 338.846 289.478 338.901 288.779C338.955 288.08 339.567 287.563 340.266 287.617C340.964 287.672 341.482 288.277 341.428 288.976C341.374 289.674 340.768 290.199 340.069 290.145Z" fill="#1A1A1A"/>
<path d="M368.815 341.046L374.012 329.525C373.709 329.477 373.406 329.407 373.114 329.275L368.926 327.387C368.633 327.255 368.376 327.07 368.14 326.875L362.944 338.396L368.815 341.046ZM375.994 328.241C376.49 327.934 376.905 327.48 377.163 326.908L378.793 323.289C379.48 321.764 378.802 319.97 377.277 319.283L373.655 317.648C372.13 316.96 370.34 317.643 369.652 319.168L368.019 322.783C367.331 324.308 368.009 326.101 369.535 326.789L373.157 328.424C374.11 328.854 375.166 328.751 375.994 328.241ZM378.668 319.192L384.287 306.728L378.419 304.083L372.8 316.547C373.103 316.594 373.404 316.672 373.697 316.804L377.884 318.693C378.177 318.825 378.432 318.997 378.668 319.192Z" fill="#1A1A1A"/>
<path d="M369.126 301.47L369.382 298.72L365.599 297.589L364.183 299.722L366.59 302.921L369.126 301.47ZM367.687 297.412C369.084 293.222 367.519 288.562 363.787 286.083C359.251 283.069 353.131 284.303 350.117 288.839C347.103 293.374 348.336 299.495 352.872 302.509C356.566 304.964 361.409 304.636 364.731 301.797L363.886 300.81C361.003 303.273 356.799 303.554 353.594 301.424C349.657 298.808 348.586 293.496 351.202 289.56C353.818 285.623 359.13 284.552 363.066 287.168C366.305 289.32 367.662 293.368 366.45 297.002L367.687 297.412Z" fill="#1A1A1A"/>
<path d="M339.408 250.555C340.29 250.7 341.429 246.645 341.631 245.976C342.89 241.813 343.502 237.173 345.3 233.216C344.779 232.714 344.48 232.446 344.132 232.194C343.505 231.74 342.819 231.312 342.094 230.873C342.059 231.018 342 231.3 341.969 231.388C341.102 233.819 339.548 238.169 336.938 239.245C334.689 237.661 332.411 236.116 330.644 233.969C328.799 231.728 327.457 228.825 326.201 226.208C325.713 225.192 325.376 223.947 324.6 223.099C324.181 222.64 323.614 222.244 323.007 221.875C319.529 220.657 316.142 219.747 312.723 219.162C312.154 219.064 311.708 218.965 310.708 218.729C310.614 218.707 310.568 218.695 310.516 218.683C309.604 218.468 308.935 218.336 308.354 218.254C308.357 218.389 308.366 218.653 308.363 218.707C308.212 221.53 309.911 225.056 311.655 227.22C317.913 234.986 325.771 240.202 334.08 245.541C335.485 246.444 336.901 247.476 338.033 248.711C338.248 248.947 339.17 250.517 339.408 250.555Z" fill="#1A1A1A"/>
<path d="M306.295 273.087C309.257 272.585 312.225 271.266 314.484 269.322C316.709 267.407 318.181 263.982 318.583 261.118C318.697 260.307 318.75 259.286 318.918 258.314C318.898 258.316 318.879 258.315 318.86 258.317C319.03 257.721 319.196 257.066 319.004 256.696C318.917 256.528 318.367 256.53 318.213 256.489C317.544 256.315 316.843 255.893 316.225 255.567C316.199 255.553 316.182 255.527 316.156 255.513C318.269 255.833 321.337 255.37 323.377 254.482C324.335 253.995 325.262 253.466 326.18 252.934C328.168 251.702 331.059 249.479 328.657 248.772C327.666 248.48 326.1 249.571 325.154 249.784C322.79 250.317 319.667 249.875 317.404 249.107C314.843 248.237 311.773 243.614 309.58 243.769C308.12 243.872 307.729 245.292 306.904 246.315C305.905 247.552 304.955 248.486 303.81 249.194C303.697 249.35 303.556 249.492 303.377 249.593C303.357 249.605 303.361 249.612 303.34 249.624C302.368 250.176 298.381 252.248 297.495 252.739C293.052 255.198 290.304 257.503 288.973 260.292C289.231 261.396 289.872 262.465 290.204 263.519C291.052 266.209 292.485 268.892 294.556 270.872C295.116 271.231 295.854 271.754 296.371 272.021C297.485 272.597 298.756 272.829 300.929 272.953C301.149 272.965 302.653 273.044 303.007 273.069C304.171 273.148 305.237 273.126 306.295 273.087Z" fill="#1A1A1A"/>
<path d="M296.145 243.965C296.944 243.685 297.366 242.807 297.085 242.008C296.805 241.208 295.928 240.786 295.128 241.067C294.328 241.347 293.912 242.223 294.192 243.022C294.473 243.822 295.345 244.245 296.145 243.965ZM273.795 251.805C274.595 251.524 275.016 250.647 274.736 249.847C274.456 249.048 273.578 248.625 272.778 248.906C271.979 249.187 271.563 250.062 271.843 250.862C272.124 251.661 272.996 252.085 273.795 251.805ZM293.348 242.357C294.148 242.076 294.564 241.2 294.284 240.401C294.004 239.601 293.131 239.177 292.332 239.458C291.533 239.738 291.11 240.616 291.391 241.416C291.671 242.215 292.549 242.637 293.348 242.357ZM274.979 248.8C275.779 248.52 276.201 247.642 275.921 246.842C275.64 246.043 274.762 245.621 273.963 245.901C273.163 246.182 272.741 247.06 273.022 247.859C273.302 248.659 274.18 249.08 274.979 248.8ZM289.975 241.141C290.775 240.861 291.198 239.989 290.918 239.189C290.638 238.39 289.76 237.968 288.96 238.248C288.161 238.529 287.739 239.407 288.02 240.206C288.3 241.005 289.176 241.422 289.975 241.141ZM276.855 245.744C277.654 245.463 278.072 244.593 277.792 243.794C277.511 242.994 276.639 242.57 275.84 242.851C275.04 243.131 274.618 244.009 274.898 244.809C275.179 245.608 276.055 246.024 276.855 245.744ZM286.311 241.083C287.11 240.802 287.527 239.926 287.246 239.127C286.966 238.328 286.094 237.904 285.294 238.184C284.495 238.464 284.073 239.342 284.353 240.142C284.634 240.941 285.511 241.363 286.311 241.083ZM279.679 243.409C280.479 243.128 280.9 242.251 280.62 241.451C280.34 240.652 279.462 240.23 278.662 240.51C277.863 240.791 277.447 241.667 277.727 242.466C278.007 243.266 278.88 243.689 279.679 243.409ZM283.024 242.1C283.824 241.819 284.24 240.944 283.959 240.144C283.679 239.345 282.807 238.921 282.007 239.201C281.208 239.482 280.786 240.36 281.067 241.159C281.347 241.958 282.225 242.381 283.024 242.1Z" fill="#1A1A1A"/>
<path d="M292.096 229.754C293.033 229.699 293.945 229.458 294.772 228.957C295.059 228.783 295.331 228.579 295.579 228.354C295.84 228.117 296.077 227.857 296.263 227.557C296.955 226.447 296.712 225.229 296.238 224.088C295.971 223.444 295.638 222.829 295.346 222.197C295.139 221.749 294.947 221.278 294.863 220.79C294.809 220.471 294.811 220.141 294.835 219.819C294.939 218.413 295.633 217.135 296.265 215.906C296.561 215.331 296.839 214.751 297.073 214.155C297.431 214.326 297.796 214.488 298.131 214.683C298.894 214.419 299.312 213.913 299.796 212.839C299.851 212.717 299.943 212.502 300.063 212.222C300.111 212.022 300.17 211.718 300.211 211.587C301.187 208.54 303.964 200.369 303.059 196.193C302.978 196.171 302.905 196.147 302.823 196.126C301.393 195.768 300.196 195.566 297.568 195.194C293.743 194.652 290.059 194.607 285.407 194.957C277.866 195.523 274.084 196.727 269.716 200.418C269.893 204.514 274.004 211.7 275.421 214.509C275.698 214.908 276.049 215.421 276.194 215.613C276.607 216.161 276.954 216.477 277.365 216.619C277.597 216.417 277.826 216.237 278.058 216.049C278.244 216.711 278.472 217.363 278.737 217.996C279.334 219.422 280.074 220.788 280.901 222.094C281.725 223.394 282.643 224.639 283.667 225.789C284.758 227.015 285.981 228.183 287.511 228.829C288.911 229.419 290.536 229.845 292.096 229.754ZM292.313 228.772C290.719 228.934 288.992 228.43 287.586 227.801C286.986 227.532 286.446 227.117 285.951 226.691C285.395 226.213 284.883 225.69 284.397 225.142C283.41 224.031 282.53 222.82 281.736 221.565C280.904 220.25 280.155 218.874 279.57 217.432C279.301 216.771 279.073 216.092 278.904 215.398C280.048 214.565 281.205 213.9 282.429 213.437C286.583 211.866 291.992 212.044 296.218 213.759C295.922 214.522 295.54 215.258 295.168 215.992C294.471 217.367 293.831 218.816 293.886 220.393C293.943 221.982 294.951 223.302 295.485 224.748C295.762 225.499 295.906 226.339 295.457 227.054C295.315 227.279 295.135 227.469 294.94 227.646C294.175 228.337 293.269 228.675 292.313 228.772Z" fill="#1A1A1A"/>
<path d="M328.968 212.464C330.158 212.721 331.328 211.961 331.585 210.771L336.655 187.287C336.912 186.098 336.16 184.922 334.97 184.666L323.647 182.221C322.457 181.964 321.287 182.724 321.03 183.914L315.96 207.398C315.703 208.588 316.455 209.763 317.645 210.02L328.968 212.464ZM329.291 211.795C328.606 211.647 328.168 210.976 328.315 210.291C328.463 209.606 329.141 209.169 329.826 209.317C330.511 209.465 330.941 210.141 330.793 210.826C330.645 211.511 329.976 211.943 329.291 211.795ZM326.58 209.266C325.895 209.118 325.464 208.443 325.612 207.757C325.76 207.072 326.431 206.634 327.116 206.782C327.801 206.93 328.238 207.607 328.09 208.292C327.942 208.977 327.265 209.414 326.58 209.266ZM330.163 207.755C329.478 207.607 329.041 206.929 329.189 206.244C329.337 205.559 330.013 205.129 330.698 205.277C331.383 205.425 331.815 206.094 331.667 206.779C331.519 207.464 330.848 207.902 330.163 207.755Z" fill="#1A1A1A"/>
<path d="M351.8 262.061L358.499 251.344C358.205 251.256 357.915 251.146 357.642 250.975L353.747 248.541C353.475 248.371 353.245 248.153 353.037 247.928L346.338 258.645L351.8 262.061ZM360.636 250.338C361.169 250.101 361.641 249.707 361.974 249.175L364.076 245.808C364.962 244.389 364.532 242.521 363.113 241.634L359.744 239.527C358.325 238.64 356.459 239.076 355.572 240.495L353.468 243.856C352.581 245.275 353.012 247.144 354.431 248.03L357.8 250.137C358.687 250.692 359.747 250.732 360.636 250.338ZM364.504 241.731L371.748 230.137L366.289 226.726L359.045 238.32C359.338 238.408 359.626 238.526 359.898 238.696L363.794 241.131C364.066 241.301 364.296 241.506 364.504 241.731Z" fill="#1A1A1A"/>
<path d="M357.432 222.886L358.056 220.196L354.46 218.567L352.769 220.489L354.724 223.983L357.432 222.886ZM356.552 218.672C358.5 214.708 357.576 209.88 354.212 206.921C350.123 203.324 343.892 203.723 340.295 207.812C336.698 211.902 337.097 218.133 341.187 221.73C344.517 224.659 349.359 224.986 353.033 222.62L352.329 221.527C349.141 223.58 344.937 223.293 342.047 220.751C338.499 217.63 338.152 212.222 341.274 208.673C344.395 205.124 349.803 204.778 353.352 207.899C356.271 210.467 357.072 214.661 355.382 218.1L356.552 218.672Z" fill="#1A1A1A"/>
<path d="M60.408 54.5552C61.2905 54.7003 62.4289 50.6453 62.6312 49.9762C63.8897 45.8132 64.5016 41.1725 66.3003 37.2157C65.7788 36.7138 65.4798 36.4459 65.1322 36.194C64.5054 35.7397 63.8193 35.3118 63.0944 34.873C63.0591 35.0184 63.0005 35.3002 62.969 35.3882C62.1017 37.8186 60.5483 42.1689 57.9378 43.2454C55.6889 41.661 53.411 40.1161 51.6437 37.9694C49.7987 35.7283 48.457 32.8248 47.2009 30.2081C46.7131 29.1918 46.3763 27.9472 45.6004 27.0987C45.1807 26.6397 44.6142 26.2444 44.007 25.8755C40.5296 24.6567 37.1419 23.7471 33.7232 23.1617C33.1536 23.0642 32.7076 22.9649 31.7085 22.7289C31.6137 22.7065 31.5681 22.6951 31.5158 22.6828C30.6039 22.4679 29.9356 22.3362 29.354 22.2541C29.3572 22.3891 29.3661 22.6526 29.3631 22.7067C29.2119 25.5304 30.9111 29.0565 32.6546 31.22C38.913 38.9858 46.7709 44.2022 55.0803 49.5412C56.4855 50.4441 57.9012 51.4755 59.0328 52.7114C59.2483 52.9467 60.1706 54.5165 60.408 54.5552Z" fill="#1A1A1A"/>
<path d="M27.2949 77.0871C30.2566 76.5852 33.2255 75.2664 35.4839 73.3223C37.7089 71.4067 39.1808 67.9824 39.5831 65.1184C39.6969 64.3068 39.7499 63.2862 39.9177 62.3144C39.8984 62.316 39.8793 62.3154 39.8605 62.3167C40.0296 61.7208 40.196 61.0657 40.0045 60.6959C39.9173 60.528 39.3667 60.5297 39.2127 60.4892C38.5441 60.3152 37.8426 59.8934 37.2254 59.5671C37.1991 59.5532 37.1822 59.5271 37.1563 59.5126C39.2693 59.8333 42.3372 59.3696 44.3769 58.482C45.3346 57.9953 46.2618 57.466 47.1804 56.9342C49.1684 55.7015 52.0592 53.4786 49.6575 52.7718C48.6665 52.4802 47.0998 53.5713 46.1536 53.7844C43.7902 54.3166 40.6675 53.8753 38.4044 53.107C35.8429 52.2369 32.7732 47.6145 30.5803 47.7691C29.1204 47.8722 28.7294 49.292 27.9036 50.3151C26.9052 51.5517 25.9555 52.4859 24.8098 53.1937C24.6975 53.3502 24.5562 53.4915 24.3775 53.5934C24.3568 53.6052 24.361 53.6119 24.3403 53.6236C23.3678 54.1758 19.3813 56.2478 18.4947 56.7387C14.052 59.1983 11.3036 61.5034 9.97355 64.2916C10.2309 65.3962 10.8716 66.465 11.204 67.5192C12.0519 70.2089 13.4854 72.8919 15.5559 74.8717C16.1159 75.2311 16.8538 75.7537 17.3708 76.0207C18.4848 76.597 19.7565 76.8292 21.9287 76.9529C22.1495 76.9651 23.653 77.0445 24.0075 77.0686C25.171 77.1481 26.2373 77.1263 27.2949 77.0871Z" fill="#1A1A1A"/>
<path d="M17.1449 47.9651C17.9442 47.6848 18.3659 46.8071 18.0856 46.0076C17.8053 45.2081 16.9276 44.786 16.1278 45.0667C15.3284 45.347 14.9121 46.2229 15.1924 47.0224C15.4732 47.8217 16.3455 48.2455 17.1449 47.9651ZM-5.20443 55.8046C-4.4051 55.5243 -3.98343 54.6466 -4.26376 53.847C-4.54406 53.0475 -5.4217 52.6255 -6.22154 52.9062C-7.02087 53.1865 -7.43726 54.0624 -7.15696 54.8619C-6.87612 55.6611 -6.00377 56.085 -5.20443 55.8046ZM14.3486 46.3566C15.1479 46.0762 15.5643 45.2003 15.284 44.4008C15.0037 43.6013 14.1313 43.1775 13.332 43.4578C12.5327 43.7382 12.1105 44.6162 12.3908 45.4157C12.6716 46.2149 13.5492 46.6369 14.3486 46.3566ZM-4.02056 52.7999C-3.22122 52.5196 -2.79902 51.6416 -3.07932 50.8421C-3.36016 50.0428 -4.2378 49.6208 -5.03713 49.9011C-5.837 50.1818 -6.25864 51.0595 -5.97834 51.859C-5.69804 52.6585 -4.81986 53.0803 -4.02056 52.7999ZM10.9754 45.1415C11.7747 44.8611 12.1986 43.9888 11.9182 43.1892C11.638 42.3898 10.7598 41.968 9.96045 42.2484C9.16112 42.5287 8.73891 43.4067 9.01975 44.2059C9.30005 45.0054 10.176 45.4218 10.9754 45.1415ZM-2.1453 49.7437C-1.34596 49.4634 -0.927382 48.5928 -1.20822 47.7936C-1.48852 46.9941 -2.36088 46.5703 -3.16021 46.8506C-3.95954 47.131 -4.38172 48.009 -4.10142 48.8085C-3.82058 49.6077 -2.94514 50.0244 -2.1453 49.7437ZM7.31093 45.0828C8.11024 44.8024 8.52716 43.9263 8.24632 43.127C7.96602 42.3275 7.09366 41.9037 6.29433 42.184C5.49503 42.4644 5.07283 43.3424 5.35313 44.1419C5.63396 44.9411 6.5116 45.3632 7.31093 45.0828ZM0.679517 47.4088C1.47885 47.1285 1.90052 46.2508 1.62022 45.4513C1.33992 44.6518 0.461741 44.23 -0.337592 44.5104C-1.1369 44.7908 -1.55328 45.6667 -1.27298 46.4662C-0.99268 47.2657 -0.120354 47.6895 0.679517 47.4088ZM4.02397 46.1001C4.82384 45.8195 5.24022 44.9436 4.95939 44.1444C4.67909 43.3449 3.80674 42.921 3.0074 43.2014C2.2081 43.4818 1.78589 44.3598 2.06673 45.159C2.34703 45.9585 3.22467 46.3805 4.02397 46.1001Z" fill="#1A1A1A"/>
<path d="M13.0965 33.7537C14.0329 33.6986 14.9456 33.4582 15.7718 32.9573C16.0589 32.7832 16.3313 32.5793 16.5795 32.3538C16.8404 32.117 17.0767 31.8567 17.2634 31.5572C17.9554 30.4474 17.7127 29.2294 17.2385 28.0878C16.9708 27.4442 16.638 26.8295 16.3457 26.1972C16.1393 25.7495 15.9474 25.2782 15.8632 24.7903C15.8089 24.4709 15.8116 24.1412 15.8357 23.8188C15.9388 22.4133 16.633 21.135 17.2655 19.9059C17.5612 19.3306 17.8395 18.7514 18.0731 18.1553C18.4309 18.3257 18.7963 18.4884 19.1309 18.6828C19.8942 18.4194 20.312 17.9131 20.7965 16.8389C20.8517 16.717 20.9433 16.5016 21.0629 16.2223C21.111 16.0216 21.1698 15.7185 21.2117 15.5874C22.1875 12.54 24.964 4.36875 24.0593 0.192536C23.9786 0.171424 23.9056 0.146996 23.8237 0.126457C22.3934 -0.23191 21.1966 -0.433869 18.5685 -0.806116C14.7431 -1.34792 11.059 -1.39259 6.40682 -1.04328C-1.13367 -0.477263 -4.91631 0.727133 -9.28351 4.41829C-9.10669 8.5139 -4.99628 15.7001 -3.57876 18.5093C-3.3019 18.9085 -2.95047 19.4212 -2.80576 19.6131C-2.39269 20.1614 -2.04617 20.4771 -1.63489 20.6191C-1.40323 20.4171 -1.17371 20.2368 -0.941882 20.0493C-0.7562 20.711 -0.527962 21.3626 -0.263148 21.9957C0.334211 23.422 1.07451 24.7884 1.90144 26.0938C2.72472 27.3937 3.64307 28.6391 4.66693 29.7888C5.75862 31.0152 6.9807 32.183 8.51128 32.8287C9.91108 33.4191 11.5364 33.8451 13.0965 33.7537ZM13.3127 32.7725C11.7191 32.9344 9.99173 32.4303 8.58606 31.8007C7.98616 31.5323 7.44622 31.1173 6.95107 30.6913C6.39561 30.2129 5.88353 29.6899 5.39749 29.1417C4.41046 28.0305 3.53033 26.8198 2.73607 25.5646C1.90421 24.2501 1.15539 22.8744 0.57004 21.4317C0.301342 20.7708 0.072788 20.0915 -0.095477 19.3977C1.04784 18.5645 2.20504 17.8999 3.42886 17.4371C7.58287 15.8657 12.9925 16.0443 17.2186 17.7592C16.9219 18.522 16.5399 19.2581 16.1683 19.9915C15.4711 21.3674 14.8308 22.8162 14.8865 24.3934C14.9429 25.9823 15.9516 27.3022 16.4848 28.7476C16.7627 29.4987 16.9062 30.3386 16.4569 31.0544C16.3155 31.2793 16.1355 31.4689 15.9398 31.646C15.1757 32.3366 14.2693 32.675 13.3127 32.7725Z" fill="#1A1A1A"/>
<path d="M49.9685 16.4644C51.1583 16.7212 52.3285 15.961 52.5853 14.7713L57.6554 -8.7125C57.9123 -9.90219 57.16 -11.0775 55.9703 -11.3344L44.6468 -13.779C43.457 -14.0359 42.2869 -13.2757 42.03 -12.0859L36.96 11.3978C36.7031 12.5875 37.4554 13.7628 38.6451 14.0197L49.9685 16.4644ZM50.291 15.795C49.6059 15.6471 49.1677 14.9762 49.3156 14.2912C49.4635 13.6061 50.1409 13.1692 50.826 13.3172C51.511 13.4651 51.9413 14.141 51.7934 14.8261C51.6455 15.5112 50.976 15.9429 50.291 15.795ZM47.5799 13.2664C46.8948 13.1185 46.4644 12.4425 46.6124 11.7574C46.7603 11.0724 47.4311 10.6341 48.1162 10.7821C48.8013 10.9299 49.2382 11.6073 49.0903 12.2924C48.9423 12.9774 48.265 13.4143 47.5799 13.2664ZM51.1633 11.7546C50.4782 11.6067 50.0414 10.9293 50.1893 10.2442C50.3372 9.55921 51.0132 9.12895 51.6983 9.27678C52.3833 9.42472 52.815 10.0942 52.6672 10.7792C52.5192 11.4643 51.8484 11.9025 51.1633 11.7546Z" fill="#1A1A1A"/>
<path d="M72.7998 66.061L79.4989 55.344C79.2054 55.2556 78.9148 55.1455 78.6426 54.9754L74.7469 52.541C74.4746 52.3709 74.2449 52.1529 74.0372 51.9277L67.3381 62.6448L72.7998 66.061ZM81.6359 54.3376C82.1693 54.1009 82.6414 53.7067 82.9738 53.1746L85.0756 49.8078C85.9622 48.3891 85.5317 46.5205 84.1129 45.6338L80.7437 43.527C79.3249 42.6403 77.4588 43.0761 76.5723 44.4947L74.4679 47.8564C73.5813 49.2751 74.0118 51.1437 75.4307 52.0304L78.7998 54.1372C79.6867 54.6917 80.7472 54.7322 81.6359 54.3376ZM85.5036 45.7309L92.7483 34.1369L87.2892 30.7261L80.0446 42.3203C80.3379 42.4083 80.6259 42.5262 80.8981 42.6963L84.7939 45.1309C85.0662 45.301 85.2959 45.5058 85.5036 45.7309Z" fill="#1A1A1A"/>
<path d="M78.4325 26.8861L79.0557 24.1956L75.4598 22.5668L73.7691 24.4889L75.7243 27.983L78.4325 26.8861ZM77.5524 22.6718C79.5004 18.7083 78.5765 13.8797 75.2126 10.9207C71.1233 7.32391 64.8921 7.72304 61.2952 11.8123C57.6984 15.9015 58.0975 22.1328 62.1868 25.7297C65.5168 28.6587 70.3591 28.9856 74.0335 26.6197L73.3286 25.527C70.1408 27.5798 65.9374 27.293 63.0475 24.7512C59.4986 21.6296 59.1522 16.2218 62.2738 12.673C65.3953 9.12423 70.803 8.77778 74.3519 11.8993C77.2712 14.4672 78.0721 18.661 76.3821 22.0996L77.5524 22.6718Z" fill="#1A1A1A"/>
<path d="M152.408 11.5552C153.29 11.7003 154.429 7.64535 154.631 6.97625C155.89 2.81317 156.502 -1.82749 158.3 -5.78428C157.779 -6.28618 157.48 -6.55407 157.132 -6.80596C156.505 -7.26027 155.819 -7.68823 155.094 -8.127C155.059 -7.98165 155 -7.69977 154.969 -7.61184C154.102 -5.18137 152.548 -0.831058 149.938 0.245352C147.689 -1.339 145.411 -2.88386 143.644 -5.03062C141.799 -7.2717 140.457 -10.1752 139.201 -12.7919C138.713 -13.8082 138.376 -15.0528 137.6 -15.9013C137.181 -16.3603 136.614 -16.7556 136.007 -17.1245C132.53 -18.3433 129.142 -19.2529 125.723 -19.8383C125.154 -19.9358 124.708 -20.0351 123.709 -20.2711C123.614 -20.2935 123.568 -20.3049 123.516 -20.3172C122.604 -20.5321 121.936 -20.6638 121.354 -20.7459C121.357 -20.6109 121.366 -20.3474 121.363 -20.2933C121.212 -17.4696 122.911 -13.9435 124.655 -11.78C130.913 -4.01424 138.771 1.20221 147.08 6.54123C148.486 7.4441 149.901 8.47554 151.033 9.71139C151.248 9.94672 152.171 11.5165 152.408 11.5552Z" fill="#1A1A1A"/>
<path d="M119.295 34.0871C122.257 33.5852 125.226 32.2664 127.484 30.3223C129.709 28.4067 131.181 24.9824 131.583 22.1184C131.697 21.3068 131.75 20.2862 131.918 19.3144C131.898 19.316 131.879 19.3154 131.861 19.3167C132.03 18.7208 132.196 18.0657 132.005 17.6959C131.917 17.528 131.367 17.5297 131.213 17.4892C130.544 17.3152 129.843 16.8934 129.225 16.5671C129.199 16.5532 129.182 16.5271 129.156 16.5126C131.269 16.8333 134.337 16.3696 136.377 15.482C137.335 14.9953 138.262 14.466 139.18 13.9342C141.168 12.7015 144.059 10.4786 141.658 9.77178C140.667 9.48017 139.1 10.5713 138.154 10.7844C135.79 11.3166 132.668 10.8753 130.404 10.107C127.843 9.23693 124.773 4.61447 122.58 4.76911C121.12 4.87215 120.729 6.292 119.904 7.31509C118.905 8.55174 117.956 9.48594 116.81 10.1937C116.698 10.3502 116.556 10.4915 116.378 10.5934C116.357 10.6052 116.361 10.6119 116.34 10.6236C115.368 11.1758 111.381 13.2478 110.495 13.7387C106.052 16.1983 103.304 18.5034 101.974 21.2916C102.231 22.3962 102.872 23.465 103.204 24.5192C104.052 27.2089 105.485 29.8919 107.556 31.8717C108.116 32.2311 108.854 32.7537 109.371 33.0207C110.485 33.597 111.757 33.8292 113.929 33.9529C114.15 33.9651 115.653 34.0445 116.008 34.0686C117.171 34.1481 118.237 34.1263 119.295 34.0871Z" fill="#1A1A1A"/>
<path d="M109.145 4.96512C109.944 4.68477 110.366 3.80706 110.086 3.00756C109.805 2.20806 108.928 1.78601 108.128 2.06665C107.328 2.347 106.912 3.2229 107.192 4.0224C107.473 4.82166 108.346 5.24547 109.145 4.96512ZM86.7956 12.8046C87.5949 12.5243 88.0166 11.6466 87.7362 10.847C87.4559 10.0475 86.5783 9.62547 85.7785 9.90617C84.9791 10.1865 84.5627 11.0624 84.843 11.8619C85.1239 12.6611 85.9962 13.085 86.7956 12.8046ZM106.349 3.35657C107.148 3.07622 107.564 2.20033 107.284 1.40083C107.004 0.601329 106.131 0.177468 105.332 0.457817C104.533 0.738167 104.11 1.61616 104.391 2.41566C104.672 3.21487 105.549 3.63692 106.349 3.35657ZM87.9794 9.7999C88.7788 9.51955 89.201 8.64155 88.9207 7.84205C88.6398 7.04285 87.7622 6.62079 86.9629 6.90114C86.163 7.18178 85.7414 8.05954 86.0217 8.85904C86.302 9.65854 87.1801 10.0803 87.9794 9.7999ZM102.975 2.14147C103.775 1.86112 104.199 0.988768 103.918 0.189215C103.638 -0.61023 102.76 -1.03199 101.96 -0.751642C101.161 -0.471293 100.739 0.406706 101.02 1.20591C101.3 2.00541 102.176 2.42182 102.975 2.14147ZM89.8547 6.74375C90.654 6.4634 91.0726 5.59285 90.7918 4.79364C90.5115 3.99414 89.6391 3.57028 88.8398 3.85063C88.0405 4.13098 87.6183 5.00903 87.8986 5.80853C88.1794 6.60774 89.0549 7.02444 89.8547 6.74375ZM99.3109 2.08284C100.11 1.80244 100.527 0.926252 100.246 0.127044C99.966 -0.672455 99.0937 -1.09632 98.2943 -0.815967C97.495 -0.535563 97.0728 0.342433 97.3531 1.14193C97.634 1.94114 98.5116 2.36319 99.3109 2.08284ZM92.6795 4.40882C93.4788 4.12847 93.9005 3.25076 93.6202 2.45126C93.3399 1.65177 92.4617 1.23 91.6624 1.51035C90.8631 1.79076 90.4467 2.66665 90.727 3.46615C91.0073 4.26565 91.8796 4.68946 92.6795 4.40882ZM96.024 3.10013C96.8238 2.81949 97.2402 1.9436 96.9594 1.14439C96.6791 0.34489 95.8067 -0.0789737 95.0074 0.201376C94.2081 0.481779 93.7859 1.35978 94.0667 2.15899C94.347 2.95848 95.2247 3.38054 96.024 3.10013Z" fill="#1A1A1A"/>
<path d="M164.8 23.061L171.499 12.344C171.205 12.2556 170.915 12.1455 170.643 11.9754L166.747 9.54103C166.475 9.37094 166.245 9.15285 166.037 8.92774L159.338 19.6448L164.8 23.061ZM173.636 11.3376C174.169 11.1009 174.641 10.7067 174.974 10.1746L177.076 6.80777C177.962 5.38913 177.532 3.52053 176.113 2.63376L172.744 0.526972C171.325 -0.359747 169.459 0.0760837 168.572 1.49474L166.468 4.85642C165.581 6.27505 166.012 8.14365 167.431 9.03043L170.8 11.1372C171.687 11.6917 172.747 11.7322 173.636 11.3376ZM177.504 2.73095L184.748 -8.86309L179.289 -12.2739L172.045 -0.679713C172.338 -0.591723 172.626 -0.47383 172.898 -0.303744L176.794 2.13088C177.066 2.30097 177.296 2.50584 177.504 2.73095Z" fill="#1A1A1A"/>
<path d="M257.408 32.5552C258.29 32.7003 259.429 28.6453 259.631 27.9762C260.89 23.8132 261.502 19.1725 263.3 15.2157C262.779 14.7138 262.48 14.4459 262.132 14.194C261.505 13.7397 260.819 13.3118 260.094 12.873C260.059 13.0184 260 13.3002 259.969 13.3882C259.102 15.8186 257.548 20.1689 254.938 21.2454C252.689 19.661 250.411 18.1161 248.644 15.9694C246.799 13.7283 245.457 10.8248 244.201 8.20813C243.713 7.19184 243.376 5.94722 242.6 5.09867C242.181 4.63974 241.614 4.24439 241.007 3.87548C237.529 2.65673 234.142 1.74713 230.723 1.1617C230.154 1.06417 229.708 0.964864 228.708 0.728906C228.614 0.706528 228.568 0.69513 228.516 0.682798C227.604 0.467922 226.935 0.336152 226.354 0.254147C226.357 0.389086 226.366 0.652591 226.363 0.706678C226.212 3.53037 227.911 7.05647 229.655 9.22002C235.913 16.9858 243.771 22.2022 252.08 27.5412C253.485 28.4441 254.901 29.4755 256.033 30.7114C256.248 30.9467 257.17 32.5165 257.408 32.5552Z" fill="#1A1A1A"/>
<path d="M224.295 55.0871C227.257 54.5852 230.225 53.2664 232.484 51.3223C234.709 49.4067 236.181 45.9824 236.583 43.1184C236.697 42.3068 236.75 41.2862 236.918 40.3144C236.898 40.316 236.879 40.3154 236.86 40.3167C237.03 39.7208 237.196 39.0657 237.004 38.6959C236.917 38.528 236.367 38.5297 236.213 38.4892C235.544 38.3152 234.843 37.8934 234.225 37.5671C234.199 37.5532 234.182 37.5271 234.156 37.5126C236.269 37.8333 239.337 37.3696 241.377 36.482C242.335 35.9953 243.262 35.466 244.18 34.9342C246.168 33.7015 249.059 31.4786 246.657 30.7718C245.666 30.4802 244.1 31.5713 243.154 31.7844C240.79 32.3166 237.667 31.8753 235.404 31.107C232.843 30.2369 229.773 25.6145 227.58 25.7691C226.12 25.8722 225.729 27.292 224.904 28.3151C223.905 29.5517 222.955 30.4859 221.81 31.1937C221.697 31.3502 221.556 31.4915 221.377 31.5934C221.357 31.6052 221.361 31.6119 221.34 31.6236C220.368 32.1758 216.381 34.2478 215.495 34.7387C211.052 37.1983 208.304 39.5034 206.973 42.2916C207.231 43.3962 207.872 44.465 208.204 45.5192C209.052 48.2089 210.485 50.8919 212.556 52.8717C213.116 53.2311 213.854 53.7537 214.371 54.0207C215.485 54.597 216.756 54.8292 218.929 54.9529C219.149 54.9651 220.653 55.0445 221.007 55.0686C222.171 55.1481 223.237 55.1263 224.295 55.0871Z" fill="#1A1A1A"/>
<path d="M214.145 25.9651C214.944 25.6848 215.366 24.8071 215.085 24.0076C214.805 23.2081 213.928 22.786 213.128 23.0667C212.328 23.347 211.912 24.2229 212.192 25.0224C212.473 25.8217 213.345 26.2455 214.145 25.9651ZM191.795 33.8046C192.595 33.5243 193.016 32.6466 192.736 31.847C192.456 31.0475 191.578 30.6255 190.778 30.9062C189.979 31.1865 189.563 32.0624 189.843 32.8619C190.124 33.6611 190.996 34.085 191.795 33.8046ZM211.348 24.3566C212.148 24.0762 212.564 23.2003 212.284 22.4008C212.004 21.6013 211.131 21.1775 210.332 21.4578C209.533 21.7382 209.11 22.6162 209.391 23.4157C209.671 24.2149 210.549 24.6369 211.348 24.3566ZM192.979 30.7999C193.779 30.5196 194.201 29.6416 193.921 28.8421C193.64 28.0428 192.762 27.6208 191.963 27.9011C191.163 28.1818 190.741 29.0595 191.022 29.859C191.302 30.6585 192.18 31.0803 192.979 30.7999ZM207.975 23.1415C208.775 22.8611 209.198 21.9888 208.918 21.1892C208.638 20.3898 207.76 19.968 206.96 20.2484C206.161 20.5287 205.739 21.4067 206.02 22.2059C206.3 23.0054 207.176 23.4218 207.975 23.1415ZM194.855 27.7437C195.654 27.4634 196.072 26.5928 195.792 25.7936C195.511 24.9941 194.639 24.5703 193.84 24.8506C193.04 25.131 192.618 26.009 192.898 26.8085C193.179 27.6077 194.055 28.0244 194.855 27.7437ZM204.311 23.0828C205.11 22.8024 205.527 21.9263 205.246 21.127C204.966 20.3275 204.094 19.9037 203.294 20.184C202.495 20.4644 202.073 21.3424 202.353 22.1419C202.634 22.9411 203.511 23.3632 204.311 23.0828ZM197.679 25.4088C198.479 25.1285 198.9 24.2508 198.62 23.4513C198.34 22.6518 197.462 22.23 196.662 22.5104C195.863 22.7908 195.447 23.6667 195.727 24.4662C196.007 25.2657 196.88 25.6895 197.679 25.4088ZM201.024 24.1001C201.824 23.8195 202.24 22.9436 201.959 22.1444C201.679 21.3449 200.807 20.921 200.007 21.2014C199.208 21.4818 198.786 22.3598 199.067 23.159C199.347 23.9585 200.225 24.3805 201.024 24.1001Z" fill="#1A1A1A"/>
<path d="M210.096 11.7537C211.033 11.6986 211.945 11.4582 212.772 10.9573C213.059 10.7832 213.331 10.5793 213.579 10.3538C213.84 10.117 214.077 9.8567 214.263 9.55721C214.955 8.4474 214.712 7.22943 214.238 6.0878C213.971 5.44424 213.638 4.82947 213.346 4.19716C213.139 3.74945 212.947 3.27824 212.863 2.7903C212.809 2.47091 212.811 2.14116 212.835 1.81879C212.939 0.413257 213.633 -0.865009 214.265 -2.09412C214.561 -2.66938 214.839 -3.24859 215.073 -3.84473C215.431 -3.67426 215.796 -3.51159 216.131 -3.31717C216.894 -3.58055 217.312 -4.08691 217.796 -5.16107C217.851 -5.28301 217.943 -5.49839 218.063 -5.77768C218.111 -5.97837 218.17 -6.28153 218.211 -6.41258C219.187 -9.46001 221.964 -17.6312 221.059 -21.8075C220.978 -21.8286 220.905 -21.853 220.823 -21.8735C219.393 -22.2319 218.196 -22.4339 215.568 -22.8061C211.743 -23.3479 208.059 -23.3926 203.407 -23.0433C195.866 -22.4773 192.084 -21.2729 187.716 -17.5817C187.893 -13.4861 192.004 -6.29995 193.421 -3.49071C193.698 -3.09155 194.049 -2.5788 194.194 -2.38689C194.607 -1.83858 194.954 -1.52291 195.365 -1.38088C195.597 -1.58292 195.826 -1.76316 196.058 -1.95072C196.244 -1.28903 196.472 -0.6374 196.737 -0.00432204C197.334 1.42197 198.074 2.7884 198.901 4.09376C199.725 5.39365 200.643 6.63906 201.667 7.7888C202.758 9.01518 203.981 10.183 205.511 10.8287C206.911 11.4191 208.536 11.8451 210.096 11.7537ZM210.313 10.7725C208.719 10.9344 206.992 10.4303 205.586 9.80073C204.986 9.5323 204.446 9.11734 203.951 8.69133C203.395 8.21291 202.883 7.6899 202.397 7.1417C201.41 6.0305 200.53 4.81981 199.736 3.56461C198.904 2.25015 198.155 0.874354 197.57 -0.568328C197.301 -1.22919 197.073 -1.90845 196.904 -2.60228C198.048 -3.4355 199.205 -4.10011 200.429 -4.56288C204.583 -6.13429 209.992 -5.95569 214.218 -4.24079C213.922 -3.47799 213.54 -2.74195 213.168 -2.00848C212.471 -0.63259 211.831 0.816195 211.886 2.39335C211.943 3.98226 212.951 5.30223 213.485 6.74756C213.762 7.49868 213.906 8.3386 213.457 9.05443C213.315 9.27932 213.135 9.46891 212.94 9.64602C212.175 10.3366 211.269 10.675 210.313 10.7725Z" fill="#1A1A1A"/>
<path d="M269.8 44.061L276.499 33.344C276.205 33.2556 275.915 33.1455 275.642 32.9754L271.747 30.541C271.475 30.3709 271.245 30.1529 271.037 29.9277L264.338 40.6448L269.8 44.061ZM278.636 32.3376C279.169 32.1009 279.641 31.7067 279.974 31.1746L282.076 27.8078C282.962 26.3891 282.532 24.5205 281.113 23.6338L277.744 21.527C276.325 20.6403 274.459 21.0761 273.572 22.4947L271.468 25.8564C270.581 27.2751 271.012 29.1437 272.431 30.0304L275.8 32.1372C276.687 32.6917 277.747 32.7322 278.636 32.3376ZM282.504 23.7309L289.748 12.1369L284.289 8.72612L277.045 20.3203C277.338 20.4083 277.626 20.5262 277.898 20.6963L281.794 23.1309C282.066 23.301 282.296 23.5058 282.504 23.7309Z" fill="#1A1A1A"/>
<path d="M275.432 4.88614L276.056 2.19556L272.46 0.566792L270.769 2.48891L272.724 5.983L275.432 4.88614ZM274.552 0.671832C276.5 -3.29169 275.576 -8.12028 272.212 -11.0793C268.123 -14.6761 261.892 -14.277 258.295 -10.1877C254.698 -6.09847 255.097 0.132776 259.187 3.72966C262.517 6.65872 267.359 6.98559 271.033 4.61966L270.329 3.52704C267.141 5.57976 262.937 5.29304 260.047 2.75116C256.499 -0.370381 256.152 -5.77816 259.274 -9.32698C262.395 -12.8758 267.803 -13.2222 271.352 -10.1007C274.271 -7.53285 275.072 -3.33901 273.382 0.0996138L274.552 0.671832Z" fill="#1A1A1A"/>
<path d="M365.408 43.5552C366.29 43.7003 367.429 39.6453 367.631 38.9762C368.89 34.8132 369.502 30.1725 371.3 26.2157C370.779 25.7138 370.48 25.4459 370.132 25.194C369.505 24.7397 368.819 24.3118 368.094 23.873C368.059 24.0184 368 24.3002 367.969 24.3882C367.102 26.8186 365.548 31.1689 362.938 32.2454C360.689 30.661 358.411 29.1161 356.644 26.9694C354.799 24.7283 353.457 21.8248 352.201 19.2081C351.713 18.1918 351.376 16.9472 350.6 16.0987C350.181 15.6397 349.614 15.2444 349.007 14.8755C345.529 13.6567 342.142 12.7471 338.723 12.1617C338.154 12.0642 337.708 11.9649 336.708 11.7289C336.614 11.7065 336.568 11.6951 336.516 11.6828C335.604 11.4679 334.935 11.3362 334.354 11.2541C334.357 11.3891 334.366 11.6526 334.363 11.7067C334.212 14.5304 335.911 18.0565 337.655 20.22C343.913 27.9858 351.771 33.2022 360.08 38.5412C361.485 39.4441 362.901 40.4755 364.033 41.7114C364.248 41.9467 365.17 43.5165 365.408 43.5552Z" fill="#1A1A1A"/>
<path d="M332.295 66.0871C335.257 65.5852 338.225 64.2664 340.484 62.3223C342.709 60.4067 344.181 56.9824 344.583 54.1184C344.697 53.3068 344.75 52.2862 344.918 51.3144C344.898 51.316 344.879 51.3154 344.86 51.3167C345.03 50.7208 345.196 50.0657 345.004 49.6959C344.917 49.528 344.367 49.5297 344.213 49.4892C343.544 49.3152 342.843 48.8934 342.225 48.5671C342.199 48.5532 342.182 48.5271 342.156 48.5126C344.269 48.8333 347.337 48.3696 349.377 47.482C350.335 46.9953 351.262 46.466 352.18 45.9342C354.168 44.7015 357.059 42.4786 354.657 41.7718C353.666 41.4802 352.1 42.5713 351.154 42.7844C348.79 43.3166 345.667 42.8753 343.404 42.107C340.843 41.2369 337.773 36.6145 335.58 36.7691C334.12 36.8722 333.729 38.292 332.904 39.3151C331.905 40.5517 330.955 41.4859 329.81 42.1937C329.697 42.3502 329.556 42.4915 329.377 42.5934C329.357 42.6052 329.361 42.6119 329.34 42.6236C328.368 43.1758 324.381 45.2478 323.495 45.7387C319.052 48.1983 316.304 50.5034 314.973 53.2916C315.231 54.3962 315.872 55.465 316.204 56.5192C317.052 59.2089 318.485 61.8919 320.556 63.8717C321.116 64.2311 321.854 64.7537 322.371 65.0207C323.485 65.597 324.756 65.8292 326.929 65.9529C327.149 65.9651 328.653 66.0445 329.007 66.0686C330.171 66.1481 331.237 66.1263 332.295 66.0871Z" fill="#1A1A1A"/>
<path d="M322.145 36.9651C322.944 36.6848 323.366 35.8071 323.085 35.0076C322.805 34.2081 321.928 33.786 321.128 34.0667C320.328 34.347 319.912 35.2229 320.192 36.0224C320.473 36.8217 321.345 37.2455 322.145 36.9651ZM299.795 44.8046C300.595 44.5243 301.016 43.6466 300.736 42.847C300.456 42.0475 299.578 41.6255 298.778 41.9062C297.979 42.1865 297.563 43.0624 297.843 43.8619C298.124 44.6611 298.996 45.085 299.795 44.8046ZM319.348 35.3566C320.148 35.0762 320.564 34.2003 320.284 33.4008C320.004 32.6013 319.131 32.1775 318.332 32.4578C317.533 32.7382 317.11 33.6162 317.391 34.4157C317.671 35.2149 318.549 35.6369 319.348 35.3566ZM300.979 41.7999C301.779 41.5196 302.201 40.6416 301.921 39.8421C301.64 39.0428 300.762 38.6208 299.963 38.9011C299.163 39.1818 298.741 40.0595 299.022 40.859C299.302 41.6585 300.18 42.0803 300.979 41.7999ZM315.975 34.1415C316.775 33.8611 317.198 32.9888 316.918 32.1892C316.638 31.3898 315.76 30.968 314.96 31.2484C314.161 31.5287 313.739 32.4067 314.02 33.2059C314.3 34.0054 315.176 34.4218 315.975 34.1415ZM302.855 38.7437C303.654 38.4634 304.072 37.5928 303.792 36.7936C303.511 35.9941 302.639 35.5703 301.84 35.8506C301.04 36.131 300.618 37.009 300.898 37.8085C301.179 38.6077 302.055 39.0244 302.855 38.7437ZM312.311 34.0828C313.11 33.8024 313.527 32.9263 313.246 32.127C312.966 31.3275 312.094 30.9037 311.294 31.184C310.495 31.4644 310.073 32.3424 310.353 33.1419C310.634 33.9411 311.511 34.3632 312.311 34.0828ZM305.679 36.4088C306.479 36.1285 306.9 35.2508 306.62 34.4513C306.34 33.6518 305.462 33.23 304.662 33.5104C303.863 33.7908 303.447 34.6667 303.727 35.4662C304.007 36.2657 304.88 36.6895 305.679 36.4088ZM309.024 35.1001C309.824 34.8195 310.24 33.9436 309.959 33.1444C309.679 32.3449 308.807 31.921 308.007 32.2014C307.208 32.4818 306.786 33.3598 307.067 34.159C307.347 34.9585 308.225 35.3805 309.024 35.1001Z" fill="#1A1A1A"/>
<path d="M318.096 22.7537C319.033 22.6986 319.945 22.4582 320.772 21.9573C321.059 21.7832 321.331 21.5793 321.579 21.3538C321.84 21.117 322.077 20.8567 322.263 20.5572C322.955 19.4474 322.712 18.2294 322.238 17.0878C321.971 16.4442 321.638 15.8295 321.346 15.1972C321.139 14.7495 320.947 14.2782 320.863 13.7903C320.809 13.4709 320.811 13.1412 320.835 12.8188C320.939 11.4133 321.633 10.135 322.265 8.90588C322.561 8.33062 322.839 7.75141 323.073 7.15527C323.431 7.32574 323.796 7.48841 324.131 7.68283C324.894 7.41945 325.312 6.91309 325.796 5.83893C325.851 5.71699 325.943 5.50161 326.063 5.22232C326.111 5.02163 326.17 4.71847 326.211 4.58742C327.187 1.53999 329.964 -6.63125 329.059 -10.8075C328.978 -10.8286 328.905 -10.853 328.823 -10.8735C327.393 -11.2319 326.196 -11.4339 323.568 -11.8061C319.743 -12.3479 316.059 -12.3926 311.407 -12.0433C303.866 -11.4773 300.084 -10.2729 295.716 -6.58171C295.893 -2.4861 300.004 4.70005 301.421 7.50929C301.698 7.90845 302.049 8.4212 302.194 8.61311C302.607 9.16142 302.954 9.47709 303.365 9.61912C303.597 9.41708 303.826 9.23684 304.058 9.04928C304.244 9.71097 304.472 10.3626 304.737 10.9957C305.334 12.422 306.074 13.7884 306.901 15.0938C307.725 16.3937 308.643 17.6391 309.667 18.7888C310.758 20.0152 311.981 21.183 313.511 21.8287C314.911 22.4191 316.536 22.8451 318.096 22.7537ZM318.313 21.7725C316.719 21.9344 314.992 21.4303 313.586 20.8007C312.986 20.5323 312.446 20.1173 311.951 19.6913C311.395 19.2129 310.883 18.6899 310.397 18.1417C309.41 17.0305 308.53 15.8198 307.736 14.5646C306.904 13.2501 306.155 11.8744 305.57 10.4317C305.301 9.77081 305.073 9.09155 304.904 8.39772C306.048 7.5645 307.205 6.89989 308.429 6.43712C312.583 4.86571 317.992 5.04431 322.218 6.75921C321.922 7.52201 321.54 8.25805 321.168 8.99152C320.471 10.3674 319.831 11.8162 319.886 13.3934C319.943 14.9823 320.951 16.3022 321.485 17.7476C321.762 18.4987 321.906 19.3386 321.457 20.0544C321.315 20.2793 321.135 20.4689 320.94 20.646C320.175 21.3366 319.269 21.675 318.313 21.7725Z" fill="#1A1A1A"/>
<path d="M354.968 5.46436C356.158 5.72119 357.328 4.96097 357.585 3.77128L362.655 -19.7125C362.912 -20.9022 362.16 -22.0775 360.97 -22.3344L349.647 -24.779C348.457 -25.0359 347.287 -24.2757 347.03 -23.0859L341.96 0.397808C341.703 1.58752 342.455 2.76281 343.645 3.01967L354.968 5.46436ZM355.291 4.79501C354.606 4.64707 354.168 3.97623 354.315 3.29116C354.463 2.60607 355.141 2.16925 355.826 2.31716C356.511 2.46507 356.941 3.14105 356.793 3.82614C356.645 4.51117 355.976 4.94287 355.291 4.79501ZM352.58 2.26636C351.895 2.1185 351.464 1.4425 351.612 0.757437C351.76 0.0723753 352.431 -0.365858 353.116 -0.217944C353.801 -0.0700843 354.238 0.607318 354.09 1.29235C353.942 1.97745 353.265 2.41427 352.58 2.26636ZM356.163 0.754629C355.478 0.606715 355.041 -0.0706927 355.189 -0.755755C355.337 -1.44079 356.013 -1.87105 356.698 -1.72322C357.383 -1.57528 357.815 -0.905789 357.667 -0.220781C357.519 0.46431 356.848 0.902489 356.163 0.754629Z" fill="#1A1A1A"/>
<path d="M383.432 15.8861L384.056 13.1956L380.46 11.5668L378.769 13.4889L380.724 16.983L383.432 15.8861ZM382.552 11.6718C384.5 7.70831 383.576 2.87972 380.212 -0.0792619C376.123 -3.67609 369.892 -3.27696 366.295 0.812299C362.698 4.90153 363.097 11.1328 367.187 14.7297C370.517 17.6587 375.359 17.9856 379.033 15.6197L378.329 14.527C375.141 16.5798 370.937 16.293 368.047 13.7512C364.499 10.6296 364.152 5.22184 367.274 1.67302C370.395 -1.87577 375.803 -2.22222 379.352 0.899288C382.271 3.46715 383.072 7.66099 381.382 11.0996L382.552 11.6718Z" fill="#1A1A1A"/>
<path d="M76.4368 185.224C78.6149 192.077 76.1498 228.233 69.4552 232.908C67.7342 234.11 66.857 232.921 65.5535 232.019C62.1579 229.673 46.7491 221.204 45.3539 217.951C44.3471 215.605 49.453 204.573 49.8596 201.489C50.1662 199.164 54.7419 170.028 56.3761 169.853C61.6766 169.284 75.3536 181.814 76.4368 185.224Z" fill="white"/>
<path d="M-78.0967 0.943228C-79.7371 0.889938 -81.1062 2.19268 -81.1594 3.83304C-81.5748 16.6292 -80.9908 29.3957 -79.117 42.0683C-73.4263 80.5569 -57.0976 116.97 -34.2828 148.317C-4.38107 189.402 36.8118 222.789 83.2923 243.355C91.7057 247.077 100.303 250.318 109.037 253.199C110.596 253.714 112.287 252.865 112.801 251.306C113.315 249.748 112.467 248.057 110.908 247.542C102.358 244.721 93.9392 241.555 85.7029 237.911C40.1759 217.767 -0.197677 185.059 -29.4856 144.817C-51.7367 114.244 -67.6804 78.727 -73.2309 41.186C-75.0527 28.8646 -75.6361 16.4681 -75.2321 4.02684C-75.1789 2.38656 -76.4564 0.996518 -78.0967 0.943228Z" fill="white"/>
<path d="M-39.5126 -16.8506C-41.1535 -16.8817 -42.5001 -15.5743 -42.5311 -13.9334C-42.8103 0.827888 -41.6759 15.5581 -38.9904 30.0812C-31.3987 71.1373 -12.0378 109.98 16.4382 140.542C23.4331 148.05 30.9859 155.04 39 161.449C43.5918 165.119 48.3542 168.531 53.1461 171.931C57.9168 175.317 62.7363 178.668 67.5931 181.929C87.3777 195.21 108.124 207.462 130.965 214.667C132.531 215.162 134.194 214.289 134.687 212.724C135.181 211.159 134.309 209.496 132.743 209.002C109.854 201.782 89.0021 189.342 69.2647 175.904C64.4877 172.652 59.7555 169.341 55.0428 165.997C50.8583 163.028 46.6976 160.026 42.6891 156.821C34.9001 150.593 27.594 143.785 20.7967 136.489C-6.9118 106.75 -25.7698 68.9566 -33.1568 29.0075C-35.7696 14.8775 -36.8692 0.552698 -36.5976 -13.809C-36.5665 -15.4499 -37.8717 -16.8196 -39.5126 -16.8506Z" fill="white"/>
<path d="M111.489 244.775C111.108 244.711 110.716 244.735 110.317 244.831C108.722 245.213 107.742 246.81 108.124 248.406C109.026 252.159 110.335 255.781 112.294 259.117C113.5 261.167 114.94 263.074 116.551 264.822C127.689 276.911 145.881 279.108 161.374 277.116C164.014 276.777 166.648 276.306 169.244 275.716C172.582 274.958 175.843 273.964 179.068 272.817C180.614 272.267 181.412 270.564 180.862 269.018C180.311 267.472 178.609 266.674 177.063 267.224C173.8 268.385 170.511 269.355 167.125 270.09C164.435 270.674 161.72 271.13 158.983 271.418C145.708 272.82 129.743 270.919 120.443 260.261C119.314 258.967 118.291 257.57 117.421 256.09C115.759 253.261 114.656 250.206 113.894 247.024C113.606 245.827 112.631 244.964 111.489 244.775ZM184.51 251.355C182.891 251.086 181.361 252.173 181.092 253.792C180.824 255.411 181.911 256.94 183.529 257.21C186.374 257.682 189.202 258.284 191.921 259.261C193.271 259.746 194.586 260.319 195.812 261.064C196.663 261.581 197.486 262.195 198.159 262.934C198.54 263.352 198.883 263.796 199.129 264.306C200.675 267.503 197.837 271.182 195.692 273.316C195.202 273.802 194.693 274.271 194.165 274.714C192.833 275.832 191.406 276.83 189.904 277.704C188.554 278.489 187.148 279.174 185.704 279.767C184.746 280.161 183.757 280.502 182.766 280.803C177.649 282.357 170.593 283.01 166.755 278.449C165.915 277.451 165.368 276.313 164.893 275.107C164.289 273.582 162.561 272.843 161.035 273.448C159.509 274.053 158.748 275.778 159.353 277.304C160.069 279.104 160.954 280.785 162.207 282.275C168.352 289.576 179.041 288.709 187.104 285.607C188.533 285.057 189.932 284.416 191.288 283.706C192.889 282.869 194.438 281.941 195.906 280.889C197.769 279.554 199.51 278.038 201.034 276.323C204.781 272.108 207.174 266.292 204.096 260.984C203.515 259.982 202.753 259.093 201.919 258.29C200.24 256.674 198.206 255.454 196.086 254.515C192.408 252.883 188.464 252.012 184.51 251.355ZM199.37 238.542C197.696 238.323 196.049 238.33 194.367 238.434C192.729 238.536 191.482 239.944 191.584 241.582C191.686 243.22 193.095 244.468 194.733 244.365C200.999 243.966 207.407 246.599 211.503 251.405C212.343 252.391 213.07 253.471 213.606 254.652C213.92 255.344 214.163 256.087 214.292 256.836C214.914 260.474 212.395 262.934 209.371 264.475C207.379 265.491 205.239 266.1 203.068 266.601C201.469 266.971 200.459 268.574 200.829 270.173C201.199 271.772 202.803 272.759 204.402 272.389C207.723 271.621 211.015 270.57 213.902 268.714C215.162 267.904 216.328 266.939 217.315 265.81C218.093 264.92 218.766 263.936 219.264 262.864C221.729 257.56 219.634 251.784 216.029 247.554C211.878 242.684 205.707 239.373 199.37 238.542ZM207.031 220.337C204.665 220.267 202.275 220.599 199.938 221.413C198.389 221.953 197.582 223.637 198.124 225.186C198.664 226.735 200.345 227.565 201.895 227.024C208.502 224.71 215.794 227.94 220.156 233.058C221.252 234.345 222.198 235.782 222.864 237.34C223.274 238.298 223.553 239.285 223.734 240.31C224.48 244.543 222.149 247.854 218.818 250.188C217.475 251.13 217.145 252.997 218.087 254.34C219.03 255.684 220.873 256.011 222.217 255.069C224.048 253.783 225.72 252.281 227.023 250.451C231.598 244.025 230.032 236.064 225.394 230.088C220.984 224.406 214.127 220.549 207.031 220.337ZM206.874 203.491C196.831 202.138 186.11 203.651 176.19 204.29C174.552 204.396 173.298 205.824 173.404 207.462C173.51 209.1 174.94 210.33 176.578 210.225C184.027 209.744 191.489 208.84 198.962 208.92C205.589 208.991 212.349 209.936 218.195 213.248C219.232 213.835 220.214 214.481 221.164 215.199C221.922 215.772 222.652 216.388 223.351 217.032C224.094 217.718 224.817 218.446 225.482 219.209C226.01 219.812 226.258 220.125 226.738 220.77C228.056 222.538 229.841 225.667 228.353 227.819C227.813 228.6 227.031 229.119 226.231 229.605C224.829 230.46 224.396 232.287 225.25 233.689C226.105 235.09 227.93 235.547 229.332 234.692C230.641 233.89 231.85 232.979 232.816 231.772C233.411 231.028 233.909 230.203 234.254 229.315C236.368 223.883 232.714 218.183 229.12 214.366C228.551 213.762 228 213.209 227.39 212.646C226.291 211.631 225.117 210.692 223.895 209.831C218.667 206.152 212.9 204.302 206.874 203.491ZM189.19 174.895C186.716 174.792 184.096 175.423 181.937 176.189C180.984 176.526 180.046 176.929 179.126 177.353C177.554 178.077 175.999 178.901 174.58 179.896C172.978 181.021 171.465 182.286 169.915 183.479C167.317 185.479 164.699 187.465 162.072 189.427C152.159 196.832 141.939 204.008 130.633 209.135C129.139 209.813 128.477 211.562 129.155 213.056C129.832 214.551 131.581 215.213 133.076 214.535C149.397 207.133 163.464 195.806 177.63 185.025C178.846 184.1 180.21 183.369 181.593 182.731C183.53 181.838 185.587 181.136 187.71 180.867C188.669 180.746 190.633 180.655 190.849 181.972C191.001 182.898 190.612 183.91 190.246 184.737C189.414 186.618 188.205 188.329 186.969 189.962C184.31 193.474 181.262 196.679 178.335 199.964C176.662 201.842 174.865 203.749 173.746 206.025C173.028 207.501 173.631 209.278 175.107 209.997C176.582 210.714 178.36 210.111 179.078 208.635C179.549 207.652 180.284 206.795 180.979 205.965C182.057 204.676 183.205 203.44 184.332 202.193C187.254 198.958 190.202 195.7 192.737 192.146C194.304 189.949 195.782 187.544 196.478 184.912C196.818 183.627 196.954 182.266 196.725 180.948C196.543 179.899 196.132 178.914 195.522 178.04C193.985 175.833 191.665 174.999 189.19 174.895Z" fill="white"/>
<path d="M-36.9794 -27.4972C-37.226 -27.4876 -38.0694 -27.4702 -38.1325 -27.4676C-40.9931 -27.3478 -42.8028 -27.2273 -43.886 -27.0817C-44.0773 -27.0559 -44.2247 -27.0424 -44.3314 -27.021C-63.1531 -23.2491 -76.8755 -18.0348 -86.7615 -10.0358C-86.9101 -9.87963 -87.0989 -9.72983 -87.2439 -9.57252C-87.5362 -9.25534 -87.6958 -8.93869 -87.9737 -8.6244C-88.0082 -8.3287 -88.0587 -8.02048 -88.0842 -7.78865C-88.2025 -6.71198 -88.8218 -1.38843 -88.9288 -0.422424C-89.5105 4.83775 -89.8006 8.54111 -89.918 12.2088C-90.5804 32.9096 -89.039 58.2889 -85.7112 74.0722C-75.6026 122.02 -58.9041 161.078 -29.6638 208.191C-28.2315 210.498 -24.971 215.924 -22.8152 219.477C-13.5584 229.525 2.84855 247.416 17.7994 249.965C34.3155 243.738 46.9699 231.526 55.6437 214.356C62.0661 201.644 66.1092 186.525 67.6729 170.627C67.6472 169.135 67.6058 167.096 67.5964 166.662C67.5691 165.39 67.3483 164.861 67.2358 163.956C64.3962 162.795 61.5626 161.584 58.9721 159.984C43.1925 150.239 28.3084 138.222 16.8463 123.47C1.41692 103.613 -16.7242 72.1779 -21.3282 47.1906C-24.8742 27.947 -22.0536 5.74542 -27.1562 -12.8594C-28.6461 -18.2921 -32.2746 -23.324 -36.9794 -27.4972Z" fill="#FF5900"/>
<path d="M94.6234 221.348C92.848 231.035 83.2044 240.907 73.0526 245.524C73.7734 246.629 74.9276 247.677 75.6769 248.268C78.4974 250.492 85.509 253.995 89.2236 252.928C90.9538 252.431 92.4954 250.801 93.6647 249.512C98.6126 244.06 100.317 237.956 101.961 230.987C102.29 229.592 102.672 227.829 102.881 226.131C101.182 225.794 99.5288 225.014 96.9065 223.012C96.1201 222.411 95.8709 222.216 95.4834 221.934C95.1624 221.701 94.8981 221.533 94.6234 221.348Z" fill="#FFCA00"/>
<path d="M111.266 183.389C110.64 183.248 109.919 183.35 109.244 183.305C105.034 183.998 101.007 184.847 97.104 185.812C97.8887 186.602 98.6602 187.432 99.3166 188.62C100.206 189.925 101.118 191.155 102.484 190.974C105.454 190.58 109.928 190.87 112.244 192.647C112.653 192.961 112.928 193.473 113.247 193.89C114.084 191.644 114.815 189.395 115.418 187.186C115.258 186.208 114.925 185.304 114.157 184.703C113.338 184.061 112.359 183.634 111.266 183.389Z" fill="#FFCA00"/>
<path d="M90.7019 205.998C91.4139 198.235 98.2855 192.518 106.049 193.23C113.813 193.942 119.53 200.813 118.818 208.577C118.106 216.341 111.235 222.058 103.471 221.346C95.7071 220.634 89.9899 213.763 90.7019 205.998Z" fill="#FFCA00"/>
<path d="M195.177 178.884C197.569 175.246 202.053 172.118 206.68 172.288C213.792 172.548 220.361 176.354 216.488 184.176C213.584 190.044 209.875 195.476 206.602 201.141C206.018 202.151 204.596 205.304 203.547 205.842C203.308 205.964 199.904 205.608 199.803 205.602C197.2 205.431 194.517 205.533 191.949 206.012C188.102 206.729 184.311 207.634 180.446 208.243C179.447 208.4 177.997 209.142 177.805 207.179C177.627 205.373 182.225 200.053 183.323 198.648C186.611 194.44 189.705 189.027 191.952 184.187" fill="white"/>
<path d="M227.174 76.1368C195.999 73.2781 168.422 96.2227 165.563 127.397C162.704 158.572 185.649 186.149 216.823 189.008C247.998 191.867 275.609 168.925 278.468 137.751C281.327 106.576 258.348 78.9956 227.174 76.1368ZM225.755 91.6046C248.378 93.6792 265.041 113.706 262.967 136.329C260.892 158.952 240.864 175.615 218.242 173.541C195.619 171.466 178.956 151.438 181.03 128.816C183.105 106.193 203.132 89.5301 225.755 91.6046Z" fill="white"/>
<path d="M264.885 109.61C264.515 109.524 264.121 109.573 263.773 109.788C263.075 110.22 262.851 111.12 263.284 111.818C264.272 113.416 265.233 115.035 266.002 116.754C267.828 120.835 268.61 125.185 268.27 129.645C268.208 130.463 268.821 131.176 269.639 131.238C270.457 131.301 271.171 130.687 271.233 129.869C271.608 124.917 270.728 120.087 268.699 115.556C267.876 113.717 266.886 111.967 265.827 110.256C265.612 109.908 265.255 109.697 264.885 109.61Z" fill="black"/>
<path d="M269.469 136.142C268.672 135.946 267.886 136.441 267.69 137.238C267.602 137.595 267.516 137.953 267.428 138.31C267.233 139.106 267.702 139.914 268.499 140.11C269.296 140.306 270.105 139.813 270.301 139.016C270.389 138.659 270.475 138.301 270.562 137.944C270.758 137.148 270.266 136.338 269.469 136.142Z" fill="black"/>
<path d="M206.728 187.274C206.357 187.351 206.034 187.57 205.807 187.913C203.925 190.767 202.037 193.611 200.151 196.463C199.028 198.161 197.703 199.739 197.015 201.677C196.742 202.451 197.139 203.305 197.913 203.579C198.687 203.852 199.54 203.454 199.814 202.68C200.408 200.99 201.635 199.588 202.611 198.11C204.498 195.258 206.387 192.392 208.27 189.537C208.722 188.852 208.536 187.946 207.851 187.494C207.509 187.268 207.101 187.198 206.728 187.274Z" fill="black"/>
<path d="M213.113 198.747C212.68 198.72 212.227 198.776 211.791 198.929C210.05 199.543 209.154 201.455 209.768 203.197C211.797 208.913 209.831 215.217 206.19 219.841C205.049 221.293 205.31 223.392 206.763 224.533C208.214 225.673 210.314 225.412 211.454 223.961C216.543 217.475 218.847 208.928 216.057 200.976C215.596 199.67 214.414 198.827 213.113 198.747Z" fill="#FFCA00"/>
<path d="M-78.1756 -4.51727C-78.1756 -4.51727 -72.016 89.5617 -44.1134 148.608C-16.2108 207.655 18.8596 223.216 18.8596 223.216" stroke="black" stroke-width="4" stroke-miterlimit="10" stroke-linejoin="round" stroke-dasharray="13 13"/>
<path d="M220.547 115.45C220.547 115.45 221.944 112.331 228.244 112.957C234.82 113.433 235.563 116.827 235.563 116.827L232.156 153.984C232.156 153.984 228.394 153.674 224.641 153.33C220.887 152.986 217.14 152.607 217.14 152.607L220.547 115.45Z" fill="white"/>
<path d="M228.293 133.649C227.476 133.567 226.761 134.153 226.679 134.97C226.662 135.139 226.627 135.307 226.61 135.476C226.528 136.293 227.135 137.032 227.952 137.114C228.768 137.196 229.485 136.587 229.567 135.77C229.584 135.601 229.62 135.433 229.637 135.264C229.718 134.447 229.11 133.73 228.293 133.649Z" fill="black"/>
<path d="M227.535 111.408C226.613 111.373 225.715 111.41 224.821 111.509C223.821 111.618 222.826 111.829 221.871 112.148C219.981 112.777 218.005 113.896 216.826 115.555C216.354 116.226 216.502 117.143 217.174 117.615C217.845 118.087 218.785 117.941 219.257 117.27C219.21 117.329 219.342 117.129 219.391 117.072C219.425 117.033 219.459 117.002 219.494 116.965C219.651 116.799 219.829 116.646 220.003 116.499C220.572 116.021 221.206 115.624 221.883 115.319C223.876 114.421 226.08 114.283 228.235 114.456C230.356 114.627 232.512 115.221 234.278 116.432C234.886 116.85 235.442 117.343 235.914 117.912C236.058 118.085 236.183 118.271 236.307 118.46C236.357 118.538 236.402 118.626 236.447 118.707C236.465 118.737 236.526 118.813 236.51 118.782C236.855 119.527 237.726 119.866 238.471 119.521C239.215 119.177 239.557 118.282 239.212 117.537C238.443 115.901 236.955 114.578 235.442 113.648C233.124 112.222 230.3 111.511 227.535 111.408Z" fill="white"/>
<path d="M216.388 151.091C215.571 151.017 214.847 151.618 214.773 152.435C214.698 153.252 215.3 153.976 216.116 154.05C221.663 154.559 227.217 155.069 232.762 155.577C233.58 155.651 234.303 155.05 234.378 154.233C234.453 153.416 233.851 152.692 233.034 152.617C227.488 152.109 221.934 151.599 216.388 151.091Z" fill="white"/>
<path d="M229.579 117.843C228.762 117.769 228.038 118.37 227.963 119.187C227.627 122.91 227.299 126.633 226.963 130.356C226.889 131.173 227.489 131.897 228.307 131.971C229.124 132.045 229.848 131.444 229.922 130.627C230.258 126.904 230.586 123.182 230.923 119.459C230.997 118.641 230.396 117.917 229.579 117.843Z" fill="black"/>
</g>
<defs>
<clipPath id="clip0_341_4651">
<rect width="363" height="349" fill="white"/>
</clipPath>
</defs>
</svg>
