<svg width="390" height="148" viewBox="0 0 390 148" fill="none" xmlns="http://www.w3.org/2000/svg">
<path d="M127.848 49.8911C120.157 49.8911 113.921 56.127 113.921 63.8186C113.921 66.2722 114.56 68.5684 115.674 70.5707C115.145 71.1881 114.614 71.8083 114.099 72.4572C109.059 78.8028 105.321 85.8676 103.455 93.5898C101.484 101.741 102.083 109.616 104.851 116.773C107.204 122.855 111.059 128.177 115.577 132L120.182 126.555C116.561 123.492 113.414 119.146 111.499 114.195C109.246 108.37 108.762 101.976 110.385 95.2611C111.987 88.6325 115.248 82.4775 119.685 76.8917C120.003 76.4907 120.334 76.1133 120.658 75.7255C122.759 76.9963 125.214 77.746 127.848 77.746C135.54 77.746 141.776 71.5099 141.776 63.8186C141.776 56.127 135.54 49.8911 127.848 49.8911Z" fill="#FF5900"/>
<path d="M125.471 82.2693C122.037 87.1057 125.392 117.556 143.14 110.292C163.854 101.813 158.118 89.9321 146.16 81.8846C134.202 73.8371 167.051 101.54 172.891 83.2743C179.706 61.9545 149.317 62.3392 149.317 62.3392C149.317 62.3392 181.146 60.3678 173.085 42.968C163.676 22.6589 149.273 33.2752 141.776 45.586C134.278 57.897 158.834 19.0845 139.848 16.3928C110.309 12.2053 122.037 42.8768 122.037 42.8768C122.037 42.8768 115.015 10.7645 100.196 22.936C82.8995 37.1426 93.3915 49.0126 107.19 53.1787C120.989 57.3448 80.8289 37.6934 78.1549 56.6825C75.0341 78.8467 92.8933 77.7485 105.872 71.4781C118.851 65.2076 95.2212 61.7421 95.2212 61.7421C95.2212 61.7421 109.144 60.0485 112.311 55.3719C115.479 50.6951 108.868 38.5621 108.868 38.5621C108.868 38.5621 120.009 48.7594 125.246 47.263C130.483 45.7663 132.729 32.6532 132.729 32.6532C132.729 32.6532 132.6 46.2311 137.09 49.5063C141.58 52.7814 156.918 48.5304 156.918 48.5304C156.918 48.5304 144.689 56.0117 144.734 61.2502C144.753 63.3831 145.367 67.6281 148.293 70.1443C152.552 73.8082 159.629 75.4769 159.629 75.4769C159.629 75.4769 152.048 73.4858 146.977 73.6016C141.906 73.717 139.345 75.9397 139.345 75.9397C139.345 75.9397 138.019 80.0652 137.964 84.8504C137.909 89.6357 139.124 95.0803 139.124 95.0803C139.124 95.0803 136.597 90.4823 133.312 86.8413C130.239 83.435 126.429 80.9199 125.471 82.2693Z" fill="#FF5900"/>
<path d="M65.1619 78.1348C65.1619 78.1348 59.4227 92.4353 69.9944 105.495C81.2259 119.37 92.4542 112.224 96.3273 109.023C95.0902 106.263 92.4059 101.251 87.9485 98.5991C81.6555 94.8549 74.818 93.4271 74.818 93.4271C74.818 93.4271 84.4982 94.068 89.5029 97.3751C94.5431 100.706 97.0959 103.298 98.3728 104.789C98.8847 100.519 98.6229 92.5224 90.405 88.148C78.8774 82.0119 72.3696 86.669 65.1619 78.1348Z" fill="#FF5900"/>
<path d="M192.804 75.44C192.804 76.304 192.388 76.72 191.524 76.72H189.604C188.74 76.72 188.324 76.304 188.324 75.44V54.64C188.324 53.776 188.74 53.36 189.604 53.36H191.524C192.388 53.36 192.804 53.776 192.804 54.64V55.824C193.924 54.64 195.524 54 197.284 54C200.996 54 204.036 57.232 204.036 62.192C204.036 67.216 200.516 70.384 196.004 70.384C194.916 70.384 193.86 70.256 192.804 70V75.44ZM196.004 65.776C198.052 65.776 199.556 64.592 199.556 62.192C199.556 60.112 198.308 58.64 196.356 58.64C194.116 58.64 192.804 60.176 192.804 62.896V65.296C193.764 65.616 194.788 65.776 196.004 65.776ZM210.217 68.72C210.217 69.584 209.801 70 208.937 70H207.017C206.153 70 205.737 69.584 205.737 68.72V53.68C205.737 52.816 206.153 52.4 207.017 52.4H208.937C209.801 52.4 210.217 52.816 210.217 53.68V56.336C211.273 54.608 212.905 53.616 214.409 53.616C215.113 53.616 215.849 53.776 216.265 54.032C216.521 54.192 216.585 54.416 216.553 54.64L216.233 58.32C216.201 58.8 215.913 58.96 215.369 58.832C214.473 58.64 213.865 58.576 213.321 58.576C211.561 58.576 210.217 59.92 210.217 62.512V68.72ZM220.139 52.432C218.667 52.432 217.419 51.184 217.419 49.68C217.419 48.208 218.667 46.96 220.139 46.96C221.611 46.96 222.859 48.208 222.859 49.68C222.859 51.184 221.611 52.432 220.139 52.432ZM222.379 68.72C222.379 69.584 221.963 70 221.099 70H219.179C218.315 70 217.899 69.584 217.899 68.72V55.92C217.899 55.056 218.315 54.64 219.179 54.64H221.099C221.963 54.64 222.379 55.056 222.379 55.92V68.72ZM239.306 69.36C239.306 70.224 238.89 70.64 238.026 70.64H236.106C235.242 70.64 234.826 70.224 234.826 69.36V61.712C234.826 59.344 233.898 58.224 232.362 58.224C230.25 58.224 229.354 59.536 229.354 62.512V68.72C229.354 69.584 228.938 70 228.074 70H226.154C225.29 70 224.874 69.584 224.874 68.72V54C224.874 53.136 225.29 52.72 226.154 52.72H228.074C228.938 52.72 229.354 53.136 229.354 54V56.24C230.442 54.48 232.17 53.616 233.898 53.616C236.106 53.616 237.93 54.64 238.794 56.944C239.914 54.928 241.834 54 243.85 54C246.954 54 249.258 56.016 249.258 60.656V68.72C249.258 69.584 248.842 70 247.978 70H246.058C245.194 70 244.778 69.584 244.778 68.72V62.096C244.778 59.728 243.85 58.608 242.314 58.608C240.202 58.608 239.306 59.92 239.306 62.896V69.36ZM264.177 70.96H261.617C260.977 70.96 260.657 70.64 260.657 70V68.624C259.665 69.584 258.161 70.224 256.753 70.352C256.561 70.384 256.369 70.384 256.209 70.384C252.913 70.384 250.641 68.112 250.641 65.104C250.641 62.32 252.401 59.888 256.849 59.888C258.065 59.888 259.441 60.208 260.657 60.72C260.625 60.496 260.593 60.304 260.561 60.112C260.209 58.576 259.057 57.776 257.329 57.776C256.145 57.776 254.801 58.224 253.553 58.992C253.073 59.28 252.689 59.024 252.369 58.416L251.921 57.488L251.441 56.56C251.345 56.368 251.281 56.208 251.217 56.048C251.153 55.728 251.217 55.472 251.569 55.216C253.073 54.032 255.409 53.296 257.841 53.296C262.321 53.296 265.137 56.08 265.137 60.624V70C265.137 70.224 265.105 70.384 265.041 70.544C264.881 70.832 264.593 70.96 264.177 70.96ZM257.329 66.384C258.641 66.384 260.113 65.872 260.529 64.912C260.625 64.72 260.657 64.528 260.657 64.336V64.208C259.569 63.792 258.353 63.568 257.329 63.568C255.857 63.568 255.121 64.048 255.121 64.976C255.121 65.872 256.145 66.384 257.329 66.384ZM276.059 70H273.627C272.827 70 272.667 69.84 272.155 68.784L266.267 56.592C265.755 55.504 266.011 55.312 267.131 54.832L268.635 54.192C269.691 53.744 269.979 54.16 270.555 55.44L274.363 63.728L277.339 54.32C277.755 53.04 278.171 52.752 279.227 53.072L281.051 53.616C282.171 53.936 282.267 54.288 281.915 55.376L277.531 68.784C277.179 69.84 276.859 70 276.059 70ZM290.821 70.384C285.733 70.384 282.437 66.96 282.437 62C282.437 57.424 285.157 53.616 290.469 53.616C294.597 53.616 297.381 56.4 297.381 60.848C297.381 62.128 297.253 62.672 296.133 62.8L287.205 63.824C287.845 65.232 289.253 66.224 291.429 66.224C292.645 66.224 294.021 65.488 295.109 64.88C295.589 64.592 296.069 64.848 296.293 65.456L296.933 67.12C297.157 67.728 297.317 68.048 296.805 68.464C295.237 69.712 292.869 70.384 290.821 70.384ZM290.149 57.776C288.485 57.776 287.397 58.512 287.013 60.368L292.773 59.696C292.485 58.544 291.525 57.776 290.149 57.776ZM303.41 68.72C303.41 69.584 302.994 70 302.13 70H300.21C299.346 70 298.93 69.584 298.93 68.72V53.68C298.93 52.816 299.346 52.4 300.21 52.4H302.13C302.994 52.4 303.41 52.816 303.41 53.68V56.336C304.466 54.608 306.098 53.616 307.602 53.616C308.306 53.616 309.042 53.776 309.458 54.032C309.714 54.192 309.778 54.416 309.746 54.64L309.426 58.32C309.394 58.8 309.106 58.96 308.562 58.832C307.666 58.64 307.058 58.576 306.514 58.576C304.754 58.576 303.41 59.92 303.41 62.512V68.72ZM323.765 70.96H321.205C320.565 70.96 320.245 70.64 320.245 70V68.624C319.253 69.584 317.749 70.224 316.341 70.352C316.149 70.384 315.957 70.384 315.797 70.384C312.501 70.384 310.229 68.112 310.229 65.104C310.229 62.32 311.989 59.888 316.437 59.888C317.653 59.888 319.029 60.208 320.245 60.72C320.213 60.496 320.181 60.304 320.149 60.112C319.797 58.576 318.645 57.776 316.917 57.776C315.733 57.776 314.389 58.224 313.141 58.992C312.661 59.28 312.277 59.024 311.957 58.416L311.509 57.488L311.029 56.56C310.933 56.368 310.869 56.208 310.805 56.048C310.741 55.728 310.805 55.472 311.157 55.216C312.661 54.032 314.997 53.296 317.429 53.296C321.909 53.296 324.725 56.08 324.725 60.624V70C324.725 70.224 324.693 70.384 324.629 70.544C324.469 70.832 324.181 70.96 323.765 70.96ZM316.917 66.384C318.229 66.384 319.701 65.872 320.117 64.912C320.213 64.72 320.245 64.528 320.245 64.336V64.208C319.157 63.792 317.941 63.568 316.917 63.568C315.445 63.568 314.709 64.048 314.709 64.976C314.709 65.872 315.733 66.384 316.917 66.384Z" fill="white"/>
<path d="M191.305 105.76C191.305 106.4 190.985 106.72 190.345 106.72H189.705C189.065 106.72 188.745 106.4 188.745 105.76V84.96C188.745 84.32 189.065 84 189.705 84H190.345C190.985 84 191.305 84.32 191.305 84.96V86.592C192.521 85.056 194.313 84.32 196.105 84.32C199.689 84.32 202.537 87.52 202.537 92.48C202.537 97.28 199.561 100.32 195.785 100.32C194.377 100.32 192.777 99.904 191.305 99.232V105.76ZM195.785 97.6C198.185 97.6 199.977 95.936 199.977 92.48C199.977 88.992 197.897 87.04 195.593 87.04C193.353 87.04 191.305 88.992 191.305 91.552V96.224C192.681 97.152 194.249 97.6 195.785 97.6ZM215.741 99.04V97.728C214.461 99.328 212.541 100.32 210.557 100.32C207.517 100.32 205.309 98.528 205.309 94.368V85.28C205.309 84.64 205.629 84.32 206.269 84.32H206.909C207.549 84.32 207.869 84.64 207.869 85.28V93.248C207.869 96.192 209.245 97.6 211.453 97.6C213.693 97.6 215.741 95.648 215.741 93.088V84.32C215.741 83.68 216.061 83.36 216.701 83.36H217.341C217.981 83.36 218.301 83.68 218.301 84.32V99.04C218.301 99.68 217.981 100 217.341 100H216.701C216.061 100 215.741 99.68 215.741 99.04ZM224.63 99.36C224.63 100 224.31 100.32 223.67 100.32H223.03C222.39 100.32 222.07 100 222.07 99.36V84C222.07 83.36 222.39 83.04 223.03 83.04H223.67C224.31 83.04 224.63 83.36 224.63 84V86.048C225.622 84.768 227.062 84 228.79 84C229.526 84 230.294 84.192 230.71 84.416C230.934 84.544 230.966 84.672 230.934 84.96L230.614 86.944C230.55 87.328 230.326 87.36 230.006 87.296C229.11 87.136 228.534 87.04 228.054 87.04C226.102 87.04 224.63 88.672 224.63 90.912V99.36ZM244.649 100.64H243.369C242.953 100.64 242.729 100.416 242.729 100V98.656C241.673 99.68 240.041 100.32 238.281 100.32C238.057 100.32 237.833 100.32 237.641 100.288C234.697 100.032 232.713 97.888 232.713 95.104C232.713 92.48 234.281 90.208 238.281 90.208C239.721 90.208 241.353 90.464 242.729 91.04V90.752C242.729 87.872 241.129 86.4 238.441 86.4C237.193 86.4 235.753 86.848 234.505 87.616C234.249 87.776 234.025 87.68 233.897 87.424L233.417 86.464C233.353 86.304 233.257 86.144 233.193 85.984C233.065 85.696 233.161 85.44 233.385 85.28C234.697 84.384 236.713 83.68 238.953 83.68C242.857 83.68 245.289 86.016 245.289 90.624V100C245.289 100.416 245.065 100.64 244.649 100.64ZM238.441 97.6C240.745 97.6 242.729 96.32 242.729 94.912V93.568C241.385 93.056 239.753 92.768 238.441 92.768C236.329 92.768 235.273 93.632 235.273 94.976C235.273 96.64 236.745 97.6 238.441 97.6Z" fill="white"/>
</svg>
