<svg width="390" height="148" viewBox="0 0 390 148" fill="none" xmlns="http://www.w3.org/2000/svg">
<path d="M138.502 53.085C138.502 53.085 139.243 73.8794 139.185 90.5082C139.159 97.8 136.786 121.348 134.434 132" stroke="#AF52DE" stroke-width="6" stroke-miterlimit="10" stroke-linecap="round" stroke-linejoin="round"/>
<path d="M118.292 65.0044L140.463 78.8086L159.214 65.3819" stroke="#AF52DE" stroke-width="5" stroke-miterlimit="10" stroke-linecap="round" stroke-linejoin="round"/>
<path d="M114.761 87.2943L139.252 102.694L163.61 87.2268" stroke="#AF52DE" stroke-width="5" stroke-miterlimit="10" stroke-linecap="round" stroke-linejoin="round"/>
<path d="M159.215 111.161C174.51 108.676 196.087 76.8755 196.087 76.8755L175.721 74.6703L175.825 74.1184C175.825 74.1184 179.908 69.6871 185.184 66.2737C190.46 62.8604 197.906 60.3698 197.906 60.3698L187.583 54.0964L189.44 37.4255L172.522 39.1381L166.693 32.3235C166.693 32.3235 164.34 38.8603 161.04 43.4593C157.737 48.058 154.362 51.6142 154.362 51.6142L154.101 51.7136C154.101 51.7136 153.907 45.6914 155.277 39.5589C156.648 33.4263 160.214 26.4309 160.214 26.4309L148.454 29.1918L138.093 16L127.225 29.0794L118.292 28.304C118.292 28.304 121.195 34.6156 122.065 40.2096C122.931 45.8035 123.018 50.7065 123.018 50.7065L123.056 50.8195C123.056 50.8195 119.877 47.0836 116.835 42.3111C113.79 37.5382 111.799 30.8824 111.799 30.8824L105.605 37.3676L88.8057 34.7315L89.7474 51.4789L79.0938 57.1777C79.0938 57.1777 86.3922 60.0722 91.4742 63.7693C96.5562 67.4666 100.389 72.1146 100.389 72.1146L99.4623 72.8687L79.0938 75.0739C79.0938 75.0739 100.673 106.874 115.969 109.36" stroke="#AF52DE" stroke-width="5" stroke-miterlimit="10" stroke-linecap="round" stroke-linejoin="round"/>
<path d="M219.048 70.384C214.056 70.384 211.016 66.8 211.016 62C211.016 57.2 214.056 53.616 219.048 53.616C224.04 53.616 227.08 57.2 227.08 62C227.08 66.8 224.04 70.384 219.048 70.384ZM219.048 65.744C221 65.744 222.6 64.72 222.6 62C222.6 59.28 221 58.256 219.048 58.256C217.096 58.256 215.496 59.28 215.496 62C215.496 64.72 217.096 65.744 219.048 65.744ZM238.998 68.72V67.6C237.782 69.488 235.766 70.384 233.974 70.384C230.87 70.384 228.566 68.368 228.566 63.728V55.28C228.566 54.416 228.982 54 229.846 54H231.766C232.63 54 233.046 54.416 233.046 55.28V62.288C233.046 64.624 233.974 65.744 235.51 65.744C237.622 65.744 238.998 64.432 238.998 61.488V54C238.998 53.136 239.414 52.72 240.278 52.72H242.198C243.062 52.72 243.478 53.136 243.478 54V68.72C243.478 69.584 243.062 70 242.198 70H240.278C239.414 70 238.998 69.584 238.998 68.72ZM258.625 68.976C257.153 70.096 255.041 70.704 253.121 70.704C249.633 70.704 247.617 68.528 247.617 64.208V60.048L245.761 59.952C245.057 59.92 244.865 59.568 244.865 58.96V56.4C244.865 55.792 245.313 55.28 245.953 55.312L247.617 55.408V51.76C247.617 51.12 247.937 50.8 248.577 50.8H251.137C251.777 50.8 252.097 51.12 252.097 51.76V55.664L256.705 55.952C257.409 55.984 257.601 56.336 257.601 56.944V59.504C257.601 60.112 257.153 60.624 256.513 60.592L252.097 60.336V63.408C252.097 65.456 252.929 66.128 254.273 66.128C255.105 66.128 256.033 65.648 256.737 65.2C257.217 64.912 257.665 65.168 257.921 65.776L258.753 67.632C259.009 68.176 259.169 68.592 258.625 68.976ZM267.598 70.384C262.606 70.384 259.566 66.8 259.566 62C259.566 57.2 262.606 53.616 267.598 53.616C272.59 53.616 275.63 57.2 275.63 62C275.63 66.8 272.59 70.384 267.598 70.384ZM267.598 65.744C269.55 65.744 271.15 64.72 271.15 62C271.15 59.28 269.55 58.256 267.598 58.256C265.646 58.256 264.046 59.28 264.046 62C264.046 64.72 265.646 65.744 267.598 65.744ZM281.82 69.36C281.82 70.224 281.404 70.64 280.54 70.64H278.62C277.756 70.64 277.34 70.224 277.34 69.36V54C277.34 53.136 277.756 52.72 278.62 52.72H280.54C281.404 52.72 281.82 53.136 281.82 54V56.4C283.036 54.512 285.052 53.616 286.844 53.616C289.948 53.616 292.252 55.632 292.252 60.272V68.72C292.252 69.584 291.836 70 290.972 70H289.052C288.188 70 287.772 69.584 287.772 68.72V61.712C287.772 59.376 286.844 58.256 285.308 58.256C283.196 58.256 281.82 59.568 281.82 62.512V69.36ZM301.767 70.384C296.775 70.384 293.735 66.8 293.735 62C293.735 57.2 296.775 53.616 301.767 53.616C306.759 53.616 309.799 57.2 309.799 62C309.799 66.8 306.759 70.384 301.767 70.384ZM301.767 65.744C303.719 65.744 305.319 64.72 305.319 62C305.319 59.28 303.719 58.256 301.767 58.256C299.815 58.256 298.215 59.28 298.215 62C298.215 64.72 299.815 65.744 301.767 65.744Z" fill="black"/>
<path d="M211.648 88.544C211.648 85.92 213.408 84 217.12 84C218.496 84 220.608 84.48 221.6 85.12C221.856 85.28 221.952 85.536 221.824 85.824L221.12 87.264C220.992 87.52 220.736 87.616 220.48 87.52C219.328 87.04 218.016 86.72 216.928 86.72C215.136 86.72 214.208 87.392 214.208 88.544C214.208 91.616 222.496 90.528 222.496 95.936C222.496 98.624 220.352 100.32 216.704 100.32C215.136 100.32 212.832 99.68 211.584 98.88C211.328 98.72 211.232 98.464 211.36 98.176L212.064 96.736C212.192 96.448 212.416 96.384 212.672 96.512C214.144 97.248 215.648 97.6 216.896 97.6C218.912 97.6 219.936 96.992 219.936 95.936C219.936 92.864 211.648 93.952 211.648 88.544ZM235.594 99.04V97.728C234.314 99.328 232.394 100.32 230.41 100.32C227.37 100.32 225.162 98.528 225.162 94.368V85.28C225.162 84.64 225.482 84.32 226.122 84.32H226.762C227.402 84.32 227.722 84.64 227.722 85.28V93.248C227.722 96.192 229.098 97.6 231.306 97.6C233.546 97.6 235.594 95.648 235.594 93.088V84.32C235.594 83.68 235.914 83.36 236.554 83.36H237.194C237.834 83.36 238.154 83.68 238.154 84.32V99.04C238.154 99.68 237.834 100 237.194 100H236.554C235.914 100 235.594 99.68 235.594 99.04ZM252.996 100.64H251.716C251.3 100.64 251.076 100.416 251.076 100V98.656C250.02 99.68 248.388 100.32 246.628 100.32C246.404 100.32 246.18 100.32 245.988 100.288C243.044 100.032 241.06 97.888 241.06 95.104C241.06 92.48 242.628 90.208 246.628 90.208C248.068 90.208 249.7 90.464 251.076 91.04V90.752C251.076 87.872 249.476 86.4 246.788 86.4C245.54 86.4 244.1 86.848 242.852 87.616C242.596 87.776 242.372 87.68 242.244 87.424L241.764 86.464C241.7 86.304 241.604 86.144 241.54 85.984C241.412 85.696 241.508 85.44 241.732 85.28C243.044 84.384 245.06 83.68 247.3 83.68C251.204 83.68 253.636 86.016 253.636 90.624V100C253.636 100.416 253.412 100.64 252.996 100.64ZM246.788 97.6C249.092 97.6 251.076 96.32 251.076 94.912V93.568C249.732 93.056 248.1 92.768 246.788 92.768C244.676 92.768 243.62 93.632 243.62 94.976C243.62 96.64 245.092 97.6 246.788 97.6ZM264.325 100H262.501C262.181 99.968 262.053 99.84 261.893 99.552L255.493 85.664C255.397 85.44 255.461 85.184 255.717 85.056L257.157 84.384C257.381 84.288 257.669 84.352 257.797 84.608L263.173 96.384L267.077 84C267.173 83.744 267.429 83.648 267.685 83.712L269.349 84.224C269.605 84.288 269.733 84.576 269.637 84.832L264.965 99.552C264.869 99.84 264.645 100 264.325 100ZM278.888 100.32C274.024 100.32 270.856 97.088 270.856 92.32C270.856 87.968 273.48 84 278.088 84C281.576 84 284.52 86.592 284.52 91.456C284.52 92.096 284.424 92.32 283.848 92.384L273.544 93.568C273.992 95.872 275.816 97.568 278.888 97.568C280.456 97.568 282.152 97.12 283.112 96.608C283.4 96.48 283.592 96.576 283.688 96.832L284.232 98.24C284.36 98.56 284.328 98.784 284.04 98.976C283.016 99.712 280.808 100.32 278.888 100.32ZM277.928 86.72C275.592 86.72 273.928 88.288 273.512 91.008L281.736 90.048C281.48 88.096 279.944 86.72 277.928 86.72Z" fill="black"/>
</svg>
