<svg width="235" height="122" viewBox="0 0 235 122" fill="none" xmlns="http://www.w3.org/2000/svg">
<path d="M62.5015 40.085C62.5015 40.085 63.2432 60.8794 63.1853 77.5082C63.1592 84.8 60.7863 108.348 58.4336 119" stroke="#AF52DE" stroke-width="6" stroke-miterlimit="10" stroke-linecap="round" stroke-linejoin="round"/>
<path d="M42.292 52.0044L64.4626 65.8086L83.2144 52.3819" stroke="#AF52DE" stroke-width="5" stroke-miterlimit="10" stroke-linecap="round" stroke-linejoin="round"/>
<path d="M38.7607 74.2943L63.2522 89.6944L87.6104 74.2268" stroke="#AF52DE" stroke-width="5" stroke-miterlimit="10" stroke-linecap="round" stroke-linejoin="round"/>
<path d="M83.2147 98.1612C98.5099 95.6756 120.087 63.8755 120.087 63.8755L99.721 61.6703L99.8253 61.1184C99.8253 61.1184 103.908 56.6871 109.184 53.2737C114.46 49.8604 121.906 47.3698 121.906 47.3698L111.583 41.0964L113.44 24.4255L96.5223 26.1381L90.6928 19.3235C90.6928 19.3235 88.3401 25.8603 85.04 30.4593C81.737 35.058 78.3616 38.6142 78.3616 38.6142L78.1008 38.7136C78.1008 38.7136 77.9067 32.6914 79.2771 26.5589C80.6476 20.4263 84.2143 13.4309 84.2143 13.4309L72.4539 16.1918L62.0929 3L51.2248 16.0794L42.2923 15.304C42.2923 15.304 45.1954 21.6156 46.0646 27.2096C46.9309 32.8035 47.0178 37.7065 47.0178 37.7065L47.0555 37.8195C47.0555 37.8195 43.8771 34.0836 40.8349 29.3111C37.7897 24.5382 35.7992 17.8824 35.7992 17.8824L29.6047 24.3676L12.8057 21.7315L13.7474 38.4789L3.09375 44.1777C3.09375 44.1777 10.3922 47.0722 15.4742 50.7693C20.5562 54.4666 24.3894 59.1146 24.3894 59.1146L23.4623 59.8687L3.09375 62.0739C3.09375 62.0739 24.6734 93.8743 39.9686 96.3596" stroke="#AF52DE" stroke-width="5" stroke-miterlimit="10" stroke-linecap="round" stroke-linejoin="round"/>
<path d="M143.048 57.384C138.056 57.384 135.016 53.8 135.016 49C135.016 44.2 138.056 40.616 143.048 40.616C148.04 40.616 151.08 44.2 151.08 49C151.08 53.8 148.04 57.384 143.048 57.384ZM143.048 52.744C145 52.744 146.6 51.72 146.6 49C146.6 46.28 145 45.256 143.048 45.256C141.096 45.256 139.496 46.28 139.496 49C139.496 51.72 141.096 52.744 143.048 52.744ZM162.998 55.72V54.6C161.782 56.488 159.766 57.384 157.974 57.384C154.87 57.384 152.566 55.368 152.566 50.728V42.28C152.566 41.416 152.982 41 153.846 41H155.766C156.63 41 157.046 41.416 157.046 42.28V49.288C157.046 51.624 157.974 52.744 159.51 52.744C161.622 52.744 162.998 51.432 162.998 48.488V41C162.998 40.136 163.414 39.72 164.278 39.72H166.198C167.062 39.72 167.478 40.136 167.478 41V55.72C167.478 56.584 167.062 57 166.198 57H164.278C163.414 57 162.998 56.584 162.998 55.72ZM182.625 55.976C181.153 57.096 179.041 57.704 177.121 57.704C173.633 57.704 171.617 55.528 171.617 51.208V47.048L169.761 46.952C169.057 46.92 168.865 46.568 168.865 45.96V43.4C168.865 42.792 169.313 42.28 169.953 42.312L171.617 42.408V38.76C171.617 38.12 171.937 37.8 172.577 37.8H175.137C175.777 37.8 176.097 38.12 176.097 38.76V42.664L180.705 42.952C181.409 42.984 181.601 43.336 181.601 43.944V46.504C181.601 47.112 181.153 47.624 180.513 47.592L176.097 47.336V50.408C176.097 52.456 176.929 53.128 178.273 53.128C179.105 53.128 180.033 52.648 180.737 52.2C181.217 51.912 181.665 52.168 181.921 52.776L182.753 54.632C183.009 55.176 183.169 55.592 182.625 55.976ZM191.598 57.384C186.606 57.384 183.566 53.8 183.566 49C183.566 44.2 186.606 40.616 191.598 40.616C196.59 40.616 199.63 44.2 199.63 49C199.63 53.8 196.59 57.384 191.598 57.384ZM191.598 52.744C193.55 52.744 195.15 51.72 195.15 49C195.15 46.28 193.55 45.256 191.598 45.256C189.646 45.256 188.046 46.28 188.046 49C188.046 51.72 189.646 52.744 191.598 52.744ZM205.82 56.36C205.82 57.224 205.404 57.64 204.54 57.64H202.62C201.756 57.64 201.34 57.224 201.34 56.36V41C201.34 40.136 201.756 39.72 202.62 39.72H204.54C205.404 39.72 205.82 40.136 205.82 41V43.4C207.036 41.512 209.052 40.616 210.844 40.616C213.948 40.616 216.252 42.632 216.252 47.272V55.72C216.252 56.584 215.836 57 214.972 57H213.052C212.188 57 211.772 56.584 211.772 55.72V48.712C211.772 46.376 210.844 45.256 209.308 45.256C207.196 45.256 205.82 46.568 205.82 49.512V56.36ZM225.767 57.384C220.775 57.384 217.735 53.8 217.735 49C217.735 44.2 220.775 40.616 225.767 40.616C230.759 40.616 233.799 44.2 233.799 49C233.799 53.8 230.759 57.384 225.767 57.384ZM225.767 52.744C227.719 52.744 229.319 51.72 229.319 49C229.319 46.28 227.719 45.256 225.767 45.256C223.815 45.256 222.215 46.28 222.215 49C222.215 51.72 223.815 52.744 225.767 52.744Z" fill="black"/>
<path d="M135.648 75.544C135.648 72.92 137.408 71 141.12 71C142.496 71 144.608 71.48 145.6 72.12C145.856 72.28 145.952 72.536 145.824 72.824L145.12 74.264C144.992 74.52 144.736 74.616 144.48 74.52C143.328 74.04 142.016 73.72 140.928 73.72C139.136 73.72 138.208 74.392 138.208 75.544C138.208 78.616 146.496 77.528 146.496 82.936C146.496 85.624 144.352 87.32 140.704 87.32C139.136 87.32 136.832 86.68 135.584 85.88C135.328 85.72 135.232 85.464 135.36 85.176L136.064 83.736C136.192 83.448 136.416 83.384 136.672 83.512C138.144 84.248 139.648 84.6 140.896 84.6C142.912 84.6 143.936 83.992 143.936 82.936C143.936 79.864 135.648 80.952 135.648 75.544ZM159.594 86.04V84.728C158.314 86.328 156.394 87.32 154.41 87.32C151.37 87.32 149.162 85.528 149.162 81.368V72.28C149.162 71.64 149.482 71.32 150.122 71.32H150.762C151.402 71.32 151.722 71.64 151.722 72.28V80.248C151.722 83.192 153.098 84.6 155.306 84.6C157.546 84.6 159.594 82.648 159.594 80.088V71.32C159.594 70.68 159.914 70.36 160.554 70.36H161.194C161.834 70.36 162.154 70.68 162.154 71.32V86.04C162.154 86.68 161.834 87 161.194 87H160.554C159.914 87 159.594 86.68 159.594 86.04ZM176.996 87.64H175.716C175.3 87.64 175.076 87.416 175.076 87V85.656C174.02 86.68 172.388 87.32 170.628 87.32C170.404 87.32 170.18 87.32 169.988 87.288C167.044 87.032 165.06 84.888 165.06 82.104C165.06 79.48 166.628 77.208 170.628 77.208C172.068 77.208 173.7 77.464 175.076 78.04V77.752C175.076 74.872 173.476 73.4 170.788 73.4C169.54 73.4 168.1 73.848 166.852 74.616C166.596 74.776 166.372 74.68 166.244 74.424L165.764 73.464C165.7 73.304 165.604 73.144 165.54 72.984C165.412 72.696 165.508 72.44 165.732 72.28C167.044 71.384 169.06 70.68 171.3 70.68C175.204 70.68 177.636 73.016 177.636 77.624V87C177.636 87.416 177.412 87.64 176.996 87.64ZM170.788 84.6C173.092 84.6 175.076 83.32 175.076 81.912V80.568C173.732 80.056 172.1 79.768 170.788 79.768C168.676 79.768 167.62 80.632 167.62 81.976C167.62 83.64 169.092 84.6 170.788 84.6ZM188.325 87H186.501C186.181 86.968 186.053 86.84 185.893 86.552L179.493 72.664C179.397 72.44 179.461 72.184 179.717 72.056L181.157 71.384C181.381 71.288 181.669 71.352 181.797 71.608L187.173 83.384L191.077 71C191.173 70.744 191.429 70.648 191.685 70.712L193.349 71.224C193.605 71.288 193.733 71.576 193.637 71.832L188.965 86.552C188.869 86.84 188.645 87 188.325 87ZM202.888 87.32C198.024 87.32 194.856 84.088 194.856 79.32C194.856 74.968 197.48 71 202.088 71C205.576 71 208.52 73.592 208.52 78.456C208.52 79.096 208.424 79.32 207.848 79.384L197.544 80.568C197.992 82.872 199.816 84.568 202.888 84.568C204.456 84.568 206.152 84.12 207.112 83.608C207.4 83.48 207.592 83.576 207.688 83.832L208.232 85.24C208.36 85.56 208.328 85.784 208.04 85.976C207.016 86.712 204.808 87.32 202.888 87.32ZM201.928 73.72C199.592 73.72 197.928 75.288 197.512 78.008L205.736 77.048C205.48 75.096 203.944 73.72 201.928 73.72Z" fill="black"/>
</svg>
