<svg width="363" height="349" viewBox="0 0 363 349" fill="none" xmlns="http://www.w3.org/2000/svg">
<g clip-path="url(#clip0_303_2849)">
<path d="M41.4079 64.5553C42.2903 64.7003 43.4288 60.6454 43.631 59.9763C44.8896 55.8132 45.5015 51.1726 47.3002 47.2158C46.7786 46.7139 46.4796 46.446 46.1321 46.1941C45.5052 45.7398 44.8192 45.3118 44.0943 44.8731C44.059 45.0184 44.0003 45.3003 43.9689 45.3882C43.1015 47.8187 41.5482 52.169 38.9376 53.2454C36.6888 51.6611 34.4109 50.1162 32.6435 47.9694C30.7985 45.7284 29.4568 42.8249 28.2008 40.2082C27.7129 39.1919 27.3762 37.9473 26.6003 37.0987C26.1806 36.6398 25.614 36.2444 25.0069 35.8755C21.5295 34.6568 18.1418 33.7472 14.723 33.1618C14.1535 33.0642 13.7075 32.9649 12.7084 32.729C12.6136 32.7066 12.568 32.6952 12.5157 32.6829C11.6038 32.468 10.9354 32.3362 10.3539 32.2542C10.3571 32.3891 10.3659 32.6527 10.363 32.7067C10.2118 35.5304 11.911 39.0565 13.6545 41.2201C19.9129 48.9858 27.7708 54.2023 36.0802 59.5413C37.4854 60.4442 38.9011 61.4756 40.0327 62.7115C40.2482 62.9468 41.1705 64.5166 41.4079 64.5553Z" fill="#F4F4F4"/>
<path d="M8.29491 87.0871C11.2566 86.5853 14.2256 85.2665 16.4839 83.3224C18.709 81.4067 20.1809 77.9824 20.5832 75.1184C20.697 74.3068 20.75 73.2862 20.9178 72.3145C20.8984 72.316 20.8793 72.3154 20.8606 72.3168C21.0297 71.7208 21.196 71.0658 21.0046 70.696C20.9174 70.528 20.3667 70.5298 20.2127 70.4893C19.5442 70.3152 18.8426 69.8934 18.2254 69.5672C18.1991 69.5533 18.1823 69.5272 18.1563 69.5127C20.2694 69.8333 23.3373 69.3697 25.3769 68.482C26.3347 67.9954 27.2619 67.466 28.1805 66.9343C30.1685 65.7016 33.0592 63.4787 30.6575 62.7718C29.6665 62.4802 28.0999 63.5714 27.1536 63.7845C24.7903 64.3166 21.6676 63.8754 19.4045 63.1071C16.843 62.237 13.7733 57.6145 11.5803 57.7692C10.1204 57.8722 9.72945 59.2921 8.90363 60.3152C7.90524 61.5518 6.95558 62.486 5.80987 63.1938C5.69759 63.3503 5.55624 63.4916 5.37755 63.5934C5.35681 63.6053 5.3611 63.6119 5.34034 63.6237C4.36789 64.1758 0.381403 66.2479 -0.505201 66.7387C-4.94792 69.1984 -7.69632 71.5035 -9.02639 74.2917C-8.76906 75.3962 -8.12836 76.465 -7.79599 77.5193C-6.94802 80.2089 -5.51455 82.8919 -3.44409 84.8717C-2.88405 85.2312 -2.14618 85.7537 -1.62913 86.0207C-0.515132 86.597 0.756569 86.8293 2.92874 86.953C3.14954 86.9651 4.65306 87.0445 5.00757 87.0686C6.17103 87.1481 7.23736 87.1264 8.29491 87.0871Z" fill="#F4F4F4"/>
<path d="M-5.90341 43.7537C-4.96705 43.6987 -4.05435 43.4582 -3.22811 42.9573C-2.94101 42.7833 -2.66863 42.5793 -2.42043 42.3539C-2.15955 42.1171 -1.92321 41.8568 -1.73654 41.5573C-1.04451 40.4475 -1.28728 39.2295 -1.76146 38.0879C-2.02915 37.4443 -2.36197 36.8295 -2.6542 36.1972C-2.8606 35.7495 -3.05257 35.2783 -3.13672 34.7904C-3.19104 34.471 -3.18835 34.1412 -3.16428 33.8188C-3.06115 32.4133 -2.36693 31.1351 -1.73448 29.9059C-1.43876 29.3307 -1.16047 28.7515 -0.926806 28.1553C-0.569018 28.3258 -0.203618 28.4885 0.130944 28.6829C0.894233 28.4195 1.31203 27.9132 1.79658 26.839C1.85172 26.717 1.94333 26.5017 2.063 26.2224C2.11108 26.0217 2.16987 25.7185 2.21174 25.5875C3.18753 22.5401 5.96408 14.3688 5.05932 10.1926C4.97864 10.1715 4.90569 10.1471 4.82372 10.1265C3.39346 9.76815 2.19669 9.56619 -0.431473 9.19395C-4.25685 8.65214 -7.94094 8.60747 -12.5931 8.95678C-20.1336 9.5228 -23.9163 10.7272 -28.2834 14.4184C-28.1066 18.514 -23.9962 25.7001 -22.5787 28.5093C-22.3018 28.9085 -21.9504 29.4213 -21.8057 29.6132C-21.3926 30.1615 -21.0461 30.4771 -20.6348 30.6192C-20.4032 30.4171 -20.1736 30.2369 -19.9418 30.0493C-19.7561 30.711 -19.5279 31.3627 -19.2631 31.9957C-18.6657 33.422 -17.9254 34.7885 -17.0985 36.0938C-16.2752 37.3937 -15.3569 38.6391 -14.333 39.7889C-13.2413 41.0152 -12.0192 42.183 -10.4887 42.8288C-9.08886 43.4192 -7.4635 43.8451 -5.90341 43.7537ZM-5.6872 42.7725C-7.28081 42.9345 -9.00821 42.4304 -10.4139 41.8008C-11.0138 41.5324 -11.5537 41.1174 -12.0489 40.6914C-12.6043 40.213 -13.1164 39.69 -13.6024 39.1418C-14.5895 38.0306 -15.4696 36.8199 -16.2639 35.5647C-17.0957 34.2502 -17.8446 32.8744 -18.4299 31.4317C-18.6986 30.7709 -18.9272 30.0916 -19.0954 29.3978C-17.9521 28.5646 -16.7949 27.9 -15.5711 27.4372C-11.4171 25.8658 -6.00743 26.0444 -1.78136 27.7593C-2.07801 28.5221 -2.46005 29.2581 -2.83166 29.9916C-3.52879 31.3675 -4.16915 32.8163 -4.11348 34.3934C-4.05703 35.9823 -3.04831 37.3023 -2.51509 38.7476C-2.23728 39.4987 -2.09373 40.3387 -2.54303 41.0545C-2.68444 41.2794 -2.8644 41.469 -3.06015 41.6461C-3.82428 42.3366 -4.73063 42.6751 -5.6872 42.7725Z" fill="#F4F4F4"/>
<path d="M30.9684 26.4644C32.1582 26.7212 33.3283 25.961 33.5852 24.7713L38.6553 1.2875C38.9121 0.09781 38.1598 -1.07751 36.9701 -1.33436L25.6466 -3.77903C24.4569 -4.03589 23.2867 -3.27567 23.0299 -2.08594L17.9598 21.3978C17.703 22.5875 18.4553 23.7628 19.645 24.0197L30.9684 26.4644ZM31.2909 25.795C30.6058 25.6471 30.1676 24.9762 30.3155 24.2912C30.4634 23.6061 31.1407 23.1692 31.8258 23.3172C32.5109 23.4651 32.9412 24.141 32.7933 24.8261C32.6454 25.5112 31.9759 25.9429 31.2909 25.795ZM28.5797 23.2664C27.8947 23.1185 27.4643 22.4425 27.6123 21.7574C27.7602 21.0724 28.431 20.6341 29.1161 20.7821C29.8012 20.9299 30.2381 21.6073 30.0901 22.2924C29.9422 22.9774 29.2648 23.4143 28.5797 23.2664ZM32.1632 21.7546C31.4781 21.6067 31.0413 20.9293 31.1892 20.2442C31.3371 19.5592 32.013 19.1289 32.6982 19.2768C33.3832 19.4247 33.8149 20.0942 33.667 20.7792C33.5191 21.4643 32.8482 21.9025 32.1632 21.7546Z" fill="#F4F4F4"/>
<path d="M53.7996 76.061L60.4987 65.344C60.2052 65.2556 59.9145 65.1455 59.6423 64.9754L55.7466 62.541C55.4744 62.3709 55.2447 62.1529 55.0369 61.9277L48.3378 72.6448L53.7996 76.061ZM62.6357 64.3376C63.169 64.1009 63.6412 63.7067 63.9735 63.1746L66.0754 59.8078C66.962 58.3891 66.5314 56.5205 65.1126 55.6338L61.7435 53.527C60.3247 52.6403 58.4585 53.0761 57.572 54.4947L55.4677 57.8564C54.5811 59.2751 55.0116 61.1437 56.4304 62.0304L59.7996 64.1372C60.6864 64.6917 61.7469 64.7322 62.6357 64.3376ZM66.5034 55.7309L73.7481 44.1369L68.289 40.7261L61.0444 52.3203C61.3377 52.4083 61.6257 52.5262 61.8979 52.6963L65.7937 55.1309C66.0659 55.301 66.2957 55.5058 66.5034 55.7309Z" fill="#F4F4F4"/>
<path d="M59.4325 36.8861L60.0557 34.1956L56.4598 32.5668L54.7691 34.4889L56.7243 37.983L59.4325 36.8861ZM58.5524 32.6718C60.5004 28.7083 59.5765 23.8797 56.2126 20.9207C52.1233 17.3239 45.8921 17.723 42.2952 21.8123C38.6984 25.9015 39.0975 32.1328 43.1868 35.7297C46.5168 38.6587 51.3591 38.9856 55.0335 36.6197L54.3286 35.527C51.1408 37.5798 46.9374 37.293 44.0475 34.7512C40.4986 31.6296 40.1522 26.2218 43.2738 22.673C46.3953 19.1242 51.803 18.7778 55.3519 21.8993C58.2712 24.4672 59.0721 28.661 57.3821 32.0996L58.5524 32.6718Z" fill="#F4F4F4"/>
<path d="M128.937 9.38221C129.794 9.12726 129.047 4.98233 128.937 4.29209C128.25 -0.00259604 126.774 -4.44449 126.664 -8.78951C125.975 -9.01321 125.589 -9.1236 125.167 -9.19841C124.404 -9.3333 123.6 -9.41862 122.757 -9.49671C122.788 -9.35055 122.859 -9.07136 122.869 -8.97853C123.15 -6.4133 123.653 -1.82142 121.775 0.287104C119.06 -0.155894 116.336 -0.550717 113.808 -1.70993C111.17 -2.92011 108.695 -4.94597 106.422 -6.75128C105.539 -7.45243 104.692 -8.42498 103.624 -8.84941C103.046 -9.07895 102.364 -9.18714 101.656 -9.25381C97.9957 -8.83133 94.551 -8.16995 91.2199 -7.20337C90.6649 -7.04235 90.2203 -6.93688 89.2185 -6.71276C89.1235 -6.69149 89.0775 -6.68183 89.025 -6.67005C88.1109 -6.46508 87.4521 -6.29169 86.8931 -6.11147C86.9549 -5.99148 87.078 -5.75829 87.099 -5.70836C88.1962 -3.10219 91.2649 -0.672382 93.7783 0.512385C102.8 4.76476 112.147 6.02523 121.954 7.19877C123.612 7.39719 125.336 7.7067 126.894 8.3242C127.191 8.44178 128.706 9.45112 128.937 9.38221Z" fill="#F4F4F4"/>
<path d="M108.99 44.114C111.435 42.369 113.53 39.8859 114.713 37.1506C115.877 34.4555 115.706 30.7322 114.817 27.9801C114.565 27.2003 114.167 26.2591 113.893 25.3116C113.876 25.3215 113.859 25.3293 113.843 25.3387C113.734 24.7287 113.598 24.0668 113.264 23.8177C113.112 23.7048 112.618 23.9468 112.462 23.9777C111.784 24.1131 110.969 24.0401 110.271 24.0162C110.241 24.0152 110.215 23.9991 110.185 23.9973C112.226 23.3628 114.783 21.6058 116.231 19.9164C116.88 19.0603 117.482 18.1792 118.077 17.2996C119.326 15.3224 120.956 12.0601 118.487 12.4733C117.468 12.6438 116.535 14.3096 115.777 14.9146C113.884 16.4256 110.882 17.3926 108.51 17.6899C105.826 18.026 101.046 15.2085 99.1404 16.3054C97.8722 17.0357 98.1406 18.4838 97.8446 19.7648C97.4866 21.3133 97.0403 22.5685 96.3188 23.7056C96.2862 23.8954 96.2207 24.0843 96.1045 24.2539C96.091 24.2736 96.0977 24.2777 96.0842 24.2974C95.4506 25.2188 92.7694 28.8239 92.1863 29.6528C89.264 33.8058 87.7984 37.0799 87.8197 40.169C88.5337 41.0503 89.5769 41.7319 90.3363 42.5351C92.2739 44.5842 94.7352 46.3717 97.4625 47.2484C98.1233 47.3271 99.0153 47.4749 99.597 47.4892C100.851 47.5211 102.096 47.1746 104.104 46.3371C104.308 46.2516 105.695 45.6663 106.025 45.5332C107.106 45.0965 108.056 44.6112 108.99 44.114Z" fill="#F4F4F4"/>
<path d="M87.1401 22.35C87.7367 21.7486 87.7327 20.7749 87.1313 20.1781C86.53 19.5813 85.5561 19.585 84.9592 20.1868C84.3626 20.7881 84.3706 21.7579 84.9719 22.3547C85.5737 22.951 86.5435 22.9513 87.1401 22.35ZM70.4594 39.1637C71.056 38.5624 71.0519 37.5887 70.4505 36.9918C69.8492 36.3951 68.8753 36.3987 68.2784 37.0006C67.6818 37.6019 67.6898 38.5717 68.2912 39.1685C68.8929 39.7648 69.8627 39.765 70.4594 39.1637ZM83.922 22.1243C84.5187 21.523 84.5107 20.5532 83.9093 19.9564C83.308 19.3596 82.3381 19.3594 81.7415 19.9607C81.1449 20.562 81.1485 21.5362 81.7499 22.133C82.3516 22.7293 83.3254 22.7256 83.922 22.1243ZM70.212 35.9437C70.8086 35.3423 70.8049 34.3681 70.2035 33.7713C69.6018 33.175 68.628 33.1787 68.0314 33.78C67.4344 34.3818 67.4385 35.3556 68.0398 35.9524C68.6412 36.5492 69.6154 36.545 70.212 35.9437ZM80.3569 22.5046C80.9535 21.9032 80.9538 20.9334 80.3524 20.3365C79.7511 19.7398 78.7769 19.744 78.1803 20.3453C77.5837 20.9466 77.5873 21.9208 78.1891 22.5171C78.7904 23.1139 79.7603 23.1059 80.3569 22.5046ZM70.564 32.3754C71.1607 31.774 71.157 30.8081 70.5553 30.2118C69.9539 29.615 68.984 29.6148 68.3874 30.2161C67.7908 30.8174 67.7945 31.7917 68.3959 32.3884C68.9976 32.9847 69.9671 32.9772 70.564 32.3754ZM77.0349 24.0523C77.6314 23.451 77.6238 22.4807 77.0221 21.8844C76.4207 21.2876 75.4508 21.2873 74.8542 21.8887C74.2577 22.49 74.2614 23.4642 74.8627 24.061C75.4644 24.6573 76.4383 24.6537 77.0349 24.0523ZM72.0853 29.0411C72.682 28.4398 72.6779 27.4661 72.0766 26.8693C71.4752 26.2725 70.501 26.2767 69.9044 26.878C69.3079 27.4793 69.3159 28.4491 69.9172 29.0459C70.5185 29.6427 71.4884 29.6429 72.0853 29.0411ZM74.5223 26.4031C75.1193 25.8013 75.1113 24.8315 74.5096 24.2352C73.9082 23.6384 72.9384 23.6382 72.3418 24.2395C71.7452 24.8408 71.7489 25.8151 72.3506 26.4113C72.9519 27.0081 73.9258 27.0045 74.5223 26.4031Z" fill="#F4F4F4"/>
<path d="M77.2912 11.3339C78.1095 10.8754 78.8255 10.2605 79.35 9.44899C79.5322 9.16698 79.6882 8.86459 79.813 8.55334C79.9442 8.22639 80.0431 7.88899 80.0802 7.53805C80.218 6.23744 79.4677 5.24782 78.5425 4.42794C78.0206 3.96594 77.4527 3.55828 76.9136 3.11709C76.5324 2.8045 76.1539 2.46446 75.8651 2.06228C75.6767 1.79868 75.5351 1.50088 75.416 1.20037C74.8948 -0.109051 74.961 -1.56216 74.9931 -2.94407C75.0079 -3.59072 75.0053 -4.23331 74.9551 -4.87164C75.3514 -4.87457 75.7511 -4.88783 76.137 -4.85906C76.7086 -5.42937 76.8633 -6.06736 76.83 -7.24528C76.8264 -7.37906 76.8147 -7.61282 76.8004 -7.91633C76.756 -8.11786 76.6764 -8.41625 76.6569 -8.55244C76.2036 -11.72 75.1324 -20.2834 72.4944 -23.645C72.4126 -23.6287 72.3363 -23.6189 72.2536 -23.6015C70.8105 -23.2992 69.6457 -22.9582 67.1189 -22.1451C63.441 -20.9617 60.1074 -19.3928 56.075 -17.0466C49.539 -13.244 46.6623 -10.5084 44.3459 -5.28046C46.2938 -1.67339 53.1301 2.99577 55.6323 4.90375C56.0557 5.1419 56.5957 5.44966 56.8097 5.55909C57.4208 5.87192 57.8704 6.00453 58.3024 5.95266C58.4226 5.66974 58.5503 5.40735 58.6769 5.13737C59.133 5.65151 59.6229 6.13801 60.1376 6.59184C61.298 7.61398 62.5607 8.51985 63.8748 9.33294C65.1831 10.1427 66.5532 10.8619 67.9764 11.449C69.4941 12.0754 71.1035 12.5921 72.7624 12.5045C74.2795 12.4242 75.9277 12.0975 77.2912 11.3339ZM77.0571 10.3568C75.6943 11.1985 73.9202 11.4995 72.3807 11.5471C71.7238 11.5677 71.0569 11.4302 70.4254 11.2633C69.7167 11.0755 69.0276 10.8287 68.351 10.5478C66.9777 9.97931 65.6572 9.27462 64.3945 8.49239C63.072 7.67326 61.7975 6.7627 60.6408 5.72057C60.1105 5.24343 59.6082 4.73221 59.1538 4.18156C59.8183 2.93265 60.569 1.82935 61.4678 0.878528C64.5183 -2.34942 69.4627 -4.55154 74.0134 -4.85468C74.0797 -4.03892 74.0575 -3.20993 74.0435 -2.38781C74.0174 -0.845617 74.0741 0.737362 74.8131 2.13181C75.5578 3.53649 77.0418 4.28333 78.1527 5.35061C78.7307 5.90495 79.2267 6.59782 79.1352 7.43801C79.1062 7.70208 79.0271 7.95124 78.9284 8.19606C78.5426 9.151 77.8751 9.85132 77.0571 10.3568Z" fill="#F4F4F4"/>
<path d="M145.11 14.3201L146.455 1.75337C146.152 1.80206 145.843 1.83 145.524 1.7959L140.956 1.30749C140.637 1.27339 140.335 1.17754 140.05 1.06576L138.704 13.6325L145.11 14.3201ZM147.938 -0.0853263C148.314 -0.531153 148.567 -1.09197 148.633 -1.71586L149.054 -5.66258C149.232 -7.32598 148.028 -8.81888 146.365 -8.9969L142.414 -9.42055C140.75 -9.59854 139.262 -8.39139 139.084 -6.728L138.659 -2.78481C138.481 -1.12141 139.684 0.371487 141.348 0.54951L145.299 0.973165C146.339 1.08458 147.311 0.657821 147.938 -0.0853263ZM147.658 -9.51692L149.111 -23.1109L142.711 -23.7947L141.258 -10.2007C141.56 -10.2497 141.87 -10.2694 142.19 -10.2353L146.758 -9.74674C147.077 -9.71264 147.373 -9.6287 147.658 -9.51692Z" fill="#F4F4F4"/>
<path d="M40.9366 297.382C41.7938 297.127 41.0468 292.982 40.9365 292.292C40.2504 287.997 38.774 283.556 38.6638 279.21C37.9754 278.987 37.5894 278.876 37.1668 278.802C36.4044 278.667 35.6003 278.581 34.7566 278.503C34.7884 278.649 34.8587 278.929 34.8688 279.021C35.1501 281.587 35.6528 286.179 33.7746 288.287C31.0596 287.844 28.3358 287.449 25.8082 286.29C23.1697 285.08 20.6946 283.054 18.4218 281.249C17.539 280.548 16.6925 279.575 15.6239 279.151C15.0459 278.921 14.3635 278.813 13.6562 278.746C9.99573 279.169 6.55099 279.83 3.21987 280.797C2.66493 280.958 2.22035 281.063 1.21851 281.287C1.12347 281.309 1.07748 281.318 1.02499 281.33C0.11087 281.535 -0.547931 281.708 -1.10688 281.889C-1.04505 282.009 -0.922035 282.242 -0.901032 282.292C0.196233 284.898 3.2649 287.328 5.77829 288.512C14.8 292.765 24.1471 294.025 33.954 295.199C35.6124 295.397 37.3365 295.707 38.8942 296.324C39.1908 296.442 40.7061 297.451 40.9366 297.382Z" fill="#F4F4F4"/>
<path d="M20.9902 332.114C23.4353 330.369 25.5301 327.886 26.7125 325.151C27.8774 322.455 27.7058 318.732 26.8168 315.98C26.5647 315.2 26.1666 314.259 25.8931 313.312C25.8764 313.321 25.859 313.329 25.8427 313.339C25.7345 312.729 25.598 312.067 25.2643 311.818C25.1125 311.705 24.6179 311.947 24.4617 311.978C23.7842 312.113 22.9689 312.04 22.2712 312.016C22.2415 312.015 22.2149 311.999 22.1853 311.997C24.2262 311.363 26.7834 309.606 28.2306 307.916C28.8796 307.06 29.4824 306.179 30.0765 305.3C31.3265 303.322 32.956 300.06 30.4868 300.473C29.468 300.644 28.5352 302.31 27.7771 302.915C25.8835 304.426 22.8817 305.393 20.5103 305.69C17.826 306.026 13.0456 303.208 11.1404 304.305C9.87217 305.036 10.1406 306.484 9.84457 307.765C9.48657 309.313 9.04031 310.568 8.3188 311.706C8.28615 311.895 8.22072 312.084 8.10445 312.254C8.09097 312.274 8.09773 312.278 8.08419 312.297C7.45057 313.219 4.76943 316.824 4.18627 317.653C1.26402 321.806 -0.201558 325.08 -0.180254 328.169C0.533684 329.05 1.57685 329.732 2.3363 330.535C4.27388 332.584 6.73524 334.372 9.4625 335.248C10.1233 335.327 11.0153 335.475 11.597 335.489C12.8509 335.521 14.0963 335.175 16.1043 334.337C16.3083 334.252 17.6955 333.666 18.0249 333.533C19.1063 333.097 20.056 332.611 20.9902 332.114Z" fill="#F4F4F4"/>
<path d="M-0.859889 310.35C-0.26328 309.749 -0.267318 308.775 -0.868666 308.178C-1.47001 307.581 -2.44385 307.585 -3.04082 308.187C-3.63743 308.788 -3.62943 309.758 -3.02808 310.355C-2.42633 310.951 -1.4565 310.951 -0.859889 310.35ZM-17.5406 327.164C-16.944 326.562 -16.9481 325.589 -17.5495 324.992C-18.1508 324.395 -19.1247 324.399 -19.7216 325.001C-20.3182 325.602 -20.3102 326.572 -19.7088 327.168C-19.1071 327.765 -18.1373 327.765 -17.5406 327.164ZM-4.07795 310.124C-3.48134 309.523 -3.48934 308.553 -4.09069 307.956C-4.69204 307.36 -5.66192 307.359 -6.25853 307.961C-6.85514 308.562 -6.85145 309.536 -6.25011 310.133C-5.6484 310.729 -4.67456 310.726 -4.07795 310.124ZM-17.788 323.944C-17.1914 323.342 -17.1951 322.368 -17.7965 321.771C-18.3982 321.175 -19.372 321.179 -19.9686 321.78C-20.5656 322.382 -20.5615 323.356 -19.9602 323.952C-19.3588 324.549 -18.3846 324.545 -17.788 323.944ZM-7.64311 310.505C-7.0465 309.903 -7.04622 308.933 -7.64762 308.337C-8.24892 307.74 -9.22311 307.744 -9.81972 308.345C-10.4163 308.947 -10.4127 309.921 -9.81095 310.517C-9.2096 311.114 -8.23972 311.106 -7.64311 310.505ZM-17.436 320.375C-16.8393 319.774 -16.843 318.808 -17.4447 318.212C-18.0461 317.615 -19.016 317.615 -19.6126 318.216C-20.2092 318.817 -20.2055 319.792 -19.6041 320.388C-19.0024 320.985 -18.0329 320.977 -17.436 320.375ZM-10.9651 312.052C-10.3686 311.451 -10.3762 310.481 -10.9779 309.884C-11.5793 309.288 -12.5492 309.287 -13.1458 309.889C-13.7423 310.49 -13.7386 311.464 -13.1373 312.061C-12.5356 312.657 -11.5617 312.654 -10.9651 312.052ZM-15.9147 317.041C-15.318 316.44 -15.3221 315.466 -15.9234 314.869C-16.5248 314.273 -17.499 314.277 -18.0956 314.878C-18.6921 315.479 -18.6841 316.449 -18.0828 317.046C-17.4815 317.643 -16.5116 317.643 -15.9147 317.041ZM-13.4777 314.403C-12.8807 313.801 -12.8887 312.831 -13.4904 312.235C-14.0918 311.638 -15.0616 311.638 -15.6582 312.239C-16.2548 312.841 -16.2511 313.815 -15.6494 314.411C-15.0481 315.008 -14.0742 315.004 -13.4777 314.403Z" fill="#F4F4F4"/>
<path d="M-10.7088 299.334C-9.89051 298.875 -9.1745 298.26 -8.65002 297.449C-8.46779 297.167 -8.31183 296.865 -8.18703 296.553C-8.05577 296.226 -7.95686 295.889 -7.91975 295.538C-7.78195 294.237 -8.53231 293.248 -9.4575 292.428C-9.9794 291.966 -10.5473 291.558 -11.0864 291.117C-11.4676 290.805 -11.8461 290.464 -12.1349 290.062C-12.3233 289.799 -12.4649 289.501 -12.584 289.2C-13.1052 287.891 -13.039 286.438 -13.0069 285.056C-12.9921 284.409 -12.9947 283.767 -13.0449 283.128C-12.6486 283.125 -12.2489 283.112 -11.863 283.141C-11.2914 282.571 -11.1367 281.933 -11.17 280.755C-11.1736 280.621 -11.1853 280.387 -11.1996 280.084C-11.244 279.882 -11.3236 279.584 -11.3431 279.448C-11.7964 276.28 -12.8676 267.717 -15.5056 264.355C-15.5874 264.371 -15.6637 264.381 -15.7464 264.398C-17.1895 264.701 -18.3543 265.042 -20.8811 265.855C-24.559 267.038 -27.8926 268.607 -31.925 270.953C-38.461 274.756 -41.3377 277.492 -43.6541 282.72C-41.7062 286.327 -34.8699 290.996 -32.3677 292.904C-31.9443 293.142 -31.4043 293.45 -31.1903 293.559C-30.5792 293.872 -30.1296 294.005 -29.6976 293.953C-29.5774 293.67 -29.4497 293.407 -29.3231 293.137C-28.867 293.652 -28.3771 294.138 -27.8624 294.592C-26.702 295.614 -25.4393 296.52 -24.1252 297.333C-22.8169 298.143 -21.4468 298.862 -20.0236 299.449C-18.5059 300.075 -16.8965 300.592 -15.2376 300.505C-13.7205 300.424 -12.0723 300.097 -10.7088 299.334ZM-10.9429 298.357C-12.3057 299.199 -14.0798 299.5 -15.6193 299.547C-16.2762 299.568 -16.9431 299.43 -17.5746 299.263C-18.2833 299.075 -18.9724 298.829 -19.649 298.548C-21.0223 297.979 -22.3428 297.275 -23.6055 296.492C-24.928 295.673 -26.2025 294.763 -27.3592 293.721C-27.8895 293.243 -28.3918 292.732 -28.8462 292.182C-28.1817 290.933 -27.431 289.829 -26.5322 288.879C-23.4817 285.651 -18.5373 283.448 -13.9866 283.145C-13.9203 283.961 -13.9425 284.79 -13.9565 285.612C-13.9826 287.154 -13.9259 288.737 -13.1869 290.132C-12.4422 291.536 -10.9582 292.283 -9.84729 293.351C-9.26932 293.905 -8.77332 294.598 -8.86485 295.438C-8.89383 295.702 -8.97291 295.951 -9.07164 296.196C-9.45742 297.151 -10.1249 297.851 -10.9429 298.357Z" fill="#F4F4F4"/>
<path d="M14.9088 267.676C16.0912 267.388 16.8119 266.193 16.5232 265.01L10.8271 241.671C10.5386 240.488 9.3485 239.759 8.16609 240.048L-3.08799 242.795C-4.27041 243.083 -4.99102 244.278 -4.70244 245.461L0.993704 268.8C1.28227 269.983 2.47234 270.711 3.65476 270.423L14.9088 267.676ZM14.9065 266.933C14.2256 267.099 13.5384 266.687 13.3722 266.007C13.206 265.326 13.6246 264.637 14.3055 264.471C14.9864 264.305 15.6687 264.725 15.8349 265.406C16.001 266.086 15.5873 266.767 14.9065 266.933ZM11.3632 265.843C10.6824 266.009 9.99996 265.589 9.83388 264.908C9.66767 264.227 10.0797 263.54 10.7606 263.374C11.4415 263.207 12.1304 263.626 12.2965 264.307C12.4627 264.988 12.0441 265.677 11.3632 265.843ZM13.9265 262.918C13.2456 263.084 12.5568 262.665 12.3906 261.984C12.2245 261.304 12.6446 260.621 13.3255 260.455C14.0063 260.289 14.6871 260.703 14.8533 261.383C15.0194 262.064 14.6073 262.752 13.9265 262.918Z" fill="#F4F4F4"/>
<path d="M57.1096 302.32L58.4551 289.753C58.1525 289.802 57.8429 289.83 57.5238 289.796L52.956 289.307C52.6368 289.273 52.3349 289.178 52.0497 289.066L50.7043 301.633L57.1096 302.32ZM59.9379 287.915C60.3143 287.469 60.5669 286.908 60.6334 286.284L61.0537 282.337C61.2316 280.674 60.0282 279.181 58.3645 279.003L54.4135 278.579C52.7499 278.401 51.2616 279.609 51.0837 281.272L50.659 285.215C50.481 286.879 51.6845 288.371 53.3481 288.55L57.2991 288.973C58.3391 289.085 59.3108 288.658 59.9379 287.915ZM59.6581 278.483L61.1113 264.889L54.7106 264.205L53.2576 277.799C53.5599 277.75 53.8704 277.731 54.1896 277.765L58.7575 278.253C59.0767 278.287 59.3729 278.371 59.6581 278.483Z" fill="#F4F4F4"/>
<path d="M45.0659 264.619L44.4514 261.927L40.5053 262.032L39.8239 264.5L43.1088 266.789L45.0659 264.619ZM42.4335 261.213C42.4547 256.796 39.5147 252.856 35.1961 251.664C29.9466 250.214 24.5155 253.295 23.0659 258.544C21.6163 263.794 24.697 269.225 29.9466 270.675C34.2215 271.855 38.7203 270.034 40.9923 266.301L39.881 265.626C37.9099 268.865 34.0034 270.443 30.2935 269.418C25.7377 268.16 23.0641 263.447 24.3221 258.891C25.5801 254.335 30.2935 251.662 34.8493 252.92C38.597 253.955 41.1493 257.378 41.1309 261.209L42.4335 261.213Z" fill="#F4F4F4"/>
<path d="M84.9366 368.382C85.7938 368.127 85.0468 363.982 84.9365 363.292C84.2504 358.997 82.774 354.556 82.6638 350.21C81.9754 349.987 81.5894 349.876 81.1668 349.802C80.4044 349.667 79.6003 349.581 78.7566 349.503C78.7884 349.649 78.8587 349.929 78.8688 350.021C79.1501 352.587 79.6528 357.179 77.7746 359.287C75.0596 358.844 72.3358 358.449 69.8082 357.29C67.1697 356.08 64.6946 354.054 62.4218 352.249C61.539 351.548 60.6925 350.575 59.6239 350.151C59.0459 349.921 58.3635 349.813 57.6562 349.746C53.9957 350.169 50.551 350.83 47.2199 351.797C46.6649 351.958 46.2203 352.063 45.2185 352.287C45.1235 352.309 45.0775 352.318 45.025 352.33C44.1109 352.535 43.4521 352.708 42.8931 352.889C42.9549 353.009 43.078 353.242 43.099 353.292C44.1962 355.898 47.2649 358.328 49.7783 359.512C58.8 363.765 68.1471 365.025 77.954 366.199C79.6124 366.397 81.3365 366.707 82.8942 367.324C83.1908 367.442 84.7061 368.451 84.9366 368.382Z" fill="#F4F4F4"/>
<path d="M33.2912 370.334C34.1095 369.875 34.8255 369.26 35.35 368.449C35.5322 368.167 35.6882 367.865 35.813 367.553C35.9442 367.226 36.0431 366.889 36.0802 366.538C36.218 365.237 35.4677 364.248 34.5425 363.428C34.0206 362.966 33.4527 362.558 32.9136 362.117C32.5324 361.805 32.1539 361.464 31.8651 361.062C31.6767 360.799 31.5351 360.501 31.416 360.2C30.8948 358.891 30.961 357.438 30.9931 356.056C31.0079 355.409 31.0053 354.767 30.9551 354.128C31.3514 354.125 31.7511 354.112 32.137 354.141C32.7086 353.571 32.8633 352.933 32.83 351.755C32.8264 351.621 32.8147 351.387 32.8004 351.084C32.756 350.882 32.6764 350.584 32.6569 350.448C32.2036 347.28 31.1324 338.717 28.4944 335.355C28.4126 335.371 28.3363 335.381 28.2536 335.398C26.8105 335.701 25.6457 336.042 23.1189 336.855C19.441 338.038 16.1074 339.607 12.075 341.953C5.53901 345.756 2.6623 348.492 0.34588 353.72C2.29378 357.327 9.1301 361.996 11.6323 363.904C12.0557 364.142 12.5957 364.45 12.8097 364.559C13.4208 364.872 13.8704 365.005 14.3024 364.953C14.4226 364.67 14.5503 364.407 14.6769 364.137C15.133 364.652 15.6229 365.138 16.1376 365.592C17.298 366.614 18.5607 367.52 19.8748 368.333C21.1831 369.143 22.5532 369.862 23.9764 370.449C25.4941 371.075 27.1035 371.592 28.7624 371.505C30.2795 371.424 31.9277 371.097 33.2912 370.334ZM33.0571 369.357C31.6943 370.199 29.9202 370.5 28.3807 370.547C27.7238 370.568 27.0569 370.43 26.4254 370.263C25.7167 370.075 25.0276 369.829 24.351 369.548C22.9777 368.979 21.6572 368.275 20.3945 367.492C19.072 366.673 17.7975 365.763 16.6408 364.721C16.1105 364.243 15.6082 363.732 15.1538 363.182C15.8183 361.933 16.569 360.829 17.4678 359.879C20.5183 356.651 25.4627 354.448 30.0134 354.145C30.0797 354.961 30.0575 355.79 30.0435 356.612C30.0174 358.154 30.0741 359.737 30.8131 361.132C31.5578 362.536 33.0418 363.283 34.1527 364.351C34.7307 364.905 35.2267 365.598 35.1352 366.438C35.1062 366.702 35.0271 366.951 34.9284 367.196C34.5426 368.151 33.8751 368.851 33.0571 369.357Z" fill="#F4F4F4"/>
<path d="M58.9088 338.676C60.0912 338.388 60.8119 337.193 60.5232 336.01L54.8271 312.671C54.5386 311.488 53.3485 310.759 52.1661 311.048L40.912 313.795C39.7296 314.083 39.009 315.278 39.2976 316.461L44.9937 339.8C45.2823 340.983 46.4723 341.711 47.6548 341.423L58.9088 338.676ZM58.9065 337.933C58.2256 338.099 57.5384 337.687 57.3722 337.007C57.206 336.326 57.6246 335.637 58.3055 335.471C58.9864 335.305 59.6687 335.725 59.8349 336.406C60.001 337.086 59.5873 337.767 58.9065 337.933ZM55.3632 336.843C54.6824 337.009 54 336.589 53.8339 335.908C53.6677 335.227 54.0797 334.54 54.7606 334.374C55.4415 334.207 56.1304 334.626 56.2965 335.307C56.4627 335.988 56.0441 336.677 55.3632 336.843ZM57.9265 333.918C57.2456 334.084 56.5568 333.665 56.3906 332.984C56.2245 332.304 56.6446 331.621 57.3255 331.455C58.0063 331.289 58.6871 331.703 58.8533 332.383C59.0194 333.064 58.6073 333.752 57.9265 333.918Z" fill="#F4F4F4"/>
<path d="M101.11 373.32L102.455 360.753C102.152 360.802 101.843 360.83 101.524 360.796L96.956 360.307C96.6368 360.273 96.3349 360.178 96.0497 360.066L94.7043 372.633L101.11 373.32ZM103.938 358.915C104.314 358.469 104.567 357.908 104.633 357.284L105.054 353.337C105.232 351.674 104.028 350.181 102.365 350.003L98.4135 349.579C96.7499 349.401 95.2616 350.609 95.0837 352.272L94.659 356.215C94.481 357.879 95.6845 359.371 97.3481 359.55L101.299 359.973C102.339 360.085 103.311 359.658 103.938 358.915ZM103.658 349.483L105.111 335.889L98.7106 335.205L97.2576 348.799C97.5599 348.75 97.8704 348.731 98.1896 348.765L102.758 349.253C103.077 349.287 103.373 349.371 103.658 349.483Z" fill="#F4F4F4"/>
<path d="M89.0659 335.619L88.4514 332.927L84.5053 333.032L83.8239 335.5L87.1088 337.789L89.0659 335.619ZM86.4335 332.213C86.4547 327.796 83.5147 323.856 79.1961 322.664C73.9466 321.214 68.5155 324.295 67.0659 329.544C65.6163 334.794 68.697 340.225 73.9466 341.675C78.2215 342.855 82.7203 341.034 84.9923 337.301L83.881 336.626C81.9099 339.865 78.0034 341.443 74.2935 340.418C69.7377 339.16 67.0641 334.447 68.3221 329.891C69.5801 325.335 74.2935 322.662 78.8493 323.92C82.597 324.955 85.1493 328.378 85.1309 332.209L86.4335 332.213Z" fill="#F4F4F4"/>
<path d="M359.937 315.382C360.794 315.127 360.047 310.982 359.937 310.292C359.25 305.997 357.774 301.556 357.664 297.21C356.975 296.987 356.589 296.876 356.167 296.802C355.404 296.667 354.6 296.581 353.757 296.503C353.788 296.649 353.859 296.929 353.869 297.021C354.15 299.587 354.653 304.179 352.775 306.287C350.06 305.844 347.336 305.449 344.808 304.29C342.17 303.08 339.695 301.054 337.422 299.249C336.539 298.548 335.692 297.575 334.624 297.151C334.046 296.921 333.364 296.813 332.656 296.746C328.996 297.169 325.551 297.83 322.22 298.797C321.665 298.958 321.22 299.063 320.219 299.287C320.123 299.309 320.077 299.318 320.025 299.33C319.111 299.535 318.452 299.708 317.893 299.889C317.955 300.009 318.078 300.242 318.099 300.292C319.196 302.898 322.265 305.328 324.778 306.512C333.8 310.765 343.147 312.025 352.954 313.199C354.612 313.397 356.336 313.707 357.894 314.324C358.191 314.442 359.706 315.451 359.937 315.382Z" fill="#F4F4F4"/>
<path d="M339.99 350.114C342.435 348.369 344.53 345.886 345.713 343.151C346.877 340.455 346.706 336.732 345.817 333.98C345.565 333.2 345.167 332.259 344.893 331.312C344.876 331.321 344.859 331.329 344.843 331.339C344.734 330.729 344.598 330.067 344.264 329.818C344.112 329.705 343.618 329.947 343.462 329.978C342.784 330.113 341.969 330.04 341.271 330.016C341.241 330.015 341.215 329.999 341.185 329.997C343.226 329.363 345.783 327.606 347.231 325.916C347.88 325.06 348.482 324.179 349.077 323.3C350.326 321.322 351.956 318.06 349.487 318.473C348.468 318.644 347.535 320.31 346.777 320.915C344.884 322.426 341.882 323.393 339.51 323.69C336.826 324.026 332.046 321.208 330.14 322.305C328.872 323.036 329.141 324.484 328.845 325.765C328.487 327.313 328.04 328.568 327.319 329.706C327.286 329.895 327.221 330.084 327.104 330.254C327.091 330.274 327.098 330.278 327.084 330.297C326.451 331.219 323.769 334.824 323.186 335.653C320.264 339.806 318.798 343.08 318.82 346.169C319.534 347.05 320.577 347.732 321.336 348.535C323.274 350.584 325.735 352.372 328.462 353.248C329.123 353.327 330.015 353.475 330.597 353.489C331.851 353.521 333.096 353.175 335.104 352.337C335.308 352.252 336.695 351.666 337.025 351.533C338.106 351.097 339.056 350.611 339.99 350.114Z" fill="#F4F4F4"/>
<path d="M318.14 328.35C318.737 327.749 318.733 326.775 318.131 326.178C317.53 325.581 316.556 325.585 315.959 326.187C315.363 326.788 315.371 327.758 315.972 328.355C316.574 328.951 317.544 328.951 318.14 328.35ZM301.459 345.164C302.056 344.562 302.052 343.589 301.451 342.992C300.849 342.395 299.875 342.399 299.278 343.001C298.682 343.602 298.69 344.572 299.291 345.168C299.893 345.765 300.863 345.765 301.459 345.164ZM314.922 328.124C315.519 327.523 315.511 326.553 314.909 325.956C314.308 325.36 313.338 325.359 312.741 325.961C312.145 326.562 312.149 327.536 312.75 328.133C313.352 328.729 314.325 328.726 314.922 328.124ZM301.212 341.944C301.809 341.342 301.805 340.368 301.204 339.771C300.602 339.175 299.628 339.179 299.031 339.78C298.434 340.382 298.439 341.356 299.04 341.952C299.641 342.549 300.615 342.545 301.212 341.944ZM311.357 328.505C311.953 327.903 311.954 326.933 311.352 326.337C310.751 325.74 309.777 325.744 309.18 326.345C308.584 326.947 308.587 327.921 309.189 328.517C309.79 329.114 310.76 329.106 311.357 328.505ZM301.564 338.375C302.161 337.774 302.157 336.808 301.555 336.212C300.954 335.615 299.984 335.615 299.387 336.216C298.791 336.817 298.795 337.792 299.396 338.388C299.998 338.985 300.967 338.977 301.564 338.375ZM308.035 330.052C308.631 329.451 308.624 328.481 308.022 327.884C307.421 327.288 306.451 327.287 305.854 327.889C305.258 328.49 305.261 329.464 305.863 330.061C306.464 330.657 307.438 330.654 308.035 330.052ZM303.085 335.041C303.682 334.44 303.678 333.466 303.077 332.869C302.475 332.273 301.501 332.277 300.904 332.878C300.308 333.479 300.316 334.449 300.917 335.046C301.519 335.643 302.488 335.643 303.085 335.041ZM305.522 332.403C306.119 331.801 306.111 330.831 305.51 330.235C304.908 329.638 303.938 329.638 303.342 330.239C302.745 330.841 302.749 331.815 303.351 332.411C303.952 333.008 304.926 333.004 305.522 332.403Z" fill="#F4F4F4"/>
<path d="M308.291 317.334C309.109 316.875 309.825 316.26 310.35 315.449C310.532 315.167 310.688 314.865 310.813 314.553C310.944 314.226 311.043 313.889 311.08 313.538C311.218 312.237 310.468 311.248 309.542 310.428C309.021 309.966 308.453 309.558 307.914 309.117C307.532 308.805 307.154 308.464 306.865 308.062C306.677 307.799 306.535 307.501 306.416 307.2C305.895 305.891 305.961 304.438 305.993 303.056C306.008 302.409 306.005 301.767 305.955 301.128C306.351 301.125 306.751 301.112 307.137 301.141C307.709 300.571 307.863 299.933 307.83 298.755C307.826 298.621 307.815 298.387 307.8 298.084C307.756 297.882 307.676 297.584 307.657 297.448C307.204 294.28 306.132 285.717 303.494 282.355C303.413 282.371 303.336 282.381 303.254 282.398C301.81 282.701 300.646 283.042 298.119 283.855C294.441 285.038 291.107 286.607 287.075 288.953C280.539 292.756 277.662 295.492 275.346 300.72C277.294 304.327 284.13 308.996 286.632 310.904C287.056 311.142 287.596 311.45 287.81 311.559C288.421 311.872 288.87 312.005 289.302 311.953C289.423 311.67 289.55 311.407 289.677 311.137C290.133 311.652 290.623 312.138 291.138 312.592C292.298 313.614 293.561 314.52 294.875 315.333C296.183 316.143 297.553 316.862 298.976 317.449C300.494 318.075 302.104 318.592 303.762 318.505C305.28 318.424 306.928 318.097 308.291 317.334ZM308.057 316.357C306.694 317.199 304.92 317.5 303.381 317.547C302.724 317.568 302.057 317.43 301.425 317.263C300.717 317.075 300.028 316.829 299.351 316.548C297.978 315.979 296.657 315.275 295.394 314.492C294.072 313.673 292.797 312.763 291.641 311.721C291.11 311.243 290.608 310.732 290.154 310.182C290.818 308.933 291.569 307.829 292.468 306.879C295.518 303.651 300.463 301.448 305.013 301.145C305.08 301.961 305.057 302.79 305.044 303.612C305.017 305.154 305.074 306.737 305.813 308.132C306.558 309.536 308.042 310.283 309.153 311.351C309.731 311.905 310.227 312.598 310.135 313.438C310.106 313.702 310.027 313.951 309.928 314.196C309.543 315.151 308.875 315.851 308.057 316.357Z" fill="#F4F4F4"/>
<path d="M333.909 285.676C335.091 285.388 335.812 284.193 335.523 283.01L329.827 259.671C329.539 258.488 328.349 257.759 327.166 258.048L315.912 260.795C314.73 261.083 314.009 262.278 314.298 263.461L319.994 286.8C320.282 287.983 321.472 288.711 322.655 288.423L333.909 285.676ZM333.906 284.933C333.226 285.099 332.538 284.687 332.372 284.007C332.206 283.326 332.625 282.637 333.305 282.471C333.986 282.305 334.669 282.725 334.835 283.406C335.001 284.086 334.587 284.767 333.906 284.933ZM330.363 283.843C329.682 284.009 329 283.589 328.834 282.908C328.668 282.227 329.08 281.54 329.761 281.374C330.441 281.207 331.13 281.626 331.296 282.307C331.463 282.988 331.044 283.677 330.363 283.843ZM332.926 280.918C332.246 281.084 331.557 280.665 331.391 279.984C331.224 279.304 331.645 278.621 332.325 278.455C333.006 278.289 333.687 278.703 333.853 279.383C334.019 280.064 333.607 280.752 332.926 280.918Z" fill="#F4F4F4"/>
<path d="M376.11 320.32L377.455 307.753C377.152 307.802 376.843 307.83 376.524 307.796L371.956 307.307C371.637 307.273 371.335 307.178 371.05 307.066L369.704 319.633L376.11 320.32ZM378.938 305.915C379.314 305.469 379.567 304.908 379.633 304.284L380.054 300.337C380.232 298.674 379.028 297.181 377.365 297.003L373.414 296.579C371.75 296.401 370.262 297.609 370.084 299.272L369.659 303.215C369.481 304.879 370.684 306.371 372.348 306.55L376.299 306.973C377.339 307.085 378.311 306.658 378.938 305.915ZM378.658 296.483L380.111 282.889L373.711 282.205L372.258 295.799C372.56 295.75 372.87 295.731 373.19 295.765L377.758 296.253C378.077 296.287 378.373 296.371 378.658 296.483Z" fill="#F4F4F4"/>
<path d="M364.066 282.619L363.451 279.927L359.505 280.032L358.824 282.5L362.109 284.789L364.066 282.619ZM361.434 279.213C361.455 274.796 358.515 270.856 354.196 269.664C348.947 268.214 343.515 271.295 342.066 276.544C340.616 281.794 343.697 287.225 348.947 288.675C353.222 289.855 357.72 288.034 359.992 284.301L358.881 283.626C356.91 286.865 353.003 288.443 349.293 287.418C344.738 286.16 342.064 281.447 343.322 276.891C344.58 272.335 349.293 269.662 353.849 270.92C357.597 271.955 360.149 275.378 360.131 279.209L361.434 279.213Z" fill="#F4F4F4"/>
<path d="M376.937 73.3822C377.794 73.1273 377.047 68.9823 376.937 68.2921C376.25 63.9974 374.774 59.5555 374.664 55.2105C373.975 54.9868 373.589 54.8764 373.167 54.8016C372.404 54.6667 371.6 54.5814 370.757 54.5033C370.788 54.6494 370.859 54.9286 370.869 55.0215C371.15 57.5867 371.653 62.1786 369.775 64.2871C367.06 63.8441 364.336 63.4493 361.808 62.2901C359.17 61.0799 356.695 59.054 354.422 57.2487C353.539 56.5476 352.692 55.575 351.624 55.1506C351.046 54.921 350.364 54.8129 349.656 54.7462C345.996 55.1687 342.551 55.8301 339.22 56.7966C338.665 56.9577 338.22 57.0631 337.219 57.2872C337.123 57.3085 337.077 57.3182 337.025 57.3299C336.111 57.5349 335.452 57.7083 334.893 57.8885C334.955 58.0085 335.078 58.2417 335.099 58.2916C336.196 60.8978 339.265 63.3276 341.778 64.5124C350.8 68.7648 360.147 70.0252 369.954 71.1988C371.612 71.3972 373.336 71.7067 374.894 72.3242C375.191 72.4418 376.706 73.4511 376.937 73.3822Z" fill="#F4F4F4"/>
<path d="M356.99 108.114C359.435 106.369 361.53 103.886 362.713 101.151C363.877 98.4555 363.706 94.7322 362.817 91.9801C362.565 91.2003 362.167 90.2591 361.893 89.3116C361.876 89.3215 361.859 89.3293 361.843 89.3387C361.734 88.7287 361.598 88.0668 361.264 87.8177C361.112 87.7048 360.618 87.9468 360.462 87.9777C359.784 88.1131 358.969 88.0401 358.271 88.0162C358.241 88.0152 358.215 87.9991 358.185 87.9973C360.226 87.3628 362.783 85.6058 364.231 83.9164C364.88 83.0603 365.482 82.1792 366.077 81.2996C367.326 79.3224 368.956 76.0601 366.487 76.4733C365.468 76.6438 364.535 78.3096 363.777 78.9146C361.884 80.4256 358.882 81.3926 356.51 81.6899C353.826 82.026 349.046 79.2085 347.14 80.3054C345.872 81.0357 346.141 82.4838 345.845 83.7648C345.487 85.3133 345.04 86.5685 344.319 87.7056C344.286 87.8954 344.221 88.0843 344.104 88.2539C344.091 88.2736 344.098 88.2777 344.084 88.2974C343.451 89.2188 340.769 92.8239 340.186 93.6528C337.264 97.8058 335.798 101.08 335.82 104.169C336.534 105.05 337.577 105.732 338.336 106.535C340.274 108.584 342.735 110.372 345.462 111.248C346.123 111.327 347.015 111.475 347.597 111.489C348.851 111.521 350.096 111.175 352.104 110.337C352.308 110.252 353.695 109.666 354.025 109.533C355.106 109.097 356.056 108.611 356.99 108.114Z" fill="#F4F4F4"/>
<path d="M335.14 86.35C335.737 85.7486 335.733 84.7749 335.131 84.1781C334.53 83.5813 333.556 83.585 332.959 84.1868C332.363 84.7881 332.371 85.7579 332.972 86.3547C333.574 86.951 334.544 86.9513 335.14 86.35ZM318.459 103.164C319.056 102.562 319.052 101.589 318.451 100.992C317.849 100.395 316.875 100.399 316.278 101.001C315.682 101.602 315.69 102.572 316.291 103.168C316.893 103.765 317.863 103.765 318.459 103.164ZM331.922 86.1243C332.519 85.523 332.511 84.5532 331.909 83.9564C331.308 83.3596 330.338 83.3594 329.741 83.9607C329.145 84.562 329.149 85.5362 329.75 86.133C330.352 86.7293 331.325 86.7256 331.922 86.1243ZM318.212 99.9437C318.809 99.3423 318.805 98.3681 318.204 97.7713C317.602 97.175 316.628 97.1787 316.031 97.78C315.434 98.3818 315.439 99.3556 316.04 99.9524C316.641 100.549 317.615 100.545 318.212 99.9437ZM328.357 86.5046C328.953 85.9032 328.954 84.9334 328.352 84.3365C327.751 83.7398 326.777 83.744 326.18 84.3453C325.584 84.9466 325.587 85.9208 326.189 86.5171C326.79 87.1139 327.76 87.1059 328.357 86.5046ZM318.564 96.3754C319.161 95.774 319.157 94.8081 318.555 94.2118C317.954 93.615 316.984 93.6148 316.387 94.2161C315.791 94.8174 315.795 95.7917 316.396 96.3884C316.998 96.9847 317.967 96.9772 318.564 96.3754ZM325.035 88.0523C325.631 87.451 325.624 86.4807 325.022 85.8844C324.421 85.2876 323.451 85.2873 322.854 85.8887C322.258 86.49 322.261 87.4642 322.863 88.061C323.464 88.6573 324.438 88.6537 325.035 88.0523ZM320.085 93.0411C320.682 92.4398 320.678 91.4661 320.077 90.8693C319.475 90.2725 318.501 90.2767 317.904 90.878C317.308 91.4793 317.316 92.4491 317.917 93.0459C318.519 93.6427 319.488 93.6429 320.085 93.0411ZM322.522 90.4031C323.119 89.8013 323.111 88.8315 322.51 88.2352C321.908 87.6384 320.938 87.6382 320.342 88.2395C319.745 88.8408 319.749 89.8151 320.351 90.4113C320.952 91.0081 321.926 91.0045 322.522 90.4031Z" fill="#F4F4F4"/>
<path d="M325.291 75.3339C326.109 74.8754 326.825 74.2605 327.35 73.449C327.532 73.167 327.688 72.8646 327.813 72.5533C327.944 72.2264 328.043 71.889 328.08 71.538C328.218 70.2374 327.468 69.2478 326.542 68.4279C326.021 67.9659 325.453 67.5583 324.914 67.1171C324.532 66.8045 324.154 66.4645 323.865 66.0623C323.677 65.7987 323.535 65.5009 323.416 65.2004C322.895 63.8909 322.961 62.4378 322.993 61.0559C323.008 60.4093 323.005 59.7667 322.955 59.1284C323.351 59.1254 323.751 59.1122 324.137 59.1409C324.709 58.5706 324.863 57.9326 324.83 56.7547C324.826 56.6209 324.815 56.3872 324.8 56.0837C324.756 55.8821 324.676 55.5837 324.657 55.4476C324.204 52.28 323.132 43.7166 320.494 40.355C320.413 40.3713 320.336 40.3811 320.254 40.3985C318.81 40.7008 317.646 41.0418 315.119 41.8549C311.441 43.0383 308.107 44.6072 304.075 46.9534C297.539 50.756 294.662 53.4916 292.346 58.7195C294.294 62.3266 301.13 66.9958 303.632 68.9037C304.056 69.1419 304.596 69.4497 304.81 69.5591C305.421 69.8719 305.87 70.0045 306.302 69.9527C306.423 69.6697 306.55 69.4073 306.677 69.1374C307.133 69.6515 307.623 70.138 308.138 70.5918C309.298 71.614 310.561 72.5199 311.875 73.3329C313.183 74.1427 314.553 74.8619 315.976 75.449C317.494 76.0754 319.104 76.5921 320.762 76.5045C322.28 76.4242 323.928 76.0975 325.291 75.3339ZM325.057 74.3568C323.694 75.1985 321.92 75.4995 320.381 75.5471C319.724 75.5677 319.057 75.4302 318.425 75.2633C317.717 75.0755 317.028 74.8287 316.351 74.5478C314.978 73.9793 313.657 73.2746 312.394 72.4924C311.072 71.6733 309.797 70.7627 308.641 69.7206C308.11 69.2434 307.608 68.7322 307.154 68.1816C307.818 66.9327 308.569 65.8294 309.468 64.8785C312.518 61.6506 317.463 59.4485 322.013 59.1453C322.08 59.9611 322.057 60.7901 322.044 61.6122C322.017 63.1544 322.074 64.7374 322.813 66.1318C323.558 67.5365 325.042 68.2833 326.153 69.3506C326.731 69.905 327.227 70.5978 327.135 71.438C327.106 71.7021 327.027 71.9512 326.928 72.1961C326.543 73.151 325.875 73.8513 325.057 74.3568Z" fill="#F4F4F4"/>
<path d="M350.909 43.6763C352.091 43.3877 352.812 42.1927 352.523 41.0103L346.827 17.6705C346.539 16.4881 345.349 15.7594 344.166 16.048L332.912 18.7946C331.73 19.0832 331.009 20.2781 331.298 21.4606L336.994 44.8003C337.282 45.9828 338.472 46.7115 339.655 46.4229L350.909 43.6763ZM350.906 42.9333C350.226 43.0995 349.538 42.6874 349.372 42.0066C349.206 41.3257 349.625 40.6368 350.305 40.4707C350.986 40.3045 351.669 40.7247 351.835 41.4056C352.001 42.0864 351.587 42.7671 350.906 42.9333ZM347.363 41.8428C346.682 42.009 346 41.5888 345.834 40.9079C345.668 40.2271 346.08 39.5399 346.761 39.3737C347.441 39.2075 348.13 39.626 348.296 40.3069C348.463 40.9878 348.044 41.6766 347.363 41.8428ZM349.926 38.9177C349.246 39.0839 348.557 38.6653 348.391 37.9844C348.224 37.3036 348.645 36.6213 349.325 36.4551C350.006 36.2889 350.687 36.7026 350.853 37.3834C351.019 38.0643 350.607 38.7515 349.926 38.9177Z" fill="#F4F4F4"/>
<path d="M381.066 40.6193L380.451 37.9267L376.505 38.0321L375.824 40.4996L379.109 42.7888L381.066 40.6193ZM378.434 37.2126C378.455 32.7963 375.515 28.8561 371.196 27.6636C365.947 26.214 360.515 29.2947 359.066 34.5443C357.616 39.7939 360.697 45.225 365.947 46.6746C370.222 47.855 374.72 46.0341 376.992 42.3009L375.881 41.6259C373.91 44.8648 370.003 46.4428 366.293 45.4184C361.738 44.1604 359.064 39.447 360.322 34.8912C361.58 30.3354 366.293 27.6618 370.849 28.9198C374.597 29.9547 377.149 33.3775 377.131 37.209L378.434 37.2126Z" fill="#F4F4F4"/>
<path d="M320.937 -6.61779C321.794 -6.87274 321.047 -11.0177 320.937 -11.7079C320.25 -16.0026 318.774 -20.4445 318.664 -24.7895C317.975 -25.0132 317.589 -25.1236 317.167 -25.1984C316.404 -25.3333 315.6 -25.4186 314.757 -25.4967C314.788 -25.3506 314.859 -25.0714 314.869 -24.9785C315.15 -22.4133 315.653 -17.8214 313.775 -15.7129C311.06 -16.1559 308.336 -16.5507 305.808 -17.7099C303.17 -18.9201 300.695 -20.946 298.422 -22.7513C297.539 -23.4524 296.692 -24.425 295.624 -24.8494C295.046 -25.079 294.364 -25.1871 293.656 -25.2538C289.996 -24.8313 286.551 -24.1699 283.22 -23.2034C282.665 -23.0423 282.22 -22.9369 281.219 -22.7128C281.123 -22.6915 281.077 -22.6818 281.025 -22.6701C280.111 -22.4651 279.452 -22.2917 278.893 -22.1115C278.955 -21.9915 279.078 -21.7583 279.099 -21.7084C280.196 -19.1022 283.265 -16.6724 285.778 -15.4876C294.8 -11.2352 304.147 -9.97477 313.954 -8.80123C315.612 -8.60281 317.336 -8.2933 318.894 -7.6758C319.191 -7.55822 320.706 -6.54888 320.937 -6.61779Z" fill="#F4F4F4"/>
<path d="M300.99 28.114C303.435 26.369 305.53 23.8859 306.713 21.1506C307.877 18.4555 307.706 14.7322 306.817 11.9801C306.565 11.2003 306.167 10.2591 305.893 9.31164C305.876 9.32147 305.859 9.32927 305.843 9.33868C305.734 8.72873 305.598 8.06679 305.264 7.81773C305.112 7.70477 304.618 7.94683 304.462 7.97769C303.784 8.11309 302.969 8.04008 302.271 8.01618C302.241 8.01516 302.215 7.99906 302.185 7.99733C304.226 7.36285 306.783 5.60578 308.231 3.91642C308.88 3.06032 309.482 2.17917 310.077 1.29958C311.326 -0.677581 312.956 -3.93987 310.487 -3.52672C309.468 -3.35621 308.535 -1.69037 307.777 -1.08538C305.884 0.425552 302.882 1.39257 300.51 1.68986C297.826 2.02596 293.046 -0.791533 291.14 0.305384C289.872 1.03572 290.141 2.48375 289.845 3.76479C289.487 5.31332 289.04 6.56848 288.319 7.70559C288.286 7.89542 288.221 8.08429 288.104 8.25393C288.091 8.27363 288.098 8.27774 288.084 8.2974C287.451 9.21883 284.769 12.8239 284.186 13.6528C281.264 17.8058 279.798 21.0799 279.82 24.169C280.534 25.0503 281.577 25.7319 282.336 26.5351C284.274 28.5842 286.735 30.3717 289.462 31.2484C290.123 31.3271 291.015 31.4749 291.597 31.4892C292.851 31.5211 294.096 31.1746 296.104 30.3371C296.308 30.2516 297.695 29.6663 298.025 29.5332C299.106 29.0965 300.056 28.6112 300.99 28.114Z" fill="#F4F4F4"/>
<path d="M279.14 6.34996C279.737 5.74864 279.733 4.77491 279.131 4.17813C278.53 3.58135 277.556 3.58501 276.959 4.18682C276.363 4.78814 276.371 5.75794 276.972 6.35472C277.574 6.95104 278.544 6.95128 279.14 6.34996ZM262.459 23.1637C263.056 22.5624 263.052 21.5887 262.451 20.9918C261.849 20.3951 260.875 20.3987 260.278 21.0006C259.682 21.6019 259.69 22.5717 260.291 23.1685C260.893 23.7648 261.863 23.765 262.459 23.1637ZM275.922 6.12431C276.519 5.52299 276.511 4.55319 275.909 3.95641C275.308 3.35963 274.338 3.35936 273.741 3.96068C273.145 4.562 273.149 5.53623 273.75 6.13301C274.352 6.72929 275.325 6.72563 275.922 6.12431ZM262.212 19.9437C262.809 19.3423 262.805 18.3681 262.204 17.7713C261.602 17.175 260.628 17.1787 260.031 17.78C259.434 18.3818 259.439 19.3556 260.04 19.9524C260.641 20.5492 261.615 20.545 262.212 19.9437ZM272.357 6.50456C272.953 5.90324 272.954 4.93336 272.352 4.33654C271.751 3.7398 270.777 3.74395 270.18 4.34527C269.584 4.94659 269.587 5.92082 270.189 6.51711C270.79 7.11389 271.76 7.10588 272.357 6.50456ZM262.564 16.3754C263.161 15.774 263.157 14.8081 262.555 14.2118C261.954 13.615 260.984 13.6148 260.387 14.2161C259.791 14.8174 259.795 15.7917 260.396 16.3884C260.998 16.9847 261.967 16.9772 262.564 16.3754ZM269.035 8.05233C269.631 7.45097 269.624 6.48068 269.022 5.8844C268.421 5.28762 267.451 5.28734 266.854 5.88866C266.258 6.49002 266.261 7.46425 266.863 8.06103C267.464 8.65731 268.438 8.65365 269.035 8.05233ZM264.085 13.0411C264.682 12.4398 264.678 11.4661 264.077 10.8693C263.475 10.2725 262.501 10.2767 261.904 10.878C261.308 11.4793 261.316 12.4491 261.917 13.0459C262.519 13.6427 263.488 13.6429 264.085 13.0411ZM266.522 10.4031C267.119 9.80129 267.111 8.83149 266.51 8.23521C265.908 7.63843 264.938 7.63815 264.342 8.23947C263.745 8.84083 263.749 9.81506 264.351 10.4113C264.952 11.0081 265.926 11.0045 266.522 10.4031Z" fill="#F4F4F4"/>
<path d="M269.291 -4.6661C270.109 -5.12458 270.825 -5.73953 271.35 -6.55101C271.532 -6.83302 271.688 -7.13541 271.813 -7.44666C271.944 -7.77361 272.043 -8.11101 272.08 -8.46195C272.218 -9.76256 271.468 -10.7522 270.542 -11.5721C270.021 -12.0341 269.453 -12.4417 268.914 -12.8829C268.532 -13.1955 268.154 -13.5355 267.865 -13.9377C267.677 -14.2013 267.535 -14.4991 267.416 -14.7996C266.895 -16.1091 266.961 -17.5622 266.993 -18.9441C267.008 -19.5907 267.005 -20.2333 266.955 -20.8716C267.351 -20.8746 267.751 -20.8878 268.137 -20.8591C268.709 -21.4294 268.863 -22.0674 268.83 -23.2453C268.826 -23.3791 268.815 -23.6128 268.8 -23.9163C268.756 -24.1179 268.676 -24.4163 268.657 -24.5524C268.204 -27.72 267.132 -36.2834 264.494 -39.645C264.413 -39.6287 264.336 -39.6189 264.254 -39.6015C262.81 -39.2992 261.646 -38.9582 259.119 -38.1451C255.441 -36.9617 252.107 -35.3928 248.075 -33.0466C241.539 -29.244 238.662 -26.5084 236.346 -21.2805C238.294 -17.6734 245.13 -13.0042 247.632 -11.0963C248.056 -10.8581 248.596 -10.5503 248.81 -10.4409C249.421 -10.1281 249.87 -9.99547 250.302 -10.0473C250.423 -10.3303 250.55 -10.5927 250.677 -10.8626C251.133 -10.3485 251.623 -9.86199 252.138 -9.40816C253.298 -8.38602 254.561 -7.48015 255.875 -6.66706C257.183 -5.8573 258.553 -5.13808 259.976 -4.55099C261.494 -3.92459 263.104 -3.40787 264.762 -3.49547C266.28 -3.57578 267.928 -3.9025 269.291 -4.6661ZM269.057 -5.64321C267.694 -4.8015 265.92 -4.5005 264.381 -4.45288C263.724 -4.43233 263.057 -4.56978 262.425 -4.73675C261.717 -4.92451 261.028 -5.17134 260.351 -5.45219C258.978 -6.02069 257.657 -6.72538 256.394 -7.50761C255.072 -8.32674 253.797 -9.2373 252.641 -10.2794C252.11 -10.7566 251.608 -11.2678 251.154 -11.8184C251.818 -13.0673 252.569 -14.1706 253.468 -15.1215C256.518 -18.3494 261.463 -20.5515 266.013 -20.8547C266.08 -20.0389 266.057 -19.2099 266.044 -18.3878C266.017 -16.8456 266.074 -15.2626 266.813 -13.8682C267.558 -12.4635 269.042 -11.7167 270.153 -10.6494C270.731 -10.095 271.227 -9.40218 271.135 -8.56199C271.106 -8.29792 271.027 -8.04876 270.928 -7.80394C270.543 -6.849 269.875 -6.14868 269.057 -5.64321Z" fill="#F4F4F4"/>
<path d="M337.11 -1.67988L338.455 -14.2466C338.152 -14.1979 337.843 -14.17 337.524 -14.2041L332.956 -14.6925C332.637 -14.7266 332.335 -14.8225 332.05 -14.9342L330.704 -2.36749L337.11 -1.67988ZM339.938 -16.0853C340.314 -16.5312 340.567 -17.092 340.633 -17.7159L341.054 -21.6626C341.232 -23.326 340.028 -24.8189 338.365 -24.9969L334.414 -25.4206C332.75 -25.5985 331.262 -24.3914 331.084 -22.728L330.659 -18.7848C330.481 -17.1214 331.684 -15.6285 333.348 -15.4505L337.299 -15.0268C338.339 -14.9154 339.311 -15.3422 339.938 -16.0853ZM339.658 -25.5169L341.111 -39.1109L334.711 -39.7947L333.258 -26.2007C333.56 -26.2497 333.87 -26.2694 334.19 -26.2353L338.758 -25.7467C339.077 -25.7126 339.373 -25.6287 339.658 -25.5169Z" fill="#F4F4F4"/>
<path d="M291.95 217.2L207.795 195.304L208.447 170.245L225.245 163.122L239.132 147.927L251.783 124.868L270.733 125.077L282.547 113.512L285.118 100.774L277.949 86.9539L267.349 83.0329L259.109 82.1182L252.566 84.7155L244.754 66.8327L221.359 44.0215L199.2 35.4489L180.51 32.3823L158.094 37.5343L142.459 48.6978L132.33 56.0109L119.355 78.5317L117.102 83.1918L106.614 80.8817L92.6422 83.6771L85.2817 91.614L83.2075 104.072L87.8817 116.669L95.2502 122.507L109.853 119.421L113.362 118.876L123.301 139.932L133.467 155.631L146.691 164.111L163.182 171.131L163.947 195.021L119.391 205.013L121.499 196.858L120.629 192.918L123.274 186.836L123.803 181.582L125.914 175.501L121.214 168.799L121.789 162.802L105.368 157.382L83.524 169.64L71.2859 186.362C71.2859 186.362 69.0815 189.359 69.9723 205.583C70.8638 221.806 83.3491 227.632 83.3491 227.632L188.657 308.098L291.95 217.2Z" fill="white"/>
<path d="M113.241 104.32C113.241 65.2734 144.894 33.6201 183.941 33.6201C222.987 33.6201 254.64 65.2734 254.64 104.32C254.64 143.366 222.987 175.019 183.941 175.019C144.894 175.019 113.241 143.366 113.241 104.32Z" stroke="black" stroke-width="5" stroke-miterlimit="10" stroke-linejoin="round"/>
<path d="M164.394 202.519V171.704" stroke="black" stroke-width="5" stroke-miterlimit="10" stroke-linejoin="round"/>
<path d="M208.399 202.519V171.704" stroke="black" stroke-width="5" stroke-miterlimit="10" stroke-linejoin="round"/>
<path d="M114.879 121.74C111.753 123.488 108.149 124.484 104.313 124.484C92.3376 124.484 82.6304 114.777 82.6304 102.802C82.6304 90.8269 92.3376 81.119 104.313 81.119C108.499 81.119 112.409 82.3057 115.723 84.3605" stroke="black" stroke-width="5" stroke-miterlimit="10" stroke-linejoin="round"/>
<path d="M252.875 85.1024C255.88 83.5275 259.299 82.6367 262.927 82.6367C274.902 82.6367 284.61 92.3446 284.61 104.319C284.61 116.294 274.902 126.002 262.927 126.002C259.236 126.002 255.761 125.08 252.719 123.454" stroke="black" stroke-width="5" stroke-miterlimit="10" stroke-linejoin="round"/>
<path d="M114.013 69.723L131.336 96.9423L166.836 97.5692L179.468 84.1591L183.742 84.1398H184.141L188.414 84.1591L201.045 97.5692L236.546 96.9423L253.87 69.723L183.95 71.3186L114.013 69.723Z" fill="black"/>
<path d="M178.455 80.4137C177.431 80.5746 176.54 81.3185 176.273 82.3875C174.155 90.8762 173.016 99.7498 173.655 108.501C173.887 111.677 174.365 114.855 175.276 117.912C175.581 118.934 175.912 119.963 176.377 120.924C178.938 126.221 186.083 129.419 191.127 125.536C191.945 124.907 192.637 124.132 193.205 123.272C195.574 119.68 195.176 115.232 195.24 111.14C195.263 109.671 194.091 108.462 192.622 108.439C191.155 108.416 189.945 109.588 189.922 111.056C189.894 112.915 189.976 114.77 189.818 116.624C189.717 117.813 189.519 119.07 188.904 120.114C188.666 120.518 188.386 120.887 188.031 121.195C186.271 122.72 183.678 121.62 182.256 120.155C180.826 118.684 180.299 116.415 179.867 114.484C178.954 110.404 178.715 106.19 178.828 102.019C178.997 95.8255 179.926 89.6822 181.425 83.6752C181.781 82.2505 180.918 80.8106 179.493 80.4556C179.137 80.3665 178.796 80.3599 178.455 80.4137Z" fill="black"/>
<path d="M255.798 100.516C257.361 99.416 258.919 98.5777 260.838 98.2679C266.74 97.3159 269.976 102.959 267.818 108.062C266.432 111.339 263.338 112.618 259.99 112.618C258.705 112.618 257.788 112.429 256.735 111.655" fill="black"/>
<path d="M262.841 95.5377C261.856 95.4626 260.824 95.5297 259.808 95.7458C257.78 96.1759 256.008 97.1711 254.303 98.3212C253.085 99.1435 252.774 100.782 253.596 101.999C254.418 103.215 256.077 103.548 257.294 102.726C258.232 102.091 259.178 101.47 260.264 101.126C260.956 100.907 261.698 100.788 262.425 100.835C265.669 101.049 266.519 104.718 265.25 107.296C264.377 109.071 262.523 109.809 260.639 109.934C259.753 109.994 258.984 109.995 258.249 109.478C257.046 108.636 255.394 108.918 254.552 110.121C253.71 111.325 254.013 112.998 255.217 113.84C256.822 114.956 258.558 115.336 260.493 115.273C265.454 115.112 269.605 112.397 270.839 107.421C271.178 106.054 271.244 104.617 271.026 103.225C270.857 102.144 270.509 101.091 269.988 100.129C268.457 97.304 265.795 95.763 262.841 95.5377Z" fill="black"/>
<path d="M262.093 108.044C261.058 108 260.051 108.565 259.579 109.561C258.532 111.773 257.618 114.034 256.837 116.354C256.208 118.223 255.632 120.119 255.051 122.005C254.734 123.033 254.406 124.049 254.095 125.079C253.134 128.264 252.206 131.905 252.412 135.321C251.446 136.134 250.584 137.094 249.94 138.208C249.054 139.742 248.528 141.521 248.32 143.34C246.779 144.117 245.427 145.209 244.352 146.518C243.465 146.369 242.55 146.246 241.589 146.207C240.626 146.168 239.682 146.139 238.722 146.228C237.26 146.37 236.191 147.674 236.332 149.136C236.475 150.598 237.78 151.667 239.242 151.525C240.15 151.431 241.072 151.49 241.983 151.546C242.039 151.549 242.093 151.563 242.149 151.567C241.421 155.552 242.194 160.537 246.097 162.162C246.714 162.419 247.381 162.568 248.05 162.598C248.58 162.621 249.115 162.569 249.628 162.432C253.169 161.488 254.159 157.481 253.347 154.288C254.103 154.685 254.91 154.984 255.757 155.099C256.918 155.255 258.12 155.15 259.185 154.641C261.903 153.344 263.557 149.802 262.53 146.913C262.165 145.889 261.46 145.008 260.597 144.275C261.033 144.277 261.425 144.364 261.886 144.337C264.768 144.167 267.445 142.797 267.827 139.642C267.879 139.216 267.881 138.739 267.827 138.313C267.47 135.46 264.89 133.667 262.301 132.974C260.787 132.568 259.272 132.648 257.772 132.911C258.081 129.707 259.198 126.62 260.14 123.562C261.368 119.578 262.59 115.621 264.378 111.846C265.007 110.519 264.438 108.922 263.111 108.293C262.78 108.136 262.439 108.058 262.093 108.044ZM259.538 137.96C260.306 137.95 261.087 138.103 261.782 138.437C261.987 138.536 262.189 138.66 262.364 138.811C261.961 138.925 261.563 139.019 261.138 139.039C260.701 139.061 260.075 139.185 259.642 138.998C259.244 138.827 258.941 138.482 258.687 138.105C258.974 138.057 259.239 137.963 259.538 137.96ZM254.448 141.242C254.637 141.498 254.851 141.745 255.071 141.99C254.739 141.958 254.41 141.992 254.074 141.99C254.167 141.72 254.321 141.491 254.448 141.242ZM254.49 147.267C255.018 147.305 255.538 147.414 256.027 147.62C256.44 147.793 256.815 148.049 257.149 148.346C257.261 148.446 257.338 148.529 257.439 148.638C257.467 148.667 257.495 148.691 257.523 148.721C257.518 148.896 257.473 149.06 257.398 149.219C257.318 149.392 257.201 149.562 257.066 149.697C257.03 149.733 256.982 149.77 256.941 149.801C256.928 149.811 256.917 149.812 256.9 149.822C256.025 149.851 255.333 149.409 254.78 148.741C254.452 148.343 254.179 147.884 253.971 147.412C253.961 147.392 253.959 147.37 253.949 147.349C254.132 147.346 254.307 147.253 254.49 147.267ZM247.24 153.748C247.779 154.421 248.227 155.188 248.34 156.033C248.383 156.352 248.364 156.679 248.278 156.989C248.255 157.074 248.248 157.142 248.216 157.217C248.001 157.148 247.789 157.026 247.696 156.822C247.415 156.207 247.252 155.541 247.177 154.87C247.137 154.507 247.234 154.124 247.24 153.748Z" fill="black"/>
<path d="M164.937 181.499C166.442 184.516 170.594 184.256 173.706 184.91C181.494 186.544 189.788 186.493 197.696 185.781C200.126 185.561 202.504 185.039 204.893 184.565C205.078 184.528 207.379 184.083 207.433 184.02C207.938 183.439 207.928 181.69 207.998 180.972C208.221 178.661 208.602 176.315 208.602 173.987C208.602 173.685 208.773 171.058 208.724 171.03C208.086 170.675 207.249 171.22 206.748 171.466C205.471 172.091 204.19 172.577 202.817 172.954C198.532 174.129 193.81 174.263 189.391 174.586C186.263 174.814 183.153 174.822 180.017 174.858C178.27 174.878 176.491 174.986 174.755 174.749C173.87 174.629 172.95 174.492 172.074 174.332C170.611 174.066 168.481 172.89 166.954 173.461C166.271 173.716 166.106 174.672 165.925 175.276C165.343 177.22 164.077 179.775 164.937 181.499Z" fill="black"/>
<path d="M210.924 194.302C210.995 194.659 211 195.015 210.924 195.361C210.842 195.734 210.706 196.02 210.529 196.275C210.379 196.493 210.243 196.663 210.072 196.815C209.914 196.956 209.723 197.084 209.511 197.231C209.22 197.433 208.841 197.664 208.39 197.937C207.68 198.367 206.791 198.897 206.54 199.017C203.341 200.556 199.089 201.644 193.1 202.778C187.501 203.838 178.843 203.632 173.467 202.279C171.745 201.846 170.267 201.155 167.816 199.807C167.664 199.723 167.541 199.674 167.256 199.516C164.082 197.761 162.702 197.164 161.19 197.044C160.129 196.959 159.3 196.235 159.008 195.278L77.6758 218.94C95.9555 249.803 115.853 280.502 138.192 312.592C152.122 321.705 168.176 327.639 186.389 327.404C208.802 327.116 226.485 320.465 240.466 310.598C245.462 299.198 250.718 289.875 262.487 270.669C262.575 270.526 262.565 270.522 262.653 270.378C269.61 259.024 272.761 253.776 276.343 247.236C280.638 239.396 290.536 219.87 291.177 218.608C291.21 218.35 291.384 217.299 291.384 217.299L210.924 194.302ZM179.284 211.129L192.186 212.126C192.9 213.68 194.722 214.501 194.969 216.344C195.462 220.019 193.035 222.345 189.838 223.344L197.504 253.156L186.119 292.275L176.397 254.444L181.902 223.137C178.74 221.911 176.503 219.227 177.456 214.972C177.807 213.408 178.15 212.249 179.284 211.129Z" fill="#AF52DE"/>
<path d="M164.647 214.836L186.69 296.651" stroke="black" stroke-width="5" stroke-miterlimit="10" stroke-linejoin="round"/>
<path d="M208.732 214.598L186.69 296.651" stroke="black" stroke-width="5" stroke-miterlimit="10" stroke-linejoin="round"/>
<path d="M183.898 146.56C182.796 146.587 181.917 147.515 181.944 148.617C181.972 149.718 182.879 150.576 183.98 150.549C186.692 150.482 189.412 150.49 192.124 150.549C193.225 150.573 194.136 149.718 194.16 148.617C194.184 147.515 193.308 146.584 192.207 146.56C189.433 146.5 186.671 146.492 183.898 146.56Z" fill="black"/>
<path d="M110.646 197.915C109.624 197.746 108.555 198.168 107.966 199.099C106.669 201.148 105.29 203.162 103.728 205.02C99.6252 209.904 94.382 213.861 88.2094 215.678C85.8999 216.357 83.5253 216.711 81.1254 216.841C79.6589 216.92 78.5527 218.158 78.6325 219.624C78.7116 221.091 79.9494 222.218 81.416 222.138C84.2273 221.985 87.0008 221.584 89.7052 220.788C96.8809 218.676 103.025 214.111 107.8 208.427C109.515 206.386 111.029 204.195 112.454 201.946C113.239 200.705 112.863 199.074 111.623 198.289C111.312 198.093 110.987 197.972 110.646 197.915Z" fill="black"/>
<path d="M112.807 186.863C111.591 186.915 110.371 187.146 109.192 187.528C107.796 187.982 107.034 189.476 107.488 190.872C107.942 192.269 109.436 193.03 110.833 192.576C111.74 192.28 112.658 192.101 113.617 192.14C116.012 192.237 118.344 193.743 118.727 196.232C118.811 196.774 118.806 197.332 118.727 197.873C118.233 201.259 115.631 204.27 113.035 206.308C111.988 207.131 110.733 207.779 109.503 208.282C109.033 208.474 108.551 208.649 108.049 208.738C107.987 208.75 107.935 208.752 107.883 208.76C107.477 207.535 106.266 206.73 104.954 206.952C103.506 207.197 102.528 208.579 102.772 210.027C102.903 210.767 103.121 211.471 103.541 212.104C105.897 215.654 110.85 213.73 113.763 212.125C114.388 211.78 114.999 211.426 115.591 211.024C119.872 208.116 123.837 202.878 124.087 197.541C124.145 196.317 124.003 195.074 123.63 193.906C123.326 192.951 122.88 192.043 122.301 191.225C120.06 188.062 116.455 186.705 112.807 186.863Z" fill="black"/>
<path d="M109.607 175.167C108.139 175.203 106.974 176.421 107.01 177.888C107.046 179.356 108.264 180.5 109.732 180.464C110.328 180.449 110.923 180.45 111.518 180.485C114.67 180.671 118.839 181.967 119.475 185.554C119.565 186.059 119.579 186.561 119.537 187.07C119.458 188.051 119.175 188.98 118.831 189.896C118.316 191.271 119.014 192.809 120.389 193.324C121.764 193.839 123.302 193.141 123.817 191.766C124.402 190.199 124.825 188.585 124.876 186.904C124.912 185.764 124.782 184.614 124.461 183.518C124.206 182.648 123.838 181.817 123.36 181.046C120.48 176.405 114.716 175.046 109.607 175.167Z" fill="black"/>
<path d="M111.56 164.842C110.092 164.797 108.863 165.95 108.818 167.418C108.772 168.886 109.926 170.115 111.394 170.16C112.808 170.204 114.226 170.261 115.611 170.576C117.906 171.098 119.884 172.379 121.366 174.211C122.562 175.691 123.854 178.077 122.819 179.986C122.52 180.54 122.078 180.946 121.594 181.337C120.454 182.263 120.273 183.937 121.199 185.076C122.125 186.216 123.799 186.397 124.939 185.471C125.822 184.75 126.617 183.951 127.224 182.978C130.461 177.791 127.073 171.518 122.758 168.186C119.406 165.599 115.668 164.97 111.56 164.842Z" fill="black"/>
<path d="M108.34 155.514C106.784 155.437 105.209 155.5 103.666 155.722C98.9104 156.404 94.4995 158.859 90.5773 161.518C85.5887 164.9 81.0442 168.974 77.0741 173.505C74.1803 176.807 71.5364 180.397 69.8026 184.453C69.2262 185.804 69.8651 187.367 71.216 187.943C72.5661 188.52 74.1291 187.902 74.7061 186.551C76.2125 183.015 78.5639 179.891 81.0834 177.016C84.5603 173.048 88.5011 169.452 92.8216 166.421C95.9235 164.244 99.3671 162.163 103.084 161.248C104.401 160.923 105.76 160.806 107.115 160.811C108.101 160.815 109.086 160.886 110.064 161.019C110.856 161.128 111.295 161.22 112.079 161.393C115.119 162.065 119.107 163.784 120.057 167.065C120.235 167.679 120.27 168.299 120.265 168.934C120.257 170.403 121.434 171.607 122.903 171.614C124.372 171.622 125.575 170.424 125.583 168.955C125.587 167.809 125.486 166.696 125.168 165.59C123.154 158.605 114.841 155.835 108.34 155.514Z" fill="black"/>
<path d="M114.641 147.833C110.927 145.059 104.225 141.488 99.7041 143.222C97.1932 144.186 94.784 145.914 92.8009 147.716C91.9866 148.456 90.8338 149.652 90.8338 149.652C90.8338 149.652 92.8634 142.915 92.1581 141.248C91.4887 139.666 89.6891 138.206 88.1295 137.572C87.9154 137.484 85.6026 137.133 85.5574 137.026C85.3287 136.493 86.6882 136.76 87.2407 136.584C88.1235 136.303 88.904 135.876 89.6425 135.307C92.0012 133.492 92.4546 130.886 92.3283 128.056C92.2212 125.651 91.01 123.673 89.1699 122.235C88.6314 121.814 88.0497 121.485 87.4487 121.163C87.1449 121 86.2062 120.586 86.5406 120.669C87.4939 120.904 88.1607 121.773 89.0376 122.167C92.297 123.632 96.0724 122.789 99.0234 121.111C101.069 119.949 102.868 118.479 103.864 116.312C104.332 115.293 104.76 114.229 105.056 113.146C105.104 112.972 104.991 112.638 105.169 112.618C105.195 112.615 105.496 115.553 105.51 115.631C105.845 117.536 106.934 119.418 108.291 120.771C111.812 124.287 117.274 123.108 121.378 121.724C121.727 121.607 120.687 121.99 120.375 122.184C119.914 122.471 119.208 122.971 118.787 123.324C117.066 124.769 115.574 126.809 115.25 129.094C114.93 131.348 115.922 134.053 117.312 135.852C117.397 135.963 119.616 137.696 119.601 137.792C119.571 137.979 119.22 137.816 119.033 137.792C117.968 137.663 116.872 137.407 115.856 137.946C115 138.4 113.58 139.121 113.076 139.988C111.872 142.06 113.232 146.183 114.645 147.801" fill="#52B1DE"/>
<path d="M104.85 111.326C104.844 111.328 104.692 111.374 104.6 111.409C104.599 111.406 104.566 111.429 104.559 111.43C104.55 111.435 104.517 111.449 104.517 111.451C104.52 111.457 104.515 111.466 104.517 111.472C104.412 111.529 104.208 111.677 104.185 111.701C103.904 111.974 103.817 112.263 103.749 112.635C103.737 112.7 103.726 112.816 103.728 112.905C103.398 113.871 103.075 114.817 102.648 115.751C101.684 117.857 99.7036 119.316 97.6826 120.322C95.4349 121.44 92.712 122.013 90.2662 121.215C90.0661 121.15 89.8786 121.053 89.6845 120.966C89.6759 120.962 89.6719 120.949 89.6639 120.945C89.3541 120.724 89.037 120.532 88.708 120.343C88.5125 120.23 88.2838 120.096 88.0844 119.989C88.0445 119.968 88.0006 119.947 87.9601 119.927C87.2042 119.459 86.2243 118.991 85.5708 119.699C85.2351 120.062 85.1341 120.329 85.1553 120.82C85.1972 121.794 86.5707 122.212 87.2747 122.586C87.4881 122.749 87.6895 122.923 87.9182 123.064C88.0132 123.122 88.1323 123.135 88.23 123.189C88.6661 123.511 89.0776 123.884 89.4352 124.29C90.9782 126.044 91.2581 128.334 90.9097 130.585C90.5973 132.607 89.4093 134.19 87.5446 135.051C87.2308 135.196 87.1663 135.205 86.8386 135.321C86.7329 135.358 86.2363 135.329 86.0282 135.342C85.3029 135.389 84.5763 135.657 84.3037 136.401C84.2519 136.542 84.218 136.689 84.2 136.838C84.0219 138.331 85.866 138.489 86.8386 138.666C87.0586 138.706 87.2833 138.748 87.5034 138.791C87.5632 138.802 87.6104 138.819 87.6696 138.832C88.6089 139.293 89.4565 139.826 90.1625 140.619C90.465 140.958 90.9037 141.429 90.9516 141.907C91.05 142.88 90.8439 143.911 90.6611 144.856C90.5428 145.466 90.3912 146.081 90.2449 146.684C90.1479 147.086 90.0608 147.491 89.9544 147.89C89.8999 148.094 89.8241 148.329 89.7676 148.534C89.6493 148.958 89.3455 149.726 89.6014 150.154C89.763 150.425 89.975 150.678 90.2449 150.839C90.461 150.968 90.7422 150.955 90.9935 150.964C91.5579 150.985 92.1157 150.238 92.4474 149.905C92.583 149.768 92.7259 149.624 92.8629 149.489C93.0736 149.282 93.291 149.088 93.5071 148.887C93.7218 148.686 93.9618 148.446 94.1718 148.264C96.4374 146.292 99.5593 143.977 102.71 144.109C105.537 144.227 108.289 145.469 110.708 146.851C111.455 147.277 112.201 147.736 112.91 148.222C113.074 148.334 113.208 148.637 113.388 148.554C113.695 148.414 113.653 148.468 113.658 148.492C113.644 148.547 113.578 148.59 113.617 148.638C113.666 148.697 113.747 148.693 113.804 148.741C113.818 148.805 113.755 148.842 113.845 148.907C113.987 149.011 114.163 148.971 114.323 149.011C114.429 149.04 114.505 149.072 114.614 149.074C114.849 149.08 115.029 149.003 115.237 148.887C115.316 148.846 115.415 148.884 115.486 148.824C115.52 148.796 115.518 148.751 115.549 148.721C115.597 148.672 115.673 148.674 115.715 148.617C115.805 148.493 115.776 148.34 115.819 148.201C115.869 148.055 115.925 147.94 115.923 147.786C115.918 147.622 115.861 147.501 115.798 147.349C115.748 147.218 115.768 147.07 115.673 146.955C115.635 146.996 115.627 146.98 115.591 147.017C115.55 146.97 115.534 146.914 115.486 146.872C115.499 146.841 115.516 146.795 115.528 146.768C115.559 146.7 115.425 146.663 115.383 146.602C115.335 146.532 115.303 146.444 115.258 146.373C114.991 145.946 114.758 145.49 114.572 145.022C114.133 143.916 113.798 142.591 113.991 141.387C114.162 140.316 115.147 139.846 116.027 139.372C116.353 139.196 116.666 138.992 117.045 138.957C117.475 138.916 117.908 138.984 118.332 139.039C119.04 139.132 120.008 139.465 120.555 138.749C120.673 138.595 120.746 138.416 120.846 138.25C120.881 138.192 120.899 138.13 120.909 138.063C121.067 136.982 120.045 136.384 119.329 135.799C119.068 135.584 118.803 135.369 118.54 135.155C118.487 135.111 118.407 135.055 118.354 135.009C118.338 134.996 118.336 134.99 118.312 134.968C117.946 134.405 117.576 133.863 117.294 133.244C116.738 132.023 116.378 130.622 116.567 129.276C116.85 127.241 118.248 125.422 119.828 124.186C120.226 123.875 120.649 123.584 121.075 123.313C121.294 123.175 121.582 123.099 121.822 122.981C121.829 122.979 121.837 122.983 121.844 122.981C121.898 122.953 121.965 122.936 122.01 122.898C122.196 122.739 122.387 122.581 122.571 122.42C122.616 122.38 122.637 122.312 122.653 122.253C122.707 122.069 122.796 121.884 122.778 121.693C122.753 121.424 122.67 121.154 122.529 120.924C122.421 120.747 122.225 120.644 122.051 120.53C121.727 120.316 121.32 120.354 120.971 120.467C120.95 120.474 120.93 120.481 120.909 120.488C120.587 120.593 120.256 120.7 119.932 120.8C119.584 120.906 119.246 120.998 118.893 121.09C118.532 121.186 118.157 121.277 117.792 121.361C115.388 121.914 112.585 122.073 110.397 120.737C108.68 119.689 107.373 117.736 106.907 115.793C106.815 115.413 106.782 115.062 106.74 114.671C106.706 114.35 106.67 114.065 106.637 113.757C106.532 112.791 106.643 111.603 105.411 111.326C105.229 111.286 105.03 111.285 104.85 111.326ZM104.746 117.434C105.392 119.244 106.438 120.959 107.883 122.192C110.171 124.144 113.147 124.552 116.047 124.269C114.549 126.203 113.646 128.556 113.929 131C114.062 132.157 114.402 133.285 114.884 134.345C115.166 134.964 115.5 135.568 115.881 136.132C115.991 136.293 116.122 136.392 116.234 136.526C114.691 136.906 112.748 138.078 111.976 139.247C111.032 140.675 111.269 142.664 111.726 144.42C111.389 144.232 111.073 144.015 110.729 143.838C107.701 142.291 104.083 140.959 100.633 141.595C99.4263 141.818 98.3015 142.33 97.2252 142.904C95.7507 143.69 94.4005 144.689 93.1122 145.75C93.3083 144.814 93.5443 143.875 93.6108 142.924C93.6513 142.344 93.6693 141.749 93.5277 141.179C93.0776 139.372 91.2614 137.864 89.5389 136.921C92.2413 135.276 93.5449 132.704 93.6733 129.504C93.7298 128.088 93.6114 126.666 93.1122 125.329C92.9573 124.913 92.6435 124.592 92.4268 124.207C96.1536 124.292 100.094 122.565 102.752 120.052C103.575 119.273 104.211 118.388 104.746 117.434Z" fill="#527DDE"/>
<path d="M99.1763 159.944L99.385 138.611C99.385 138.611 100.197 137.161 103.232 137.173C106.268 137.186 107.051 138.682 107.051 138.682V156.212" fill="black"/>
<path d="M100.64 132.045C100.547 133.13 100.582 134.155 100.658 135.236C100.686 135.642 100.548 137.904 100.838 138.137C101.066 138.321 101.716 138.087 101.947 138.038C102.808 137.857 103.729 137.818 104.608 137.838C104.811 137.842 105.388 138.01 105.554 137.916C105.744 137.809 105.679 136.769 105.679 136.552C105.679 135.468 105.776 134.303 105.957 133.239C106.012 132.916 106.19 132.243 105.887 132.006C104.902 131.234 101.899 131.913 100.795 132.268" fill="white"/>
<path d="M100.342 132.184C99.9751 132.189 99.6726 132.503 99.6773 132.87C99.6919 134.176 99.6959 133.997 99.6979 134.178C99.7006 134.397 99.6959 134.47 99.6979 134.615C99.7026 135.05 99.7218 135.777 99.7185 135.487C99.7232 135.777 99.7365 136.07 99.7398 136.36C99.7424 136.65 99.7438 137.501 99.7398 137.211C99.7198 135.761 99.7345 137.213 99.7398 138.084C99.7418 138.451 100.037 138.751 100.405 138.749C100.772 138.747 101.071 138.451 101.069 138.084C101.059 137.212 101.072 137.47 101.069 137.211C101.063 136.695 101.055 136.242 101.048 135.467C101.044 135.176 101.031 134.885 101.027 134.594C101.023 134.303 101.025 133.431 101.027 133.721C101.042 135.176 101.018 133.72 101.007 132.849C101.002 132.482 100.709 132.179 100.342 132.184Z" fill="black"/>
<path d="M106.055 132.225C105.689 132.197 105.356 132.462 105.328 132.828C105.228 135.558 105.307 134.343 105.224 135.549C105.221 135.876 105.208 136.204 105.203 136.505C105.198 136.802 105.172 137.696 105.182 137.399C105.234 135.877 105.194 137.397 105.141 138.292C105.119 138.658 105.397 138.976 105.764 138.998C106.131 139.02 106.448 138.742 106.47 138.375C106.538 136.528 106.524 136.737 106.532 136.526C106.534 136.428 106.532 136.316 106.532 136.214C106.538 135.717 106.542 135.176 106.554 134.698C106.56 134.402 106.603 133.53 106.595 133.825C106.555 135.34 106.587 133.822 106.657 132.932C106.686 132.566 106.421 132.255 106.055 132.225ZM105.224 135.549C105.182 136.151 105.269 134.346 105.265 133.742C105.264 133.433 105.231 134.367 105.224 134.677C105.217 134.952 105.226 135.252 105.224 135.549Z" fill="black"/>
<path d="M99.6299 132.915C99.6206 133.276 100.755 132.685 101.071 132.624C102.452 132.356 104.087 132.487 105.449 132.806C105.977 132.929 106.856 133.554 106.829 132.724C106.795 131.67 106.421 129.167 104.826 128.471C103.818 128.032 102.327 127.959 101.404 128.681C100.148 129.663 99.6625 131.634 99.6299 132.915Z" fill="black"/>
<path d="M162.645 192.098C162.305 192.036 161.944 192.038 161.586 192.119C146.369 195.536 131.388 199.803 116.38 204.022C114.966 204.42 114.134 205.891 114.531 207.305C114.929 208.719 116.4 209.551 117.814 209.154C132.731 204.96 147.625 200.71 162.749 197.313C164.182 196.991 165.086 195.567 164.764 194.134C164.523 193.059 163.665 192.283 162.645 192.098Z" fill="black"/>
<path d="M208.287 192.098C207.265 192.269 206.403 193.021 206.147 194.092C205.806 195.521 206.692 196.951 208.121 197.292C226.609 201.704 244.827 207.077 263.112 212.25C272.286 214.845 281.48 217.323 290.7 219.749C292.12 220.123 293.588 219.258 293.962 217.838C294.335 216.417 293.492 214.971 292.071 214.597C282.882 212.179 273.709 209.726 264.566 207.139C246.211 201.946 227.906 196.548 209.347 192.119C208.99 192.034 208.628 192.041 208.287 192.098Z" fill="black"/>
<path d="M110.638 210.831C106.085 219.648 97.3874 227.706 87.7466 230.297C86.1146 230.735 80.9578 232.627 79.3098 231.568C76.4319 229.718 78.6098 222.646 80.0165 220.598C81.7542 218.069 92.583 216.976 96.2559 214.577C98.0017 213.437 99.9103 210.434 101.943 210.062C103.533 209.771 105.341 212.072 107.071 212.336C108.483 212.552 110.611 211.295 109.933 213.005" fill="black"/>
<path d="M92.759 103.764C92.408 103.872 92.1946 104.244 92.3017 104.595C93.4837 108.457 95.0399 112.076 97.0383 115.585C97.2204 115.904 97.6333 116.016 97.9524 115.834C98.2715 115.653 98.3838 115.26 98.2017 114.941C96.2518 111.517 94.7221 107.968 93.5687 104.201C93.4617 103.85 93.11 103.657 92.759 103.764Z" fill="#527DDE"/>
<path d="M105.577 103.972C105.21 103.972 104.912 104.27 104.912 104.637C104.912 105.279 104.912 105.906 104.912 106.549C104.912 106.915 105.21 107.213 105.577 107.213C105.944 107.213 106.242 106.915 106.242 106.549C106.242 105.906 106.242 105.279 106.242 104.637C106.242 104.27 105.944 103.972 105.577 103.972Z" fill="#527DDE"/>
<path d="M118.769 105.343C118.6 105.36 118.45 105.43 118.333 105.572C115.451 109.088 112.673 112.639 110.459 116.624C110.281 116.945 110.408 117.36 110.729 117.538C111.05 117.716 111.445 117.589 111.623 117.268C113.797 113.353 116.52 109.878 119.351 106.424C119.584 106.14 119.552 105.722 119.268 105.489C119.126 105.373 118.938 105.327 118.769 105.343Z" fill="#527DDE"/>
<path d="M126.394 118.265C126.234 118.205 126.042 118.21 125.874 118.286C125.265 118.56 124.655 118.842 124.046 119.117C123.711 119.267 123.563 119.655 123.713 119.989C123.864 120.324 124.272 120.472 124.607 120.322C125.216 120.048 125.826 119.765 126.435 119.491C126.77 119.34 126.918 118.953 126.767 118.618C126.692 118.451 126.553 118.325 126.394 118.265Z" fill="#527DDE"/>
<path d="M132.522 127.406C128.502 127.992 124.584 128.978 120.681 130.086C120.327 130.186 120.123 130.563 120.223 130.917C120.324 131.27 120.701 131.474 121.054 131.374C124.902 130.282 128.747 129.292 132.709 128.715C133.072 128.662 133.323 128.33 133.27 127.967C133.217 127.604 132.886 127.353 132.522 127.406Z" fill="#527DDE"/>
<path d="M123.713 138.271C123.546 138.303 123.379 138.389 123.277 138.541C123.072 138.845 123.159 139.271 123.464 139.476C124.577 140.029 124.022 139.796 124.586 140.016C124.914 140.144 123.953 139.72 123.63 139.58C123.58 139.559 123.71 139.632 123.755 139.663C123.827 139.712 123.912 139.758 123.983 139.809C124.252 139.997 124.501 140.197 124.814 140.307C124.922 140.345 125.244 140.471 125.146 140.411C124.604 140.074 125.134 140.406 125.687 140.577C126.037 140.686 126.409 140.491 126.518 140.141C126.627 139.79 126.432 139.419 126.082 139.31C125.144 138.84 125.531 138.983 125.146 138.832C124.996 138.773 125.453 138.976 125.521 139.123C125.563 139.213 125.344 139.071 125.251 139.039C125.207 139.025 125.168 139.017 125.126 138.998C124.956 138.922 124.781 138.752 124.627 138.645C124.587 138.617 124.543 138.59 124.503 138.562C124.456 138.53 124.305 138.455 124.357 138.479C124.934 138.748 124.371 138.462 124.212 138.354C124.059 138.252 123.88 138.238 123.713 138.271Z" fill="#527DDE"/>
<path d="M118.208 144.358C118.038 144.356 117.861 144.437 117.73 144.566C117.469 144.823 117.473 145.239 117.73 145.5C120.549 148.366 123.034 151.516 125.729 154.496C125.975 154.768 126.391 154.805 126.664 154.558C126.935 154.312 126.951 153.896 126.705 153.624C123.998 150.63 121.497 147.445 118.665 144.566C118.536 144.435 118.378 144.36 118.208 144.358Z" fill="#527DDE"/>
<path d="M116.422 150.611C116.254 150.579 116.075 150.612 115.923 150.715C115.62 150.921 115.55 151.347 115.757 151.65C115.834 151.779 115.8 151.709 115.84 151.775C115.819 151.737 115.878 151.843 115.902 151.878C115.941 151.935 115.988 151.988 116.027 152.045C116.119 152.177 116.224 152.295 116.297 152.44C116.327 152.499 116.417 152.682 116.38 152.626C116.163 152.304 116.378 152.626 116.546 152.979C116.704 153.311 117.108 153.449 117.44 153.291C117.771 153.134 117.909 152.75 117.752 152.419C117.303 151.662 117.453 151.951 117.294 151.65C117.218 151.506 117.474 151.946 117.585 152.065C117.638 152.122 117.516 151.926 117.481 151.858C117.454 151.804 117.428 151.743 117.398 151.692C117.3 151.523 117.176 151.373 117.065 151.214C117.045 151.184 117.024 151.139 117.003 151.11C116.98 151.076 116.921 150.97 116.941 151.006C117.21 151.472 116.938 151.02 116.858 150.902C116.755 150.75 116.589 150.643 116.422 150.611Z" fill="#527DDE"/>
<path d="M89.3316 152.626C89.1687 152.677 89.0211 152.796 88.9367 152.959C88.8822 153.09 88.9088 153.002 88.8742 153.084C88.6661 153.568 88.6994 153.462 88.5624 153.852C88.486 154.071 88.6867 153.533 88.8117 153.208C88.7791 153.27 88.7413 153.333 88.708 153.395C88.589 153.616 88.4747 153.82 88.3962 154.06C88.3683 154.145 88.2732 154.411 88.3131 154.329C88.5358 153.877 88.3218 154.323 88.1888 154.766C88.0831 155.118 88.2732 155.492 88.6249 155.597C88.9766 155.702 89.3502 155.512 89.4559 155.16C89.789 154.366 89.6759 154.67 89.7883 154.351C89.8328 154.224 89.6799 154.613 89.5802 154.704C89.521 154.758 89.6394 154.552 89.664 154.475C89.6759 154.437 89.6906 154.409 89.7052 154.371C89.7644 154.221 89.8574 154.078 89.9339 153.935C89.9525 153.9 89.9778 153.866 89.9964 153.831C90.017 153.791 90.0755 153.664 90.0582 153.707C89.8641 154.193 90.0496 153.698 90.1207 153.561C90.2902 153.235 90.1765 152.838 89.8508 152.668C89.6879 152.583 89.4938 152.575 89.3316 152.626Z" fill="#527DDE"/>
<path d="M85.5088 143.361C85.3413 143.328 85.1625 143.363 85.0102 143.465C80.2676 146.635 75.428 149.621 70.5298 152.543C70.2147 152.731 70.1136 153.142 70.3011 153.457C70.4893 153.773 70.9001 153.874 71.2159 153.686C76.1333 150.752 80.9969 147.748 85.7574 144.566C86.0633 144.362 86.149 143.936 85.9449 143.631C85.8425 143.478 85.6757 143.394 85.5088 143.361Z" fill="#527DDE"/>
<path d="M80.4814 135.986C79.9463 136.006 79.4165 136.028 78.882 136.048C78.515 136.062 78.2238 136.367 78.2378 136.734C78.2517 137.101 78.5562 137.391 78.9232 137.377C79.4583 137.358 79.9882 137.336 80.5233 137.316C80.8896 137.302 81.1808 136.997 81.1668 136.63C81.1536 136.263 80.8484 135.972 80.4814 135.986Z" fill="#527DDE"/>
<path d="M75.4534 126.16C75.0871 126.14 74.7873 126.416 74.768 126.783C74.7488 127.15 75.0247 127.469 75.3916 127.489C79.2859 127.693 82.9702 128.99 86.7342 129.898C87.0912 129.985 87.4376 129.757 87.524 129.4C87.6098 129.044 87.403 128.676 87.046 128.59C83.1989 127.662 79.4349 126.37 75.4534 126.16Z" fill="#527DDE"/>
<path d="M82.9325 117.123C82.5881 116.996 82.2072 117.173 82.0809 117.518C81.9546 117.862 82.1308 118.243 82.4758 118.369C82.9139 118.529 83.3673 118.686 83.8054 118.847C84.1504 118.973 84.5307 118.797 84.657 118.452C84.7833 118.107 84.6071 117.727 84.2621 117.6C83.824 117.44 83.3713 117.283 82.9325 117.123Z" fill="#527DDE"/>
<path d="M131.896 44.6123C131.704 44.843 121.26 62.8368 120.252 69.723C121.485 67.5019 123.12 65.3996 125.324 63.189C125.369 63.1252 125.387 63.0597 125.438 62.999C129.852 57.7353 137.845 49.5341 147.468 44.4009C161.205 37.0721 177.48 33.6201 184.725 33.6201C194.113 33.6201 213.651 39.1633 228.949 49.6763C237.326 55.4324 246.729 68.6426 247.155 69.3811C247.24 69.3725 247.462 69.3602 247.63 69.3432C245.885 63.001 238.682 47.8482 237.885 46.3978C236.198 43.9672 229.905 22.171 183.941 22.001C138.343 21.8323 133.189 42.7582 131.896 44.6123Z" fill="black"/>
<path d="M187.347 133.146C184.396 133.118 181.457 133.366 178.533 133.734C177.772 133.92 176.87 134.076 176.349 134.266C172.394 135.712 165.628 141.51 163.261 145.036C163.225 145.091 163.134 145.203 163.091 145.264C162.776 146.165 162.451 147.061 162.179 147.962C162.325 147.836 162.472 147.708 162.616 147.582C164.595 145.851 166.01 144.422 168.504 143.46C172.072 142.083 176.099 141.585 179.806 140.687C180.895 140.423 182.55 140.363 183.7 139.813C185.186 139.369 186.604 139.117 188.182 139.68C188.246 139.702 188.507 139.765 188.676 139.813C189.821 140.304 191.411 140.376 192.456 140.63C196.164 141.528 200.171 142.007 203.739 143.384C205.496 144.062 206.747 145.036 208.013 146.119C207.575 144.822 207.005 143.405 206.341 141.864C203.258 138.714 198.818 135.259 195.894 134.19C195.246 133.954 194.165 133.727 193.178 133.506C191.235 133.317 189.289 133.164 187.347 133.146Z" fill="black"/>
<path d="M150.783 221.598C149.765 221.793 148.915 222.578 148.684 223.655C148 226.843 147.312 230.043 146.628 233.232C146.207 235.194 145.802 237.149 145.381 239.111C145.118 240.338 144.855 241.562 144.591 242.788C144.486 243.279 144.365 243.773 144.259 244.263C144.052 245.232 143.491 247.1 143.719 248.19C144.034 249.693 145.597 250.766 146.669 251.721C146.913 251.94 147.151 252.147 147.396 252.365C147.641 252.583 147.899 252.812 148.144 253.03C149.123 253.902 150.095 254.776 151.073 255.648C152.357 256.793 153.623 257.94 154.917 259.075C154.414 260.574 153.945 262.082 153.462 263.583C151.764 268.87 150.071 274.149 148.373 279.435C147.901 280.903 147.432 282.392 146.96 283.859C146.669 284.765 146.26 285.697 146.399 286.664C146.64 288.337 148.694 289.904 149.806 290.985C150.11 291.281 150.416 291.583 150.72 291.879C151.328 292.469 151.919 293.053 152.528 293.644C153.136 294.235 153.747 294.84 154.356 295.431C161.652 302.521 168.956 309.594 176.253 316.683C177.306 317.707 178.989 317.695 180.013 316.642C181.036 315.588 181.003 313.905 179.95 312.881C175.998 309.042 172.061 305.192 168.109 301.352C165.676 298.989 163.228 296.631 160.796 294.267C159.58 293.086 158.376 291.897 157.16 290.715C156.248 289.829 155.33 288.942 154.418 288.056C153.597 287.259 152.767 286.465 151.946 285.667C151.963 285.603 151.988 285.543 152.008 285.48C152.292 284.599 152.577 283.723 152.86 282.842C153.143 281.961 153.428 281.063 153.712 280.183C154.184 278.714 154.652 277.247 155.124 275.778C155.879 273.429 156.634 271.085 157.389 268.736C158.144 266.386 158.898 264.042 159.653 261.693C159.99 260.646 160.673 259.054 160.484 257.912C160.225 256.343 158.658 255.26 157.555 254.276C155.843 252.75 154.115 251.232 152.403 249.706C151.425 248.834 150.452 247.961 149.474 247.089C149.367 246.993 149.269 246.893 149.162 246.798C149.21 246.573 149.259 246.337 149.307 246.112C149.518 245.131 149.72 244.164 149.931 243.183C150.615 239.994 151.303 236.794 151.988 233.605C152.619 230.662 153.246 227.72 153.878 224.776C154.186 223.34 153.278 221.927 151.842 221.619C151.483 221.542 151.122 221.533 150.783 221.598Z" fill="black"/>
<path d="M219.048 221.432C217.612 221.74 216.704 223.154 217.012 224.59C217.644 227.533 218.271 230.476 218.903 233.419C219.587 236.608 220.275 239.807 220.96 242.996C221.219 244.209 221.489 245.418 221.749 246.631C221.645 246.725 221.541 246.809 221.437 246.901C221.192 247.12 220.934 247.348 220.689 247.566C219.955 248.221 219.221 248.865 218.487 249.519C216.775 251.046 215.068 252.584 213.356 254.11C212.253 255.094 210.665 256.157 210.405 257.725C210.217 258.867 210.901 260.46 211.236 261.506C211.897 263.562 212.571 265.62 213.231 267.676C214.08 270.319 214.916 272.969 215.766 275.612C216.238 277.081 216.706 278.548 217.178 280.016C217.65 281.485 218.139 282.952 218.611 284.421C218.726 284.776 218.83 285.125 218.944 285.48C218.728 285.69 218.516 285.894 218.3 286.103C217.388 286.989 216.491 287.876 215.579 288.762C214.667 289.649 213.749 290.535 212.836 291.422C211.621 292.604 210.396 293.793 209.18 294.974C206.748 297.338 204.32 299.695 201.888 302.058C198.24 305.603 194.588 309.15 190.94 312.695C189.887 313.719 189.875 315.402 190.898 316.456C191.922 317.509 193.605 317.541 194.658 316.517C201.955 309.428 209.238 302.333 216.534 295.244C217.446 294.358 218.364 293.471 219.276 292.585C219.885 291.995 220.497 291.389 221.104 290.799C222.217 289.718 224.25 288.15 224.491 286.478C224.65 285.372 223.984 283.787 223.66 282.779C223.188 281.311 222.719 279.844 222.247 278.375C220.549 273.089 218.856 267.81 217.158 262.524C216.767 261.309 216.376 260.083 215.974 258.868C217.513 257.521 219.038 256.157 220.565 254.796C221.543 253.924 222.515 253.051 223.494 252.178C223.983 251.742 224.48 251.306 224.969 250.869C225.754 250.169 226.667 249.499 227.046 248.481C227.522 247.199 226.897 245.318 226.631 244.076C226.525 243.586 226.424 243.092 226.319 242.602C226.056 241.375 225.793 240.15 225.529 238.924C225.108 236.962 224.684 235.008 224.262 233.045C223.578 229.856 222.89 226.657 222.205 223.468C221.898 222.032 220.484 221.124 219.048 221.432Z" fill="black"/>
<path d="M165.076 197.167C164.36 197.127 163.664 197.191 163.019 197.541C161.675 198.271 160.829 200.518 160.194 201.779C160.011 202.142 159.837 202.497 159.654 202.859C158.009 206.125 156.355 209.399 154.709 212.665C154.526 213.028 154.352 213.383 154.169 213.746C153.796 214.487 153.151 215.505 153.006 216.342C152.842 217.284 153.115 218.246 153.816 218.918C153.989 219.084 154.189 219.236 154.397 219.354C155.64 220.061 157.566 219.349 158.844 219.043C159.153 218.969 159.47 218.888 159.778 218.814C160.396 218.666 161.009 218.526 161.628 218.378C162.245 218.23 162.858 218.09 163.476 217.942C168.418 216.756 173.367 215.555 178.309 214.369C179.854 213.998 181.398 213.638 182.942 213.268C183.56 213.119 184.181 212.988 184.791 212.81C184.913 212.775 185.018 212.668 185.144 212.665C185.254 212.663 185.329 212.782 185.435 212.81C186.027 212.972 186.642 213.056 187.243 213.185C189.044 213.571 190.843 213.961 192.644 214.348C197.746 215.443 202.853 216.535 207.955 217.63C208.555 217.759 209.141 217.896 209.741 218.025C210.341 218.154 210.948 218.27 211.549 218.399C212.267 218.553 213.183 218.843 213.917 218.752C214.819 218.641 215.616 218.129 216.078 217.34C216.167 217.186 216.225 217.028 216.285 216.862C216.739 215.595 215.863 213.558 215.496 212.374C214.763 210.012 214.048 207.652 213.315 205.29C212.895 203.94 212.466 202.589 212.047 201.239C211.943 200.901 212.053 201.228 211.424 199.203C211.394 199.107 211.318 199.044 211.279 198.954C211.202 198.777 211.12 198.609 211.009 198.456C210.926 198.342 210.837 198.241 210.738 198.144C210.599 198.004 210.448 197.896 210.282 197.791C210.158 197.712 210.042 197.64 209.907 197.583C209.726 197.505 209.545 197.452 209.347 197.416C209.194 197.389 209.048 197.376 208.889 197.375C208.784 197.375 208.685 197.342 208.578 197.354C208.389 197.376 208.436 197.41 208.391 197.437C208.292 197.456 208.198 197.428 208.1 197.458C208.085 197.463 208.074 197.474 208.058 197.479C208.025 197.478 208.06 197.497 207.83 197.437C207.588 197.375 207.33 197.492 207.082 197.52C206.835 197.549 206.603 197.575 206.355 197.603C205.612 197.689 204.855 197.788 204.112 197.873C201.634 198.159 199.152 198.44 196.674 198.725C193.949 199.04 191.235 199.346 188.51 199.66C187.766 199.746 187.03 199.844 186.287 199.93C186.039 199.959 185.785 199.977 185.539 200.013C185.436 200.029 185.331 200.083 185.228 200.076C184.871 200.051 184.521 199.963 184.168 199.909C183.298 199.779 182.441 199.661 181.571 199.535C179.831 199.283 178.076 199.04 176.335 198.788C173.291 198.346 170.261 197.9 167.216 197.458C166.53 197.359 165.792 197.208 165.076 197.167ZM165.741 202.61C165.975 202.644 166.212 202.68 166.447 202.714C166.882 202.777 167.321 202.838 167.756 202.901C171.671 203.469 175.578 204.036 179.493 204.605C180.799 204.794 182.093 205.002 183.399 205.186C183.917 205.259 184.435 205.372 184.957 205.394C185.601 205.421 186.249 205.281 186.89 205.207C188.128 205.064 189.369 204.913 190.608 204.771C193.829 204.399 197.047 204.041 200.268 203.669C202.25 203.441 204.227 203.213 206.21 202.984C206.471 202.954 206.738 202.931 206.999 202.901C207.305 203.886 207.608 204.866 207.913 205.851C208.616 208.115 209.31 210.379 210.012 212.644C209.094 212.447 208.187 212.239 207.269 212.042C203.067 211.14 198.861 210.243 194.659 209.341C192.558 208.89 190.466 208.441 188.364 207.991C187.764 207.862 187.161 207.708 186.557 207.596C186.058 207.503 185.568 207.34 185.061 207.346C184.55 207.354 184.044 207.531 183.544 207.638C182.614 207.836 181.686 208.101 180.761 208.323C178.598 208.842 176.441 209.363 174.279 209.881C169.954 210.919 165.64 211.939 161.316 212.977C161.012 213.05 160.707 213.135 160.402 213.205C160.639 212.735 160.87 212.263 161.108 211.793C162.649 208.733 164.242 205.692 165.741 202.61Z" fill="black"/>
<path d="M102.814 133.327C103.082 133.724 102.928 133.493 103.084 133.721C103.102 133.677 103.172 133.669 103.167 133.617C103.151 133.435 102.997 133.311 102.814 133.327ZM103.084 133.721C103.069 133.762 103.052 133.794 103.022 133.826C103.247 134.082 103.484 134.321 103.687 134.594C103.883 134.857 103.431 134.228 103.084 133.721ZM103.022 133.826C102.882 133.665 102.764 133.49 102.606 133.348C102.546 133.293 102.434 133.381 102.357 133.41C102.061 133.523 101.828 133.732 101.651 133.992C101.218 134.626 101.15 135.586 101.547 136.256C101.96 136.955 102.988 137.177 103.707 136.858C103.959 136.747 104.173 136.564 104.331 136.339C104.384 136.263 104.497 136.173 104.456 136.09C103.976 135.131 104.458 136.088 104.538 135.882C104.604 135.711 104.523 135.511 104.351 135.446C104.18 135.38 103.981 135.482 103.915 135.654C103.393 134.824 103.224 134.569 103.396 134.823C103.6 135.123 103.737 135.455 103.853 135.799C103.901 135.94 103.465 136.237 103.334 136.277C102.933 136.396 102.334 136.313 102.108 135.924C101.843 135.47 101.9 134.793 102.191 134.365C102.229 134.309 102.633 133.897 102.71 133.992C103.14 134.518 102.721 134.004 102.876 133.992C102.962 133.984 102.968 133.883 103.022 133.826Z" fill="black"/>
</g>
<defs>
<clipPath id="clip0_303_2849">
<rect width="363" height="349" fill="white"/>
</clipPath>
</defs>
</svg>
