<svg width="402" height="584" viewBox="0 0 402 584" fill="none" xmlns="http://www.w3.org/2000/svg">
<path d="M33.972 5.53632L24.7821 63.88C24.0621 66.954 23.3321 69.82 22.6621 73.318C18.2221 96.463 16.9121 129.205 15.4121 175.224C10.0121 339.817 5.66211 571.068 5.66211 571.068L177.222 583.411L203.412 220.443L229.562 583.411L401.122 571.068C401.122 571.068 396.772 339.817 391.382 175.224C389.872 129.205 388.562 96.463 384.122 73.318C383.072 67.805 381.952 62.921 380.782 58.443L373.282 18.9426L33.972 5.53632Z" fill="#52B1DE"/>
<path d="M194.792 35.002C194.792 29.146 199.542 24.3989 205.392 24.3989C211.252 24.3989 215.992 29.146 215.992 35.002C215.992 40.858 211.252 45.605 205.392 45.605C199.542 45.605 194.792 40.858 194.792 35.002Z" fill="#FFCA00"/>
<path d="M211.242 5.53632L178.342 12.6071L187.902 167.747C187.902 167.747 193.572 176.487 201.132 177.411" stroke="black" stroke-width="10" stroke-miterlimit="10" stroke-linejoin="round"/>
<path d="M280.122 88.906C277.372 88.801 275.042 90.959 274.942 93.719C274.872 97.006 276.862 100.63 278.442 103.406C282.432 110.429 287.912 116.665 294.092 121.844C298.862 125.838 304.142 129.2 309.812 131.75C331.922 141.679 358.352 138.57 379.062 126.656C383.932 123.855 388.442 120.579 392.692 116.906C394.782 115.099 395.032 111.963 393.222 109.875C391.412 107.787 388.242 107.537 386.162 109.344C382.392 112.6 378.412 115.488 374.092 117.969C356.142 128.287 333.102 131.248 313.912 122.625C305.262 118.741 297.622 112.585 291.722 105.188C289.812 102.791 288.072 100.238 286.622 97.531C285.952 96.276 285.262 94.949 284.912 93.562C284.902 93.523 284.932 93.647 284.942 93.688C284.952 93.901 284.932 93.914 284.942 94.094C285.042 91.334 282.882 89.011 280.122 88.906Z" fill="black"/>
<path d="M367.412 161.918C367.412 245.107 370.112 328.047 371.412 411.226C372.112 455.675 369.372 500.209 375.632 544.397" stroke="black" stroke-width="5" stroke-miterlimit="10" stroke-linejoin="round" stroke-dasharray="10 10"/>
<path d="M114.942 72.5C112.182 72.605 110.022 74.928 110.122 77.688C110.132 77.507 110.142 77.495 110.162 77.281C110.162 77.24 110.172 77.117 110.162 77.156C109.802 78.543 109.112 79.87 108.442 81.125C106.992 83.831 105.262 86.384 103.342 88.781C97.4421 96.179 89.8022 102.304 81.1622 106.188C61.9622 114.811 38.9522 111.881 21.0022 101.562C16.6822 99.081 12.7021 96.194 8.94211 92.938C6.85211 91.131 3.68217 91.349 1.88217 93.438C0.0721724 95.526 0.292172 98.693 2.38217 100.5C6.62217 104.173 11.1322 107.418 16.0022 110.219C37.3922 122.523 64.8222 125.384 87.3122 114.344C92.5622 111.767 97.4221 108.479 101.842 104.656C107.832 99.48 113.142 93.353 116.972 86.406C118.462 83.698 120.192 80.496 120.122 77.312C120.022 74.553 117.702 72.395 114.942 72.5Z" fill="black"/>
<path d="M28.1321 152.366C28.1321 235.555 25.4321 318.496 24.1321 401.674C23.4321 446.124 26.1621 490.657 19.9121 534.846" stroke="black" stroke-width="5" stroke-miterlimit="10" stroke-linejoin="round" stroke-dasharray="10 10"/>
<path d="M39.6323 17.7709L155.332 23.2989M234.632 27.0875L369.922 33.5511" stroke="black" stroke-width="5" stroke-miterlimit="10" stroke-linejoin="round" stroke-dasharray="10 10"/>
<path d="M279.942 9.74438H297.972V49.813H279.942V9.74438Z" fill="#397795"/>
<path d="M124.862 2.06652L106.852 1.42181L105.412 41.465L123.432 42.11L124.862 2.06652Z" fill="#397795"/>
</svg>
