<svg width="401" height="583" viewBox="0 0 401 583" fill="none" xmlns="http://www.w3.org/2000/svg">
<path d="M33.3428 5.1145L24.1528 63.4582C23.4328 66.5322 22.7028 69.3982 22.0328 72.8962C17.5928 96.0412 16.2828 128.783 14.7828 174.802C9.38284 339.395 5.03284 570.646 5.03284 570.646L176.593 582.989L202.783 220.021L228.933 582.989L400.493 570.646C400.493 570.646 396.143 339.395 390.753 174.802C389.243 128.783 387.933 96.0412 383.493 72.8962C382.443 67.3832 381.323 62.4992 380.153 58.0212L372.653 18.5208L33.3428 5.1145Z" fill="#52B1DE"/>
<path d="M194.163 34.5801C194.163 28.7241 198.913 23.9771 204.763 23.9771C210.623 23.9771 215.363 28.7241 215.363 34.5801C215.363 40.4361 210.623 45.1832 204.763 45.1832C198.913 45.1832 194.163 40.4361 194.163 34.5801Z" fill="#FFCA00"/>
<path d="M210.613 5.1145L177.713 12.1853L187.273 167.325C187.273 167.325 192.943 176.065 200.503 176.989" stroke="white" stroke-width="10" stroke-miterlimit="10" stroke-linejoin="round"/>
<path d="M279.493 88.4841C276.743 88.3791 274.413 90.5371 274.313 93.2971C274.243 96.5841 276.233 100.208 277.813 102.984C281.803 110.007 287.283 116.243 293.463 121.422C298.233 125.416 303.513 128.778 309.183 131.328C331.293 141.257 357.723 138.148 378.433 126.234C383.303 123.433 387.813 120.157 392.063 116.484C394.153 114.677 394.403 111.541 392.593 109.453C390.783 107.365 387.613 107.115 385.533 108.922C381.763 112.178 377.783 115.066 373.463 117.547C355.513 127.865 332.473 130.826 313.283 122.203C304.633 118.319 296.993 112.163 291.093 104.766C289.183 102.369 287.443 99.8161 285.993 97.1091C285.323 95.8541 284.633 94.5271 284.283 93.1401C284.273 93.1011 284.303 93.2251 284.313 93.2661C284.323 93.4791 284.303 93.4921 284.313 93.6721C284.413 90.9121 282.253 88.5891 279.493 88.4841Z" fill="white"/>
<path d="M366.783 161.496C366.783 244.685 369.483 327.625 370.783 410.804C371.483 455.253 368.743 499.787 375.003 543.975" stroke="white" stroke-width="5" stroke-miterlimit="10" stroke-linejoin="round" stroke-dasharray="10 10"/>
<path d="M114.313 72.0781C111.553 72.1831 109.393 74.5061 109.493 77.2661C109.503 77.0851 109.513 77.0731 109.533 76.8591C109.533 76.8181 109.543 76.6951 109.533 76.7341C109.173 78.1211 108.483 79.4481 107.813 80.7031C106.363 83.4091 104.633 85.9621 102.713 88.3591C96.8127 95.7571 89.1728 101.882 80.5328 105.766C61.3328 114.389 38.3228 111.459 20.3728 101.14C16.0528 98.6591 12.0727 95.7721 8.31271 92.5161C6.22271 90.7091 3.05278 90.9271 1.25278 93.0161C-0.557222 95.1041 -0.337222 98.2711 1.75278 100.078C5.99278 103.751 10.5028 106.996 15.3728 109.797C36.7628 122.101 64.1928 124.962 86.6828 113.922C91.9328 111.345 96.7927 108.057 101.213 104.234C107.203 99.0581 112.513 92.9311 116.343 85.9841C117.833 83.2761 119.563 80.0741 119.493 76.8901C119.393 74.1311 117.073 71.9731 114.313 72.0781Z" fill="white"/>
<path d="M27.5028 151.944C27.5028 235.133 24.8028 318.074 23.5028 401.252C22.8028 445.702 25.5328 490.235 19.2828 534.424" stroke="white" stroke-width="5" stroke-miterlimit="10" stroke-linejoin="round" stroke-dasharray="10 10"/>
<path d="M39.0028 17.3491L154.703 22.8771M234.003 26.6657L369.293 33.1293" stroke="white" stroke-width="5" stroke-miterlimit="10" stroke-linejoin="round" stroke-dasharray="10 10"/>
<path d="M279.313 9.32251H297.343V49.3911H279.313V9.32251Z" fill="#397795"/>
<path d="M124.233 1.6447L106.223 1L104.783 41.0432L122.803 41.6882L124.233 1.6447Z" fill="#397795"/>
</svg>
