<svg width="363" height="349" viewBox="0 0 363 349" fill="none" xmlns="http://www.w3.org/2000/svg">
<g clip-path="url(#clip0_341_4901)">
<path d="M39.9366 322.382C40.7938 322.127 40.0468 317.982 39.9365 317.292C39.2504 312.997 37.774 308.555 37.6638 304.21C36.9754 303.987 36.5894 303.876 36.1668 303.802C35.4044 303.667 34.6003 303.581 33.7566 303.503C33.7884 303.649 33.8587 303.929 33.8688 304.021C34.1501 306.587 34.6528 311.179 32.7746 313.287C30.0596 312.844 27.3358 312.449 24.8082 311.29C22.1697 310.08 19.6946 308.054 17.4218 306.249C16.539 305.548 15.6925 304.575 14.6239 304.151C14.0459 303.921 13.3635 303.813 12.6562 303.746C8.99573 304.169 5.55099 304.83 2.21987 305.797C1.66493 305.958 1.22035 306.063 0.218511 306.287C0.123468 306.308 0.0774772 306.318 0.0249901 306.33C-0.889129 306.535 -1.54793 306.708 -2.10688 306.888C-2.04506 307.008 -1.92203 307.242 -1.90103 307.292C-0.803766 309.898 2.2649 312.328 4.77829 313.512C13.8 317.765 23.1471 319.025 32.954 320.199C34.6124 320.397 36.3365 320.707 37.8942 321.324C38.1908 321.442 39.7061 322.451 39.9366 322.382Z" fill="#1A1A1A"/>
<path d="M19.9902 357.114C22.4353 355.369 24.5301 352.886 25.7125 350.151C26.8774 347.456 26.7058 343.732 25.8168 340.98C25.5647 340.2 25.1666 339.259 24.8931 338.312C24.8764 338.322 24.859 338.329 24.8427 338.339C24.7345 337.729 24.598 337.067 24.2643 336.818C24.1125 336.705 23.6179 336.947 23.4617 336.978C22.7842 337.113 21.9689 337.04 21.2712 337.016C21.2415 337.015 21.2149 336.999 21.1853 336.997C23.2262 336.363 25.7834 334.606 27.2306 332.916C27.8796 332.06 28.4824 331.179 29.0765 330.3C30.3265 328.322 31.956 325.06 29.4868 325.473C28.468 325.644 27.5352 327.31 26.7771 327.915C24.8835 329.426 21.8817 330.393 19.5103 330.69C16.826 331.026 12.0456 328.209 10.1404 329.305C8.87217 330.036 9.1406 331.484 8.84457 332.765C8.48657 334.313 8.04031 335.569 7.3188 336.706C7.28615 336.895 7.22072 337.084 7.10445 337.254C7.09097 337.274 7.09773 337.278 7.08419 337.297C6.45056 338.219 3.76943 341.824 3.18627 342.653C0.264018 346.806 -1.20156 350.08 -1.18025 353.169C-0.466315 354.05 0.576851 354.732 1.33631 355.535C3.27387 357.584 5.73524 359.372 8.4625 360.248C9.12329 360.327 10.0153 360.475 10.597 360.489C11.8509 360.521 13.0963 360.175 15.1043 359.337C15.3083 359.252 16.6955 358.666 17.0249 358.533C18.1063 358.097 19.056 357.611 19.9902 357.114Z" fill="#1A1A1A"/>
<path d="M-11.7091 324.334C-10.8908 323.875 -10.1747 323.261 -9.65026 322.449C-9.46803 322.167 -9.31207 321.865 -9.18728 321.553C-9.05602 321.226 -8.95711 320.889 -8.92 320.538C-8.7822 319.237 -9.53256 318.248 -10.4578 317.428C-10.9796 316.966 -11.5476 316.558 -12.0866 316.117C-12.4678 315.805 -12.8463 315.465 -13.1352 315.062C-13.3235 314.799 -13.4651 314.501 -13.5843 314.2C-14.1054 312.891 -14.0392 311.438 -14.0071 310.056C-13.9923 309.409 -13.995 308.767 -14.0452 308.128C-13.6489 308.125 -13.2491 308.112 -12.8632 308.141C-12.2916 307.571 -12.1369 306.933 -12.1702 305.755C-12.1739 305.621 -12.1855 305.387 -12.1999 305.084C-12.2443 304.882 -12.3238 304.584 -12.3434 304.448C-12.7966 301.28 -13.8679 292.717 -16.5058 289.355C-16.5876 289.371 -16.6639 289.381 -16.7466 289.399C-18.1898 289.701 -19.3546 290.042 -21.8814 290.855C-25.5592 292.038 -28.8928 293.607 -32.9252 295.953C-39.4612 299.756 -42.3379 302.492 -44.6544 307.72C-42.7065 311.327 -35.8701 315.996 -33.368 317.904C-32.9446 318.142 -32.4045 318.45 -32.1905 318.559C-31.5794 318.872 -31.1298 319.005 -30.6978 318.953C-30.5777 318.67 -30.4499 318.407 -30.3233 318.137C-29.8673 318.652 -29.3773 319.138 -28.8626 319.592C-27.7023 320.614 -26.4395 321.52 -25.1255 322.333C-23.8171 323.143 -22.447 323.862 -21.0238 324.449C-19.5061 325.075 -17.8967 325.592 -16.2378 325.505C-14.7207 325.424 -13.0726 325.098 -11.7091 324.334ZM-11.9431 323.357C-13.306 324.199 -15.0801 324.5 -16.6195 324.547C-17.2764 324.568 -17.9434 324.43 -18.5749 324.263C-19.2835 324.076 -19.9726 323.829 -20.6493 323.548C-22.0225 322.979 -23.343 322.275 -24.6058 321.492C-25.9282 320.673 -27.2027 319.763 -28.3594 318.721C-28.8898 318.243 -29.3921 317.732 -29.8465 317.182C-29.1819 315.933 -28.4312 314.829 -27.5324 313.879C-24.4819 310.651 -19.5376 308.449 -14.9869 308.145C-14.9206 308.961 -14.9428 309.79 -14.9567 310.612C-14.9829 312.154 -14.9261 313.737 -14.1872 315.132C-13.4424 316.537 -11.9585 317.283 -10.8475 318.351C-10.2696 318.905 -9.77357 319.598 -9.86509 320.438C-9.89408 320.702 -9.97316 320.951 -10.0719 321.196C-10.4577 322.151 -11.1252 322.851 -11.9431 323.357Z" fill="#1A1A1A"/>
<path d="M13.9085 292.676C15.091 292.388 15.8116 291.193 15.523 290.01L9.82689 266.67C9.53835 265.488 8.34826 264.759 7.16584 265.048L-4.08823 267.795C-5.27066 268.083 -5.99126 269.278 -5.70268 270.46L-0.00653891 293.8C0.282029 294.983 1.47209 295.711 2.65452 295.423L13.9085 292.676ZM13.9063 291.933C13.2254 292.099 12.5382 291.687 12.372 291.006C12.2058 290.326 12.6244 289.637 13.3052 289.471C13.9861 289.304 14.6685 289.725 14.8346 290.405C15.0007 291.086 14.5871 291.767 13.9063 291.933ZM10.363 290.843C9.68212 291.009 8.99971 290.589 8.83363 289.908C8.66743 289.227 9.07949 288.54 9.76039 288.374C10.4412 288.207 11.1301 288.626 11.2962 289.307C11.4624 289.988 11.0439 290.677 10.363 290.843ZM12.9262 287.918C12.2454 288.084 11.5566 287.665 11.3904 286.984C11.2242 286.304 11.6444 285.621 12.3252 285.455C13.0061 285.289 13.6869 285.703 13.853 286.383C14.0192 287.064 13.6071 287.751 12.9262 287.918Z" fill="#1A1A1A"/>
<path d="M56.1094 327.32L57.4548 314.753C57.1522 314.802 56.8427 314.83 56.5235 314.796L51.9558 314.307C51.6366 314.273 51.3347 314.177 51.0495 314.066L49.7041 326.632L56.1094 327.32ZM58.9377 312.915C59.3141 312.469 59.5666 311.908 59.6332 311.284L60.0534 307.337C60.2314 305.674 59.0279 304.181 57.3643 304.003L53.4133 303.579C51.7497 303.401 50.2613 304.609 50.0835 306.272L49.6587 310.215C49.4808 311.879 50.6842 313.371 52.3479 313.549L56.2989 313.973C57.3388 314.085 58.3105 313.658 58.9377 312.915ZM58.6578 303.483L60.111 289.889L53.7104 289.205L52.2574 302.799C52.5596 302.75 52.8702 302.731 53.1894 302.765L57.7573 303.253C58.0765 303.287 58.3726 303.371 58.6578 303.483Z" fill="#1A1A1A"/>
<path d="M44.0659 289.619L43.4514 286.927L39.5053 287.032L38.8239 289.5L42.1088 291.789L44.0659 289.619ZM41.4335 286.213C41.4547 281.796 38.5147 277.856 34.1961 276.664C28.9466 275.214 23.5155 278.295 22.0659 283.544C20.6163 288.794 23.697 294.225 28.9466 295.675C33.2215 296.855 37.7203 295.034 39.9923 291.301L38.881 290.626C36.9099 293.865 33.0034 295.443 29.2935 294.418C24.7377 293.16 22.0641 288.447 23.3221 283.891C24.5801 279.335 29.2935 276.662 33.8493 277.92C37.597 278.955 40.1493 282.377 40.1309 286.209L41.4335 286.213Z" fill="#1A1A1A"/>
<path d="M125.007 357.38C125.814 356.995 124.429 353.017 124.213 352.352C122.865 348.217 120.713 344.06 119.927 339.786C119.212 339.672 118.813 339.623 118.384 339.615C117.61 339.601 116.803 339.642 115.957 339.697C116.011 339.836 116.124 340.101 116.149 340.191C116.827 342.681 118.04 347.138 116.513 349.514C113.763 349.5 111.011 349.535 108.333 348.784C105.538 348.001 102.777 346.386 100.251 344.957C99.2692 344.402 98.2813 343.574 97.1595 343.321C96.5528 343.185 95.8619 343.184 95.1529 343.229C91.6031 344.217 88.3038 345.408 85.1642 346.882C84.6412 347.128 84.2185 347.301 83.2639 347.679C83.1734 347.715 83.1295 347.732 83.0795 347.752C82.2085 348.097 81.5848 348.371 81.0608 348.636C81.1406 348.745 81.2985 348.956 81.3271 349.002C82.8175 351.405 86.2277 353.326 88.8952 354.104C98.4698 356.897 107.899 356.684 117.769 356.313C119.438 356.25 121.189 356.287 122.824 356.654C123.136 356.724 124.79 357.484 125.007 357.38Z" fill="#1A1A1A"/>
<path d="M74.2981 367.366C75.0349 366.785 75.6461 366.066 76.0376 365.183C76.1736 364.876 76.2805 364.553 76.3552 364.226C76.4338 363.882 76.4789 363.534 76.4608 363.181C76.394 361.875 75.4984 361.015 74.4566 360.349C73.869 359.974 73.2445 359.66 72.6432 359.309C72.2179 359.059 71.7909 358.782 71.4429 358.43C71.2157 358.199 71.0294 357.927 70.8648 357.649C70.1458 356.437 69.9844 354.991 69.8005 353.621C69.7142 352.98 69.6114 352.346 69.4622 351.723C69.8532 351.658 70.246 351.583 70.6316 351.551C71.1073 350.899 71.1605 350.244 70.9439 349.086C70.9194 348.955 70.8714 348.725 70.8099 348.428C70.7346 348.236 70.6095 347.953 70.5689 347.822C69.627 344.764 67.2328 336.473 64.1027 333.564C64.0244 333.592 63.9506 333.614 63.8716 333.644C62.4933 334.168 61.396 334.687 59.0269 335.884C55.5788 337.627 52.5308 339.696 48.9138 342.643C43.0511 347.419 40.6364 350.57 39.1641 356.095C41.6509 359.354 49.132 362.899 51.9012 364.394C52.3565 364.563 52.938 364.783 53.1665 364.857C53.8189 365.071 54.2837 365.132 54.7023 365.013C54.7768 364.715 54.8621 364.436 54.945 364.149C55.4757 364.586 56.0355 364.99 56.6148 365.358C57.9204 366.187 59.309 366.884 60.7338 367.483C62.1525 368.078 63.618 368.575 65.1154 368.933C66.7122 369.315 68.3825 369.574 70.0075 369.229C71.4934 368.913 73.0704 368.333 74.2981 367.366ZM73.9145 366.437C72.6996 367.481 70.9942 368.055 69.481 368.343C68.8354 368.465 68.1551 368.434 67.5053 368.367C66.7761 368.292 66.0569 368.156 65.3447 367.984C63.8996 367.637 62.4853 367.147 61.116 366.571C59.6819 365.968 58.281 365.268 56.9758 364.419C56.3775 364.03 55.8016 363.604 55.2669 363.131C55.7285 361.794 56.2978 360.587 57.0373 359.507C59.5468 355.843 64.087 352.896 68.5347 351.887C68.7274 352.682 68.8349 353.505 68.9494 354.319C69.1641 355.846 69.4671 357.401 70.4146 358.663C71.3694 359.934 72.9517 360.441 74.2156 361.321C74.8729 361.779 75.471 362.386 75.5116 363.23C75.5242 363.495 75.485 363.754 75.4257 364.011C75.1936 365.014 74.6435 365.81 73.9145 366.437Z" fill="#1A1A1A"/>
<path d="M94.6628 332.099C95.7857 331.629 96.311 330.337 95.8415 329.214L86.5736 307.048C86.1042 305.926 84.815 305.391 83.692 305.861L73.0043 310.33C71.8814 310.799 71.3561 312.092 71.8256 313.215L81.0935 335.38C81.563 336.503 82.8522 337.037 83.9751 336.568L94.6628 332.099ZM94.5446 331.365C93.898 331.636 93.1549 331.336 92.8845 330.689C92.6141 330.043 92.9201 329.297 93.5667 329.027C94.2133 328.756 94.9529 329.065 95.2232 329.712C95.4935 330.358 95.1912 331.095 94.5446 331.365ZM90.8745 330.841C90.228 331.111 89.4884 330.803 89.2181 330.156C88.9477 329.51 89.2475 328.767 89.8941 328.496C90.5407 328.226 91.2864 328.532 91.5568 329.178C91.8271 329.825 91.5212 330.571 90.8745 330.841ZM92.9501 327.552C92.3034 327.822 91.5578 327.516 91.2874 326.87C91.0171 326.223 91.3256 325.484 91.9722 325.213C92.6188 324.943 93.3558 325.245 93.6261 325.892C93.8965 326.538 93.5966 327.282 92.9501 327.552Z" fill="#1A1A1A"/>
<path d="M141.752 359.734L141.12 347.112C140.829 347.207 140.528 347.283 140.207 347.299L135.619 347.529C135.298 347.545 134.985 347.498 134.686 347.432L135.318 360.054L141.752 359.734ZM142.298 345.064C142.6 344.565 142.762 343.972 142.731 343.345L142.53 339.381C142.446 337.71 141.025 336.423 139.354 336.507L135.385 336.705C133.714 336.789 132.432 338.213 132.516 339.884L132.712 343.845C132.795 345.516 134.217 346.803 135.888 346.719L139.857 346.521C140.901 346.469 141.795 345.896 142.298 345.064ZM140.55 335.792L139.865 322.137L133.436 322.46L134.121 336.115C134.412 336.019 134.716 335.951 135.037 335.935L139.625 335.705C139.945 335.689 140.251 335.726 140.55 335.792Z" fill="#1A1A1A"/>
<path d="M123.974 324.374L122.947 321.81L119.065 322.53L118.777 325.074L122.379 326.823L123.974 324.374ZM120.842 321.42C120.174 317.054 116.655 313.621 112.204 313.117C106.792 312.504 101.908 316.395 101.295 321.806C100.683 327.218 104.573 332.102 109.984 332.714C114.391 333.213 118.551 330.713 120.212 326.671L119.009 326.177C117.568 329.684 113.955 331.852 110.131 331.419C105.435 330.888 102.059 326.649 102.59 321.953C103.122 317.256 107.361 313.88 112.057 314.412C115.92 314.85 118.975 317.832 119.555 321.62L120.842 321.42Z" fill="#1A1A1A"/>
<path d="M242.27 347.073C243.077 346.687 241.693 342.709 241.476 342.045C240.128 337.91 237.977 333.753 237.19 329.478C236.475 329.365 236.077 329.316 235.648 329.308C234.874 329.293 234.066 329.335 233.221 329.389C233.275 329.529 233.388 329.793 233.412 329.884C234.09 332.373 235.303 336.831 233.777 339.206C231.026 339.192 228.274 339.227 225.597 338.477C222.802 337.693 220.041 336.078 217.514 334.65C216.533 334.095 215.545 333.266 214.423 333.014C213.816 332.877 213.126 332.877 212.417 332.921C208.867 333.91 205.567 335.1 202.428 336.575C201.905 336.82 201.482 336.994 200.528 337.372C200.437 337.408 200.393 337.424 200.343 337.444C199.472 337.789 198.849 338.063 198.325 338.328C198.404 338.437 198.562 338.648 198.591 338.694C200.081 341.098 203.491 343.019 206.159 343.797C215.733 346.59 225.163 346.376 235.033 346.005C236.702 345.943 238.453 345.979 240.088 346.346C240.399 346.416 242.054 347.177 242.27 347.073Z" fill="#1A1A1A"/>
<path d="M227.987 384.491C230.13 382.386 231.812 379.607 232.553 376.72C233.283 373.876 232.533 370.226 231.225 367.646C230.855 366.915 230.315 366.047 229.897 365.154C229.882 365.167 229.866 365.177 229.851 365.189C229.649 364.603 229.411 363.971 229.043 363.777C228.875 363.689 228.424 364.005 228.275 364.06C227.627 364.299 226.81 364.354 226.117 364.44C226.088 364.443 226.059 364.432 226.029 364.434C227.946 363.489 230.198 361.355 231.364 359.46C231.871 358.513 232.329 357.549 232.779 356.588C233.705 354.44 234.806 350.963 232.431 351.756C231.451 352.084 230.79 353.875 230.135 354.591C228.501 356.378 225.687 357.802 223.391 358.466C220.792 359.216 215.63 357.179 213.92 358.56C212.781 359.479 213.272 360.868 213.179 362.179C213.067 363.765 212.822 365.074 212.287 366.31C212.284 366.502 212.249 366.699 212.161 366.885C212.151 366.906 212.158 366.909 212.148 366.931C211.666 367.94 209.58 371.919 209.133 372.829C206.895 377.387 205.958 380.85 206.461 383.898C207.303 384.657 208.44 385.167 209.316 385.842C211.549 387.564 214.259 388.945 217.09 389.386C217.755 389.36 218.659 389.367 219.236 389.291C220.479 389.127 221.655 388.59 223.508 387.449C223.696 387.333 224.975 386.539 225.28 386.356C226.28 385.756 227.142 385.128 227.987 384.491Z" fill="#1A1A1A"/>
<path d="M191.562 357.058C192.299 356.478 192.91 355.759 193.302 354.875C193.438 354.568 193.544 354.245 193.619 353.918C193.698 353.575 193.743 353.226 193.725 352.874C193.658 351.568 192.762 350.707 191.721 350.042C191.133 349.667 190.508 349.353 189.907 349.001C189.482 348.752 189.055 348.475 188.707 348.123C188.48 347.892 188.293 347.62 188.129 347.341C187.41 346.129 187.248 344.684 187.064 343.314C186.978 342.673 186.875 342.038 186.726 341.416C187.117 341.351 187.51 341.276 187.896 341.244C188.371 340.591 188.424 339.937 188.208 338.779C188.183 338.647 188.135 338.418 188.074 338.12C187.998 337.928 187.873 337.646 187.833 337.514C186.891 334.456 184.497 326.165 181.367 323.256C181.288 323.285 181.215 323.307 181.136 323.337C179.757 323.86 178.66 324.379 176.291 325.576C172.843 327.319 169.795 329.389 166.178 332.336C160.315 337.111 157.9 340.262 156.428 345.788C158.915 349.047 166.396 352.592 169.165 354.086C169.62 354.255 170.202 354.475 170.43 354.55C171.083 354.763 171.548 354.824 171.966 354.706C172.041 354.407 172.126 354.128 172.209 353.842C172.74 354.279 173.299 354.683 173.879 355.051C175.184 355.879 176.573 356.577 177.998 357.175C179.416 357.771 180.882 358.267 182.379 358.625C183.976 359.007 185.646 359.267 187.271 358.921C188.757 358.605 190.334 358.025 191.562 357.058ZM191.178 356.13C189.964 357.174 188.258 357.748 186.745 358.035C186.099 358.158 185.419 358.126 184.769 358.06C184.04 357.985 183.321 357.849 182.609 357.677C181.164 357.329 179.749 356.839 178.38 356.264C176.946 355.661 175.545 354.96 174.24 354.112C173.641 353.723 173.066 353.296 172.531 352.823C172.992 351.486 173.562 350.279 174.301 349.2C176.811 345.535 181.351 342.589 185.799 341.579C185.991 342.375 186.099 343.197 186.213 344.011C186.428 345.539 186.731 347.093 187.679 348.356C188.633 349.627 190.216 350.133 191.479 351.014C192.137 351.471 192.735 352.078 192.776 352.922C192.788 353.188 192.749 353.446 192.69 353.703C192.458 354.707 191.907 355.503 191.178 356.13Z" fill="#1A1A1A"/>
<path d="M211.927 321.791C213.05 321.322 213.575 320.029 213.105 318.906L203.838 296.741C203.368 295.618 202.079 295.084 200.956 295.553L190.268 300.022C189.145 300.492 188.62 301.785 189.089 302.908L198.357 325.073C198.827 326.196 200.116 326.73 201.239 326.26L211.927 321.791ZM211.808 321.058C211.162 321.328 210.419 321.028 210.148 320.382C209.878 319.735 210.184 318.99 210.831 318.719C211.477 318.449 212.217 318.757 212.487 319.404C212.757 320.051 212.455 320.788 211.808 321.058ZM208.138 320.534C207.492 320.804 206.752 320.495 206.482 319.849C206.212 319.202 206.511 318.459 207.158 318.189C207.805 317.918 208.55 318.224 208.821 318.871C209.091 319.518 208.785 320.263 208.138 320.534ZM210.214 317.244C209.567 317.515 208.822 317.209 208.551 316.562C208.281 315.916 208.589 315.176 209.236 314.906C209.883 314.635 210.62 314.938 210.89 315.584C211.16 316.231 210.861 316.974 210.214 317.244Z" fill="#1A1A1A"/>
<path d="M259.016 349.427L258.384 336.804C258.093 336.899 257.791 336.975 257.471 336.991L252.883 337.222C252.562 337.238 252.249 337.19 251.95 337.124L252.582 349.747L259.016 349.427ZM259.562 334.756C259.864 334.257 260.026 333.664 259.994 333.037L259.794 329.073C259.71 327.403 258.288 326.116 256.617 326.2L252.649 326.397C250.978 326.481 249.696 327.906 249.78 329.577L249.975 333.538C250.059 335.209 251.481 336.495 253.152 336.412L257.12 336.214C258.165 336.162 259.058 335.588 259.562 334.756ZM257.814 325.484L257.128 311.83L250.699 312.153L251.385 325.807C251.676 325.712 251.98 325.644 252.3 325.628L256.889 325.398C257.209 325.381 257.515 325.418 257.814 325.484Z" fill="#1A1A1A"/>
<path d="M241.238 314.067L240.211 311.503L236.329 312.223L236.041 314.766L239.643 316.515L241.238 314.067ZM238.106 311.112C237.438 306.747 233.919 303.314 229.467 302.81C224.056 302.197 219.172 306.087 218.559 311.499C217.946 316.91 221.837 321.794 227.248 322.407C231.655 322.906 235.815 320.405 237.476 316.363L236.273 315.87C234.832 319.377 231.219 321.545 227.395 321.112C222.699 320.58 219.322 316.342 219.854 311.645C220.386 306.949 224.624 303.573 229.321 304.105C233.184 304.542 236.239 307.525 236.819 311.312L238.106 311.112Z" fill="#1A1A1A"/>
<path d="M331.27 292.073C332.077 291.687 330.693 287.709 330.476 287.045C329.128 282.91 326.977 278.753 326.19 274.478C325.475 274.365 325.077 274.316 324.648 274.308C323.874 274.293 323.066 274.335 322.221 274.389C322.275 274.529 322.388 274.793 322.412 274.884C323.09 277.373 324.303 281.831 322.777 284.206C320.026 284.192 317.274 284.227 314.597 283.477C311.802 282.693 309.041 281.078 306.514 279.65C305.533 279.095 304.545 278.266 303.423 278.014C302.816 277.877 302.126 277.877 301.417 277.921C297.867 278.91 294.567 280.1 291.428 281.575C290.905 281.82 290.482 281.994 289.528 282.372C289.437 282.408 289.393 282.424 289.343 282.444C288.472 282.789 287.849 283.063 287.325 283.328C287.404 283.437 287.562 283.648 287.591 283.694C289.081 286.098 292.491 288.019 295.159 288.797C304.733 291.59 314.163 291.376 324.033 291.005C325.702 290.943 327.453 290.979 329.088 291.346C329.399 291.416 331.054 292.177 331.27 292.073Z" fill="#1A1A1A"/>
<path d="M316.987 329.491C319.13 327.386 320.812 324.607 321.553 321.72C322.283 318.876 321.533 315.226 320.225 312.646C319.855 311.915 319.315 311.047 318.897 310.154C318.882 310.167 318.866 310.177 318.851 310.189C318.649 309.603 318.411 308.971 318.043 308.777C317.875 308.689 317.424 309.005 317.275 309.06C316.627 309.299 315.81 309.354 315.117 309.44C315.088 309.443 315.059 309.432 315.029 309.434C316.946 308.489 319.198 306.355 320.364 304.46C320.871 303.513 321.329 302.549 321.779 301.588C322.705 299.44 323.806 295.963 321.431 296.756C320.451 297.084 319.79 298.875 319.135 299.591C317.501 301.378 314.687 302.802 312.391 303.466C309.792 304.216 304.63 302.179 302.92 303.56C301.781 304.479 302.272 305.868 302.179 307.179C302.067 308.765 301.822 310.074 301.287 311.31C301.284 311.502 301.249 311.699 301.161 311.885C301.151 311.906 301.158 311.909 301.148 311.931C300.666 312.94 298.58 316.919 298.133 317.829C295.895 322.387 294.958 325.85 295.461 328.898C296.303 329.657 297.44 330.167 298.316 330.842C300.549 332.564 303.259 333.945 306.09 334.386C306.755 334.36 307.659 334.367 308.236 334.291C309.479 334.127 310.655 333.59 312.508 332.449C312.696 332.333 313.975 331.539 314.28 331.356C315.28 330.756 316.142 330.128 316.987 329.491Z" fill="#1A1A1A"/>
<path d="M292.009 311.403C292.505 310.716 292.349 309.755 291.662 309.259C290.974 308.763 290.013 308.919 289.517 309.606C289.022 310.293 289.181 311.25 289.868 311.746C290.556 312.241 291.514 312.09 292.009 311.403ZM278.156 330.613C278.651 329.926 278.495 328.965 277.808 328.469C277.121 327.974 276.16 328.129 275.664 328.817C275.169 329.504 275.328 330.46 276.015 330.956C276.702 331.451 277.66 331.3 278.156 330.613ZM288.795 311.682C289.291 310.995 289.131 310.038 288.444 309.543C287.757 309.047 286.799 309.198 286.304 309.885C285.808 310.572 285.964 311.534 286.651 312.029C287.338 312.525 288.3 312.369 288.795 311.682ZM277.409 327.471C277.905 326.784 277.749 325.822 277.062 325.327C276.374 324.832 275.413 324.987 274.918 325.674C274.422 326.362 274.578 327.323 275.265 327.819C275.952 328.314 276.914 328.158 277.409 327.471ZM285.333 312.614C285.828 311.927 285.677 310.969 284.99 310.473C284.303 309.977 283.342 310.134 282.846 310.821C282.351 311.508 282.506 312.469 283.194 312.964C283.881 313.46 284.838 313.301 285.333 312.614ZM277.2 323.892C277.696 323.205 277.541 322.251 276.854 321.756C276.167 321.26 275.209 321.411 274.713 322.098C274.218 322.785 274.373 323.747 275.061 324.243C275.748 324.738 276.704 324.579 277.2 323.892ZM282.293 314.661C282.789 313.974 282.63 313.017 281.942 312.522C281.255 312.026 280.297 312.177 279.802 312.864C279.306 313.551 279.462 314.513 280.149 315.008C280.836 315.504 281.798 315.348 282.293 314.661ZM278.183 320.361C278.678 319.674 278.522 318.713 277.835 318.217C277.148 317.721 276.186 317.877 275.691 318.564C275.195 319.252 275.355 320.208 276.042 320.704C276.729 321.2 277.687 321.048 278.183 320.361ZM280.178 317.375C280.674 316.687 280.515 315.731 279.827 315.236C279.14 314.74 278.182 314.891 277.687 315.578C277.191 316.265 277.347 317.227 278.034 317.722C278.721 318.218 279.683 318.062 280.178 317.375Z" fill="#1A1A1A"/>
<path d="M280.562 302.058C281.299 301.478 281.91 300.759 282.302 299.875C282.438 299.568 282.544 299.245 282.619 298.918C282.698 298.575 282.743 298.226 282.725 297.874C282.658 296.568 281.762 295.707 280.721 295.042C280.133 294.667 279.508 294.353 278.907 294.001C278.482 293.752 278.055 293.475 277.707 293.123C277.48 292.892 277.293 292.62 277.129 292.341C276.41 291.129 276.248 289.684 276.064 288.314C275.978 287.673 275.875 287.038 275.726 286.416C276.117 286.351 276.51 286.276 276.896 286.244C277.371 285.591 277.424 284.937 277.208 283.779C277.183 283.647 277.135 283.418 277.074 283.12C276.998 282.928 276.873 282.646 276.833 282.514C275.891 279.456 273.497 271.165 270.367 268.256C270.288 268.285 270.215 268.307 270.136 268.337C268.757 268.86 267.66 269.379 265.291 270.576C261.843 272.319 258.795 274.389 255.178 277.336C249.315 282.111 246.9 285.262 245.428 290.788C247.915 294.047 255.396 297.592 258.165 299.086C258.62 299.255 259.202 299.475 259.43 299.55C260.083 299.763 260.548 299.824 260.966 299.706C261.041 299.407 261.126 299.128 261.209 298.842C261.74 299.279 262.299 299.683 262.879 300.051C264.184 300.879 265.573 301.577 266.998 302.175C268.416 302.771 269.882 303.267 271.379 303.625C272.976 304.007 274.646 304.267 276.271 303.921C277.757 303.605 279.334 303.025 280.562 302.058ZM280.178 301.13C278.964 302.174 277.258 302.748 275.745 303.035C275.099 303.158 274.419 303.126 273.769 303.06C273.04 302.985 272.321 302.849 271.609 302.677C270.164 302.329 268.749 301.839 267.38 301.264C265.946 300.661 264.545 299.96 263.24 299.112C262.641 298.723 262.066 298.296 261.531 297.823C261.992 296.486 262.562 295.279 263.301 294.2C265.811 290.535 270.351 287.589 274.799 286.579C274.991 287.375 275.099 288.197 275.213 289.011C275.428 290.539 275.731 292.093 276.679 293.356C277.633 294.627 279.216 295.133 280.479 296.014C281.137 296.471 281.735 297.078 281.776 297.922C281.788 298.188 281.749 298.446 281.69 298.703C281.458 299.707 280.907 300.503 280.178 301.13Z" fill="#1A1A1A"/>
<path d="M300.927 266.791C302.05 266.322 302.575 265.029 302.105 263.906L292.838 241.741C292.368 240.618 291.079 240.084 289.956 240.553L279.268 245.022C278.145 245.492 277.62 246.785 278.089 247.908L287.357 270.073C287.827 271.196 289.116 271.73 290.239 271.26L300.927 266.791ZM300.808 266.058C300.162 266.328 299.419 266.028 299.148 265.382C298.878 264.735 299.184 263.99 299.831 263.719C300.477 263.449 301.217 263.757 301.487 264.404C301.757 265.051 301.455 265.788 300.808 266.058ZM297.138 265.534C296.492 265.804 295.752 265.495 295.482 264.849C295.212 264.202 295.511 263.459 296.158 263.189C296.805 262.918 297.55 263.224 297.821 263.871C298.091 264.518 297.785 265.263 297.138 265.534ZM299.214 262.244C298.567 262.515 297.822 262.209 297.551 261.562C297.281 260.916 297.589 260.176 298.236 259.906C298.883 259.635 299.62 259.938 299.89 260.584C300.16 261.231 299.861 261.974 299.214 262.244Z" fill="#1A1A1A"/>
<path d="M348.016 294.427L347.384 281.804C347.093 281.899 346.791 281.975 346.471 281.991L341.883 282.222C341.562 282.238 341.249 282.19 340.95 282.124L341.582 294.747L348.016 294.427ZM348.562 279.756C348.864 279.257 349.026 278.664 348.994 278.037L348.794 274.073C348.71 272.403 347.288 271.116 345.617 271.2L341.649 271.397C339.978 271.481 338.696 272.906 338.78 274.577L338.975 278.538C339.059 280.209 340.481 281.495 342.152 281.412L346.12 281.214C347.165 281.162 348.058 280.588 348.562 279.756ZM346.814 270.484L346.128 256.83L339.699 257.153L340.385 270.807C340.676 270.712 340.98 270.644 341.3 270.628L345.889 270.398C346.209 270.381 346.515 270.418 346.814 270.484Z" fill="#1A1A1A"/>
<path d="M330.238 259.067L329.211 256.503L325.329 257.223L325.041 259.766L328.643 261.515L330.238 259.067ZM327.106 256.112C326.438 251.747 322.919 248.314 318.467 247.81C313.056 247.197 308.172 251.087 307.559 256.499C306.946 261.91 310.837 266.794 316.248 267.407C320.655 267.906 324.815 265.405 326.476 261.363L325.273 260.87C323.832 264.377 320.219 266.545 316.395 266.112C311.699 265.58 308.322 261.342 308.854 256.645C309.386 251.949 313.624 248.573 318.321 249.105C322.184 249.542 325.239 252.525 325.819 256.312L327.106 256.112Z" fill="#1A1A1A"/>
<path d="M388.27 360.073C389.077 359.687 387.693 355.709 387.476 355.045C386.128 350.91 383.977 346.753 383.19 342.478C382.475 342.365 382.077 342.316 381.648 342.308C380.874 342.293 380.066 342.335 379.221 342.389C379.275 342.529 379.388 342.793 379.412 342.884C380.09 345.373 381.303 349.831 379.777 352.206C377.026 352.192 374.274 352.227 371.597 351.477C368.802 350.693 366.041 349.078 363.514 347.65C362.533 347.095 361.545 346.266 360.423 346.014C359.816 345.877 359.126 345.877 358.417 345.921C354.867 346.91 351.567 348.1 348.428 349.575C347.905 349.82 347.482 349.994 346.528 350.372C346.437 350.408 346.393 350.424 346.343 350.444C345.472 350.789 344.849 351.063 344.325 351.328C344.404 351.437 344.562 351.648 344.591 351.694C346.081 354.098 349.491 356.019 352.159 356.797C361.733 359.59 371.163 359.376 381.033 359.005C382.702 358.943 384.453 358.979 386.088 359.346C386.399 359.416 388.054 360.177 388.27 360.073Z" fill="#1A1A1A"/>
<path d="M337.562 370.058C338.299 369.478 338.91 368.759 339.302 367.875C339.438 367.568 339.544 367.245 339.619 366.918C339.698 366.575 339.743 366.226 339.725 365.874C339.658 364.568 338.762 363.707 337.721 363.042C337.133 362.667 336.508 362.353 335.907 362.001C335.482 361.752 335.055 361.475 334.707 361.123C334.48 360.892 334.293 360.62 334.129 360.341C333.41 359.129 333.248 357.684 333.064 356.314C332.978 355.673 332.875 355.038 332.726 354.416C333.117 354.351 333.51 354.276 333.896 354.244C334.371 353.591 334.424 352.937 334.208 351.779C334.183 351.647 334.135 351.418 334.074 351.12C333.998 350.928 333.873 350.646 333.833 350.514C332.891 347.456 330.497 339.165 327.367 336.256C327.288 336.285 327.215 336.307 327.136 336.337C325.757 336.86 324.66 337.379 322.291 338.576C318.843 340.319 315.795 342.389 312.178 345.336C306.315 350.111 303.9 353.262 302.428 358.788C304.915 362.047 312.396 365.592 315.165 367.086C315.62 367.255 316.202 367.475 316.43 367.55C317.083 367.763 317.548 367.824 317.966 367.706C318.041 367.407 318.126 367.128 318.209 366.842C318.74 367.279 319.299 367.683 319.879 368.051C321.184 368.879 322.573 369.577 323.998 370.175C325.416 370.771 326.882 371.267 328.379 371.625C329.976 372.007 331.646 372.267 333.271 371.921C334.757 371.605 336.334 371.025 337.562 370.058ZM337.178 369.13C335.964 370.174 334.258 370.748 332.745 371.035C332.099 371.158 331.419 371.126 330.769 371.06C330.04 370.985 329.321 370.849 328.609 370.677C327.164 370.329 325.749 369.839 324.38 369.264C322.946 368.661 321.545 367.96 320.24 367.112C319.641 366.723 319.066 366.296 318.531 365.823C318.992 364.486 319.562 363.279 320.301 362.2C322.811 358.535 327.351 355.589 331.799 354.579C331.991 355.375 332.099 356.197 332.213 357.011C332.428 358.539 332.731 360.093 333.679 361.356C334.633 362.627 336.216 363.133 337.479 364.014C338.137 364.471 338.735 365.078 338.776 365.922C338.788 366.188 338.749 366.446 338.69 366.703C338.458 367.707 337.907 368.503 337.178 369.13Z" fill="#1A1A1A"/>
<path d="M357.927 334.791C359.05 334.322 359.575 333.029 359.105 331.906L349.838 309.741C349.368 308.618 348.079 308.084 346.956 308.553L336.268 313.022C335.145 313.492 334.62 314.785 335.089 315.908L344.357 338.073C344.827 339.196 346.116 339.73 347.239 339.26L357.927 334.791ZM357.808 334.058C357.162 334.328 356.419 334.028 356.148 333.382C355.878 332.735 356.184 331.99 356.831 331.719C357.477 331.449 358.217 331.757 358.487 332.404C358.757 333.051 358.455 333.788 357.808 334.058ZM354.138 333.534C353.492 333.804 352.752 333.495 352.482 332.849C352.212 332.202 352.511 331.459 353.158 331.189C353.805 330.918 354.55 331.224 354.821 331.871C355.091 332.518 354.785 333.263 354.138 333.534ZM356.214 330.244C355.567 330.515 354.822 330.209 354.551 329.562C354.281 328.916 354.589 328.176 355.236 327.906C355.883 327.635 356.62 327.938 356.89 328.584C357.16 329.231 356.861 329.974 356.214 330.244Z" fill="#1A1A1A"/>
<path d="M387.238 327.067L386.211 324.503L382.329 325.223L382.041 327.766L385.643 329.515L387.238 327.067ZM384.106 324.112C383.438 319.747 379.919 316.314 375.467 315.81C370.056 315.197 365.172 319.087 364.559 324.499C363.946 329.91 367.837 334.794 373.248 335.407C377.655 335.906 381.815 333.405 383.476 329.363L382.273 328.87C380.832 332.377 377.219 334.545 373.395 334.112C368.699 333.58 365.322 329.342 365.854 324.645C366.386 319.949 370.624 316.573 375.321 317.105C379.184 317.542 382.239 320.525 382.819 324.312L384.106 324.112Z" fill="#1A1A1A"/>
<path d="M40.2705 32.0727C41.0774 31.6871 39.6929 27.7095 39.4762 27.0449C38.1284 22.9099 35.977 18.7527 35.1903 14.4781C34.4754 14.3646 34.077 14.3157 33.6478 14.3078C32.8738 14.2935 32.0662 14.3347 31.2206 14.3892C31.2748 14.5286 31.3878 14.7934 31.4123 14.8835C32.0904 17.3734 33.3034 21.8306 31.7772 24.2064C29.0263 24.1924 26.2742 24.2274 23.5967 23.4767C20.8017 22.693 18.0408 21.0782 15.5142 19.6496C14.5329 19.0947 13.545 18.2662 12.4232 18.0137C11.8165 17.8771 11.1256 17.8767 10.4166 17.9212C6.86681 18.9096 3.56745 20.1003 0.427919 21.5748C-0.0950987 21.8204 -0.517781 21.994 -1.47238 22.3717C-1.56294 22.4075 -1.60686 22.4242 -1.65687 22.444C-2.52781 22.7891 -3.1515 23.0632 -3.67548 23.3284C-3.59569 23.4373 -3.4378 23.6484 -3.40926 23.6945C-1.91882 26.0975 1.49137 28.0188 4.15883 28.7969C13.7335 31.5896 23.1628 31.3763 33.0327 31.0054C34.7018 30.9427 36.453 30.9794 38.088 31.3463C38.3993 31.4162 40.0536 32.1767 40.2705 32.0727Z" fill="#1A1A1A"/>
<path d="M25.9872 69.4912C28.1301 67.3861 29.8118 64.6066 30.553 61.7203C31.2831 58.8765 30.5327 55.2256 29.2252 52.6459C28.8545 51.915 28.3145 51.0473 27.8965 50.1542C27.8815 50.1665 27.8655 50.1769 27.8509 50.1888C27.6489 49.6032 27.4108 48.9706 27.0423 48.7767C26.8747 48.6888 26.424 49.0051 26.2745 49.0599C25.6265 49.2994 24.8098 49.3544 24.1168 49.4397C24.0873 49.4433 24.0586 49.4316 24.029 49.4345C25.9459 48.4894 28.1977 46.3548 29.3636 44.4604C29.871 43.5135 30.329 42.5491 30.7786 41.5876C31.7048 39.4396 32.8054 35.963 30.4309 36.7564C29.4511 37.0837 28.7897 38.8747 28.1352 39.5906C26.5006 41.3784 23.6864 42.802 21.3904 43.4656C18.7914 44.2164 13.63 42.1792 11.9193 43.56C10.7805 44.4792 11.2716 45.8676 11.1791 47.1792C11.0671 48.7646 10.8221 50.074 10.2868 51.3098C10.2842 51.5024 10.249 51.6991 10.1607 51.8848C10.1504 51.9064 10.1577 51.9094 10.1474 51.9309C9.66533 52.9399 7.5795 56.9192 7.1328 57.8289C4.89429 62.387 3.95748 65.8496 4.46049 68.8976C5.30318 69.6567 6.43992 70.1672 7.31539 70.842C9.54894 72.5638 12.259 73.9454 15.0897 74.3858C15.7547 74.3605 16.6588 74.3673 17.2357 74.2907C18.4791 74.1265 19.6552 73.59 21.508 72.4494C21.6961 72.3332 22.975 71.5386 23.2796 71.3557C24.2796 70.7557 25.142 70.1281 25.9872 69.4912Z" fill="#1A1A1A"/>
<path d="M1.0089 51.4028C1.50438 50.7157 1.34847 49.7546 0.661378 49.2589C-0.0257158 48.7633 -0.987058 48.9188 -1.48282 49.6064C-1.9783 50.2934 -1.81909 51.2501 -1.132 51.7458C-0.444576 52.2409 0.513413 52.0898 1.0089 51.4028ZM-12.8443 70.6132C-12.3488 69.9261 -12.5047 68.9649 -13.1919 68.4693C-13.879 67.9736 -14.8403 68.1292 -15.336 68.8168C-15.8315 69.5038 -15.6723 70.4605 -14.9852 70.9561C-14.2978 71.4513 -13.3398 71.3002 -12.8443 70.6132ZM-2.20496 51.682C-1.70948 50.9949 -1.86869 50.0383 -2.55578 49.5426C-3.24287 49.047 -4.20092 49.198 -4.6964 49.8851C-5.19189 50.5721 -5.03625 51.5338 -4.34916 52.0295C-3.66179 52.5246 -2.70045 52.369 -2.20496 51.682ZM-13.5911 67.4711C-13.0956 66.7841 -13.2512 65.8224 -13.9383 65.3267C-14.6257 64.8316 -15.587 64.9872 -16.0825 65.6742C-16.5783 66.3618 -16.4223 67.323 -15.7352 67.8187C-15.0481 68.3143 -14.0865 68.1582 -13.5911 67.4711ZM-5.66713 52.6138C-5.17165 51.9268 -5.32269 50.9687 -6.00984 50.473C-6.69688 49.9774 -7.6585 50.1335 -8.15398 50.8206C-8.64947 51.5076 -8.49383 52.4693 -7.80646 52.9644C-7.11937 53.4601 -6.16262 53.3008 -5.66713 52.6138ZM-13.8 63.8916C-13.3045 63.2046 -13.4589 62.251 -14.1462 61.7559C-14.8333 61.2603 -15.7914 61.4113 -16.2869 62.0984C-16.7823 62.7854 -16.6267 63.7472 -15.9396 64.2428C-15.2522 64.7379 -14.2957 64.5792 -13.8 63.8916ZM-8.70699 54.6609C-8.21156 53.9739 -8.3705 53.0166 -9.05787 52.5215C-9.74496 52.0259 -10.703 52.1769 -11.1985 52.864C-11.6939 53.551 -11.5383 54.5128 -10.8512 55.0084C-10.1638 55.5035 -9.20248 55.348 -8.70699 54.6609ZM-12.8175 60.3609C-12.3221 59.6738 -12.478 58.7126 -13.1651 58.217C-13.8522 57.7213 -14.8138 57.8774 -15.3093 58.5645C-15.8047 59.2515 -15.6455 60.2082 -14.9584 60.7039C-14.2713 61.1995 -13.3133 61.0484 -12.8175 60.3609ZM-10.822 57.3749C-10.3262 56.6873 -10.4854 55.7307 -11.1728 55.2356C-11.8599 54.7399 -12.8179 54.891 -13.3134 55.578C-13.8089 56.2651 -13.6532 57.2268 -12.9659 57.7219C-12.2788 58.2175 -11.3174 58.062 -10.822 57.3749Z" fill="#1A1A1A"/>
<path d="M-10.4382 42.0583C-9.70148 41.4778 -9.09018 40.7587 -8.69873 39.8753C-8.56273 39.5683 -8.45586 39.2453 -8.38115 38.9184C-8.30251 38.5749 -8.25746 38.2262 -8.27556 37.8738C-8.34237 36.5676 -9.23794 35.7072 -10.2797 35.0417C-10.8673 34.6668 -11.4919 34.3527 -12.0932 34.0011C-12.5185 33.7518 -12.9454 33.4749 -13.2934 33.1228C-13.5206 32.8918 -13.7069 32.6197 -13.8715 32.3415C-14.5906 31.1294 -14.7519 29.6837 -14.9358 28.3138C-15.0221 27.6727 -15.125 27.0384 -15.2741 26.4157C-14.8831 26.351 -14.4903 26.2755 -14.1047 26.2437C-13.6291 25.5912 -13.5758 24.9369 -13.7925 23.7786C-13.817 23.647 -13.865 23.418 -13.9265 23.1204C-14.0018 22.9283 -14.1269 22.6459 -14.1675 22.5145C-15.1093 19.4564 -17.5035 11.1651 -20.6337 8.25618C-20.7119 8.28499 -20.7857 8.30666 -20.8647 8.33668C-22.243 8.86046 -23.3404 9.37905 -25.7094 10.5764C-29.1576 12.3191 -32.2056 14.3889 -35.8225 17.3355C-41.6852 22.1113 -44.0999 25.2623 -45.5723 30.7876C-43.0854 34.0466 -35.6044 37.5919 -32.8352 39.0862C-32.3798 39.2553 -31.7983 39.4751 -31.5698 39.5498C-30.9174 39.7634 -30.4527 39.8243 -30.034 39.7056C-29.9595 39.4074 -29.8743 39.1283 -29.7913 38.8419C-29.2606 39.2786 -28.7008 39.6827 -28.1216 40.0506C-26.816 40.8792 -25.4273 41.577 -24.0025 42.1751C-22.5839 42.7708 -21.1183 43.2675 -19.621 43.6253C-18.0241 44.0073 -16.3538 44.2666 -14.7289 43.9212C-13.2429 43.6052 -11.6659 43.0253 -10.4382 42.0583ZM-10.8219 41.1297C-12.0367 42.1737 -13.7421 42.7478 -15.2553 43.0351C-15.9009 43.1579 -16.5812 43.1261 -17.231 43.0598C-17.9602 42.9848 -18.6794 42.8486 -19.3916 42.6767C-20.8367 42.3294 -22.251 41.8394 -23.6204 41.2638C-25.0544 40.661 -26.4554 39.9604 -27.7605 39.1115C-28.3588 38.723 -28.9347 38.2964 -29.4695 37.8234C-29.0079 36.4861 -28.4385 35.2792 -27.6991 34.1998C-25.1896 30.5354 -20.6493 27.5888 -16.2017 26.5794C-16.0089 27.3748 -15.9015 28.1971 -15.787 29.0113C-15.5722 30.5387 -15.2692 32.0935 -14.3217 33.3556C-13.3669 34.6268 -11.7846 35.133 -10.5208 36.0139C-9.86338 36.4713 -9.26536 37.0783 -9.22468 37.9224C-9.21211 38.1878 -9.25135 38.4462 -9.31067 38.7035C-9.54274 39.7069 -10.0928 40.5028 -10.8219 41.1297Z" fill="#1A1A1A"/>
<path d="M9.92643 6.79148C11.0494 6.32191 11.5747 5.02914 11.1052 3.90628L1.83732 -18.259C1.36783 -19.3819 0.0786239 -19.916 -1.04429 -19.4465L-11.732 -14.9777C-12.8549 -14.5082 -13.3803 -13.2154 -12.9107 -12.0925L-3.64287 10.0728C-3.17335 11.1957 -1.88417 11.7298 -0.761251 11.2603L9.92643 6.79148ZM9.80825 6.05798C9.16165 6.32829 8.41855 6.02849 8.14815 5.38192C7.87779 4.73529 8.18375 3.9896 8.83038 3.71924C9.47701 3.44887 10.2165 3.75741 10.4869 4.40404C10.7572 5.05064 10.4548 5.78758 9.80825 6.05798ZM6.13821 5.53359C5.49163 5.80398 4.75203 5.49546 4.48175 4.84881C4.21135 4.20223 4.51115 3.45913 5.15778 3.18876C5.80436 2.91836 6.55012 3.2243 6.82043 3.8709C7.0908 4.51753 6.78484 5.26322 6.13821 5.53359ZM8.21373 2.24443C7.5671 2.5148 6.82144 2.20878 6.55105 1.5622C6.28073 0.915602 6.58925 0.176141 7.23585 -0.0943086C7.88245 -0.364621 8.61945 -0.0622166 8.88979 0.584331C9.16016 1.23096 8.8603 1.97404 8.21373 2.24443Z" fill="#1A1A1A"/>
<path d="M57.0156 34.4268L56.3839 21.804C56.0926 21.8993 55.7912 21.9752 55.4706 21.9913L50.8826 22.2216C50.562 22.2377 50.2489 22.1901 49.9497 22.1242L50.5814 34.747L57.0156 34.4268ZM57.5617 19.7565C57.8639 19.2574 58.0259 18.664 57.9943 18.0374L57.7936 14.0734C57.7099 12.4027 56.2882 11.1158 54.6172 11.1995L50.6485 11.3975C48.9775 11.4812 47.6957 12.9058 47.7795 14.5766L47.9752 18.5378C48.059 20.2086 49.4806 21.4954 51.1517 21.4117L55.1204 21.2137C56.165 21.1615 57.0582 20.5884 57.5617 19.7565ZM55.8138 10.4841L55.1282 -3.17015L48.6993 -2.847L49.385 10.8072C49.6759 10.7117 49.9796 10.6438 50.3002 10.6277L54.8884 10.3975C55.209 10.3814 55.5146 10.4181 55.8138 10.4841Z" fill="#1A1A1A"/>
<path d="M39.2375 -0.93329L38.2104 -3.497L34.329 -2.77726L34.041 -0.233623L37.6429 1.51503L39.2375 -0.93329ZM36.1059 -3.88755C35.4378 -8.25306 31.919 -11.6863 27.4672 -12.1904C22.0558 -12.8032 17.1719 -8.91286 16.5591 -3.50138C15.9463 1.91004 19.8366 6.79401 25.2481 7.4068C29.6548 7.90582 33.8145 5.40526 35.4762 1.36333L34.2732 0.869943C32.8315 4.37672 29.219 6.54491 25.3947 6.11191C20.6984 5.58008 17.3222 1.34154 17.854 -3.35476C18.3858 -8.05102 22.6243 -11.4273 27.3207 -10.8955C31.1839 -10.458 34.239 -7.47525 34.8186 -3.68788L36.1059 -3.88755Z" fill="#1A1A1A"/>
<path d="M125.81 21.4251C126.605 21.8338 128.932 18.3233 129.33 17.7484C131.805 14.1718 133.81 9.94234 136.735 6.72767C136.393 6.09004 136.19 5.74337 135.937 5.39704C135.479 4.7724 134.958 4.15469 134.402 3.51478C134.324 3.64232 134.182 3.89263 134.125 3.96668C132.554 6.01411 129.742 9.67855 126.927 9.90264C125.272 7.70503 123.578 5.53613 122.554 2.95086C121.485 0.251994 121.098 -2.923 120.705 -5.79881C120.552 -6.91573 120.613 -8.20364 120.135 -9.24924C119.876 -9.81475 119.458 -10.3648 118.993 -10.9021C116.057 -13.1284 113.111 -15.033 110.037 -16.6385C109.525 -16.906 109.131 -17.1372 108.252 -17.6682C108.169 -17.7186 108.129 -17.7434 108.083 -17.7712C107.281 -18.2553 106.685 -18.5857 106.156 -18.842C106.118 -18.7126 106.046 -18.4591 106.026 -18.4085C105.017 -15.7672 105.553 -11.8899 106.549 -9.29599C110.124 0.0146639 116.004 7.38931 122.276 15.0191C123.337 16.3093 124.368 17.7252 125.066 19.2485C125.199 19.5385 125.596 21.3155 125.81 21.4251Z" fill="#1A1A1A"/>
<path d="M87.3831 32.7181C90.356 33.1486 93.5863 32.8037 96.332 31.6457C99.0372 30.5046 101.488 27.6966 102.749 25.0939C103.107 24.3563 103.47 23.4011 103.928 22.5276C103.909 22.5232 103.891 22.5167 103.872 22.5123C104.216 21.9969 104.575 21.4244 104.507 21.0137C104.475 20.8271 103.95 20.6599 103.816 20.5742C103.233 20.2035 102.695 19.5869 102.207 19.0871C102.187 19.0658 102.179 19.0358 102.158 19.0141C104.071 19.9672 107.134 20.4666 109.347 20.2471C110.408 20.0776 111.453 19.858 112.49 19.6335C114.76 19.0698 118.194 17.8404 116.124 16.4312C115.27 15.8497 113.445 16.4079 112.479 16.3206C110.066 16.1025 107.229 14.725 105.31 13.2997C103.139 11.6861 101.635 6.34506 99.5 5.81983C98.0788 5.47026 97.2713 6.70183 96.1716 7.42242C94.8421 8.29335 93.6517 8.89135 92.3442 9.21373C92.1893 9.32827 92.0114 9.41944 91.8101 9.46157C91.7867 9.46647 91.7888 9.47412 91.7654 9.47896C90.6705 9.70632 86.2407 10.4562 85.2463 10.6515C80.2634 11.6304 76.9406 12.9817 74.8196 15.2278C74.7259 16.358 75.008 17.5718 75.0011 18.6772C74.9835 21.4973 75.5252 24.4906 76.8888 27.0099C77.3117 27.5237 77.8538 28.2474 78.2641 28.66C79.1477 29.5502 80.2869 30.1612 82.3165 30.945C82.523 31.0242 83.9297 31.5608 84.2597 31.6925C85.3428 32.1249 86.3644 32.4312 87.3831 32.7181Z" fill="#1A1A1A"/>
<path d="M86.6517 1.88668C87.4985 1.86493 88.169 1.1588 88.1473 0.311864C88.1257 -0.535071 87.4197 -1.2059 86.5724 -1.18405C85.7256 -1.1623 85.0607 -0.456274 85.0823 0.390661C85.1046 1.23754 85.8049 1.90842 86.6517 1.88668ZM62.9752 2.49557C63.8219 2.47382 64.4924 1.76769 64.4708 0.920697C64.4491 0.0737629 63.7432 -0.597067 62.8958 -0.57515C62.049 -0.553406 61.3841 0.152622 61.4058 0.999557C61.428 1.84638 62.1284 2.51731 62.9752 2.49557ZM84.4833 -0.501825C85.3301 -0.52357 85.995 -1.2296 85.9734 -2.07653C85.9517 -2.92346 85.2514 -3.5944 84.4046 -3.57265C83.5578 -3.55091 82.8867 -2.84467 82.9083 -1.99773C82.9306 -1.15091 83.6365 -0.48008 84.4833 -0.501825ZM65.0233 -0.00141129C65.8701 -0.0231561 66.5412 -0.729399 66.5196 -1.57633C66.4973 -2.42316 65.7914 -3.09399 64.9446 -3.07224C64.0972 -3.05039 63.4267 -2.3442 63.4484 -1.49726C63.47 -0.650327 64.1766 0.0203937 65.0233 -0.00141129ZM81.6452 -2.69271C82.492 -2.71446 83.1629 -3.41482 83.1413 -4.26182C83.1196 -5.10869 82.4131 -5.77941 81.5663 -5.75767C80.7195 -5.73592 80.0484 -5.02968 80.0707 -4.18286C80.0923 -3.33592 80.7984 -2.67097 81.6452 -2.69271ZM67.7454 -2.33533C68.5922 -2.35708 69.2575 -3.05734 69.2353 -3.90416C69.2136 -4.7511 68.5133 -5.42203 67.6665 -5.40029C66.8197 -5.37854 66.1486 -4.67224 66.1703 -3.82531C66.1925 -2.97848 66.898 -2.31342 67.7454 -2.33533ZM78.1753 -3.87215C79.022 -3.89395 79.6876 -4.60009 79.6653 -5.44691C79.6437 -6.29385 78.9433 -6.96478 78.0965 -6.94304C77.2497 -6.92123 76.5786 -6.21499 76.6003 -5.36806C76.6225 -4.52123 77.3285 -3.8504 78.1753 -3.87215ZM71.1501 -3.69161C71.9969 -3.71335 72.6674 -4.41949 72.6457 -5.26642C72.6241 -6.11335 71.9175 -6.78407 71.0707 -6.76233C70.2239 -6.74052 69.559 -6.0345 69.5807 -5.18756C69.6023 -4.34063 70.3027 -3.66975 71.1501 -3.69161ZM74.7347 -3.91174C75.5821 -3.9336 76.247 -4.63963 76.2248 -5.48645C76.2031 -6.33338 75.5028 -7.00432 74.656 -6.98257C73.8092 -6.96077 73.1381 -6.25453 73.1603 -5.4077C73.182 -4.56077 73.8879 -3.88994 74.7347 -3.91174Z" fill="#1A1A1A"/>
<path d="M134.077 36.1765L143.74 28.0298C143.487 27.8557 143.244 27.6618 143.038 27.4165L140.076 23.9048C139.869 23.6594 139.717 23.3814 139.589 23.1034L129.926 31.2501L134.077 36.1765ZM146.082 27.7272C146.662 27.6655 147.233 27.4351 147.712 27.0304L150.745 24.4703C152.024 23.3919 152.187 21.4813 151.109 20.2021L148.548 17.1638C147.469 15.8847 145.559 15.7273 144.281 16.8058L141.247 19.3603C139.968 20.4387 139.805 22.3493 140.883 23.6284L143.444 26.6668C144.118 27.4665 145.115 27.8303 146.082 27.7272ZM152.403 20.7211L162.854 11.907L158.703 6.98659L148.253 15.8008C148.505 15.9745 148.743 16.175 148.95 16.4204L151.911 19.9323C152.118 20.1777 152.274 20.4431 152.403 20.7211Z" fill="#1A1A1A"/>
<path d="M151.451 0.6158L152.869 -1.75407L149.946 -4.40698L147.747 -3.09587L148.537 0.829429L151.451 0.6158ZM151.905 -3.66535C154.975 -6.84064 155.576 -11.7199 153.281 -15.5679C150.492 -20.2453 144.438 -21.7761 139.761 -18.9867C135.084 -16.1974 133.553 -10.1439 136.342 -5.4664C138.614 -1.65736 143.122 0.138577 147.345 -0.986708L147.009 -2.24282C143.346 -1.26647 139.433 -2.82828 137.461 -6.13385C135.041 -10.1932 136.369 -15.4467 140.428 -17.8674C144.488 -20.2881 149.741 -18.9597 152.162 -14.9003C154.153 -11.561 153.63 -7.32362 150.967 -4.56885L151.905 -3.66535Z" fill="#1A1A1A"/>
<path d="M207.538 -8.68749C206.644 -8.65048 206.352 -4.44892 206.29 -3.7527C205.902 0.579132 206.245 5.24743 205.286 9.48686C205.899 9.8725 206.246 10.0742 206.637 10.2503C207.343 10.568 208.102 10.8478 208.901 11.1304C208.906 10.9809 208.906 10.693 208.919 10.6005C209.275 8.04462 209.914 3.46963 212.251 1.88595C214.775 2.98108 217.319 4.03166 219.485 5.77518C221.746 7.59533 223.649 10.1662 225.41 12.4736C226.094 13.3698 226.676 14.5202 227.608 15.1937C228.112 15.5579 228.747 15.8301 229.417 16.0681C233.069 16.556 236.571 16.7594 240.037 16.639C240.615 16.6189 241.071 16.6257 242.098 16.654C242.195 16.6567 242.242 16.6586 242.296 16.6601C243.232 16.6855 243.913 16.6789 244.5 16.6412C244.469 16.5097 244.407 16.2535 244.399 16.1999C243.974 13.4043 241.595 10.2963 239.448 8.53147C231.745 2.19701 222.992 -1.31665 213.772 -4.85874C212.213 -5.45771 210.617 -6.18046 209.259 -7.16103C209 -7.34774 207.778 -8.69779 207.538 -8.68749Z" fill="#1A1A1A"/>
<path d="M235.391 -37.469C232.593 -36.3768 229.953 -34.483 228.136 -32.1211C226.346 -29.7939 225.599 -26.1422 225.787 -23.2561C225.84 -22.4383 225.995 -21.4282 226.028 -20.4426C226.046 -20.448 226.065 -20.4513 226.083 -20.4565C226.039 -19.8386 226.009 -19.1634 226.271 -18.8401C226.391 -18.6934 226.929 -18.8068 227.088 -18.7984C227.778 -18.7636 228.551 -18.4929 229.222 -18.2987C229.25 -18.2904 229.272 -18.2683 229.3 -18.2594C227.166 -18.1446 224.256 -17.0681 222.439 -15.7851C221.6 -15.1143 220.799 -14.4078 220.008 -13.7008C218.311 -12.0904 215.932 -9.32717 218.427 -9.12233C219.456 -9.03785 220.769 -10.4242 221.652 -10.8248C223.858 -11.8254 227.006 -12.0269 229.378 -11.7337C232.062 -11.4015 236.006 -7.49794 238.122 -8.09429C239.531 -8.49139 239.626 -9.96104 240.227 -11.1304C240.953 -12.5439 241.694 -13.6513 242.672 -14.5768C242.75 -14.7529 242.86 -14.9199 243.014 -15.0559C243.032 -15.0717 243.027 -15.0773 243.045 -15.0931C243.885 -15.831 247.368 -18.6688 248.136 -19.3293C251.988 -22.6392 254.211 -25.454 254.948 -28.454C254.472 -29.4834 253.628 -30.4 253.088 -31.3649C251.712 -33.8266 249.764 -36.1629 247.335 -37.6815C246.714 -37.9198 245.885 -38.2818 245.325 -38.4383C244.117 -38.7766 242.825 -38.746 240.673 -38.4264C240.454 -38.3935 238.966 -38.1662 238.614 -38.1179C237.458 -37.9597 236.418 -37.7221 235.391 -37.469Z" fill="#1A1A1A"/>
<path d="M258.086 2.08237C257.18 2.32623 256.335 2.74686 255.628 3.40499C255.382 3.63371 255.157 3.88864 254.959 4.15979C254.752 4.44458 254.573 4.74743 254.451 5.07856C253.999 6.3057 254.484 7.44908 255.18 8.47076C255.572 9.04662 256.023 9.58108 256.437 10.141C256.73 10.5375 257.014 10.9599 257.195 11.4206C257.313 11.7224 257.378 12.0458 257.419 12.3664C257.604 13.7636 257.183 15.1561 256.813 16.488C256.64 17.1113 256.485 17.7349 256.378 18.3661C255.993 18.2717 255.602 18.1866 255.235 18.0641C254.541 18.4768 254.234 19.0574 253.978 20.2076C253.949 20.3382 253.903 20.5676 253.842 20.8654C253.836 21.0717 253.84 21.3805 253.825 21.5173C253.488 24.6993 252.427 33.2639 254.16 37.1697C254.244 37.174 254.32 37.1831 254.404 37.1866C255.878 37.2473 257.091 37.2023 259.74 37.0336C263.595 36.788 267.212 36.0843 271.696 34.7983C278.965 32.7142 282.425 30.7674 285.952 26.2669C284.948 22.2924 279.465 16.0896 277.507 13.6264C277.155 13.2917 276.707 12.861 276.526 12.7024C276.011 12.2493 275.607 12.0105 275.176 11.9549C274.99 12.1997 274.802 12.4228 274.613 12.6535C274.297 12.0432 273.941 11.4514 273.553 10.8853C272.679 9.60984 271.677 8.42203 270.602 7.31159C269.532 6.20577 268.38 5.17259 267.145 4.2545C265.827 3.27511 264.393 2.37958 262.763 2.05779C261.273 1.76369 259.595 1.67636 258.086 2.08237ZM258.073 3.08704C259.601 2.60514 261.395 2.74829 262.899 3.07956C263.541 3.2207 264.154 3.51747 264.725 3.83416C265.366 4.18994 265.973 4.59817 266.56 5.03636C267.752 5.92419 268.86 6.93113 269.892 7.99907C270.974 9.11742 271.986 10.3127 272.852 11.6066C273.249 12.1992 273.611 12.818 273.916 13.4632C272.966 14.5111 271.967 15.3966 270.863 16.0981C267.114 18.4796 261.781 19.4023 257.295 18.5805C257.43 17.7734 257.655 16.9751 257.87 16.1815C258.274 14.6928 258.607 13.1442 258.232 11.6112C257.855 10.0668 256.599 8.9789 255.784 7.67182C255.359 6.99269 255.048 6.19936 255.343 5.40726C255.436 5.15835 255.574 4.93619 255.729 4.72305C256.337 3.89183 257.156 3.37654 258.073 3.08704Z" fill="#1A1A1A"/>
<path d="M225.489 26.4931C224.271 26.483 223.28 27.4648 223.27 28.6819L223.07 52.7059C223.06 53.923 224.035 54.9212 225.252 54.9313L236.836 55.0277C238.053 55.0379 239.044 54.0561 239.055 52.839L239.255 28.815C239.265 27.5979 238.29 26.5997 237.072 26.5895L225.489 26.4931ZM225.309 27.214C226.009 27.2198 226.575 27.7878 226.569 28.4886C226.563 29.1895 225.988 29.7547 225.287 29.7488C224.587 29.743 224.028 29.1684 224.034 28.4675C224.04 27.7667 224.608 27.2082 225.309 27.214ZM228.476 29.14C229.177 29.1458 229.736 29.7204 229.73 30.4212C229.724 31.122 229.156 31.6873 228.455 31.6814C227.754 31.6756 227.189 31.101 227.195 30.4001C227.201 29.6993 227.776 29.1341 228.476 29.14ZM225.274 31.3473C225.975 31.3531 226.54 31.9278 226.534 32.6286C226.528 33.3295 225.954 33.8879 225.253 33.8821C224.552 33.8763 223.994 33.3083 224 32.6075C224.005 31.9067 224.573 31.3415 225.274 31.3473Z" fill="#1A1A1A"/>
<path d="M193.069 -17.4398L188.684 -5.58648C188.989 -5.5595 189.296 -5.5107 189.597 -5.39938L193.906 -3.80599C194.207 -3.69468 194.476 -3.52774 194.725 -3.34945L199.111 -15.2028L193.069 -17.4398ZM186.796 -4.16746C186.321 -3.82752 185.939 -3.34575 185.722 -2.7572L184.347 0.96602C183.766 2.53503 184.567 4.27741 186.136 4.85788L189.863 6.23728C191.432 6.8177 193.171 6.01231 193.751 4.44329L195.13 0.724579C195.71 -0.844432 194.909 -2.58682 193.34 -3.16728L189.613 -4.54668C188.633 -4.90967 187.586 -4.73417 186.796 -4.16746ZM184.755 5.04489L180.013 17.8677L186.051 20.0999L190.792 7.27703C190.487 7.25037 190.181 7.19336 189.88 7.08205L185.571 5.48848C185.27 5.37716 185.004 5.22317 184.755 5.04489Z" fill="#1A1A1A"/>
<path d="M195.502 22.0631L195.438 24.8242L199.289 25.6895L200.555 23.4643L197.931 20.4396L195.502 22.0631ZM197.219 26.0112C196.116 30.2875 198 34.8282 201.894 37.0432C206.628 39.7355 212.649 38.0804 215.341 33.3464C218.034 28.6125 216.379 22.5918 211.645 19.8994C207.79 17.7069 202.982 18.3693 199.864 21.4315L200.776 22.3584C203.481 19.7016 207.655 19.1295 211 21.0322C215.109 23.3688 216.545 28.5938 214.208 32.7022C211.872 36.8105 206.647 38.2469 202.539 35.9103C199.159 33.9882 197.524 30.0441 198.481 26.3341L197.219 26.0112Z" fill="#1A1A1A"/>
<path d="M355.81 17.4251C356.606 17.8338 358.933 14.3233 359.33 13.7484C361.805 10.1718 363.81 5.94234 366.735 2.72767C366.393 2.09004 366.19 1.74337 365.937 1.39704C365.479 0.772399 364.958 0.154688 364.402 -0.485225C364.324 -0.357681 364.182 -0.107373 364.125 -0.03332C362.554 2.01411 359.742 5.67855 356.927 5.90264C355.272 3.70503 353.578 1.53613 352.554 -1.04914C351.485 -3.74801 351.098 -6.923 350.705 -9.79881C350.552 -10.9157 350.613 -12.2036 350.135 -13.2492C349.876 -13.8147 349.458 -14.3648 348.993 -14.9021C346.057 -17.1284 343.111 -19.033 340.037 -20.6385C339.525 -20.906 339.131 -21.1372 338.252 -21.6682C338.169 -21.7186 338.129 -21.7434 338.083 -21.7712C337.281 -22.2553 336.685 -22.5857 336.157 -22.842C336.118 -22.7126 336.046 -22.4591 336.026 -22.4085C335.017 -19.7672 335.553 -15.8899 336.549 -13.296C340.125 -3.98534 346.004 3.38931 352.276 11.0191C353.337 12.3093 354.368 13.7252 355.067 15.2485C355.199 15.5385 355.596 17.3155 355.81 17.4251Z" fill="#1A1A1A"/>
<path d="M317.383 28.7181C320.356 29.1486 323.586 28.8037 326.332 27.6457C329.037 26.5046 331.488 23.6966 332.749 21.0939C333.107 20.3563 333.47 19.4011 333.928 18.5276C333.909 18.5232 333.891 18.5167 333.872 18.5123C334.216 17.9969 334.575 17.4244 334.507 17.0137C334.475 16.8271 333.95 16.6599 333.816 16.5742C333.233 16.2035 332.695 15.5869 332.207 15.0871C332.187 15.0658 332.179 15.0358 332.158 15.0141C334.071 15.9672 337.134 16.4666 339.347 16.2471C340.408 16.0776 341.453 15.858 342.49 15.6335C344.76 15.0698 348.194 13.8404 346.124 12.4312C345.27 11.8497 343.445 12.4079 342.479 12.3206C340.066 12.1025 337.229 10.725 335.31 9.29973C333.139 7.68611 331.635 2.34506 329.5 1.81983C328.079 1.47026 327.271 2.70183 326.172 3.42242C324.842 4.29335 323.652 4.89135 322.344 5.21373C322.189 5.32827 322.011 5.41944 321.81 5.46157C321.787 5.46647 321.789 5.47412 321.765 5.47896C320.671 5.70632 316.241 6.45615 315.246 6.65152C310.263 7.63039 306.941 8.98173 304.82 11.2278C304.726 12.358 305.008 13.5718 305.001 14.6772C304.983 17.4973 305.525 20.4906 306.889 23.0099C307.312 23.5237 307.854 24.2474 308.264 24.66C309.148 25.5502 310.287 26.1612 312.317 26.945C312.523 27.0242 313.93 27.5608 314.26 27.6925C315.343 28.1249 316.364 28.4312 317.383 28.7181Z" fill="#1A1A1A"/>
<path d="M316.652 -2.11332C317.499 -2.13507 318.169 -2.8412 318.147 -3.68814C318.126 -4.53507 317.42 -5.2059 316.572 -5.18405C315.726 -5.1623 315.061 -4.45627 315.082 -3.60934C315.105 -2.76246 315.805 -2.09158 316.652 -2.11332ZM292.975 -1.50443C293.822 -1.52618 294.493 -2.23231 294.471 -3.0793C294.449 -3.92624 293.743 -4.59707 292.896 -4.57515C292.049 -4.55341 291.384 -3.84738 291.406 -3.00044C291.428 -2.15362 292.128 -1.48269 292.975 -1.50443ZM314.483 -4.50183C315.33 -4.52357 315.995 -5.2296 315.973 -6.07653C315.952 -6.92346 315.251 -7.5944 314.405 -7.57265C313.558 -7.55091 312.887 -6.84467 312.908 -5.99773C312.931 -5.15091 313.637 -4.48008 314.483 -4.50183ZM295.023 -4.00141C295.87 -4.02316 296.541 -4.7294 296.52 -5.57633C296.497 -6.42316 295.792 -7.09399 294.945 -7.07224C294.097 -7.05039 293.427 -6.3442 293.448 -5.49726C293.47 -4.65033 294.177 -3.97961 295.023 -4.00141ZM311.645 -6.69271C312.492 -6.71446 313.163 -7.41482 313.141 -8.26182C313.12 -9.10869 312.413 -9.77941 311.566 -9.75767C310.72 -9.73592 310.049 -9.02968 310.071 -8.18286C310.092 -7.33592 310.799 -6.67097 311.645 -6.69271ZM297.746 -6.33533C298.592 -6.35708 299.258 -7.05734 299.235 -7.90416C299.214 -8.7511 298.513 -9.42203 297.667 -9.40029C296.82 -9.37854 296.149 -8.67224 296.17 -7.82531C296.193 -6.97848 296.898 -6.31342 297.746 -6.33533ZM308.175 -7.87215C309.022 -7.89395 309.688 -8.60009 309.665 -9.44691C309.644 -10.2938 308.943 -10.9648 308.097 -10.943C307.25 -10.9212 306.579 -10.215 306.6 -9.36806C306.623 -8.52123 307.329 -7.8504 308.175 -7.87215ZM301.15 -7.69161C301.997 -7.71335 302.667 -8.41949 302.646 -9.26642C302.624 -10.1134 301.918 -10.7841 301.071 -10.7623C300.224 -10.7405 299.559 -10.0345 299.581 -9.18756C299.602 -8.34063 300.303 -7.66975 301.15 -7.69161ZM304.735 -7.91174C305.582 -7.9336 306.247 -8.63963 306.225 -9.48645C306.203 -10.3334 305.503 -11.0043 304.656 -10.9826C303.809 -10.9608 303.138 -10.2545 303.16 -9.4077C303.182 -8.56077 303.888 -7.88994 304.735 -7.91174Z" fill="#1A1A1A"/>
<path d="M364.077 32.1765L373.74 24.0298C373.487 23.8557 373.244 23.6618 373.038 23.4165L370.076 19.9048C369.869 19.6594 369.717 19.3814 369.589 19.1034L359.926 27.2501L364.077 32.1765ZM376.082 23.7272C376.662 23.6655 377.233 23.4351 377.712 23.0304L380.745 20.4703C382.024 19.3919 382.187 17.4813 381.109 16.2021L378.548 13.1638C377.469 11.8847 375.559 11.7273 374.281 12.8058L371.247 15.3603C369.968 16.4387 369.805 18.3493 370.883 19.6284L373.444 22.6668C374.118 23.4665 375.115 23.8303 376.082 23.7272ZM382.403 16.7211L392.854 7.90702L388.703 2.98659L378.253 11.8008C378.505 11.9745 378.743 12.175 378.95 12.4204L381.911 15.9323C382.118 16.1777 382.274 16.4431 382.403 16.7211Z" fill="#1A1A1A"/>
<path d="M152.227 110.504C141.357 109.792 130.035 127.049 125.555 134.5C123.59 137.767 121.478 141.784 121.552 145.717C121.616 149.145 123.259 152.434 125.64 155.435C125.292 155.455 124.9 155.44 124.549 155.457C125.182 155.922 125.886 156.396 126.368 156.827C126.883 157.286 127.321 157.743 127.674 158.197C128.5 159.259 128.987 160.308 128.744 161.879C128.546 163.158 127.892 164.031 127.053 164.704C125.893 165.635 124.392 166.131 121.873 166.716C121.103 166.895 120.295 167.063 119.432 167.23C119.008 167.312 118.099 167.48 118.062 167.487C112.753 168.547 107.546 167.271 102.329 164.19C98.6809 162.037 95.6895 159.537 91.1117 155.2C90.6924 154.802 89.1834 153.387 88.971 153.187C87.0941 151.42 85.8385 150.162 84.6898 148.82C84.1856 148.231 83.8253 147.637 83.1917 146.423C83.1444 146.333 83.152 146.319 83.1061 146.23C82.8971 145.828 82.9478 145.926 82.8492 145.738C82.3882 145.335 82.0498 144.815 81.8005 144.24C73.9442 144.473 67.7792 150.905 67.9292 154.087C68.782 172.194 85.4111 187.382 92.2248 202.979C93.7352 206.435 93.7818 210.339 94.4942 214.002C97.95 231.77 101.186 256.526 121.959 262.167C125.764 263.2 129.368 263.092 133.282 262.787C142.905 262.038 150.097 255.598 158.22 251.164C169.457 245.031 181.197 239.738 193.113 235.066C205.388 230.255 218.599 232.094 231.302 229.843C236.773 228.874 247.967 231.059 277.945 219.675C299.765 211.39 312.024 198.205 312.024 198.205C312.024 198.205 311.894 180.923 300.337 170.419C288.964 160.085 266.281 156.52 252.665 158.903V158.882C242.636 158.964 233.627 156.621 223.874 154.3C209.944 150.986 195.367 148.109 181.832 143.49C176.915 141.813 180.27 136.177 170.058 131.332C167.667 130.197 166.201 129.757 165.092 129.876C164.662 128.631 164.202 127.395 163.829 126.237C162.256 121.355 160.073 112.586 154.41 110.889C153.692 110.673 152.951 110.551 152.227 110.504Z" fill="#FF5900"/>
<path d="M115.022 46.0013C114.666 45.9916 114.303 46.0348 113.951 46.1726C112.542 46.7236 111.859 48.3167 112.41 49.7261C121.019 71.744 129.616 93.7676 138.226 115.786C138.777 117.195 140.37 117.899 141.779 117.348C143.188 116.797 143.893 115.204 143.342 113.795C134.733 91.777 126.114 69.7532 117.504 47.7353C117.091 46.6782 116.089 46.0306 115.022 46.0013Z" fill="white"/>
<path d="M54.3561 68.4351C54.0006 68.4228 53.6389 68.4713 53.2858 68.6064C51.8723 69.147 51.1611 70.725 51.7017 72.1381C54.7691 80.1574 57.8393 88.1801 60.9067 96.1994C63.1734 102.126 65.4469 108.06 67.7136 113.988C69.3137 118.172 70.9084 122.348 72.5086 126.532C73.9752 130.367 75.4513 134.213 76.9179 138.048C77.6337 139.918 78.5003 142.14 79.4654 144.128C84.4461 154.381 92.3489 164.286 103.377 168.296C105.772 169.166 108.268 169.738 110.804 169.986C114.265 170.325 117.77 170.054 121.165 169.323C125.223 168.448 129.112 166.968 132.682 164.849C133.983 164.076 134.418 162.382 133.645 161.081C132.872 159.78 131.199 159.346 129.899 160.118C126.594 162.083 122.931 163.432 119.153 164.143C116.343 164.671 113.472 164.802 110.633 164.442C102.384 163.398 95.5595 158.155 90.5755 151.748C87.7793 148.154 85.4503 144.175 83.5967 140.018C82.4164 137.369 81.4636 134.61 80.4292 131.904C79.0955 128.418 77.7591 124.924 76.4261 121.437C74.8259 117.253 73.2313 113.077 71.6311 108.893C69.4973 103.315 67.3642 97.7318 65.2304 92.1531C62.4302 84.8312 59.6182 77.5126 56.818 70.1905C56.4124 69.1304 55.4233 68.4723 54.3561 68.4351Z" fill="white"/>
<path d="M152.439 107.737C148.205 107.48 143.911 109.507 140.538 112.018C137.422 114.338 134.707 117.173 132.232 120.152C129.279 123.707 126.641 127.511 124.205 131.434C121.924 135.104 119.608 138.992 118.96 143.336C117.622 152.308 124.922 159.844 131.525 164.763C132.65 165.601 131.684 164.85 140.345 170.222C140.409 170.262 140.343 170.224 140.409 170.264C142.617 171.832 141.963 171.418 142.764 171.956C143.656 172.555 144.648 172.961 145.718 173.091C148.877 173.474 151.836 172.012 154.13 169.944C156.27 168.015 157.959 165.58 159.311 163.051C160.278 161.241 161.087 159.363 162.008 157.528C164.392 152.778 166.938 148.034 168.302 142.864C168.997 140.226 169.371 137.458 169.093 134.731C168.809 131.926 167.794 129.277 166.867 126.639C166.32 125.08 165.858 123.5 165.347 121.929C163.772 117.082 161.515 111.2 156.613 108.829C155.251 108.17 153.851 107.822 152.439 107.737ZM152.075 113.196C152.815 113.242 153.548 113.418 154.238 113.752C155.7 114.461 156.726 115.897 157.513 117.263C158.784 119.472 159.593 121.929 160.36 124.348C160.942 126.187 161.533 128.011 162.179 129.828C162.804 131.587 163.474 133.394 163.657 135.266C163.929 138.06 163.265 140.877 162.372 143.507C161.009 147.522 159.003 151.287 157.106 155.066C155.285 158.694 153.813 162.553 150.877 165.469C149.676 166.662 148.204 167.726 146.445 167.653C145.903 167.631 146.453 167.662 142.978 165.427C142.972 165.423 142.963 165.43 142.957 165.427C142.938 165.417 142.933 165.394 142.913 165.384C137.986 162.552 139.597 163.591 137.99 162.558C133.748 159.831 129.529 156.509 126.688 152.283C125.157 150.008 124.023 147.325 124.333 144.534C124.61 142.038 125.761 139.677 126.966 137.513C128.285 135.143 129.75 132.846 131.268 130.599C133.551 127.22 136.031 123.94 138.825 120.966C140.885 118.774 143.107 116.703 145.697 115.144C147.514 114.049 149.857 113.055 152.075 113.196Z" fill="white"/>
<path d="M225.542 189.381C224.483 189.515 223.537 190.257 223.23 191.35C222.821 192.807 223.678 194.323 225.136 194.732C226.727 195.179 228.493 195.54 229.887 196.488C231.594 197.647 232.384 199.696 232.927 201.603C233.406 203.285 233.66 205.036 233.505 206.784C233.039 212.043 228.895 216.392 225.649 220.227C224.527 221.552 223.423 222.87 222.267 224.166C212.291 235.346 200.747 244.944 189.772 255.098C182.506 261.82 175.644 268.954 168.494 275.798C165.65 278.52 162.718 281.142 159.76 283.739C154.265 288.566 148.564 293.848 141.351 295.855C140.34 296.137 139.362 296.504 138.354 296.797C137.321 297.097 136.338 297.298 135.314 296.926C134.83 296.749 134.309 296.49 133.966 296.091C133.471 295.514 133.46 294.667 133.517 293.95C133.609 292.779 133.98 291.646 134.373 290.546C135.165 288.328 136.253 286.212 137.049 283.996C137.615 282.418 138.079 280.812 138.611 279.223C139.316 277.118 140.103 275.043 140.902 272.972C145.866 260.09 151.661 247.522 157.684 235.104C161.222 227.811 165.024 220.634 168.087 213.12C169.543 209.551 170.8 205.91 171.855 202.203C172.269 200.748 171.427 199.235 169.971 198.821C168.516 198.406 167.004 199.249 166.589 200.704C163.385 211.958 157.842 222.23 152.76 232.707C149.682 239.053 146.71 245.455 143.813 251.887C140.354 259.562 137.049 267.315 134.202 275.241C133.379 277.529 132.712 279.869 131.889 282.155C131.511 283.207 131.047 284.233 130.605 285.259C128.753 289.567 126.267 295.535 129.834 299.666C130.231 300.125 130.668 300.533 131.162 300.886C132.032 301.508 133.032 301.963 134.052 302.277C136.881 303.15 139.565 302.082 142.272 301.293C144.295 300.701 146.24 300.068 148.137 299.131C153.839 296.312 158.636 292.036 163.378 287.871C167.226 284.491 171.009 281.038 174.68 277.467C180.961 271.359 187.043 265.073 193.475 259.122C201.534 251.667 209.905 244.524 217.729 236.817C222.807 231.814 227.586 226.568 232.114 221.062C234.533 218.12 236.876 214.991 238.107 211.343C239.51 207.191 239.187 202.794 237.765 198.692C236.928 196.279 235.628 193.998 233.59 192.399C231.559 190.804 229.054 190.13 226.612 189.444C226.248 189.342 225.895 189.335 225.542 189.381Z" fill="white"/>
<path d="M202.616 133.896C201.55 133.828 200.49 134.4 199.983 135.416C196.027 143.34 191.968 151.206 188.102 159.176C186.162 163.177 184.331 167.221 182.494 171.271C181.869 172.649 182.464 174.285 183.842 174.91C185.221 175.535 186.856 174.918 187.482 173.54C189.299 169.533 191.127 165.533 193.047 161.574C196.903 153.623 200.938 145.761 204.885 137.856C205.561 136.502 205.019 134.85 203.665 134.174C203.327 134.005 202.971 133.918 202.616 133.896Z" fill="white"/>
<path d="M218.863 135.972C217.797 135.914 216.749 136.493 216.252 137.513C210.318 149.673 204.709 161.983 198.592 174.054C197.907 175.403 198.44 177.051 199.791 177.736C201.14 178.419 202.788 177.865 203.472 176.516C209.602 164.421 215.229 152.095 221.175 139.911C221.839 138.551 221.272 136.914 219.912 136.25C219.572 136.084 219.219 135.991 218.863 135.972Z" fill="white"/>
<path d="M235.068 140.51C234.001 140.474 232.975 141.064 232.499 142.094C229.321 148.96 226.125 155.836 222.609 162.537C220.112 167.298 217.43 171.943 214.603 176.516C213.808 177.803 214.194 179.487 215.481 180.283C216.768 181.078 218.453 180.692 219.249 179.405C222.143 174.723 224.911 169.96 227.469 165.084C231.027 158.302 234.25 151.354 237.466 144.406C238.101 143.033 237.511 141.403 236.138 140.767C235.795 140.608 235.424 140.522 235.068 140.51Z" fill="white"/>
<path d="M112.945 209.567C111.483 209.555 110.023 209.629 108.578 209.759C100.884 210.453 93.3174 213.33 87.7066 218.75C86.7099 219.713 85.7626 220.727 85.0098 221.897C83.1692 224.755 82.1649 228.117 81.0922 231.316C80.5319 232.986 79.964 234.647 79.2516 236.26C78.9639 236.911 78.6324 237.62 78.1385 238.144C77.733 238.573 76.5246 238.955 75.8903 239.214C74.1155 239.938 72.3256 240.588 70.5179 241.226C68.491 241.941 66.4408 242.648 64.3741 243.239C63.7973 243.404 63.2254 243.555 62.6404 243.688C62.4102 243.741 62.167 243.8 61.9341 243.838C61.904 243.843 61.9081 243.835 61.891 243.838C61.8225 243.818 61.7451 243.795 61.6766 243.774C61.4731 243.71 61.2354 243.627 61.0347 243.559C60.4915 243.377 59.9483 243.194 59.4079 243.003C57.633 242.377 55.8589 241.748 54.0566 241.205C52.841 240.839 51.6335 240.523 50.3959 240.242C46.4029 239.334 41.3297 238.853 38.0659 241.869C37.5573 242.339 37.0605 242.891 36.7172 243.496C36.5434 243.801 36.3547 244.103 36.2463 244.438C35.8684 245.605 36.0028 246.76 36.1392 247.948C36.2804 249.178 36.5122 250.432 36.8242 251.63C38.5367 258.203 42.8639 262.944 47.8057 267.342C49.4129 268.772 51.0669 270.161 52.6649 271.602C54.0423 272.844 55.3198 274.182 56.6891 275.434C58.318 276.922 60.5388 278.885 62.7904 279.223C64.5645 279.488 66.8675 278.521 68.4841 277.917C71.6879 276.72 74.8149 275.291 77.9241 273.871C81.1429 272.401 84.4385 271.094 87.7066 269.739C95.5272 266.497 103.403 263.413 111.275 260.299C112.682 259.742 113.373 258.153 112.817 256.746C112.26 255.339 110.67 254.648 109.263 255.204C99.39 259.11 89.5308 263.062 79.7222 267.128C76.1116 268.625 72.5859 270.315 68.9766 271.816C67.5231 272.42 66.0544 273.032 64.5454 273.486C64.1988 273.59 63.8453 273.64 63.4966 273.721C63.3432 273.648 63.1692 273.573 63.0253 273.486C62.5938 273.225 62.1794 272.921 61.7841 272.608C60.7731 271.807 59.8428 270.911 58.9153 270.018C57.5179 268.671 56.1151 267.338 54.6553 266.057C52.0847 263.802 49.4572 261.606 47.1421 259.079C44.83 256.557 42.9926 253.594 42.133 250.26C41.8889 249.313 41.7144 248.321 41.5979 247.327C41.565 247.047 41.5146 246.773 41.4909 246.493C41.4836 246.408 41.4683 246.321 41.4694 246.236C41.5261 246.162 41.5782 246.091 41.6407 246.021C41.7693 245.879 41.9278 245.76 42.0902 245.657C42.7567 245.236 43.5865 245.103 44.3592 245.058C47.4664 244.877 50.6522 245.86 53.5641 246.792C54.5978 247.123 55.6226 247.481 56.6466 247.841C57.6543 248.195 58.6701 248.559 59.686 248.89C60.2223 249.065 60.771 249.254 61.3341 249.318C62.1725 249.413 63.048 249.225 63.8604 249.039C65.1742 248.741 66.4709 248.351 67.7566 247.948C71.6838 246.717 75.615 245.361 79.3797 243.688C80.0791 243.377 80.7847 243.048 81.3923 242.575C83.2082 241.16 84.1905 238.858 84.9885 236.774C86.0366 234.038 86.8312 231.197 87.8998 228.468C88.5259 226.87 89.18 225.221 90.3185 223.909C94.695 218.863 101.337 216.152 107.85 215.346C120.166 213.821 133.826 218.314 141.544 228.297C142.47 229.494 144.2 229.715 145.397 228.789C146.593 227.863 146.815 226.133 145.889 224.936C144.501 223.145 143.01 221.472 141.308 219.97C133.641 213.206 123.179 209.651 112.945 209.567Z" fill="white"/>
<path d="M275.141 144.277C273.709 144.338 272.274 144.507 270.859 144.812C269.028 145.208 267.241 145.826 265.551 146.632C254.275 152.013 248.88 165.03 247.312 176.751C247.022 178.919 246.845 181.093 246.798 183.279C246.736 186.208 246.893 189.132 247.291 192.035C247.764 195.492 248.619 198.857 249.859 202.117C250.398 203.531 251.977 204.24 253.392 203.701C254.806 203.162 255.515 201.562 254.976 200.148C252.23 192.953 251.734 185.053 252.749 177.457C253.391 172.656 254.666 167.907 256.795 163.543C259.895 157.191 264.868 151.729 272.015 150.186C274.304 149.692 276.627 149.655 278.951 149.864C280.458 150 281.791 148.888 281.926 147.381C282.062 145.874 280.95 144.541 279.443 144.406C278.005 144.277 276.572 144.216 275.141 144.277Z" fill="white"/>
<path d="M171.021 256.939C170.32 256.974 169.643 257.276 169.137 257.838C168.605 258.427 168.667 258.343 168.601 258.416C168.863 258.416 168.263 258.799 168.087 258.994C167.912 259.188 167.377 259.788 167.552 259.593C168.079 259.009 167.565 259.587 167.039 260.171C166.025 261.295 166.108 263.032 167.231 264.046C168.355 265.059 170.092 264.955 171.105 263.831C171.628 263.252 171.553 263.327 171.619 263.253C171.737 263.019 172.33 262.481 172.155 262.676C172.33 262.481 172.844 261.882 172.669 262.076C172.142 262.66 172.677 262.082 173.204 261.498C174.217 260.375 174.135 258.637 173.011 257.624C172.449 257.117 171.721 256.902 171.021 256.939Z" fill="white"/>
<path d="M217.985 199.292C216.472 199.263 215.21 200.454 215.181 201.968C215.152 203.48 216.365 204.743 217.879 204.772C218.462 204.781 218.983 204.839 219.505 205.114C219.815 205.277 220.125 205.461 220.404 205.671C221.646 206.602 221.637 207.664 221.11 209.053C220.98 209.398 220.808 209.796 220.64 210.123C219.78 211.795 218.583 213.294 217.429 214.768C217.022 215.289 216.643 215.815 216.23 216.331C215.685 217.014 215.08 217.607 214.432 218.193C213.797 218.768 213.142 219.31 212.527 219.906C211.424 220.974 210.372 222.087 209.273 223.159C206.915 225.462 204.478 227.696 201.974 229.838C198.509 232.801 194.851 235.478 191.27 238.294C186.52 242.029 181.985 246.026 177.292 249.832C176.117 250.785 175.933 252.51 176.885 253.685C177.838 254.86 179.563 255.045 180.739 254.092C185.41 250.303 189.924 246.314 194.653 242.596C197.753 240.158 200.95 237.841 203.985 235.318C208.204 231.812 212.178 228.06 216.037 224.166C217.234 222.959 218.6 221.941 219.74 220.676C220.624 219.697 221.417 218.595 222.224 217.551C224.235 214.953 226.324 212.084 226.826 208.753C227.625 203.455 223.01 199.395 217.985 199.292Z" fill="white"/>
<path d="M159.718 268.263C159.016 268.251 158.314 268.507 157.77 269.033C154.223 272.464 150.44 275.762 145.91 277.831C143.394 278.981 140.69 279.611 138.14 280.678C135.939 281.599 133.965 282.82 132.275 284.51C131.206 285.581 131.225 287.316 132.296 288.384C133.368 289.453 135.102 289.456 136.17 288.384C139.382 285.153 144.21 284.641 148.201 282.819C153.305 280.488 157.58 276.84 161.58 272.972C162.668 271.92 162.696 270.185 161.644 269.098C161.118 268.554 160.419 268.274 159.718 268.263Z" fill="white"/>
<path d="M83.4897 146.675C83.1355 146.644 82.7581 146.665 82.3978 146.782C80.1345 148.136 81.0065 147.592 80.1503 148.152C79.5256 148.561 81.4121 147.354 82.0128 146.911C82.121 146.831 81.7546 146.995 81.6278 147.039C81.3833 147.123 81.1168 147.239 80.8784 147.339C80.166 147.635 79.4817 148.023 78.8878 148.516C78.7639 148.618 78.6625 148.706 78.5453 148.816C78.4248 148.928 78.0357 149.256 78.1809 149.179C79.6112 148.428 78.1857 149.172 77.8816 149.501C76.8548 150.612 76.9191 152.349 78.0316 153.375C79.1433 154.402 80.8791 154.337 81.9059 153.226C82.9992 152.62 82.5334 152.887 82.9978 152.604C83.267 152.44 82.4224 152.876 82.1197 152.968C82.0532 152.989 82.219 152.887 82.2697 152.84C82.3361 152.778 82.4307 152.702 82.5053 152.648C82.7745 152.45 83.1136 152.326 83.4253 152.219C83.5273 152.184 83.8157 152.075 83.7253 152.134C83.1328 152.521 83.7226 152.124 84.089 152.005C85.5289 151.539 86.3317 149.999 85.8659 148.559C85.5166 147.479 84.5535 146.768 83.4897 146.675Z" fill="white"/>
<path d="M74.7137 154.082C73.2012 154.038 71.9312 155.245 71.8881 156.757C71.8675 157.456 71.8435 158.156 71.8237 158.855C71.7798 160.367 72.9868 161.615 74.4993 161.659C76.0118 161.703 77.2598 160.517 77.3037 159.005C77.3235 158.306 77.3475 157.605 77.3681 156.907C77.4112 155.394 76.2262 154.125 74.7137 154.082Z" fill="white"/>
<path d="M77.7959 165.32C77.4397 165.328 77.0917 165.421 76.7464 165.577C75.3675 166.199 74.7545 167.815 75.3764 169.194C75.6587 169.82 75.9292 170.452 76.2115 171.078C76.8334 172.458 78.4713 173.07 79.8509 172.448C81.2304 171.826 81.8428 170.21 81.2209 168.831C80.9386 168.205 80.6468 167.572 80.3646 166.947C79.8981 165.912 78.8631 165.295 77.7959 165.32Z" fill="white"/>
<path d="M84.2605 174.846C83.5611 174.796 82.8411 175.013 82.2698 175.509C81.1273 176.502 80.9992 178.22 81.9917 179.362C82.0869 179.5 82.0712 179.457 82.0986 179.491C82.1568 179.563 82.1815 179.597 82.2911 179.791C82.3294 179.857 82.2514 179.706 82.1842 179.598C82.2116 179.629 82.2418 179.652 82.2698 179.683C82.3096 179.728 82.3582 179.767 82.3979 179.812C82.2493 179.674 82.3931 179.831 82.5911 180.24C83.2494 181.602 84.8893 182.161 86.2518 181.503C87.6135 180.844 88.1944 179.205 87.5354 177.842C86.8374 176.805 87.0566 177.218 86.8292 176.815C86.6963 176.579 87.1457 177.251 87.343 177.436C87.4238 177.512 87.2457 177.234 87.1929 177.136C87.1299 177.018 87.0738 176.906 87.0005 176.794C86.8504 176.562 86.671 176.355 86.4867 176.151C86.4278 176.086 86.3524 176.024 86.2942 175.959C86.2689 175.931 86.2093 175.842 86.2298 175.873C86.6607 176.533 86.236 175.872 86.1442 175.766C85.6483 175.195 84.9598 174.895 84.2605 174.846Z" fill="white"/>
<path d="M90.8756 184.714C90.5194 184.726 90.1481 184.812 89.8049 184.971C88.4315 185.607 87.8417 187.237 88.4781 188.61C88.6288 188.937 88.7761 189.246 88.9274 189.573C89.5631 190.947 91.1934 191.558 92.5662 190.922C93.9396 190.286 94.5294 188.656 93.8937 187.282C93.7423 186.956 93.595 186.625 93.4443 186.298C92.9669 185.268 91.9421 184.678 90.8756 184.714Z" fill="white"/>
<path d="M95.7987 194.475C95.4432 194.491 95.0911 194.591 94.7499 194.753C93.3834 195.404 92.7929 197.027 93.4443 198.392C93.595 198.71 93.7423 199.038 93.8937 199.356C94.5444 200.722 96.1878 201.291 97.5543 200.64C98.9202 199.989 99.5107 198.367 98.8599 197.001C98.7086 196.683 98.54 196.355 98.3887 196.038C97.9009 195.013 96.8652 194.428 95.7987 194.475Z" fill="white"/>
<path d="M99.309 203.937C97.8007 204.056 96.6636 205.382 96.7827 206.891C96.8136 207.272 96.8602 207.644 96.8903 208.026C97.0095 209.534 98.3144 210.649 99.8228 210.53C101.331 210.41 102.468 209.106 102.349 207.597C102.318 207.216 102.272 206.822 102.242 206.441C102.122 204.933 100.817 203.817 99.309 203.937Z" fill="white"/>
<path d="M85.1763 149.192C87.1265 150.141 88.4198 151.803 90.2425 152.961C95.3698 156.218 101.381 158.028 107.465 157.399C108.949 157.245 113.213 156.24 114.017 154.876C114.846 153.468 111.546 150.894 110.809 149.86C108.715 146.924 107.19 142.848 108.344 139.192C111.421 129.442 122.312 122.929 129.822 116.913C130.924 116.029 137.876 111.008 139.076 111.685C142.894 113.844 136.51 118.678 135.293 120.348C131.472 125.591 128.499 131.612 124.925 137.034C123.531 139.15 121.577 141.242 121.042 143.812C119.918 149.207 124.691 153.61 128.235 156.943C129.067 157.725 132.123 159.968 132.051 161.259C131.869 164.52 122.285 167.241 119.691 167.489C106.179 168.781 98.7071 163.231 88.8575 154.997" fill="white"/>
<path d="M109.969 58.2243C109.614 58.2006 109.235 58.2504 108.878 58.3742C107.448 58.8694 106.691 60.4121 107.187 61.8419C110.602 71.7028 114.261 81.491 117.526 91.4044C117.999 92.8415 119.556 93.6114 120.993 93.1381C122.431 92.6648 123.222 91.1078 122.749 89.6699C119.475 79.7306 115.791 69.9524 112.367 60.0653C111.995 58.9928 111.035 58.2956 109.969 58.2243Z" fill="white"/>
<path d="M125.018 99.2175C124.668 99.1531 124.296 99.1565 123.927 99.2387C122.449 99.5661 121.522 101.036 121.85 102.514C121.926 102.857 121.988 103.199 122.064 103.541C122.392 105.019 123.862 105.946 125.339 105.618C126.817 105.29 127.743 103.82 127.415 102.342C127.339 102 127.278 101.658 127.202 101.315C126.956 100.207 126.068 99.4106 125.018 99.2175Z" fill="white"/>
<path d="M133.816 230.544C133.46 230.545 133.094 230.611 132.746 230.759C125.081 234.002 117.389 237.211 109.798 240.627C106.239 242.228 102.722 243.909 99.1805 245.551C94.7616 247.599 90.4454 249.859 86.0162 251.887C83.083 253.23 80.0998 254.447 77.068 255.547C75.6459 256.063 74.9041 257.635 75.4199 259.058C75.9357 260.48 77.5078 261.222 78.9305 260.706C82.1021 259.555 85.2175 258.279 88.2849 256.874C92.958 254.735 97.5153 252.356 102.178 250.196C105.465 248.672 108.742 247.123 112.046 245.636C119.599 242.237 127.259 239.038 134.887 235.811C136.28 235.221 136.932 233.608 136.342 232.214C135.9 231.169 134.884 230.544 133.816 230.544Z" fill="white"/>
<path d="M65.4016 261.049C65.0474 261.082 64.6857 261.169 64.3528 261.348C63.5692 261.769 62.8033 262.19 62.019 262.611C60.6867 263.328 60.1681 265.003 60.8847 266.336C61.6012 267.669 63.2767 268.166 64.6097 267.449C65.3933 267.027 66.1804 266.608 66.964 266.186C68.297 265.47 68.7937 263.794 68.0772 262.461C67.5401 261.462 66.4647 260.949 65.4016 261.049Z" fill="white"/>
<path d="M115.428 223.502C113.561 223.417 111.672 223.556 109.82 223.994C107.93 224.442 106.171 225.168 104.447 226.049C103.099 226.739 102.559 228.405 103.248 229.753C103.937 231.1 105.604 231.619 106.951 230.93C108.481 230.146 110.029 229.496 111.725 229.174C116.083 228.348 120.301 229.842 124.44 231.016C126.635 231.638 129.123 231.955 130.648 233.82C131.61 234.988 133.333 235.167 134.501 234.205C135.669 233.243 135.848 231.52 134.887 230.352C133.345 228.49 131.368 227.335 129.085 226.606C128.049 226.275 126.985 226.046 125.939 225.749C124.285 225.282 122.644 224.74 120.972 224.337C119.139 223.894 117.295 223.588 115.428 223.502Z" fill="white"/>
<path d="M303.139 148.344C301.641 148.133 300.248 149.179 300.036 150.678C299.824 152.176 300.871 153.57 302.369 153.782C305.562 154.228 308.352 156.071 310.739 158.149C314.231 161.188 317.233 165.034 319.237 169.216C319.948 170.699 320.712 172.21 321.228 173.776C321.421 174.361 321.663 175.08 321.506 175.702C321.177 175.94 320.867 176.196 320.522 176.408C319.697 176.914 318.778 177.298 317.889 177.671C316.554 178.232 315.173 178.719 313.864 179.341C311.399 180.513 309.019 181.826 306.564 183.023C291.386 190.422 275.467 196.076 259.214 200.597C257.756 201.003 256.903 202.522 257.309 203.979C257.714 205.438 259.212 206.291 260.669 205.884C277.643 201.163 294.262 195.214 310.076 187.411C312.359 186.284 314.569 184.982 316.904 183.964C319.776 182.714 322.977 181.805 325.338 179.641C326.167 178.88 326.696 177.845 326.922 176.751C327.571 173.61 325.847 170.559 324.61 167.803C322.089 162.184 318.124 157.044 313.329 153.182C310.349 150.783 306.962 148.89 303.139 148.344Z" fill="white"/>
</g>
<defs>
<clipPath id="clip0_341_4901">
<rect width="363" height="349" fill="white"/>
</clipPath>
</defs>
</svg>
