<svg width="373" height="372" viewBox="0 0 373 372" fill="none" xmlns="http://www.w3.org/2000/svg">
<g clip-path="url(#clip0_304_5317)">
<mask id="mask0_304_5317" style="mask-type:luminance" maskUnits="userSpaceOnUse" x="-9" y="-115" width="390" height="844">
<path d="M381 -115H-9V729H381V-115Z" fill="white"/>
</mask>
<g mask="url(#mask0_304_5317)">
<path d="M-83.8376 122.441C-83.8376 122.441 -60.7068 172.338 12.9142 197.095C36.4258 205.001 65.0869 210.344 99.789 210.678C243.151 212.06 229.532 78.8161 313.571 71.0461C431.433 60.1491 409.707 157.563 409.707 157.563" stroke="#ED835E" stroke-width="5" stroke-miterlimit="10" stroke-linejoin="round" stroke-dasharray="20 20"/>
<path d="M457.5 162.438L453.031 169.188L466.281 177.938C466.401 177.572 466.527 177.211 466.75 176.875L469.938 172.062C470.16 171.726 470.429 171.441 470.719 171.188L457.5 162.438ZM473.688 171.219C472.467 171.23 471.287 171.843 470.562 172.938L467.812 177.094C466.653 178.846 467.123 181.216 468.875 182.375L473.031 185.094C474.783 186.253 477.153 185.783 478.312 184.031L481.062 179.875C482.222 178.123 481.752 175.753 480 174.594L475.844 171.844C475.187 171.409 474.42 171.212 473.688 171.219ZM405.438 172.781C403.513 172.781 401.573 173.047 399.75 173.531C398.521 174.037 397.288 174.553 396 175.25C395.608 175.462 393.933 176.339 393.688 176.469C391.27 177.741 389.942 178.668 388.969 179.906C388.517 180.481 387.952 181.485 387.5 182.188C386.165 185.528 385.912 189.329 386.344 192.844C386.513 194.221 386.344 195.76 386.625 197.156C389.597 199.65 393.955 200.878 400.312 201.375C401.581 201.474 407.195 201.751 408.594 201.875C408.623 201.878 408.627 201.904 408.656 201.906C408.914 201.93 409.165 202.005 409.375 202.125C411.052 202.337 412.621 202.919 414.406 203.812C415.883 204.552 417.059 205.955 418.781 205.312C421.368 204.347 422.463 197.484 424.938 195.156C427.123 193.1 430.46 190.966 433.438 190.344C434.63 190.094 436.988 190.506 437.969 189.656C440.345 187.598 435.882 186.561 432.969 186.188C431.642 186.058 430.316 185.964 428.969 185.906C426.176 185.954 422.435 187.002 420.188 188.469C420.209 188.439 420.196 188.405 420.219 188.375C420.754 187.681 421.359 186.828 422.031 186.281C422.187 186.155 422.801 185.862 422.812 185.625C422.839 185.103 422.316 184.468 421.812 183.875C421.835 183.867 421.853 183.852 421.875 183.844C421.177 182.821 420.584 181.681 420.031 180.812C418.08 177.749 414.602 174.592 411.062 173.562C409.266 173.04 407.362 172.781 405.438 172.781ZM482.594 179.031C482.474 179.397 482.316 179.758 482.094 180.094L478.906 184.906C478.684 185.242 478.414 185.528 478.125 185.781L492.438 195.25L496.906 188.531L482.594 179.031ZM449.312 182.031C449.061 182.2 448.842 184.463 448.719 184.844C448.069 186.845 446.979 188.768 445.844 190.531C439.129 200.959 432.888 211.024 429.781 223.156C428.916 226.536 428.794 231.446 430.438 234.594C430.469 234.654 430.59 234.969 430.656 235.125C431.278 234.729 431.976 234.22 432.906 233.5C432.96 233.459 432.997 233.419 433.094 233.344C434.112 232.554 434.588 232.221 435.188 231.812C438.789 229.363 442.192 226.547 445.531 223.344C446.033 222.606 446.478 221.868 446.719 221.125C447.163 219.751 446.878 218.134 446.906 216.719C446.979 213.075 446.996 209.053 447.938 205.531C448.839 202.158 450.662 199.231 452.406 196.25C455.95 196.121 459.993 200.268 462.25 202.594C462.332 202.678 462.54 202.977 462.656 203.125C463.256 202.246 463.802 201.408 464.281 200.562C464.547 200.094 464.759 199.626 465.094 198.781C460.978 195.197 457.856 190.195 454.25 186.094C453.67 185.435 450.245 181.406 449.312 182.031ZM484.344 204.25L480.656 204.406L480.25 209.438L483.188 210.75L486.438 207L484.344 204.25ZM479.438 206.844C474.007 206.054 468.655 208.95 466.375 214.031C463.576 220.271 466.354 227.607 472.594 230.406C478.833 233.206 486.169 230.427 488.969 224.188C491.272 219.055 489.821 213.046 485.531 209.531L484.469 210.781C488.191 213.83 489.467 219.046 487.469 223.5C485.039 228.915 478.696 231.336 473.281 228.906C467.867 226.477 465.446 220.134 467.875 214.719C469.853 210.309 474.507 207.783 479.219 208.469L479.438 206.844ZM403.312 212.094C402.253 212.19 401.498 213.128 401.594 214.188C401.69 215.247 402.628 216.033 403.688 215.938C404.747 215.842 405.502 214.903 405.406 213.844C405.31 212.784 404.372 211.998 403.312 212.094ZM373.719 214.781C372.659 214.877 371.873 215.815 371.969 216.875C372.065 217.934 373.003 218.721 374.062 218.625C375.122 218.529 375.908 217.591 375.812 216.531C375.717 215.472 374.778 214.685 373.719 214.781ZM400.969 215.375C399.909 215.471 399.123 216.409 399.219 217.469C399.315 218.528 400.253 219.315 401.312 219.219C402.372 219.123 403.158 218.185 403.062 217.125C402.967 216.066 402.028 215.279 400.969 215.375ZM376.625 217.594C375.566 217.69 374.779 218.628 374.875 219.688C374.971 220.747 375.909 221.533 376.969 221.438C378.028 221.342 378.815 220.403 378.719 219.344C378.623 218.284 377.685 217.498 376.625 217.594ZM397.75 218.531C396.691 218.627 395.904 219.566 396 220.625C396.096 221.685 397.034 222.471 398.094 222.375C399.153 222.279 399.94 221.341 399.844 220.281C399.748 219.222 398.809 218.435 397.75 218.531ZM380.344 220.094C379.284 220.19 378.529 221.128 378.625 222.188C378.721 223.247 379.659 224.033 380.719 223.938C381.778 223.842 382.533 222.903 382.438 221.844C382.342 220.784 381.403 219.998 380.344 220.094ZM393.594 220.5C392.534 220.596 391.748 221.534 391.844 222.594C391.94 223.653 392.878 224.44 393.938 224.344C394.997 224.248 395.783 223.309 395.688 222.25C395.592 221.19 394.653 220.404 393.594 220.5ZM389.312 221.062C388.253 221.158 387.467 222.097 387.562 223.156C387.658 224.216 388.597 225.002 389.656 224.906C390.716 224.81 391.502 223.872 391.406 222.812C391.31 221.753 390.372 220.967 389.312 221.062ZM384.812 221.312C383.753 221.408 382.967 222.347 383.062 223.406C383.158 224.466 384.097 225.252 385.156 225.156C386.216 225.06 387.002 224.091 386.906 223.031C386.81 221.972 385.872 221.217 384.812 221.312ZM409.562 229.938C408.358 229.795 407.192 230.013 406.094 230.438C404.263 231.146 402.636 232.471 401.344 233.875C399.931 235.41 399.14 237.374 398.531 239.344C397.96 241.191 397.576 243.117 397.312 245.031C397.047 246.953 396.908 248.903 396.969 250.844C396.996 251.705 397.055 252.554 397.188 253.406C396.825 253.313 396.464 253.235 396.094 253.125C395.698 253.501 395.468 254.033 395.281 254.875C395.216 255.17 395.108 255.931 395 256.531C394.843 260.479 393.882 270.853 395.812 275.625C402.725 277.568 407.652 276.967 416.562 273.688C422.06 271.664 426.255 269.674 430.344 267.062C433.153 265.269 434.427 264.436 435.875 263.281C435.958 263.215 436.013 263.129 436.094 263.062C434.953 257.819 427.546 249.943 424.844 246.969C424.728 246.841 424.504 246.517 424.344 246.312C424.062 246.056 423.845 245.861 423.719 245.75C422.605 244.775 421.853 244.403 420.844 244.5C420.563 244.896 420.226 245.275 419.906 245.656C419.329 245.097 418.7 244.597 418.062 244.094C416.7 243.019 415.256 241.927 414.406 240.375C414.211 240.019 414.041 239.643 413.938 239.25C413.779 238.649 413.747 237.994 413.75 237.375C413.755 236.5 413.811 235.625 413.781 234.75C413.729 233.199 413.369 231.689 412 230.781C411.631 230.536 411.234 230.353 410.812 230.219C410.411 230.09 409.981 229.987 409.562 229.938ZM459.281 230.469C458.581 230.365 457.863 230.543 457.25 231L445.562 239.688C444.337 240.601 444.087 242.337 445 243.562L463.031 267.75C463.944 268.976 465.681 269.226 466.906 268.312L478.562 259.625C479.788 258.712 480.038 256.976 479.125 255.75L461.094 231.562C460.637 230.95 459.982 230.573 459.281 230.469ZM408.625 231.125C409.225 231.104 409.821 231.179 410.438 231.375C410.754 231.475 411.065 231.598 411.344 231.781C412.23 232.365 412.52 233.403 412.594 234.406C412.737 236.335 412.268 238.343 413.031 240.188C413.789 242.019 415.268 243.353 416.781 244.562C417.588 245.207 418.389 245.845 419.125 246.562C415.19 250.723 409.127 253.757 403.562 254.125C401.923 254.234 400.24 254.075 398.5 253.719C398.331 252.838 398.256 251.926 398.219 251.031C398.137 249.078 398.265 247.123 398.531 245.188C398.785 243.34 399.17 241.503 399.719 239.719C399.989 238.839 400.302 237.961 400.688 237.125C401.031 236.38 401.423 235.65 401.969 235.031C403.247 233.58 404.938 232.082 406.844 231.438C407.415 231.244 408.025 231.146 408.625 231.125ZM459.125 231.281C459.526 231.34 459.925 231.553 460.188 231.906C460.713 232.612 460.549 233.599 459.844 234.125C459.138 234.651 458.151 234.518 457.625 233.812C457.099 233.107 457.232 232.12 457.938 231.594C458.29 231.331 458.724 231.223 459.125 231.281ZM462.219 235.469C462.621 235.529 463.018 235.741 463.281 236.094C463.807 236.799 463.674 237.787 462.969 238.312C462.263 238.838 461.245 238.674 460.719 237.969C460.193 237.263 460.357 236.276 461.062 235.75C461.415 235.487 461.816 235.408 462.219 235.469ZM457.344 235.594C457.748 235.653 458.143 235.866 458.406 236.219C458.932 236.924 458.768 237.912 458.062 238.438C457.357 238.963 456.37 238.831 455.844 238.125C455.318 237.419 455.451 236.401 456.156 235.875C456.509 235.612 456.939 235.535 457.344 235.594ZM364.562 245.875L348.031 250.5C348.229 250.83 348.422 251.174 348.531 251.562L350.094 257.125C350.203 257.513 350.216 257.897 350.219 258.281L366.75 253.656L364.562 245.875ZM344.5 249.469C344.01 249.407 343.474 249.452 342.969 249.594L338.188 250.938C337.429 251.151 336.786 251.597 336.312 252.156C335.524 253.088 335.207 254.361 335.562 255.625L336.906 260.438C337.475 262.46 339.572 263.631 341.594 263.062L346.375 261.719C348.397 261.15 349.6 259.053 349.031 257.031L347.656 252.219C347.23 250.702 345.971 249.655 344.5 249.469ZM334.344 254.375L319.062 258.656L321.25 266.438L336.531 262.156C336.333 261.827 336.172 261.451 336.062 261.062L334.5 255.531C334.391 255.143 334.347 254.76 334.344 254.375ZM368.281 265.656L366 268.562L369.5 272.125L372.438 270.781L371.719 265.875L368.281 265.656ZM377.094 268.188C375.773 267.978 374.397 267.981 373.031 268.219L373.312 269.812C378.052 268.987 382.839 271.452 384.906 275.875C387.419 281.252 385.095 287.644 379.719 290.156C374.342 292.669 367.95 290.345 365.438 284.969C363.391 280.59 364.497 275.432 368.094 272.312L367.031 271.062C362.886 274.658 361.58 280.611 363.938 285.656C366.833 291.852 374.211 294.52 380.406 291.625C386.602 288.73 389.27 281.383 386.375 275.188C384.589 271.365 381.056 268.816 377.094 268.188ZM334.875 276.594C333.997 276.602 328.699 276.542 328.562 277.656C328.526 277.956 330.105 279.626 330.312 279.969C331.404 281.768 332.157 283.832 332.75 285.844C336.259 297.739 339.75 309.034 346.906 319.312C348.9 322.176 352.575 325.469 356.031 326.281C356.098 326.297 356.401 326.417 356.562 326.469C356.669 325.739 356.75 324.862 356.812 323.688C356.816 323.62 356.806 323.56 356.812 323.438C356.88 322.15 356.917 321.596 357 320.875C357.498 316.548 357.619 312.152 357.375 307.531C357.144 306.67 356.843 305.824 356.438 305.156C355.688 303.922 354.303 303.102 353.25 302.156C350.538 299.721 347.52 297.075 345.469 294.062C343.504 291.176 342.461 287.894 341.344 284.625C343.561 281.858 349.328 281.502 352.562 281.312C352.68 281.306 353.062 281.335 353.25 281.344C352.976 280.316 352.702 279.353 352.375 278.438C352.194 277.93 351.952 277.462 351.531 276.656C346.129 277.431 340.336 276.543 334.875 276.594ZM504.938 277.031L500.469 283.781L513.719 292.531C513.839 292.166 513.965 291.805 514.188 291.469L517.375 286.656C517.598 286.32 517.867 286.066 518.156 285.812L504.938 277.031ZM521.125 285.844C519.904 285.855 518.725 286.436 518 287.531L515.25 291.688C514.091 293.439 514.561 295.809 516.312 296.969L520.469 299.719C522.221 300.878 524.591 300.408 525.75 298.656L528.5 294.5C529.659 292.748 529.158 290.378 527.406 289.219L523.281 286.469C522.624 286.034 521.858 285.837 521.125 285.844ZM452.875 287.406C450.95 287.406 449.01 287.641 447.188 288.125C445.959 288.631 444.726 289.178 443.438 289.875C443.045 290.087 441.371 290.964 441.125 291.094C438.708 292.366 437.379 293.293 436.406 294.531C435.955 295.106 435.39 296.079 434.938 296.781C433.602 300.122 433.349 303.923 433.781 307.438C433.95 308.815 433.782 310.385 434.062 311.781C437.034 314.275 441.392 315.472 447.75 315.969C449.019 316.068 454.633 316.376 456.031 316.5C456.061 316.503 456.064 316.497 456.094 316.5C456.351 316.523 456.571 316.598 456.781 316.719C458.459 316.931 460.059 317.513 461.844 318.406C463.32 319.145 464.497 320.58 466.219 319.938C468.805 318.972 469.9 312.078 472.375 309.75C474.561 307.694 477.897 305.56 480.875 304.938C482.067 304.688 484.426 305.13 485.406 304.281C487.782 302.223 483.32 301.186 480.406 300.812C479.08 300.683 477.754 300.557 476.406 300.5C473.614 300.548 469.872 301.627 467.625 303.094C467.647 303.064 467.633 303.03 467.656 303C468.191 302.306 468.796 301.453 469.469 300.906C469.624 300.78 470.238 300.487 470.25 300.25C470.276 299.728 469.754 299.062 469.25 298.469C469.273 298.461 469.29 298.446 469.312 298.438C468.615 297.415 468.022 296.274 467.469 295.406C465.518 292.343 462.04 289.217 458.5 288.188C456.704 287.665 454.8 287.406 452.875 287.406ZM326.312 289.875C325.168 289.401 322.671 291.279 321.031 292.75C320.067 293.67 319.111 294.611 318.188 295.594C316.4 297.739 314.764 301.278 314.406 303.938C314.398 303.901 314.383 303.849 314.375 303.812C314.199 302.954 313.912 301.96 313.938 301.094C313.943 300.894 314.141 300.258 313.969 300.094C313.59 299.733 312.747 299.693 311.969 299.688C311.977 299.665 311.992 299.647 312 299.625C310.77 299.485 309.519 299.18 308.5 299.031C304.906 298.507 300.28 299.086 297.188 301.094C294.049 303.131 291.398 306.233 289.75 309.625C289.33 310.886 288.939 312.163 288.625 313.594C288.529 314.029 288.094 315.886 288.031 316.156C287.415 318.818 287.229 320.423 287.531 321.969C287.671 322.686 288.045 323.761 288.281 324.562C289.938 327.755 292.682 330.406 295.625 332.375C296.778 333.147 297.822 334.301 299.062 335C302.892 334.379 306.658 331.895 311.188 327.406C312.091 326.511 315.992 322.415 317 321.438C317.021 321.417 317.01 321.427 317.031 321.406C317.217 321.227 317.459 321.112 317.688 321.031C318.944 319.9 320.377 319.08 322.219 318.312C323.743 317.677 325.612 317.723 326.25 316C327.209 313.411 322.709 308.082 322.562 304.688C322.433 301.689 322.995 297.755 324.469 295.094C325.059 294.028 326.94 292.547 326.938 291.25C326.936 290.464 326.694 290.033 326.312 289.875ZM530.031 293.656C529.911 294.022 529.754 294.383 529.531 294.719L526.344 299.531C526.121 299.867 525.852 300.153 525.562 300.406L539.875 309.875L544.344 303.125L530.031 293.656ZM496.75 296.625C496.499 296.793 496.28 299.088 496.156 299.469C495.507 301.47 494.417 303.393 493.281 305.156C486.567 315.584 480.294 325.618 477.188 337.75C476.322 341.13 476.232 346.04 477.875 349.188C477.907 349.248 478.027 349.563 478.094 349.719C478.716 349.322 479.414 348.814 480.344 348.094C480.397 348.053 480.435 348.012 480.531 347.938C481.55 347.148 482.025 346.814 482.625 346.406C486.227 343.957 489.63 341.141 492.969 337.938C493.47 337.2 493.916 336.462 494.156 335.719C494.601 334.345 494.316 332.759 494.344 331.344C494.416 327.7 494.434 323.678 495.375 320.156C496.277 316.783 498.099 313.825 499.844 310.844C503.387 310.714 507.399 314.893 509.656 317.219C509.738 317.303 509.978 317.571 510.094 317.719C510.694 316.84 511.239 316.002 511.719 315.156C511.985 314.688 512.197 314.22 512.531 313.375C508.416 309.791 505.293 304.82 501.688 300.719C501.108 300.059 497.683 296 496.75 296.625ZM373.781 301.094C372.257 300.984 370.922 302.132 370.812 303.656L369.75 318.156C369.641 319.681 370.819 321.016 372.344 321.125L402.406 323.281C403.931 323.391 405.266 322.243 405.375 320.719L406.438 306.219C406.547 304.694 405.368 303.359 403.844 303.25L373.781 301.094ZM373.406 302.031C374.284 302.094 374.969 302.841 374.906 303.719C374.843 304.597 374.065 305.25 373.188 305.188C372.31 305.125 371.656 304.378 371.719 303.5C371.782 302.622 372.528 301.968 373.406 302.031ZM378.594 302.406C379.472 302.469 380.125 303.216 380.062 304.094C380 304.972 379.253 305.625 378.375 305.562C377.497 305.499 376.843 304.753 376.906 303.875C376.969 302.997 377.716 302.343 378.594 302.406ZM375.531 306.188C376.409 306.25 377.063 306.997 377 307.875C376.937 308.753 376.159 309.407 375.281 309.344C374.404 309.281 373.75 308.534 373.812 307.656C373.875 306.778 374.653 306.125 375.531 306.188ZM531.781 318.875L528.094 319.031L527.688 324.031L530.625 325.344L533.875 321.625L531.781 318.875ZM526.875 321.469C521.445 320.679 516.092 323.575 513.812 328.656C511.013 334.896 513.792 342.232 520.031 345.031C526.271 347.831 533.607 345.021 536.406 338.781C538.709 333.648 537.259 327.671 532.969 324.156L531.906 325.406C535.628 328.455 536.905 333.671 534.906 338.125C532.477 343.54 526.133 345.961 520.719 343.531C515.304 341.102 512.883 334.727 515.312 329.312C517.291 324.903 521.945 322.408 526.656 323.094L526.875 321.469ZM450.75 326.688C449.691 326.783 448.935 327.722 449.031 328.781C449.127 329.841 450.034 330.627 451.094 330.531C452.153 330.435 452.94 329.497 452.844 328.438C452.748 327.378 451.81 326.592 450.75 326.688ZM421.156 329.375C420.097 329.471 419.31 330.409 419.406 331.469C419.502 332.528 420.44 333.315 421.5 333.219C422.559 333.123 423.346 332.185 423.25 331.125C423.154 330.066 422.216 329.279 421.156 329.375ZM448.406 330C447.347 330.096 446.56 331.034 446.656 332.094C446.752 333.153 447.691 333.94 448.75 333.844C449.809 333.748 450.596 332.81 450.5 331.75C450.404 330.691 449.466 329.904 448.406 330ZM322.531 331.344C322.044 331.424 321.591 331.693 321.281 332.125C320.662 332.99 320.854 334.193 321.719 334.812C322.584 335.432 323.787 335.24 324.406 334.375C325.026 333.51 324.834 332.307 323.969 331.688C323.536 331.378 323.018 331.263 322.531 331.344ZM424.062 332.188C423.003 332.283 422.217 333.222 422.312 334.281C422.408 335.341 423.347 336.127 424.406 336.031C425.466 335.935 426.252 334.997 426.156 333.938C426.06 332.878 425.122 332.092 424.062 332.188ZM445.188 333.125C444.128 333.221 443.342 334.159 443.438 335.219C443.533 336.278 444.472 337.065 445.531 336.969C446.591 336.873 447.377 335.935 447.281 334.875C447.185 333.816 446.247 333.029 445.188 333.125ZM427.781 334.719C426.722 334.815 425.935 335.753 426.031 336.812C426.127 337.872 427.065 338.658 428.125 338.562C429.185 338.467 429.971 337.528 429.875 336.469C429.779 335.409 428.841 334.623 427.781 334.719ZM441.031 335.125C439.972 335.221 439.185 336.159 439.281 337.219C439.377 338.278 440.316 339.065 441.375 338.969C442.434 338.873 443.221 337.934 443.125 336.875C443.029 335.816 442.091 335.029 441.031 335.125ZM323.469 335.281C322.983 335.36 322.529 335.63 322.219 336.062C321.599 336.927 321.823 338.13 322.688 338.75C323.552 339.37 324.755 339.177 325.375 338.312C325.995 337.448 325.771 336.245 324.906 335.625C324.474 335.315 323.955 335.202 323.469 335.281ZM436.75 335.656C435.691 335.752 434.904 336.691 435 337.75C435.096 338.809 436.034 339.596 437.094 339.5C438.153 339.404 438.908 338.466 438.812 337.406C438.717 336.347 437.81 335.56 436.75 335.656ZM432.25 335.906C431.191 336.002 430.404 336.94 430.5 338C430.596 339.059 431.534 339.846 432.594 339.75C433.653 339.654 434.44 338.716 434.344 337.656C434.248 336.597 433.31 335.81 432.25 335.906ZM341.094 337.75C340.667 337.87 340.283 338.05 339.906 338.281C339.547 338.501 339.186 338.778 338.875 339.062C337.98 339.882 337.365 340.891 336.969 342C336.309 343.848 336.25 345.949 336.469 347.844C336.708 349.916 337.688 351.814 338.781 353.562C339.806 355.201 341.005 356.737 342.281 358.188C343.563 359.644 344.928 361.028 346.438 362.25C347.107 362.792 347.831 363.293 348.562 363.75C348.255 363.963 347.95 364.167 347.625 364.375C347.651 364.921 347.922 365.465 348.438 366.156C348.618 366.398 349.085 366.995 349.469 367.469C352.355 370.167 359.594 377.657 364.469 379.312C370.456 375.348 373.225 371.202 376.562 362.312C378.622 356.828 379.868 352.364 380.562 347.562C381.039 344.264 381.209 342.756 381.281 340.906C381.285 340.8 381.278 340.698 381.281 340.594C376.566 338.032 365.736 338.522 361.719 338.625C361.546 338.629 361.165 338.575 360.906 338.562C360.528 338.608 360.26 338.664 360.094 338.688C358.628 338.893 357.867 339.204 357.281 340.031C357.398 340.503 357.452 341.009 357.531 341.5C356.731 341.572 355.923 341.69 355.125 341.844C353.421 342.173 351.637 342.558 349.906 342.188C349.51 342.103 349.115 341.991 348.75 341.812C348.191 341.54 347.685 341.157 347.219 340.75C346.56 340.175 345.963 339.549 345.281 339C344.073 338.026 342.675 337.307 341.094 337.75ZM341.406 338.906C342.428 338.617 343.411 339.088 344.219 339.688C345.773 340.84 347.011 342.497 348.906 343.125C350.787 343.748 352.752 343.512 354.656 343.156C355.671 342.967 356.695 342.745 357.719 342.656C358.298 348.354 356.607 354.953 353.25 359.406C352.261 360.718 351.032 361.884 349.625 362.969C348.848 362.522 348.108 361.994 347.406 361.438C345.874 360.224 344.479 358.84 343.188 357.375C341.954 355.976 340.805 354.487 339.812 352.906C339.323 352.127 338.881 351.338 338.5 350.5C338.161 349.753 337.862 348.942 337.75 348.125C337.486 346.209 337.494 343.958 338.25 342.094C338.704 340.975 339.43 339.99 340.531 339.312C340.814 339.138 341.086 338.997 341.406 338.906ZM323.75 339.781C323.264 339.863 322.81 340.13 322.5 340.562C321.88 341.427 322.073 342.599 322.938 343.219C323.802 343.838 325.005 343.646 325.625 342.781C326.245 341.916 326.052 340.713 325.188 340.094C324.755 339.784 324.236 339.7 323.75 339.781ZM322.531 344.219C322.045 344.298 321.591 344.536 321.281 344.969C320.662 345.834 320.854 347.068 321.719 347.688C322.584 348.307 323.818 348.083 324.438 347.219C325.057 346.354 324.834 345.151 323.969 344.531C323.536 344.222 323.017 344.14 322.531 344.219ZM457 344.562C455.795 344.42 454.629 344.606 453.531 345.031C451.701 345.739 450.073 347.096 448.781 348.5C447.369 350.035 446.578 351.999 445.969 353.969C445.398 355.816 444.983 357.711 444.719 359.625C444.454 361.547 444.346 363.497 444.406 365.438C444.433 366.299 444.493 367.179 444.625 368.031C444.263 367.938 443.901 367.829 443.531 367.719C443.135 368.095 442.905 368.658 442.719 369.5C442.653 369.795 442.515 370.556 442.406 371.156C442.249 375.104 441.319 385.447 443.25 390.219C450.162 392.162 455.089 391.561 464 388.281C469.497 386.258 473.692 384.299 477.781 381.688C480.59 379.894 481.865 379.029 483.312 377.875C483.395 377.809 483.45 377.754 483.531 377.688C482.39 372.444 474.983 364.536 472.281 361.562C472.165 361.435 471.941 361.142 471.781 360.938C471.5 360.681 471.283 360.486 471.156 360.375C470.043 359.4 469.291 359.028 468.281 359.125C468 359.521 467.664 359.9 467.344 360.281C466.766 359.722 466.138 359.191 465.5 358.688C464.138 357.612 462.693 356.521 461.844 354.969C461.649 354.613 461.479 354.237 461.375 353.844C461.216 353.242 461.184 352.619 461.188 352C461.192 351.125 461.248 350.25 461.219 349.375C461.166 347.824 460.806 346.283 459.438 345.375C459.068 345.13 458.671 344.978 458.25 344.844C457.849 344.715 457.418 344.612 457 344.562ZM506.719 345.094C506.018 344.99 505.269 345.137 504.656 345.594L493 354.281C491.774 355.194 491.524 356.931 492.438 358.156L510.469 382.344C511.382 383.569 513.118 383.851 514.344 382.938L526 374.25C527.226 373.337 527.476 371.601 526.562 370.375L508.531 346.188C508.075 345.575 507.419 345.198 506.719 345.094ZM456.062 345.719C456.663 345.698 457.259 345.773 457.875 345.969C458.192 346.069 458.503 346.192 458.781 346.375C459.668 346.959 459.926 347.997 460 349C460.143 350.929 459.706 352.968 460.469 354.812C461.226 356.644 462.706 357.947 464.219 359.156C465.025 359.801 465.827 360.47 466.562 361.188C462.627 365.348 456.565 368.351 451 368.719C449.361 368.827 447.678 368.669 445.938 368.312C445.768 367.432 445.663 366.551 445.625 365.656C445.543 363.703 445.703 361.748 445.969 359.812C446.223 357.965 446.576 356.096 447.125 354.312C447.396 353.433 447.708 352.586 448.094 351.75C448.437 351.005 448.861 350.244 449.406 349.625C450.685 348.174 452.376 346.707 454.281 346.062C454.853 345.869 455.462 345.74 456.062 345.719ZM506.562 345.906C506.964 345.965 507.331 346.178 507.594 346.531C508.119 347.237 507.987 348.224 507.281 348.75C506.575 349.276 505.588 349.143 505.062 348.438C504.537 347.732 504.669 346.713 505.375 346.188C505.728 345.925 506.161 345.848 506.562 345.906ZM320.156 347.812C319.67 347.892 319.216 348.161 318.906 348.594C318.287 349.459 318.479 350.662 319.344 351.281C320.209 351.901 321.412 351.708 322.031 350.844C322.651 349.979 322.459 348.776 321.594 348.156C321.161 347.846 320.642 347.733 320.156 347.812ZM509.656 350.062C510.059 350.123 510.456 350.335 510.719 350.688C511.244 351.393 511.081 352.38 510.375 352.906C509.669 353.432 508.682 353.299 508.156 352.594C507.631 351.888 507.794 350.901 508.5 350.375C508.853 350.112 509.254 350.002 509.656 350.062ZM504.781 350.188C505.186 350.247 505.581 350.46 505.844 350.812C506.369 351.518 506.206 352.537 505.5 353.062C504.794 353.588 503.807 353.424 503.281 352.719C502.756 352.013 502.888 351.026 503.594 350.5C503.947 350.237 504.377 350.128 504.781 350.188ZM317.406 351.375C316.919 351.455 316.466 351.724 316.156 352.156C315.537 353.021 315.729 354.224 316.594 354.844C317.459 355.463 318.662 355.271 319.281 354.406C319.901 353.541 319.709 352.338 318.844 351.719C318.411 351.409 317.893 351.295 317.406 351.375ZM313.594 353.969C313.109 354.049 312.654 354.318 312.344 354.75C311.724 355.615 311.916 356.818 312.781 357.438C313.646 358.057 314.849 357.834 315.469 356.969C316.088 356.104 315.896 354.932 315.031 354.312C314.599 354.003 314.078 353.889 313.594 353.969ZM309.25 355.156C308.763 355.237 308.31 355.505 308 355.938C307.38 356.802 307.573 358.006 308.438 358.625C309.302 359.245 310.505 359.021 311.125 358.156C311.745 357.291 311.552 356.088 310.688 355.469C310.255 355.159 309.737 355.076 309.25 355.156ZM305.219 355.5C304.732 355.58 304.279 355.849 303.969 356.281C303.349 357.146 303.541 358.349 304.406 358.969C305.271 359.588 306.474 359.396 307.094 358.531C307.713 357.666 307.521 356.463 306.656 355.844C306.224 355.534 305.706 355.419 305.219 355.5ZM397.938 366.594C396.448 366.249 394.969 367.167 394.625 368.656L387.844 398.062C387.499 399.551 388.417 401.031 389.906 401.375L404.062 404.656C405.552 405.001 407.062 404.052 407.406 402.562L414.188 373.188C414.532 371.698 413.614 370.219 412.125 369.875L397.938 366.594ZM366.656 381.125C365.836 381.19 365.009 381.325 364.188 381.562C358.783 383.125 355.156 388.143 355.25 393.688L356.875 393.656C356.794 388.846 359.966 384.512 364.656 383.156C370.357 381.508 376.289 384.799 377.938 390.5C379.586 396.201 376.326 402.133 370.625 403.781C365.982 405.124 361.055 403.224 358.531 399.188L357.125 400.031C360.034 404.684 365.713 406.922 371.062 405.375C377.632 403.475 381.431 396.601 379.531 390.031C377.869 384.283 372.397 380.667 366.656 381.125ZM391.781 392.281C392.639 392.48 393.167 393.33 392.969 394.188C392.77 395.045 391.92 395.573 391.062 395.375C390.205 395.177 389.677 394.326 389.875 393.469C390.073 392.611 390.924 392.083 391.781 392.281ZM352.719 394.594L352 398L354.469 400.688L358.562 397.75L357.688 394.688L352.719 394.594ZM395.062 395.906C395.92 396.105 396.417 396.955 396.219 397.812C396.021 398.67 395.201 399.23 394.344 399.031C393.486 398.833 392.927 397.951 393.125 397.094C393.323 396.236 394.205 395.708 395.062 395.906ZM428.031 396.75C424.77 401.011 423.552 411.766 423.031 415.75C423.009 415.921 422.927 416.309 422.875 416.562C422.861 416.943 422.846 417.238 422.844 417.406C422.82 418.886 423.024 419.668 423.75 420.375C424.234 420.333 424.752 420.346 425.25 420.344C425.197 421.146 425.19 421.969 425.219 422.781C425.28 424.516 425.385 426.348 424.75 428C424.605 428.379 424.42 428.729 424.188 429.062C423.831 429.572 423.38 430.009 422.906 430.406C422.236 430.968 421.523 431.506 420.875 432.094C419.726 433.137 418.807 434.369 419 436C419.052 436.44 419.174 436.873 419.344 437.281C419.505 437.67 419.705 438.055 419.938 438.406C420.608 439.417 421.528 440.187 422.562 440.75C424.286 441.688 426.344 442.047 428.25 442.125C430.334 442.21 432.353 441.559 434.25 440.75C436.028 439.991 437.744 439.068 439.375 438.031C441.013 436.99 442.559 435.833 444 434.531C444.64 433.954 445.248 433.34 445.812 432.688C445.975 433.024 446.157 433.334 446.312 433.688C446.856 433.746 447.425 433.589 448.188 433.188C448.455 433.047 449.128 432.649 449.656 432.344C452.769 429.91 461.265 423.934 463.656 419.375C460.668 412.846 457.014 409.457 448.75 404.781C443.652 401.897 439.448 399.961 434.812 398.531C431.628 397.549 430.16 397.139 428.344 396.781C428.24 396.761 428.134 396.769 428.031 396.75ZM390.625 397.344C391.482 397.542 392.011 398.393 391.812 399.25C391.614 400.107 390.764 400.636 389.906 400.438C389.049 400.239 388.52 399.389 388.719 398.531C388.917 397.674 389.768 397.145 390.625 397.344ZM339.875 397.625L331.844 398.562L333.875 415.625C334.231 415.48 334.6 415.36 335 415.312L340.75 414.625C341.15 414.577 341.526 414.599 341.906 414.656L339.875 397.625ZM526.25 399.25C524.761 398.906 523.251 399.855 522.906 401.344L516.125 430.719C515.781 432.208 516.698 433.718 518.188 434.062L532.375 437.344C533.864 437.688 535.343 436.739 535.688 435.25L542.469 405.875C542.813 404.386 541.895 402.876 540.406 402.531L526.25 399.25ZM494.938 413.812C494.117 413.878 493.29 414.013 492.469 414.25C487.064 415.813 483.438 420.799 483.531 426.344H485.156C485.075 421.533 488.247 417.169 492.938 415.812C498.639 414.164 504.601 417.455 506.25 423.156C507.899 428.857 504.607 434.82 498.906 436.469C494.264 437.811 489.337 435.881 486.812 431.844L485.406 432.719C488.315 437.372 493.994 439.578 499.344 438.031C505.913 436.132 509.712 429.288 507.812 422.719C506.15 416.971 500.679 413.354 494.938 413.812ZM391.656 415.25C390.769 415.344 389.91 415.484 389.188 415.781C387.852 416.33 386.785 417.575 385.688 418.469C382.861 420.77 379.795 423.347 376.5 424.906C373.344 426.4 369.934 426.934 366.531 427.531C364.141 424.912 364.686 419.163 365 415.938C365.011 415.821 365.119 415.465 365.156 415.281C364.098 415.392 363.08 415.507 362.125 415.688C361.595 415.788 361.111 415.927 360.25 416.219C360.178 421.676 358.39 427.285 357.594 432.688C357.466 433.556 356.608 438.755 357.688 439.062C357.978 439.145 359.848 437.871 360.219 437.719C362.165 436.92 364.327 436.493 366.406 436.219C378.702 434.597 390.424 432.882 401.688 427.406C404.825 425.881 408.63 422.789 409.969 419.5C409.994 419.437 410.143 419.12 410.219 418.969C409.514 418.751 408.682 418.556 407.531 418.312C407.465 418.298 407.432 418.275 407.312 418.25C406.051 417.984 405.48 417.881 404.781 417.688C400.584 416.524 396.259 415.725 391.656 415.25ZM340.469 415.656L335.5 416.25C333.414 416.499 331.939 418.383 332.188 420.469L332.781 425.438C332.874 426.22 333.177 426.914 333.656 427.469C334.455 428.393 335.696 428.905 337 428.75L341.969 428.156C344.055 427.908 345.53 426.023 345.281 423.938L344.688 419C344.439 416.914 342.555 415.408 340.469 415.656ZM426.406 420.375C432.124 420.686 438.371 423.368 442.25 427.375C443.393 428.555 444.365 429.911 445.219 431.469C444.657 432.167 444.033 432.83 443.375 433.438C441.938 434.763 440.335 435.92 438.688 436.969C437.114 437.97 435.465 438.89 433.75 439.625C432.904 439.987 432.043 440.285 431.156 440.531C430.366 440.751 429.544 440.953 428.719 440.938C426.785 440.901 424.568 440.536 422.844 439.5C421.809 438.878 420.936 438.005 420.438 436.812C420.309 436.506 420.228 436.206 420.188 435.875C420.06 434.821 420.658 433.955 421.375 433.25C422.754 431.894 424.617 430.931 425.531 429.156C426.438 427.394 426.463 425.405 426.406 423.469C426.376 422.437 426.335 421.4 426.406 420.375ZM520.062 424.969C520.92 425.167 521.48 426.018 521.281 426.875C521.083 427.732 520.201 428.261 519.344 428.062C518.486 427.864 517.958 427.014 518.156 426.156C518.354 425.299 519.205 424.77 520.062 424.969ZM481 427.281L480.281 430.656L482.781 433.375L486.844 430.438L485.969 427.344L481 427.281ZM523.344 428.594C524.201 428.792 524.73 429.643 524.531 430.5C524.333 431.357 523.482 431.886 522.625 431.688C521.768 431.489 521.208 430.639 521.406 429.781C521.605 428.924 522.486 428.395 523.344 428.594ZM343.594 428.781C343.237 428.926 342.869 429.077 342.469 429.125L336.719 429.781C336.318 429.829 335.943 429.807 335.562 429.75L337.438 445.5L345.469 444.562L343.594 428.781ZM556.344 429.406C553.082 433.667 551.865 444.453 551.344 448.438C551.321 448.609 551.209 448.996 551.156 449.25C551.142 449.631 551.128 449.895 551.125 450.062C551.101 451.542 551.305 452.355 552.031 453.062C552.516 453.021 553.034 453.034 553.531 453.031C553.478 453.833 553.471 454.625 553.5 455.438C553.561 457.172 553.666 459.004 553.031 460.656C552.886 461.035 552.733 461.417 552.5 461.75C552.144 462.26 551.662 462.696 551.188 463.094C550.517 463.656 549.804 464.162 549.156 464.75C548.007 465.793 547.088 467.056 547.281 468.688C547.333 469.128 547.455 469.56 547.625 469.969C547.787 470.358 547.986 470.711 548.219 471.062C548.889 472.073 549.809 472.843 550.844 473.406C552.567 474.345 554.625 474.735 556.531 474.812C558.615 474.897 560.635 474.215 562.531 473.406C564.309 472.648 566.026 471.724 567.656 470.688C569.294 469.647 570.871 468.489 572.312 467.188C572.952 466.61 573.56 465.996 574.125 465.344C574.288 465.68 574.439 466.022 574.594 466.375C575.137 466.434 575.706 466.246 576.469 465.844C576.736 465.703 577.41 465.305 577.938 465C581.051 462.567 589.546 456.621 591.938 452.062C588.95 445.533 585.295 442.144 577.031 437.469C571.933 434.584 567.73 432.649 563.094 431.219C559.909 430.236 558.442 429.826 556.625 429.469C556.521 429.448 556.447 429.425 556.344 429.406ZM518.906 430.031C519.764 430.23 520.292 431.08 520.094 431.938C519.895 432.795 519.045 433.323 518.188 433.125C517.33 432.927 516.802 432.076 517 431.219C517.198 430.361 518.049 429.833 518.906 430.031ZM468.156 430.281L460.125 431.25L462.156 448.312C462.513 448.168 462.881 448.048 463.281 448L469.031 447.312C469.431 447.265 469.807 447.287 470.188 447.344L468.156 430.281ZM370.844 442.781C367.737 442.3 369.838 446.38 371.438 448.844C372.197 449.939 372.954 451.029 373.781 452.094C375.624 454.193 378.866 456.36 381.438 457.125C381.4 457.128 381.381 457.154 381.344 457.156C380.468 457.197 379.446 457.315 378.594 457.156C378.397 457.119 377.751 456.824 377.562 456.969C377.147 457.287 377.001 458.107 376.875 458.875C376.854 458.863 376.833 458.856 376.812 458.844C376.483 460.037 375.992 461.236 375.688 462.219C374.613 465.688 374.465 470.353 375.969 473.719C377.495 477.135 380.154 480.221 383.25 482.375C384.431 482.985 385.635 483.593 387 484.125C387.416 484.287 389.149 484.99 389.406 485.094C391.94 486.115 393.52 486.527 395.094 486.469C395.824 486.442 396.953 486.234 397.781 486.125C401.192 484.983 404.255 482.727 406.656 480.125C407.598 479.105 408.898 478.211 409.781 477.094C409.761 473.214 407.857 469.139 404.125 463.969C403.38 462.937 399.966 458.46 399.156 457.312C399.139 457.288 399.142 457.274 399.125 457.25C398.976 457.039 398.888 456.801 398.844 456.562C397.921 455.146 397.348 453.564 396.875 451.625C396.484 450.021 396.791 448.21 395.188 447.312C392.779 445.964 386.813 449.569 383.438 449.188C380.455 448.85 376.682 447.681 374.281 445.812C373.32 445.064 372.126 442.98 370.844 442.781ZM493.438 447.938C492.379 448.048 491.361 448.163 490.406 448.344C489.877 448.444 489.392 448.615 488.531 448.906C488.459 454.364 486.671 459.941 485.875 465.344C485.747 466.212 484.889 471.443 485.969 471.75C486.26 471.833 488.129 470.527 488.5 470.375C490.446 469.576 492.608 469.181 494.688 468.906C506.983 467.284 518.706 465.539 529.969 460.062C533.107 458.537 536.912 455.445 538.25 452.156C538.276 452.093 538.424 451.808 538.5 451.656C537.795 451.438 536.995 451.244 535.844 451C535.778 450.986 535.713 450.963 535.594 450.938C534.332 450.671 533.762 450.537 533.062 450.344C528.865 449.181 524.54 448.412 519.938 447.938C519.05 448.032 518.191 448.172 517.469 448.469C516.133 449.018 515.098 450.262 514 451.156C511.174 453.457 508.076 456.034 504.781 457.594C501.625 459.088 498.215 459.621 494.812 460.219C492.422 457.6 492.998 451.819 493.312 448.594C493.324 448.477 493.4 448.121 493.438 447.938ZM468.75 448.344L463.812 448.938C461.727 449.186 460.22 451.07 460.469 453.156L461.062 458.094C461.156 458.876 461.49 459.602 461.969 460.156C462.767 461.08 463.978 461.593 465.281 461.438L470.25 460.844C472.336 460.595 473.811 458.711 473.562 456.625L472.969 451.656C472.72 449.57 470.836 448.095 468.75 448.344ZM415.719 451.094C415.226 451.099 414.748 451.277 414.375 451.656C413.629 452.415 413.617 453.629 414.375 454.375C415.133 455.121 416.379 455.133 417.125 454.375C417.871 453.617 417.852 452.371 417.094 451.625C416.715 451.252 416.211 451.088 415.719 451.094ZM411.688 451.406C411.194 451.41 410.686 451.621 410.312 452C409.566 452.758 409.586 453.973 410.344 454.719C411.102 455.465 412.316 455.446 413.062 454.688C413.809 453.929 413.821 452.715 413.062 451.969C412.683 451.596 412.181 451.402 411.688 451.406ZM420.188 451.5C419.694 451.504 419.217 451.715 418.844 452.094C418.098 452.852 418.117 454.066 418.875 454.812C419.633 455.559 420.848 455.54 421.594 454.781C422.34 454.023 422.321 452.809 421.562 452.062C421.183 451.689 420.681 451.496 420.188 451.5ZM554.719 453.031C560.437 453.343 566.652 456.025 570.531 460.031C571.674 461.211 572.647 462.598 573.5 464.156C572.938 464.855 572.315 465.518 571.656 466.125C570.219 467.451 568.648 468.608 567 469.656C565.426 470.658 563.778 471.546 562.062 472.281C561.217 472.644 560.356 472.972 559.469 473.219C558.679 473.438 557.825 473.609 557 473.594C555.066 473.557 552.849 473.224 551.125 472.188C550.091 471.566 549.217 470.693 548.719 469.5C548.591 469.193 548.509 468.893 548.469 468.562C548.341 467.509 548.939 466.611 549.656 465.906C551.035 464.55 552.899 463.588 553.812 461.812C554.719 460.051 554.775 458.061 554.719 456.125C554.689 455.093 554.648 454.056 554.719 453.031ZM424.406 453.406C423.914 453.412 423.404 453.59 423.031 453.969C422.285 454.727 422.304 455.941 423.062 456.688C423.821 457.434 425.035 457.446 425.781 456.688C426.527 455.929 426.54 454.684 425.781 453.938C425.402 453.564 424.899 453.401 424.406 453.406ZM427.594 456.312C427.101 456.318 426.623 456.527 426.25 456.906C425.504 457.665 425.492 458.879 426.25 459.625C427.008 460.371 428.223 460.352 428.969 459.594C429.715 458.835 429.727 457.621 428.969 456.875C428.59 456.502 428.086 456.307 427.594 456.312ZM430.688 459.594C430.194 459.598 429.717 459.777 429.344 460.156C428.598 460.915 428.585 462.16 429.344 462.906C430.102 463.652 431.316 463.633 432.062 462.875C432.809 462.117 432.821 460.902 432.062 460.156C431.683 459.783 431.181 459.59 430.688 459.594ZM471.875 461.469C471.519 461.613 471.15 461.734 470.75 461.781L465.031 462.469C464.631 462.516 464.224 462.494 463.844 462.438L465.719 478.188L473.75 477.219L471.875 461.469ZM432.656 463.75C432.164 463.755 431.654 463.965 431.281 464.344C430.535 465.102 430.554 466.316 431.312 467.062C432.071 467.809 433.285 467.79 434.031 467.031C434.777 466.273 434.758 465.059 434 464.312C433.621 463.939 433.149 463.745 432.656 463.75ZM433.156 468.219C432.662 468.223 432.154 468.433 431.781 468.812C431.035 469.571 431.054 470.785 431.812 471.531C432.571 472.277 433.785 472.258 434.531 471.5C435.277 470.742 435.29 469.527 434.531 468.781C434.152 468.408 433.65 468.215 433.156 468.219ZM432.875 472.281C432.381 472.285 431.904 472.465 431.531 472.844C430.785 473.602 430.804 474.816 431.562 475.562C432.321 476.309 433.535 476.321 434.281 475.562C435.027 474.804 435.008 473.559 434.25 472.812C433.871 472.439 433.369 472.277 432.875 472.281ZM499.125 475.469C496.018 474.987 498.119 479.068 499.719 481.531C500.478 482.627 501.235 483.716 502.062 484.781C503.905 486.88 507.147 489.047 509.719 489.812C509.682 489.815 509.662 489.842 509.625 489.844C508.75 489.885 507.727 489.972 506.875 489.812C506.678 489.776 506.032 489.481 505.844 489.625C505.428 489.943 505.283 490.795 505.156 491.562C505.135 491.551 505.115 491.543 505.094 491.531C504.765 492.725 504.273 493.892 503.969 494.875C502.894 498.344 502.746 503.04 504.25 506.406C505.776 509.823 508.436 512.908 511.531 515.062C512.712 515.673 513.916 516.249 515.281 516.781C515.697 516.943 517.43 517.678 517.688 517.781C520.221 518.803 521.801 519.215 523.375 519.156C524.105 519.129 525.234 518.922 526.062 518.812C529.474 517.671 532.536 515.384 534.938 512.781C535.879 511.761 537.179 510.898 538.062 509.781C538.042 505.902 536.139 501.796 532.406 496.625C531.662 495.593 528.247 491.116 527.438 489.969C527.42 489.944 527.423 489.931 527.406 489.906C527.258 489.695 527.169 489.488 527.125 489.25C526.202 487.833 525.629 486.251 525.156 484.312C524.765 482.708 525.072 480.898 523.469 480C521.06 478.651 515.095 482.257 511.719 481.875C508.737 481.538 504.963 480.368 502.562 478.5C501.601 477.752 500.407 475.667 499.125 475.469ZM544 483.75C543.508 483.755 543.029 483.965 542.656 484.344C541.91 485.102 541.929 486.316 542.688 487.062C543.446 487.809 544.66 487.79 545.406 487.031C546.152 486.273 546.133 485.059 545.375 484.312C544.996 483.939 544.492 483.745 544 483.75ZM539.969 484.094C539.475 484.098 538.998 484.277 538.625 484.656C537.879 485.415 537.867 486.66 538.625 487.406C539.383 488.152 540.598 488.133 541.344 487.375C542.09 486.617 542.102 485.402 541.344 484.656C540.965 484.283 540.463 484.09 539.969 484.094ZM548.5 484.188C548.006 484.191 547.498 484.371 547.125 484.75C546.379 485.508 546.398 486.754 547.156 487.5C547.915 488.246 549.129 488.227 549.875 487.469C550.621 486.71 550.602 485.496 549.844 484.75C549.465 484.377 548.994 484.184 548.5 484.188ZM552.688 486.094C552.195 486.099 551.717 486.277 551.344 486.656C550.598 487.415 550.586 488.629 551.344 489.375C552.102 490.121 553.316 490.102 554.062 489.344C554.809 488.585 554.821 487.371 554.062 486.625C553.683 486.252 553.18 486.088 552.688 486.094ZM555.875 489C555.383 489.005 554.904 489.183 554.531 489.562C553.785 490.321 553.773 491.535 554.531 492.281C555.29 493.027 556.535 493.04 557.281 492.281C558.027 491.523 558.008 490.277 557.25 489.531C556.871 489.158 556.367 488.995 555.875 489ZM558.969 492.25C558.475 492.254 557.998 492.465 557.625 492.844C556.879 493.602 556.867 494.816 557.625 495.562C558.383 496.309 559.629 496.29 560.375 495.531C561.121 494.773 561.102 493.559 560.344 492.812C559.965 492.439 559.463 492.246 558.969 492.25ZM560.938 496.438C560.445 496.443 559.967 496.621 559.594 497C558.848 497.758 558.835 498.973 559.594 499.719C560.352 500.465 561.566 500.477 562.312 499.719C563.059 498.961 563.071 497.746 562.312 497C561.933 496.627 561.43 496.432 560.938 496.438ZM561.438 500.906C560.944 500.91 560.436 501.09 560.062 501.469C559.316 502.227 559.335 503.473 560.094 504.219C560.852 504.965 562.066 504.946 562.812 504.188C563.559 503.429 563.571 502.215 562.812 501.469C562.433 501.096 561.931 500.902 561.438 500.906ZM561.188 504.938C560.694 504.941 560.186 505.152 559.812 505.531C559.066 506.29 559.085 507.504 559.844 508.25C560.602 508.996 561.816 508.977 562.562 508.219C563.309 507.46 563.29 506.246 562.531 505.5C562.152 505.127 561.681 504.934 561.188 504.938Z" fill="#F4F4F4"/>
<path d="M23.9688 309.906C20.1977 309.962 16.2691 311.052 13.0938 313.031C9.96519 314.982 7.4858 318.929 6.4375 322.406C6.1404 323.392 5.8632 324.67 5.4688 325.844C5.4927 325.846 5.5385 325.842 5.5625 325.844C5.2381 326.551 4.8959 327.317 5.0625 327.812C5.1382 328.038 5.8162 328.139 6 328.219C6.7957 328.563 7.6095 329.227 8.3125 329.75C8.3425 329.772 8.346 329.821 8.375 329.844C5.8145 329.041 1.9196 329.008 -0.78125 329.719C-2.06299 330.139 -3.32061 330.641 -4.5625 331.125C-7.26588 332.274 -11.2824 334.475 -8.4375 335.812C-7.26357 336.364 -5.09013 335.302 -3.875 335.219C-0.840202 335.011 2.93259 336.175 5.5938 337.562C8.6064 339.133 11.53 345.459 14.2812 345.688C16.1127 345.84 16.8725 344.143 18.0938 343.031C19.5698 341.688 20.9115 340.721 22.4688 340.062C22.6383 339.89 22.8524 339.717 23.0938 339.625C23.1214 339.614 23.1285 339.604 23.1562 339.594C24.4686 339.095 29.8058 337.283 31 336.844C36.9851 334.643 40.846 332.33 43.0312 329.125C42.9235 327.705 42.3356 326.247 42.125 324.875C41.5886 321.375 40.3151 317.76 38.125 314.906C37.4994 314.353 36.6838 313.587 36.0938 313.156C34.8214 312.228 33.2967 311.695 30.625 311.125C30.3535 311.067 28.4976 310.661 28.0625 310.562C26.6336 310.24 25.2888 310.06 23.9688 309.906ZM-34.5938 314.875L-44.9688 326.906C-44.6216 327.072 -44.274 327.237 -43.9688 327.5L-39.625 331.281C-39.3198 331.545 -39.0583 331.868 -38.8438 332.188L-28.4688 320.156L-34.5938 314.875ZM-46 327.688C-46.5987 327.557 -47.2233 327.559 -47.8125 327.719C-48.5196 327.911 -49.1729 328.31 -49.6875 328.906L-52.9688 332.688C-54.3409 334.278 -54.1531 336.69 -52.5625 338.062L-48.7812 341.312C-47.1907 342.685 -44.7784 342.497 -43.4062 340.906L-40.1562 337.156C-38.7841 335.566 -38.9719 333.153 -40.5625 331.781L-44.3438 328.531C-44.8408 328.102 -45.4013 327.818 -46 327.688ZM-21.4375 331.531C-22.5047 331.183 -24.6832 335.99 -25.0625 336.781C-27.4224 341.706 -29.0719 347.341 -32.0625 351.906C-31.5115 352.629 -31.1955 353.027 -30.8125 353.406C-30.1217 354.09 -29.3467 354.754 -28.5312 355.438C-28.4597 355.264 -28.3371 354.947 -28.2812 354.844C-26.7389 351.994 -23.9772 346.867 -20.5312 346.031C-18.0442 348.428 -15.5318 350.779 -13.75 353.781C-11.8901 356.916 -10.7758 360.793 -9.71875 364.281C-9.30818 365.636 -9.11275 367.236 -8.3125 368.438C-7.87969 369.087 -7.2452 369.707 -6.5625 370.281C-2.48076 372.46 1.5259 374.212 5.6562 375.594C6.34441 375.824 6.89909 376.047 8.0938 376.531C8.20709 376.577 8.25 376.6 8.3125 376.625C9.4029 377.066 10.2003 377.35 10.9062 377.562C10.9281 377.394 10.986 377.067 11 377C11.729 373.525 10.2801 368.832 8.5312 365.812C2.2535 354.976 -6.49304 347 -15.7812 338.781C-17.352 337.391 -18.9264 335.844 -20.0938 334.094C-20.316 333.76 -21.1502 331.625 -21.4375 331.531ZM-54.2812 337.688L-65.4688 350.656L-59.3438 355.938L-48.1562 342.938C-48.5034 342.772 -48.8198 342.576 -49.125 342.312L-53.5 338.562C-53.8052 338.299 -54.0667 338.007 -54.2812 337.688ZM60.2188 342.562C59.1729 342.757 58.4928 343.767 58.6875 344.812C58.8822 345.858 59.8916 346.538 60.9375 346.344C61.9833 346.149 62.6635 345.139 62.4688 344.094C62.274 343.048 61.2646 342.368 60.2188 342.562ZM58.1875 346.062C57.1417 346.257 56.4615 347.267 56.6562 348.312C56.851 349.358 57.8604 350.038 58.9062 349.844C59.9521 349.649 60.6322 348.639 60.4375 347.594C60.2428 346.548 59.2334 345.868 58.1875 346.062ZM31 348C29.9542 348.195 29.2428 349.204 29.4375 350.25C29.6322 351.296 30.6417 352.007 31.6875 351.812C32.7333 351.618 33.4447 350.608 33.25 349.562C33.0553 348.517 32.0458 347.805 31 348ZM55.2812 349.5C54.2354 349.695 53.5553 350.704 53.75 351.75C53.9447 352.796 54.9229 353.476 55.9688 353.281C57.0146 353.087 57.726 352.077 57.5312 351.031C57.3365 349.985 56.3271 349.305 55.2812 349.5ZM34.1562 350.531C33.1104 350.726 32.4303 351.735 32.625 352.781C32.8198 353.827 33.8292 354.538 34.875 354.344C35.9208 354.149 36.601 353.14 36.4062 352.094C36.2115 351.048 35.2021 350.337 34.1562 350.531ZM51.3125 351.844C50.2667 352.038 49.5866 353.048 49.7812 354.094C49.976 355.14 50.9854 355.851 52.0312 355.656C53.0771 355.462 53.7572 354.452 53.5625 353.406C53.3678 352.36 52.3584 351.649 51.3125 351.844ZM38.0938 352.688C37.0479 352.882 36.3678 353.892 36.5625 354.938C36.7572 355.983 37.7666 356.663 38.8125 356.469C39.8583 356.274 40.5385 355.264 40.3438 354.219C40.149 353.173 39.1396 352.493 38.0938 352.688ZM46.9062 352.844C45.8604 353.038 45.1803 354.048 45.375 355.094C45.5697 356.14 46.5792 356.82 47.625 356.625C48.6708 356.43 49.351 355.421 49.1562 354.375C48.9615 353.329 47.9521 352.649 46.9062 352.844ZM42.6562 353.469C41.6104 353.663 40.899 354.673 41.0938 355.719C41.2885 356.765 42.2979 357.445 43.3438 357.25C44.3896 357.055 45.101 356.046 44.9062 355C44.7115 353.954 43.7021 353.274 42.6562 353.469ZM-45.5312 361.562L-49.0938 362.406L-50.4062 365.625L-46.25 368.344L-43.7812 366.281L-45.5312 361.562ZM-39.8125 362.562C-41.1308 362.685 -42.4342 363.036 -43.6875 363.594L-43.0312 365.094C-38.6817 363.158 -33.5052 364.291 -30.4062 368C-26.6007 372.554 -27.2272 379.351 -31.7812 383.156C-36.3353 386.962 -43.1007 386.335 -46.9062 381.781C-50.0368 378.035 -50.2252 372.693 -47.4688 368.75L-48.8125 367.812C-51.9897 372.358 -51.7636 378.527 -48.1562 382.844C-43.7712 388.091 -35.9663 388.791 -30.7188 384.406C-25.4712 380.021 -24.7712 372.216 -29.1562 366.969C-31.8344 363.764 -35.8577 362.196 -39.8125 362.562ZM33.2812 366.406C32.109 366.295 30.9336 366.443 29.8125 366.906C29.423 367.067 29.0391 367.268 28.6875 367.5C28.3186 367.744 27.9768 368.008 27.6875 368.344C26.6157 369.588 26.6926 371.149 27.0625 372.656C27.2711 373.506 27.571 374.347 27.8125 375.188C27.9834 375.782 28.146 376.378 28.1562 377C28.163 377.407 28.0911 377.824 28 378.219C27.6026 379.943 26.489 381.409 25.4688 382.812C24.9911 383.47 24.5292 384.118 24.125 384.812C23.7139 384.532 23.2844 384.274 22.9062 383.969C21.9086 384.149 21.3074 384.697 20.5 385.938C20.4083 386.078 20.2328 386.333 20.0312 386.656C19.9328 386.896 19.827 387.252 19.75 387.406C17.9546 391.001 12.9278 400.613 13.25 405.969C13.3461 406.01 13.4334 406.053 13.5312 406.094C15.2374 406.813 16.6849 407.284 19.875 408.25C24.5183 409.656 29.0977 410.416 34.9375 410.875C44.4035 411.618 49.31 410.868 55.4375 407.125C56.0034 402.008 52.2835 392.289 51.0625 388.531C50.7955 387.983 50.4552 387.266 50.3125 387C49.9047 386.24 49.5457 385.786 49.0625 385.531C48.7362 385.738 48.4169 385.937 48.0938 386.125C47.9899 385.268 47.8324 384.399 47.625 383.562C47.1575 381.678 46.4947 379.841 45.7188 378.062C44.9462 376.292 44.0502 374.592 43 372.969C41.8798 371.238 40.5882 369.532 38.8125 368.438C37.1887 367.436 35.235 366.592 33.2812 366.406ZM32.8438 367.594C34.8525 367.698 36.9074 368.668 38.5312 369.719C39.2239 370.167 39.8113 370.783 40.3438 371.406C40.9414 372.106 41.4701 372.852 41.9688 373.625C42.9802 375.193 43.8488 376.853 44.5938 378.562C45.3739 380.353 46.0185 382.223 46.4688 384.125C46.6751 384.997 46.8308 385.857 46.9062 386.75C45.3279 387.565 43.7634 388.192 42.1562 388.531C36.7003 389.685 30.0402 388.407 25.125 385.469C25.639 384.579 26.242 383.745 26.8438 382.906C27.9726 381.332 29.0483 379.655 29.2812 377.688C29.5159 375.705 28.5102 373.864 28.125 371.969C27.9247 370.983 27.8986 369.927 28.5938 369.125C28.812 368.873 29.0974 368.682 29.375 368.5C30.4551 367.79 31.6385 367.531 32.8438 367.594ZM99.25 367.75C97.149 367.75 95.437 369.462 95.438 371.562V376.562C95.438 378.663 97.149 380.344 99.25 380.344H104.219C106.319 380.344 108.031 378.632 108.031 376.531V371.562C108.031 370.25 107.356 369.09 106.344 368.406C105.737 367.996 105.006 367.75 104.219 367.75H99.25ZM77.4375 370V378.094H94.625C94.524 377.723 94.438 377.34 94.438 376.938V371.156C94.437 370.753 94.524 370.371 94.625 370H77.4375ZM108.844 370C108.945 370.371 109.031 370.753 109.031 371.156V376.938C109.031 377.341 108.945 377.723 108.844 378.094H124.719V370H108.844ZM-15.7812 380.812C-17.2084 380.266 -18.7969 380.979 -19.3438 382.406L-30.1562 410.562C-30.7031 411.99 -29.9897 413.609 -28.5625 414.156L-14.9688 419.344C-13.5416 419.891 -11.9531 419.177 -11.4062 417.75L-0.59375 389.594C-0.0468826 388.167 -0.760338 386.547 -2.1875 386L-15.7812 380.812ZM-16.3125 381.562C-15.4907 381.877 -15.0601 382.803 -15.375 383.625C-15.6899 384.447 -16.6157 384.846 -17.4375 384.531C-18.2593 384.216 -18.6587 383.322 -18.3438 382.5C-18.0289 381.678 -17.1343 381.248 -16.3125 381.562ZM-13.4375 385.219C-12.6157 385.534 -12.2163 386.459 -12.5312 387.281C-12.8461 388.103 -13.7407 388.534 -14.5625 388.219C-15.3843 387.904 -15.8149 386.978 -15.5 386.156C-15.1851 385.334 -14.2593 384.904 -13.4375 385.219ZM-18.1562 386.406C-17.3344 386.721 -16.9351 387.647 -17.25 388.469C-17.5649 389.291 -18.4907 389.721 -19.3125 389.406C-20.1343 389.091 -20.5336 388.166 -20.2188 387.344C-19.9039 386.522 -18.9781 386.092 -18.1562 386.406ZM79.25 390.094L75.9688 391.219L76.625 396.125L79.8125 396.656L82.2188 392.25L79.25 390.094ZM119.656 390.5C118.006 390.492 115.01 391.359 114.375 391.531C109.105 392.962 103.754 395.407 98.344 396.125C98.156 397.014 98.068 397.525 98.031 398.062C97.965 399.032 97.954 400.03 97.969 401.094C98.147 401.035 98.479 400.931 98.594 400.906C101.759 400.212 107.429 398.968 110.312 401.031C110.122 404.48 109.985 407.908 108.875 411.219C107.717 414.675 105.544 418.046 103.594 421.125C102.836 422.321 101.731 423.515 101.344 424.906C101.134 425.659 101.083 426.514 101.094 427.406C102.11 431.92 103.411 436.126 105.062 440.156C105.338 440.828 105.524 441.373 105.938 442.594C105.977 442.71 105.978 442.78 106 442.844C106.378 443.958 106.7 444.764 107 445.438C107.142 445.344 107.409 445.158 107.469 445.125C110.576 443.407 113.2 439.234 114.344 435.938C118.448 424.105 118.783 412.276 118.938 399.875C118.964 397.778 119.093 395.59 119.656 393.562C119.763 393.176 120.835 391.154 120.719 390.875C120.61 390.616 120.206 390.503 119.656 390.5ZM75.3438 393.812C69.8269 394.376 65.3181 398.573 64.4062 404.125C63.2979 410.873 67.8769 417.267 74.625 418.375C81.3731 419.483 87.7354 414.904 88.8438 408.156C89.7463 402.661 86.8709 397.275 81.9062 394.938L81.2188 396.438C85.5261 398.466 88.002 403.106 87.2188 407.875C86.2569 413.731 80.7314 417.712 74.875 416.75C69.0187 415.788 65.0381 410.263 66 404.406C66.7913 399.589 70.745 395.927 75.5312 395.438L75.3438 393.812ZM127.719 401.812C126.422 401.629 125.546 401.986 125.969 403.5C126.318 404.749 128.518 405.697 129.375 406.562C131.515 408.725 133.124 412.329 133.812 415.25C134.591 418.557 131.719 424.893 133.344 427.125C134.425 428.611 136.204 428.083 137.844 428.281C139.825 428.521 141.453 428.939 142.969 429.688C143.21 429.703 143.429 429.752 143.656 429.875C143.682 429.889 143.693 429.861 143.719 429.875C144.954 430.543 149.825 433.414 150.938 434.031C156.514 437.125 160.802 438.533 164.656 438.094C165.661 437.085 166.38 435.681 167.281 434.625C169.581 431.932 171.457 428.616 172.188 425.094C172.198 424.258 172.278 423.134 172.219 422.406C172.091 420.836 171.502 419.333 170.188 416.938C170.054 416.694 169.116 415.018 168.906 414.625C168.217 413.333 167.496 412.225 166.75 411.125C164.244 408.306 160.854 406.017 157.281 404.906C153.761 403.812 149.13 404.522 145.812 406C144.872 406.419 143.771 407.032 142.625 407.5C142.639 407.519 142.642 407.543 142.656 407.562C141.909 407.779 141.11 408.05 140.844 408.5C140.723 408.704 141.096 409.277 141.156 409.469C141.415 410.296 141.406 411.345 141.469 412.219C141.471 412.256 141.467 412.275 141.469 412.312C140.404 409.849 137.865 406.893 135.562 405.312C134.407 404.617 133.24 403.999 132.062 403.375C130.745 402.727 129.015 401.996 127.719 401.812ZM83.5625 425.656L55.1875 435.906C53.7497 436.425 52.9817 438 53.5 439.438L58.4375 453.125C58.9558 454.563 60.5622 455.3 62 454.781L90.375 444.562C91.813 444.044 92.55 442.438 92.031 441L87.0938 427.344C86.5754 425.906 85.0002 425.138 83.5625 425.656ZM84.1562 426.469C84.9842 426.17 85.889 426.61 86.1875 427.438C86.486 428.265 86.0467 429.17 85.2188 429.469C84.3908 429.767 83.486 429.328 83.1875 428.5C82.889 427.672 83.3283 426.767 84.1562 426.469ZM79.25 428.25C80.0779 427.952 80.9828 428.36 81.2812 429.188C81.5797 430.015 81.1717 430.92 80.3438 431.219C79.5158 431.517 78.611 431.109 78.3125 430.281C78.014 429.453 78.4221 428.548 79.25 428.25ZM83.25 431.031C84.0779 430.733 84.9828 431.172 85.2812 432C85.5797 432.828 85.1404 433.733 84.3125 434.031C83.4846 434.33 82.5797 433.922 82.2812 433.094C81.9828 432.266 82.4221 431.33 83.25 431.031ZM9.375 433.094C5.604 433.149 1.6753 434.208 -1.5 436.188C-4.62855 438.138 -7.13923 442.117 -8.1875 445.594C-8.48463 446.579 -8.73052 447.826 -9.125 449C-9.10107 449.002 -9.08651 449.03 -9.0625 449.031C-9.38693 449.739 -9.69784 450.504 -9.53125 451C-9.45555 451.225 -8.77753 451.327 -8.59375 451.406C-7.79802 451.751 -7.01549 452.414 -6.3125 452.938C-6.28253 452.96 -6.27901 452.977 -6.25 453C-8.81049 452.197 -12.7054 452.196 -15.4062 452.906C-16.688 453.327 -17.9144 453.798 -19.1562 454.281C-21.8596 455.43 -25.8762 457.631 -23.0312 458.969C-21.8573 459.521 -19.7151 458.489 -18.5 458.406C-15.4652 458.199 -11.6612 459.331 -9 460.719C-5.98732 462.289 -3.06373 468.615 -0.3125 468.844C1.519 468.996 2.2475 467.299 3.4688 466.188C4.94479 464.844 6.3177 463.877 7.875 463.219C8.0445 463.046 8.2586 462.905 8.5 462.812C8.5277 462.802 8.5035 462.792 8.5312 462.781C9.84361 462.283 15.1808 460.47 16.375 460.031C22.3601 457.831 26.221 455.486 28.4062 452.281C28.2985 450.861 27.7106 449.434 27.5 448.062C26.9636 444.562 25.6901 440.947 23.5 438.094C22.8744 437.54 22.0588 436.743 21.4688 436.312C20.1964 435.384 18.6717 434.851 16 434.281C15.7285 434.223 13.8726 433.848 13.4375 433.75C12.0086 433.428 10.695 433.248 9.375 433.094ZM-49.2188 438.062L-59.5938 450.062C-59.2466 450.228 -58.899 450.424 -58.5938 450.688L-54.2188 454.469C-53.9135 454.732 -53.6833 455.025 -53.4688 455.344L-43.0938 443.344L-49.2188 438.062ZM141.062 440.906C140.572 440.961 140.114 441.21 139.781 441.625C139.117 442.456 139.263 443.648 140.094 444.312C140.924 444.977 142.117 444.862 142.781 444.031C143.446 443.201 143.331 441.977 142.5 441.312C142.085 440.98 141.553 440.852 141.062 440.906ZM141.219 444.969C140.729 445.024 140.27 445.241 139.938 445.656C139.273 446.487 139.388 447.71 140.219 448.375C141.049 449.04 142.273 448.893 142.938 448.062C143.602 447.232 143.456 446.04 142.625 445.375C142.21 445.043 141.708 444.913 141.219 444.969ZM142.188 449.344C141.698 449.397 141.207 449.647 140.875 450.062C140.21 450.893 140.357 452.116 141.188 452.781C142.018 453.446 143.242 453.299 143.906 452.469C144.571 451.638 144.424 450.415 143.594 449.75C143.178 449.418 142.677 449.291 142.188 449.344ZM-60.625 450.875C-61.2237 450.744 -61.8483 450.746 -62.4375 450.906C-63.1446 451.098 -63.798 451.497 -64.3125 452.094L-67.5625 455.875C-68.9347 457.466 -68.7469 459.878 -67.1562 461.25L-63.4062 464.5C-61.8157 465.872 -59.4034 465.684 -58.0312 464.094L-54.7812 460.312C-53.4091 458.722 -53.5656 456.341 -55.1562 454.969L-58.9375 451.688C-59.4346 451.259 -60.0263 451.006 -60.625 450.875ZM124.938 452.094C123.295 452.095 122.15 453.173 121.25 454.438C120.743 455.151 120.323 455.924 119.844 456.656C119.505 457.174 119.12 457.68 118.656 458.094C118.353 458.364 118.015 458.592 117.656 458.781C116.091 459.607 114.261 459.73 112.531 459.875C111.722 459.943 110.915 460.008 110.125 460.156C110.069 459.662 110.016 459.173 110 458.688C109.212 458.05 108.373 457.957 106.906 458.156C106.74 458.179 106.47 458.223 106.094 458.281C105.848 458.363 105.48 458.489 105.312 458.531C101.418 459.52 90.8759 462.007 87.0312 465.75C87.0625 465.85 87.0611 465.93 87.0938 466.031C87.664 467.793 88.2722 469.204 89.625 472.25C91.594 476.684 94.001 480.654 97.469 485.375C103.07 493.001 106.864 496.213 113.656 498.406C113.69 498.406 113.717 498.407 113.75 498.406C117.986 495.469 122.864 486.371 124.906 483C125.147 482.44 125.486 481.719 125.594 481.438C125.902 480.633 125.998 480.033 125.875 479.5C125.506 479.388 125.166 479.278 124.812 479.156C125.393 478.518 125.94 477.828 126.438 477.125C127.559 475.54 128.504 473.843 129.344 472.094C130.18 470.352 130.895 468.543 131.438 466.688C132.016 464.709 132.456 462.653 132.125 460.594C131.822 458.71 131.198 456.694 130.062 455.094C129.381 454.133 128.521 453.296 127.438 452.75C127.061 452.56 126.656 452.427 126.25 452.312C125.824 452.192 125.381 452.093 124.938 452.094ZM144.562 453.281C144.073 453.337 143.582 453.585 143.25 454C142.585 454.831 142.732 456.054 143.562 456.719C144.393 457.383 145.617 457.237 146.281 456.406C146.946 455.576 146.799 454.383 145.969 453.719C145.553 453.386 145.052 453.226 144.562 453.281ZM124.938 453.312C125.271 453.313 125.587 453.378 125.906 453.469C127.15 453.823 128.135 454.547 128.875 455.5C130.108 457.089 130.703 459.272 130.969 461.188C131.082 462.005 130.999 462.846 130.875 463.656C130.735 464.566 130.541 465.461 130.281 466.344C129.754 468.134 129.027 469.882 128.219 471.562C127.373 473.323 126.427 475.041 125.281 476.625C124.756 477.351 124.19 478.047 123.562 478.688C121.915 478.025 120.432 477.245 119.125 476.25C114.687 472.873 111.267 466.985 110.281 461.344C111.291 461.152 112.316 461.061 113.344 460.969C115.273 460.795 117.264 460.515 118.906 459.406C120.561 458.289 121.285 456.342 122.469 454.812C123.084 454.017 123.876 453.31 124.938 453.312ZM-36.0312 454.719C-37.0984 454.37 -39.3082 459.177 -39.6875 459.969C-42.0474 464.894 -43.6969 470.528 -46.6875 475.094C-46.1365 475.817 -45.8205 476.215 -45.4375 476.594C-44.7467 477.278 -43.9717 477.941 -43.1562 478.625C-43.0847 478.451 -42.9621 478.103 -42.9062 478C-41.3639 475.15 -38.6022 470.054 -35.1562 469.219C-34.7099 469.649 -34.2891 470.1 -33.8438 470.531C-32.7323 467.842 -31.1593 465.217 -29.1562 463.062C-29.5781 462.688 -29.982 462.313 -30.4062 461.938C-31.977 460.548 -33.5202 459.001 -34.6875 457.25C-34.9098 456.917 -35.744 454.813 -36.0312 454.719ZM147.812 456.125C147.323 456.181 146.864 456.428 146.531 456.844C145.867 457.674 146.013 458.867 146.844 459.531C147.674 460.196 148.867 460.081 149.531 459.25C150.196 458.419 150.081 457.196 149.25 456.531C148.835 456.199 148.302 456.069 147.812 456.125ZM151.438 458.812C150.947 458.867 150.489 459.116 150.156 459.531C149.492 460.362 149.607 461.554 150.438 462.219C151.268 462.883 152.492 462.768 153.156 461.938C153.821 461.107 153.674 459.884 152.844 459.219C152.428 458.886 151.928 458.758 151.438 458.812ZM164.312 459.469C163.822 459.523 163.332 459.772 163 460.188C162.335 461.018 162.482 462.242 163.312 462.906C164.143 463.571 165.335 463.424 166 462.594C166.665 461.763 166.549 460.571 165.719 459.906C165.303 459.574 164.803 459.414 164.312 459.469ZM160.312 460.219C159.822 460.273 159.364 460.522 159.031 460.938C158.367 461.768 158.482 462.992 159.312 463.656C160.143 464.321 161.367 464.174 162.031 463.344C162.696 462.513 162.549 461.29 161.719 460.625C161.303 460.293 160.803 460.164 160.312 460.219ZM155.812 460.25C155.324 460.304 154.864 460.554 154.531 460.969C153.867 461.799 153.982 463.023 154.812 463.688C155.643 464.352 156.867 464.206 157.531 463.375C158.196 462.544 158.049 461.321 157.219 460.656C156.803 460.324 156.301 460.196 155.812 460.25ZM-68.875 460.844L-80.0938 473.844L-73.9688 479.125L-62.75 466.125C-63.0971 465.96 -63.4448 465.763 -63.75 465.5L-68.125 461.719C-68.4302 461.455 -68.6604 461.163 -68.875 460.844ZM45.625 465.75C44.5792 465.945 43.899 466.954 44.0938 468C44.2885 469.046 45.2667 469.726 46.3125 469.531C47.3583 469.337 48.0697 468.327 47.875 467.281C47.6803 466.235 46.6709 465.555 45.625 465.75ZM43.5625 469.25C42.5167 469.445 41.8365 470.454 42.0312 471.5C42.226 472.546 43.2354 473.226 44.2812 473.031C45.3271 472.837 46.0072 471.827 45.8125 470.781C45.6178 469.735 44.6084 469.055 43.5625 469.25ZM16.375 471.188C15.3292 471.382 14.649 472.391 14.8438 473.438C15.0385 474.483 16.0479 475.164 17.0938 474.969C18.1396 474.774 18.8197 473.765 18.625 472.719C18.4303 471.673 17.4208 470.993 16.375 471.188ZM40.6562 472.656C39.6104 472.851 38.9303 473.861 39.125 474.906C39.3197 475.952 40.3291 476.663 41.375 476.469C42.4208 476.274 43.101 475.264 42.9062 474.219C42.7115 473.173 41.7021 472.462 40.6562 472.656ZM19.5312 473.719C18.4854 473.913 17.8053 474.923 18 475.969C18.1948 477.015 19.2042 477.695 20.25 477.5C21.2958 477.305 21.976 476.296 21.7812 475.25C21.5865 474.204 20.5771 473.524 19.5312 473.719ZM36.7188 475.031C35.6729 475.226 34.9615 476.236 35.1562 477.281C35.351 478.327 36.3604 479.007 37.4062 478.812C38.4521 478.618 39.1322 477.608 38.9375 476.562C38.7428 475.517 37.7646 474.837 36.7188 475.031ZM23.5 475.875C22.4542 476.07 21.774 477.048 21.9688 478.094C22.1635 479.14 23.1417 479.851 24.1875 479.656C25.2333 479.462 25.9447 478.452 25.75 477.406C25.5553 476.36 24.5458 475.68 23.5 475.875ZM32.3125 476C31.2667 476.195 30.5865 477.204 30.7812 478.25C30.976 479.296 31.9542 480.007 33 479.812C34.0458 479.618 34.7572 478.608 34.5625 477.562C34.3678 476.517 33.3584 475.805 32.3125 476ZM28.0312 476.656C26.9854 476.851 26.3053 477.829 26.5 478.875C26.6947 479.921 27.7042 480.632 28.75 480.438C29.7958 480.243 30.476 479.233 30.2812 478.188C30.0865 477.142 29.0771 476.462 28.0312 476.656ZM-60.1562 484.75L-63.7188 485.594L-65 488.812L-60.8438 491.531L-58.375 489.469L-60.1562 484.75ZM-54.4375 485.75C-55.7558 485.872 -57.0592 486.192 -58.3125 486.75L-57.6562 488.25C-53.3067 486.314 -48.1302 487.479 -45.0312 491.188C-41.2257 495.742 -41.821 502.507 -46.375 506.312C-50.9291 510.118 -57.7257 509.523 -61.5312 504.969C-64.6618 501.222 -64.8503 495.881 -62.0938 491.938L-63.4375 491C-66.6147 495.545 -66.3886 501.714 -62.7812 506.031C-58.3962 511.279 -50.5913 511.979 -45.3438 507.594C-43.6199 506.153 -42.5983 504.284 -41.875 502.312C-41.6055 500.86 -41.3505 499.419 -41.0625 497.969C-41.0862 495.198 -41.8699 492.412 -43.7812 490.125C-46.4594 486.92 -50.4827 485.384 -54.4375 485.75ZM-57.4062 598.656C-57.5002 598.703 -57.5928 598.733 -57.6875 598.781C-59.3392 599.618 -60.6378 600.41 -63.4375 602.219C-67.5125 604.851 -71.03 607.842 -75.1562 612C-81.8447 618.74 -84.4553 622.999 -85.5625 630.094C-82.0258 633.834 -72.2184 637.282 -68.5625 638.781C-67.9715 638.932 -67.2014 639.125 -66.9062 639.188C-66.0632 639.368 -65.4758 639.391 -64.9688 639.188C-64.9151 638.805 -64.8467 638.431 -64.7812 638.062C-64.0607 638.537 -63.3345 638.961 -62.5625 639.344C-60.9316 640.152 -59.2082 640.803 -57.4688 641.344C-57.5012 640.886 -57.5351 640.427 -57.5625 639.969C-59.152 639.451 -60.7271 638.884 -62.2188 638.125C-63.0171 637.719 -63.801 637.27 -64.5312 636.75C-64.132 635.019 -63.5616 633.446 -62.7812 632C-61.5882 629.789 -59.8137 627.759 -57.7812 625.969C-57.4985 617.447 -56.6606 608.968 -55.6562 600.594C-56.2371 599.922 -56.8116 599.102 -57.4062 598.656Z" fill="#F4F4F4"/>
</g>
<path d="M70.7382 80.2531C69.5325 81.0791 68.4421 82.0771 67.6026 83.2371C66.7094 84.4711 66.0113 85.8671 65.5829 87.3311C63.4939 94.4681 68.1284 101.089 74.8144 103.382C75.0545 103.464 75.2886 103.473 75.528 103.544C75.418 103.77 75.3253 104.021 75.2187 104.236C70.7003 113.378 65.1595 122.03 61.6231 131.634C59.8171 136.538 58.5197 141.627 58.4233 146.881C58.2978 153.72 59.5256 160.6 61.0518 167.239C62.6953 174.387 64.8327 181.625 68.8422 187.837C75.8895 198.755 87.6584 206.905 90.3689 220.263C91.2529 224.621 89.4918 229.237 88.5563 233.445C87.4958 238.215 86.0676 242.964 84.223 247.547C74.1595 243.861 62.6015 242.697 54.1867 250.48C52.8223 251.742 51.5223 253.185 50.5264 254.758C46.0107 261.892 46.9566 274.053 56.132 276.891C57.6088 277.347 59.1757 277.52 60.7169 277.45C62.8607 277.352 64.9608 276.82 66.9275 275.967C73.1127 273.283 77.7449 267.704 81.2581 262.138C83.1713 259.106 84.8018 255.903 86.3011 252.612C86.7956 252.832 87.3737 252.97 87.8514 253.197C96.1979 257.168 103.909 262.657 111.019 268.521C124.356 279.523 136.836 293.311 144.471 308.948C145.642 311.346 146.693 313.812 147.602 316.334C143.163 320.04 139.394 324.774 137.938 330.32C136.551 335.608 138.471 342.118 144.021 344.041C145.125 344.423 146.278 344.631 147.446 344.649C148.378 344.662 149.323 344.53 150.213 344.249C154.376 342.933 155.632 338.397 155.593 334.473C155.54 329.297 154.282 324.182 152.76 319.26C152.602 318.747 152.388 318.253 152.223 317.74C153.67 316.706 155.174 315.809 156.62 315.114C169.251 309.046 183.383 309.806 196.889 307.567C210.785 305.264 223.262 298.146 234.934 290.613C240.18 287.226 245.984 283.821 249.467 278.461C251.778 274.906 252.838 270.569 253.663 266.472C254.817 260.742 255.359 254.857 256.961 249.222C258.363 244.292 260.808 239.674 265.138 236.803C265.927 241.312 267.41 245.715 269.471 249.806C271.646 254.125 274.337 258.135 277.204 262.018C279.404 264.997 281.658 267.977 284.488 270.396C286.034 271.718 287.845 272.979 289.885 273.345C292.289 273.777 294.569 272.718 295.973 270.737C297.067 269.194 297.586 267.342 298.273 265.602C298.855 264.126 299.48 262.688 299.95 261.17C300.31 260.009 300.598 258.818 300.818 257.622C301.111 256.03 301.27 254.387 301.071 252.773C300.628 249.177 298.676 245.641 296.6 242.746C291.839 236.107 284.218 230.454 275.864 229.773C273.418 229.574 271.068 229.983 268.746 230.685C268.746 226.733 269.456 222.732 271.286 218.751C274.575 211.594 280.071 205.574 285.683 200.161C295.069 191.106 305.705 183.533 315.612 175.086C321.375 170.172 326.448 164.091 329.717 157.225C330.737 155.084 331.578 152.859 332.106 150.547C333.641 149.629 335.155 148.642 336.53 147.499C344.814 140.612 352.435 127.696 346.218 117.13C343.133 111.886 337.503 108.333 331.928 106.246C321.023 102.165 308.828 102.497 297.39 103.124C293.446 103.34 289.495 103.665 285.55 103.86C276.558 104.303 265.117 103.573 258.758 96.2531C255.449 92.4441 253.073 87.7981 251.043 83.2141C249.379 79.4561 247.851 75.4521 247.255 71.3631C246.885 68.8261 246.89 66.2411 246.76 63.6851C246.546 59.4931 246.23 55.2151 245.064 51.1621C244.117 47.8701 242.502 44.6101 239.699 42.5141C237.855 41.1351 235.572 40.2791 233.381 39.6371C231.147 38.9821 228.799 38.6361 226.469 38.6771C221.019 38.7751 216.325 41.2251 212.238 44.5471C209.946 43.1381 207.534 41.9541 205.136 41.3581C196.24 39.1491 186.658 40.4521 179.201 45.9441C174.485 49.4171 170.875 54.1011 167.593 58.8941C163.82 64.4031 160.461 70.3161 155.983 75.3011C153.044 78.5721 149.631 81.4151 145.394 82.8131C143.388 83.4741 141.35 83.7631 139.248 83.8561C138.092 83.9081 137.181 84.8811 137.233 86.0371C137.284 87.1931 138.258 88.1041 139.414 88.0521C141.899 87.9401 144.354 87.5631 146.723 86.7771C159.489 82.5411 165.565 68.6191 172.97 58.5331C178.341 51.2161 184.843 45.3391 194.216 44.6151C199.306 44.2221 204.483 45.1301 208.938 47.4721C207.737 48.7061 206.557 49.9461 205.509 51.2781C204.07 53.1051 202.704 55.0301 201.559 57.0581C198.515 62.4471 195.486 71.2201 202.174 75.2751C202.888 75.7081 203.629 76.0701 204.432 76.2991C207.534 77.1811 210.8 76.1701 213.427 74.4531C218.182 71.3471 222.647 65.1461 222.381 59.2571C222.164 54.4281 219.365 50.2181 215.624 46.9921C219.157 44.3221 223.256 42.6221 227.922 42.9011C229.638 43.0041 231.31 43.3521 232.939 43.8931C234.675 44.4701 236.518 45.1431 237.867 46.4271C240.098 48.5521 241.047 51.8191 241.621 54.7471C242.666 60.0781 242.427 65.5091 242.981 70.8841C243.383 74.7851 244.664 78.5601 246.1 82.1871C247.535 85.8121 249.185 89.3461 251.168 92.7051C253.844 97.2391 257.007 101.332 261.7 103.911C270.358 108.67 280.706 108.364 290.264 107.768C301.655 107.059 313.44 106.024 324.708 108.48C332.77 110.237 343.764 115.246 344.287 124.774C344.484 128.367 343.303 131.93 341.6 135.05C339.441 139.003 336.507 142.342 332.809 145.085C332.811 144.573 332.748 144.27 332.713 143.757C332.619 142.386 332.285 141.028 331.659 139.799C328.234 133.068 318.752 134.831 313.546 138.136C312.599 138.738 311.701 139.454 310.907 140.249C308.16 142.999 307.141 146.819 309.849 150.027C310.49 150.786 311.257 151.428 312.087 151.969C316.622 154.93 322.015 154.742 326.921 153.046C326.782 153.41 326.737 153.801 326.584 154.16C325.454 156.811 323.985 159.331 322.32 161.68C317.155 168.971 310.139 174.325 303.225 179.855C294.45 186.874 285.53 193.895 277.916 202.199C271.014 209.725 265.076 218.551 264.516 229.048C264.456 230.177 264.59 231.278 264.645 232.398C264.039 232.717 263.378 232.937 262.805 233.314C253.516 239.424 252.122 251.307 250.427 261.363C249.625 266.124 248.88 271.345 246.44 275.619C245.518 277.234 244.242 278.673 242.889 279.937C239.051 283.521 234.375 286.161 229.986 288.997C220.169 295.341 209.364 300.972 197.809 303.266C193.523 304.117 189.118 304.414 184.775 304.84C173.607 305.936 161.128 307.115 151.49 313.403C151.26 313.553 151.046 313.748 150.817 313.903C150.347 312.633 149.979 311.334 149.429 310.104C141.645 292.677 128.187 277.505 113.568 265.451C105.783 259.032 97.2559 253.01 88 248.897C89.8949 244.162 91.3779 239.249 92.4719 234.321C93.4529 229.907 94.9379 225.373 94.4399 220.793C94.1749 218.357 93.4329 215.961 92.5349 213.691C88.4068 203.258 79.4592 196.111 73.1793 187.104C68.848 180.892 66.6326 173.664 64.9511 166.349C63.4973 160.025 62.2974 153.465 62.412 146.95C62.5196 140.838 64.421 134.919 66.8213 129.356C70.5326 120.755 75.5097 112.78 79.4831 104.311C89.6367 105.087 99.0379 97.4931 107.074 92.0751C108.734 90.9561 110.412 89.8731 112.18 88.9311C116.427 86.6701 121.152 85.9601 125.908 85.9381C127.003 85.9331 127.887 85.0541 127.882 83.9581C127.876 82.8631 126.96 81.9971 125.865 82.0021C121.4 82.0241 116.979 82.5211 112.816 84.2201C110.488 85.1691 108.327 86.5131 106.227 87.8831C101.056 91.2561 96.2129 95.1791 90.6194 97.8591C87.7065 99.2551 84.508 100.12 81.2643 100.194C83.761 93.6981 85.3937 85.1981 80.5324 79.7121C79.0299 78.0161 76.7189 77.8481 74.6398 78.4071C73.2586 78.7781 71.9439 79.4271 70.7382 80.2531ZM74.9743 82.4781C76.3763 81.9331 77.1373 81.7361 77.9989 82.9111C81.0006 87.0061 79.5491 93.4821 78.0235 97.8621C77.795 98.5171 77.5182 99.1111 77.266 99.7211C72.4063 98.4181 68.1144 94.6781 69.2208 89.1571C69.4247 88.1391 69.8323 87.1821 70.3679 86.2951C71.4447 84.5101 73.0306 83.2341 74.9743 82.4781ZM212.508 49.9221C213.089 50.4021 213.726 50.7681 214.261 51.3211C217.626 54.8001 219.383 59.2521 217.225 63.8341C215.605 67.2751 212.588 70.8121 208.9 72.0931C206.74 72.8431 203.918 72.3561 202.82 70.1041C202.018 68.4601 202.331 66.4411 202.789 64.7521C203.584 61.8221 205.056 58.9961 206.811 56.5281C208.449 54.2241 210.413 52.0011 212.508 49.9221ZM60.9323 250.608C67.5614 247.26 75.5285 248.565 82.6004 251.134C81.1946 254.199 79.6677 257.179 77.8842 260.005C75.0998 264.417 71.6075 268.865 66.9882 271.481C62.2931 274.14 55.5533 274.746 52.8996 269.097C52.4233 268.084 52.118 267.006 51.9761 265.896C51.8006 264.522 51.8644 263.106 52.1031 261.743C52.4022 260.036 52.968 258.357 53.9003 256.891C54.8607 255.38 56.1334 254.019 57.4998 252.869C58.581 251.958 59.7451 251.207 60.9323 250.608ZM316.941 140.987C320.522 139.159 327.602 137.675 328.494 143.297C328.726 144.761 328.635 146.321 328.433 147.783C328.43 147.802 328.416 147.818 328.413 147.837C327.926 148.083 327.461 148.401 326.962 148.615C322.796 150.405 317.617 151.089 313.807 148.108C311.288 146.137 312.641 144.051 314.741 142.392C315.428 141.849 316.162 141.384 316.941 140.987ZM269.055 235.086C270.126 234.698 271.137 234.108 272.243 233.942C280.038 232.771 287.728 238.145 292.344 243.941C294.377 246.493 296.362 249.637 296.949 252.904C297.607 256.568 295.779 260.753 294.463 264.085C293.904 265.5 293.51 267.114 292.623 268.366C291.133 270.469 288.56 268.482 287.148 267.273C283.959 264.538 281.502 260.983 279.066 257.59C274.188 250.796 270.196 243.095 269.055 235.086ZM148.908 320.537C149.258 321.692 149.65 322.835 149.955 323.998C150.714 326.906 151.348 329.888 151.526 332.895C151.707 335.946 151.685 340.689 147.534 340.605C146.789 340.59 146.022 340.488 145.317 340.244C141.271 338.846 141.031 333.683 142.17 330.228C143.328 326.711 145.872 323.359 148.908 320.537Z" fill="white" stroke="black" stroke-width="2" stroke-miterlimit="10" stroke-linejoin="round"/>
<path d="M81 98.906C80.7477 99.007 80.5216 99.23 80.4062 99.5C79.7705 100.976 79.8499 100.809 79.7812 100.969C79.5748 101.469 78.9471 102.968 79.1562 102.469C79.5739 101.472 79.1577 102.472 78.5 103.969C78.2727 104.475 78.4934 105.054 79 105.281C79.5066 105.509 80.0852 105.288 80.3125 104.781C80.9907 103.301 80.9257 103.474 81 103.312C80.876 103.559 81.4565 102.31 81.3438 102.562C81.5216 102.186 81.8336 101.562 81.7188 101.812C81.2651 102.803 81.7171 101.818 82.375 100.312C82.6058 99.773 82.3517 99.168 81.8125 98.938C81.5429 98.822 81.2523 98.805 81 98.906Z" fill="black"/>
<path d="M77.7499 98.3751C77.203 98.1631 76.5869 98.4531 76.3749 99.0001C76.3423 101.445 76.547 100.831 76.3437 101.438C76.2766 101.409 76.3624 100.273 75.9687 100.062C75.6327 99.8831 75.6599 100.748 75.4999 101.094C75.3354 101.449 75.1676 101.802 74.9999 102.156C74.7872 102.605 74.0055 103.621 74.3437 104.25C74.5214 104.581 74.6684 104.707 75.0311 104.812C75.2161 104.867 75.889 104.703 76.0937 104.375C76.0987 104.365 76.0889 104.353 76.0937 104.344C76.1177 104.3 76.2163 104.299 76.2187 104.25C76.2224 104.171 76.2155 104.253 76.2187 104.188C76.2685 104.102 76.2816 104.084 76.3124 104.031C76.3172 104.045 76.3055 104.134 76.3124 104.125C76.3618 104.061 76.3432 103.977 76.3749 103.906C76.4303 103.809 76.5013 103.707 76.5937 103.531C76.8591 103.027 77.1202 102.508 77.3749 102C77.5601 101.631 78.2977 100.775 77.9061 100.906C76.7142 101.307 77.9275 100.888 78.3749 99.7501C78.5869 99.2031 78.2968 98.5871 77.7499 98.3751Z" fill="black"/>
<path d="M212.156 43.5002C211.888 43.5452 211.639 43.6992 211.469 43.9382C211.129 44.4152 211.241 45.0662 211.719 45.4062C212.759 46.1612 212.668 46.0742 212.781 46.1562C213.14 46.3952 214.197 47.1532 213.844 46.9062C213.137 46.4132 213.832 46.8982 214.875 47.6882C215.315 48.0272 215.942 47.9402 216.281 47.5002C216.621 47.0602 216.533 46.4331 216.094 46.0941C214.519 44.8811 215.413 45.5722 214.531 44.9062C214.352 44.7712 215.232 45.4282 215.062 45.2812C214.727 44.9902 213.682 44.1941 214.031 44.4691C214.725 45.0151 214.013 44.4672 212.938 43.6882C212.699 43.5182 212.424 43.4552 212.156 43.5002Z" fill="black"/>
<path d="M208.656 46.5002C208.392 46.5632 208.153 46.7192 208 46.9692C207.693 47.4692 207.844 48.1312 208.344 48.4382C209.024 48.8882 208.836 48.7482 209.031 48.8752C208.821 48.7122 209.493 49.1402 209.719 49.2812C210.125 49.5352 210.635 49.8552 211.031 50.1252C211.248 50.2732 211.91 50.7332 211.688 50.5942C210.563 49.8892 211.701 50.6022 212.344 51.0942C212.784 51.4332 213.411 51.3462 213.75 50.9062C214.089 50.4662 214.002 49.8392 213.562 49.5002C211.508 48.0702 212.412 48.6972 211.5 48.0622C211.044 47.7452 212.426 48.6912 212.906 48.9692C213.15 49.1092 212.446 48.6342 212.219 48.4692C211.774 48.1452 211.302 47.8362 210.844 47.5312C210.613 47.3782 209.932 46.8992 210.156 47.0622C211.282 47.8832 210.143 47.0632 209.438 46.6252C209.188 46.4722 208.921 46.4372 208.656 46.5002Z" fill="black"/>
<path d="M328.625 147.062C328.053 146.934 327.473 147.303 327.344 147.875C326.623 150.399 326.92 149.429 326.625 150.406C326.461 150.951 326.923 149.269 327.156 148.75C327.28 148.475 327.034 149.362 326.969 149.656C326.813 150.36 326.644 151.068 326.406 151.75C326.36 151.882 326.302 151.995 326.25 152.125C326.199 152.254 326.06 152.666 326.094 152.531C326.49 150.976 326.099 152.509 325.906 152.906C325.663 153.405 325.876 154.007 326.375 154.25C326.874 154.493 327.476 154.28 327.719 153.781C328.572 151.05 328.184 152.264 328.562 151.062C328.801 150.306 328.122 152.573 327.938 153.344C327.898 153.508 328.061 153.062 328.125 152.906C328.244 152.617 328.368 152.265 328.469 151.969C328.674 151.366 328.846 150.742 329 150.125C329.075 149.825 329.321 148.927 329.219 149.219C328.687 150.73 329.2 149.24 329.406 148.344C329.535 147.772 329.197 147.191 328.625 147.062Z" fill="black"/>
<path d="M332.906 143.75C332.322 143.697 331.803 144.135 331.75 144.719C331.438 147.615 331.552 146.448 331.438 147.594C331.357 148.398 331.613 145.988 331.719 145.188C331.741 145.021 331.692 145.52 331.688 145.688C331.683 145.846 331.689 146.029 331.688 146.188C331.678 147.119 331.558 147.992 331.375 148.906C331.34 149.081 331.313 149.231 331.281 149.406C331.248 149.589 331.169 150.154 331.188 149.969C331.363 148.216 331.186 149.962 331.125 150.5C331.062 151.052 331.448 151.562 332 151.625C332.552 151.688 333.062 151.27 333.125 150.719C333.185 150.249 333.15 150.536 333.188 150.25C333.206 150.094 333.22 150.023 333.25 149.781C333.319 149.43 333.391 149.162 333.469 148.812C333.661 147.949 333.759 147.103 333.781 146.219C333.785 146.068 333.808 145.901 333.812 145.75C333.817 145.609 333.832 145.204 333.812 145.344C333.567 147.14 333.833 145.339 333.875 144.906C333.928 144.322 333.49 143.803 332.906 143.75Z" fill="black"/>
<path d="M268.875 229.5C268.322 229.452 267.829 229.853 267.781 230.406C267.97 233.022 267.894 231.884 267.969 233.031C268.008 233.626 267.901 231.817 267.719 231.25C267.627 230.963 267.683 231.855 267.688 232.156C267.697 232.732 267.766 233.398 267.844 233.969C267.884 234.261 267.973 235.139 267.969 234.844C267.949 233.37 267.973 234.842 268.156 235.656C268.288 236.228 268.866 236.569 269.438 236.438C270.009 236.306 270.351 235.728 270.219 235.156C269.997 232.865 270.077 233.892 270 232.875C269.961 232.366 270.129 233.9 270.062 234.406C270.029 234.662 269.948 233.911 269.906 233.656C269.828 233.182 269.742 232.575 269.719 232.094C269.707 231.843 269.678 231.096 269.719 231.344C269.926 232.61 269.717 231.36 269.781 230.594C269.829 230.041 269.428 229.548 268.875 229.5Z" fill="black"/>
<path d="M264.562 231.156C264.008 231.181 263.6 231.633 263.625 232.188C263.896 234.683 263.703 233.305 263.875 234.688C263.911 234.98 263.713 233.55 263.688 233.844C263.637 234.416 263.834 236.105 263.812 235.531C263.771 234.412 263.81 235.551 264.156 237.188C264.282 237.76 264.833 238.126 265.406 238C265.979 237.874 266.345 237.292 266.219 236.719C265.916 234.407 266.117 235.699 265.938 234.406C265.901 234.14 265.953 235.476 265.875 235.219C265.726 234.726 265.603 233.185 265.719 233.688C265.949 234.69 265.707 233.677 265.625 232.094C265.6 231.539 265.117 231.132 264.562 231.156Z" fill="black"/>
<path d="M147.188 315.531C146.632 315.72 146.342 316.32 146.531 316.875C146.772 317.624 146.71 317.415 146.781 317.625C146.717 317.373 146.943 318.131 147.031 318.375C147.185 318.801 147.394 319.348 147.531 319.781C147.605 320.015 147.831 320.731 147.75 320.5C147.328 319.301 147.738 320.514 147.906 321.25C148.028 321.792 148.583 322.122 149.125 322C149.667 321.878 149.997 321.323 149.875 320.781C149.201 318.487 149.5 319.518 149.219 318.5C149.078 317.99 149.521 319.509 149.719 320C149.821 320.254 149.574 319.482 149.5 319.219C149.358 318.711 149.195 318.189 149.031 317.688C148.951 317.44 148.712 316.686 148.781 316.938C149.134 318.225 148.778 316.955 148.531 316.219C148.342 315.663 147.743 315.342 147.188 315.531Z" fill="black"/>
<path d="M150.25 312.281C149.7 312.485 149.421 313.106 149.625 313.656C150.485 315.926 149.991 314.643 150.469 315.906C150.612 316.284 150.846 316.908 150.75 316.656C150.368 315.649 150.77 316.669 151.344 318.188C151.536 318.708 152.104 318.973 152.625 318.781C153.146 318.589 153.411 318.021 153.219 317.5C152.685 315.985 152.746 316.134 152.688 315.969C152.774 316.227 152.314 314.932 152.406 315.188C152.281 314.82 152.067 314.19 152.156 314.438C152.521 315.451 152.146 314.434 151.594 312.906C151.39 312.356 150.8 312.078 150.25 312.281Z" fill="black"/>
<path d="M82.8437 250.188C82.3192 250.005 81.7449 250.288 81.5624 250.812C81.3799 251.337 81.663 251.911 82.1874 252.094C83.8353 252.773 83.3897 252.619 83.8437 252.781C83.8789 252.794 83.9207 252.827 83.9687 252.844C83.9543 252.839 84.0927 252.886 84.0624 252.875C84.2402 252.959 84.4137 253.046 84.5937 253.125C84.8107 253.22 85.4681 253.499 85.2499 253.406C84.2251 252.97 85.2488 253.392 85.9061 253.625C86.46 253.818 87.0883 253.523 87.2811 252.969C87.474 252.415 87.1788 251.818 86.6249 251.625C84.7396 250.909 85.5749 251.199 84.7187 250.906C84.5323 250.83 84.3433 250.762 84.1561 250.688C83.9358 250.6 83.2787 250.352 83.4999 250.438C84.5368 250.838 83.5045 250.415 82.8437 250.188Z" fill="black"/>
<path d="M84.4375 246.531C83.9074 246.366 83.3214 246.657 83.1562 247.188C82.9911 247.718 83.3136 248.272 83.8438 248.438C84.531 248.686 84.3197 248.608 84.5312 248.688C84.305 248.596 84.9903 248.851 85.2188 248.938C85.474 249.032 85.6847 249.109 85.7188 249.125C85.729 249.128 85.7389 249.153 85.75 249.156C85.7532 249.159 86.0401 249.242 85.9688 249.219C86.1866 249.306 86.4059 249.385 86.625 249.469C86.8661 249.561 87.5861 249.838 87.3438 249.75C86.1685 249.321 87.3645 249.754 88.0938 250C88.6505 250.184 89.2532 249.869 89.4375 249.312C89.6218 248.756 89.3068 248.153 88.75 247.969C88.0357 247.731 88.2446 247.823 88.0312 247.75C87.7976 247.673 87.702 247.62 87.3438 247.5C86.7983 247.311 86.4545 247.185 85.9062 247C85.6594 246.917 84.9096 246.666 85.1562 246.75C86.3501 247.156 85.1775 246.759 84.4375 246.531Z" fill="black"/>
<path d="M89.3819 86.383C80.1603 66.892 88.4848 43.616 107.975 34.395C127.466 25.173 150.742 33.498 159.963 52.988C169.185 72.479 160.86 95.754 141.37 104.976C121.879 114.198 98.604 105.873 89.3819 86.383Z" fill="#FF2222"/>
<path d="M37.5979 144.035C56.0159 132.824 80.0353 138.666 91.247 157.084C102.458 175.502 96.616 199.521 78.1979 210.733C59.78 221.944 35.7606 216.102 24.5492 197.684C13.3379 179.266 19.18 155.247 37.5979 144.035Z" fill="#AF52DE"/>
<path d="M91.462 331.606C71.6397 323.122 62.4475 300.175 70.9312 280.352C79.4149 260.53 102.362 251.337 122.185 259.821C142.008 268.305 151.2 291.252 142.716 311.075C134.232 330.897 111.285 340.09 91.462 331.606Z" fill="#007AFF"/>
<path d="M200.722 321.706C191.5 302.215 199.825 278.94 219.315 269.718C238.805 260.496 262.081 268.821 271.303 288.311C280.524 307.802 272.2 331.078 252.709 340.299C233.219 349.521 209.943 341.196 200.722 321.706Z" fill="#34C759"/>
<path d="M304.163 235.4C283.311 229.913 270.855 208.562 276.342 187.709C281.829 166.857 303.181 154.401 324.033 159.888C344.885 165.375 357.341 186.727 351.854 207.579C346.367 228.431 325.015 240.887 304.163 235.4Z" fill="#FFC622"/>
<path d="M235.742 93.485C232.405 72.183 246.968 52.209 268.27 48.872C289.573 45.535 309.547 60.098 312.884 81.4C316.221 102.702 301.658 122.677 280.355 126.014C259.053 129.351 239.079 114.788 235.742 93.485Z" fill="#FF9500"/>
<path d="M94.901 83.7721C87.2692 67.6421 94.412 48.2601 110.855 40.4801C127.297 32.7011 146.813 39.4701 154.445 55.5991C162.076 71.7291 154.933 91.1111 138.49 98.8901C122.048 106.67 102.532 99.9011 94.901 83.7721Z" stroke="black" stroke-miterlimit="10" stroke-linejoin="round"/>
<path d="M40.7723 149.25C56.0142 139.972 76.0375 145.047 85.4957 160.585C94.9539 176.122 90.2652 196.24 75.0234 205.518C59.7815 214.796 39.7582 209.721 30.3 194.183C20.8418 178.645 25.5305 158.528 40.7723 149.25Z" stroke="black" stroke-miterlimit="10" stroke-linejoin="round"/>
<path d="M93.865 325.993C77.4602 318.972 69.9637 299.724 77.1207 283.001C84.2778 266.278 103.378 258.413 119.783 265.434C136.187 272.455 143.683 291.703 136.526 308.426C129.369 325.149 110.269 333.014 93.865 325.993Z" stroke="black" stroke-miterlimit="10" stroke-linejoin="round"/>
<path d="M206.24 319.095C198.609 302.965 205.752 283.583 222.194 275.804C238.637 268.024 258.153 274.793 265.784 290.923C273.416 307.052 266.273 326.434 249.83 334.214C233.387 341.993 213.872 335.224 206.24 319.095Z" stroke="black" stroke-miterlimit="10" stroke-linejoin="round"/>
<path d="M305.717 229.496C288.461 224.955 278.224 207.014 282.853 189.423C287.482 171.831 305.223 161.252 322.479 165.792C339.736 170.333 349.972 188.275 345.343 205.866C340.714 223.457 322.973 234.037 305.717 229.496Z" stroke="black" stroke-miterlimit="10" stroke-linejoin="round"/>
<path d="M241.553 92.154C238.792 74.526 251.121 57.953 269.092 55.137C287.063 52.322 303.87 64.33 306.632 81.959C309.393 99.588 297.064 116.161 279.093 118.976C261.122 121.791 244.315 109.783 241.553 92.154Z" stroke="black" stroke-miterlimit="10" stroke-linejoin="round"/>
<path d="M221.817 303.691C220.687 301.302 221.707 298.45 224.096 297.32C226.485 296.189 229.337 297.21 230.467 299.598C231.598 301.987 230.577 304.84 228.189 305.97C225.8 307.1 222.947 306.08 221.817 303.691Z" fill="black"/>
<path d="M228.029 316.82C226.899 314.431 227.919 311.578 230.308 310.448C232.696 309.318 235.549 310.338 236.679 312.727C237.809 315.116 236.789 317.968 234.4 319.098C232.012 320.229 229.159 319.208 228.029 316.82Z" fill="black"/>
<path d="M235.345 297.29C234.215 294.902 235.235 292.049 237.624 290.919C240.013 289.789 242.865 290.809 243.996 293.198C245.126 295.586 244.105 298.439 241.717 299.569C239.328 300.699 236.476 299.679 235.345 297.29Z" fill="black"/>
<path d="M241.557 310.419C240.427 308.03 241.447 305.178 243.836 304.048C246.224 302.917 249.077 303.938 250.207 306.326C251.337 308.715 250.317 311.568 247.928 312.698C245.54 313.828 242.687 312.808 241.557 310.419Z" fill="black"/>
<path d="M95.3199 304.134C92.8909 303.095 91.7649 300.282 92.8039 297.853C93.8439 295.424 96.6559 294.297 99.0859 295.337C101.515 296.377 102.642 299.189 101.602 301.618C100.562 304.048 97.7499 305.174 95.3199 304.134Z" fill="black"/>
<path d="M108.673 309.849C106.244 308.809 105.117 305.997 106.157 303.568C107.197 301.138 110.009 300.012 112.438 301.051C114.868 302.091 115.994 304.903 114.954 307.333C113.915 309.762 111.102 310.889 108.673 309.849Z" fill="black"/>
<path d="M101.209 290.376C98.7799 289.336 97.6529 286.524 98.6929 284.094C99.7319 281.665 102.545 280.538 104.974 281.578C107.404 282.618 108.53 285.43 107.49 287.859C106.451 290.289 103.638 291.415 101.209 290.376Z" fill="black"/>
<path d="M114.562 296.09C112.132 295.05 111.006 292.238 112.045 289.809C113.085 287.379 115.897 286.253 118.327 287.293C120.756 288.332 121.883 291.145 120.843 293.574C119.803 296.003 116.991 297.13 114.562 296.09Z" fill="black"/>
<path d="M57.7224 163.129C59.9796 161.755 62.9233 162.471 64.2973 164.728C65.6713 166.985 64.9553 169.929 62.6981 171.303C60.4409 172.677 57.4972 171.961 56.1232 169.704C54.7492 167.447 55.4651 164.503 57.7224 163.129Z" fill="black"/>
<path d="M45.3161 170.681C47.5733 169.307 50.517 170.023 51.891 172.28C53.265 174.537 52.549 177.481 50.2918 178.855C48.0346 180.229 45.0909 179.513 43.7169 177.256C42.3429 174.999 43.0589 172.055 45.3161 170.681Z" fill="black"/>
<path d="M65.5041 175.913C67.7613 174.539 70.705 175.255 72.079 177.512C73.453 179.769 72.737 182.713 70.4798 184.087C68.2226 185.461 65.2789 184.745 63.9049 182.488C62.5309 180.231 63.2469 177.287 65.5041 175.913Z" fill="black"/>
<path d="M53.0978 183.465C55.355 182.091 58.2987 182.807 59.6727 185.064C61.0467 187.321 60.3307 190.265 58.0735 191.639C55.8163 193.013 52.8726 192.297 51.4986 190.04C50.1246 187.782 50.8406 184.839 53.0978 183.465Z" fill="black"/>
<path d="M110.202 68.498C109.072 66.109 110.092 63.257 112.481 62.127C114.869 60.997 117.722 62.017 118.852 64.405C119.982 66.794 118.962 69.647 116.573 70.777C114.185 71.907 111.332 70.887 110.202 68.498Z" fill="black"/>
<path d="M116.414 81.627C115.283 79.238 116.304 76.386 118.692 75.255C121.081 74.125 123.933 75.146 125.064 77.534C126.194 79.923 125.174 82.775 122.785 83.906C120.396 85.036 117.544 84.015 116.414 81.627Z" fill="black"/>
<path d="M123.73 62.0971C122.6 59.7091 123.62 56.8561 126.009 55.7261C128.397 54.5961 131.25 55.6161 132.38 58.0051C133.51 60.3931 132.49 63.2461 130.101 64.3761C127.713 65.5061 124.86 64.4861 123.73 62.0971Z" fill="black"/>
<path d="M129.942 75.226C128.812 72.838 129.832 69.985 132.22 68.855C134.609 67.725 137.462 68.745 138.592 71.134C139.722 73.522 138.702 76.375 136.313 77.505C133.924 78.635 131.072 77.615 129.942 75.226Z" fill="black"/>
<path d="M260.849 81.781C260.44 79.17 262.224 76.722 264.835 76.313C267.446 75.904 269.894 77.689 270.303 80.3C270.712 82.91 268.927 85.358 266.316 85.767C263.706 86.176 261.258 84.392 260.849 81.781Z" fill="black"/>
<path d="M263.097 96.1301C262.688 93.5191 264.472 91.0711 267.083 90.6621C269.694 90.2531 272.142 92.0381 272.551 94.6491C272.96 97.2591 271.175 99.7071 268.564 100.116C265.954 100.525 263.506 98.7411 263.097 96.1301Z" fill="black"/>
<path d="M275.634 79.4651C275.225 76.8541 277.01 74.4061 279.621 73.9971C282.231 73.5881 284.679 75.3731 285.088 77.9831C285.497 80.5941 283.713 83.0421 281.102 83.4511C278.491 83.8601 276.043 82.0751 275.634 79.4651Z" fill="black"/>
<path d="M277.882 93.8139C277.473 91.2029 279.258 88.7549 281.869 88.3459C284.479 87.9369 286.927 89.7219 287.336 92.3319C287.745 94.9429 285.96 97.391 283.35 97.8C280.739 98.209 278.291 96.4239 277.882 93.8139Z" fill="black"/>
<path d="M304.171 206.834C301.615 206.162 300.089 203.545 300.761 200.99C301.434 198.434 304.05 196.907 306.606 197.58C309.161 198.252 310.688 200.869 310.015 203.425C309.343 205.98 306.726 207.507 304.171 206.834Z" fill="black"/>
<path d="M318.217 210.53C315.661 209.858 314.135 207.241 314.807 204.685C315.479 202.13 318.096 200.603 320.652 201.276C323.207 201.948 324.734 204.565 324.061 207.121C323.389 209.676 320.772 211.203 318.217 210.53Z" fill="black"/>
<path d="M307.979 192.361C305.424 191.689 303.897 189.072 304.569 186.516C305.242 183.961 307.859 182.434 310.414 183.107C312.97 183.779 314.496 186.396 313.824 188.951C313.151 191.507 310.535 193.033 307.979 192.361Z" fill="black"/>
<path d="M322.025 196.057C319.469 195.385 317.943 192.768 318.615 190.212C319.288 187.657 321.905 186.13 324.46 186.803C327.016 187.475 328.542 190.092 327.87 192.647C327.197 195.203 324.581 196.729 322.025 196.057Z" fill="black"/>
<path d="M47.8649 173.826C47.504 174.183 47.2914 174.701 47.2885 175.249C47.2826 176.345 48.1503 177.216 49.246 177.222C52.6997 177.244 56.2676 177.141 59.6198 178.096C62.0053 178.776 64.1156 180.021 66.1489 181.407C67.1068 182.056 68.417 181.808 69.0663 180.851C69.7156 179.893 69.4677 178.582 68.5099 177.933C66.0834 176.298 63.5391 174.901 60.6874 174.146C56.9745 173.163 53.0958 173.275 49.286 173.259C48.7382 173.256 48.2258 173.469 47.8649 173.826Z" fill="white" stroke="black" stroke-miterlimit="10" stroke-linejoin="round"/>
<path d="M58.3765 167.442C56.7922 173.794 55.3104 180.182 53.8353 186.56C53.5872 187.627 54.252 188.698 55.3191 188.946C56.3863 189.194 57.457 188.53 57.7051 187.463C59.1894 181.112 60.8336 174.814 62.4418 168.494C62.7245 167.372 62.0576 166.218 60.9354 165.935C59.8132 165.653 58.6591 166.319 58.3765 167.442Z" fill="white" stroke="black" stroke-miterlimit="10" stroke-linejoin="round"/>
<path d="M103.122 284.127C102.076 284.451 101.474 285.571 101.799 286.617C102.881 290.107 104.845 293.082 106.591 296.265C108.054 298.93 109.173 301.578 108.873 304.644C108.766 305.796 109.62 306.821 110.773 306.929C111.925 307.036 112.95 306.181 113.057 305.029C113.292 302.393 112.86 299.959 111.823 297.518C110.041 293.327 106.957 289.796 105.595 285.412C105.27 284.366 104.168 283.802 103.122 284.127Z" fill="white" stroke="black" stroke-miterlimit="10" stroke-linejoin="round"/>
<path d="M96.4379 298.067C95.4299 298.495 94.9419 299.701 95.3699 300.71C95.7979 301.718 96.9869 302.169 97.9949 301.741C104.309 299.071 110.651 296.462 116.873 293.583C117.922 293.094 118.36 291.84 117.872 290.791C117.383 289.742 116.129 289.304 115.08 289.792C108.916 292.679 102.702 295.401 96.4379 298.067Z" fill="white" stroke="black" stroke-miterlimit="10" stroke-linejoin="round"/>
<path d="M226.094 300.571C225.591 300.641 225.119 300.933 224.789 301.37C224.129 302.244 224.315 303.476 225.189 304.137C231.047 308.557 238.642 307.372 245.238 309.795C246.325 310.189 247.518 309.617 247.913 308.529C248.308 307.441 247.772 306.231 246.684 305.836C243.794 304.799 240.901 304.362 237.861 304.008C234.253 303.588 230.578 303.212 227.593 300.953C227.156 300.623 226.597 300.501 226.094 300.571Z" fill="white" stroke="black" stroke-miterlimit="10" stroke-linejoin="round"/>
<path d="M238.36 294.585C237.877 294.818 237.477 295.23 237.286 295.776C235.028 302.258 232.104 308.465 230.283 315.097C229.992 316.153 230.608 317.244 231.665 317.535C232.721 317.827 233.812 317.21 234.103 316.154C235.913 309.613 238.989 303.518 241.247 297.131C241.63 296.039 241.036 294.856 239.944 294.473C239.398 294.281 238.843 294.353 238.36 294.585Z" fill="white" stroke="black" stroke-miterlimit="10" stroke-linejoin="round"/>
<path d="M308.698 186.861C307.779 187.458 307.527 188.67 308.124 189.588C311.447 194.718 314.264 200.076 317.064 205.504C317.597 206.532 318.848 206.981 319.875 206.448C320.902 205.915 321.334 204.627 320.801 203.6C317.912 198.066 314.833 192.668 311.425 187.435C310.828 186.516 309.616 186.264 308.698 186.861Z" fill="white" stroke="black" stroke-miterlimit="10" stroke-linejoin="round"/>
<path d="M322.356 190.449C316.64 193.876 310.886 197.425 304.787 200.126C303.785 200.569 303.313 201.749 303.755 202.751C304.198 203.754 305.361 204.188 306.363 203.746C312.619 200.99 318.59 197.529 324.466 194.044C325.46 193.451 325.801 192.186 325.208 191.192C324.615 190.198 323.35 189.857 322.356 190.449Z" fill="white" stroke="black" stroke-miterlimit="10" stroke-linejoin="round"/>
<path d="M280.789 77.302C280.254 77.257 279.725 77.413 279.284 77.787C273.819 82.434 269.305 87.925 266.065 94.338C265.57 95.315 265.961 96.494 266.938 96.989C267.916 97.484 269.094 97.093 269.589 96.116C272.59 90.2 276.931 85.241 281.99 80.983C282.873 80.236 282.982 78.916 282.235 78.032C281.861 77.59 281.323 77.346 280.789 77.302Z" fill="white" stroke="black" stroke-miterlimit="10" stroke-linejoin="round"/>
<path d="M265.055 79.3919C264.571 79.5439 264.13 79.881 263.877 80.367C263.37 81.339 263.744 82.559 264.715 83.065C270.724 86.207 276.235 90.139 281.405 94.514C282.29 95.26 283.615 95.144 284.361 94.259C285.106 93.374 284.991 92.0489 284.106 91.3029C278.681 86.7549 272.858 82.797 266.575 79.528C266.089 79.275 265.54 79.2399 265.055 79.3919Z" fill="white" stroke="black" stroke-miterlimit="10" stroke-linejoin="round"/>
<path d="M113.712 64.9681C113.285 65.2431 112.956 65.6641 112.84 66.2001C112.607 67.2701 113.262 68.3531 114.333 68.5861C118.52 69.5001 122.814 69.8041 126.97 70.8831C129.113 71.4391 131.623 72.1431 133.064 73.9581C133.793 74.8561 135.12 74.9721 136.018 74.2421C136.916 73.5131 137.032 72.1861 136.303 71.2881C134.205 68.7431 131.125 67.6591 127.995 66.8971C123.779 65.8701 119.405 65.6041 115.171 64.6871C114.636 64.5711 114.139 64.6941 113.712 64.9681Z" fill="white" stroke="black" stroke-miterlimit="10" stroke-linejoin="round"/>
<path d="M127.218 58.624C126.698 58.751 126.192 59.074 125.892 59.569C123.737 63.147 121.594 66.765 120.098 70.679C119.008 73.53 118.235 76.494 118.747 79.549C118.93 80.629 119.985 81.364 121.065 81.181C122.145 80.998 122.843 79.96 122.659 78.88C122.26 76.565 123.009 74.255 123.873 72.121C125.355 68.462 127.458 65.087 129.505 61.726C130.104 60.736 129.766 59.441 128.777 58.841C128.282 58.542 127.739 58.496 127.218 58.624Z" fill="white" stroke="black" stroke-miterlimit="10" stroke-linejoin="round"/>
</g>
<defs>
<clipPath id="clip0_304_5317">
<rect width="372" height="372" fill="white" transform="translate(0.5)"/>
</clipPath>
</defs>
</svg>
