<svg width="372" height="372" viewBox="0 0 372 372" fill="none" xmlns="http://www.w3.org/2000/svg">
<g clip-path="url(#clip0_341_2954)">
<mask id="mask0_341_2954" style="mask-type:luminance" maskUnits="userSpaceOnUse" x="-9" y="-119" width="391" height="844">
<path d="M381.5 -119H-8.5V725H381.5V-119Z" fill="white"/>
</mask>
<g mask="url(#mask0_341_2954)">
<path d="M-15.6074 126.837C-15.6074 126.837 26.0036 173.871 100.33 165.998C174.656 158.124 329.468 70.893 317.97 25.929C306.471 -19.0344 252.954 -9.917 279.917 -9.917C306.88 -9.917 255.412 -20.6916 247.748 13.291C240.084 47.273 272.663 157.505 352.19 108.811C431.716 60.118 413.236 22.408 413.236 22.408" stroke="#ED835E" stroke-width="5" stroke-miterlimit="10" stroke-linejoin="round" stroke-dasharray="20 20"/>
<path d="M-16.5938 193.375C-20.3648 193.431 -24.3247 194.489 -27.5 196.469C-30.6285 198.419 -33.108 202.398 -34.1562 205.875C-34.4534 206.861 -34.6993 208.108 -35.0938 209.281C-35.0698 209.283 -35.0552 209.311 -35.0312 209.312C-35.3557 210.02 -35.6978 210.786 -35.5312 211.281C-35.4555 211.506 -34.7463 211.608 -34.5625 211.688C-33.7668 212.032 -32.9842 212.695 -32.2812 213.219C-32.2513 213.241 -32.2478 213.289 -32.2188 213.312C-34.7792 212.509 -38.6741 212.477 -41.375 213.188C-42.6567 213.608 -43.9144 214.079 -45.1562 214.562C-47.8596 215.711 -51.8762 217.944 -49.0312 219.281C-47.8573 219.833 -45.6839 218.771 -44.4688 218.688C-41.4339 218.48 -37.6612 219.613 -35 221C-31.9873 222.571 -29.0637 228.897 -26.3125 229.125C-24.481 229.277 -23.7213 227.611 -22.5 226.5C-21.024 225.157 -19.651 224.159 -18.0938 223.5C-17.9242 223.327 -17.7414 223.186 -17.5 223.094C-17.4723 223.083 -17.4653 223.073 -17.4375 223.062C-16.1252 222.564 -10.788 220.752 -9.59375 220.312C-3.60863 218.112 0.2522 215.799 2.4375 212.594C2.3298 211.174 1.7419 209.716 1.5312 208.344C0.994834 204.843 -0.27867 201.229 -2.46875 198.375C-3.0943 197.821 -3.90992 197.024 -4.5 196.594C-5.77234 195.665 -7.29703 195.132 -9.96875 194.562C-10.2402 194.505 -12.0961 194.129 -12.5312 194.031C-13.9602 193.709 -15.2737 193.529 -16.5938 193.375ZM-75.1875 198.344L-85.5625 210.344C-85.2154 210.509 -84.8677 210.705 -84.5625 210.969L-80.1875 214.75C-79.8823 215.013 -79.6521 215.337 -79.4375 215.656L-69.0625 203.625L-75.1875 198.344ZM-86.5938 211.156C-87.1925 211.025 -87.817 211.028 -88.4062 211.188C-89.1133 211.379 -89.7667 211.778 -90.2812 212.375L-93.5312 216.156C-94.9034 217.747 -94.7468 220.159 -93.1562 221.531L-89.375 224.781C-87.7844 226.153 -85.3722 225.965 -84 224.375L-80.75 220.625C-79.3778 219.034 -79.5657 216.622 -81.1562 215.25L-84.9375 212C-85.4346 211.571 -85.995 211.287 -86.5938 211.156ZM-62.0312 215C-63.0984 214.651 -65.277 219.459 -65.6562 220.25C-68.0161 225.175 -69.6656 230.81 -72.6562 235.375C-72.1052 236.098 -71.7892 236.496 -71.4062 236.875C-70.7154 237.559 -69.9405 238.223 -69.125 238.906C-69.0534 238.733 -68.9309 238.384 -68.875 238.281C-67.3327 235.431 -64.571 230.336 -61.125 229.5C-58.638 231.897 -56.0943 234.247 -54.3125 237.25C-52.4526 240.385 -51.3383 244.262 -50.2812 247.75C-49.8707 249.105 -49.7065 250.704 -48.9062 251.906C-48.4734 252.556 -47.839 253.145 -47.1562 253.719C-43.0745 255.898 -39.0366 257.681 -34.9062 259.062C-34.2181 259.293 -33.6946 259.516 -32.5 260C-32.3867 260.046 -32.3438 260.069 -32.2812 260.094C-31.1908 260.535 -30.3934 260.818 -29.6875 261.031C-29.6656 260.863 -29.6078 260.535 -29.5938 260.469C-28.8648 256.994 -30.3137 252.3 -32.0625 249.281C-38.3402 238.444 -47.0868 230.468 -56.375 222.25C-57.9458 220.86 -59.4889 219.282 -60.6562 217.531C-60.8785 217.198 -61.744 215.094 -62.0312 215ZM-94.8438 221.125L-106.062 234.125L-99.9375 239.406L-88.7188 226.406C-89.0659 226.241 -89.4135 226.045 -89.7188 225.781L-94.0938 222C-94.399 221.737 -94.6292 221.444 -94.8438 221.125ZM19.6562 226.031C18.6104 226.226 17.899 227.236 18.0938 228.281C18.2885 229.327 19.2979 230.007 20.3438 229.812C21.3896 229.618 22.0697 228.608 21.875 227.562C21.6803 226.517 20.7021 225.837 19.6562 226.031ZM17.5938 229.531C16.5479 229.726 15.8678 230.736 16.0625 231.781C16.2572 232.827 17.2667 233.507 18.3125 233.312C19.3583 233.118 20.0385 232.108 19.8438 231.062C19.649 230.017 18.6396 229.337 17.5938 229.531ZM-9.59375 231.469C-10.6396 231.664 -11.3197 232.673 -11.125 233.719C-10.9303 234.765 -9.92084 235.445 -8.875 235.25C-7.82916 235.055 -7.14902 234.046 -7.34375 233C-7.53848 231.954 -8.54791 231.274 -9.59375 231.469ZM14.6875 232.969C13.6417 233.163 12.9615 234.142 13.1562 235.188C13.351 236.233 14.3604 236.945 15.4062 236.75C16.4521 236.555 17.1322 235.545 16.9375 234.5C16.7428 233.454 15.7333 232.774 14.6875 232.969ZM-6.4375 234C-7.48335 234.195 -8.16348 235.204 -7.96875 236.25C-7.774 237.296 -6.76459 237.976 -5.71875 237.781C-4.67292 237.587 -3.99277 236.577 -4.1875 235.531C-4.38223 234.485 -5.39166 233.805 -6.4375 234ZM10.7188 235.312C9.6729 235.507 8.9928 236.517 9.1875 237.562C9.3822 238.608 10.3917 239.288 11.4375 239.094C12.4833 238.899 13.1635 237.889 12.9688 236.844C12.774 235.798 11.7646 235.118 10.7188 235.312ZM-2.46875 236.156C-3.5146 236.351 -4.22598 237.36 -4.03125 238.406C-3.83653 239.452 -2.82709 240.132 -1.78125 239.938C-0.73542 239.743 -0.02401 238.733 -0.21875 237.688C-0.41348 236.642 -1.42291 235.962 -2.46875 236.156ZM6.3438 236.281C5.2979 236.476 4.5865 237.485 4.7812 238.531C4.976 239.577 5.9854 240.288 7.0312 240.094C8.0771 239.899 8.7885 238.89 8.5938 237.844C8.399 236.798 7.3896 236.086 6.3438 236.281ZM2.0625 236.938C1.01667 237.132 0.33651 238.142 0.53125 239.188C0.72598 240.233 1.7042 240.914 2.75 240.719C3.7958 240.524 4.5072 239.514 4.3125 238.469C4.1177 237.423 3.1083 236.743 2.0625 236.938ZM-86.125 245.031L-89.6875 245.875L-90.9688 249.094L-86.8438 251.812L-84.375 249.75L-86.125 245.031ZM-80.4062 246.031C-81.7245 246.153 -83.0279 246.504 -84.2812 247.062L-83.625 248.531C-79.2755 246.595 -74.099 247.76 -71 251.469C-67.1944 256.023 -67.821 262.819 -72.375 266.625C-76.9291 270.431 -83.6944 269.804 -87.5 265.25C-90.6306 261.504 -90.819 256.162 -88.0625 252.219L-89.4062 251.281C-92.5835 255.826 -92.3574 261.995 -88.75 266.312C-84.3649 271.56 -76.56 272.26 -71.3125 267.875C-66.0649 263.49 -65.3649 255.685 -69.75 250.438C-72.4282 247.233 -76.4514 245.665 -80.4062 246.031ZM-7.28125 249.875C-8.45347 249.764 -9.66014 249.881 -10.7812 250.344C-11.1707 250.505 -11.5234 250.705 -11.875 250.938C-12.2439 251.181 -12.5857 251.476 -12.875 251.812C-13.9468 253.057 -13.9012 254.618 -13.5312 256.125C-13.3227 256.975 -13.0228 257.784 -12.7812 258.625C-12.6104 259.22 -12.4478 259.847 -12.4375 260.469C-12.4308 260.875 -12.5027 261.293 -12.5938 261.688C-12.9912 263.412 -14.1048 264.846 -15.125 266.25C-15.6027 266.907 -16.0645 267.586 -16.4688 268.281C-16.8799 268.001 -17.2781 267.743 -17.6562 267.438C-18.6539 267.618 -19.2863 268.166 -20.0938 269.406C-20.1854 269.547 -20.3297 269.77 -20.5312 270.094C-20.6297 270.334 -20.7667 270.721 -20.8438 270.875C-22.6391 274.47 -27.666 284.082 -27.3438 289.438C-27.2477 289.479 -27.1603 289.521 -27.0625 289.562C-25.3563 290.281 -23.9089 290.753 -20.7188 291.719C-16.0754 293.124 -11.4961 293.885 -5.65625 294.344C3.8098 295.087 8.7163 294.306 14.8438 290.562C15.4096 285.446 11.6897 275.758 10.4688 272C10.2018 271.452 9.8615 270.735 9.7188 270.469C9.311 269.709 8.952 269.255 8.4688 269C8.1425 269.206 7.8232 269.375 7.5 269.562C7.3962 268.706 7.2387 267.868 7.0312 267.031C6.5638 265.147 5.9009 263.31 5.125 261.531C4.3524 259.76 3.4564 258.029 2.4062 256.406C1.28609 254.675 -0.00557995 253.001 -1.78125 251.906C-3.40505 250.905 -5.32755 250.061 -7.28125 249.875ZM-7.75 251.062C-5.74128 251.167 -3.68636 252.106 -2.0625 253.156C-1.36982 253.604 -0.7824 254.22 -0.25 254.844C0.34765 255.544 0.87637 256.289 1.375 257.062C2.3864 258.631 3.255 260.321 4 262.031C4.7802 263.822 5.4248 265.66 5.875 267.562C6.0813 268.434 6.2371 269.325 6.3125 270.219C4.7341 271.034 3.1697 271.629 1.5625 271.969C-3.89347 273.122 -10.5536 271.876 -15.4688 268.938C-14.9547 268.048 -14.3518 267.214 -13.75 266.375C-12.6212 264.801 -11.5454 263.124 -11.3125 261.156C-11.0778 259.174 -12.0836 257.333 -12.4688 255.438C-12.669 254.452 -12.6639 253.396 -11.9688 252.594C-11.7505 252.342 -11.4963 252.12 -11.2188 251.938C-10.1386 251.227 -8.95523 251 -7.75 251.062ZM-56.375 264.25C-57.8022 263.703 -59.3906 264.448 -59.9375 265.875L-70.7188 294.031C-71.2656 295.458 -70.5834 297.078 -69.1562 297.625L-55.5625 302.812C-54.1353 303.359 -52.5468 302.646 -52 301.219L-41.1875 273.031C-40.6406 271.604 -41.3541 270.015 -42.7812 269.469L-56.375 264.25ZM-56.9062 265.031C-56.0845 265.346 -55.6539 266.272 -55.9688 267.094C-56.2836 267.916 -57.2094 268.315 -58.0312 268C-58.853 267.685 -59.2524 266.759 -58.9375 265.938C-58.6226 265.116 -57.7281 264.717 -56.9062 265.031ZM-54 268.688C-53.1782 269.002 -52.7788 269.928 -53.0938 270.75C-53.4086 271.572 -54.3344 272.002 -55.1562 271.688C-55.978 271.373 -56.3774 270.447 -56.0625 269.625C-55.7476 268.803 -54.8218 268.373 -54 268.688ZM-58.75 269.875C-57.9282 270.19 -57.5289 271.116 -57.8438 271.938C-58.1586 272.759 -59.0531 273.159 -59.875 272.844C-60.6968 272.529 -61.1274 271.634 -60.8125 270.812C-60.4976 269.991 -59.5718 269.56 -58.75 269.875ZM5.2812 331.062C1.5102 331.118 -2.41844 332.177 -5.59375 334.156C-8.7223 336.107 -11.2017 340.085 -12.25 343.562C-12.5471 344.548 -12.793 345.795 -13.1875 346.969C-13.1636 346.971 -13.149 346.967 -13.125 346.969C-13.4494 347.676 -13.7916 348.473 -13.625 348.969C-13.5493 349.194 -12.8713 349.296 -12.6875 349.375C-11.8918 349.719 -11.078 350.352 -10.375 350.875C-10.345 350.897 -10.3415 350.946 -10.3125 350.969C-12.873 350.166 -16.7678 350.165 -19.4688 350.875C-20.7505 351.295 -22.0081 351.766 -23.25 352.25C-25.9534 353.399 -29.9699 355.6 -27.125 356.938C-25.9511 357.489 -23.7776 356.427 -22.5625 356.344C-19.5277 356.136 -15.7549 357.3 -13.0938 358.688C-10.0811 360.258 -7.15748 366.584 -4.40625 366.812C-2.57477 366.965 -1.81505 365.268 -0.59375 364.156C0.88229 362.813 2.2552 361.846 3.8125 361.188C3.982 361.015 4.1649 360.873 4.4062 360.781C4.4339 360.771 4.441 360.76 4.4688 360.75C5.7811 360.251 11.1183 358.439 12.3125 358C18.2976 355.799 22.1585 353.455 24.3438 350.25C24.236 348.83 23.6481 347.372 23.4375 346C22.9011 342.5 21.6276 338.916 19.4375 336.062C18.8119 335.509 17.9963 334.712 17.4062 334.281C16.1339 333.353 14.6092 332.819 11.9375 332.25C11.666 332.192 9.8101 331.817 9.375 331.719C7.9461 331.397 6.6013 331.216 5.2812 331.062ZM-53.2812 336L-63.6562 348.031C-63.3091 348.197 -62.9615 348.393 -62.6562 348.656L-58.3125 352.406C-58.0073 352.67 -57.7458 352.993 -57.5312 353.312L-47.1562 341.312L-53.2812 336ZM-64.6875 348.812C-65.2862 348.682 -65.9108 348.715 -66.5 348.875C-67.2071 349.067 -67.8605 349.466 -68.375 350.062L-71.625 353.812C-72.9972 355.403 -72.8406 357.815 -71.25 359.188L-67.4688 362.469C-65.8782 363.841 -63.4659 363.653 -62.0938 362.062L-58.8438 358.281C-57.4716 356.691 -57.6594 354.278 -59.25 352.906L-63.0312 349.656C-63.5283 349.227 -64.0888 348.943 -64.6875 348.812ZM-40.125 352.656C-41.1922 352.308 -43.3707 357.146 -43.75 357.938C-46.1099 362.862 -47.7593 368.497 -50.75 373.062C-50.199 373.785 -49.883 374.152 -49.5 374.531C-48.8092 375.215 -48.0342 375.879 -47.2188 376.562C-47.1472 376.389 -47.0246 376.072 -46.9688 375.969C-45.4264 373.119 -42.6647 368.023 -39.2188 367.188C-36.7317 369.585 -34.188 371.935 -32.4062 374.938C-30.5463 378.072 -29.4633 381.918 -28.4062 385.406C-27.9957 386.761 -27.8003 388.361 -27 389.562C-26.5672 390.212 -25.9327 390.832 -25.25 391.406C-21.1683 393.585 -17.1616 395.368 -13.0312 396.75C-12.3431 396.98 -11.7884 397.172 -10.5938 397.656C-10.4804 397.702 -10.4376 397.725 -10.375 397.75C-9.28455 398.191 -8.48718 398.506 -7.78125 398.719C-7.75939 398.551 -7.70153 398.223 -7.6875 398.156C-6.95852 394.681 -8.40739 389.957 -10.1562 386.938C-16.434 376.101 -25.1805 368.125 -34.4688 359.906C-36.0395 358.516 -37.5827 356.969 -38.75 355.219C-38.9723 354.885 -39.8377 352.75 -40.125 352.656ZM-72.9375 358.812L-84.1562 371.812L-78.0312 377.094L-66.8438 364.094C-67.1909 363.928 -67.5073 363.732 -67.8125 363.469L-72.1875 359.688C-72.4927 359.424 -72.7229 359.132 -72.9375 358.812ZM133.281 358.969C129.51 359.024 125.582 360.083 122.406 362.062C119.278 364.013 116.798 367.992 115.75 371.469C115.453 372.454 115.176 373.701 114.781 374.875C114.805 374.877 114.82 374.873 114.844 374.875C114.519 375.582 114.208 376.379 114.375 376.875C114.451 377.1 115.129 377.202 115.312 377.281C116.108 377.626 116.891 378.258 117.594 378.781C117.624 378.804 117.658 378.852 117.688 378.875C115.127 378.072 111.232 378.071 108.531 378.781C107.25 379.202 105.992 379.673 104.75 380.156C102.047 381.305 98.03 383.506 100.875 384.844C102.049 385.396 104.191 384.333 105.406 384.25C108.441 384.043 112.245 385.206 114.906 386.594C117.919 388.164 120.842 394.49 123.594 394.719C125.425 394.871 126.185 393.174 127.406 392.062C128.882 390.719 130.224 389.753 131.781 389.094C131.951 388.921 132.165 388.748 132.406 388.656C132.434 388.646 132.41 388.636 132.438 388.625C133.75 388.126 139.118 386.345 140.312 385.906C146.298 383.706 150.127 381.361 152.312 378.156C152.205 376.736 151.617 375.278 151.406 373.906C150.87 370.406 149.628 366.822 147.438 363.969C146.812 363.415 145.996 362.618 145.406 362.188C144.134 361.259 142.578 360.726 139.906 360.156C139.635 360.098 137.779 359.723 137.344 359.625C135.915 359.303 134.601 359.123 133.281 358.969ZM41.5312 363.688C40.4854 363.882 39.8053 364.892 40 365.938C40.1947 366.983 41.2041 367.695 42.25 367.5C43.2958 367.305 43.976 366.296 43.7812 365.25C43.5865 364.204 42.5771 363.493 41.5312 363.688ZM74.6875 363.906L64.3438 375.938C64.6909 376.103 65.0073 376.299 65.3125 376.562L69.6875 380.312C69.9927 380.576 70.2229 380.9 70.4375 381.219L80.8125 369.188L74.6875 363.906ZM39.5 367.188C38.4542 367.382 37.774 368.392 37.9688 369.438C38.1635 370.483 39.1729 371.195 40.2188 371C41.2646 370.805 41.9447 369.796 41.75 368.75C41.5553 367.704 40.5459 366.993 39.5 367.188ZM12.3125 369.125C11.2667 369.32 10.5553 370.329 10.75 371.375C10.9447 372.421 11.9542 373.132 13 372.938C14.0458 372.743 14.7572 371.734 14.5625 370.688C14.3678 369.642 13.3584 368.93 12.3125 369.125ZM36.5938 370.625C35.5479 370.82 34.8678 371.83 35.0625 372.875C35.2572 373.921 36.2354 374.601 37.2812 374.406C38.3271 374.212 39.0385 373.202 38.8438 372.156C38.649 371.11 37.6396 370.43 36.5938 370.625ZM15.4688 371.656C14.4229 371.851 13.7428 372.86 13.9375 373.906C14.1323 374.952 15.1417 375.663 16.1875 375.469C17.2333 375.274 17.9135 374.265 17.7188 373.219C17.524 372.173 16.5146 371.461 15.4688 371.656ZM32.625 373C31.5792 373.195 30.899 374.173 31.0938 375.219C31.2885 376.265 32.2979 376.976 33.3438 376.781C34.3896 376.587 35.0697 375.577 34.875 374.531C34.6803 373.485 33.6708 372.805 32.625 373ZM19.4375 373.812C18.3917 374.007 17.6803 375.017 17.875 376.062C18.0697 377.108 19.0792 377.82 20.125 377.625C21.1708 377.43 21.851 376.421 21.6562 375.375C21.4615 374.329 20.4833 373.618 19.4375 373.812ZM28.2188 373.969C27.1729 374.163 26.4928 375.173 26.6875 376.219C26.8822 377.265 27.8917 377.944 28.9375 377.75C29.9833 377.555 30.6635 376.546 30.4688 375.5C30.274 374.454 29.2646 373.774 28.2188 373.969ZM23.9688 374.594C22.9229 374.788 22.2428 375.798 22.4375 376.844C22.6322 377.89 23.6104 378.601 24.6562 378.406C25.7021 378.212 26.4135 377.202 26.2188 376.156C26.024 375.11 25.0146 374.399 23.9688 374.594ZM63.2812 376.719C62.6825 376.588 62.058 376.622 61.4688 376.781C60.7617 376.973 60.1083 377.372 59.5938 377.969L56.3438 381.719C54.9716 383.309 55.1594 385.722 56.75 387.094L60.5312 390.344C62.1218 391.716 64.5028 391.559 65.875 389.969L69.125 386.188C70.4972 384.597 70.3406 382.184 68.75 380.812L64.9688 377.562C64.4717 377.134 63.88 376.85 63.2812 376.719ZM87.875 380.562C86.8078 380.214 84.598 385.021 84.2188 385.812C81.8589 390.737 80.2093 396.404 77.2188 400.969C77.7698 401.692 78.1171 402.058 78.5 402.438C79.1908 403.122 79.9346 403.785 80.75 404.469C80.8216 404.295 80.9753 403.978 81.0312 403.875C82.5736 401.025 85.3352 395.929 88.7812 395.094C91.2683 397.491 93.781 399.841 95.562 402.844C97.422 405.979 98.537 409.824 99.594 413.312C100.004 414.667 100.168 416.267 100.969 417.469C101.402 418.119 102.036 418.738 102.719 419.312C106.8 421.492 110.838 423.274 114.969 424.656C115.657 424.886 116.18 425.078 117.375 425.562C117.488 425.608 117.562 425.631 117.625 425.656C118.715 426.098 119.513 426.381 120.219 426.594C120.241 426.426 120.267 426.098 120.281 426.031C121.01 422.556 119.593 417.863 117.844 414.844C111.566 404.007 102.819 396.031 93.531 387.812C91.96 386.423 90.386 384.876 89.2188 383.125C88.9965 382.792 88.1624 380.656 87.875 380.562ZM-64.2188 382.719L-67.7812 383.562L-69.0938 386.781L-64.9375 389.469L-62.4688 387.406L-64.2188 382.719ZM-58.5 383.719C-59.8183 383.841 -61.1217 384.161 -62.375 384.719L-61.7188 386.219C-57.3692 384.283 -52.1927 385.448 -49.0938 389.156C-45.2882 393.71 -45.9147 400.476 -50.4688 404.281C-55.0228 408.087 -61.7882 407.492 -65.5938 402.938C-68.7243 399.191 -68.9127 393.818 -66.1562 389.875L-67.5 388.938C-70.6772 393.483 -70.4511 399.652 -66.8438 403.969C-62.4587 409.216 -54.6538 409.916 -49.4062 405.531C-44.1587 401.146 -43.4586 393.341 -47.8438 388.094C-50.5219 384.889 -54.5451 383.353 -58.5 383.719ZM55.0312 386.719L43.8125 399.719L49.9375 405L61.1562 392C60.8091 391.835 60.4615 391.607 60.1562 391.344L55.8125 387.594C55.5073 387.33 55.2458 387.038 55.0312 386.719ZM14.5938 387.562C13.4215 387.451 12.2461 387.568 11.125 388.031C10.7355 388.192 10.3828 388.393 10.0312 388.625C9.6624 388.869 9.2893 389.133 9 389.469C7.9282 390.713 8.0051 392.274 8.375 393.781C8.5836 394.631 8.8835 395.472 9.125 396.312C9.2959 396.907 9.4585 397.534 9.4688 398.156C9.4755 398.563 9.4036 398.949 9.3125 399.344C8.9151 401.068 7.8015 402.533 6.7812 403.938C6.3036 404.595 5.8417 405.274 5.4375 405.969C5.0264 405.689 4.5969 405.399 4.2188 405.094C3.2211 405.274 2.6199 405.822 1.8125 407.062C1.7208 407.203 1.5766 407.458 1.375 407.781C1.27652 408.021 1.13953 408.377 1.0625 408.531C-0.73288 412.126 -5.75972 421.738 -5.4375 427.094C-5.34142 427.135 -5.25406 427.178 -5.15625 427.219C-3.45009 427.938 -2.0026 428.409 1.1875 429.375C5.8308 430.781 10.4102 431.541 16.25 432C25.716 432.743 30.6225 431.993 36.75 428.25C37.3159 423.133 33.5959 413.414 32.375 409.656C32.108 409.108 31.7678 408.422 31.625 408.156C31.2172 407.397 30.8583 406.942 30.375 406.688C30.0487 406.894 29.7294 407.062 29.4062 407.25C29.3024 406.393 29.1449 405.524 28.9375 404.688C28.47 402.803 27.8072 400.966 27.0312 399.188C26.2587 397.417 25.3627 395.717 24.3125 394.094C23.1923 392.363 21.9007 390.657 20.125 389.562C18.5012 388.561 16.5474 387.748 14.5938 387.562ZM14.1562 388.719C16.165 388.823 18.2199 389.793 19.8438 390.844C20.5364 391.292 21.1239 391.908 21.6562 392.531C22.2539 393.231 22.7826 393.977 23.2812 394.75C24.2927 396.318 25.1613 397.978 25.9062 399.688C26.6864 401.478 27.331 403.348 27.7812 405.25C27.9876 406.122 28.1433 407.013 28.2188 407.906C26.6404 408.721 25.0759 409.317 23.4688 409.656C18.0128 410.81 11.3527 409.532 6.4375 406.594C6.9515 405.704 7.5545 404.87 8.1562 404.031C9.2851 402.457 10.3608 400.78 10.5938 398.812C10.8284 396.83 9.8227 395.021 9.4375 393.125C9.2372 392.139 9.2111 391.052 9.9062 390.25C10.1245 389.998 10.4099 389.807 10.6875 389.625C11.7676 388.915 12.951 388.656 14.1562 388.719ZM169.531 391.594C168.485 391.788 167.805 392.798 168 393.844C168.195 394.89 169.204 395.57 170.25 395.375C171.296 395.18 171.976 394.202 171.781 393.156C171.587 392.11 170.577 391.399 169.531 391.594ZM167.5 395.094C166.454 395.288 165.743 396.298 165.938 397.344C166.132 398.39 167.142 399.101 168.188 398.906C169.233 398.712 169.945 397.702 169.75 396.656C169.555 395.61 168.546 394.899 167.5 395.094ZM140.281 397.031C139.235 397.226 138.555 398.235 138.75 399.281C138.945 400.327 139.954 401.039 141 400.844C142.046 400.649 142.726 399.64 142.531 398.594C142.337 397.548 141.327 396.836 140.281 397.031ZM164.562 398.531C163.517 398.726 162.836 399.736 163.031 400.781C163.226 401.827 164.235 402.507 165.281 402.312C166.327 402.118 167.007 401.108 166.812 400.062C166.618 399.017 165.608 398.337 164.562 398.531ZM143.469 399.562C142.423 399.757 141.711 400.767 141.906 401.812C142.101 402.858 143.11 403.57 144.156 403.375C145.202 403.18 145.913 402.171 145.719 401.125C145.524 400.079 144.515 399.368 143.469 399.562ZM160.625 400.875C159.579 401.07 158.868 402.079 159.062 403.125C159.257 404.171 160.267 404.882 161.312 404.688C162.358 404.493 163.07 403.483 162.875 402.438C162.68 401.392 161.671 400.68 160.625 400.875ZM147.406 401.719C146.36 401.913 145.68 402.923 145.875 403.969C146.07 405.015 147.079 405.695 148.125 405.5C149.171 405.305 149.851 404.296 149.656 403.25C149.462 402.204 148.452 401.524 147.406 401.719ZM156.219 401.875C155.173 402.07 154.493 403.079 154.688 404.125C154.882 405.171 155.892 405.851 156.938 405.656C157.983 405.462 158.663 404.452 158.469 403.406C158.274 402.36 157.265 401.68 156.219 401.875ZM-34.4688 401.938C-35.8959 401.391 -37.4844 402.104 -38.0312 403.531L-48.8438 431.719C-49.3906 433.146 -48.6772 434.734 -47.25 435.281L-33.6562 440.5C-32.2291 441.047 -30.6406 440.302 -30.0938 438.875L-19.2812 410.719C-18.7344 409.292 -19.4478 407.703 -20.875 407.156L-34.4688 401.938ZM151.938 402.5C150.892 402.695 150.212 403.704 150.406 404.75C150.601 405.796 151.61 406.476 152.656 406.281C153.702 406.087 154.382 405.077 154.188 404.031C153.993 402.985 152.983 402.305 151.938 402.5ZM-35 402.719C-34.1782 403.034 -33.7476 403.928 -34.0625 404.75C-34.3774 405.572 -35.3032 406.002 -36.125 405.688C-36.9468 405.373 -37.3462 404.447 -37.0312 403.625C-36.7164 402.803 -35.8218 402.404 -35 402.719ZM-32.125 406.375C-31.3032 406.69 -30.8726 407.585 -31.1875 408.406C-31.5024 409.228 -32.4282 409.659 -33.25 409.344C-34.0718 409.029 -34.5024 408.103 -34.1875 407.281C-33.8726 406.459 -32.9468 406.06 -32.125 406.375ZM-36.8438 407.562C-36.022 407.877 -35.6226 408.803 -35.9375 409.625C-36.2524 410.447 -37.1782 410.846 -38 410.531C-38.8218 410.216 -39.2212 409.291 -38.9062 408.469C-38.5914 407.647 -37.6656 407.248 -36.8438 407.562ZM63.7812 410.594L60.1875 411.438L58.9062 414.656L63.0625 417.375L65.5312 415.312L63.7812 410.594ZM69.5 411.625C68.1817 411.747 66.8471 412.067 65.5938 412.625L66.2812 414.125C70.6308 412.189 75.776 413.354 78.875 417.062C82.6806 421.617 82.0853 428.382 77.5312 432.188C72.9772 435.993 66.1806 435.398 62.375 430.844C59.2444 427.097 59.056 421.724 61.8125 417.781L60.4688 416.844C57.2915 421.389 57.5176 427.558 61.125 431.875C65.5101 437.123 73.3149 437.823 78.5625 433.438C83.8101 429.052 84.5101 421.247 80.125 416C77.4468 412.795 73.4548 411.259 69.5 411.625ZM142.594 415.469C141.422 415.357 140.246 415.474 139.125 415.938C138.736 416.098 138.352 416.299 138 416.531C137.631 416.775 137.289 417.039 137 417.375C135.928 418.62 136.005 420.18 136.375 421.688C136.584 422.538 136.883 423.378 137.125 424.219C137.296 424.814 137.427 425.441 137.438 426.062C137.444 426.469 137.372 426.855 137.281 427.25C136.884 428.974 135.77 430.44 134.75 431.844C134.272 432.501 133.842 433.149 133.438 433.844C133.026 433.564 132.597 433.306 132.219 433C131.221 433.18 130.589 433.729 129.781 434.969C129.69 435.109 129.545 435.364 129.344 435.688C129.245 435.927 129.108 436.283 129.031 436.438C127.236 440.032 122.24 449.644 122.562 455C122.659 455.042 122.746 455.084 122.844 455.125C124.55 455.844 125.997 456.315 129.188 457.281C133.831 458.687 138.379 459.448 144.219 459.906C153.685 460.649 158.623 459.9 164.75 456.156C165.316 451.04 161.596 441.32 160.375 437.562C160.108 437.014 159.768 436.329 159.625 436.062C159.217 435.303 158.827 434.817 158.344 434.562C158.017 434.769 157.698 434.968 157.375 435.156C157.271 434.3 157.114 433.43 156.906 432.594C156.439 430.709 155.807 428.872 155.031 427.094C154.259 425.323 153.331 423.623 152.281 422C151.161 420.269 149.869 418.563 148.094 417.469C146.47 416.468 144.547 415.654 142.594 415.469ZM142.125 416.625C144.134 416.73 146.189 417.699 147.812 418.75C148.505 419.198 149.093 419.814 149.625 420.438C150.223 421.138 150.751 421.883 151.25 422.656C152.261 424.225 153.13 425.884 153.875 427.594C154.655 429.385 155.331 431.254 155.781 433.156C155.988 434.028 156.143 434.919 156.219 435.812C154.64 436.627 153.076 437.223 151.469 437.562C146.013 438.716 139.321 437.438 134.406 434.5C134.92 433.61 135.555 432.776 136.156 431.938C137.285 430.364 138.33 428.687 138.562 426.719C138.797 424.736 137.823 422.927 137.438 421.031C137.237 420.046 137.211 418.959 137.906 418.156C138.124 417.904 138.379 417.714 138.656 417.531C139.736 416.821 140.92 416.563 142.125 416.625ZM93.531 429.844C92.104 429.297 90.4844 430.01 89.9375 431.438L79.1562 459.625C78.6094 461.052 79.3229 462.641 80.75 463.188L94.312 468.406C95.74 468.953 97.359 468.208 97.906 466.781L108.688 438.625C109.234 437.198 108.521 435.578 107.094 435.031L93.531 429.844ZM93 430.625C93.822 430.94 94.221 431.834 93.906 432.656C93.591 433.478 92.666 433.909 91.844 433.594C91.022 433.279 90.6226 432.353 90.9375 431.531C91.2524 430.709 92.178 430.31 93 430.625ZM95.875 434.281C96.697 434.596 97.096 435.491 96.781 436.312C96.466 437.134 95.541 437.565 94.719 437.25C93.897 436.935 93.498 436.009 93.812 435.188C94.127 434.366 95.053 433.966 95.875 434.281ZM91.125 435.469C91.947 435.784 92.377 436.71 92.062 437.531C91.748 438.353 90.8217 438.752 90 438.438C89.1782 438.123 88.7789 437.197 89.0938 436.375C89.4086 435.553 90.3032 435.154 91.125 435.469ZM47.375 456.281C43.604 456.337 39.6753 457.395 36.5 459.375C33.3715 461.326 30.892 465.304 29.8438 468.781C29.5466 469.767 29.2695 471.014 28.875 472.188C28.8989 472.189 28.9448 472.186 28.9688 472.188C28.6443 472.895 28.3022 473.692 28.4688 474.188C28.5445 474.413 29.2225 474.514 29.4062 474.594C30.202 474.938 31.0158 475.601 31.7188 476.125C31.7487 476.147 31.7522 476.164 31.7812 476.188C29.2208 475.384 25.3259 475.383 22.625 476.094C21.3433 476.514 20.0856 476.985 18.8438 477.469C16.1404 478.617 12.1238 480.819 14.9688 482.156C16.1427 482.708 18.3161 481.677 19.5312 481.594C22.5661 481.386 26.3388 482.519 29 483.906C32.0127 485.477 34.9363 491.803 37.6875 492.031C39.519 492.183 40.2787 490.486 41.5 489.375C42.976 488.032 44.3177 487.065 45.875 486.406C46.0445 486.233 46.2586 486.092 46.5 486C46.5277 485.989 46.5347 485.979 46.5625 485.969C47.8748 485.47 53.212 483.658 54.4062 483.219C60.3914 481.018 64.2522 478.674 66.4375 475.469C66.3298 474.049 65.7419 472.622 65.5312 471.25C64.9948 467.75 63.7213 464.135 61.5312 461.281C60.9057 460.728 60.09 459.931 59.5 459.5C58.2277 458.571 56.703 458.038 54.0312 457.469C53.7598 457.411 51.9039 457.036 51.4688 456.938C50.0398 456.615 48.695 456.435 47.375 456.281ZM-24.4062 474.094C-25.1133 474.286 -25.7667 474.685 -26.2812 475.281L-27.6562 476.875C-27.2781 476.818 -26.8966 476.732 -26.5312 476.719C-25.7162 475.85 -24.8908 474.951 -24.0625 474.094C-24.1762 474.115 -24.2946 474.064 -24.4062 474.094ZM1.9688 477.875C0.901586 477.526 -1.27697 482.365 -1.65625 483.156C-4.01612 488.081 -5.6656 493.716 -8.65625 498.281C-8.10524 499.004 -7.78923 499.402 -7.40625 499.781C-6.71541 500.465 -5.94046 501.129 -5.125 501.812C-5.05343 501.639 -4.93088 501.291 -4.875 501.188C-3.33266 498.338 -0.57096 493.242 2.875 492.406C5.362 494.803 7.8745 497.154 9.6562 500.156C11.5162 503.291 12.6304 507.137 13.6875 510.625C14.0981 511.98 14.2935 513.611 15.0938 514.812C15.5266 515.462 16.161 516.051 16.8438 516.625C20.9255 518.804 24.9321 520.587 29.0625 521.969C29.7506 522.199 30.3054 522.391 31.5 522.875C31.6133 522.921 31.6562 522.943 31.7188 522.969C32.8092 523.41 33.6066 523.724 34.3125 523.938C34.3344 523.769 34.3922 523.442 34.4062 523.375C35.1352 519.9 33.6863 515.176 31.9375 512.156C25.6598 501.319 16.9132 493.344 7.625 485.125C6.0542 483.735 4.5111 482.188 3.3438 480.438C3.1215 480.104 2.256 477.969 1.9688 477.875ZM83.625 488.906C82.5792 489.101 81.899 490.111 82.0938 491.156C82.2885 492.202 83.2979 492.913 84.3438 492.719C85.3896 492.524 86.0698 491.514 85.875 490.469C85.6803 489.423 84.6709 488.712 83.625 488.906ZM81.5938 492.406C80.5479 492.601 79.8677 493.611 80.0625 494.656C80.2572 495.702 81.2666 496.414 82.3125 496.219C83.3583 496.024 84.0385 495.014 83.8438 493.969C83.649 492.923 82.6396 492.212 81.5938 492.406ZM54.4062 494.375C53.3604 494.57 52.649 495.579 52.8438 496.625C53.0385 497.671 54.0479 498.351 55.0938 498.156C56.1396 497.962 56.851 496.952 56.6562 495.906C56.4615 494.86 55.4521 494.18 54.4062 494.375ZM78.6875 495.844C77.6417 496.038 76.9615 497.048 77.1562 498.094C77.351 499.14 78.3291 499.82 79.375 499.625C80.4208 499.43 81.1323 498.421 80.9375 497.375C80.7428 496.329 79.7334 495.649 78.6875 495.844ZM57.5625 496.906C56.5166 497.101 55.8365 498.11 56.0312 499.156C56.226 500.202 57.2354 500.882 58.2812 500.688C59.3271 500.493 60.0072 499.484 59.8125 498.438C59.6178 497.392 58.6084 496.712 57.5625 496.906ZM74.7188 498.219C73.6729 498.413 72.9928 499.423 73.1875 500.469C73.3822 501.515 74.3916 502.195 75.4375 502C76.4833 501.805 77.1635 500.796 76.9688 499.75C76.774 498.704 75.7646 498.024 74.7188 498.219ZM61.5 499.062C60.4542 499.257 59.774 500.235 59.9688 501.281C60.1635 502.327 61.1729 503.038 62.2188 502.844C63.2646 502.649 63.9447 501.64 63.75 500.594C63.5553 499.548 62.5458 498.868 61.5 499.062ZM70.3125 499.188C69.2667 499.382 68.5865 500.391 68.7812 501.438C68.976 502.483 69.9854 503.163 71.0312 502.969C72.0771 502.774 72.7572 501.796 72.5625 500.75C72.3678 499.704 71.3584 498.993 70.3125 499.188ZM66.0625 499.812C65.0167 500.007 64.3052 501.016 64.5 502.062C64.6947 503.108 65.7042 503.82 66.75 503.625C67.7958 503.43 68.5072 502.421 68.3125 501.375C68.1177 500.329 67.1083 499.618 66.0625 499.812ZM-22.125 507.938L-25.6875 508.781L-26.5 510.781C-25.1988 509.46 -23.6742 508.753 -22.0938 508.656C-22.011 508.651 -21.9267 508.689 -21.8438 508.688L-22.125 507.938Z" fill="#1A1A1A"/>
<path d="M454.812 122.188L447.5 125.625L454.812 141.156C455.105 140.907 455.416 140.703 455.781 140.531L461 138.062C461.365 137.891 461.746 137.784 462.125 137.719L454.812 122.188ZM422.469 124.406C421.126 124.33 419.76 124.492 418.406 124.875C411.826 126.737 407.982 133.576 409.844 140.156C411.706 146.736 418.545 150.55 425.125 148.688C430.483 147.171 434.148 142.3 434.156 136.812H432.5C432.493 141.574 429.337 145.809 424.688 147.125C418.977 148.741 413.054 145.429 411.438 139.719C409.821 134.008 413.133 128.054 418.844 126.438C423.541 125.108 428.493 127.124 430.969 131.25L432.375 130.406C430.235 126.84 426.495 124.634 422.469 124.406ZM383.75 129.188C383.042 129.185 382.353 129.46 381.812 130L371.5 140.281C370.418 141.361 370.421 143.106 371.5 144.188L392.844 165.531C393.924 166.613 395.669 166.642 396.75 165.562L407.031 155.281C408.113 154.201 408.111 152.425 407.031 151.344L385.719 130C385.179 129.459 384.458 129.19 383.75 129.188ZM435 129.875L430.844 132.531L431.719 135.625L436.75 135.969L437.438 132.344L435 129.875ZM462.531 138.781C462.038 138.8 461.539 138.902 461.062 139.125L456.562 141.25C454.661 142.142 453.827 144.411 454.719 146.312L456.844 150.812C457.736 152.714 460.004 153.549 461.906 152.656L466.406 150.531C467.595 149.974 468.374 148.894 468.562 147.688C468.676 146.964 468.585 146.182 468.25 145.469L466.125 140.969C465.456 139.542 464.012 138.724 462.531 138.781ZM401.75 148.094C402.156 148.094 402.564 148.251 402.875 148.562C403.497 149.185 403.498 150.191 402.875 150.812C402.252 151.434 401.247 151.435 400.625 150.812C400.003 150.19 400.002 149.185 400.625 148.562C400.936 148.252 401.345 148.093 401.75 148.094ZM468.156 150.625C467.864 150.874 467.552 151.11 467.188 151.281L461.969 153.719C461.604 153.89 461.223 153.997 460.844 154.062L467.594 168.406L474.906 165L468.156 150.625ZM405.438 151.75C405.845 151.752 406.252 151.907 406.562 152.219C407.184 152.842 407.185 153.847 406.562 154.469C405.94 155.091 404.935 155.091 404.312 154.469C403.691 153.846 403.69 152.841 404.312 152.219C404.624 151.908 405.031 151.748 405.438 151.75ZM440.062 152.188C439.178 152.396 438.69 152.524 438.188 152.719C437.281 153.07 436.363 153.503 435.406 153.969C435.536 154.105 435.772 154.376 435.844 154.469C437.816 157.04 441.363 161.638 440.719 165.125C437.515 166.417 434.343 167.755 430.875 168.156C427.254 168.575 423.272 168.021 419.656 167.562C418.252 167.385 416.705 166.885 415.281 167.125C414.511 167.255 413.709 167.58 412.906 167.969C409.251 170.806 405.979 173.762 403.031 176.969C402.54 177.503 402.149 177.92 401.219 178.812C401.131 178.897 401.08 178.922 401.031 178.969C400.183 179.784 399.576 180.411 399.094 180.969C399.238 181.057 399.538 181.21 399.594 181.25C402.469 183.333 407.342 183.958 410.812 183.594C423.268 182.284 434.113 177.533 445.406 172.406C447.316 171.539 449.362 170.758 451.438 170.406C451.833 170.339 454.142 170.443 454.344 170.219C455.098 169.387 451.568 165.419 451 164.75C447.467 160.586 443.011 156.781 440.062 152.188ZM400.906 152.875C401.315 152.875 401.72 153.032 402.031 153.344C402.653 153.967 402.654 155.003 402.031 155.625C401.408 156.247 400.403 156.216 399.781 155.594C399.159 154.971 399.158 153.966 399.781 153.344C400.093 153.033 400.498 152.875 400.906 152.875ZM372.219 171.5C372.142 171.571 372.078 171.646 372 171.719C370.647 172.983 369.621 174.106 367.438 176.625C364.26 180.291 361.677 184.137 358.875 189.281C354.334 197.62 353.051 202.441 353.969 209.562C358.409 212.167 368.79 212.738 372.719 213.156C373.328 213.136 374.105 213.115 374.406 213.094C375.266 213.031 375.82 212.868 376.25 212.531C376.195 212.149 376.165 211.778 376.125 211.406C376.949 211.661 377.808 211.879 378.656 212.031C380.568 212.373 382.498 212.514 384.438 212.531C386.37 212.548 388.308 212.422 390.219 212.125C392.256 211.809 394.339 211.331 396.062 210.156C397.639 209.082 399.19 207.645 400.156 205.938C400.736 204.913 401.09 203.806 401.125 202.594C401.137 202.173 401.132 201.728 401.062 201.312C400.99 200.876 400.876 200.463 400.688 200.062C399.988 198.576 398.527 197.996 397 197.719C396.139 197.562 395.273 197.498 394.406 197.375C393.793 197.288 393.165 197.15 392.594 196.906C392.22 196.747 391.856 196.526 391.531 196.281C390.119 195.215 389.241 193.629 388.375 192.125C387.97 191.421 387.564 190.715 387.094 190.062C387.517 189.802 387.943 189.533 388.375 189.312C388.617 188.328 388.366 187.525 387.562 186.281C387.471 186.14 387.307 185.91 387.094 185.594C386.915 185.406 386.641 185.134 386.531 185C383.982 181.894 377.24 173.391 372.219 171.5ZM446.562 179.906C446.193 179.721 445.72 179.831 445.125 180.344C444.142 181.19 444.232 183.576 443.812 184.719C442.764 187.574 440.165 190.574 437.812 192.438C435.149 194.547 428.175 194.644 426.844 197.062C425.958 198.673 427.202 200.056 427.719 201.625C428.343 203.521 428.659 205.153 428.625 206.844C428.714 207.069 428.764 207.304 428.75 207.562C428.748 207.592 428.783 207.595 428.781 207.625C428.701 209.027 428.149 214.637 428.062 215.906C427.63 222.268 428.184 226.729 430.219 230.031C431.559 230.512 433.13 230.569 434.469 230.938C437.883 231.876 441.688 232.21 445.188 231.375C445.948 231.03 447.023 230.613 447.656 230.25C449.023 229.467 450.108 228.27 451.719 226.062C451.882 225.838 453.014 224.295 453.281 223.938C454.158 222.764 454.852 221.642 455.531 220.5C457.019 217.034 457.637 212.988 457.125 209.281C456.621 205.629 454.028 201.751 451.281 199.375C450.503 198.702 449.473 197.964 448.562 197.125C448.551 197.146 448.511 197.166 448.5 197.188C447.987 196.603 447.426 195.957 446.906 195.906C446.67 195.883 446.303 196.49 446.156 196.625C445.517 197.211 444.577 197.665 443.812 198.094C443.78 198.112 443.751 198.108 443.719 198.125C445.497 196.115 447.077 192.568 447.531 189.812C447.67 188.471 447.747 187.112 447.812 185.781C447.853 183.579 447.67 180.462 446.562 179.906ZM386.094 190.688C386.696 191.52 387.198 192.421 387.719 193.312C388.695 194.985 389.799 196.672 391.5 197.688C393.214 198.711 395.3 198.547 397.188 198.969C398.169 199.188 399.144 199.6 399.594 200.562C399.735 200.864 399.822 201.172 399.875 201.5C400.083 202.776 399.799 203.988 399.25 205.062C398.335 206.854 396.652 208.321 395.031 209.375C394.339 209.825 393.505 210.112 392.719 210.344C391.836 210.604 390.941 210.798 390.031 210.938C388.187 211.221 386.334 211.299 384.469 211.281C382.515 211.263 380.546 211.115 378.625 210.75C377.745 210.583 376.877 210.358 376.031 210.062C375.931 208.289 375.998 206.637 376.344 205.031C377.517 199.579 381.406 193.976 386.094 190.688ZM416.469 209.031C415.434 208.782 414.406 209.435 414.156 210.469C413.907 211.503 414.528 212.532 415.562 212.781C416.597 213.03 417.657 212.378 417.906 211.344C418.155 210.309 417.503 209.28 416.469 209.031ZM412.875 210.906C411.841 210.657 410.78 211.278 410.531 212.312C410.282 213.347 410.934 214.376 411.969 214.625C413.003 214.874 414.064 214.253 414.312 213.219C414.561 212.184 413.909 211.155 412.875 210.906ZM409.312 213.625C408.278 213.376 407.217 213.997 406.969 215.031C406.72 216.066 407.372 217.126 408.406 217.375C409.441 217.624 410.47 216.972 410.719 215.938C410.968 214.903 410.347 213.874 409.312 213.625ZM406.719 217.438C405.684 217.189 404.655 217.841 404.406 218.875C404.157 219.909 404.809 220.938 405.844 221.188C406.878 221.436 407.908 220.784 408.156 219.75C408.405 218.716 407.753 217.686 406.719 217.438ZM405.562 221.594C404.528 221.345 403.499 221.997 403.25 223.031C403.001 224.066 403.622 225.095 404.656 225.344C405.691 225.593 406.75 224.972 407 223.938C407.249 222.903 406.597 221.843 405.562 221.594ZM404.656 226.031C403.622 225.782 402.593 226.403 402.344 227.438C402.095 228.472 402.747 229.501 403.781 229.75C404.816 229.999 405.845 229.378 406.094 228.344C406.343 227.309 405.691 226.28 404.656 226.031ZM405.219 230.594C404.184 230.345 403.124 230.965 402.875 232C402.626 233.034 403.278 234.095 404.312 234.344C405.347 234.593 406.376 233.941 406.625 232.906C406.874 231.872 406.253 230.843 405.219 230.594ZM407.156 234.656C406.122 234.407 405.062 235.028 404.812 236.062C404.564 237.097 405.215 238.157 406.25 238.406C407.284 238.655 408.313 238.003 408.562 236.969C408.811 235.934 408.191 234.905 407.156 234.656ZM409.531 237.938C408.497 237.689 407.436 238.34 407.188 239.375C406.939 240.409 407.59 241.439 408.625 241.688C409.659 241.936 410.688 241.316 410.938 240.281C411.186 239.247 410.566 238.186 409.531 237.938ZM371.75 240.469C370.818 240.52 369.746 240.673 368.406 240.938C368.134 240.991 366.283 241.356 365.844 241.438C364.404 241.705 363.118 242.058 361.844 242.438C358.4 243.976 355.199 246.522 353.062 249.594C350.957 252.62 350.247 257.235 350.656 260.844C350.772 261.867 351.025 263.141 351.125 264.375C351.148 264.367 351.165 264.351 351.188 264.344C351.168 265.122 351.182 265.985 351.531 266.375C351.69 266.552 352.362 266.374 352.562 266.375C353.43 266.378 354.398 266.671 355.25 266.875C355.286 266.884 355.308 266.896 355.344 266.906C352.674 267.178 349.109 268.719 346.906 270.438C345.894 271.329 344.918 272.253 343.969 273.188C341.938 275.309 339.108 278.925 342.25 279.031C343.546 279.075 345.135 277.243 346.219 276.688C348.926 275.3 352.851 274.869 355.844 275.094C359.232 275.348 364.413 280 367.031 279.125C368.774 278.542 368.816 276.69 369.5 275.188C370.326 273.371 371.173 271.938 372.344 270.719C372.431 270.493 372.565 270.273 372.75 270.094C372.771 270.073 372.76 270.084 372.781 270.062C373.79 269.087 377.982 265.312 378.906 264.438C383.538 260.054 386.162 256.401 386.906 252.594C386.247 251.331 385.141 250.209 384.406 249.031C382.532 246.026 379.95 243.227 376.812 241.469C376.019 241.207 374.961 240.788 374.25 240.625C373.482 240.449 372.682 240.418 371.75 240.469ZM409.469 257.844C408.986 257.747 408.474 257.861 408.031 258.156C407.147 258.748 406.908 259.928 407.5 260.812C408.092 261.697 409.272 261.935 410.156 261.344C411.04 260.752 411.279 259.572 410.688 258.688C410.392 258.245 409.952 257.941 409.469 257.844ZM408.969 261.875C408.484 261.779 407.973 261.86 407.531 262.156C406.647 262.748 406.408 263.959 407 264.844C407.592 265.728 408.772 265.967 409.656 265.375C410.54 264.783 410.779 263.572 410.188 262.688C409.892 262.245 409.453 261.971 408.969 261.875ZM407.656 266.188C407.173 266.093 406.661 266.173 406.219 266.469C405.335 267.06 405.096 268.24 405.688 269.125C406.279 270.009 407.459 270.279 408.344 269.688C409.228 269.096 409.466 267.884 408.875 267C408.579 266.558 408.139 266.282 407.656 266.188ZM404.938 269.906C404.455 269.809 403.942 269.892 403.5 270.188C402.616 270.779 402.377 271.99 402.969 272.875C403.56 273.759 404.772 273.998 405.656 273.406C406.54 272.815 406.748 271.603 406.156 270.719C405.86 270.277 405.42 270.004 404.938 269.906ZM401.281 272.562C400.797 272.466 400.286 272.548 399.844 272.844C398.96 273.435 398.721 274.615 399.312 275.5C399.904 276.384 401.116 276.622 402 276.031C402.884 275.44 403.123 274.26 402.531 273.375C402.235 272.933 401.766 272.658 401.281 272.562ZM384.75 274.406C384.267 274.309 383.755 274.392 383.312 274.688C382.428 275.279 382.189 276.46 382.781 277.344C383.373 278.228 384.553 278.466 385.438 277.875C386.322 277.283 386.56 276.103 385.969 275.219C385.673 274.777 385.233 274.503 384.75 274.406ZM397.625 274.812C397.141 274.716 396.599 274.798 396.156 275.094C395.272 275.685 395.065 276.898 395.656 277.781C396.248 278.665 397.428 278.904 398.312 278.312C399.197 277.721 399.435 276.51 398.844 275.625C398.548 275.183 398.109 274.909 397.625 274.812ZM388.656 275.469C388.172 275.373 387.661 275.454 387.219 275.75C386.335 276.342 386.096 277.554 386.688 278.438C387.279 279.322 388.46 279.561 389.344 278.969C390.228 278.377 390.466 277.165 389.875 276.281C389.579 275.839 389.141 275.565 388.656 275.469ZM393.125 275.875C392.642 275.78 392.129 275.891 391.688 276.188C390.803 276.779 390.565 277.96 391.156 278.844C391.748 279.728 392.96 279.967 393.844 279.375C394.728 278.783 394.966 277.603 394.375 276.719C394.079 276.277 393.608 275.969 393.125 275.875ZM328.625 280.219C327.507 280.319 327.411 285.623 327.375 286.5C327.149 291.957 327.853 297.781 326.906 303.156C327.698 303.603 328.155 303.834 328.656 304.031C329.561 304.387 330.512 304.694 331.531 305C331.529 304.812 331.521 304.46 331.531 304.344C331.824 301.117 332.351 295.346 335.188 293.219C338.419 294.44 341.678 295.6 344.5 297.656C347.446 299.803 349.965 302.899 352.312 305.688C353.224 306.77 354.04 308.181 355.25 308.969C355.904 309.395 356.708 309.711 357.562 309.969C362.173 310.361 366.566 310.391 370.906 310.031C371.629 309.971 372.211 309.964 373.5 309.938C373.622 309.935 373.682 309.939 373.75 309.938C374.926 309.913 375.798 309.864 376.531 309.781C376.485 309.618 376.388 309.285 376.375 309.219C375.674 305.738 372.486 301.991 369.688 299.906C359.644 292.425 348.465 288.544 336.688 284.656C334.696 283.999 332.638 283.179 330.875 282.031C330.539 281.813 328.926 280.191 328.625 280.219ZM395.594 290.219C394.597 290.257 393.621 290.388 392.688 290.688C391.566 291.048 390.535 291.632 389.688 292.5C389.393 292.801 389.107 293.147 388.875 293.5C388.632 293.87 388.446 294.233 388.312 294.656C387.819 296.223 388.472 297.636 389.406 298.875C389.933 299.574 390.541 300.229 391.094 300.906C391.485 301.385 391.87 301.901 392.125 302.469C392.292 302.84 392.397 303.225 392.469 303.625C392.784 305.366 392.322 307.151 391.938 308.844C391.758 309.636 391.628 310.42 391.531 311.219C391.043 311.123 390.53 311.038 390.062 310.906C389.217 311.466 388.877 312.229 388.625 313.688C388.596 313.853 388.558 314.123 388.5 314.5C388.504 314.759 388.51 315.14 388.5 315.312C388.268 319.324 387.467 330.143 389.875 334.938C389.98 334.938 390.081 334.938 390.188 334.938C392.039 334.925 393.531 334.809 396.844 334.438C401.665 333.898 406.172 332.789 411.719 330.906C420.71 327.855 424.94 325.201 429.094 319.344C427.595 314.419 420.354 306.971 417.75 304C417.288 303.601 416.674 303.094 416.438 302.906C415.763 302.369 415.263 302.075 414.719 302.031C414.5 302.35 414.286 302.669 414.062 302.969C413.629 302.223 413.145 301.499 412.625 300.812C411.452 299.265 410.103 297.829 408.688 296.5C407.279 295.177 405.792 293.952 404.188 292.875C402.475 291.726 400.626 290.68 398.562 290.375C397.619 290.235 396.591 290.181 395.594 290.219ZM395.75 291.406C396.789 291.378 397.828 291.494 398.781 291.656C399.595 291.795 400.39 292.137 401.125 292.5C401.95 292.908 402.737 293.36 403.5 293.875C405.048 294.917 406.485 296.129 407.844 297.406C409.267 298.744 410.617 300.18 411.781 301.75C412.315 302.47 412.797 303.209 413.219 304C412.09 305.371 410.906 306.554 409.562 307.5C405.004 310.712 398.363 312.199 392.688 311.438C392.809 310.417 393.028 309.383 393.25 308.375C393.666 306.484 394 304.525 393.438 302.625C392.871 300.711 391.227 299.434 390.125 297.844C389.552 297.017 389.115 296.043 389.438 295.031C389.539 294.714 389.692 294.434 389.875 294.156C390.587 293.078 391.587 292.387 392.719 291.969C393.662 291.621 394.711 291.435 395.75 291.406ZM328.656 314.562C325.714 314.857 322.909 316.203 320.812 318.469L322.031 319.562C325.264 316.067 330.439 315.096 334.75 317.281C340.043 319.965 342.184 326.457 339.5 331.75C336.817 337.043 330.325 339.152 325.031 336.469C320.677 334.261 318.397 329.399 319.375 324.688L317.781 324.375C316.655 329.805 319.295 335.394 324.312 337.938C330.412 341.03 337.845 338.568 340.938 332.469C344.03 326.369 341.599 318.936 335.5 315.844C334.258 315.214 332.943 314.812 331.625 314.625C330.636 314.485 329.637 314.464 328.656 314.562ZM318.344 317.344L315.375 319.531L315.469 323L320.344 323.844L321.812 320.969L318.344 317.344ZM367.812 322.688L353.25 323.281C351.723 323.342 350.564 324.629 350.625 326.156L351.812 356.281C351.873 357.808 353.16 359.03 354.688 358.969L369.219 358.375C370.746 358.314 371.936 357.028 371.875 355.5L370.656 325.344C370.596 323.817 369.34 322.627 367.812 322.688ZM353.094 324.188C353.973 324.153 354.716 324.839 354.75 325.719C354.785 326.598 354.098 327.341 353.219 327.375C352.339 327.41 351.597 326.723 351.562 325.844C351.528 324.964 352.215 324.222 353.094 324.188ZM357.188 326.406C358.067 326.371 358.778 327.058 358.812 327.938C358.847 328.817 358.192 329.56 357.312 329.594C356.433 329.629 355.69 328.942 355.656 328.062C355.621 327.183 356.308 326.441 357.188 326.406ZM353.281 329.375C354.161 329.34 354.903 330.027 354.938 330.906C354.972 331.786 354.286 332.528 353.406 332.562C352.527 332.597 351.784 331.91 351.75 331.031C351.715 330.152 352.402 329.409 353.281 329.375ZM390.562 358.969C386.791 359.024 382.863 360.083 379.688 362.062C376.559 364.013 374.08 367.992 373.031 371.469C372.734 372.454 372.457 373.701 372.062 374.875C372.086 374.877 372.101 374.874 372.125 374.875C371.801 375.582 371.49 376.379 371.656 376.875C371.732 377.1 372.41 377.202 372.594 377.281C373.389 377.626 374.171 378.258 374.875 378.781C374.905 378.804 374.94 378.852 374.969 378.875C372.408 378.072 368.514 378.071 365.812 378.781C364.531 379.202 363.273 379.673 362.031 380.156C359.328 381.305 355.311 383.506 358.156 384.844C359.33 385.396 361.473 384.332 362.688 384.25C365.722 384.043 369.526 385.206 372.188 386.594C375.2 388.164 378.124 394.49 380.875 394.719C382.706 394.871 383.467 393.174 384.688 392.062C386.164 390.719 387.506 389.753 389.062 389.094C389.232 388.921 389.446 388.748 389.688 388.656C389.715 388.646 389.691 388.636 389.719 388.625C391.031 388.126 396.4 386.345 397.594 385.906C403.579 383.706 407.408 381.361 409.594 378.156C409.486 376.736 408.897 375.278 408.688 373.906C408.151 370.406 406.909 366.822 404.719 363.969C404.093 363.415 403.278 362.619 402.688 362.188C401.415 361.259 399.86 360.726 397.188 360.156C396.916 360.098 395.06 359.724 394.625 359.625C393.196 359.303 391.883 359.123 390.562 358.969ZM345.156 380.562C344.089 380.214 341.88 385.021 341.5 385.812C339.14 390.737 337.491 396.404 334.5 400.969C335.051 401.692 335.398 402.058 335.781 402.438C336.472 403.122 337.215 403.785 338.031 404.469C338.103 404.295 338.257 403.978 338.312 403.875C339.855 401.025 342.617 395.929 346.062 395.094C348.55 397.491 351.062 399.841 352.844 402.844C354.704 405.979 355.818 409.824 356.875 413.312C357.286 414.667 357.449 416.267 358.25 417.469C358.683 418.119 359.317 418.738 360 419.312C364.082 421.492 368.12 423.274 372.25 424.656C372.938 424.886 373.462 425.078 374.656 425.562C374.77 425.608 374.844 425.631 374.906 425.656C375.997 426.098 376.795 426.381 377.5 426.594C377.522 426.426 377.548 426.098 377.562 426.031C378.291 422.556 376.874 417.863 375.125 414.844C368.847 404.007 360.101 396.031 350.812 387.812C349.242 386.423 347.668 384.876 346.5 383.125C346.278 382.792 345.444 380.656 345.156 380.562ZM426.812 391.594C425.767 391.788 425.087 392.799 425.281 393.844C425.476 394.89 426.486 395.57 427.531 395.375C428.577 395.18 429.257 394.202 429.062 393.156C428.868 392.11 427.858 391.399 426.812 391.594ZM424.781 395.094C423.735 395.288 423.024 396.298 423.219 397.344C423.413 398.39 424.423 399.101 425.469 398.906C426.515 398.712 427.226 397.702 427.031 396.656C426.837 395.61 425.826 394.899 424.781 395.094ZM397.562 397.031C396.517 397.226 395.837 398.235 396.031 399.281C396.226 400.327 397.235 401.039 398.281 400.844C399.327 400.649 400.008 399.64 399.812 398.594C399.618 397.548 398.608 396.836 397.562 397.031ZM421.844 398.531C420.798 398.726 420.118 399.736 420.312 400.781C420.507 401.827 421.517 402.507 422.562 402.312C423.608 402.118 424.288 401.108 424.094 400.062C423.899 399.017 422.889 398.337 421.844 398.531ZM400.75 399.562C399.704 399.757 398.993 400.767 399.188 401.812C399.382 402.858 400.392 403.57 401.438 403.375C402.483 403.18 403.195 402.171 403 401.125C402.805 400.079 401.796 399.368 400.75 399.562ZM417.906 400.875C416.86 401.07 416.149 402.08 416.344 403.125C416.538 404.171 417.548 404.882 418.594 404.688C419.64 404.493 420.351 403.483 420.156 402.438C419.962 401.392 418.952 400.68 417.906 400.875ZM404.688 401.719C403.642 401.913 402.962 402.923 403.156 403.969C403.351 405.015 404.361 405.695 405.406 405.5C406.452 405.305 407.133 404.296 406.938 403.25C406.743 402.204 405.733 401.524 404.688 401.719ZM413.5 401.875C412.454 402.07 411.774 403.079 411.969 404.125C412.163 405.171 413.173 405.851 414.219 405.656C415.265 405.462 415.944 404.452 415.75 403.406C415.555 402.36 414.546 401.68 413.5 401.875ZM409.219 402.5C408.173 402.695 407.493 403.704 407.688 404.75C407.882 405.796 408.892 406.476 409.938 406.281C410.983 406.087 411.664 405.077 411.469 404.031C411.274 402.985 410.265 402.306 409.219 402.5ZM396.406 415.938C396.017 416.098 395.632 416.299 395.281 416.531C394.912 416.775 394.57 417.039 394.281 417.375C394.126 417.555 394.141 417.777 394.031 417.969C394.246 417.948 394.436 417.845 394.656 417.844C395.245 417.096 395.816 416.605 396.406 415.938Z" fill="#1A1A1A"/>
<path d="M-11.667 564.879C-11.667 564.879 78.7495 584.551 144.794 532.038C210.839 479.525 290.654 410.625 285.262 384.105C279.869 357.585 267.87 353.773 247.153 357.494C226.436 361.214 208.334 451.733 279.093 467.503C349.852 483.273 382.368 457.093 418.527 499.978" stroke="#ED835E" stroke-width="5" stroke-miterlimit="10" stroke-linejoin="round" stroke-dasharray="20 20"/>
</g>
<mask id="mask1_341_2954" style="mask-type:luminance" maskUnits="userSpaceOnUse" x="-9" y="-119" width="391" height="844">
<path d="M381.5 -119H-8.5V725H381.5V-119Z" fill="white"/>
</mask>
<g mask="url(#mask1_341_2954)">
<path d="M207.25 37.812C206.197 37.925 205.343 38.293 204.562 38.75C204.12 39.509 203.47 40.037 202.938 40.688C202.165 44.042 199.409 46.965 195.188 49.594C191.781 51.715 188.119 53.109 185.219 53.562C185.15 53.589 185.103 53.632 185.031 53.656C184.868 53.712 184.694 53.726 184.531 53.781C178.422 56.587 171.745 58.297 165.438 58.344C157.109 59.851 148.723 61.175 140.656 63.594L154 63.188C152.98 66.184 152.201 69.219 151.531 72.312C146.879 66.89 139.027 66.253 133.625 68.625C133.292 68.992 132.842 69.496 132.781 69.562C131.07 71.437 130.119 72.457 129.031 73.594C126.28 76.47 123.907 79.162 119.438 84.438C118.996 84.959 119.005 84.946 118.562 85.469C111.549 93.747 107.974 97.71 103.312 101.969C102.86 102.383 102.356 102.71 101.812 102.906C101.809 102.911 101.785 102.901 101.781 102.906C100.86 104.179 99.9798 105.533 99.0308 106.75C92.6428 114.942 86.6371 123.612 78.6248 130.344C75.0867 133.316 70.9849 134.752 66.906 136.344C66.6284 137.289 66.1172 138.169 65.2498 138.781C64.0554 139.625 60.9999 141.389 60.9686 141.406C59.4931 142.228 58.8283 142.611 58.0936 143.094C57.2755 143.631 56.3466 143.759 55.4373 143.719C54.9693 144.089 54.5894 144.574 54.0623 144.875C52.6736 145.668 50.0555 144.794 49.4686 146.281C47.9469 150.137 65.9723 163.588 70.5936 162.906C74.807 162.284 76.9118 158.373 80.031 156.062C86.8658 150.999 93.9148 146.333 100.812 141.344C113.739 131.993 125.311 122.657 136.375 111.031C139.63 107.61 141.312 103.17 144.656 99.688C145.946 98.344 147.365 96.67 148.719 94.875C147.458 111.857 146.958 129.139 140.156 144.812C137.303 151.386 125.822 166.716 129.594 173.375C142.009 195.293 163.919 199.773 186.688 205.219C202.069 208.898 216.676 213.362 232.375 215.688C238.333 216.57 263.093 218.75 267.531 214C270.947 210.345 269.32 199.527 269.656 194.844C270.862 178.081 270.274 160.883 272.656 144.188C275.429 124.757 279.776 105.041 280.938 85.5C281.21 80.91 284.193 68.935 281.656 64.875C280.078 62.349 253.865 57.217 248.844 55C239.076 50.687 246.051 43.541 243.781 40.969C243.753 40.937 221.126 39.553 218.75 39.219C215.914 38.82 210.99 37.414 207.25 37.812ZM287.094 72.469L287.344 82.219C280.476 94.155 277.848 114.482 286.438 126.656C291.137 133.317 296.054 139.098 299.406 146.844C301.253 151.111 301.103 165.853 302.344 167.188C305.642 170.734 320.911 168.074 323.375 164.25C323.488 164.075 323.502 163.12 323.562 162.562C330.109 151.684 323.267 125.635 318.969 116.562C318.965 116.554 318.973 116.539 318.969 116.531C316.44 108.323 313.113 100.306 309.875 91.406C308.817 88.499 308.759 85.233 307 82.562C302.659 75.972 294.493 72.469 287.094 72.469Z" fill="black"/>
<path d="M278.281 136.031C277.439 135.777 276.536 136.283 276.281 137.125C273.759 145.487 269.525 153.341 268.719 162.156C267.944 170.623 267.852 179.129 267.781 187.625C267.674 200.625 267.431 213.861 263.5 226.375C261.992 231.176 259.949 235.707 257.438 240.062C257.021 240.784 257.247 241.709 257.969 242.125C258.69 242.541 259.615 242.284 260.031 241.562C262.937 236.524 265.249 231.246 266.875 225.656C270.619 212.783 270.757 199.265 270.906 185.969C270.994 178.116 271.122 170.293 271.844 162.469C272.634 153.899 276.885 146.165 279.344 138.031C279.598 137.189 279.123 136.286 278.281 136.031Z" fill="#FDFDFD"/>
<path d="M191.188 195.281C191.091 196.54 191.253 197.04 191.344 197.312C191.348 197.317 191.373 197.303 191.375 197.312C191.677 198.932 191.367 197.304 191.688 197.219C192.224 197.076 192.549 196.537 192.406 196C192.263 195.463 191.724 195.138 191.188 195.281ZM191.344 197.312C191.302 197.268 191.177 197.376 191.094 197.406C190.935 197.465 190.808 197.582 190.656 197.656C190.681 197.858 190.759 197.984 190.969 197.875C191.437 197.631 191.44 197.602 191.344 197.312ZM190.656 197.656C190.594 197.148 190.954 195.955 190.812 195.375C190.78 195.24 190.537 195.452 190.406 195.5C190.028 195.639 189.661 195.829 189.312 196.031C188.123 196.723 187.132 197.746 186.5 198.969C185.049 201.776 185.716 205.505 189.281 205.938C191.711 206.232 194.295 205.136 195.25 202.781C195.467 202.246 195.603 201.642 195.531 201.062C195.397 199.984 194.533 199.236 193.438 199.281C192.904 199.303 192.376 199.508 191.906 199.75C192.444 199.61 192.164 201.248 192.5 201.875C192.571 202.007 192.742 201.695 192.875 201.625C193.046 201.534 193.249 201.457 193.438 201.406C193.395 201.463 193.412 201.626 193.375 201.75C192.937 203.23 191.46 203.829 190.031 203.875C189.027 203.907 188.085 203.54 187.844 202.469C187.496 200.922 188.46 199.204 189.625 198.25C189.934 197.997 190.299 197.831 190.656 197.656ZM191.906 199.75C191.879 199.757 191.876 199.702 191.844 199.719C191.765 199.76 191.83 199.784 191.781 199.812C191.821 199.779 191.841 199.768 191.875 199.75C191.884 199.745 191.897 199.755 191.906 199.75ZM191.781 199.812C191.596 199.966 191.371 200.267 191.344 200.094C191.092 198.512 191.339 200.081 190.781 200.469C190.3 200.804 190.164 201.457 190.5 201.938C190.836 202.418 191.519 202.555 192 202.219C191.866 199.982 191.359 200.06 191.781 199.812Z" fill="#FDFDFD"/>
<path d="M204 37.156C203.619 37.301 203.274 37.599 203.094 38C202.329 39.704 201.462 41.301 200.312 42.781C196.575 47.595 191.023 50.52 185.375 52.5C175.145 56.086 164.28 56.818 153.719 58.938C152.902 59.101 152.368 59.902 152.531 60.719C152.695 61.535 153.496 62.039 154.312 61.875C165.018 59.733 176.021 59.05 186.406 55.469C192.652 53.315 198.688 50.052 202.812 44.75C204.118 43.071 205.127 41.245 206 39.312C206.361 38.51 206.021 37.549 205.219 37.188C204.818 37.007 204.381 37.012 204 37.156Z" fill="#FDFDFD"/>
<path d="M243.844 41.219C243.027 41.056 242.225 41.589 242.062 42.406C241.439 45.538 240.265 48.821 241.844 51.875C242.564 53.267 243.969 54.257 245.281 55.031C247.617 56.409 250.205 57.4 252.75 58.312C262.233 61.71 272.136 63.833 281.969 65.938C282.829 66.121 283.66 65.579 283.844 64.719C284.027 63.858 283.485 63.027 282.625 62.844C272.926 60.782 263.151 58.701 253.781 55.406C251.413 54.574 249.016 53.679 246.844 52.406C246.072 51.954 244.957 51.342 244.531 50.5C243.364 48.192 244.534 45.315 245 42.969C245.163 42.152 244.661 41.381 243.844 41.219Z" fill="#FDFDFD"/>
<path d="M139.031 64.312C138.647 64.274 138.26 64.393 137.938 64.656C130.567 70.685 123.867 77.429 117.5 84.5C111.17 91.53 105.174 98.849 98.8748 105.906C96.9188 108.098 94.8968 110.245 92.9058 112.406C91.7248 113.689 90.5717 115.012 89.3436 116.25C86.8783 118.735 84.211 121.075 81.656 123.469C76.925 127.901 71.8946 132.049 66.4998 135.656C61.3434 139.104 55.7974 141.992 49.6248 143C48.7567 143.142 48.1698 143.976 48.3123 144.844C48.4548 145.712 49.2567 146.299 50.1248 146.156C56.7509 145.064 62.712 142.02 68.2498 138.312C74.294 134.266 79.8046 129.504 85.0936 124.531C87.2447 122.509 89.4882 120.57 91.5618 118.469C93.6418 116.363 95.5938 114.088 97.5938 111.906C111.5 96.737 123.828 80.107 139.844 67C140.488 66.473 140.59 65.52 140.062 64.875C139.799 64.553 139.415 64.351 139.031 64.312Z" fill="#FDFDFD"/>
<path d="M140.969 99.875C140.565 99.929 140.205 100.119 139.938 100.469C135.607 106.135 131.608 112.083 127 117.531C124.996 119.901 122.83 122.131 120.594 124.281C106.992 137.364 90.6506 147.183 75.1873 157.844C74.5015 158.316 74.3084 159.252 74.781 159.938C75.2537 160.623 76.189 160.785 76.8748 160.312C92.4788 149.564 108.996 139.725 122.75 126.562C125.07 124.343 127.328 122.043 129.406 119.594C134.057 114.113 138.102 108.11 142.469 102.406C143.003 101.708 142.855 100.722 142.156 100.188C141.807 99.92 141.373 99.821 140.969 99.875Z" fill="#FDFDFD"/>
<path d="M132.383 112.965C137.063 107.422 134.784 87.989 133.588 81.072C133.277 79.275 130.873 74.45 131.435 72.779C131.76 71.81 133.777 70.611 134.528 69.9C137.058 67.508 142.343 62.551 143.394 68.729C144.073 72.721 142.861 77.543 142.495 81.496C141.94 87.485 142.128 94.761 140.468 100.59C139.445 104.183 136.807 107.34 135.037 110.585" fill="#FDFDFD"/>
<path d="M278.219 114.562C277.833 114.552 277.427 114.682 277.125 114.969C276.52 115.541 276.49 116.489 277.062 117.094C281.843 122.147 286.355 127.44 290.062 133.344C293.774 139.254 296.615 145.665 298.531 152.375C299.209 154.749 299.775 157.171 300.25 159.594C300.703 161.901 301.04 164.194 300.688 166.531C300.558 167.401 301.13 168.183 302 168.312C302.87 168.442 303.683 167.87 303.812 167C304.285 163.787 303.739 160.649 303.062 157.5C302.49 154.835 301.79 152.194 300.969 149.594C298.981 143.303 296.193 137.287 292.656 131.719C288.814 125.669 284.168 120.225 279.25 115.031C278.964 114.729 278.605 114.573 278.219 114.562Z" fill="#FDFDFD"/>
<path d="M288.531 68.312C287.7 68.362 287.076 69.075 287.125 69.906C287.174 70.738 287.887 71.393 288.719 71.344C290.56 71.235 292.396 71.269 294.188 71.75C301.821 73.798 305.243 82.471 307.781 89.094C308.213 90.221 308.521 91.115 308.938 92.25C313.724 105.302 318.099 118.577 320.875 132.219C322.81 141.728 323.884 151.309 324.312 161C324.352 161.879 325.09 162.57 325.969 162.531C326.848 162.492 327.539 161.754 327.5 160.875C327.057 151.02 325.957 141.23 323.969 131.562C321.018 117.215 316.365 103.287 311.219 89.594C308.073 81.225 304.014 70.786 294.219 68.656C292.341 68.248 290.442 68.2 288.531 68.312Z" fill="#FDFDFD"/>
<path d="M143.531 124.844C142.653 124.901 141.974 125.653 142.031 126.531C142.372 131.684 141.194 136.783 139.5 141.625C137.885 146.242 135.785 150.715 133.156 154.844C131.034 158.177 128.509 161.249 126.5 164.656C125.556 166.257 124.773 167.897 124.094 169.625C123.789 170.4 124.194 171.289 124.969 171.594C125.744 171.898 126.602 171.494 126.906 170.719C129.14 165.034 133.25 160.559 136.406 155.406C138.868 151.388 140.923 147.096 142.5 142.656C144.362 137.412 145.574 131.931 145.219 126.344C145.162 125.466 144.409 124.787 143.531 124.844Z" fill="#FDFDFD"/>
<path d="M160.259 59.437C159.129 64.072 159.356 70.761 160.379 75.43C160.793 77.318 168.117 83.378 169.906 85.115C182.062 96.914 196.031 108.034 213.84 108.361C224.077 108.549 234.77 108.041 244.567 105.038C246.73 104.375 260.264 100.243 259.577 102.297C258.424 105.747 254.518 109.379 252.334 112.153C249.435 115.834 246.647 119.836 242.786 122.608C236.221 127.321 227.306 128.444 219.536 129.426C205.656 131.18 192.614 131.436 178.797 128.932C171.876 127.678 166.339 125.672 160.211 122.299C151.73 117.631 143.771 114.221 138.458 105.706C135.096 100.318 138.655 99.854 139.921 94.939C141.808 87.617 142.605 79.963 143.951 72.536C144.251 70.877 143.888 63.266 145.416 62.428C148.592 60.687 153.392 60.29 156.911 59.571" fill="#FDFDFD"/>
<path d="M278.992 64.57C280.333 70.041 278.006 76.11 276.599 81.546C276.047 83.679 269.932 96.833 273.867 96.447C281.041 95.743 285.214 75.102 285.639 68.788C285.75 67.138 285.393 65.523 283.653 64.858C282.501 64.418 278.796 63.77 278.992 64.57Z" fill="#FDFDFD"/>
<path d="M290.197 69.681C289.03 70.172 287.984 71.063 287.094 72.465C281.025 82.024 283.399 95.942 282.857 106.654C282.703 109.694 281.803 112.669 281.433 115.687C280.661 121.991 280.311 121.174 284.4 125.444C284.912 125.98 285.82 127.293 286.713 127.216C286.923 127.198 286.974 126.893 287.06 126.674C287.312 128.102 287.777 129.578 288.639 131.125L289.996 132.474C290.083 132.316 290.143 132.142 290.228 131.982C290.325 129.295 290.56 126.505 291.122 123.316C291.452 121.44 293.383 112.227 293.771 110.269C295.034 103.895 295.63 101.089 296.548 97.494C298.634 89.33 301.305 82.917 304.933 77.548C302.365 74.335 299.215 72.601 293.268 70.807C292.926 70.703 292.573 70.587 292.162 70.428C291.945 70.344 290.768 69.856 290.57 69.784C290.393 69.72 290.32 69.713 290.197 69.681Z" fill="#FDFDFD"/>
<path d="M271.351 142.053C267.1 141.729 262.135 142.5 258.447 142.349C250.383 142.019 242.374 141.133 234.31 140.788C225.869 140.426 217.409 140.174 208.961 139.825C207.301 139.38 205.678 138.908 204.01 138.465C193.507 135.676 181.892 132.109 170.895 133.995L143.615 132.291C146.257 133.384 148.677 136.204 151 137.901C155.664 141.308 160.504 144.527 165.611 147.241C176.306 152.924 187.209 158.418 198.301 163.488C199.055 163.745 199.807 163.946 200.56 164.182C203.845 164.925 207.093 165.618 210.016 166.216C226.242 167.781 243.667 165.911 270.025 160.573C270.115 160.555 270.16 160.525 270.25 160.507C270.247 160.326 270.27 160.226 270.262 160.047C270.926 159.832 271.779 159.647 271.947 159.391C273.282 157.368 272.182 151.771 272.725 149.208C273.059 147.627 273.695 145.931 274.335 144.445C274.584 143.869 275.893 143.054 275.302 142.841C274.116 142.412 272.768 142.161 271.351 142.053Z" fill="#FDFDFD"/>
<path d="M271.161 159.156C270.623 158.581 256.771 161.614 255.045 161.874C239.376 164.24 223.492 165.928 207.677 163.595L199.322 163.458L198.378 163.251C198.566 163.331 198.75 163.378 198.938 163.458H198.133C199.114 163.732 200.059 164.006 201.035 164.283C210.156 167.986 218.939 170.594 228.442 171.889C236.005 173.787 243.632 175.445 251.584 176.432C254.351 176.775 266.931 179.344 268.993 178.359C271.026 177.387 271.459 165.441 271.196 163.251C271.115 162.584 271.512 159.531 271.161 159.156Z" fill="#FDFDFD"/>
<path d="M126.428 157.054C126.142 157.527 125.643 158.353 125.545 158.516C122.089 164.272 119.788 168.407 117.622 172.765C117.064 173.89 116.681 174.915 115.887 177.428C115.846 177.558 115.847 177.567 115.806 177.697C114.598 181.516 113.818 183.455 112.358 185.593C101.428 201.602 87.6207 215.898 66.6142 234.406C59.864 240.353 52.3331 245.324 43.8206 249.749C44.7011 251.543 46.9019 252.841 48.1402 254.165C55.9944 262.559 66.1944 268.95 77.0668 272.954C80.8641 274.352 85.7044 274.706 89.2562 276.647C93.9919 279.234 94.5259 287.779 97.5759 292.241C99.4229 294.943 103.056 296.75 105.82 298.315C115.871 304.01 127.629 308.351 139.032 310.312C143.299 311.046 152.997 308.119 156.214 310.007C159.46 311.912 160.125 316.536 164.191 318.316C180.115 325.287 209.782 332.428 227.148 330.824C233.954 330.195 238.397 325.321 244.697 324.181C247.206 323.727 251.336 325.288 253.988 325.442C263.226 325.979 272.195 326.042 281.35 324.821C283.754 324.5 289.262 324.208 292.774 322.625C292.581 322.413 291.99 321.78 291.978 321.768C290.851 320.536 290.162 319.722 289.508 318.792C282.039 308.171 277.091 296.914 273.09 282.423C268.602 266.173 267.034 248.547 269.792 235.255C270.005 234.231 270.361 233.397 270.794 232.627C270.821 232.474 270.797 232.326 270.843 232.173C272.516 226.651 273.471 221.97 275.263 211.586C275.502 210.206 275.619 209.636 275.749 208.919C246.33 206.767 217.467 201.181 191.087 192.004C188.365 191.057 176.822 187.266 175.161 186.71C158.218 181.043 147.917 176.376 138.554 169.082C134.873 166.214 132.339 163.618 126.94 157.59C126.69 157.312 126.652 157.303 126.428 157.054Z" fill="#AF52DE"/>
<path d="M283.993 61.926C283.941 62.088 283.926 62.038 283.868 62.223C282.843 65.449 282.154 67.059 281.39 69.214C281.227 69.969 281.076 70.793 281.037 70.966C280.234 74.572 279.635 76.86 278.921 79.304C277.68 83.551 276.146 86.916 274.331 89.899C262.798 96.614 234.615 111.274 210.302 109.089C183.414 106.671 163.026 84.355 157.638 77.937C157.627 77.878 157.604 77.85 157.594 77.787C157.549 77.51 157.471 77.239 157.427 76.938C157.271 75.87 157.033 73.663 157.046 73.736C157.012 73.539 157.007 73.35 156.974 73.154C156.005 68.502 155.384 63.096 154.792 55.529C154.756 55.066 154.671 54.289 154.622 53.718C149.844 54.101 145.036 54.516 140.211 55.058C139.524 62.472 138.847 68.655 138.107 78.065C138.002 79.406 136.5 98.847 135.971 104.981C135.826 106.653 135.317 108.938 134.428 112.711C134.151 113.885 132.678 120.142 132.259 121.929C131.668 124.448 131.386 125.955 131.012 127.826C133.273 129.027 135.911 129.98 136.393 130.154C145.166 135.879 169.007 150.128 198.826 156.312C244.661 165.817 272.444 151.738 280.578 146.777C281.666 146.615 282.634 146.401 283.127 146.064C283.83 145.586 284.451 144.539 285.043 143.35C285.251 142.366 285.464 141.269 285.674 140.261C285.673 140.233 285.688 140.22 285.687 140.192C285.591 138.101 285.605 136.317 285.718 134.324C286.842 114.177 289.426 94.274 294.23 65.347C294.26 65.167 294.428 64.271 294.467 64.037C290.97 63.325 287.282 62.557 283.993 61.926Z" fill="#AF52DE"/>
<path d="M135.031 210.406C134.658 210.503 134.305 210.766 134.094 211.125C127.111 223.018 119.745 234.675 111.781 245.938C102.38 259.234 92.2059 271.936 81.3749 284.094C80.79 284.751 80.874 285.759 81.5311 286.344C82.1883 286.929 83.1962 286.845 83.7811 286.188C92.1769 276.748 100.192 267.023 107.719 256.875C118.231 242.702 127.762 227.872 136.688 212.656C137.109 211.938 136.875 210.984 136.156 210.562C135.797 210.352 135.405 210.309 135.031 210.406Z" fill="#FDFDFD"/>
<path d="M168.406 243.031C167.586 242.887 166.832 243.43 166.688 244.25C162.274 269.285 157.057 294.146 150.906 318.812C150.694 319.666 151.209 320.506 152.062 320.719C152.916 320.931 153.788 320.416 154 319.562C160.146 294.818 165.241 269.89 169.656 244.781C169.801 243.961 169.227 243.176 168.406 243.031Z" fill="#FDFDFD"/>
<path d="M235.625 264.156C234.795 264.226 234.18 264.951 234.25 265.781C234.976 274.45 237.92 282.638 240.219 290.969C242.335 298.639 244.346 306.346 247.031 313.844C248.883 319.015 251.074 324.028 253.531 328.938C253.925 329.724 254.901 330.019 255.688 329.625C256.474 329.231 256.8 328.287 256.406 327.5C253.522 321.753 251.036 315.872 248.969 309.781C246.657 302.969 244.859 296.003 242.875 289.094C240.643 281.323 237.963 273.639 237.281 265.531C237.212 264.701 236.455 264.087 235.625 264.156Z" fill="#FDFDFD"/>
<path d="M198.312 122.656C197.937 122.565 197.512 122.627 197.156 122.844C196.445 123.278 196.222 124.195 196.656 124.906C198.367 127.712 199.399 130.758 200.656 133.781C200.93 134.441 201.336 135.103 201.562 135.781C201.691 136.166 201.785 136.66 202.062 136.969C202.293 137.226 202.53 137.511 202.844 137.656C203.131 137.789 203.465 137.791 203.781 137.781C204.857 137.748 205.932 136.415 206.594 135.75C209.537 132.794 212.233 129.588 215 126.469C215.583 125.81 215.534 124.802 214.875 124.219C214.216 123.636 213.208 123.716 212.625 124.375C211.246 125.938 209.884 127.504 208.5 129.062C207.293 130.422 206.066 131.776 204.812 133.094C204.563 133.356 204.318 133.619 204.062 133.875C203.997 133.744 203.925 133.578 203.875 133.469C203.466 132.58 203.117 131.688 202.75 130.781C201.71 128.214 200.666 125.714 199.219 123.344C199.002 122.988 198.688 122.747 198.312 122.656Z" fill="#FDFDFD"/>
<path d="M175.531 218.562C175.166 218.688 174.839 218.938 174.656 219.312C174.291 220.061 174.627 220.978 175.375 221.344C188.662 227.838 202.618 232.732 217 236.188C233.927 240.254 251.194 242.388 268.5 244.031C269.376 244.114 270.167 243.47 270.25 242.594C270.333 241.718 269.688 240.927 268.812 240.844C250.358 239.105 231.896 236.848 213.906 232.25C201.055 228.965 188.602 224.443 176.688 218.625C176.313 218.442 175.896 218.437 175.531 218.562Z" fill="#FDFDFD"/>
<path d="M196.094 187.344C196.111 187.135 195.677 187.351 195.469 187.375C194.877 187.443 194.283 187.643 193.75 187.906C192.263 188.641 191.111 190.082 190.781 191.719C190.499 193.117 190.893 194.541 191.938 195.531C192.094 195.68 192.261 195.813 192.438 195.938C192.622 196.067 192.9 196.515 193 196.312C194.415 193.436 193.015 196.291 193.562 196.531C194.371 196.877 195.31 196.528 195.656 195.719C196.002 194.91 195.621 193.971 194.812 193.625C195.612 192.02 195.692 192.647 195.625 192C195.561 191.382 194.88 193.033 194.438 193.469C194.408 193.498 194.148 193.24 194.125 193.219C193.809 192.929 193.793 192.484 193.906 192.094C194.09 191.458 194.54 190.899 195.125 190.594C195.143 190.584 195.27 190.571 195.375 190.531C195.132 190.99 195.078 191.09 195.094 191.969C195.109 192.84 195.37 191.825 195.625 190.469C195.838 190.404 196.086 190.301 196.062 190.375C195.717 191.48 196.055 190.377 196.406 190.406C197.237 190.47 197.968 189.831 198.031 189C198.095 188.17 197.487 187.47 196.656 187.406C196.143 188.928 195.982 189.16 195.75 189.656C195.893 188.806 196.052 187.862 196.094 187.344Z" fill="#FDFDFD"/>
</g>
</g>
<defs>
<clipPath id="clip0_341_2954">
<rect width="372" height="372" fill="white"/>
</clipPath>
</defs>
</svg>
