<svg width="281" height="140" viewBox="0 0 281 140" fill="none" xmlns="http://www.w3.org/2000/svg">
<g clip-path="url(#clip0_700_6296)">
<mask id="mask0_700_6296" style="mask-type:luminance" maskUnits="userSpaceOnUse" x="97" y="10" width="174" height="158">
<path d="M271 10H97V167.756H271V10Z" fill="white"/>
</mask>
<g mask="url(#mask0_700_6296)">
<path d="M157.936 74.4081C157.936 65.4349 165.21 58.1608 174.183 58.1608H228.663C237.636 58.1608 244.91 65.4349 244.91 74.4081V94.4866C244.91 103.46 237.636 110.734 228.663 110.734H174.183C165.21 110.734 157.936 103.46 157.936 94.4866V74.4081Z" fill="black"/>
<path d="M188.184 48.9358C181.583 48.9358 175.839 52.6839 172.898 58.1992C173.535 58.1401 174.176 58.1057 174.83 58.1057H228.019C237.292 58.1057 244.91 64.1918 244.91 71.8489V97.0527C244.91 104.71 237.292 110.796 228.019 110.796H174.83C174.176 110.796 173.535 110.762 172.898 110.702C175.839 116.218 181.583 119.966 188.184 119.966H247.278C256.875 119.966 264.652 112.051 264.652 102.288V66.6134C264.652 56.8509 256.875 48.9358 247.278 48.9358H188.184ZM174.83 60.5988C173.775 60.5988 172.757 60.7032 171.768 60.8715C171.158 62.6755 170.81 64.5987 170.81 66.6134V67.0886C172.394 66.0632 174.276 65.4526 176.303 65.4526C181.894 65.4526 186.423 69.9821 186.423 75.5731C186.423 77.3121 185.941 78.9263 185.169 80.3566L185.473 82.5615L183.291 82.8654C181.473 84.6116 179.023 85.7014 176.303 85.7014C174.276 85.7014 172.394 85.0918 170.81 84.0651V93.2819H226.788C229.159 93.2819 231.081 95.2038 231.081 97.5748C231.081 99.9455 229.159 101.867 226.788 101.867H170.81V102.288C170.81 104.303 171.158 106.226 171.768 108.03C172.757 108.198 173.775 108.303 174.83 108.303H228.019C236.022 108.303 242.417 103.194 242.417 97.0527V71.8489C242.417 65.7074 236.022 60.5988 228.019 60.5988H174.83ZM176.303 67.9457C174.142 67.9457 172.2 68.8559 170.81 70.2985V80.863C171.198 81.2661 171.636 81.6119 172.103 81.9226L176.241 81.3384L176.505 83.1848C178.125 83.1414 179.606 82.5987 180.822 81.6967L180.681 80.7151L182.06 80.5202C183.206 79.1844 183.93 77.4704 183.93 75.5731C183.93 71.359 180.517 67.9457 176.303 67.9457ZM202.901 77.5908L203.252 80.0607L198.811 80.684L198.46 78.2141L202.901 77.5908ZM194.019 78.8373L194.362 81.3073L189.921 81.9305L189.571 79.4686L194.019 78.8373ZM170.81 95.775V99.3743H226.788C227.782 99.3743 228.588 98.5685 228.588 97.5748C228.588 96.5808 227.782 95.775 226.788 95.775H170.81Z" fill="#52B1DE"/>
<path d="M173.401 58.1608C164.789 58.7489 157.936 64.5902 157.936 71.8494C157.936 72.0464 157.936 96.8562 157.936 97.0532C157.936 104.306 164.776 110.137 173.378 110.734C172.684 110.031 172.201 109.123 171.882 108.062C165.312 106.99 160.429 102.418 160.429 97.0532C160.429 96.8562 160.429 72.0464 160.429 71.8494C160.429 66.3583 165.554 61.7209 172.357 60.794C172.348 60.5429 172.37 60.2909 172.435 60.0461C172.503 59.7898 172.599 59.5793 172.707 59.3762C172.758 59.2819 172.803 59.2019 172.856 59.1189C172.862 59.1042 172.865 59.087 172.871 59.0722C172.966 58.8536 173.079 58.6509 173.214 58.4333C173.264 58.352 173.344 58.2475 173.401 58.1608Z" fill="white"/>
<path d="M208.851 75.5707C208.851 70.6682 212.825 66.694 217.727 66.694C222.63 66.694 226.604 70.6682 226.604 75.5707C226.604 80.4731 222.63 84.4474 217.727 84.4474C212.825 84.4474 208.851 80.4731 208.851 75.5707Z" stroke="white" stroke-width="3" stroke-miterlimit="10" stroke-linejoin="round"/>
<path d="M170.464 93.2823C168.093 93.2823 166.171 95.2043 166.171 97.575C166.171 99.9459 168.093 101.868 170.464 101.868H171.024C171.003 101.543 170.986 101.157 170.986 101.003C170.986 100.517 170.947 99.9305 170.916 99.3748H170.464C169.47 99.3748 168.664 98.569 168.664 97.575C168.664 96.5812 169.47 95.7752 170.464 95.7755H170.908C170.935 95.7017 170.961 95.6286 170.993 95.5573C171.011 95.2075 171.063 94.9699 171.095 94.669C171.093 94.4945 171.095 94.2414 171.095 94.1549C171.095 94.1677 171.074 93.4551 171.071 93.2823H170.464Z" fill="white"/>
<path d="M171.048 66.9568C168.133 68.7334 166.171 71.9113 166.171 75.5735C166.171 79.0458 167.922 82.1081 170.588 83.9333C170.588 83.9069 170.588 83.8977 170.588 83.871C170.588 83.3724 170.588 82.6207 170.588 82.3672C170.588 81.8725 170.628 81.1508 170.635 80.6532C169.421 79.3011 168.664 77.5315 168.664 75.5735C168.664 73.4406 169.542 71.5194 170.954 70.1355C170.985 68.9204 171.042 67.3193 171.048 66.9568Z" fill="white"/>
<path d="M216.933 10C214.448 10 212.438 12.0096 212.438 14.4954C212.438 14.7735 212.438 49.8219 212.438 50.1001C212.438 52.5857 214.448 54.6032 216.933 54.6032C219.419 54.6032 221.437 52.5857 221.437 50.1001V14.4954C221.437 12.0096 219.419 10 216.933 10ZM216.933 12.4931C218.042 12.4931 218.943 13.3865 218.943 14.4954V50.1001C218.943 51.2091 218.042 52.1101 216.933 52.1101C215.825 52.1101 214.931 51.2088 214.931 50.1001C214.931 49.8219 214.931 14.7735 214.931 14.4954C214.931 13.3865 215.825 12.4931 216.933 12.4931Z" fill="white"/>
<path d="M210.451 10C207.624 10.9685 205.745 12.5913 205.745 14.6434C205.745 18.0318 210.829 20.2685 216.933 20.2685C223.038 20.2685 228.129 18.0318 228.129 14.6434C228.129 12.6486 226.338 11.063 223.641 10.0857C223.58 10.3849 223.561 10.6246 223.478 10.9661C223.452 11.0709 223.426 11.162 223.384 11.3322C223.207 12.0445 223.202 12.2411 223.15 12.571C223.249 12.6108 223.367 12.6383 223.462 12.6801C224.912 13.3194 225.636 14.0724 225.636 14.6434C225.636 15.2144 224.912 15.9596 223.462 16.5989C221.778 17.3414 219.441 17.7754 216.933 17.7754C214.425 17.7754 212.096 17.3414 210.412 16.5989C208.962 15.9596 208.238 15.2144 208.238 14.6434C208.238 14.0724 208.962 13.3194 210.412 12.6801C210.477 12.6517 210.556 12.6297 210.623 12.6022C210.611 12.5038 210.562 12.09 210.537 11.8542C210.492 11.4281 210.474 11.0899 210.459 10.3428C210.455 10.1631 210.454 10.098 210.451 10Z" fill="white"/>
<path d="M210.451 20.2684C207.624 21.2369 205.745 22.8597 205.745 24.9118C205.745 28.3004 210.829 30.5369 216.933 30.5369C223.038 30.5369 228.129 28.3004 228.129 24.9118C228.129 22.9171 226.338 21.3314 223.641 20.3541C223.58 20.6533 223.561 20.893 223.478 21.2345C223.452 21.3393 223.426 21.4305 223.384 21.6007C223.207 22.313 223.202 22.5095 223.15 22.8394C223.249 22.8793 223.367 22.9067 223.462 22.9485C224.912 23.5879 225.636 24.3408 225.636 24.9118C225.636 25.4828 224.912 26.228 223.462 26.8674C221.778 27.6098 219.441 28.0438 216.933 28.0438C214.425 28.0438 212.096 27.6098 210.412 26.8674C208.962 26.228 208.238 25.4828 208.238 24.9118C208.238 24.3408 208.962 23.5879 210.412 22.9485C210.477 22.9201 210.556 22.8981 210.623 22.8706C210.611 22.7722 210.562 22.3585 210.537 22.1227C210.492 21.6966 210.474 21.3583 210.459 20.6112C210.455 20.4315 210.454 20.3664 210.451 20.2684Z" fill="white"/>
<path d="M210.451 30.5126C207.624 31.4809 205.745 33.1037 205.745 35.156C205.745 38.5444 210.829 40.7809 216.933 40.7809C223.038 40.7809 228.129 38.5444 228.129 35.156C228.129 33.161 226.338 31.5754 223.641 30.5981C223.58 30.8973 223.561 31.1371 223.478 31.4787C223.452 31.5834 223.426 31.6746 223.384 31.8446C223.207 32.5569 223.202 32.7536 223.15 33.0835C223.249 33.1234 223.367 33.1508 223.462 33.1927C224.912 33.8319 225.636 34.5848 225.636 35.156C225.636 35.7269 224.912 36.4721 223.462 37.1113C221.778 37.854 219.441 38.2878 216.933 38.2878C214.425 38.2878 212.096 37.854 210.412 37.1113C208.962 36.4721 208.238 35.7269 208.238 35.156C208.238 34.5848 208.962 33.8319 210.412 33.1927C210.477 33.1642 210.556 33.142 210.623 33.1146C210.611 33.0164 210.562 32.6025 210.537 32.3667C210.492 31.9406 210.474 31.6023 210.459 30.8554C210.455 30.6756 210.454 30.6106 210.451 30.5126Z" fill="white"/>
<path d="M119.156 131.842C119.156 127.196 121.794 123.43 125.049 123.43H126.379C129.634 123.43 132.273 127.196 132.273 131.842V159.344C132.273 163.99 129.634 167.756 126.379 167.756H125.049C121.794 167.756 119.156 163.99 119.156 159.344V131.842Z" fill="#52B1DE"/>
<path d="M114.343 100.735L106.049 93.7854C106.049 93.7854 102.607 102.105 102.607 107.552C102.607 120.314 112.953 130.659 125.714 130.659C138.476 130.659 148.821 120.314 148.821 107.552C148.821 101.681 143.782 93.3575 143.782 93.3575L137.121 100.162C138.018 101.995 139.545 104.466 139.545 106.644C139.545 114.283 133.353 120.475 125.714 120.475C118.076 120.475 111.883 114.283 111.883 106.644C111.883 104.254 112.489 102.005 113.557 100.044" fill="black"/>
<path d="M114.343 100.735L106.049 93.7854C106.049 93.7854 102.607 102.105 102.607 107.552C102.607 120.314 112.953 130.659 125.714 130.659C138.476 130.659 148.821 120.314 148.821 107.552C148.821 101.681 143.782 93.3575 143.782 93.3575L137.121 100.162C138.018 101.995 139.545 104.466 139.545 106.644C139.545 114.283 133.353 120.475 125.714 120.475C118.076 120.475 111.883 114.283 111.883 106.644C111.883 104.254 112.489 102.005 113.557 100.044" stroke="white" stroke-width="3" stroke-miterlimit="10" stroke-linejoin="round"/>
<path d="M148.821 153.486L171.094 128.908L271 128.298L266.189 133.968C255.684 146.349 240.267 153.486 224.03 153.486H148.821Z" fill="#52B1DE"/>
<path d="M98.4544 70.9296C97.2026 71.3624 96.632 72.8099 97.2519 73.9804L113.1 103.909C113.675 104.995 115.039 105.383 116.099 104.762L133.714 94.4486C134.689 93.8779 135.059 92.652 134.563 91.6371L121.52 64.9609C121.041 63.9808 119.906 63.5121 118.875 63.8686L98.4544 70.9296Z" fill="#52B1DE"/>
<path d="M117.453 81.6819C113.83 81.9507 111.106 85.1025 111.374 88.7262C111.526 90.7643 112.591 92.5174 114.139 93.6139C115.344 94.4671 116.841 94.9223 118.427 94.8049C118.781 94.7784 119.117 94.7064 119.452 94.6271C119.693 95.3735 119.84 96.2728 119.479 97.2032C118.838 98.8569 116.284 100.684 115.178 102.717C116.748 101.775 118.693 100.613 118.693 100.613C124.353 97.2092 126.88 95.7079 130.059 93.8562C130.467 93.6187 130.89 93.3778 131.357 93.1273C131.821 92.8782 132.056 92.7535 133.041 92.2447C133.119 92.2046 133.147 92.1841 133.221 92.1455C130.739 91.5062 127.233 93.6466 125.132 93.4716C124.222 93.3958 123.53 92.9415 122.979 92.4516C124.037 91.1854 124.629 89.5292 124.497 87.7534C124.229 84.1296 121.077 81.4132 117.453 81.6819Z" fill="black"/>
<path d="M113.709 93.2824C115.142 94.681 118.093 94.966 118.093 94.966C118.093 94.966 121.032 95.4457 122.055 94.9174C122.789 94.5384 123.086 93.1986 123.391 92.4637C124.525 89.7285 124.481 88.8881 124.481 88.8881" fill="black"/>
<path d="M162.12 72.8276L116.118 73.7626" stroke="white" stroke-width="3" stroke-miterlimit="10" stroke-linejoin="round" stroke-dasharray="18 18"/>
<path d="M167.351 82.5927L162.91 83.2159L163.261 85.6856L167.702 85.0623L167.351 82.5927ZM158.469 83.8392L154.021 84.4702L154.371 86.9399L158.812 86.3089L158.469 83.8392ZM149.58 85.0935L145.131 85.7168L145.482 88.1864L149.923 87.5631L149.58 85.0935ZM140.691 86.34L136.25 86.971L136.592 89.441L141.041 88.8097L140.691 86.34ZM131.801 87.5943L127.36 88.2176L127.703 90.6875L132.152 90.0642L131.801 87.5943ZM122.919 88.8409L118.471 89.4721L118.821 91.9418L123.262 91.3108L122.919 88.8409Z" fill="white"/>
</g>
</g>
<defs>
<clipPath id="clip0_700_6296">
<rect width="281" height="140" fill="white"/>
</clipPath>
</defs>
</svg>
