<svg width="459" height="569" viewBox="0 0 459 569" fill="none" xmlns="http://www.w3.org/2000/svg">
<path d="M79.3118 0.406189C61.8718 0.406189 53.6917 12.5938 53.6917 12.5938L1.72168 154.719L54.6516 173.465L93.8418 187.344L100.882 219.406L33.6917 555.062C33.6917 555.062 58.8016 562.082 89.9116 562.969C117.302 563.75 140.572 553.878 146.002 551.406L145.592 555.188C145.592 555.188 170.712 562.199 201.812 563.125C217.152 563.581 231.492 560.586 242.162 557.406C252.752 560.511 266.802 563.415 281.812 562.969C301.692 562.377 318.262 559.369 328.252 557.219C338.972 560.469 353.632 563.622 369.282 563.156C400.392 562.231 425.502 555.219 425.502 555.219L352.532 219.406L360.882 189.062L457.882 154.719L405.912 12.5938C405.912 12.5938 397.722 0.406289 380.282 0.406189C358.742 0.406289 358.752 12.5938 358.752 12.5938L359.312 68.969H100.312L100.882 12.5938C100.882 12.5938 100.852 0.406289 79.3118 0.406189Z" fill="#F30D0D"/>
<path d="M299.972 373.625C298.612 373.888 297.742 375.207 298.002 376.562C309.312 434.823 323.402 492.5 333.502 551C333.732 552.361 335.052 553.297 336.412 553.062C337.772 552.828 338.672 551.517 338.442 550.156C328.342 491.622 314.232 433.889 302.912 375.594C302.642 374.238 301.322 373.362 299.972 373.625Z" fill="black"/>
<path d="M237.222 326.625C235.842 326.696 234.772 327.871 234.842 329.25C238.632 402.675 242.962 476.071 244.312 549.594C244.342 550.974 245.492 552.088 246.882 552.062C248.262 552.037 249.342 550.881 249.312 549.5C247.962 475.922 243.632 402.481 239.842 329C239.772 327.621 238.602 326.554 237.222 326.625Z" fill="black"/>
<path d="M172.222 398.656C170.872 398.379 169.562 399.241 169.282 400.594C162.382 434.236 155.052 467.793 148.472 501.5C145.172 518.375 142.162 535.293 139.312 552.25C139.082 553.612 140.012 554.928 141.382 555.156C142.742 555.385 144.022 554.456 144.252 553.094C147.092 536.181 150.122 519.3 153.412 502.469C159.992 468.777 167.262 435.221 174.162 401.594C174.432 400.241 173.572 398.934 172.222 398.656Z" fill="black"/>
<path d="M115.842 215.562C114.502 215.233 113.142 216.034 112.812 217.375C112.482 218.716 113.322 220.077 114.662 220.406C144.942 227.854 174.952 237.352 206.222 239.625C251.392 242.909 296.132 233.213 340.092 224.156C341.452 223.878 342.312 222.54 342.032 221.188C341.752 219.835 340.422 218.971 339.062 219.25C295.562 228.211 251.302 237.907 206.592 234.656C175.612 232.403 145.852 222.942 115.842 215.562Z" fill="black"/>
<path d="M96.8423 4.93751C94.1023 4.63981 91.6423 6.62971 91.3423 9.37501C89.8723 22.9427 89.4122 36.5486 89.2522 50.188C89.1322 60.263 89.1423 70.332 89.3123 80.406C90.0123 119.837 93.2922 159.263 101.722 197.844C102.312 200.541 104.962 202.246 107.662 201.656C110.352 201.067 112.092 198.385 111.502 195.688C103.212 157.752 99.9923 118.99 99.3123 80.219C99.1322 69.717 99.1222 59.221 99.2522 48.719C99.4022 35.9283 99.9022 23.1598 101.282 10.4375C101.582 7.69221 99.5923 5.23521 96.8423 4.93751Z" fill="black"/>
<path d="M362.282 4.93751C359.542 5.23521 357.552 7.69221 357.842 10.4375C359.282 23.6868 359.712 36.9938 359.882 50.312C360.002 60.289 359.992 70.243 359.812 80.219C359.132 118.99 355.922 157.752 347.622 195.688C347.042 198.385 348.772 201.067 351.472 201.656C354.172 202.246 356.822 200.541 357.412 197.844C365.842 159.263 369.122 119.837 369.812 80.406C370.002 69.805 370.002 59.195 369.882 48.594C369.722 35.4832 369.202 22.4156 367.782 9.37501C367.482 6.62971 365.032 4.63981 362.282 4.93751Z" fill="black"/>
<path d="M101.912 351.5C100.592 351.09 99.1923 351.806 98.7823 353.125C96.1023 361.758 93.4422 370.411 90.7222 379.031C85.2722 396.273 79.6122 413.445 73.9722 430.625C73.5422 431.937 74.2523 433.35 75.5623 433.781C76.8723 434.212 78.2922 433.499 78.7222 432.188C84.3722 414.99 90.0422 397.791 95.5022 380.531C98.2322 371.903 100.882 363.266 103.562 354.625C103.972 353.306 103.222 351.91 101.912 351.5Z" fill="black"/>
<path d="M343.412 277.438C342.052 277.716 341.192 279.054 341.472 280.406C345.292 298.986 349.792 317.382 354.882 335.656C361.982 361.186 370.132 386.413 378.472 411.562C378.902 412.873 380.312 413.591 381.622 413.156C382.942 412.722 383.652 411.311 383.222 410C374.912 384.928 366.772 359.796 359.692 334.344C354.632 316.18 350.172 297.874 346.382 279.406C346.102 278.054 344.762 277.159 343.412 277.438Z" fill="black"/>
<path d="M113.502 294.094C112.152 293.804 110.822 294.681 110.532 296.031C108.912 303.571 107.102 311.054 105.222 318.531C104.882 319.87 105.692 321.225 107.032 321.562C108.372 321.9 109.732 321.089 110.062 319.75C111.962 312.216 113.772 304.659 115.412 297.062C115.702 295.713 114.852 294.384 113.502 294.094Z" fill="black"/>
<path d="M179.752 357.688C178.382 357.514 177.112 358.505 176.942 359.875C176.732 361.471 176.782 361.265 176.752 361.469C176.752 361.469 176.602 362.556 176.532 363.094C176.462 363.631 176.282 365.256 176.342 364.719C176.552 363.106 176.333 364.7 176.123 366.312C175.953 367.682 176.942 368.951 178.312 369.125C179.682 369.299 180.922 368.307 181.092 366.938C181.302 365.338 181.292 365.547 181.312 365.344C181.312 365.344 181.572 363.181 181.502 363.719C181.572 363.181 181.792 361.587 181.722 362.125C181.512 363.738 181.702 362.113 181.912 360.5C182.082 359.13 181.122 357.862 179.752 357.688Z" fill="black"/>
<path d="M296.912 336.938C295.532 336.944 294.402 338.088 294.412 339.469C294.422 342.912 294.582 346.251 295.282 349.625C295.562 350.977 296.902 351.844 298.252 351.562C299.602 351.28 300.442 349.945 300.162 348.594C299.772 344.004 299.932 346.113 299.782 344.031C299.692 342.769 299.972 346.548 300.002 347.812C300.012 348.066 299.922 347.312 299.882 347.062C299.832 346.817 299.782 346.559 299.752 346.312C299.582 345.092 299.482 343.888 299.442 342.656C299.422 342.14 299.342 340.58 299.412 341.094C299.712 343.594 299.412 341.098 299.412 339.438C299.402 338.057 298.292 336.931 296.912 336.938Z" fill="black"/>
<path d="M42.0018 57.906C40.0718 57.646 38.0919 58.53 37.0319 60.312C35.8919 62.236 34.7919 64.209 33.5919 66.094C31.1619 69.921 28.4218 73.576 25.7218 77.219C19.0718 86.189 11.9818 95.177 8.25185 105.844C5.74185 113.025 5.07191 120.721 6.56191 128.188C6.93191 130.018 7.51193 131.789 8.09193 133.562C7.69193 134.027 7.27179 134.498 6.94179 134.906C5.36179 136.862 3.99179 139.002 2.94179 141.281C1.94179 143.425 1.21191 145.671 0.811906 148C0.491906 149.877 0.371818 151.786 0.471818 153.688C1.06182 165.563 9.2119 174.98 18.8119 181.125C35.6019 191.866 55.8618 197.149 75.7518 195.125C81.9218 194.497 87.9619 193.137 93.8419 191.188C96.4619 190.318 97.8718 187.465 97.0018 184.844C96.1318 182.223 93.3118 180.818 90.6918 181.688C85.5018 183.409 80.1918 184.634 74.7518 185.188C57.5918 186.933 40.1218 182.499 25.4718 173.5C23.2518 172.138 21.082 170.689 19.122 168.969C13.702 164.207 9.40179 157.156 10.6918 149.688C10.9418 148.225 11.3818 146.814 12.0018 145.469C12.7218 143.919 13.7018 142.534 14.7518 141.219C14.7518 141.214 14.7819 141.224 14.7819 141.219C15.4619 141.099 16.1718 140.925 16.7518 140.562C17.4518 140.127 18.0619 139.551 18.5319 138.875C18.9019 138.343 19.0618 137.662 19.2218 137.031C19.3218 136.633 19.2919 136.223 19.2819 135.812C19.2719 135.253 19.1018 134.675 18.9118 134.156C18.8518 134.013 18.7818 133.891 18.7218 133.75C18.7018 133.71 18.6818 133.677 18.6618 133.625C18.6718 133.658 18.642 133.564 18.622 133.531C18.402 132.981 18.1718 132.432 17.9718 131.875C17.6718 131.059 17.4018 130.241 17.1618 129.406C16.8518 128.361 16.5917 127.319 16.3817 126.25C16.0317 124.522 15.8018 122.761 15.7518 121C15.6418 117.448 16.2118 113.892 17.2518 110.5C20.0618 101.379 26.002 93.553 31.622 86C35.172 81.235 38.8419 76.482 42.0319 71.469C43.2919 69.49 44.432 67.426 45.622 65.406C47.032 63.029 46.2517 59.968 43.8817 58.562C43.2817 58.211 42.6418 57.993 42.0018 57.906Z" fill="black"/>
<path d="M417.222 57.906C416.582 57.993 415.942 58.211 415.342 58.562C412.972 59.968 412.192 63.029 413.592 65.406C414.792 67.426 415.932 69.49 417.192 71.469C420.692 76.971 424.712 82.14 428.592 87.375C434.142 94.85 439.942 102.746 442.382 111.875C443.232 115.08 443.592 118.404 443.412 121.719C443.312 123.503 443.082 125.288 442.692 127.031C442.382 128.395 441.992 129.742 441.532 131.062C441.232 131.936 440.882 132.769 440.532 133.625C440.532 133.639 440.542 133.647 440.532 133.656C440.502 133.725 440.472 133.806 440.442 133.875C440.342 134.09 440.262 134.307 440.192 134.531C440.072 134.921 439.952 135.413 439.942 135.812C439.932 136.223 439.902 136.633 440.002 137.031C440.162 137.662 440.312 138.343 440.692 138.875C441.162 139.551 441.772 140.127 442.472 140.562C443.052 140.925 443.762 141.099 444.442 141.219C444.452 141.22 444.462 141.217 444.472 141.219C445.522 142.534 446.472 143.919 447.192 145.469C447.912 147.03 448.412 148.698 448.622 150.406C449.552 157.64 445.332 164.37 440.092 168.969C438.142 170.689 435.972 172.138 433.752 173.5C419.102 182.499 401.632 186.933 384.472 185.188C379.032 184.634 373.722 183.409 368.532 181.688C365.912 180.818 363.092 182.223 362.222 184.844C361.352 187.465 362.752 190.318 365.382 191.188C371.262 193.137 377.302 194.497 383.472 195.125C403.922 197.206 424.762 191.569 441.812 180.219C452.412 173.167 460.652 161.241 458.382 148C457.972 145.671 457.272 143.425 456.282 141.281C455.042 138.603 453.372 136.135 451.442 133.906C451.352 133.804 451.252 133.698 451.162 133.594C451.852 131.494 452.462 129.365 452.842 127.188C454.092 120.031 453.362 112.694 450.972 105.844C447.242 95.177 440.152 86.189 433.502 77.219C430.802 73.576 428.032 69.921 425.592 66.094C424.392 64.209 423.322 62.236 422.192 60.312C421.132 58.53 419.152 57.646 417.222 57.906Z" fill="black"/>
<path d="M101.162 237.763L34.3018 552.737C34.3018 552.737 38.3818 564.299 88.8718 562.996" stroke="black" stroke-width="10" stroke-miterlimit="10" stroke-linecap="round" stroke-linejoin="round"/>
<path d="M352.521 237.763L419.391 552.737C419.391 552.737 415.302 564.299 364.822 562.996" stroke="black" stroke-width="10" stroke-miterlimit="10" stroke-linecap="round" stroke-linejoin="round"/>
<path d="M13.8117 130.375C13.1817 130.292 12.4816 130.454 11.9416 130.875C10.8416 131.716 10.6616 133.28 11.5016 134.375C15.4816 139.551 18.7516 145.367 23.4716 149.938C28.2216 154.54 34.0916 158.14 39.9416 161.156C48.6416 165.641 58.1117 168.944 67.8117 170.375C75.5817 171.521 83.4816 171.364 90.9716 168.875C92.2816 168.439 93.0017 167.029 92.5617 165.719C92.1317 164.409 90.6915 163.689 89.3815 164.125C82.6315 166.371 75.5217 166.468 68.5317 165.438C58.9117 164.019 49.5216 160.611 40.9716 156.031C36.0016 153.372 31.0116 150.279 26.9416 146.344C22.4016 141.96 19.2916 136.283 15.4716 131.312C15.0516 130.765 14.4517 130.458 13.8117 130.375Z" fill="black"/>
<path d="M444.382 132.438C443.742 132.508 443.122 132.805 442.692 133.344C430.992 147.962 417.352 162.251 398.692 167.312C393.742 168.654 388.712 169.251 383.592 169.312C382.212 169.329 381.082 170.463 381.092 171.844C381.112 173.224 382.242 174.329 383.622 174.312C389.162 174.244 394.642 173.609 400.002 172.156C419.762 166.796 434.192 151.967 446.592 136.469C447.462 135.391 447.302 133.831 446.222 132.969C445.682 132.537 445.012 132.367 444.382 132.438Z" fill="black"/>
</svg>
