<svg width="310" height="140" viewBox="0 0 310 140" fill="none" xmlns="http://www.w3.org/2000/svg">
<g clip-path="url(#clip0_1280_10608)">
<mask id="mask0_1280_10608" style="mask-type:luminance" maskUnits="userSpaceOnUse" x="0" y="0" width="310" height="140">
<path d="M310 0H0V140H310V0Z" fill="white"/>
</mask>
<g mask="url(#mask0_1280_10608)">
<path d="M42.6713 11.6132C41.6377 11.2652 39.5161 16.0781 39.1489 16.8701C36.8627 21.7951 35.2652 27.4372 32.3677 32.0022C32.9015 32.7252 33.2115 33.1152 33.5825 33.4942C34.2519 34.1782 34.9969 34.8402 35.7874 35.5242C35.8561 35.3502 35.9792 35.0121 36.0334 34.9091C37.5272 32.0591 40.2029 26.9582 43.5412 26.1232C45.9505 28.5202 48.4015 30.8742 50.1278 33.8772C51.9297 37.0112 53.004 40.8722 54.028 44.3602C54.4252 45.7152 54.5985 47.3242 55.3745 48.5252C55.794 49.1752 56.4014 49.7751 57.0631 50.3491C61.0165 52.5281 64.9206 54.3062 68.9215 55.6882C69.588 55.9182 70.1063 56.1272 71.263 56.6112C71.3734 56.6572 71.4257 56.6802 71.4868 56.7062C72.5427 57.1472 73.3216 57.4392 74.0055 57.6522C74.0268 57.4842 74.0656 57.1552 74.0792 57.0892C74.7854 53.6132 73.3971 48.9122 71.7028 45.8932C65.621 35.0562 57.1435 27.0761 48.1457 18.8571C46.6238 17.4681 45.1135 15.9162 43.983 14.1662C43.7669 13.8322 42.9503 11.7072 42.6713 11.6132Z" fill="#1A1A1A"/>
<path d="M86.6643 -10C83.0111 -9.944 79.1971 -8.87695 76.1204 -6.89795C73.0901 -4.94695 70.6847 -0.979991 69.6695 2.49701C69.3818 3.48301 69.128 4.73902 68.7463 5.91302C68.7695 5.91502 68.7918 5.91902 68.8151 5.92102C68.5012 6.62802 68.1795 7.40903 68.3413 7.90503C68.415 8.13003 69.0766 8.23305 69.2549 8.31305C70.026 8.65705 70.7913 9.31501 71.4723 9.83801C71.5014 9.86101 71.5179 9.89601 71.546 9.91901C69.065 9.11601 65.2898 9.10403 62.6741 9.81403C61.4322 10.234 60.2184 10.714 59.0161 11.197C56.3966 12.346 52.5091 14.55 55.2652 15.888C56.4025 16.44 58.4882 15.386 59.6652 15.303C62.6054 15.096 66.2769 16.242 68.8548 17.629C71.7736 19.2 74.6053 25.5251 77.2703 25.7531C79.0441 25.9051 79.7784 24.218 80.9612 23.107C82.3911 21.764 83.7057 20.7871 85.215 20.1281C85.3787 19.9551 85.5754 19.807 85.8089 19.715C85.836 19.704 85.8321 19.695 85.8592 19.684C87.1302 19.186 92.3082 17.378 93.4649 16.939C99.2628 14.739 102.995 12.405 105.112 9.20001C105.008 7.78001 104.436 6.33105 104.232 4.95905C103.712 1.45805 102.487 -2.146 100.365 -5C99.7598 -5.553 98.9693 -6.34299 98.3978 -6.77399C97.1645 -7.70199 95.6795 -8.23496 93.091 -8.80396C92.8275 -8.86196 91.0353 -9.24795 90.6139 -9.34595C89.2295 -9.66795 87.943 -9.846 86.6643 -10Z" fill="#1A1A1A"/>
<path d="M93.4593 28.0862C92.446 28.2802 91.7756 29.2892 91.9645 30.3352C92.1524 31.3812 93.1299 32.0723 94.1432 31.8783C95.1565 31.6833 95.8191 30.6762 95.6302 29.6302C95.4423 28.5842 94.4716 27.8912 93.4593 28.0862ZM121.783 22.6422C120.77 22.8362 120.1 23.8453 120.288 24.8913C120.477 25.9373 121.454 26.6282 122.468 26.4342C123.48 26.2392 124.143 25.2322 123.955 24.1862C123.767 23.1402 122.796 22.4472 121.783 22.6422ZM96.5215 30.6182C95.5082 30.8132 94.8455 31.8202 95.0335 32.8662C95.2224 33.9122 96.1921 34.6052 97.2054 34.4102C98.2187 34.2152 98.8891 33.2072 98.7002 32.1612C98.5113 31.1152 97.5348 30.4232 96.5215 30.6182ZM119.802 26.1432C118.788 26.3382 118.118 27.3472 118.307 28.3932C118.496 29.4382 119.472 30.1302 120.485 29.9362C121.499 29.7412 122.169 28.7322 121.98 27.6862C121.791 26.6412 120.815 25.9492 119.802 26.1432ZM100.351 32.7732C99.3376 32.9672 98.6663 33.9692 98.8552 35.0142C99.0441 36.0602 100.021 36.7522 101.034 36.5572C102.047 36.3632 102.718 35.3543 102.529 34.3083C102.34 33.2633 101.364 32.5782 100.351 32.7732ZM116.98 29.5763C115.966 29.7713 115.302 30.7712 115.491 31.8172C115.679 32.8632 116.649 33.5562 117.662 33.3612C118.676 33.1672 119.346 32.1582 119.157 31.1122C118.968 30.0662 117.993 29.3823 116.98 29.5763ZM104.745 33.5482C103.733 33.7432 103.069 34.7502 103.258 35.7962C103.446 36.8412 104.417 37.5352 105.429 37.3402C106.442 37.1452 107.113 36.1372 106.924 35.0912C106.736 34.0452 105.759 33.3532 104.745 33.5482ZM113.15 31.9322C112.137 32.1272 111.466 33.1362 111.655 34.1822C111.844 35.2272 112.821 35.9192 113.834 35.7252C114.847 35.5302 115.511 34.5233 115.322 33.4773C115.133 32.4313 114.163 31.7382 113.15 31.9322ZM108.886 32.9162C107.873 33.1102 107.21 34.1172 107.399 35.1632C107.587 36.2092 108.557 36.9022 109.57 36.7082C110.583 36.5132 111.253 35.5043 111.064 34.4593C110.876 33.4133 109.899 32.7212 108.886 32.9162Z" fill="#1A1A1A"/>
<path d="M95.6865 46.4981C94.5502 46.3871 93.408 46.5101 92.322 46.9731C91.9452 47.1341 91.579 47.3352 91.239 47.5682C90.8815 47.8112 90.5492 48.0891 90.2693 48.4251C89.2308 49.6701 89.2967 51.2281 89.6551 52.7351C89.8576 53.5851 90.1424 54.4121 90.3768 55.2531C90.5425 55.8481 90.6858 56.4691 90.6955 57.0911C90.7023 57.4981 90.6364 57.9071 90.5483 58.3021C90.1637 60.0261 89.0913 61.4791 88.1031 62.8831C87.6401 63.5411 87.1983 64.2061 86.807 64.9011C86.4088 64.6211 85.999 64.3491 85.6328 64.0441C84.666 64.2241 84.0702 64.7731 83.2875 66.0131C83.1993 66.1531 83.0492 66.4031 82.8535 66.7271C82.7586 66.9671 82.6317 67.3311 82.5571 67.4861C80.8172 71.0811 75.9618 80.6891 76.2747 86.0451C76.3677 86.0871 76.45 86.1311 76.545 86.1721C78.1977 86.8911 79.5995 87.3711 82.6898 88.3371C87.1877 89.7431 91.6091 90.5041 97.2666 90.9631C106.437 91.7061 111.208 90.9361 117.143 87.1931C117.692 82.0761 114.085 72.3711 112.902 68.6131C112.644 68.0641 112.316 67.3611 112.178 67.0951C111.783 66.3351 111.426 65.8771 110.957 65.6221C110.641 65.8281 110.332 66.0081 110.018 66.1961C109.918 65.3391 109.764 64.4871 109.564 63.6511C109.11 61.7661 108.474 59.9281 107.722 58.1501C106.974 56.3791 106.102 54.6571 105.084 53.0341C103.999 51.3031 102.747 49.6201 101.027 48.5251C99.454 47.5241 97.5785 46.6841 95.6865 46.4981ZM95.2438 47.6741C97.19 47.7791 99.1731 48.7351 100.746 49.7861C101.418 50.2341 101.99 50.8531 102.506 51.4761C103.085 52.1771 103.603 52.9241 104.086 53.6971C105.066 55.2661 105.899 56.9371 106.621 58.6461C107.377 60.4371 108.022 62.2881 108.458 64.1911C108.657 65.0621 108.806 65.9491 108.88 66.8421C107.35 67.6571 105.835 68.2601 104.278 68.6001C98.9929 69.7531 92.5226 68.4951 87.7602 65.5561C88.2582 64.6671 88.8549 63.8271 89.4381 62.9881C90.5308 61.4141 91.5703 59.7391 91.796 57.7711C92.0237 55.7881 91.0559 53.9571 90.6829 52.0611C90.4892 51.0751 90.4717 50.0061 91.145 49.2031C91.3572 48.9521 91.6081 48.7512 91.8774 48.5682C92.9237 47.8582 94.0764 47.6121 95.2438 47.6741Z" fill="#1A1A1A"/>
<path d="M48.1477 60.885C46.7653 60.338 45.2172 61.057 44.6873 62.484L34.2306 90.655C33.7007 92.082 34.3876 93.685 35.77 94.232L48.9285 99.437C50.3119 99.983 51.859 99.264 52.3889 97.837L62.8456 69.666C63.3755 68.239 62.6896 66.636 61.3072 66.09L48.1477 60.885ZM47.6362 61.654C48.4316 61.969 48.8346 62.885 48.5294 63.707C48.2242 64.529 47.3291 64.941 46.5328 64.626C45.7365 64.311 45.3451 63.39 45.6493 62.568C45.9544 61.746 46.8399 61.339 47.6362 61.654ZM50.4252 65.312C51.2216 65.626 51.6139 66.548 51.3087 67.37C51.0036 68.191 50.1152 68.607 49.3189 68.292C48.5236 67.977 48.1235 67.053 48.4286 66.231C48.7338 65.409 49.6299 64.997 50.4252 65.312ZM45.8372 66.501C46.6326 66.816 47.0327 67.74 46.7275 68.562C46.4224 69.384 45.5302 69.788 44.7338 69.473C43.9375 69.158 43.5423 68.245 43.8474 67.423C44.1526 66.601 45.0409 66.186 45.8372 66.501Z" fill="#1A1A1A"/>
<path d="M29.9111 -5.04004L19.8671 6.97498C20.2033 7.13998 20.5327 7.33295 20.8281 7.59595L25.0596 11.364C25.3551 11.627 25.5905 11.942 25.7988 12.261L35.8428 0.245973L29.9111 -5.04004ZM17.111 7.81396C16.4261 8.00596 15.7858 8.40398 15.2869 9.00098L12.1346 12.7759C10.8055 14.3669 10.9759 16.768 12.5172 18.14L16.1762 21.4009C17.7175 22.7729 20.0415 22.5899 21.3706 20.9999L24.5249 17.231C25.854 15.641 25.6835 13.2389 24.1432 11.8669L20.4832 8.60596C19.5203 7.74896 18.2532 7.49396 17.111 7.81396ZM10.8626 17.753L0 30.752L5.92972 36.032L16.7923 23.032C16.4562 22.867 16.1316 22.665 15.8362 22.402L11.6047 18.634C11.3092 18.371 11.0709 18.072 10.8626 17.753Z" fill="#1A1A1A"/>
<path d="M15.8642 42.4948L14.6155 45.7139L18.6358 48.4249L21.0257 46.3638L19.3236 41.6528L15.8642 42.4948ZM16.1393 47.8939C13.0616 52.4389 13.2757 58.6079 16.77 62.9249C21.018 68.1729 28.5839 68.8718 33.6669 64.4868C38.7509 60.1018 39.4281 52.2919 35.1801 47.0449C31.7207 42.7709 25.9595 41.4368 21.1032 43.6688L21.7474 45.1599C25.9615 43.2239 30.9612 44.3849 33.9634 48.0939C37.6504 52.6479 37.0624 59.4248 32.6507 63.2308C28.239 67.0368 21.6728 66.4299 17.9867 61.8759C14.9536 58.1289 14.7695 52.7708 17.4403 48.8278L16.1393 47.8939Z" fill="#1A1A1A"/>
<path d="M246.109 12.6132C245.075 12.2652 242.954 17.0781 242.586 17.8701C240.3 22.7951 238.703 28.4372 235.805 33.0022C236.339 33.7252 236.649 34.1152 237.02 34.4942C237.689 35.1782 238.434 35.8402 239.225 36.5242C239.294 36.3502 239.417 36.0121 239.471 35.9091C240.965 33.0591 243.64 27.9582 246.979 27.1232C249.388 29.5202 251.839 31.8742 253.565 34.8772C255.367 38.0112 256.441 41.8722 257.465 45.3602C257.863 46.7152 258.036 48.3242 258.812 49.5252C259.231 50.1752 259.839 50.7751 260.501 51.3491C264.454 53.5281 268.358 55.3062 272.359 56.6882C273.026 56.9182 273.544 57.1272 274.7 57.6112C274.811 57.6572 274.863 57.6802 274.924 57.7062C275.98 58.1472 276.759 58.4392 277.443 58.6522C277.464 58.4842 277.503 58.1552 277.517 58.0892C278.223 54.6132 276.835 49.9122 275.14 46.8932C269.058 36.0562 260.581 28.0761 251.583 19.8571C250.061 18.4681 248.551 16.9162 247.42 15.1662C247.204 14.8322 246.388 12.7072 246.109 12.6132Z" fill="#1A1A1A"/>
<path d="M290.102 -9C286.449 -8.944 282.635 -7.87695 279.558 -5.89795C276.528 -3.94695 274.122 0.0200095 273.107 3.49701C272.819 4.48301 272.565 5.73902 272.184 6.91302C272.207 6.91502 272.229 6.91902 272.253 6.92102C271.939 7.62802 271.617 8.40903 271.779 8.90503C271.852 9.13003 272.514 9.23305 272.692 9.31305C273.463 9.65705 274.229 10.315 274.91 10.838C274.939 10.861 274.955 10.896 274.983 10.919C272.502 10.116 268.727 10.104 266.112 10.814C264.87 11.234 263.656 11.714 262.454 12.197C259.834 13.346 255.947 15.55 258.703 16.888C259.84 17.44 261.926 16.386 263.103 16.303C266.043 16.096 269.714 17.242 272.292 18.629C275.211 20.2 278.043 26.5251 280.708 26.7531C282.482 26.9051 283.216 25.218 284.399 24.107C285.829 22.764 287.143 21.7871 288.653 21.1281C288.816 20.9551 289.013 20.807 289.246 20.715C289.273 20.704 289.27 20.695 289.297 20.684C290.568 20.186 295.746 18.378 296.902 17.939C302.7 15.739 306.433 13.405 308.55 10.2C308.445 8.78001 307.873 7.33105 307.669 5.95905C307.15 2.45805 305.924 -1.146 303.803 -4C303.197 -4.553 302.407 -5.34299 301.835 -5.77399C300.602 -6.70199 299.117 -7.23496 296.528 -7.80396C296.265 -7.86196 294.473 -8.24795 294.051 -8.34595C292.667 -8.66795 291.381 -8.846 290.102 -9Z" fill="#1A1A1A"/>
<path d="M296.897 29.0862C295.883 29.2802 295.213 30.2892 295.402 31.3352C295.59 32.3812 296.567 33.0723 297.581 32.8783C298.594 32.6833 299.257 31.6762 299.068 30.6302C298.88 29.5842 297.909 28.8912 296.897 29.0862ZM325.22 23.6422C324.208 23.8362 323.537 24.8453 323.725 25.8913C323.914 26.9373 324.892 27.6282 325.905 27.4342C326.917 27.2392 327.581 26.2322 327.392 25.1862C327.204 24.1402 326.233 23.4472 325.22 23.6422ZM299.959 31.6182C298.946 31.8132 298.283 32.8202 298.471 33.8662C298.66 34.9122 299.63 35.6052 300.643 35.4102C301.656 35.2152 302.327 34.2072 302.138 33.1612C301.949 32.1152 300.972 31.4232 299.959 31.6182ZM323.239 27.1432C322.226 27.3382 321.555 28.3472 321.744 29.3932C321.933 30.4382 322.91 31.1302 323.923 30.9362C324.936 30.7412 325.607 29.7322 325.418 28.6862C325.229 27.6412 324.252 26.9492 323.239 27.1432ZM303.788 33.7732C302.775 33.9672 302.104 34.9692 302.293 36.0142C302.482 37.0602 303.458 37.7522 304.471 37.5572C305.485 37.3632 306.155 36.3543 305.966 35.3083C305.777 34.2633 304.802 33.5782 303.788 33.7732ZM320.417 30.5763C319.404 30.7713 318.739 31.7712 318.928 32.8172C319.117 33.8632 320.087 34.5562 321.1 34.3612C322.113 34.1672 322.784 33.1582 322.595 32.1122C322.406 31.0662 321.43 30.3823 320.417 30.5763ZM308.183 34.5482C307.17 34.7432 306.507 35.7502 306.696 36.7962C306.884 37.8412 307.854 38.5352 308.867 38.3402C309.88 38.1452 310.55 37.1372 310.361 36.0912C310.173 35.0452 309.196 34.3532 308.183 34.5482ZM316.588 32.9322C315.574 33.1272 314.904 34.1362 315.093 35.1822C315.282 36.2272 316.258 36.9192 317.272 36.7252C318.285 36.5302 318.948 35.5233 318.76 34.4773C318.571 33.4313 317.601 32.7382 316.588 32.9322ZM312.323 33.9162C311.311 34.1102 310.647 35.1172 310.836 36.1632C311.024 37.2092 311.995 37.9022 313.007 37.7082C314.02 37.5132 314.691 36.5043 314.502 35.4593C314.314 34.4133 313.336 33.7212 312.323 33.9162Z" fill="#1A1A1A"/>
<path d="M299.124 47.4981C297.988 47.3871 296.846 47.5101 295.76 47.9731C295.383 48.1341 295.017 48.3352 294.676 48.5682C294.319 48.8112 293.987 49.0891 293.707 49.4251C292.668 50.6701 292.734 52.2281 293.093 53.7351C293.295 54.5851 293.58 55.4121 293.814 56.2531C293.98 56.8481 294.123 57.4691 294.133 58.0911C294.14 58.4981 294.074 58.9071 293.986 59.3021C293.601 61.0261 292.529 62.4791 291.541 63.8831C291.078 64.5411 290.636 65.2061 290.244 65.9011C289.846 65.6211 289.437 65.3491 289.07 65.0441C288.104 65.2241 287.508 65.7731 286.725 67.0131C286.637 67.1531 286.487 67.4031 286.291 67.7271C286.196 67.9671 286.069 68.3311 285.995 68.4861C284.255 72.0811 279.399 81.6891 279.712 87.0451C279.805 87.0871 279.888 87.1311 279.982 87.1721C281.635 87.8911 283.037 88.3711 286.127 89.3371C290.625 90.7431 295.047 91.5041 300.704 91.9631C309.874 92.7061 314.645 91.9361 320.581 88.1931C321.129 83.0761 317.523 73.3711 316.34 69.6131C316.081 69.0641 315.754 68.3611 315.615 68.0951C315.221 67.3351 314.863 66.8771 314.394 66.6221C314.079 66.8281 313.77 67.0081 313.456 67.1961C313.356 66.3391 313.202 65.4871 313.001 64.6511C312.548 62.7661 311.912 60.9281 311.16 59.1501C310.412 57.3791 309.539 55.6571 308.522 54.0341C307.437 52.3031 306.184 50.6201 304.465 49.5251C302.891 48.5241 301.016 47.6841 299.124 47.4981ZM298.681 48.6741C300.628 48.7791 302.611 49.7351 304.184 50.7861C304.855 51.2341 305.428 51.8531 305.943 52.4761C306.522 53.1771 307.041 53.9241 307.523 54.6971C308.503 56.2661 309.337 57.9371 310.058 59.6461C310.815 61.4371 311.459 63.2881 311.895 65.1911C312.095 66.0621 312.244 66.9491 312.317 67.8421C310.788 68.6571 309.273 69.2601 307.716 69.6001C302.43 70.7531 295.96 69.4951 291.198 66.5561C291.696 65.6671 292.292 64.8271 292.876 63.9881C293.968 62.4141 295.008 60.7391 295.234 58.7711C295.461 56.7881 294.493 54.9571 294.12 53.0611C293.927 52.0751 293.909 51.0061 294.583 50.2031C294.795 49.9521 295.046 49.7512 295.315 49.5682C296.361 48.8582 297.514 48.6121 298.681 48.6741Z" fill="#1A1A1A"/>
<path d="M251.585 61.885C250.203 61.338 248.655 62.057 248.125 63.484L237.668 91.655C237.138 93.082 237.825 94.685 239.207 95.232L252.366 100.437C253.749 100.983 255.296 100.264 255.826 98.837L266.283 70.666C266.813 69.239 266.127 67.636 264.745 67.09L251.585 61.885ZM251.074 62.654C251.869 62.969 252.272 63.885 251.967 64.707C251.662 65.529 250.767 65.941 249.97 65.626C249.174 65.311 248.783 64.39 249.087 63.568C249.392 62.746 250.277 62.339 251.074 62.654ZM253.863 66.312C254.659 66.626 255.051 67.548 254.746 68.37C254.441 69.191 253.553 69.607 252.756 69.292C251.961 68.977 251.561 68.053 251.866 67.231C252.171 66.409 253.067 65.997 253.863 66.312ZM249.275 67.501C250.07 67.816 250.47 68.74 250.165 69.562C249.86 70.384 248.968 70.788 248.171 70.473C247.375 70.158 246.98 69.245 247.285 68.423C247.59 67.601 248.478 67.186 249.275 67.501Z" fill="#1A1A1A"/>
<path d="M233.349 -4.04004L223.305 7.97498C223.641 8.13998 223.97 8.33295 224.266 8.59595L228.497 12.364C228.793 12.627 229.028 12.942 229.236 13.261L239.28 1.24597L233.349 -4.04004ZM220.549 8.81396C219.864 9.00596 219.223 9.40398 218.724 10.001L215.572 13.7759C214.243 15.3669 214.413 17.768 215.955 19.14L219.614 22.4009C221.155 23.7729 223.479 23.5899 224.808 21.9999L227.962 18.231C229.291 16.641 229.121 14.2389 227.581 12.8669L223.921 9.60596C222.958 8.74896 221.691 8.49396 220.549 8.81396ZM214.3 18.753L203.438 31.752L209.367 37.032L220.23 24.032C219.894 23.867 219.569 23.665 219.274 23.402L215.042 19.634C214.747 19.371 214.508 19.072 214.3 18.753Z" fill="#1A1A1A"/>
<path d="M219.302 43.4948L218.053 46.7139L222.073 49.4249L224.463 47.3638L222.761 42.6528L219.302 43.4948ZM219.577 48.8939C216.499 53.4389 216.713 59.6079 220.207 63.9249C224.455 69.1729 232.021 69.8718 237.104 65.4868C242.188 61.1018 242.866 53.2919 238.618 48.0449C235.158 43.7709 229.397 42.4368 224.541 44.6688L225.185 46.1599C229.399 44.2239 234.399 45.3849 237.401 49.0939C241.088 53.6479 240.5 60.4248 236.088 64.2308C231.676 68.0368 225.11 67.4299 221.424 62.8759C218.391 59.1289 218.207 53.7708 220.878 49.8278L219.577 48.8939Z" fill="#1A1A1A"/>
<path d="M145.359 54.6132C144.325 54.2652 142.204 59.0781 141.836 59.8701C139.55 64.7951 137.953 70.4372 135.055 75.0022C135.589 75.7252 135.899 76.1152 136.27 76.4942C136.939 77.1782 137.684 77.8402 138.475 78.5242C138.544 78.3502 138.667 78.0121 138.721 77.9091C140.215 75.0591 142.89 69.9582 146.229 69.1232C148.638 71.5202 151.089 73.8742 152.815 76.8772C154.617 80.0112 155.691 83.8722 156.715 87.3602C157.113 88.7152 157.286 90.3242 158.062 91.5252C158.481 92.1752 159.089 92.7751 159.751 93.3491C163.704 95.5281 167.608 97.3062 171.609 98.6882C172.276 98.9182 172.794 99.1272 173.95 99.6112C174.061 99.6572 174.113 99.6802 174.174 99.7062C175.23 100.147 176.009 100.439 176.693 100.652C176.714 100.484 176.753 100.155 176.767 100.089C177.473 96.6132 176.085 91.9122 174.39 88.8932C168.308 78.0562 159.831 70.0761 150.833 61.8571C149.311 60.4681 147.801 58.9162 146.67 57.1662C146.454 56.8322 145.638 54.7072 145.359 54.6132Z" fill="#1A1A1A"/>
<path d="M189.352 33C185.699 33.056 181.885 34.1231 178.808 36.1021C175.778 38.0531 173.372 42.02 172.357 45.497C172.069 46.483 171.815 47.739 171.434 48.913C171.457 48.915 171.479 48.919 171.503 48.921C171.189 49.628 170.867 50.409 171.029 50.905C171.102 51.13 171.764 51.233 171.942 51.313C172.713 51.657 173.479 52.315 174.16 52.838C174.189 52.861 174.205 52.896 174.233 52.919C171.752 52.116 167.977 52.104 165.362 52.814C164.12 53.234 162.906 53.714 161.704 54.197C159.084 55.346 155.197 57.55 157.953 58.888C159.09 59.44 161.176 58.386 162.353 58.303C165.293 58.096 168.964 59.242 171.542 60.629C174.461 62.2 177.293 68.5251 179.958 68.7531C181.732 68.9051 182.466 67.218 183.649 66.107C185.079 64.764 186.393 63.7871 187.903 63.1281C188.066 62.9551 188.263 62.807 188.496 62.715C188.523 62.704 188.52 62.695 188.547 62.684C189.818 62.186 194.996 60.378 196.152 59.939C201.95 57.739 205.683 55.405 207.8 52.2C207.695 50.78 207.123 49.331 206.919 47.959C206.4 44.458 205.174 40.854 203.053 38C202.447 37.447 201.657 36.657 201.085 36.226C199.852 35.298 198.367 34.765 195.778 34.196C195.515 34.138 193.723 33.7521 193.301 33.6541C191.917 33.3321 190.631 33.154 189.352 33Z" fill="#1A1A1A"/>
<path d="M196.147 71.0862C195.133 71.2802 194.463 72.2892 194.652 73.3352C194.84 74.3812 195.817 75.0723 196.831 74.8783C197.844 74.6833 198.507 73.6762 198.318 72.6302C198.13 71.5842 197.159 70.8912 196.147 71.0862ZM224.47 65.6422C223.458 65.8362 222.787 66.8453 222.975 67.8913C223.164 68.9373 224.142 69.6282 225.155 69.4342C226.167 69.2392 226.831 68.2322 226.642 67.1862C226.454 66.1402 225.483 65.4472 224.47 65.6422ZM199.209 73.6182C198.196 73.8132 197.533 74.8202 197.721 75.8662C197.91 76.9122 198.88 77.6052 199.893 77.4102C200.906 77.2152 201.577 76.2072 201.388 75.1612C201.199 74.1152 200.222 73.4232 199.209 73.6182ZM222.489 69.1432C221.476 69.3382 220.805 70.3472 220.994 71.3932C221.183 72.4382 222.16 73.1302 223.173 72.9362C224.186 72.7412 224.857 71.7322 224.668 70.6862C224.479 69.6412 223.502 68.9492 222.489 69.1432ZM203.038 75.7732C202.025 75.9672 201.354 76.9692 201.543 78.0142C201.732 79.0602 202.708 79.7522 203.721 79.5572C204.735 79.3632 205.405 78.3543 205.216 77.3083C205.027 76.2633 204.052 75.5782 203.038 75.7732ZM219.667 72.5763C218.654 72.7713 217.989 73.7712 218.178 74.8172C218.367 75.8632 219.337 76.5562 220.35 76.3612C221.363 76.1672 222.034 75.1582 221.845 74.1122C221.656 73.0662 220.68 72.3823 219.667 72.5763ZM207.433 76.5482C206.42 76.7432 205.757 77.7502 205.946 78.7962C206.134 79.8412 207.104 80.5352 208.117 80.3402C209.13 80.1452 209.8 79.1372 209.611 78.0912C209.423 77.0452 208.446 76.3532 207.433 76.5482ZM215.838 74.9322C214.824 75.1272 214.154 76.1362 214.343 77.1822C214.532 78.2272 215.508 78.9192 216.522 78.7252C217.535 78.5302 218.198 77.5233 218.01 76.4773C217.821 75.4313 216.851 74.7382 215.838 74.9322ZM211.573 75.9162C210.561 76.1102 209.897 77.1172 210.086 78.1632C210.274 79.2092 211.245 79.9022 212.257 79.7082C213.27 79.5132 213.941 78.5043 213.752 77.4593C213.564 76.4133 212.586 75.7212 211.573 75.9162Z" fill="#1A1A1A"/>
<path d="M198.374 89.4981C197.238 89.3871 196.096 89.5101 195.01 89.9731C194.633 90.1341 194.267 90.3352 193.926 90.5682C193.569 90.8112 193.237 91.0891 192.957 91.4251C191.918 92.6701 191.984 94.2281 192.343 95.7351C192.545 96.5851 192.83 97.4121 193.064 98.2531C193.23 98.8481 193.373 99.4691 193.383 100.091C193.39 100.498 193.324 100.907 193.236 101.302C192.851 103.026 191.779 104.479 190.791 105.883C190.328 106.541 189.886 107.206 189.494 107.901C189.096 107.621 188.687 107.349 188.32 107.044C187.354 107.224 186.758 107.773 185.975 109.013C185.887 109.153 185.737 109.403 185.541 109.727C185.446 109.967 185.319 110.331 185.245 110.486C183.505 114.081 178.649 123.689 178.962 129.045C179.055 129.087 179.138 129.131 179.232 129.172C180.885 129.891 182.287 130.371 185.377 131.337C189.875 132.743 194.297 133.504 199.954 133.963C209.124 134.706 213.895 133.936 219.831 130.193C220.379 125.076 216.773 115.371 215.59 111.613C215.331 111.064 215.004 110.361 214.865 110.095C214.471 109.335 214.113 108.877 213.644 108.622C213.329 108.828 213.02 109.008 212.706 109.196C212.606 108.339 212.452 107.487 212.251 106.651C211.798 104.766 211.162 102.928 210.41 101.15C209.662 99.3791 208.789 97.6571 207.772 96.0341C206.687 94.3031 205.434 92.6201 203.715 91.5251C202.141 90.5241 200.266 89.6841 198.374 89.4981ZM197.931 90.6741C199.878 90.7791 201.861 91.7351 203.434 92.7861C204.105 93.2341 204.678 93.8531 205.193 94.4761C205.772 95.1771 206.291 95.9241 206.773 96.6971C207.753 98.2661 208.587 99.9371 209.308 101.646C210.065 103.437 210.709 105.288 211.145 107.191C211.345 108.062 211.494 108.949 211.567 109.842C210.038 110.657 208.523 111.26 206.966 111.6C201.68 112.753 195.21 111.495 190.448 108.556C190.946 107.667 191.542 106.827 192.126 105.988C193.218 104.414 194.258 102.739 194.484 100.771C194.711 98.7881 193.743 96.9571 193.37 95.0611C193.177 94.0751 193.159 93.0061 193.833 92.2031C194.045 91.9521 194.296 91.7512 194.565 91.5682C195.611 90.8582 196.764 90.6121 197.931 90.6741Z" fill="#1A1A1A"/>
<path d="M150.835 103.885C149.453 103.338 147.905 104.057 147.375 105.484L136.918 133.655C136.388 135.082 137.075 136.685 138.457 137.232L151.616 142.437C152.999 142.983 154.546 142.264 155.076 140.837L165.533 112.666C166.063 111.239 165.377 109.636 163.995 109.09L150.835 103.885ZM150.324 104.654C151.119 104.969 151.522 105.885 151.217 106.707C150.912 107.529 150.017 107.941 149.22 107.626C148.424 107.311 148.033 106.39 148.337 105.568C148.642 104.746 149.527 104.339 150.324 104.654ZM153.113 108.312C153.909 108.626 154.301 109.548 153.996 110.37C153.691 111.191 152.803 111.607 152.006 111.292C151.211 110.977 150.811 110.053 151.116 109.231C151.421 108.409 152.317 107.997 153.113 108.312ZM148.525 109.501C149.32 109.816 149.72 110.74 149.415 111.562C149.11 112.384 148.218 112.788 147.421 112.473C146.625 112.158 146.23 111.245 146.535 110.423C146.84 109.601 147.728 109.186 148.525 109.501Z" fill="#1A1A1A"/>
<path d="M132.599 37.96L122.555 49.975C122.891 50.14 123.22 50.3329 123.516 50.5959L127.747 54.364C128.043 54.627 128.278 54.942 128.486 55.261L138.53 43.246L132.599 37.96ZM119.799 50.814C119.114 51.006 118.473 51.404 117.974 52.001L114.822 55.7759C113.493 57.3669 113.663 59.768 115.205 61.14L118.864 64.4009C120.405 65.7729 122.729 65.5899 124.058 63.9999L127.212 60.231C128.541 58.641 128.371 56.2389 126.831 54.8669L123.171 51.606C122.208 50.749 120.941 50.494 119.799 50.814ZM113.55 60.753L102.688 73.752L108.617 79.032L119.48 66.032C119.144 65.867 118.819 65.665 118.524 65.402L114.292 61.634C113.997 61.371 113.758 61.072 113.55 60.753Z" fill="#1A1A1A"/>
<path d="M118.552 85.4948L117.303 88.7139L121.323 91.4249L123.713 89.3638L122.011 84.6528L118.552 85.4948ZM118.827 90.8939C115.749 95.4389 115.963 101.608 119.457 105.925C123.705 111.173 131.271 111.872 136.354 107.487C141.438 103.102 142.116 95.2919 137.868 90.0449C134.408 85.7709 128.647 84.4368 123.791 86.6688L124.435 88.1599C128.649 86.2239 133.649 87.3849 136.651 91.0939C140.338 95.6479 139.75 102.425 135.338 106.231C130.926 110.037 124.36 109.43 120.674 104.876C117.641 101.129 117.457 95.7708 120.128 91.8278L118.827 90.8939Z" fill="#1A1A1A"/>
<path d="M112.752 -5.01081C106.883 -5.48953 103.796 -1.61299 103.796 -1.61299L82.4073 44.7851L99.7034 52.5459L112.51 58.2919L113.999 69.2739L82.1759 180.377C82.1759 180.377 90.4326 183.428 100.877 184.581C110.072 185.595 118.173 182.912 120.068 182.229L119.826 183.491C119.826 183.491 128.087 186.539 138.526 187.705C143.676 188.279 148.583 187.665 152.261 186.888C155.739 188.223 160.387 189.586 165.45 189.848C172.156 190.195 177.814 189.637 181.235 189.188C184.753 190.576 189.6 192.039 194.879 192.312C205.372 192.855 214.014 191.184 214.014 191.184L198.678 76.1816L202.321 66.2001L235.903 57.3064L222.317 8.05524C222.317 8.05524 219.896 3.72938 214.027 3.25063C206.779 2.6594 206.448 6.76073 206.448 6.76073L205.089 25.7461L117.936 18.6368L119.675 -0.317647C119.675 -0.317647 120 -4.41952 112.752 -5.01081Z" fill="#F30D0D"/>
<path d="M176.759 126.633C176.294 126.684 175.965 127.104 176.016 127.567C178.222 147.482 181.38 167.277 183.173 187.239C183.213 187.704 183.631 188.055 184.096 188.013C184.56 187.972 184.898 187.555 184.858 187.091C183.067 167.117 179.903 147.303 177.694 127.376C177.641 126.913 177.221 126.582 176.759 126.633Z" fill="white"/>
<path d="M156.934 109.095C156.467 109.081 156.075 109.447 156.061 109.913C155.321 134.725 154.763 159.541 153.199 184.318C153.171 184.783 153.528 185.19 153.996 185.219C154.461 185.249 154.856 184.889 154.884 184.424C156.45 159.628 157.008 134.797 157.75 109.966C157.764 109.501 157.4 109.109 156.934 109.095Z" fill="white"/>
<path d="M133.084 131.549C132.638 131.419 132.173 131.673 132.042 132.121C128.797 143.252 125.409 154.342 122.27 165.504C120.696 171.092 119.219 176.702 117.794 182.33C117.679 182.782 117.956 183.25 118.411 183.364C118.862 183.479 119.319 183.201 119.433 182.749C120.853 177.136 122.336 171.539 123.905 165.966C127.044 154.809 130.412 143.717 133.657 132.591C133.785 132.143 133.531 131.68 133.084 131.549Z" fill="white"/>
<path d="M119.138 68.3912C118.697 68.2437 118.217 68.4759 118.069 68.9181C117.921 69.3603 118.166 69.8413 118.608 69.9888C128.593 73.3262 138.431 77.346 148.89 78.9692C164 81.3141 179.321 79.2796 194.362 77.4386C194.827 77.3824 195.153 76.9557 195.096 76.4931C195.039 76.0302 194.615 75.7029 194.15 75.7595C179.266 77.5808 164.107 79.6285 149.151 77.3073C138.789 75.6988 129.034 71.6983 119.138 68.3912Z" fill="white"/>
<path d="M118.527 -3.00454C117.613 -3.17992 116.73 -2.57785 116.554 -1.6623C115.687 2.86283 115.159 7.42854 114.73 12.0138C114.413 15.4007 114.14 18.7891 113.921 22.1837C113.074 35.4713 113.096 48.828 114.873 62.0418C114.998 62.9655 115.843 63.612 116.768 63.4876C117.689 63.3632 118.348 62.5085 118.224 61.5847C116.475 48.5919 116.456 35.4602 117.291 22.3952C117.519 18.8564 117.804 15.3243 118.136 11.7939C118.537 7.49403 119.056 3.2112 119.87 -1.03193C120.046 -1.94748 119.444 -2.82887 118.527 -3.00454Z" fill="white"/>
<path d="M207.846 4.28161C206.916 4.30657 206.179 5.07872 206.201 6.01046C206.322 10.5083 206.101 14.9979 205.793 19.4841C205.559 22.8446 205.283 26.1938 204.948 29.5458C203.655 42.5734 201.511 55.5286 197.677 68.0661C197.408 68.9577 197.916 69.9077 198.809 70.18C199.701 70.4526 200.639 69.9516 200.912 69.0603C204.808 56.3093 206.994 43.1327 208.308 29.8832C208.663 26.3212 208.954 22.751 209.205 19.1805C209.511 14.7644 209.695 10.3529 209.575 5.92578C209.549 4.99376 208.779 4.25692 207.846 4.28161Z" fill="white"/>
<path d="M110.72 113.752C110.287 113.577 109.796 113.78 109.622 114.212C108.483 117.044 107.35 119.883 106.198 122.709C103.891 128.361 101.515 133.984 99.146 139.61C98.9653 140.04 99.1655 140.535 99.5945 140.716C100.023 140.897 100.521 140.696 100.701 140.266C103.075 134.634 105.455 129.003 107.766 123.344C108.921 120.516 110.05 117.683 111.189 114.848C111.363 114.416 111.149 113.925 110.72 113.752Z" fill="white"/>
<path d="M194.016 95.4586C193.551 95.5148 193.225 95.9414 193.282 96.4041C194.057 102.761 195.067 109.075 196.278 115.364C197.966 124.149 200.016 132.862 202.132 141.553C202.241 142.006 202.696 142.286 203.149 142.176C203.605 142.066 203.882 141.611 203.774 141.158C201.665 132.493 199.616 123.813 197.932 115.054C196.728 108.803 195.73 102.521 194.962 96.2023C194.905 95.7397 194.478 95.4018 194.016 95.4586Z" fill="white"/>
<path d="M116.196 94.7525C115.749 94.6178 115.278 94.8764 115.143 95.3227C114.391 97.8155 113.576 100.284 112.739 102.748C112.587 103.189 112.823 103.668 113.264 103.818C113.706 103.968 114.186 103.733 114.334 103.291C115.18 100.808 115.996 98.315 116.757 95.8036C116.891 95.3576 116.642 94.8871 116.196 94.7525Z" fill="white"/>
<path d="M136.742 117.97C136.286 117.874 135.832 118.173 135.737 118.629C135.622 119.16 135.645 119.092 135.629 119.16C135.629 119.16 135.549 119.522 135.511 119.701C135.472 119.88 135.367 120.421 135.402 120.242C135.517 119.705 135.399 120.236 135.284 120.772C135.189 121.229 135.488 121.683 135.944 121.779C136.4 121.875 136.845 121.575 136.939 121.119C137.054 120.587 137.045 120.657 137.057 120.589C137.057 120.589 137.204 119.868 137.166 120.048C137.204 119.868 137.322 119.338 137.284 119.517C137.169 120.054 137.277 119.513 137.392 118.976C137.487 118.519 137.199 118.066 136.742 117.97Z" fill="white"/>
<path d="M176.736 114.204C176.272 114.169 175.86 114.522 175.826 114.987C175.734 116.146 175.697 117.274 175.84 118.429C175.897 118.891 176.324 119.22 176.786 119.162C177.248 119.104 177.567 118.678 177.51 118.216C177.505 116.661 177.501 117.375 177.507 116.67C177.512 116.243 177.502 117.522 177.478 117.948C177.474 118.034 177.464 117.778 177.458 117.693C177.448 117.609 177.438 117.521 177.435 117.437C177.411 117.021 177.41 116.614 177.431 116.198C177.438 116.024 177.454 115.497 177.463 115.671C177.496 116.521 177.463 115.673 177.509 115.114C177.543 114.649 177.201 114.24 176.736 114.204Z" fill="white"/>
<path d="M98.6187 13.3131C97.9764 13.1726 97.286 13.4157 96.8804 13.9863C96.444 14.6024 96.0197 15.2361 95.5642 15.8375C94.6414 17.0585 93.619 18.2132 92.6104 19.365C90.1265 22.2008 87.4941 25.0306 85.9462 28.5176C84.9045 30.8651 84.4678 33.4364 84.7642 35.9899C84.8385 36.6159 84.985 37.2277 85.1315 37.8403C84.9842 37.9857 84.8299 38.1327 84.7076 38.2609C84.1223 38.8758 83.6025 39.5582 83.1867 40.2963C82.7913 40.9903 82.4841 41.726 82.2855 42.4988C82.1263 43.1216 82.0335 43.7607 82.015 44.4034C81.8875 48.4155 84.3715 51.808 87.4332 54.1393C92.7881 58.2145 99.4605 60.5483 106.209 60.4132C108.302 60.3713 110.372 60.0794 112.404 59.585C113.31 59.3642 113.863 58.4428 113.642 57.537C113.421 56.6311 112.511 56.081 111.605 56.3018C109.811 56.7384 107.991 57.0049 106.145 57.042C100.323 57.1582 94.5662 55.1866 89.8835 51.7563C89.1739 51.2371 88.4835 50.6899 87.8712 50.0574C86.1781 48.3062 84.9247 45.8155 85.5637 43.338C85.688 42.8525 85.8748 42.3898 86.1204 41.9542C86.4052 41.4524 86.773 41.0133 87.1624 40.5996L87.1725 40.6004C87.4046 40.5787 87.6483 40.5397 87.8534 40.4334C88.1009 40.3063 88.322 40.1292 88.4987 39.9146C88.6378 39.7458 88.7103 39.521 88.7815 39.3131C88.8261 39.1819 88.8272 39.0431 88.8352 38.9045C88.8471 38.7161 88.8058 38.517 88.7561 38.3371C88.7398 38.2874 88.7196 38.2444 88.7033 38.1953C88.6977 38.1813 88.6918 38.1696 88.6865 38.1516C88.689 38.163 88.6815 38.1305 88.6757 38.1189C88.6168 37.9278 88.5544 37.7367 88.5024 37.5438C88.4238 37.261 88.3554 36.9783 88.2976 36.6907C88.222 36.3306 88.163 35.9728 88.1216 35.6073C88.0513 35.0163 88.0224 34.4174 88.0539 33.8234C88.1144 32.6252 88.4038 31.4443 88.8469 30.3314C90.0428 27.3394 92.2563 24.869 94.3548 22.4817C95.6801 20.9757 97.0456 19.4771 98.2566 17.8778C98.7349 17.2465 99.1752 16.5832 99.6311 15.9362C100.171 15.175 99.9923 14.1236 99.2334 13.5854C99.0411 13.4508 98.8317 13.3599 98.6187 13.3131Z" fill="white"/>
<path d="M224.879 23.6134C224.661 23.6251 224.44 23.6809 224.228 23.7825C223.392 24.1906 223.046 25.1992 223.452 26.0375C223.8 26.7501 224.127 27.4759 224.497 28.1765C225.523 30.1239 226.734 31.9736 227.896 33.8417C229.558 36.5094 231.293 39.3255 231.864 42.4644C232.062 43.5662 232.092 44.6946 231.94 45.8051C231.858 46.4027 231.731 46.997 231.552 47.5728C231.41 48.0233 231.242 48.4659 231.051 48.8974C230.926 49.1833 230.786 49.454 230.644 49.7324C230.644 49.7371 230.647 49.7401 230.643 49.7428C230.631 49.7652 230.619 49.7917 230.607 49.8141C230.568 49.8837 230.535 49.9545 230.505 50.0279C230.454 50.1559 230.4 50.3181 230.386 50.4521C230.371 50.5901 230.35 50.7273 230.372 50.864C230.409 51.0807 230.441 51.314 230.554 51.5034C230.694 51.7438 230.883 51.9543 231.107 52.1199C231.292 52.258 231.526 52.336 231.752 52.3951C231.755 52.3957 231.758 52.395 231.762 52.3959C232.079 52.8672 232.361 53.3593 232.56 53.9007C232.76 54.4457 232.882 55.0207 232.906 55.6012C233.02 58.061 231.416 60.2097 229.526 61.6135C228.823 62.1387 228.053 62.5667 227.268 62.9641C222.092 65.5901 216.091 66.6026 210.365 65.5444C208.55 65.2086 206.796 64.6507 205.097 63.9291C204.24 63.5644 203.252 63.9598 202.887 64.8179C202.523 65.6759 202.915 66.6744 203.776 67.0393C205.702 67.8566 207.697 68.48 209.756 68.8607C216.58 70.1223 223.747 68.7975 229.796 65.4463C233.557 63.3642 236.657 59.5774 236.256 55.0595C236.182 54.2646 236.008 53.4896 235.734 52.7409C235.39 51.8058 234.896 50.9295 234.308 50.1264C234.28 50.0896 234.25 50.0512 234.222 50.0138C234.512 49.3261 234.776 48.6264 234.963 47.9043C235.58 45.5303 235.536 43.0414 234.92 40.6708C233.958 36.979 231.819 33.7599 229.827 30.559C229.019 29.259 228.187 27.9531 227.471 26.5984C227.119 25.9311 226.813 25.2378 226.485 24.5594C226.178 23.9307 225.536 23.5789 224.879 23.6134Z" fill="white"/>
<path d="M113.589 75.4587L82.4449 179.611C82.4449 179.611 83.5004 183.614 100.526 184.561" stroke="white" stroke-width="4" stroke-miterlimit="10" stroke-linecap="round" stroke-linejoin="round"/>
<path d="M198.171 82.3584L212.027 190.182C212.027 190.182 210.333 193.96 193.382 192.136" stroke="white" stroke-width="4" stroke-miterlimit="10" stroke-linecap="round" stroke-linejoin="round"/>
<path d="M87.1443 36.9254C86.9346 36.8801 86.6945 36.9153 86.5013 37.0422C86.108 37.295 86.0046 37.8164 86.2572 38.2079C87.4543 40.0589 88.395 42.1057 89.8578 43.7734C91.3299 45.4523 93.2063 46.8248 95.092 48.0002C97.8964 49.7482 100.992 51.1197 104.217 51.8675C106.8 52.4664 109.463 52.6304 112.051 51.9985C112.504 51.8877 112.785 51.433 112.673 50.9801C112.564 50.5275 112.1 50.2457 111.647 50.3565C109.314 50.9269 106.919 50.7644 104.595 50.226C101.397 49.4844 98.3306 48.0799 95.5793 46.304C93.9799 45.2729 92.3856 44.0951 91.1241 42.6593C89.7168 41.0595 88.8261 39.0638 87.6771 37.2862C87.5508 37.0906 87.3574 36.9709 87.1443 36.9254Z" fill="white"/>
<path d="M231.972 49.4384C231.755 49.4444 231.538 49.5273 231.379 49.6969C227.04 54.2946 222.058 58.7284 215.64 59.9192C213.938 60.2349 212.229 60.2978 210.504 60.1778C210.04 60.1456 209.628 60.4962 209.594 60.9611C209.563 61.4261 209.912 61.8289 210.377 61.8611C212.243 61.9902 214.105 61.927 215.948 61.5852C222.745 60.324 228.007 55.7302 232.605 50.8555C232.928 50.5166 232.917 49.9873 232.577 49.6676C232.407 49.5074 232.186 49.4318 231.972 49.4384Z" fill="white"/>
</g>
</g>
<defs>
<clipPath id="clip0_1280_10608">
<rect width="310" height="140" fill="white"/>
</clipPath>
</defs>
</svg>
