<svg width="459" height="568" viewBox="0 0 459 568" fill="none" xmlns="http://www.w3.org/2000/svg">
<path d="M78.8745 0C61.4345 0 53.2544 12.1876 53.2544 12.1876L1.28442 154.313L54.2144 173.059L93.4045 186.938L100.444 219L33.2544 554.656C33.2544 554.656 58.3644 561.676 89.4744 562.563C116.864 563.344 140.134 553.472 145.564 551L145.155 554.782C145.155 554.782 170.275 561.793 201.375 562.719C216.715 563.175 231.054 560.18 241.724 557C252.314 560.105 266.365 563.009 281.375 562.563C301.255 561.971 317.824 558.963 327.814 556.813C338.534 560.063 353.194 563.216 368.844 562.75C399.954 561.825 425.064 554.813 425.064 554.813L352.094 219L360.444 188.656L457.444 154.313L405.474 12.1876C405.474 12.1876 397.284 0.0001 379.844 0C358.304 0.0001 358.314 12.1876 358.314 12.1876L358.875 68.5628H99.8745L100.444 12.1876C100.444 12.1876 100.415 0.0001 78.8745 0Z" fill="#F30D0D"/>
<path d="M299.534 373.219C298.174 373.482 297.304 374.801 297.564 376.156C308.874 434.417 322.964 492.094 333.064 550.594C333.294 551.955 334.614 552.891 335.974 552.656C337.334 552.422 338.234 551.111 338.004 549.75C327.904 491.216 313.794 433.483 302.474 375.188C302.204 373.832 300.884 372.956 299.534 373.219Z" fill="white"/>
<path d="M236.784 326.219C235.404 326.29 234.335 327.465 234.405 328.844C238.195 402.269 242.525 475.665 243.875 549.188C243.905 550.568 245.054 551.682 246.444 551.656C247.824 551.631 248.905 550.475 248.875 549.094C247.525 475.516 243.195 402.075 239.405 328.594C239.335 327.215 238.164 326.148 236.784 326.219Z" fill="white"/>
<path d="M171.784 398.25C170.434 397.973 169.125 398.835 168.845 400.188C161.945 433.83 154.614 467.387 148.034 501.094C144.734 517.969 141.725 534.887 138.875 551.844C138.645 553.206 139.574 554.522 140.944 554.75C142.304 554.979 143.584 554.05 143.814 552.688C146.654 535.775 149.684 518.894 152.974 502.063C159.554 468.371 166.824 434.815 173.724 401.188C173.994 399.835 173.134 398.528 171.784 398.25Z" fill="white"/>
<path d="M115.405 215.156C114.065 214.827 112.705 215.628 112.375 216.969C112.045 218.31 112.884 219.671 114.224 220C144.504 227.448 174.514 236.946 205.784 239.219C250.954 242.503 295.695 232.807 339.655 223.75C341.015 223.472 341.875 222.134 341.595 220.782C341.315 219.429 339.985 218.565 338.625 218.844C295.125 227.805 250.865 237.501 206.155 234.25C175.175 231.997 145.415 222.536 115.405 215.156Z" fill="white"/>
<path d="M96.4045 4.53145C93.6645 4.23375 91.2045 6.22365 90.9045 8.96895C89.4345 22.5366 88.9744 36.1425 88.8144 49.7819C88.6944 59.8569 88.7045 69.926 88.8745 80C89.5745 119.431 92.8544 158.857 101.284 197.438C101.874 200.135 104.524 201.84 107.224 201.25C109.914 200.661 111.654 197.979 111.064 195.282C102.774 157.346 99.5545 118.584 98.8745 79.8129C98.6945 69.3109 98.6844 58.8149 98.8144 48.3129C98.9644 35.5222 99.4645 22.7537 100.844 10.0314C101.144 7.28615 99.1545 4.82915 96.4045 4.53145Z" fill="white"/>
<path d="M361.844 4.53145C359.104 4.82915 357.115 7.28615 357.405 10.0314C358.845 23.2807 359.274 36.5877 359.444 49.9059C359.564 59.8829 359.554 69.8369 359.374 79.8129C358.694 118.584 355.485 157.346 347.185 195.282C346.605 197.979 348.334 200.661 351.034 201.25C353.734 201.84 356.384 200.135 356.974 197.438C365.404 158.857 368.684 119.431 369.374 80C369.564 69.399 369.564 58.7889 369.444 48.1879C369.284 35.0771 368.764 22.0095 367.344 8.96895C367.044 6.22365 364.594 4.23375 361.844 4.53145Z" fill="white"/>
<path d="M101.474 351.094C100.154 350.684 98.7545 351.4 98.3445 352.719C95.6645 361.352 93.0045 370.005 90.2845 378.625C84.8345 395.867 79.1745 413.039 73.5345 430.219C73.1045 431.531 73.8145 432.944 75.1245 433.375C76.4345 433.806 77.8545 433.093 78.2845 431.782C83.9345 414.584 89.6045 397.385 95.0645 380.125C97.7945 371.497 100.445 362.86 103.125 354.219C103.535 352.9 102.784 351.504 101.474 351.094Z" fill="white"/>
<path d="M342.974 277.032C341.614 277.31 340.755 278.648 341.035 280C344.855 298.58 349.354 316.976 354.444 335.25C361.544 360.78 369.695 386.007 378.035 411.156C378.465 412.467 379.875 413.185 381.185 412.75C382.505 412.316 383.215 410.905 382.785 409.594C374.475 384.522 366.334 359.39 359.254 333.938C354.194 315.774 349.734 297.468 345.944 279C345.664 277.648 344.324 276.753 342.974 277.032Z" fill="white"/>
<path d="M113.064 293.688C111.714 293.398 110.384 294.275 110.094 295.625C108.474 303.165 106.664 310.648 104.784 318.125C104.444 319.464 105.254 320.819 106.594 321.156C107.934 321.494 109.294 320.683 109.624 319.344C111.524 311.81 113.334 304.253 114.974 296.656C115.264 295.307 114.414 293.978 113.064 293.688Z" fill="white"/>
<path d="M179.314 357.282C177.944 357.108 176.674 358.099 176.504 359.469C176.294 361.065 176.344 360.859 176.314 361.063C176.314 361.063 176.164 362.15 176.094 362.688C176.024 363.225 175.845 364.85 175.905 364.313C176.115 362.7 175.895 364.294 175.685 365.906C175.515 367.276 176.504 368.545 177.874 368.719C179.244 368.893 180.485 367.901 180.655 366.532C180.865 364.932 180.854 365.141 180.874 364.938C180.874 364.938 181.134 362.775 181.064 363.313C181.134 362.775 181.354 361.181 181.284 361.719C181.074 363.332 181.264 361.707 181.474 360.094C181.644 358.724 180.684 357.456 179.314 357.282Z" fill="white"/>
<path d="M296.474 336.532C295.094 336.538 293.964 337.682 293.974 339.063C293.984 342.506 294.145 345.845 294.845 349.219C295.125 350.571 296.465 351.438 297.815 351.156C299.165 350.874 300.004 349.539 299.724 348.188C299.334 343.598 299.495 345.707 299.345 343.625C299.255 342.363 299.535 346.142 299.565 347.406C299.575 347.66 299.484 346.906 299.444 346.656C299.394 346.411 299.345 346.153 299.315 345.906C299.145 344.686 299.044 343.482 299.004 342.25C298.984 341.734 298.904 340.174 298.974 340.688C299.274 343.188 298.974 340.692 298.974 339.032C298.964 337.651 297.854 336.525 296.474 336.532Z" fill="white"/>
<path d="M41.5643 57.4998C39.6343 57.2398 37.6544 58.1238 36.5944 59.9058C35.4544 61.8298 34.3544 63.8028 33.1544 65.6878C30.7244 69.5148 27.9843 73.1698 25.2843 76.8128C18.6343 85.7828 11.5443 94.7708 7.81435 105.438C5.30435 112.619 4.63441 120.315 6.12441 127.782C6.49441 129.612 7.07443 131.383 7.65443 133.156C7.25443 133.621 6.83429 134.092 6.50429 134.5C4.92429 136.456 3.55429 138.596 2.50429 140.875C1.50429 143.019 0.774406 145.265 0.374406 147.594C0.0544055 149.471 -0.0656824 151.38 0.0343176 153.282C0.624318 165.157 8.7744 174.574 18.3744 180.719C35.1644 191.46 55.4243 196.743 75.3143 194.719C81.4843 194.091 87.5244 192.731 93.4044 190.782C96.0244 189.912 97.4343 187.059 96.5643 184.438C95.6943 181.817 92.8743 180.412 90.2543 181.282C85.0643 183.003 79.7543 184.228 74.3143 184.782C57.1543 186.527 39.6843 182.093 25.0343 173.094C22.8143 171.732 20.6445 170.283 18.6845 168.563C13.2645 163.801 8.96429 156.75 10.2543 149.282C10.5043 147.819 10.9443 146.408 11.5643 145.063C12.2843 143.513 13.2643 142.128 14.3143 140.813C14.3143 140.808 14.3444 140.818 14.3444 140.813C15.0244 140.693 15.7343 140.519 16.3143 140.156C17.0143 139.721 17.6244 139.145 18.0944 138.469C18.4644 137.937 18.6243 137.256 18.7843 136.625C18.8843 136.227 18.8544 135.817 18.8444 135.406C18.8344 134.847 18.6643 134.269 18.4743 133.75C18.4143 133.607 18.3443 133.485 18.2843 133.344C18.2643 133.304 18.2443 133.271 18.2243 133.219C18.2343 133.252 18.2045 133.158 18.1845 133.125C17.9645 132.575 17.7343 132.026 17.5343 131.469C17.2343 130.653 16.9643 129.835 16.7243 129C16.4143 127.955 16.1542 126.913 15.9442 125.844C15.5942 124.116 15.3643 122.355 15.3143 120.594C15.2043 117.042 15.7743 113.486 16.8143 110.094C19.6243 100.973 25.5645 93.1468 31.1845 85.5938C34.7345 80.8288 38.4044 76.0758 41.5944 71.0628C42.8544 69.0838 43.9945 67.0198 45.1845 64.9998C46.5945 62.6228 45.8142 59.5618 43.4442 58.1558C42.8442 57.8048 42.2043 57.5868 41.5643 57.4998Z" fill="white"/>
<path d="M416.785 57.4998C416.145 57.5868 415.505 57.8048 414.905 58.1558C412.535 59.5618 411.755 62.6228 413.155 64.9998C414.355 67.0198 415.495 69.0838 416.755 71.0628C420.255 76.5648 424.275 81.7338 428.155 86.9688C433.705 94.4438 439.504 102.34 441.944 111.469C442.794 114.674 443.154 117.998 442.974 121.313C442.874 123.097 442.645 124.882 442.255 126.625C441.945 127.989 441.555 129.336 441.095 130.656C440.795 131.53 440.445 132.363 440.095 133.219C440.095 133.233 440.105 133.241 440.095 133.25C440.065 133.319 440.035 133.4 440.005 133.469C439.905 133.684 439.825 133.901 439.755 134.125C439.635 134.515 439.515 135.007 439.505 135.406C439.495 135.817 439.465 136.227 439.565 136.625C439.725 137.256 439.875 137.937 440.255 138.469C440.725 139.145 441.335 139.721 442.035 140.156C442.615 140.519 443.325 140.693 444.005 140.813C444.015 140.814 444.025 140.811 444.035 140.813C445.085 142.128 446.035 143.513 446.755 145.063C447.475 146.624 447.975 148.292 448.185 150C449.115 157.234 444.895 163.964 439.655 168.563C437.705 170.283 435.535 171.732 433.315 173.094C418.665 182.093 401.195 186.527 384.035 184.782C378.595 184.228 373.285 183.003 368.095 181.282C365.475 180.412 362.655 181.817 361.785 184.438C360.915 187.059 362.314 189.912 364.944 190.782C370.824 192.731 376.865 194.091 383.035 194.719C403.485 196.8 424.325 191.163 441.375 179.813C451.975 172.761 460.214 160.835 457.944 147.594C457.534 145.265 456.835 143.019 455.845 140.875C454.605 138.197 452.935 135.729 451.005 133.5C450.915 133.398 450.814 133.292 450.724 133.188C451.414 131.088 452.025 128.959 452.405 126.782C453.655 119.625 452.925 112.288 450.535 105.438C446.805 94.7708 439.715 85.7828 433.065 76.8128C430.365 73.1698 427.595 69.5148 425.155 65.6878C423.955 63.8028 422.885 61.8298 421.755 59.9058C420.695 58.1238 418.715 57.2398 416.785 57.4998Z" fill="white"/>
<path d="M100.724 237.357L33.8645 552.331C33.8645 552.331 37.9446 563.893 88.4346 562.59" stroke="white" stroke-width="10" stroke-miterlimit="10" stroke-linecap="round" stroke-linejoin="round"/>
<path d="M352.084 237.357L418.954 552.331C418.954 552.331 414.865 563.893 364.385 562.59" stroke="white" stroke-width="10" stroke-miterlimit="10" stroke-linecap="round" stroke-linejoin="round"/>
<path d="M13.3744 129.969C12.7444 129.886 12.0443 130.048 11.5043 130.469C10.4043 131.31 10.2244 132.874 11.0644 133.969C15.0444 139.145 18.3143 144.961 23.0343 149.532C27.7843 154.134 33.6543 157.734 39.5043 160.75C48.2043 165.235 57.6744 168.538 67.3744 169.969C75.1444 171.115 83.0443 170.958 90.5343 168.469C91.8443 168.033 92.5644 166.623 92.1244 165.313C91.6944 164.003 90.2543 163.283 88.9443 163.719C82.1943 165.965 75.0844 166.062 68.0944 165.032C58.4744 163.613 49.0843 160.205 40.5343 155.625C35.5643 152.966 30.5743 149.873 26.5043 145.938C21.9643 141.554 18.8543 135.877 15.0343 130.906C14.6143 130.359 14.0144 130.052 13.3744 129.969Z" fill="white"/>
<path d="M443.944 132.032C443.304 132.102 442.684 132.399 442.254 132.938C430.554 147.556 416.914 161.845 398.254 166.906C393.304 168.248 388.275 168.845 383.155 168.906C381.775 168.923 380.645 170.057 380.655 171.438C380.675 172.818 381.805 173.923 383.185 173.906C388.725 173.838 394.205 173.203 399.565 171.75C419.325 166.39 433.755 151.561 446.155 136.063C447.025 134.985 446.864 133.425 445.784 132.563C445.244 132.131 444.574 131.961 443.944 132.032Z" fill="white"/>
</svg>
