<svg width="373" height="372" viewBox="0 0 373 372" fill="none" xmlns="http://www.w3.org/2000/svg">
<g clip-path="url(#clip0_304_6658)">
<mask id="mask0_304_6658" style="mask-type:luminance" maskUnits="userSpaceOnUse" x="-18" y="-141" width="390" height="844">
<path d="M372 -141H-18V703H372V-141Z" fill="white"/>
</mask>
<g mask="url(#mask0_304_6658)">
<path d="M-30.601 60.4091C-30.601 60.4091 -14.2072 193.618 122.504 209.741C259.215 225.865 312.712 28.1381 403.171 16.3311" stroke="#ED835E" stroke-width="5" stroke-miterlimit="10" stroke-linejoin="round" stroke-dasharray="20 20"/>
<path d="M-36.5938 238.625L-46.9688 250.625C-46.6216 250.79 -46.274 250.987 -45.9688 251.25L-41.625 255.031C-41.3198 255.295 -41.0583 255.587 -40.8438 255.906L-30.4688 243.906L-36.5938 238.625ZM-48 251.438C-48.5987 251.307 -49.2233 251.309 -49.8125 251.469C-50.5196 251.661 -51.1729 252.06 -51.6875 252.656L-54.9688 256.438C-56.3409 258.028 -56.1531 260.44 -54.5625 261.812L-50.7812 265.062C-49.1907 266.435 -46.8097 266.247 -45.4375 264.656L-42.1562 260.875C-40.7841 259.284 -40.9719 256.903 -42.5625 255.531L-46.3438 252.25C-46.8408 251.821 -47.4013 251.568 -48 251.438ZM17.375 251.656C17.1742 252.052 16.9678 252.442 16.8125 252.844C17.0429 252.64 17.2627 252.42 17.5 252.219C17.5061 252.214 17.5252 252.224 17.5312 252.219C17.5278 252.209 17.5348 252.197 17.5312 252.188C17.466 252.016 17.455 251.819 17.375 251.656ZM-23.4375 255.281C-24.5047 254.933 -26.6832 259.74 -27.0625 260.531C-29.4224 265.456 -31.0719 271.091 -34.0625 275.656C-33.5115 276.379 -33.1955 276.777 -32.8125 277.156C-32.1217 277.84 -31.3467 278.504 -30.5312 279.188C-30.4597 279.014 -30.3371 278.665 -30.2812 278.562C-28.7389 275.713 -25.9772 270.617 -22.5312 269.781C-20.0442 272.178 -17.5318 274.529 -15.75 277.531C-13.8901 280.666 -12.7758 284.543 -11.7188 288.031C-11.3082 289.386 -11.1128 290.986 -10.3125 292.188C-9.87969 292.837 -9.27645 293.426 -8.59375 294C-4.512 296.179 -0.474098 297.962 3.6562 299.344C4.34441 299.574 4.89909 299.797 6.0938 300.281C6.20709 300.327 6.25 300.35 6.3125 300.375C7.4029 300.816 8.2003 301.1 8.9062 301.312C8.9281 301.144 8.986 300.817 9 300.75C9.729 297.275 8.28011 292.582 6.5312 289.562C0.253502 278.726 -8.49304 270.718 -17.7812 262.5C-19.352 261.11 -20.9264 259.563 -22.0938 257.812C-22.316 257.479 -23.1502 255.375 -23.4375 255.281ZM-56.2812 261.406L-67.4688 274.406L-61.375 279.688L-50.1562 266.688C-50.5034 266.522 -50.8198 266.326 -51.125 266.062L-55.5 262.281C-55.8052 262.018 -56.0667 261.725 -56.2812 261.406ZM-47.5312 285.312L-51.0938 286.156L-52.4062 289.375L-48.25 292.094L-45.7812 290.031L-47.5312 285.312ZM-41.8125 286.312C-43.1308 286.434 -44.4342 286.755 -45.6875 287.312L-45.0312 288.812C-40.6817 286.876 -35.5365 288.041 -32.4375 291.75C-28.6319 296.304 -29.2272 303.069 -33.7812 306.875C-38.3353 310.681 -45.1007 310.085 -48.9062 305.531C-52.0368 301.785 -52.2252 296.443 -49.4688 292.5L-50.8125 291.562C-53.9897 296.108 -53.7636 302.277 -50.1562 306.594C-45.7712 311.841 -37.9663 312.542 -32.7188 308.156C-27.4712 303.771 -26.7712 295.935 -31.1562 290.688C-33.8344 287.483 -37.8577 285.947 -41.8125 286.312ZM31.2812 290.156C30.109 290.045 28.9337 290.162 27.8125 290.625C27.423 290.786 27.0391 290.986 26.6875 291.219C26.3186 291.463 25.9767 291.757 25.6875 292.094C24.6157 293.338 24.6925 294.899 25.0625 296.406C25.2711 297.256 25.571 298.066 25.8125 298.906C25.9834 299.501 26.1148 300.129 26.125 300.75C26.1317 301.157 26.0911 301.574 26 301.969C25.6026 303.693 24.489 305.127 23.4688 306.531C22.9911 307.189 22.5292 307.868 22.125 308.562C21.7139 308.282 21.2844 307.993 20.9062 307.688C19.9086 307.868 19.3075 308.416 18.5 309.656C18.4083 309.797 18.2328 310.052 18.0312 310.375C17.9328 310.615 17.827 311.002 17.75 311.156C15.9546 314.751 10.9278 324.332 11.25 329.688C11.3461 329.729 11.4334 329.803 11.5312 329.844C13.2374 330.563 14.6849 331.034 17.875 332C22.5183 333.406 27.0664 334.166 32.9062 334.625C42.3723 335.368 47.31 334.587 53.4375 330.844C54.0034 325.727 50.2835 316.039 49.0625 312.281C48.7955 311.733 48.4552 311.016 48.3125 310.75C47.9047 309.99 47.5457 309.536 47.0625 309.281C46.7362 309.488 46.417 309.656 46.0938 309.844C45.9899 308.987 45.8324 308.149 45.625 307.312C45.1575 305.428 44.4947 303.591 43.7188 301.812C42.9462 300.042 42.0502 298.31 41 296.688C39.8798 294.956 38.5882 293.282 36.8125 292.188C35.1887 291.186 33.2349 290.342 31.2812 290.156ZM30.8438 291.344C32.8525 291.448 34.8761 292.387 36.5 293.438C37.1927 293.886 37.8113 294.502 38.3438 295.125C38.9414 295.825 39.4701 296.571 39.9688 297.344C40.9802 298.912 41.8488 300.603 42.5938 302.312C43.3739 304.103 44.0185 305.941 44.4688 307.844C44.6751 308.716 44.8308 309.607 44.9062 310.5C43.3279 311.315 41.7634 311.91 40.1562 312.25C34.7003 313.404 28.009 312.158 23.0938 309.219C23.6078 308.329 24.242 307.495 24.8438 306.656C25.9726 305.082 27.0484 303.406 27.2812 301.438C27.5159 299.455 26.5102 297.615 26.125 295.719C25.9247 294.733 25.8986 293.677 26.5938 292.875C26.812 292.623 27.0662 292.401 27.3438 292.219C28.4239 291.508 29.6385 291.281 30.8438 291.344ZM-17.7812 304.531C-19.2084 303.984 -20.7969 304.729 -21.3438 306.156L-32.1562 334.312C-32.7031 335.74 -31.9897 337.328 -30.5625 337.875L-16.9688 343.094C-15.5416 343.641 -13.9531 342.927 -13.4062 341.5L-2.5938 313.312C-2.0469 311.885 -2.7603 310.297 -4.1875 309.75L-17.7812 304.531ZM-18.3125 305.312C-17.4907 305.627 -17.0601 306.553 -17.375 307.375C-17.6899 308.197 -18.6157 308.596 -19.4375 308.281C-20.2593 307.966 -20.6899 307.041 -20.375 306.219C-20.0601 305.397 -19.1343 304.998 -18.3125 305.312ZM-15.4375 308.969C-14.6157 309.284 -14.2163 310.21 -14.5312 311.031C-14.8461 311.853 -15.7407 312.252 -16.5625 311.938C-17.3843 311.623 -17.8149 310.697 -17.5 309.875C-17.1851 309.053 -16.2593 308.654 -15.4375 308.969ZM-20.1562 310.156C-19.3344 310.471 -18.9351 311.397 -19.25 312.219C-19.5649 313.041 -20.4907 313.44 -21.3125 313.125C-22.1343 312.81 -22.5337 311.916 -22.2188 311.094C-21.9039 310.272 -20.9781 309.842 -20.1562 310.156ZM82.75 342.531C78.979 342.587 75.0503 343.646 71.875 345.625C68.7465 347.576 66.2358 351.554 65.1875 355.031C64.8904 356.017 64.6444 357.264 64.25 358.438C64.2739 358.439 64.2885 358.436 64.3125 358.438C63.9881 359.145 63.6771 359.942 63.8438 360.438C63.9195 360.663 64.5975 360.764 64.7812 360.844C65.577 361.188 66.3595 361.852 67.0625 362.375C67.0925 362.397 67.096 362.415 67.125 362.438C64.5645 361.634 60.6697 361.634 57.9688 362.344C56.687 362.764 55.4606 363.235 54.2188 363.719C51.5154 364.867 47.4988 367.069 50.3438 368.406C51.5177 368.958 53.6599 367.895 54.875 367.812C57.9098 367.605 61.7138 368.769 64.375 370.156C67.3877 371.727 70.3112 378.053 73.0625 378.281C74.894 378.433 75.6224 376.736 76.8438 375.625C78.3198 374.282 79.6927 373.315 81.25 372.656C81.4195 372.483 81.6337 372.342 81.875 372.25C81.9027 372.239 81.8785 372.229 81.9062 372.219C83.219 371.72 88.587 369.908 89.781 369.469C95.766 367.268 99.596 364.924 101.781 361.719C101.674 360.299 101.086 358.841 100.875 357.469C100.339 353.968 99.065 350.385 96.875 347.531C96.249 346.978 95.434 346.181 94.844 345.75C93.571 344.821 92.047 344.288 89.375 343.719C89.104 343.661 87.248 343.286 86.812 343.188C85.384 342.865 84.07 342.685 82.75 342.531ZM24.1562 347.469L13.7812 359.5C14.1284 359.665 14.476 359.862 14.7812 360.125L19.1562 363.875C19.4615 364.138 19.6917 364.462 19.9062 364.781L30.2812 352.781L24.1562 347.469ZM12.75 360.281C12.1513 360.15 11.5267 360.184 10.9375 360.344C10.2304 360.536 9.5771 360.935 9.0625 361.531L5.8125 365.312C4.4403 366.903 4.6281 369.284 6.2188 370.656L9.9688 373.938C11.5593 375.31 13.9716 375.122 15.3438 373.531L18.5938 369.75C19.9659 368.159 19.8094 365.747 18.2188 364.375L14.4375 361.125C13.9404 360.696 13.3487 360.412 12.75 360.281ZM37.3438 364.125C36.2766 363.776 34.0668 368.615 33.6875 369.406C31.3276 374.331 29.6782 379.966 26.6875 384.531C27.2385 385.254 27.5545 385.652 27.9375 386.031C28.6283 386.715 29.4033 387.379 30.2188 388.062C30.2903 387.889 30.4128 387.541 30.4688 387.438C32.0111 384.588 34.7728 379.492 38.2188 378.656C40.7058 381.053 43.2495 383.404 45.0312 386.406C46.8912 389.541 48.0054 393.387 49.0625 396.875C49.4731 398.23 49.6372 399.861 50.4375 401.062C50.8703 401.712 51.5048 402.301 52.1875 402.875C56.2692 405.054 60.3071 406.837 64.4375 408.219C65.1256 408.449 65.6491 408.641 66.8438 409.125C66.9571 409.171 67.0312 409.193 67.0938 409.219C68.1842 409.66 68.9816 409.975 69.6875 410.188C69.7094 410.019 69.7359 409.692 69.75 409.625C70.479 406.15 69.0614 401.426 67.3125 398.406C61.0348 387.569 52.2882 379.594 43 371.375C41.4292 369.985 39.8548 368.438 38.6875 366.688C38.4652 366.354 37.6311 364.219 37.3438 364.125ZM4.5 370.281L-6.7188 383.281L-0.593796 388.562L10.625 375.562C10.2779 375.397 9.9302 375.201 9.625 374.938L5.25 371.156C4.9448 370.893 4.7146 370.6 4.5 370.281ZM119 375.156C117.954 375.351 117.274 376.361 117.469 377.406C117.663 378.452 118.673 379.164 119.719 378.969C120.765 378.774 121.445 377.764 121.25 376.719C121.055 375.673 120.046 374.962 119 375.156ZM116.938 378.656C115.892 378.851 115.211 379.861 115.406 380.906C115.601 381.952 116.61 382.664 117.656 382.469C118.702 382.274 119.382 381.264 119.188 380.219C118.993 379.173 117.983 378.462 116.938 378.656ZM89.75 380.594C88.704 380.789 88.024 381.798 88.219 382.844C88.413 383.89 89.423 384.601 90.469 384.406C91.515 384.212 92.195 383.202 92 382.156C91.805 381.11 90.796 380.399 89.75 380.594ZM114.031 382.094C112.985 382.288 112.305 383.298 112.5 384.344C112.695 385.39 113.704 386.07 114.75 385.875C115.796 385.68 116.476 384.671 116.281 383.625C116.087 382.579 115.077 381.899 114.031 382.094ZM92.906 383.156C91.86 383.351 91.18 384.329 91.375 385.375C91.57 386.421 92.579 387.132 93.625 386.938C94.671 386.743 95.351 385.734 95.156 384.688C94.962 383.642 93.952 382.962 92.906 383.156ZM110.094 384.469C109.048 384.663 108.336 385.673 108.531 386.719C108.726 387.765 109.735 388.445 110.781 388.25C111.827 388.055 112.507 387.046 112.312 386C112.118 384.954 111.14 384.274 110.094 384.469ZM96.875 385.281C95.829 385.476 95.149 386.485 95.344 387.531C95.538 388.577 96.548 389.288 97.594 389.094C98.64 388.899 99.32 387.89 99.125 386.844C98.93 385.798 97.921 385.086 96.875 385.281ZM105.688 385.438C104.642 385.632 103.962 386.641 104.156 387.688C104.351 388.733 105.329 389.413 106.375 389.219C107.421 389.024 108.132 388.015 107.938 386.969C107.743 385.923 106.733 385.243 105.688 385.438ZM101.406 386.062C100.36 386.257 99.68 387.266 99.875 388.312C100.07 389.358 101.079 390.07 102.125 389.875C103.171 389.68 103.851 388.671 103.656 387.625C103.461 386.579 102.452 385.868 101.406 386.062ZM13.2188 394.188L9.6562 395.031L8.375 398.25L12.5312 400.938L15 398.875L13.2188 394.188ZM18.9375 395.188C17.6192 395.31 16.3158 395.63 15.0625 396.188L15.75 397.688C20.0995 395.751 25.2448 396.916 28.3438 400.625C32.1493 405.179 31.5541 411.944 27 415.75C22.4459 419.556 15.6493 418.96 11.8438 414.406C8.7132 410.66 8.5248 405.287 11.2812 401.344L9.9375 400.406C6.7603 404.951 6.9864 411.121 10.5938 415.438C14.9788 420.685 22.7837 421.385 28.0312 417C33.2788 412.615 33.9788 404.81 29.5938 399.562C26.9156 396.358 22.8923 394.821 18.9375 395.188ZM92.062 399.031C90.89 398.92 89.715 399.037 88.594 399.5C88.204 399.661 87.82 399.861 87.469 400.094C87.1 400.338 86.758 400.601 86.469 400.938C85.397 402.182 85.474 403.743 85.844 405.25C86.052 406.1 86.321 406.941 86.562 407.781C86.733 408.376 86.896 409.003 86.906 409.625C86.913 410.032 86.841 410.418 86.75 410.812C86.353 412.537 85.239 414.002 84.219 415.406C83.741 416.064 83.31 416.743 82.906 417.438C82.495 417.157 82.066 416.868 81.6875 416.562C80.6898 416.743 80.0575 417.291 79.25 418.531C79.1583 418.672 79.0142 418.927 78.8125 419.25C78.714 419.49 78.5771 419.846 78.5 420C76.7046 423.595 71.7091 433.207 72.0312 438.562C72.1273 438.604 72.2147 438.646 72.3125 438.688C74.0187 439.406 75.4661 439.909 78.6562 440.875C83.3 442.281 87.848 443.041 93.688 443.5C103.154 444.243 108.091 443.462 114.219 439.719C114.785 434.602 111.065 424.883 109.844 421.125C109.577 420.577 109.237 419.891 109.094 419.625C108.686 418.865 108.296 418.411 107.812 418.156C107.486 418.363 107.167 418.531 106.844 418.719C106.74 417.862 106.582 417.024 106.375 416.188C105.908 414.303 105.245 412.466 104.469 410.688C103.696 408.917 102.8 407.185 101.75 405.562C100.63 403.831 99.338 402.157 97.562 401.062C95.939 400.061 94.016 399.217 92.062 399.031ZM91.594 400.188C93.602 400.292 95.658 401.262 97.281 402.312C97.974 402.761 98.561 403.376 99.094 404C99.691 404.7 100.22 405.446 100.719 406.219C101.73 407.787 102.599 409.447 103.344 411.156C104.124 412.947 104.8 414.817 105.25 416.719C105.456 417.591 105.612 418.482 105.688 419.375C104.109 420.19 102.545 420.785 100.938 421.125C95.482 422.279 88.79 421.032 83.875 418.094C84.389 417.204 84.992 416.339 85.594 415.5C86.723 413.926 87.798 412.249 88.031 410.281C88.266 408.299 87.291 406.489 86.906 404.594C86.706 403.608 86.68 402.521 87.375 401.719C87.593 401.467 87.847 401.276 88.125 401.094C89.205 400.383 90.388 400.125 91.594 400.188ZM43 413.406C41.5728 412.859 39.9531 413.573 39.4062 415L28.625 443.188C28.0781 444.615 28.7916 446.203 30.2188 446.75L43.7812 451.969C45.2084 452.516 46.8282 451.802 47.375 450.375L58.1562 422.188C58.7031 420.76 57.9897 419.172 56.5625 418.625L43 413.406ZM42.4688 414.188C43.2905 414.502 43.6898 415.397 43.375 416.219C43.0601 417.041 42.1344 417.471 41.3125 417.156C40.4907 416.841 40.0914 415.915 40.4062 415.094C40.7211 414.272 41.6469 413.873 42.4688 414.188ZM-26.2188 414.969C-29.9898 415.024 -33.9184 416.083 -37.0938 418.062C-40.2223 420.013 -42.7017 423.992 -43.75 427.469C-44.0471 428.454 -44.3243 429.701 -44.7188 430.875C-44.6948 430.877 -44.649 430.905 -44.625 430.906C-44.9494 431.614 -45.2916 432.379 -45.125 432.875C-45.0493 433.1 -44.3713 433.202 -44.1875 433.281C-43.3918 433.626 -42.6092 434.289 -41.9062 434.812C-41.8763 434.835 -41.8415 434.852 -41.8125 434.875C-44.373 434.072 -48.2679 434.071 -50.9688 434.781C-52.2505 435.202 -53.5081 435.673 -54.75 436.156C-57.4534 437.305 -61.47 439.506 -58.625 440.844C-57.4511 441.396 -55.3089 440.364 -54.0938 440.281C-51.0589 440.074 -47.2549 441.206 -44.5938 442.594C-41.5811 444.164 -38.6575 450.49 -35.9062 450.719C-34.0748 450.871 -33.3151 449.174 -32.0938 448.062C-30.6177 446.719 -29.276 445.753 -27.7188 445.094C-27.5492 444.921 -27.3351 444.78 -27.0938 444.688C-27.0661 444.677 -27.059 444.667 -27.0312 444.656C-25.7189 444.158 -20.3817 442.345 -19.1875 441.906C-13.2024 439.706 -9.3728 437.361 -7.1875 434.156C-7.2952 432.736 -7.8831 431.309 -8.09375 429.938C-8.63017 426.437 -9.87242 422.822 -12.0625 419.969C-12.688 419.415 -13.5037 418.618 -14.0938 418.188C-15.3661 417.259 -16.922 416.726 -19.5938 416.156C-19.8652 416.098 -21.6899 415.723 -22.125 415.625C-23.5539 415.303 -24.8987 415.123 -26.2188 414.969ZM45.3438 417.844C46.1655 418.159 46.5649 419.085 46.25 419.906C45.9351 420.728 45.0094 421.127 44.1875 420.812C43.3657 420.498 42.9664 419.572 43.2812 418.75C43.5961 417.928 44.5219 417.529 45.3438 417.844ZM40.5938 419.031C41.4155 419.346 41.8461 420.272 41.5312 421.094C41.2164 421.916 40.2906 422.315 39.4688 422C38.647 421.685 38.2477 420.759 38.5625 419.938C38.8774 419.116 39.7719 418.716 40.5938 419.031ZM-84.8125 419.938L-95.1562 431.938C-94.8091 432.103 -94.4927 432.299 -94.1875 432.562L-89.8125 436.344C-89.5073 436.607 -89.2458 436.9 -89.0312 437.219L-78.6875 425.219L-84.8125 419.938ZM-96.1875 432.75C-96.7862 432.619 -97.4108 432.622 -98 432.781C-98.7071 432.973 -99.3917 433.372 -99.9062 433.969L-103.156 437.75C-104.528 439.341 -104.34 441.753 -102.75 443.125L-98.9688 446.375C-97.3782 447.747 -94.9972 447.559 -93.625 445.969L-90.3438 442.188C-88.9716 440.597 -89.1594 438.216 -90.75 436.844L-94.5312 433.562C-95.0283 433.134 -95.5888 432.881 -96.1875 432.75ZM-71.625 436.594C-72.6922 436.245 -74.8707 441.052 -75.25 441.844C-77.6099 446.769 -79.2594 452.404 -82.25 456.969C-81.699 457.692 -81.383 458.09 -81 458.469C-80.3092 459.153 -79.5342 459.816 -78.7188 460.5C-78.6472 460.326 -78.5247 459.978 -78.4688 459.875C-76.9264 457.025 -74.1647 451.929 -70.7188 451.094C-68.2317 453.491 -65.7193 455.841 -63.9375 458.844C-62.0776 461.979 -60.9633 465.855 -59.9062 469.344C-59.4957 470.699 -59.3003 472.298 -58.5 473.5C-58.0672 474.15 -57.464 474.738 -56.7812 475.312C-52.6995 477.492 -48.6616 479.274 -44.5312 480.656C-43.8431 480.886 -43.3196 481.109 -42.125 481.594C-42.0117 481.64 -41.9375 481.662 -41.875 481.688C-40.7846 482.129 -39.9872 482.412 -39.2812 482.625C-39.2594 482.457 -39.2328 482.129 -39.2188 482.062C-38.4898 478.587 -39.9074 473.894 -41.6562 470.875C-47.934 460.038 -56.6805 452.062 -65.9688 443.844C-67.5395 442.454 -69.1139 440.875 -70.2812 439.125C-70.5035 438.792 -71.3377 436.688 -71.625 436.594ZM-104.469 442.719L-115.688 455.719L-109.562 461L-98.3438 448C-98.6909 447.835 -99.0073 447.639 -99.3125 447.375L-103.688 443.594C-103.993 443.33 -104.254 443.038 -104.469 442.719ZM10.0312 447.625C8.9854 447.82 8.3052 448.829 8.5 449.875C8.6947 450.921 9.7042 451.601 10.75 451.406C11.7958 451.212 12.476 450.202 12.2812 449.156C12.0865 448.11 11.0771 447.43 10.0312 447.625ZM8 451.125C6.9542 451.32 6.2428 452.329 6.4375 453.375C6.6322 454.421 7.6417 455.101 8.6875 454.906C9.7333 454.712 10.4447 453.702 10.25 452.656C10.0553 451.61 9.0458 450.93 8 451.125ZM-19.1875 453.062C-20.2333 453.257 -20.9447 454.266 -20.75 455.312C-20.5553 456.358 -19.5458 457.039 -18.5 456.844C-17.4542 456.649 -16.774 455.64 -16.9688 454.594C-17.1635 453.548 -18.1417 452.868 -19.1875 453.062ZM5.0938 454.562C4.0479 454.757 3.3365 455.736 3.5312 456.781C3.72601 457.827 4.7354 458.538 5.7812 458.344C6.8271 458.149 7.5072 457.139 7.3125 456.094C7.1178 455.048 6.1396 454.368 5.0938 454.562ZM-16.0312 455.594C-17.0771 455.788 -17.7572 456.798 -17.5625 457.844C-17.3678 458.89 -16.3896 459.57 -15.3438 459.375C-14.2979 459.18 -13.5865 458.171 -13.7812 457.125C-13.976 456.079 -14.9854 455.399 -16.0312 455.594ZM1.125 456.906C0.0792007 457.101 -0.601006 458.111 -0.406204 459.156C-0.211502 460.202 0.797897 460.882 1.8438 460.688C2.8896 460.493 3.5697 459.483 3.375 458.438C3.1803 457.392 2.1708 456.712 1.125 456.906ZM-12.0938 457.75C-13.1396 457.945 -13.8197 458.954 -13.625 460C-13.4303 461.046 -12.4208 461.726 -11.375 461.531C-10.3292 461.337 -9.64902 460.327 -9.84375 459.281C-10.0385 458.235 -11.0479 457.555 -12.0938 457.75ZM-3.2812 457.875C-4.3271 458.07 -5.0072 459.079 -4.8125 460.125C-4.6178 461.171 -3.6084 461.882 -2.5625 461.688C-1.5167 461.493 -0.836502 460.483 -1.0312 459.438C-1.22601 458.392 -2.2354 457.68 -3.2812 457.875ZM-7.5625 458.531C-8.60833 458.726 -9.28848 459.735 -9.09375 460.781C-8.89902 461.827 -7.8896 462.508 -6.8438 462.312C-5.7979 462.118 -5.1178 461.108 -5.3125 460.062C-5.5073 459.017 -6.5167 458.337 -7.5625 458.531ZM-95.7188 466.625L-99.3125 467.469L-100.594 470.688L-96.4375 473.406L-93.9688 471.344L-95.7188 466.625ZM-90 467.625C-91.3183 467.747 -92.6529 468.067 -93.9062 468.625L-93.2188 470.125C-88.8692 468.189 -83.724 469.354 -80.625 473.062C-76.8194 477.617 -77.4147 484.382 -81.9688 488.188C-86.5228 491.993 -93.2882 491.398 -97.0938 486.844C-100.224 483.097 -100.444 477.756 -97.6875 473.812L-99 472.875C-102.177 477.42 -101.982 483.589 -98.375 487.906C-93.9899 493.154 -86.1538 493.854 -80.9062 489.469C-75.6587 485.084 -74.9899 477.279 -79.375 472.031C-82.0532 468.826 -86.0452 467.259 -90 467.625ZM-65.9688 485.844C-67.3959 485.297 -68.9844 486.041 -69.5312 487.469L-80.3438 515.625C-80.8906 517.052 -80.1772 518.672 -78.75 519.219L-65.1562 524.406C-63.7291 524.953 -62.1406 524.24 -61.5938 522.812L-50.8125 494.625C-50.2656 493.198 -50.9478 491.609 -52.375 491.062L-65.9688 485.844ZM-66.5 486.625C-65.6782 486.94 -65.2789 487.866 -65.5938 488.688C-65.9086 489.509 -66.8344 489.909 -67.6562 489.594C-68.478 489.279 -68.8774 488.353 -68.5625 487.531C-68.2476 486.709 -67.3218 486.31 -66.5 486.625ZM-63.625 490.281C-62.8032 490.596 -62.4038 491.522 -62.7188 492.344C-63.0336 493.166 -63.9281 493.565 -64.75 493.25C-65.5718 492.935 -66.0024 492.009 -65.6875 491.188C-65.3726 490.366 -64.4468 489.966 -63.625 490.281ZM-68.3438 491.469C-67.522 491.784 -67.1227 492.709 -67.4375 493.531C-67.7524 494.353 -68.6781 494.752 -69.5 494.438C-70.3218 494.123 -70.7211 493.228 -70.4062 492.406C-70.0914 491.584 -69.1656 491.154 -68.3438 491.469Z" fill="#F4F4F4"/>
<path d="M415.938 77.219C412.166 77.274 408.207 78.333 405.031 80.312C401.903 82.263 399.423 86.242 398.375 89.719C398.078 90.704 397.832 91.951 397.438 93.125C397.461 93.127 397.476 93.123 397.5 93.125C397.176 93.832 396.833 94.629 397 95.125C397.076 95.35 397.754 95.452 397.938 95.531C398.733 95.876 399.547 96.508 400.25 97.031C400.28 97.054 400.283 97.102 400.312 97.125C397.752 96.322 393.857 96.321 391.156 97.031C389.875 97.452 388.617 97.923 387.375 98.406C384.672 99.555 380.655 101.756 383.5 103.094C384.674 103.646 386.848 102.583 388.062 102.5C391.097 102.293 394.87 103.456 397.531 104.844C400.544 106.414 403.468 112.74 406.219 112.969C408.05 113.121 408.81 111.424 410.031 110.312C411.507 108.969 412.88 108.002 414.438 107.344C414.607 107.171 414.79 106.998 415.031 106.906C415.059 106.896 415.066 106.886 415.094 106.875C416.406 106.376 421.744 104.596 422.938 104.156C428.923 101.956 432.783 99.611 434.969 96.406C434.861 94.986 434.273 93.528 434.062 92.156C433.526 88.656 432.253 85.073 430.062 82.219C429.437 81.665 428.622 80.868 428.031 80.438C426.759 79.509 425.234 78.976 422.562 78.406C422.291 78.348 420.435 77.973 420 77.875C418.571 77.553 417.258 77.373 415.938 77.219ZM357.344 82.156L346.969 94.188C347.316 94.353 347.664 94.549 347.969 94.812L352.344 98.562C352.649 98.826 352.879 99.15 353.094 99.469L363.469 87.438L357.344 82.156ZM345.938 94.969C345.339 94.838 344.714 94.871 344.125 95.031C343.418 95.223 342.765 95.622 342.25 96.219L339 99.969C337.628 101.559 337.784 103.972 339.375 105.344L343.156 108.594C344.747 109.966 347.159 109.809 348.531 108.219L351.781 104.438C353.153 102.847 352.965 100.435 351.375 99.062L347.594 95.812C347.097 95.384 346.536 95.1 345.938 94.969ZM370.5 98.812C369.433 98.464 367.255 103.271 366.875 104.062C364.515 108.987 362.866 114.653 359.875 119.219C360.426 119.942 360.742 120.308 361.125 120.688C361.816 121.372 362.591 122.035 363.406 122.719C363.478 122.545 363.601 122.228 363.656 122.125C365.199 119.275 367.96 114.179 371.406 113.344C373.893 115.741 376.437 118.091 378.219 121.094C380.079 124.229 381.161 128.074 382.219 131.562C382.629 132.917 382.825 134.517 383.625 135.719C384.058 136.369 384.692 136.988 385.375 137.562C389.457 139.742 393.464 141.524 397.594 142.906C398.282 143.136 398.837 143.328 400.031 143.812C400.145 143.858 400.188 143.881 400.25 143.906C401.34 144.348 402.138 144.631 402.844 144.844C402.866 144.676 402.923 144.348 402.938 144.281C403.666 140.806 402.218 136.113 400.469 133.094C394.191 122.257 385.445 114.281 376.156 106.062C374.585 104.673 373.043 103.126 371.875 101.375C371.653 101.042 370.787 98.906 370.5 98.812ZM337.688 104.969L326.469 117.969L332.594 123.25L343.781 110.25C343.434 110.085 343.117 109.857 342.812 109.594L338.438 105.844C338.132 105.58 337.902 105.288 337.688 104.969ZM452.188 109.844C451.142 110.038 450.43 111.048 450.625 112.094C450.82 113.14 451.829 113.82 452.875 113.625C453.921 113.43 454.601 112.452 454.406 111.406C454.212 110.36 453.233 109.649 452.188 109.844ZM450.125 113.344C449.079 113.538 448.399 114.548 448.594 115.594C448.788 116.64 449.798 117.351 450.844 117.156C451.89 116.962 452.569 115.952 452.375 114.906C452.18 113.86 451.17 113.149 450.125 113.344ZM422.938 115.281C421.892 115.476 421.212 116.486 421.406 117.531C421.601 118.577 422.61 119.288 423.656 119.094C424.702 118.899 425.382 117.89 425.188 116.844C424.993 115.798 423.983 115.086 422.938 115.281ZM447.219 116.781C446.173 116.976 445.493 117.985 445.688 119.031C445.882 120.077 446.861 120.757 447.906 120.562C448.952 120.368 449.663 119.358 449.469 118.312C449.274 117.267 448.264 116.587 447.219 116.781ZM426.094 117.812C425.048 118.007 424.368 119.017 424.562 120.062C424.757 121.108 425.767 121.82 426.812 121.625C427.858 121.43 428.539 120.421 428.344 119.375C428.149 118.329 427.14 117.618 426.094 117.812ZM443.25 119.125C442.204 119.32 441.524 120.329 441.719 121.375C441.913 122.421 442.923 123.132 443.969 122.938C445.015 122.743 445.695 121.733 445.5 120.688C445.305 119.642 444.296 118.93 443.25 119.125ZM430.062 119.969C429.017 120.163 428.305 121.173 428.5 122.219C428.695 123.265 429.704 123.945 430.75 123.75C431.796 123.555 432.508 122.546 432.312 121.5C432.118 120.454 431.108 119.774 430.062 119.969ZM438.875 120.125C437.829 120.32 437.118 121.329 437.312 122.375C437.507 123.421 438.516 124.101 439.562 123.906C440.608 123.712 441.32 122.702 441.125 121.656C440.93 120.61 439.921 119.93 438.875 120.125ZM434.594 120.75C433.548 120.945 432.868 121.954 433.062 123C433.257 124.046 434.235 124.726 435.281 124.531C436.327 124.337 437.039 123.358 436.844 122.312C436.649 121.267 435.64 120.555 434.594 120.75ZM346.406 128.844L342.844 129.688L341.562 132.906L345.688 135.625L348.156 133.562L346.406 128.844ZM352.125 129.875C350.807 129.997 349.503 130.317 348.25 130.875L348.906 132.375C353.256 130.439 358.432 131.604 361.531 135.312C365.337 139.867 364.711 146.632 360.156 150.438C355.602 154.243 348.837 153.648 345.031 149.094C341.901 145.347 341.712 139.974 344.469 136.031L343.125 135.094C339.948 139.639 340.174 145.808 343.781 150.125C348.166 155.373 355.971 156.073 361.219 151.688C366.466 147.302 367.167 139.498 362.781 134.25C360.103 131.045 356.08 129.509 352.125 129.875ZM425.25 133.719C424.078 133.607 422.871 133.724 421.75 134.188C421.361 134.348 421.008 134.549 420.656 134.781C420.287 135.025 419.946 135.289 419.656 135.625C418.584 136.87 418.63 138.43 419 139.938C419.209 140.788 419.509 141.628 419.75 142.469C419.921 143.064 420.083 143.691 420.094 144.312C420.1 144.719 420.029 145.105 419.938 145.5C419.54 147.224 418.427 148.69 417.406 150.094C416.929 150.751 416.467 151.399 416.062 152.094C415.651 151.814 415.222 151.555 414.844 151.25C413.846 151.43 413.245 151.979 412.438 153.219C412.346 153.359 412.201 153.614 412 153.938C411.902 154.177 411.765 154.533 411.688 154.688C409.892 158.282 404.865 167.894 405.188 173.25C405.284 173.292 405.371 173.334 405.469 173.375C407.175 174.094 408.622 174.565 411.812 175.531C416.456 176.937 421.035 177.698 426.875 178.156C436.341 178.899 441.248 178.15 447.375 174.406C447.941 169.29 444.221 159.57 443 155.812C442.733 155.264 442.393 154.578 442.25 154.312C441.842 153.553 441.483 153.068 441 152.812C440.674 153.019 440.354 153.218 440.031 153.406C439.927 152.55 439.77 151.68 439.562 150.844C439.095 148.959 438.432 147.122 437.656 145.344C436.884 143.573 435.988 141.873 434.938 140.25C433.817 138.519 432.526 136.814 430.75 135.719C429.126 134.718 427.204 133.904 425.25 133.719ZM424.781 134.875C426.79 134.98 428.845 135.949 430.469 137C431.161 137.448 431.749 138.064 432.281 138.688C432.879 139.388 433.408 140.133 433.906 140.906C434.918 142.475 435.786 144.134 436.531 145.844C437.311 147.635 437.956 149.504 438.406 151.406C438.613 152.278 438.769 153.169 438.844 154.062C437.265 154.877 435.701 155.473 434.094 155.812C428.638 156.966 421.978 155.689 417.062 152.75C417.577 151.86 418.18 151.027 418.781 150.188C419.91 148.614 420.986 146.936 421.219 144.969C421.453 142.986 420.447 141.177 420.062 139.281C419.862 138.296 419.867 137.209 420.562 136.406C420.781 136.154 421.035 135.964 421.312 135.781C422.393 135.071 423.576 134.812 424.781 134.875ZM376.156 148.094C374.729 147.547 373.14 148.26 372.594 149.688L361.812 177.875C361.266 179.302 361.948 180.891 363.375 181.438L376.969 186.656C378.396 187.203 379.985 186.459 380.531 185.031L391.344 156.875C391.891 155.448 391.177 153.828 389.75 153.281L376.156 148.094ZM375.625 148.875C376.447 149.19 376.877 150.084 376.562 150.906C376.248 151.728 375.322 152.159 374.5 151.844C373.678 151.529 373.279 150.603 373.594 149.781C373.909 148.959 374.803 148.56 375.625 148.875ZM378.5 152.531C379.322 152.846 379.752 153.741 379.438 154.562C379.123 155.384 378.197 155.815 377.375 155.5C376.553 155.185 376.154 154.259 376.469 153.438C376.784 152.616 377.678 152.216 378.5 152.531ZM373.781 153.719C374.603 154.034 375.002 154.96 374.688 155.781C374.373 156.603 373.447 157.002 372.625 156.688C371.803 156.373 371.404 155.447 371.719 154.625C372.034 153.803 372.959 153.404 373.781 153.719ZM348.438 160.781C347.946 160.756 347.456 160.924 347.062 161.281C346.274 161.995 346.192 163.211 346.906 164C347.62 164.789 348.836 164.87 349.625 164.156C350.414 163.442 350.495 162.226 349.781 161.438C349.424 161.043 348.929 160.807 348.438 160.781ZM348.531 164.844C348.038 164.819 347.551 164.987 347.156 165.344C346.368 166.058 346.286 167.274 347 168.062C347.714 168.851 348.93 168.902 349.719 168.188C350.507 167.473 350.589 166.257 349.875 165.469C349.518 165.074 349.024 164.868 348.531 164.844ZM347.844 169.281C347.352 169.258 346.863 169.424 346.469 169.781C345.68 170.495 345.598 171.711 346.312 172.5C347.027 173.289 348.243 173.37 349.031 172.656C349.82 171.942 349.901 170.695 349.188 169.906C348.83 169.512 348.335 169.304 347.844 169.281ZM345.719 173.375C345.227 173.349 344.738 173.518 344.344 173.875C343.555 174.589 343.474 175.805 344.188 176.594C344.902 177.382 346.118 177.433 346.906 176.719C347.695 176.005 347.777 174.789 347.062 174C346.705 173.606 346.21 173.401 345.719 173.375ZM342.5 176.5C342.007 176.476 341.488 176.643 341.094 177C340.305 177.714 340.255 178.93 340.969 179.719C341.683 180.507 342.899 180.589 343.688 179.875C344.476 179.161 344.527 177.945 343.812 177.156C343.455 176.762 342.993 176.525 342.5 176.5ZM339.188 179.281C338.694 179.257 338.175 179.424 337.781 179.781C336.993 180.495 336.942 181.711 337.656 182.5C338.37 183.289 339.586 183.37 340.375 182.656C341.164 181.942 341.214 180.726 340.5 179.938C340.143 179.543 339.681 179.306 339.188 179.281ZM326.406 180.75C325.914 180.724 325.394 180.893 325 181.25C324.211 181.964 324.161 183.18 324.875 183.969C325.589 184.757 326.805 184.808 327.594 184.094C328.382 183.38 328.433 182.164 327.719 181.375C327.362 180.981 326.898 180.776 326.406 180.75ZM334.906 181C334.414 180.977 333.926 181.143 333.531 181.5C332.743 182.214 332.661 183.43 333.375 184.219C334.089 185.007 335.305 185.089 336.094 184.375C336.882 183.661 336.964 182.414 336.25 181.625C335.893 181.231 335.398 181.023 334.906 181ZM330.406 181.25C329.913 181.226 329.425 181.393 329.031 181.75C328.243 182.464 328.192 183.68 328.906 184.469C329.62 185.257 330.836 185.308 331.625 184.594C332.414 183.88 332.464 182.664 331.75 181.875C331.393 181.481 330.899 181.274 330.406 181.25ZM342.375 194.562C340.467 194.561 338.386 194.853 336.625 195.719C335.568 196.238 334.618 196.955 333.906 197.938C333.659 198.279 333.428 198.649 333.25 199.031C333.064 199.432 332.945 199.844 332.875 200.281C332.615 201.903 333.488 203.192 334.594 204.281C335.217 204.896 335.885 205.473 336.531 206.062C336.989 206.48 337.446 206.913 337.781 207.438C338 207.78 338.151 208.178 338.281 208.562C338.847 210.239 338.664 212.051 338.531 213.781C338.469 214.591 338.449 215.384 338.469 216.188C337.972 216.164 337.451 216.155 336.969 216.094C336.214 216.77 335.975 217.583 335.938 219.062C335.933 219.23 335.939 219.494 335.938 219.875C335.979 220.131 336.047 220.515 336.062 220.688C336.418 224.69 337.199 235.514 340.281 239.906C340.385 239.891 340.489 239.891 340.594 239.875C342.424 239.593 343.902 239.225 347.125 238.375C351.816 237.138 356.099 235.389 361.312 232.719C369.763 228.39 373.557 225.15 376.812 218.75C374.612 214.096 366.354 207.81 363.344 205.25C362.829 204.923 362.167 204.495 361.906 204.344C361.161 203.911 360.608 203.714 360.062 203.75C359.893 204.097 359.708 204.42 359.531 204.75C358.994 204.075 358.428 203.416 357.812 202.812C356.426 201.453 354.905 200.233 353.312 199.125C351.726 198.022 350.058 197.019 348.312 196.188C346.451 195.301 344.461 194.564 342.375 194.562ZM271.719 194.688C270.627 194.95 271.283 200.221 271.375 201.094C271.947 206.525 273.498 212.169 273.344 217.625C274.192 217.952 274.694 218.128 275.219 218.25C276.166 218.47 277.166 218.627 278.219 218.781C278.189 218.596 278.1 218.242 278.094 218.125C277.913 214.89 277.597 209.111 280.094 206.594C283.468 207.332 286.846 208.002 289.938 209.625C293.165 211.32 296.146 214.022 298.875 216.438C299.935 217.376 300.938 218.646 302.25 219.25C302.959 219.577 303.805 219.776 304.688 219.906C309.306 219.622 313.664 219.02 317.906 218.031C318.613 217.867 319.166 217.776 320.438 217.562C320.558 217.542 320.621 217.511 320.688 217.5C321.848 217.304 322.693 217.126 323.406 216.938C323.337 216.783 323.21 216.502 323.188 216.438C321.987 213.096 318.291 209.842 315.219 208.188C304.192 202.25 292.562 200.036 280.344 197.906C278.278 197.546 276.13 197.035 274.219 196.156C273.855 195.989 272.013 194.617 271.719 194.688ZM342.781 195.781C343.606 195.8 344.438 196.029 345.219 196.281C346.095 196.564 346.952 196.915 347.781 197.312C349.465 198.118 351.063 199.09 352.594 200.156C354.197 201.272 355.744 202.491 357.125 203.875C357.758 204.509 358.343 205.185 358.875 205.906C357.958 207.427 356.94 208.775 355.75 209.906C351.708 213.749 345.351 216.176 339.625 216.25C339.596 215.223 339.678 214.186 339.75 213.156C339.886 211.224 339.927 209.236 339.094 207.438C338.254 205.626 336.447 204.568 335.125 203.156C334.438 202.422 333.859 201.516 334.031 200.469C334.085 200.14 334.204 199.832 334.344 199.531C334.891 198.36 335.784 197.547 336.844 196.969C338.609 196.005 340.847 195.738 342.781 195.781ZM316.656 231L302.375 233.688C300.873 233.97 299.874 235.435 300.156 236.938L305.75 266.562C306.032 268.065 307.467 269.064 308.969 268.781L323.25 266.094C324.752 265.811 325.751 264.377 325.469 262.875L319.875 233.219C319.593 231.717 318.158 230.718 316.656 231ZM302.312 234.625C303.177 234.462 304.025 235.042 304.188 235.906C304.35 236.771 303.771 237.587 302.906 237.75C302.041 237.913 301.225 237.334 301.062 236.469C300.9 235.604 301.448 234.788 302.312 234.625ZM306.688 236.219C307.552 236.056 308.369 236.635 308.531 237.5C308.694 238.365 308.146 239.212 307.281 239.375C306.416 239.538 305.569 238.958 305.406 238.094C305.244 237.229 305.823 236.382 306.688 236.219ZM303.281 239.719C304.146 239.556 304.994 240.135 305.156 241C305.319 241.865 304.74 242.681 303.875 242.844C303.01 243.006 302.163 242.459 302 241.594C301.837 240.729 302.416 239.882 303.281 239.719ZM380.812 250.312C379.881 250.37 378.807 250.538 377.469 250.812C377.197 250.868 375.376 251.259 374.938 251.344C373.499 251.621 372.209 252.019 370.938 252.406C367.505 253.968 364.303 256.507 362.188 259.594C360.103 262.635 359.442 267.269 359.875 270.875C359.998 271.897 360.235 273.142 360.344 274.375C360.366 274.367 360.415 274.383 360.438 274.375C360.424 275.153 360.43 275.988 360.781 276.375C360.941 276.551 361.612 276.376 361.812 276.375C362.68 276.372 363.646 276.646 364.5 276.844C364.536 276.852 364.589 276.896 364.625 276.906C361.957 277.197 358.377 278.735 356.188 280.469C355.182 281.368 354.225 282.309 353.281 283.25C351.265 285.386 348.451 289.008 351.594 289.094C352.89 289.129 354.451 287.313 355.531 286.75C358.229 285.344 362.162 284.858 365.156 285.062C368.546 285.294 373.762 289.924 376.375 289.031C378.114 288.437 378.139 286.602 378.812 285.094C379.626 283.272 380.462 281.821 381.625 280.594C381.711 280.367 381.847 280.15 382.031 279.969C382.052 279.948 382.042 279.927 382.062 279.906C383.065 278.923 387.238 275.131 388.156 274.25C392.758 269.835 395.345 266.156 396.062 262.344C395.395 261.086 394.274 259.985 393.531 258.812C391.637 255.821 389.026 253.049 385.875 251.312C385.08 251.056 384.025 250.658 383.312 250.5C382.544 250.33 381.744 250.255 380.812 250.312ZM418.656 267.469C418.173 267.375 417.659 267.482 417.219 267.781C416.339 268.379 416.121 269.557 416.719 270.438C417.316 271.318 418.495 271.566 419.375 270.969C420.255 270.371 420.504 269.162 419.906 268.281C419.607 267.841 419.14 267.563 418.656 267.469ZM418.188 271.5C417.702 271.407 417.19 271.482 416.75 271.781C415.87 272.379 415.652 273.588 416.25 274.469C416.848 275.349 418.026 275.598 418.906 275C419.786 274.402 420.035 273.193 419.438 272.312C419.139 271.872 418.672 271.593 418.188 271.5ZM416.906 275.812C416.422 275.721 415.909 275.795 415.469 276.094C414.589 276.691 414.34 277.901 414.938 278.781C415.535 279.661 416.745 279.879 417.625 279.281C418.505 278.684 418.723 277.505 418.125 276.625C417.826 276.185 417.39 275.904 416.906 275.812ZM414.219 279.562C413.735 279.469 413.221 279.545 412.781 279.844C411.901 280.441 411.684 281.651 412.281 282.531C412.879 283.411 414.057 283.629 414.938 283.031C415.818 282.434 416.035 281.255 415.438 280.375C415.139 279.935 414.702 279.656 414.219 279.562ZM319.25 280.406L314.562 295.562C314.947 295.575 315.334 295.631 315.719 295.75L321.219 297.438C321.604 297.556 321.957 297.763 322.281 297.969L326.969 282.812L319.25 280.406ZM410.594 282.219C410.109 282.126 409.565 282.232 409.125 282.531C408.245 283.129 408.027 284.308 408.625 285.188C409.223 286.068 410.433 286.316 411.312 285.719C412.193 285.121 412.41 283.911 411.812 283.031C411.514 282.591 411.079 282.312 410.594 282.219ZM394.062 284.188C393.579 284.094 393.065 284.17 392.625 284.469C391.745 285.066 391.496 286.276 392.094 287.156C392.691 288.036 393.901 288.254 394.781 287.656C395.661 287.059 395.879 285.88 395.281 285C394.982 284.56 394.546 284.281 394.062 284.188ZM406.938 284.5C406.452 284.407 405.909 284.513 405.469 284.812C404.589 285.41 404.371 286.589 404.969 287.469C405.566 288.349 406.776 288.598 407.656 288C408.536 287.402 408.754 286.193 408.156 285.312C407.857 284.872 407.423 284.593 406.938 284.5ZM397.969 285.219C397.484 285.126 396.972 285.232 396.531 285.531C395.651 286.129 395.434 287.307 396.031 288.188C396.629 289.068 397.807 289.317 398.688 288.719C399.568 288.121 399.816 286.911 399.219 286.031C398.92 285.591 398.454 285.311 397.969 285.219ZM402.469 285.625C401.985 285.534 401.44 285.608 401 285.906C400.12 286.504 399.903 287.714 400.5 288.594C401.098 289.474 402.307 289.692 403.188 289.094C404.068 288.496 404.285 287.318 403.688 286.438C403.389 285.997 402.953 285.716 402.469 285.625ZM337.969 290.406C336.851 290.514 336.78 295.779 336.75 296.656C336.562 302.114 337.317 307.963 336.406 313.344C337.201 313.785 337.654 313.994 338.156 314.188C339.063 314.537 340.041 314.857 341.062 315.156C341.058 314.969 341.021 314.586 341.031 314.469C341.302 311.24 341.802 305.459 344.625 303.312C347.864 304.512 351.133 305.682 353.969 307.719C356.929 309.845 359.477 312.915 361.844 315.688C362.763 316.764 363.566 318.188 364.781 318.969C365.438 319.391 366.269 319.685 367.125 319.938C371.738 320.298 376.131 320.296 380.469 319.906C381.191 319.841 381.774 319.816 383.062 319.781C383.185 319.778 383.245 319.783 383.312 319.781C384.488 319.749 385.331 319.681 386.062 319.594C386.015 319.431 385.92 319.129 385.906 319.062C385.181 315.586 382 311.846 379.188 309.781C369.093 302.369 357.866 298.557 346.062 294.75C344.066 294.106 342.021 293.324 340.25 292.188C339.913 291.971 338.27 290.377 337.969 290.406ZM313.938 296.719C313.337 296.839 312.757 297.118 312.281 297.5C311.71 297.959 311.264 298.56 311.031 299.312L309.562 304.094C308.943 306.101 310.087 308.224 312.094 308.844L316.844 310.312C318.851 310.932 320.974 309.82 321.594 307.812L323.062 303.062C323.682 301.055 322.57 298.901 320.562 298.281L315.781 296.812C315.154 296.619 314.538 296.598 313.938 296.719ZM405.031 299.906C404.035 299.951 403.026 300.1 402.094 300.406C400.975 300.774 399.967 301.376 399.125 302.25C398.833 302.553 398.541 302.896 398.312 303.25C398.072 303.621 397.88 304.014 397.75 304.438C397.267 306.007 397.963 307.392 398.906 308.625C399.438 309.32 400.035 309.951 400.594 310.625C400.989 311.102 401.367 311.622 401.625 312.188C401.794 312.557 401.894 312.976 401.969 313.375C402.296 315.114 401.872 316.867 401.5 318.562C401.326 319.356 401.185 320.17 401.094 320.969C400.605 320.877 400.094 320.785 399.625 320.656C398.783 321.221 398.431 321.978 398.188 323.438C398.16 323.603 398.117 323.873 398.062 324.25C398.068 324.509 398.102 324.921 398.094 325.094C397.89 329.107 397.152 339.91 399.594 344.688C399.698 344.687 399.8 344.689 399.906 344.688C401.758 344.662 403.253 344.519 406.562 344.125C411.38 343.552 415.872 342.421 421.406 340.5C430.377 337.387 434.574 334.698 438.688 328.812C437.155 323.898 429.875 316.516 427.25 313.562C426.786 313.167 426.175 312.655 425.938 312.469C425.259 311.936 424.764 311.665 424.219 311.625C424.003 311.945 423.783 312.229 423.562 312.531C423.124 311.788 422.619 311.089 422.094 310.406C420.91 308.867 419.58 307.443 418.156 306.125C416.739 304.812 415.206 303.597 413.594 302.531C411.874 301.394 410.034 300.354 407.969 300.062C407.024 299.929 406.028 299.861 405.031 299.906ZM405.156 301.125C406.195 301.089 407.264 301.188 408.219 301.344C409.033 301.477 409.793 301.798 410.531 302.156C411.359 302.558 412.171 303.023 412.938 303.531C414.493 304.563 415.945 305.763 417.312 307.031C418.745 308.359 420.106 309.781 421.281 311.344C421.82 312.06 422.292 312.805 422.719 313.594C421.599 314.973 420.43 316.17 419.094 317.125C414.557 320.369 407.931 321.878 402.25 321.156C402.364 320.135 402.597 319.135 402.812 318.125C403.216 316.231 403.513 314.24 402.938 312.344C402.358 310.433 400.707 309.176 399.594 307.594C399.015 306.771 398.56 305.795 398.875 304.781C398.974 304.463 399.132 304.185 399.312 303.906C400.017 302.823 401.027 302.113 402.156 301.688C403.097 301.333 404.118 301.161 405.156 301.125ZM310.375 309.188L305.312 325.594L313.031 327.969L318.094 311.562C317.709 311.55 317.323 311.494 316.938 311.375L311.406 309.688C311.021 309.569 310.699 309.394 310.375 309.188ZM338.25 324.719C335.311 325.039 332.518 326.407 330.438 328.688L331.625 329.781C334.834 326.264 340.05 325.251 344.375 327.406C349.687 330.053 351.835 336.532 349.188 341.844C346.54 347.155 340.093 349.303 334.781 346.656C330.412 344.479 328.086 339.655 329.031 334.938L327.438 334.594C326.348 340.031 329.028 345.616 334.062 348.125C340.183 351.175 347.606 348.684 350.656 342.562C353.706 336.442 351.215 328.988 345.094 325.938C343.848 325.317 342.539 324.927 341.219 324.75C340.229 324.617 339.23 324.612 338.25 324.719ZM327.938 327.562L325 329.781L325.125 333.25L330 334.062L331.438 331.188L327.938 327.562ZM377.438 332.594L362.906 333.281C361.38 333.352 360.21 334.63 360.281 336.156L361.688 366.312C361.758 367.839 363.036 369.008 364.562 368.938L379.094 368.25C380.62 368.179 381.79 366.902 381.719 365.375L380.312 335.219C380.242 333.692 378.964 332.523 377.438 332.594ZM362.719 334.188C363.598 334.147 364.366 334.808 364.406 335.688C364.447 336.567 363.754 337.334 362.875 337.375C361.996 337.416 361.259 336.723 361.219 335.844C361.178 334.965 361.84 334.228 362.719 334.188ZM366.844 336.375C367.723 336.334 368.459 337.027 368.5 337.906C368.541 338.785 367.879 339.522 367 339.562C366.121 339.603 365.353 338.942 365.312 338.062C365.272 337.183 365.964 336.416 366.844 336.375ZM362.969 339.375C363.848 339.334 364.616 339.996 364.656 340.875C364.697 341.754 364.004 342.522 363.125 342.562C362.246 342.603 361.509 341.91 361.469 341.031C361.428 340.152 362.09 339.416 362.969 339.375Z" fill="#F4F4F4"/>
</g>
<path d="M118.676 149.296C118.676 114.959 146.512 87.123 180.849 87.123C215.187 87.123 243.023 114.959 243.023 149.296C243.023 183.634 215.187 211.47 180.849 211.47C146.512 211.47 118.676 183.634 118.676 149.296Z" fill="white"/>
<path d="M235.885 149.168C235.885 139.176 243.985 131.076 253.977 131.076C263.969 131.076 272.07 139.176 272.07 149.168C272.07 159.16 263.969 167.26 253.977 167.26C243.985 167.26 235.885 159.16 235.885 149.168Z" fill="white"/>
<path d="M200.912 74.859C200.912 74.859 205.618 87.547 228.373 85.124C251.129 82.701 250.237 80.213 262.964 69.383C275.691 58.554 273.384 54.311 290.6 47.095C307.816 39.879 320.836 49.907 317.611 48.833C314.387 47.76 292.9 23.793 253.294 22.697C213.687 21.602 212.435 39.459 206.954 41.095C201.473 42.732 196.032 68.979 195.779 71.262C195.525 73.544 200.912 74.859 200.912 74.859Z" fill="white"/>
<path d="M195.335 201.434L197.848 234.422L240.447 257.974L177.664 290.402L132.639 255.522L167.653 236.907L166.713 203.848L195.335 201.434Z" fill="white"/>
<path d="M99.3499 246.478L99.7519 181.427L58.1958 181.747C58.1958 181.747 53.5905 186.351 62.38 195.814C71.1694 205.276 82.2889 201.434 82.2889 201.434L82.5349 231.977L99.3499 246.478Z" fill="white"/>
<path d="M53.7781 50.9339L54.3942 -42.7451L49.1505 -42.4071L47.9441 48.7819L53.7781 50.9339Z" fill="white"/>
<path d="M52.0806 -50.4295C50.6418 -50.4803 49.4356 -49.3698 49.3848 -47.931C49.1908 -42.3428 49.3585 -36.7538 49.2971 -31.1648C49.1123 -14.3318 49.0831 2.49822 49.0122 19.3312C48.9884 25.0052 48.9677 30.6862 48.9246 36.3612C48.9033 39.1522 48.7315 43.4032 48.6096 46.1922C49.4482 46.1262 50.8587 45.8992 51.2149 45.8802C52.2245 45.8242 52.9199 46.1022 53.7255 46.1612C53.8343 43.4382 53.8552 39.1332 53.8777 36.4042C53.9247 30.7272 53.9672 25.0312 54.0092 19.3532C54.1282 3.28723 54.2736 -12.7768 54.4695 -28.8418C54.5464 -35.1458 54.3526 -41.4328 54.5791 -47.7338C54.6299 -49.1725 53.5193 -50.3787 52.0806 -50.4295Z" stroke="black" stroke-width="2" stroke-miterlimit="10" stroke-linejoin="round"/>
<path d="M51.0179 63.8942C46.0884 63.9842 41.08 66.2372 41.08 66.2372L30.7364 90.3702L30.8021 90.3732C29.3615 93.1562 28.4546 96.2552 28.3174 99.5932C27.8154 111.808 37.2891 122.117 49.5037 122.619C61.7182 123.121 72.0279 113.625 72.5299 101.41C72.6569 98.3221 72.1473 95.3612 71.1135 92.6442L71.1573 92.6462L60.866 66.3172C60.866 66.3172 55.9474 63.8052 51.0179 63.8942Z" fill="#FFCA00"/>
<path d="M47.9151 51.9322C45.9936 52.0402 44.1048 52.3412 42.1026 52.8082C41.8322 52.8702 41.6647 53.1312 41.7276 53.4012C41.7905 53.6722 42.0509 53.8392 42.3213 53.7762C46.1379 52.8912 49.8069 52.7702 53.6963 53.1822C53.988 53.2132 54.2595 52.9742 54.2901 52.6822C54.3207 52.3912 54.113 52.1512 53.8213 52.1202C51.7793 51.9082 49.8366 51.8252 47.9151 51.9322Z" fill="black"/>
<path d="M49.6544 46.1462C48.6567 46.2182 47.6445 46.3642 46.6737 46.5842C45.4228 46.8672 44.1784 47.2632 43.0356 47.8552C41.3089 48.7552 40.6233 50.8842 41.5233 52.6112C41.8517 53.2412 42.3714 53.6692 42.9479 53.9922C42.3071 54.2212 41.6615 54.4482 41.0631 54.7592C39.3364 55.6592 38.6727 57.7882 39.5727 59.5152C39.8469 60.0412 40.2561 60.4282 40.7124 60.7422C40.2141 60.9432 39.694 61.1112 39.2221 61.3562C37.4954 62.2562 36.8317 64.3852 37.7317 66.1122C37.904 66.4422 38.1601 66.6942 38.4111 66.9452C38.4977 67.1812 38.9607 67.3942 39.3755 67.6022C42.4903 64.7122 47.7526 63.3262 52.6351 63.7232C53.871 63.8232 55.0678 64.0532 56.2075 64.3802C56.3889 64.4222 56.5513 64.4572 56.7554 64.5122C57.4364 64.6962 58.098 64.9002 58.706 65.1262C59.5681 65.4462 60.2824 65.7882 60.8977 66.2212C61.4771 66.6292 61.9183 67.1442 62.2565 67.7122C62.2929 67.7482 62.3303 67.7842 62.3661 67.8212C62.7613 67.6352 63.1046 67.4362 63.2866 67.2302C63.6618 66.8872 63.9696 66.4782 64.1852 65.9802C65.0026 64.0932 64.1437 61.8882 62.2565 61.0712C61.9373 60.9342 61.5952 60.8452 61.2703 60.7202C61.7156 60.3542 62.0994 59.9272 62.3442 59.3612C63.1616 57.4742 62.3027 55.2912 60.4155 54.4742C59.9467 54.2732 59.4295 54.2042 58.9471 54.0362C59.5459 53.6482 60.0901 53.1592 60.3936 52.4582C61.2111 50.5712 60.3302 48.3882 58.443 47.5702C55.6856 46.3912 52.6476 45.9282 49.6544 46.1462Z" stroke="black" stroke-width="2" stroke-miterlimit="10" stroke-linejoin="round"/>
<path d="M50.1026 59.3083C46.0862 59.4013 42.2398 60.3632 38.4776 61.7142C38.2163 61.8072 38.0714 62.1093 38.1651 62.3703C38.2588 62.6313 38.56 62.7763 38.8213 62.6823C42.4839 61.3703 46.1931 60.4443 50.1026 60.3703C52.0791 60.3333 54.0257 60.5213 55.9776 60.8083C56.2678 60.8503 56.5289 60.6603 56.5713 60.3703C56.6138 60.0803 56.424 59.8193 56.1339 59.7763C54.1233 59.4843 52.138 59.2603 50.1026 59.3083Z" fill="black"/>
<path d="M48.54 48.8391C46.6367 48.9671 44.7544 49.3231 43.1338 50.3701C42.8878 50.5301 42.8178 50.8741 42.9775 51.1201C43.1372 51.3661 43.4503 51.4361 43.6962 51.2761C45.3743 50.1811 47.4498 49.9081 49.415 49.8391C52.9907 49.7131 57.1217 50.1381 60.2588 51.9951C60.4977 52.1361 60.8049 52.0461 60.9462 51.8081C61.0876 51.5691 60.9977 51.2611 60.7588 51.1201C57.3307 49.0951 52.4493 48.5761 48.54 48.8391Z" fill="black"/>
<path d="M50.665 56.0581C49.0017 56.0311 47.2493 55.9331 45.6025 56.2141C44.951 56.3251 44.3345 56.5421 43.6962 56.7141C43.4132 56.7901 43.2446 57.0871 43.3212 57.3701C43.3979 57.6531 43.6944 57.8221 43.9775 57.7451C44.5829 57.5801 45.1716 57.3521 45.79 57.2451C47.3709 56.9721 49.0362 57.0711 50.6338 57.0891C54.6383 57.1341 58.5197 57.6171 62.1338 59.4321C62.3818 59.5571 62.6653 59.4621 62.79 59.2141C62.9147 58.9661 62.8193 58.6511 62.5712 58.5261C58.8229 56.6431 54.8211 56.1231 50.665 56.0581Z" fill="black"/>
<path d="M90.29 87.6201C89.705 87.6851 89.118 87.6951 88.54 87.8081C87.371 88.0361 86.23 88.4701 85.071 88.7451C83.338 89.1571 81.599 89.4871 79.853 89.8391C81.635 89.9601 83.414 90.0671 85.196 90.1821C86.392 90.2601 87.592 90.4591 88.79 90.4641C89.379 90.4661 89.953 90.3841 90.54 90.3391C91.286 90.2681 91.86 89.5851 91.79 88.8391C91.72 88.0931 91.036 87.5501 90.29 87.6201Z" fill="#FFD200"/>
<path d="M81.634 102.089C85.364 104.215 89.178 106.13 93.103 107.87C94.776 108.612 96.448 109.42 98.165 110.058C99.311 110.483 100.493 110.775 101.665 111.12C102.383 111.334 103.138 110.932 103.353 110.214C103.567 109.496 103.164 108.741 102.446 108.526C98.97 107.473 95.436 106.749 91.946 105.745C88.437 104.735 85.012 103.471 81.634 102.089Z" fill="#FFD200"/>
<path d="M63.4775 131.682C66.2816 136.83 69.0739 142.021 71.8525 147.182C74.129 151.411 76.363 155.668 78.853 159.776C79.961 161.606 81.198 163.363 82.415 165.12C82.84 165.737 83.704 165.889 84.321 165.464C84.938 165.039 85.09 164.206 84.665 163.589C81.671 159.215 78.576 154.904 75.634 150.495C71.4947 144.293 67.5198 137.948 63.4775 131.682Z" fill="#FFD200"/>
<path d="M69.5713 118.214C71.9191 120.459 74.2831 122.692 76.6651 124.901C77.6871 125.849 78.6541 126.887 79.7271 127.776C80.4421 128.367 81.2461 128.842 82.0091 129.37C82.6231 129.8 83.4541 129.671 83.8841 129.058C84.3141 128.444 84.1851 127.581 83.5711 127.151C81.3091 125.549 78.8561 124.278 76.5091 122.808C74.1561 121.333 71.8744 119.763 69.5713 118.214Z" fill="#FFD200"/>
<path d="M48.0401 128.589C47.659 133.221 47.2886 137.859 46.9463 142.495C46.7619 144.993 46.507 147.494 46.3839 149.995C46.3137 151.42 46.3391 152.85 46.3526 154.276C46.3565 155.026 46.9783 155.624 47.7276 155.62C48.4769 155.616 49.0753 155.026 49.0713 154.276C49.0672 150.343 48.7491 146.42 48.5401 142.495C48.2932 137.859 48.1728 133.229 48.0401 128.589Z" fill="#FFD200"/>
<path d="M32.6651 123.245C29.4432 125.619 26.2214 128.015 23.0089 130.401C20.6979 132.118 18.4523 133.806 16.3213 135.745C15.765 136.247 15.7256 137.126 16.2276 137.682C16.7296 138.239 17.5775 138.278 18.1339 137.776C20.6936 135.487 22.9529 132.917 25.3526 130.464C27.7487 128.015 30.2139 125.639 32.6651 123.245Z" fill="#FFD200"/>
<path d="M52.54 63.7761C52.2991 63.9141 52.2145 64.1921 52.3525 64.4321C54.8454 68.7831 56.6418 73.3791 57.8525 78.2451C58.8645 82.3131 59.6218 86.5321 58.665 90.6821C58.5052 91.3761 58.2965 92.0751 57.9775 92.7141C57.7913 93.0871 57.5663 93.4591 57.2588 93.7451C55.582 95.3071 53.8131 92.7751 53.1338 91.5261C52.9599 91.2071 52.7972 90.9141 52.6338 90.5891C52.4158 90.1561 52.1386 89.5811 51.9462 89.1201C51.2852 87.5341 50.6908 85.9001 50.2275 84.2451C49.5854 81.9511 49.284 79.6551 49.2588 77.2761C49.2555 76.9831 49.0207 76.7421 48.7275 76.7451C48.4343 76.7481 48.193 76.9831 48.1962 77.2761C48.2283 80.1011 48.66 82.8291 49.5088 85.5261C50.0013 87.0911 50.5727 88.6601 51.2588 90.1511C51.6128 90.9211 51.7801 91.2961 52.1962 92.0581C52.6272 92.8461 53.1192 93.6621 53.79 94.2761C54.9343 95.3241 56.773 95.6101 57.9775 94.4951C58.3782 94.1241 58.6731 93.6681 58.915 93.1821C59.1792 92.6531 59.3822 92.0961 59.54 91.5261C60.7756 87.0671 59.9507 82.3881 58.8525 77.9951C57.6139 73.0401 55.767 68.3631 53.2275 63.9321C53.0895 63.6921 52.7809 63.6381 52.54 63.7761Z" fill="black"/>
<path d="M53.5712 64.964C53.2937 64.971 53.0641 65.186 53.0712 65.464C53.2006 70.476 52.6278 75.3871 51.3839 80.2451C50.344 84.3061 49.0084 88.3581 46.1962 91.5581C45.7265 92.0921 45.1864 92.6161 44.6025 93.0261C44.2617 93.2661 43.8841 93.483 43.4775 93.589C41.2604 94.167 40.9204 91.104 40.915 89.682C40.9136 89.319 40.9047 88.952 40.915 88.589C40.9287 88.104 40.9592 87.4921 41.0089 86.9951C41.1795 85.2861 41.4122 83.5781 41.79 81.9011C42.3135 79.5781 43.1522 77.3821 44.2589 75.2761C44.3952 75.0171 44.2996 74.6941 44.04 74.5581C43.7804 74.4211 43.4576 74.5481 43.3212 74.8081C42.0087 77.3091 41.1042 79.906 40.5712 82.682C40.262 84.294 40.019 85.95 39.915 87.589C39.8614 88.434 39.8478 88.815 39.8525 89.682C39.8574 90.581 39.8973 91.5421 40.1962 92.4011C40.7063 93.8661 42.1693 94.999 43.7589 94.589C44.2876 94.452 44.7843 94.1821 45.2275 93.8701C45.7115 93.5291 46.1308 93.109 46.54 92.682C49.7441 89.344 51.2341 84.8831 52.3525 80.4951C53.6139 75.5461 54.2036 70.538 54.0712 65.432C54.0641 65.155 53.8488 64.957 53.5712 64.964Z" fill="black"/>
<path d="M50.7589 64.1511C50.5531 63.9651 50.2578 63.9771 50.0713 64.1821C47.8334 67.1861 48.8204 65.8521 47.8213 67.1821C47.3205 67.8491 48.8356 65.8561 49.2276 65.1201C49.4243 64.7511 48.6767 65.7311 48.4151 66.0581C47.9147 66.6821 47.3682 67.4291 46.9151 68.0891C46.6791 68.4331 45.9663 69.4451 46.2276 69.1201C47.5325 67.4971 46.225 69.1181 45.5713 70.1821C45.4183 70.4331 45.5087 70.7481 45.7589 70.9011C46.009 71.0541 46.3245 70.9951 46.4776 70.7451C48.6351 67.8021 47.6621 69.1091 48.6339 67.8081C49.117 67.1601 47.6993 69.1061 47.1339 69.6821C46.8498 69.9721 47.5637 68.9881 47.7901 68.6511C48.216 68.0181 48.7255 67.3151 49.1963 66.7141C49.4453 66.3961 50.2033 65.4421 49.9776 65.7761C48.8453 67.4561 49.9654 65.7511 50.7901 64.8391C50.9766 64.6331 50.9646 64.3381 50.7589 64.1511Z" fill="black"/>
<path d="M118.676 149.296C118.676 114.959 146.512 87.123 180.849 87.123C215.187 87.123 243.023 114.959 243.023 149.296C243.023 183.634 215.187 211.47 180.849 211.47C146.512 211.47 118.676 183.634 118.676 149.296Z" stroke="black" stroke-width="3" stroke-miterlimit="10" stroke-linejoin="round"/>
<path d="M241.932 136.086C245.133 133.135 249.409 131.332 254.106 131.332C264.027 131.332 272.07 139.375 272.07 149.296C272.07 159.217 264.027 167.26 254.106 167.26C249.468 167.26 245.24 165.502 242.053 162.617" stroke="black" stroke-width="3" stroke-miterlimit="10" stroke-linejoin="round"/>
<path d="M165.46 137.026L147.32 160.285L167.28 158.408" stroke="black" stroke-width="3" stroke-miterlimit="10" stroke-linejoin="round"/>
<path d="M205.884 123.839C205.476 123.856 205.088 124.046 204.79 124.37C199.515 130.139 191.907 130.461 184.884 128.026C184.097 127.753 183.219 128.177 182.946 128.964C182.673 129.751 183.097 130.628 183.884 130.901C190.054 133.047 197.174 133.435 202.977 129.995C204.557 129.059 205.893 127.87 207.134 126.526C207.729 125.878 207.688 124.872 207.04 124.276C206.716 123.979 206.291 123.822 205.884 123.839Z" fill="black"/>
<path d="M188.321 130.245C187.958 130.374 187.656 130.65 187.477 131.026C186.197 133.153 186.75 132.188 186.196 133.151C185.922 133.628 186.76 132.207 187.103 131.776C187.27 131.566 186.863 132.262 186.727 132.495C186.48 132.922 186.122 133.458 185.853 133.87C185.701 134.102 185.246 134.798 185.384 134.558C186.062 133.366 185.392 134.57 184.915 135.276C184.428 136.009 184.62 137.008 185.353 137.495C186.085 137.982 187.084 137.79 187.571 137.058C188.887 134.696 188.299 135.73 188.884 134.682C189.18 134.151 188.274 135.746 188.04 136.308C187.925 136.584 188.355 135.784 188.509 135.526C188.816 135.011 189.138 134.496 189.415 133.964C189.557 133.691 189.978 132.856 189.821 133.12C189.053 134.413 189.815 133.119 190.196 132.308C190.554 131.555 190.23 130.665 189.477 130.308C189.101 130.129 188.685 130.116 188.321 130.245Z" fill="black"/>
<path d="M195.009 130.058C194.183 130.168 193.617 130.919 193.727 131.745C193.825 132.612 193.8 132.391 193.821 132.62C193.816 132.59 193.865 133.079 193.884 133.308C193.934 133.906 193.978 134.333 194.04 134.932C194.069 135.214 194.161 136.058 194.134 135.776C194.006 134.435 194.122 135.776 194.259 136.589C194.412 137.455 195.236 138.023 196.103 137.87C196.969 137.717 197.568 136.893 197.415 136.026C197.07 133.686 197.24 134.728 197.071 133.682C197.026 133.403 197.105 134.091 197.165 134.526C197.102 134.105 197.002 133.383 196.946 132.964C196.91 132.692 196.779 131.88 196.821 132.151C197.021 133.442 196.839 132.174 196.727 131.37C196.617 130.544 195.834 129.947 195.009 130.058Z" fill="black"/>
<path d="M202.821 127.901C202.438 127.858 202.022 127.954 201.696 128.214C201.045 128.733 200.927 129.687 201.446 130.339C203.204 132.197 202.409 131.386 203.227 132.182C203.645 132.588 202.407 131.319 201.946 130.964C201.728 130.796 202.304 131.407 202.477 131.62C202.833 132.057 203.202 132.504 203.603 132.901C203.818 133.115 204.453 133.759 204.259 133.526C203.351 132.437 204.279 133.528 204.977 134.058C205.683 134.583 206.671 134.419 207.196 133.714C207.722 133.008 207.589 132.021 206.884 131.495C205.354 129.974 206.061 130.645 205.353 129.964C205.009 129.633 206.028 130.66 206.29 131.058C206.411 131.241 205.952 130.767 205.79 130.62C205.468 130.328 205.079 129.943 204.79 129.62C204.623 129.434 204.135 128.891 204.321 129.058C205.198 129.84 204.321 129.052 203.821 128.432C203.562 128.107 203.205 127.945 202.821 127.901Z" fill="black"/>
<path d="M145.54 132.87C145.155 132.841 144.762 132.974 144.446 133.245C141.366 135.882 136.814 138.358 132.977 135.839C132.239 135.36 131.238 135.569 130.759 136.308C130.28 137.046 130.489 138.016 131.227 138.495C136.41 141.824 142.179 139.165 146.415 135.526C147.047 134.984 147.113 134.034 146.571 133.401C146.3 133.085 145.925 132.899 145.54 132.87Z" fill="black"/>
<path d="M133.04 137.12C132.682 137.265 132.39 137.549 132.227 137.932C131.287 139.553 131.705 138.823 131.29 139.558C131.091 139.909 131.71 138.86 131.977 138.558C132.114 138.403 131.793 138.938 131.696 139.12C131.522 139.446 131.272 139.841 131.071 140.151C130.962 140.32 130.634 140.829 130.727 140.651C131.208 139.739 130.737 140.647 130.353 141.182C129.846 141.902 130.008 142.895 130.727 143.401C131.447 143.908 132.439 143.745 132.946 143.026C133.973 141.075 133.51 141.914 133.977 141.058C134.214 140.624 133.529 141.929 133.384 142.401C133.31 142.64 133.634 141.993 133.759 141.776C134.002 141.353 134.242 140.906 134.446 140.464C134.55 140.24 134.851 139.562 134.727 139.776C134.113 140.841 134.73 139.79 135.009 139.12C135.333 138.353 134.963 137.444 134.196 137.12C133.813 136.958 133.398 136.975 133.04 137.12Z" fill="black"/>
<path d="M137.977 137.682C137.145 137.694 136.497 138.381 136.509 139.214C136.353 141.125 136.433 140.055 136.353 141.12C136.337 141.329 136.496 140.317 136.509 140.526C136.535 140.943 136.384 142.194 136.384 141.776C136.384 140.926 136.391 141.752 136.196 143.026C136.077 143.898 136.668 144.719 137.54 144.839C138.412 144.958 139.233 144.335 139.353 143.464C139.438 141.315 139.389 142.522 139.446 141.339C139.458 141.09 139.468 142.303 139.509 142.058C139.589 141.569 139.632 140.097 139.571 140.589C139.453 141.548 139.546 140.588 139.509 139.182C139.497 138.35 138.81 137.671 137.977 137.682Z" fill="black"/>
<path d="M142.79 136.308C142.405 136.284 142.039 136.406 141.727 136.682C141.104 137.235 141.019 138.184 141.571 138.808C142.173 139.632 142.106 139.468 142.196 139.62C142.246 139.697 142.308 139.767 142.353 139.839C142.359 139.849 142.409 139.923 142.415 139.932C142.661 140.341 142.864 140.757 143.134 141.151C143.304 141.4 143.863 142.152 143.696 141.901C143.01 140.868 143.689 141.898 144.29 142.526C144.905 143.156 145.91 143.172 146.54 142.558C147.17 141.943 147.186 140.937 146.571 140.308C145.21 138.569 145.803 139.191 145.196 138.558C144.842 138.187 145.793 139.377 146.071 139.808C146.18 139.976 145.816 139.499 145.696 139.339C145.56 139.156 145.452 138.963 145.321 138.776C145.018 138.343 144.737 137.915 144.415 137.495C144.323 137.375 144.042 137 144.134 137.12C144.946 138.175 144.133 137.123 143.853 136.808C143.576 136.496 143.175 136.331 142.79 136.308Z" fill="black"/>
<path d="M216.571 154.682C215.833 154.708 215.304 155.239 214.665 155.526C213.023 156.264 211.387 157.04 209.759 157.808C207.9 158.683 206.018 159.53 204.103 160.276C200.215 161.792 196.219 163.009 192.321 164.495C188.426 165.98 184.682 167.785 180.884 169.495C180.124 169.837 179.792 170.735 180.134 171.495C180.475 172.255 181.374 172.587 182.134 172.245C185.875 170.564 189.57 168.777 193.415 167.339C198.774 165.334 204.291 163.776 209.509 161.401C211.3 160.586 213.06 159.747 214.853 158.932C214.992 158.869 215.123 158.805 215.259 158.745C215.491 158.754 215.719 158.813 215.946 158.714C216.685 158.377 217.508 158.334 218.009 157.589C218.817 156.387 218.132 154.629 216.571 154.682Z" fill="black"/>
<path d="M213.384 157.214C212.512 157.092 211.724 157.686 211.603 158.558C211.219 161.335 210.273 163.944 208.634 166.245C204.77 171.668 197.593 174.632 191.009 173.714C187.554 173.232 184.66 171.37 181.509 170.026C180.743 169.699 179.836 170.073 179.509 170.839C179.182 171.605 179.555 172.481 180.321 172.808C183.775 174.282 186.749 176.193 190.571 176.745C198.282 177.858 206.68 174.441 211.227 168.089C213.17 165.375 214.297 162.278 214.759 158.995C214.88 158.124 214.255 157.335 213.384 157.214Z" fill="black"/>
<path d="M184.227 86.401C183.843 86.437 183.493 86.612 183.227 86.932C178.864 92.201 174.673 97.621 169.665 102.308C161.81 109.657 152.647 115.424 143.29 120.651C138.905 123.101 134.499 125.592 129.915 127.651C126.855 129.026 123.713 130.165 120.54 131.245C119.707 131.529 119.256 132.444 119.54 133.276C119.824 134.109 120.739 134.56 121.571 134.276C124.838 133.161 128.078 131.976 131.227 130.558C136.205 128.316 140.973 125.575 145.727 122.901C154.988 117.694 163.993 111.818 171.759 104.526C176.852 99.744 181.098 94.239 185.54 88.87C186.071 88.228 185.994 87.276 185.353 86.745C185.032 86.479 184.612 86.365 184.227 86.401Z" fill="black"/>
<path d="M202.271 76.026C200.294 74.072 198.266 72.177 195.384 71.746C191.243 71.127 190.383 74.894 193.003 77.662C198.913 83.907 209.533 81.817 200.234 74.036" fill="white"/>
<path d="M194.977 70.1821C192.765 69.9931 190.555 71.1481 190.071 73.4321C189.18 77.6371 194.034 81.1571 197.446 82.3081C198.073 82.5191 198.668 82.6741 199.321 82.7761C200.604 82.9781 201.979 82.9611 203.196 82.4641C206.025 81.3091 205.911 78.3971 204.446 76.1821C203.999 75.5051 203.45 74.8871 202.884 74.3081C202.722 74.1421 202.552 73.9991 202.384 73.8391C202.205 73.6691 201.695 73.1491 201.853 73.3391C202.312 73.8941 201.834 73.3351 201.259 72.8391C201.124 72.7231 200.946 72.7461 200.79 72.6821C200.525 72.4971 200.275 72.3031 200.009 72.1201C199.574 71.8221 199.169 71.4781 198.696 71.2451C198.216 71.0081 197.674 70.8801 197.165 70.7141C196.454 70.4811 195.723 70.2471 194.977 70.1821ZM195.009 73.2141C195.428 73.3301 195.812 73.4911 196.227 73.6201C196.599 73.7361 197.003 73.7621 197.353 73.9321C197.691 74.0981 197.981 74.3731 198.29 74.5891C198.599 74.8051 198.897 75.0171 199.196 75.2451C199.226 75.2681 199.261 75.2841 199.29 75.3081C199.444 75.4321 199.498 75.5101 199.727 75.7141C199.768 75.7521 199.891 75.8771 200.227 76.1821C200.351 76.3011 200.482 76.4041 200.603 76.5261C200.613 76.5361 200.648 76.5751 200.665 76.5891C200.882 76.8131 201.09 77.0341 201.29 77.2761C201.622 77.6781 202.984 79.2811 201.884 79.5891C199.352 80.2981 196.245 78.6591 194.446 76.9321C193.717 76.2331 192.852 75.1591 193.071 74.0581C193.229 73.2651 194.324 73.0241 195.009 73.2141Z" fill="black"/>
<path d="M253.727 21.7139C239.106 21.0999 223.731 23.9269 212.54 33.9949C209.772 36.4859 207.314 39.3499 205.227 42.4319C202.967 45.7729 201.463 49.5199 200.04 53.2759C197.802 59.1819 195.981 65.2409 193.759 71.1509C193.466 71.9309 193.854 72.7959 194.634 73.0889C195.413 73.3819 196.278 72.9929 196.571 72.2139C200.659 75.0199 201.187 76.1259 200.665 75.0259C199.913 73.4419 197.953 72.7519 196.915 71.3389C196.713 71.0639 197.144 70.6909 197.259 70.3699C197.646 69.2869 198.012 68.2079 198.384 67.1199C199.545 63.7169 200.695 60.3149 201.915 56.9319C203.367 52.9079 204.817 48.6529 207.134 45.0259C211.146 38.7449 216.73 33.5879 223.384 30.2139C228.66 27.5379 234.47 26.0179 240.321 25.2759C251.841 23.8169 263.58 25.1189 274.79 27.9319C281.444 29.6029 287.994 31.8039 294.227 34.6819C300.382 37.5249 305.951 41.2769 311.134 45.5889C309.152 45.1249 307.134 44.7449 305.134 44.5259C295.879 43.5139 287.509 45.7159 279.946 51.0579C272.195 56.5319 266.553 64.3039 259.384 70.4319C247.112 80.9219 228.363 87.3789 212.571 81.8079C210.248 80.9879 207.899 79.9419 205.853 78.5579C202.753 76.4619 205.847 78.5319 204.759 77.8079C204.026 77.3199 203.027 77.5439 202.54 78.2759C202.053 79.0089 202.276 79.9759 203.009 80.4639C205.681 82.2399 208.476 83.7389 211.509 84.8079C226.877 90.2249 244.44 85.1999 257.321 76.0579C263.918 71.3749 269.071 65.1399 274.821 59.5259C278.671 55.7669 282.933 52.2619 287.884 50.0579C292.1 48.1799 296.717 47.3649 301.321 47.4319C305.405 47.4919 310.047 48.1499 313.915 49.5889C314.453 49.7889 314.955 50.0059 315.477 50.2449C316.089 50.5239 316.332 50.7969 316.946 51.0579C317.729 51.3899 318.701 51.1609 319.134 50.4009C319.905 49.0479 318.331 47.8859 317.54 47.0579C317.342 46.8509 317.021 46.5149 316.821 46.3079C316.509 45.9829 316.218 45.6409 315.884 45.3389C315.416 44.9159 314.951 44.5039 314.477 44.0889C313.999 43.6689 313.498 43.2449 313.009 42.8389C312.52 42.4329 312.038 42.0439 311.54 41.6509C310.519 40.8459 309.566 40.1269 308.509 39.3699C296.678 30.8939 282.421 26.0789 268.227 23.3699C263.44 22.4559 258.597 21.9179 253.727 21.7139Z" fill="black"/>
<path d="M255.415 155.932C255.032 155.886 254.649 155.988 254.321 156.245C252.042 158.037 250.335 160.367 249.853 163.276C248.605 170.797 255.464 178.919 263.259 177.995C270.157 177.177 275.835 169.718 274.853 162.87C274.669 161.594 274.279 160.349 273.603 159.245C272.981 158.23 272.161 157.466 271.227 156.745C270.53 156.209 269.544 156.328 269.009 157.026C268.473 157.724 268.592 158.741 269.29 159.276C271.757 161.154 272.324 164.267 271.446 167.151C270.33 170.819 266.845 174.414 262.915 174.901C257.113 175.62 251.95 169.285 252.853 163.745C253.204 161.586 254.481 159.94 256.165 158.62C256.82 158.106 256.929 157.15 256.415 156.495C256.158 156.167 255.798 155.979 255.415 155.932Z" fill="black"/>
<path d="M166.666 210.515L167.865 236.198L133.622 250.014" stroke="black" stroke-width="3" stroke-miterlimit="10" stroke-linejoin="round"/>
<path d="M196.332 209.884L197.774 234.596L229.747 252.171" stroke="black" stroke-width="3" stroke-miterlimit="10" stroke-linejoin="round"/>
<path d="M167.272 214.972C171.886 221.572 181.452 223.955 189.227 224.035C190.676 224.05 195.905 223.826 196.76 222.459C197.564 221.171 196.166 217.005 196.053 215.449C195.97 214.309 196.76 211.269 196.229 210.39C195.82 209.712 193.601 210.593 193.065 210.708C190.097 211.342 186.514 211.515 183.477 211.691C179.578 211.917 175.793 211.577 171.929 211.127C171.08 211.028 168.448 209.951 167.722 210.404C167.123 210.777 166.933 214.487 167.272 214.972Z" fill="black"/>
<path d="M195.384 209.089C194.792 209.127 194.193 209.312 193.759 209.432C191.418 210.083 188.991 210.295 186.571 210.464C182.324 210.759 178.217 210.716 173.977 210.276C173.29 210.205 172.589 210.208 171.915 210.058C170.98 209.849 170.083 209.463 169.134 209.308C168.501 209.204 168.021 209.158 167.415 209.401C166.07 209.941 166.038 212.529 166.04 213.651C166.041 213.979 166.052 213.65 166.259 215.245C166.288 215.352 166.389 215.406 166.446 215.495C166.464 215.525 166.456 215.56 166.477 215.589C166.507 215.604 166.511 215.605 166.54 215.62C166.698 215.8 166.867 215.89 167.103 215.932C183.592 224.545 177.315 223.753 184.071 224.682C187.146 225.106 190.272 225.211 193.353 224.776C194.159 224.662 194.95 224.52 195.727 224.276C196.445 224.052 197.214 223.677 197.634 223.026C198.135 222.249 198.067 221.185 197.977 220.308C197.806 218.624 197.276 217.016 197.071 215.339C197.018 214.904 197.141 214.392 197.196 213.964C197.375 212.593 197.89 210.762 196.915 209.589C196.554 209.154 195.975 209.051 195.384 209.089ZM195.196 211.214C195.271 211.201 195.281 211.218 195.353 211.214C195.365 211.407 195.363 211.583 195.353 211.776C195.335 212.087 195.323 212.405 195.29 212.714C195.192 213.644 194.936 214.618 195.04 215.558C195.178 216.801 195.486 218.02 195.727 219.245C195.836 219.797 196.202 221.333 195.884 221.901C195.766 222.111 195.338 222.243 195.134 222.308C194.929 222.371 194.716 222.443 194.509 222.495C194.282 222.552 194.051 222.577 193.821 222.62C192.015 222.957 193.633 222.578 168.29 214.432C168.241 212.792 168.178 212.929 168.259 212.245C168.3 211.897 168.311 211.768 168.384 211.432C168.388 211.415 168.409 211.392 168.415 211.37C168.532 211.381 168.644 211.38 168.759 211.401C169.016 211.45 169.286 211.526 169.54 211.589C170.297 211.776 171.012 212.089 171.79 212.182C174.696 212.531 177.643 212.787 180.571 212.808C184.003 212.831 187.483 212.615 190.884 212.151C192.055 211.991 193.186 211.752 194.321 211.432C194.585 211.358 194.909 211.262 195.196 211.214Z" fill="black"/>
<path d="M98.692 231.977L100.206 181.871L57.624 181.954L57.9041 181.942C57.9041 181.942 57.1242 190.118 61.8298 195.304C66.5355 200.49 82.149 201.779 82.149 201.779L81.212 231.433" stroke="black" stroke-width="3" stroke-miterlimit="10" stroke-linejoin="round"/>
<path d="M136.587 248.774C137.521 251.393 139.926 252.697 142.073 253.645C144.319 254.636 146.47 255.809 148.755 256.729C151.012 257.638 153.425 258.084 155.708 258.926C164.489 262.165 174.404 263.76 183.767 262.676C187.874 262.201 191.655 261.033 195.577 259.814C199.668 258.541 203.881 257.531 207.905 256.041C211.648 254.656 215.497 253.325 219.172 251.781C220.798 251.098 222.527 250.014 224.227 249.562C225.739 249.16 229.666 253.008 230.982 253.956C231.233 254.136 232.827 255.207 232.783 255.509C232.51 257.355 229.773 259.463 228.591 260.679C224.669 264.713 220.717 268.692 216.559 272.484C210.348 278.15 203.859 283.163 197.081 288.128C194.276 290.183 190.96 293.812 187.391 294.364C183.22 295.009 178.61 292.249 174.915 290.88C167.061 287.971 158.688 286.724 150.752 284.134C142.998 281.604 135.76 275.923 132.112 268.645C131.514 267.453 130.768 266.35 130.485 265.028C129.559 260.701 128.727 255.466 130.879 251.381C132.09 249.084 135.597 245.996 136.587 248.774Z" fill="black"/>
<path d="M301.584 42.6341C301.267 42.6341 300.963 42.713 300.647 42.727C296.448 42.619 292.122 43.7121 288.272 44.9461C277.904 48.2691 268.889 54.9681 259.272 59.7901C253.304 62.7821 246.235 64.9231 239.74 66.3841C226.659 69.3251 207.393 63.8351 196.428 71.1651C195.387 71.8601 203.007 79.1861 204.99 80.2591C211.358 83.7011 219.402 86.3231 226.772 85.8211C230.241 85.5851 233.65 84.5921 237.115 84.3211C240.086 84.0881 242.548 82.369 245.115 81.0401C255.092 75.8731 263.588 67.864 271.553 59.977C275.567 56.002 278.684 51.36 284.084 49.102C285.55 48.489 287.096 47.876 288.647 47.29L285.49 49.352C290.768 46.68 297.415 44.986 302.397 45.79C306.193 46.402 310.073 47.733 313.74 48.852C314.039 48.943 316.924 49.997 317.053 49.852C317.652 49.178 314.522 47.099 312.522 45.852C313.087 46.067 313.698 46.2171 314.24 46.4461C314.717 46.6471 315.419 47.3751 315.709 46.9461C316.466 45.8271 313.586 45.202 310.897 44.79C310.883 44.788 310.878 44.792 310.865 44.79C308.192 43.346 304.885 42.6291 301.584 42.6341ZM59.3027 183.165L58.9902 189.884C60.3278 192.204 60.7537 194.991 62.7402 196.977C63.2834 197.521 63.9074 197.607 64.5839 197.884C67.1855 198.947 69.7263 200.196 72.3964 201.102C74.6199 201.857 76.8749 202.169 79.2089 202.04C79.9439 201.999 81.8549 201.417 82.2089 202.102C82.4299 202.531 82.3029 203.231 82.3029 203.696C82.3029 206.033 82.0349 208.251 81.8339 210.571C81.3519 216.149 80.7719 221.681 80.7719 227.29C80.7719 229.036 80.9709 230.902 80.7399 232.634C80.6919 232.998 80.1159 234.78 80.4899 235.04C80.7159 235.196 84.0919 234.471 84.5529 234.384C88.1079 233.705 91.7579 233.514 95.3649 233.384C95.7479 233.37 99.4689 233.351 99.5839 233.227C99.6519 233.154 99.5669 230.484 99.5839 230.134C99.6809 228.084 99.4859 226.176 99.3969 224.134C99.3529 223.15 99.5869 222.039 99.3969 221.071C99.2279 220.213 97.7079 219.927 96.9899 219.665C94.6069 218.793 91.9959 218.472 89.4589 218.665C88.9849 218.701 87.2289 219.241 86.8339 218.852C86.7909 218.81 86.9899 215.254 86.9899 214.884C86.9899 210.82 86.6149 206.758 86.6149 202.696C86.6149 201.854 86.8679 198.262 86.3029 197.821C85.8769 197.489 85.0809 197.575 84.5839 197.54C82.2789 197.378 79.9879 197.255 77.6779 197.134C70.3468 196.749 60.6837 195.971 59.2402 186.977C59.0495 185.789 59.2245 184.363 59.3027 183.165Z" fill="black"/>
<path d="M69.5542 233.269C74.597 230.842 80.719 229.435 86.258 229.394C94.243 229.335 104.862 229.936 111.251 235.793C114.232 238.526 112.871 251.446 112.766 255.32C112.413 268.389 108.693 299.927 93.582 305.009C70.6302 312.729 65.8924 269.005 67.1092 254.442C67.5503 249.163 66.9166 243.952 67.7882 238.68C68.0036 237.377 68.1531 233.944 69.5542 233.269Z" fill="#AF52DE"/>
<path d="M138.033 250.366L189.164 275.119L235.829 248.379C235.829 248.379 241.998 244.143 247.638 245.239C253.278 246.336 258.388 257.226 258.388 257.226L281.76 305.916C281.76 305.916 228.887 344.006 182.056 339.528C135.225 335.05 85.9399 301.009 85.9399 301.009L106.488 254.109C106.488 254.109 110.331 243.847 122.039 243.137C127.384 242.812 138.033 250.366 138.033 250.366Z" fill="#AF52DE"/>
<path d="M111.509 234.87C110.961 234.938 110.597 235.447 110.665 235.995C111.63 243.748 110.554 251.504 109.227 259.151C107.269 270.437 104.412 281.263 98.696 291.276C98.422 291.756 98.592 292.346 99.071 292.62C99.551 292.894 100.172 292.725 100.446 292.245C106.55 281.55 109.471 269.959 111.477 257.901C112.7 250.557 113.556 243.175 112.634 235.745C112.566 235.197 112.057 234.802 111.509 234.87Z" fill="black"/>
<path d="M252.834 131.759C250.192 131.887 247.758 132.737 246.428 134.509C246.401 134.467 246.393 134.392 246.365 134.352C246.104 134.1 245.886 133.906 245.709 133.727C245.692 133.71 245.694 133.682 245.678 133.665C244.449 134.4 242.936 135.386 242.459 136.259C243.051 137.063 243.442 138.03 243.397 139.102C243.369 139.74 243.395 140.452 243.49 141.352C243.548 141.899 243.93 144.663 243.99 145.165C244.106 146.129 243.827 147.025 243.397 147.821C243.578 150.138 243.425 152.611 243.365 154.915C243.318 156.736 241.738 162.857 244.053 163.665C244.054 163.673 244.05 163.753 244.053 163.759C244.108 163.873 243.85 164.089 244.24 164.009C246.124 163.622 246.639 165.8 247.74 165.352C247.933 165.274 248.812 160.852 248.959 160.259C250.05 155.855 251.273 151.498 253.49 147.509C255.375 144.117 257.273 140.707 259.928 137.852C260.613 137.115 261.189 136.253 261.959 135.602C261.995 135.572 262.868 134.941 262.865 134.852C262.855 134.476 261.151 133.527 260.834 133.352C258.966 132.319 255.813 131.614 252.834 131.759Z" fill="black"/>
</g>
<defs>
<clipPath id="clip0_304_6658">
<rect width="372" height="372" fill="white" transform="translate(0.5)"/>
</clipPath>
</defs>
</svg>
