<svg width="373" height="372" viewBox="0 0 373 372" fill="none" xmlns="http://www.w3.org/2000/svg">
<g clip-path="url(#clip0_304_6012)">
<mask id="mask0_304_6012" style="mask-type:luminance" maskUnits="userSpaceOnUse" x="-8" y="-138" width="390" height="844">
<path d="M382 -138H-8V706H382V-138Z" fill="white"/>
</mask>
<g mask="url(#mask0_304_6012)">
<path d="M-3.78125 284C-7.55229 284.056 -11.4809 285.114 -14.6562 287.094C-17.7848 289.044 -20.2642 293.023 -21.3125 296.5C-21.6096 297.486 -21.8868 298.733 -22.2812 299.906C-22.2573 299.908 -22.2428 299.905 -22.2188 299.906C-22.5432 300.614 -22.8541 301.41 -22.6875 301.906C-22.6118 302.131 -21.9338 302.233 -21.75 302.312C-20.9543 302.657 -20.1717 303.32 -19.4688 303.844C-19.4388 303.866 -19.404 303.883 -19.375 303.906C-21.9355 303.103 -25.8616 303.102 -28.5625 303.812C-29.8442 304.233 -31.0706 304.704 -32.3125 305.188C-35.0159 306.336 -39.0324 308.537 -36.1875 309.875C-35.0136 310.427 -32.8714 309.395 -31.6562 309.312C-28.6214 309.105 -24.8174 310.238 -22.1562 311.625C-19.1436 313.196 -16.22 319.521 -13.4688 319.75C-11.6373 319.902 -10.8775 318.205 -9.65625 317.094C-8.18021 315.75 -6.83854 314.784 -5.28125 314.125C-5.1117 313.952 -4.89765 313.811 -4.65625 313.719C-4.62859 313.708 -4.65275 313.698 -4.625 313.688C-3.31267 313.189 2.0558 311.376 3.25 310.938C9.2351 308.737 13.0647 306.393 15.25 303.188C15.1423 301.768 14.5544 300.341 14.3438 298.969C13.8073 295.468 12.5651 291.854 10.375 289C9.7494 288.446 8.9026 287.65 8.3125 287.219C7.0402 286.29 5.5155 285.757 2.8438 285.188C2.5723 285.13 0.71637 284.755 0.28125 284.656C-1.14769 284.334 -2.46121 284.154 -3.78125 284ZM-62.375 288.969L-72.75 300.969C-72.4029 301.134 -72.0552 301.331 -71.75 301.594L-67.375 305.375C-67.0698 305.638 -66.8396 305.931 -66.625 306.25L-56.25 294.25L-62.375 288.969ZM-73.7812 301.781C-74.38 301.65 -75.0045 301.652 -75.5938 301.812C-76.3008 302.004 -76.9542 302.404 -77.4688 303L-80.7188 306.781C-82.0909 308.372 -81.9031 310.753 -80.3125 312.125L-76.5312 315.406C-74.9407 316.778 -72.5597 316.59 -71.1875 315L-67.9375 311.219C-66.5653 309.628 -66.7219 307.247 -68.3125 305.875L-72.0938 302.594C-72.5908 302.165 -73.1825 301.912 -73.7812 301.781ZM-49.1875 305.625C-50.2547 305.276 -52.4645 310.083 -52.8438 310.875C-55.2036 315.8 -56.8531 321.435 -59.8438 326C-59.2927 326.723 -58.9455 327.121 -58.5625 327.5C-57.8717 328.184 -57.128 328.848 -56.3125 329.531C-56.2409 329.358 -56.1184 329.009 -56.0625 328.906C-54.5202 326.056 -51.7585 320.96 -48.3125 320.125C-45.8255 322.522 -43.2818 324.873 -41.5 327.875C-39.6401 331.01 -38.5258 334.886 -37.4688 338.375C-37.0582 339.73 -36.894 341.33 -36.0938 342.531C-35.6609 343.181 -35.0265 343.77 -34.3438 344.344C-30.262 346.523 -26.2241 348.306 -22.0938 349.688C-21.4056 349.918 -20.8821 350.141 -19.6875 350.625C-19.5742 350.671 -19.5 350.694 -19.4375 350.719C-18.3471 351.16 -17.5497 351.443 -16.8438 351.656C-16.8219 351.488 -16.7953 351.161 -16.7812 351.094C-16.0523 347.619 -17.4699 342.925 -19.2188 339.906C-25.4965 329.069 -34.243 321.062 -43.5312 312.844C-45.102 311.454 -46.6764 309.907 -47.8438 308.156C-48.066 307.823 -48.9002 305.719 -49.1875 305.625ZM-82.0312 311.75L-93.25 324.75L-87.125 330.031L-75.9062 317.031C-76.2534 316.866 -76.601 316.67 -76.9062 316.406L-81.25 312.625C-81.5552 312.362 -81.8167 312.069 -82.0312 311.75ZM140.75 316.062C136.979 316.118 133.019 317.208 129.844 319.188C126.715 321.138 124.236 325.085 123.188 328.562C122.89 329.548 122.644 330.795 122.25 331.969C122.274 331.971 122.289 331.998 122.312 332C121.988 332.707 121.677 333.473 121.844 333.969C121.919 334.194 122.597 334.296 122.781 334.375C123.577 334.719 124.36 335.383 125.062 335.906C125.092 335.929 125.096 335.977 125.125 336C122.565 335.197 118.67 335.165 115.969 335.875C114.687 336.295 113.429 336.798 112.188 337.281C109.484 338.43 105.499 340.631 108.344 341.969C109.518 342.521 111.66 341.458 112.875 341.375C115.91 341.168 119.683 342.3 122.344 343.688C125.356 345.258 128.28 351.584 131.031 351.812C132.863 351.965 133.622 350.299 134.844 349.188C136.32 347.844 137.693 346.846 139.25 346.188C139.42 346.015 139.634 345.873 139.875 345.781C139.903 345.771 139.879 345.761 139.906 345.75C141.219 345.251 146.556 343.439 147.75 343C153.735 340.799 157.596 338.486 159.781 335.281C159.674 333.861 159.086 332.403 158.875 331.031C158.339 327.531 157.065 323.916 154.875 321.062C154.249 320.509 153.434 319.712 152.844 319.281C151.571 318.353 150.047 317.851 147.375 317.281C147.104 317.223 145.248 316.817 144.812 316.719C143.384 316.397 142.07 316.216 140.75 316.062ZM32.4688 316.656C31.4229 316.851 30.7428 317.829 30.9375 318.875C31.1322 319.921 32.1417 320.632 33.1875 320.438C34.2333 320.243 34.9135 319.233 34.7188 318.188C34.524 317.142 33.5146 316.462 32.4688 316.656ZM30.4375 320.156C29.3917 320.351 28.6803 321.361 28.875 322.406C29.0697 323.452 30.0792 324.132 31.125 323.938C32.1708 323.743 32.851 322.733 32.6562 321.688C32.4615 320.642 31.4833 319.962 30.4375 320.156ZM3.2188 322.094C2.1729 322.289 1.49277 323.298 1.6875 324.344C1.88222 325.39 2.8917 326.07 3.9375 325.875C4.9833 325.68 5.6635 324.671 5.4688 323.625C5.27399 322.579 4.2646 321.899 3.2188 322.094ZM27.5 323.562C26.4542 323.757 25.774 324.767 25.9688 325.812C26.1635 326.858 27.1729 327.57 28.2188 327.375C29.2646 327.18 29.9447 326.17 29.75 325.125C29.5553 324.079 28.5458 323.368 27.5 323.562ZM6.4062 324.625C5.3604 324.82 4.64899 325.829 4.8438 326.875C5.0385 327.921 6.0479 328.601 7.0938 328.406C8.1396 328.212 8.8197 327.202 8.625 326.156C8.4303 325.11 7.4521 324.43 6.4062 324.625ZM23.5625 325.938C22.5167 326.132 21.8053 327.142 22 328.188C22.1947 329.233 23.2042 329.913 24.25 329.719C25.2958 329.524 26.0072 328.514 25.8125 327.469C25.6178 326.423 24.6083 325.743 23.5625 325.938ZM10.3438 326.781C9.2979 326.976 8.6178 327.954 8.8125 329C9.0072 330.046 10.0167 330.757 11.0625 330.562C12.1083 330.368 12.7885 329.358 12.5938 328.312C12.399 327.267 11.3896 326.587 10.3438 326.781ZM19.1562 326.906C18.1104 327.101 17.4303 328.11 17.625 329.156C17.8197 330.202 18.8292 330.913 19.875 330.719C20.9208 330.524 21.601 329.515 21.4062 328.469C21.2115 327.423 20.2021 326.711 19.1562 326.906ZM14.875 327.562C13.8292 327.757 13.149 328.735 13.3438 329.781C13.5385 330.827 14.5479 331.539 15.5938 331.344C16.6396 331.149 17.3197 330.139 17.125 329.094C16.9302 328.048 15.9209 327.368 14.875 327.562ZM-73.2812 335.656L-76.875 336.5L-78.1562 339.719L-74 342.438L-71.5312 340.375L-73.2812 335.656ZM-67.5625 336.656C-68.8808 336.778 -70.2154 337.098 -71.4688 337.656L-70.7812 339.156C-66.4317 337.22 -61.2864 338.385 -58.1875 342.094C-54.3819 346.648 -54.9772 353.413 -59.5312 357.219C-64.0853 361.024 -70.8819 360.429 -74.6875 355.875C-77.8181 352.129 -78.0065 346.755 -75.25 342.812L-76.5938 341.906C-79.771 346.451 -79.5449 352.621 -75.9375 356.938C-71.5524 362.185 -63.7476 362.885 -58.5 358.5C-53.2524 354.115 -52.5524 346.279 -56.9375 341.031C-59.6157 337.826 -63.6077 336.29 -67.5625 336.656ZM95.344 337.688C94.277 337.339 92.067 342.146 91.6875 342.938C89.3276 347.862 87.6781 353.497 84.6875 358.062C85.2385 358.785 85.5545 359.183 85.9375 359.562C86.6283 360.247 87.4034 360.91 88.2188 361.594C88.2903 361.42 88.4128 361.072 88.4688 360.969C90.0111 358.119 92.773 353.023 96.219 352.188C98.706 354.585 101.249 356.935 103.031 359.938C104.891 363.072 106.005 366.949 107.062 370.438C107.473 371.792 107.637 373.392 108.438 374.594C108.87 375.244 109.505 375.832 110.188 376.406C114.269 378.585 118.307 380.368 122.438 381.75C123.126 381.98 123.649 382.203 124.844 382.688C124.957 382.733 125 382.756 125.062 382.781C126.153 383.223 126.982 383.506 127.688 383.719C127.709 383.551 127.736 383.223 127.75 383.156C128.479 379.681 127.061 374.988 125.312 371.969C119.035 361.132 110.257 353.156 100.969 344.938C99.398 343.548 97.855 342.001 96.688 340.25C96.465 339.917 95.631 337.781 95.344 337.688ZM5.5312 340.5C4.359 340.389 3.1836 340.506 2.0625 340.969C1.67304 341.13 1.28907 341.33 0.9375 341.562C0.568626 341.806 0.226761 342.101 -0.0625 342.438C-1.13427 343.682 -1.05742 345.243 -0.6875 346.75C-0.478912 347.6 -0.179001 348.409 0.0625 349.25C0.233383 349.845 0.364723 350.472 0.375 351.094C0.381729 351.5 0.309822 351.918 0.21875 352.312C-0.178673 354.037 -1.29227 355.471 -2.3125 356.875C-2.79016 357.532 -3.22077 358.212 -3.625 358.906C-4.03612 358.626 -4.46563 358.337 -4.84375 358.031C-5.84143 358.212 -6.4738 358.76 -7.28125 360C-7.37294 360.141 -7.51717 360.396 -7.71875 360.719C-7.81723 360.959 -7.95422 361.346 -8.03125 361.5C-9.82663 365.095 -14.8222 374.676 -14.5 380.031C-14.4039 380.073 -14.3166 380.146 -14.2188 380.188C-12.5126 380.906 -11.0651 381.378 -7.875 382.344C-3.23169 383.749 1.31644 384.51 7.1562 384.969C16.6223 385.712 21.56 384.931 27.6875 381.188C28.2534 376.071 24.5334 366.383 23.3125 362.625C23.0455 362.077 22.7052 361.36 22.5625 361.094C22.1547 360.334 21.7645 359.88 21.2812 359.625C20.955 359.831 20.6357 359.999 20.3125 360.188C20.2087 359.331 20.0512 358.493 19.8438 357.656C19.3763 355.772 18.7447 353.935 17.9688 352.156C17.1962 350.385 16.2689 348.654 15.2188 347.031C14.0986 345.3 12.8069 343.626 11.0312 342.531C9.4075 341.53 7.485 340.686 5.5312 340.5ZM5.0625 341.688C7.0712 341.792 9.1261 342.731 10.75 343.781C11.4427 344.229 12.0301 344.845 12.5625 345.469C13.1602 346.169 13.6889 346.914 14.1875 347.688C15.1989 349.256 16.0675 350.946 16.8125 352.656C17.5927 354.447 18.2685 356.285 18.7188 358.188C18.9251 359.059 19.0808 359.95 19.1562 360.844C17.5779 361.659 16.0134 362.254 14.4062 362.594C8.9503 363.747 2.2589 362.501 -2.65625 359.562C-2.14221 358.673 -1.508 357.839 -0.90625 357C0.222588 355.426 1.26709 353.749 1.5 351.781C1.73468 349.799 0.760178 347.958 0.375 346.062C0.174744 345.077 0.148582 344.021 0.84375 343.219C1.06198 342.967 1.31619 342.745 1.59375 342.562C2.6739 341.852 3.8573 341.625 5.0625 341.688ZM-43.5312 354.875C-44.9584 354.328 -46.5782 355.042 -47.125 356.469L-57.9062 384.656C-58.4531 386.083 -57.7397 387.672 -56.3125 388.219L-42.75 393.438C-41.3228 393.984 -39.7031 393.271 -39.1562 391.844L-28.375 363.656C-27.8281 362.229 -28.5416 360.64 -29.9688 360.094L-43.5312 354.875ZM-44.0625 355.656C-43.2407 355.971 -42.8414 356.897 -43.1562 357.719C-43.4711 358.541 -44.3969 358.94 -45.2188 358.625C-46.0405 358.31 -46.4399 357.384 -46.125 356.562C-45.8101 355.741 -44.8843 355.342 -44.0625 355.656ZM-41.1875 359.312C-40.3657 359.627 -39.9663 360.553 -40.2812 361.375C-40.5961 362.197 -41.5219 362.596 -42.3438 362.281C-43.1655 361.966 -43.5649 361.041 -43.25 360.219C-42.9351 359.397 -42.0093 358.998 -41.1875 359.312ZM-45.9375 360.5C-45.1157 360.815 -44.6851 361.741 -45 362.562C-45.3149 363.384 -46.2407 363.784 -47.0625 363.469C-47.8843 363.154 -48.2836 362.259 -47.9688 361.438C-47.6539 360.616 -46.7593 360.185 -45.9375 360.5ZM71.2188 367.719L67.6562 368.562L66.375 371.781L70.5312 374.5L73 372.438L71.2188 367.719ZM76.9375 368.719C75.6192 368.841 74.3159 369.192 73.0625 369.75L73.7188 371.219C78.0683 369.283 83.2448 370.448 86.3438 374.156C90.1493 378.71 89.554 385.507 85 389.312C80.4459 393.118 73.6493 392.492 69.8438 387.938C66.7132 384.191 66.5247 378.849 69.2812 374.906L67.9375 373.969C64.7603 378.514 64.9864 384.683 68.5938 389C72.9788 394.248 80.7837 394.948 86.0312 390.562C91.2788 386.177 91.9788 378.372 87.5938 373.125C84.9156 369.92 80.8924 368.353 76.9375 368.719ZM150.062 372.562C148.89 372.451 147.715 372.568 146.594 373.031C146.204 373.192 145.82 373.393 145.469 373.625C145.1 373.869 144.758 374.164 144.469 374.5C143.397 375.745 143.474 377.305 143.844 378.812C144.052 379.663 144.321 380.472 144.562 381.312C144.733 381.907 144.896 382.535 144.906 383.156C144.913 383.563 144.841 383.98 144.75 384.375C144.353 386.099 143.239 387.565 142.219 388.969C141.741 389.626 141.279 390.274 140.875 390.969C140.464 390.689 140.066 390.431 139.688 390.125C138.69 390.305 138.057 390.854 137.25 392.094C137.158 392.234 137.014 392.458 136.812 392.781C136.714 393.021 136.577 393.408 136.5 393.562C134.705 397.157 129.709 406.769 130.031 412.125C130.127 412.167 130.215 412.209 130.312 412.25C132.019 412.969 133.435 413.44 136.625 414.406C141.268 415.812 145.848 416.573 151.688 417.031C161.154 417.774 166.091 416.993 172.219 413.25C172.785 408.133 169.033 398.445 167.812 394.688C167.546 394.139 167.237 393.422 167.094 393.156C166.686 392.397 166.296 391.942 165.812 391.688C165.486 391.894 165.167 392.093 164.844 392.281C164.74 391.425 164.582 390.555 164.375 389.719C163.908 387.834 163.245 385.997 162.469 384.219C161.696 382.448 160.8 380.717 159.75 379.094C158.63 377.363 157.338 375.688 155.562 374.594C153.939 373.593 152.016 372.748 150.062 372.562ZM149.594 373.75C151.602 373.855 153.657 374.793 155.281 375.844C155.974 376.292 156.561 376.908 157.094 377.531C157.691 378.231 158.22 379.008 158.719 379.781C159.73 381.35 160.599 383.009 161.344 384.719C162.124 386.51 162.8 388.348 163.25 390.25C163.456 391.122 163.612 392.013 163.688 392.906C162.109 393.721 160.545 394.317 158.938 394.656C153.482 395.81 146.79 394.563 141.875 391.625C142.389 390.735 142.992 389.901 143.594 389.062C144.723 387.489 145.798 385.812 146.031 383.844C146.266 381.861 145.291 380.021 144.906 378.125C144.706 377.139 144.68 376.084 145.375 375.281C145.593 375.029 145.847 374.807 146.125 374.625C147.205 373.915 148.389 373.687 149.594 373.75ZM100.969 386.969C99.542 386.422 97.953 387.135 97.406 388.562L86.625 416.719C86.0781 418.146 86.7917 419.766 88.2188 420.312L101.781 425.5C103.208 426.047 104.828 425.333 105.375 423.906L116.156 395.75C116.703 394.323 115.99 392.703 114.562 392.156L100.969 386.969ZM100.469 387.719C101.291 388.034 101.69 388.959 101.375 389.781C101.06 390.603 100.134 391.002 99.312 390.688C98.491 390.373 98.091 389.447 98.406 388.625C98.721 387.803 99.647 387.404 100.469 387.719ZM103.344 391.375C104.166 391.69 104.565 392.616 104.25 393.438C103.935 394.259 103.009 394.69 102.188 394.375C101.366 394.06 100.966 393.134 101.281 392.312C101.596 391.491 102.522 391.06 103.344 391.375ZM98.594 392.562C99.416 392.877 99.846 393.803 99.531 394.625C99.216 395.447 98.29 395.846 97.469 395.531C96.647 395.216 96.216 394.322 96.531 393.5C96.846 392.678 97.772 392.248 98.594 392.562ZM50.6562 396.156C46.8852 396.212 42.9566 397.302 39.7812 399.281C36.6527 401.232 34.1733 405.179 33.125 408.656C32.8279 409.642 32.582 410.92 32.1875 412.094C32.2114 412.096 32.226 412.092 32.25 412.094C31.9256 412.801 31.5834 413.567 31.75 414.062C31.8257 414.288 32.5037 414.389 32.6875 414.469C33.4832 414.813 34.297 415.476 35 416C35.03 416.022 35.0335 416.071 35.0625 416.094C32.502 415.291 28.6071 415.258 25.9062 415.969C24.6245 416.389 23.3669 416.891 22.125 417.375C19.4216 418.524 15.4051 420.725 18.25 422.062C19.4239 422.614 21.5974 421.552 22.8125 421.469C25.8473 421.261 29.6201 422.425 32.2812 423.812C35.2939 425.383 38.2175 431.678 40.9688 431.906C42.8002 432.058 43.56 430.393 44.7812 429.281C46.2573 427.938 47.6302 426.94 49.1875 426.281C49.357 426.108 49.5399 425.967 49.7812 425.875C49.8089 425.864 49.816 425.854 49.8438 425.844C51.1561 425.345 56.4933 423.533 57.6875 423.094C63.6726 420.893 67.5334 418.58 69.7188 415.375C69.611 413.955 69.0231 412.497 68.8125 411.125C68.2761 407.625 67.0026 404.01 64.8125 401.156C64.1869 400.603 63.3713 399.837 62.7812 399.406C61.5089 398.478 59.9842 397.944 57.3125 397.375C57.041 397.317 55.1851 396.911 54.75 396.812C53.3211 396.49 51.9763 396.31 50.6562 396.156ZM-7.90625 401.125L-18.2812 413.156C-17.9341 413.322 -17.5865 413.487 -17.2812 413.75L-12.9062 417.531C-12.601 417.795 -12.3708 418.118 -12.1562 418.438L-1.78125 406.406L-7.90625 401.125ZM-19.3125 413.938C-19.9112 413.807 -20.5358 413.809 -21.125 413.969C-21.8321 414.161 -22.4854 414.56 -23 415.156L-26.25 418.938C-27.6222 420.528 -27.4656 422.94 -25.875 424.312L-22.0938 427.562C-20.5032 428.935 -18.0909 428.747 -16.7188 427.156L-13.4688 423.406C-12.0966 421.816 -12.2844 419.403 -13.875 418.031L-17.6562 414.781C-18.1533 414.352 -18.7138 414.068 -19.3125 413.938ZM5.25 417.781C4.1828 417.433 2.0043 422.239 1.625 423.031C-0.734871 427.956 -2.38435 433.591 -5.375 438.156C-4.82399 438.879 -4.50798 439.277 -4.125 439.656C-3.43416 440.34 -2.65921 441.004 -1.84375 441.688C-1.77218 441.514 -1.64964 441.166 -1.59375 441.062C-0.0514069 438.213 2.7103 433.117 6.1562 432.281C8.6433 434.678 11.187 437.029 12.9688 440.031C14.8287 443.166 15.9117 447.043 16.9688 450.531C17.3793 451.886 17.5748 453.486 18.375 454.688C18.8078 455.337 19.4423 455.957 20.125 456.531C24.2067 458.71 28.2134 460.462 32.3438 461.844C33.0319 462.074 33.5866 462.297 34.7812 462.781C34.8946 462.827 34.9375 462.85 35 462.875C36.0904 463.316 36.8878 463.599 37.5938 463.812C37.6156 463.644 37.6735 463.317 37.6875 463.25C38.4165 459.775 36.9676 455.082 35.2188 452.062C28.941 441.226 20.1945 433.25 10.9062 425.031C9.3355 423.641 7.7923 422.094 6.625 420.344C6.4027 420.01 5.5373 417.875 5.25 417.781ZM-27.5625 423.906L-38.7812 436.906L-32.6562 442.188L-21.4688 429.188C-21.8159 429.022 -22.1323 428.826 -22.4375 428.562L-26.8125 424.812C-27.1177 424.549 -27.3479 424.225 -27.5625 423.906ZM86.9375 428.812C85.8917 429.007 85.1802 430.017 85.375 431.062C85.5697 432.108 86.5791 432.788 87.625 432.594C88.6708 432.399 89.3511 431.389 89.1562 430.344C88.9615 429.298 87.9834 428.618 86.9375 428.812ZM84.875 432.312C83.8292 432.507 83.1489 433.517 83.3438 434.562C83.5385 435.608 84.5479 436.288 85.5938 436.094C86.6396 435.899 87.3198 434.889 87.125 433.844C86.9303 432.798 85.9209 432.118 84.875 432.312ZM57.6875 434.25C56.6417 434.445 55.9615 435.454 56.1562 436.5C56.351 437.546 57.3604 438.226 58.4062 438.031C59.4521 437.837 60.1323 436.859 59.9375 435.812C59.7428 434.767 58.7333 434.055 57.6875 434.25ZM81.9688 435.75C80.9229 435.945 80.2427 436.954 80.4375 438C80.6322 439.046 81.6103 439.726 82.6562 439.531C83.7021 439.337 84.4135 438.327 84.2188 437.281C84.024 436.235 83.0147 435.555 81.9688 435.75ZM60.8438 436.781C59.7979 436.976 59.1178 437.985 59.3125 439.031C59.5073 440.077 60.5167 440.757 61.5625 440.562C62.6083 440.368 63.2885 439.39 63.0938 438.344C62.899 437.298 61.8896 436.586 60.8438 436.781ZM78 438.094C76.9542 438.288 76.274 439.298 76.4688 440.344C76.6635 441.39 77.6728 442.101 78.7188 441.906C79.7646 441.712 80.4448 440.702 80.25 439.656C80.0553 438.61 79.0459 437.899 78 438.094ZM64.8125 438.938C63.7667 439.132 63.0552 440.142 63.25 441.188C63.4447 442.233 64.4541 442.913 65.5 442.719C66.5458 442.524 67.2572 441.515 67.0625 440.469C66.8678 439.423 65.8583 438.743 64.8125 438.938ZM73.625 439.094C72.5792 439.288 71.8678 440.298 72.0625 441.344C72.2572 442.39 73.2667 443.07 74.3125 442.875C75.3583 442.68 76.0385 441.671 75.8438 440.625C75.649 439.579 74.6709 438.899 73.625 439.094ZM69.3438 439.719C68.2979 439.913 67.6177 440.923 67.8125 441.969C68.0072 443.015 68.9854 443.695 70.0312 443.5C71.0771 443.305 71.7885 442.296 71.5938 441.25C71.399 440.204 70.3896 439.524 69.3438 439.719ZM-18.8438 447.812L-22.4062 448.656L-23.6875 451.875L-19.5625 454.594L-17.0938 452.531L-18.8438 447.812ZM-13.125 448.812C-14.4433 448.935 -15.7467 449.286 -17 449.844L-16.3438 451.312C-11.9942 449.376 -6.81772 450.541 -3.71875 454.25C0.0868073 458.804 -0.539711 465.601 -5.09375 469.406C-9.64781 473.212 -16.4132 472.585 -20.2188 468.031C-23.3493 464.285 -23.5377 458.943 -20.7812 455L-22.125 454.062C-25.3022 458.608 -25.0761 464.777 -21.4688 469.094C-17.0837 474.341 -9.27881 475.041 -4.03125 470.656C1.21631 466.271 1.91635 458.466 -2.46875 453.219C-5.14695 450.014 -9.17016 448.446 -13.125 448.812ZM59.9688 452.656C58.7965 452.545 57.6211 452.693 56.5 453.156C56.1105 453.317 55.7578 453.517 55.4062 453.75C55.0374 453.994 54.6955 454.258 54.4062 454.594C53.3345 455.838 53.38 457.399 53.75 458.906C53.9586 459.756 54.2585 460.566 54.5 461.406C54.6709 462.001 54.8335 462.628 54.8438 463.25C54.8505 463.657 54.7786 464.074 54.6875 464.469C54.2901 466.193 53.1765 467.658 52.1562 469.062C51.6786 469.72 51.2167 470.368 50.8125 471.062C50.4014 470.782 49.9719 470.524 49.5938 470.219C48.5961 470.399 47.995 470.947 47.1875 472.188C47.0958 472.328 46.9515 472.583 46.75 472.906C46.6515 473.146 46.5145 473.502 46.4375 473.656C44.6421 477.251 39.6153 486.863 39.9375 492.219C40.0336 492.26 40.121 492.303 40.2188 492.344C41.9249 493.063 43.3724 493.534 46.5625 494.5C51.2058 495.906 55.7852 496.666 61.625 497.125C71.091 497.868 75.9975 497.118 82.125 493.375C82.6909 488.258 78.971 478.539 77.75 474.781C77.483 474.233 77.1428 473.516 77 473.25C76.5922 472.49 76.2332 472.036 75.75 471.781C75.4237 471.988 75.1045 472.187 74.7812 472.375C74.6774 471.518 74.5199 470.649 74.3125 469.812C73.845 467.928 73.1822 466.091 72.4062 464.312C71.6337 462.542 70.7377 460.81 69.6875 459.188C68.5673 457.456 67.2757 455.782 65.5 454.688C63.8762 453.686 61.9225 452.842 59.9688 452.656ZM59.5312 453.844C61.54 453.948 63.5949 454.918 65.2188 455.969C65.9114 456.417 66.4988 457.033 67.0312 457.656C67.6289 458.356 68.1576 459.102 68.6562 459.875C69.6677 461.443 70.5363 463.103 71.2812 464.812C72.0614 466.603 72.706 468.442 73.1562 470.344C73.3626 471.216 73.5183 472.107 73.5938 473C72.0154 473.815 70.4509 474.442 68.8438 474.781C63.3878 475.935 56.7277 474.657 51.8125 471.719C52.3265 470.829 52.9295 469.995 53.5312 469.156C54.6601 467.582 55.7359 465.906 55.9688 463.938C56.2034 461.955 55.1977 460.114 54.8125 458.219C54.6122 457.233 54.5861 456.177 55.2812 455.375C55.4995 455.123 55.7849 454.932 56.0625 454.75C57.1426 454.04 58.326 453.781 59.5312 453.844ZM10.9062 467.062C9.4791 466.516 7.89059 467.229 7.3438 468.656L-3.46875 496.812C-4.01562 498.24 -3.30216 499.859 -1.875 500.406L11.7188 505.594C13.1459 506.141 14.7344 505.427 15.2812 504L26.0938 475.844C26.6406 474.417 25.9272 472.797 24.5 472.25L10.9062 467.062ZM10.375 467.812C11.1968 468.127 11.6274 469.053 11.3125 469.875C10.9976 470.697 10.0718 471.096 9.25 470.781C8.4282 470.466 8.02879 469.572 8.3438 468.75C8.65859 467.928 9.5532 467.498 10.375 467.812ZM13.25 471.469C14.0718 471.784 14.5024 472.71 14.1875 473.531C13.8726 474.353 12.9468 474.784 12.125 474.469C11.3032 474.154 10.8726 473.228 11.1875 472.406C11.5024 471.584 12.4282 471.154 13.25 471.469ZM8.5312 472.656C9.353 472.971 9.7524 473.897 9.4375 474.719C9.1226 475.541 8.1968 475.971 7.375 475.656C6.5532 475.341 6.15379 474.416 6.4688 473.594C6.78359 472.772 7.7095 472.341 8.5312 472.656Z" fill="#F4F4F4"/>
<path d="M396.719 229.188C392.948 229.243 389.02 230.302 385.844 232.281C382.715 234.232 380.205 238.21 379.156 241.688C378.859 242.673 378.613 243.92 378.219 245.094C378.243 245.096 378.257 245.123 378.281 245.125C377.957 245.832 377.646 246.598 377.812 247.094C377.888 247.319 378.566 247.421 378.75 247.5C379.546 247.844 380.328 248.508 381.031 249.031C381.061 249.054 381.065 249.102 381.094 249.125C378.533 248.322 374.639 248.29 371.938 249C370.656 249.42 369.429 249.892 368.188 250.375C365.484 251.524 361.467 253.725 364.312 255.062C365.486 255.614 367.629 254.583 368.844 254.5C371.879 254.293 375.683 255.425 378.344 256.812C381.356 258.383 384.28 264.709 387.031 264.938C388.863 265.09 389.591 263.424 390.812 262.312C392.289 260.969 393.662 259.971 395.219 259.312C395.388 259.14 395.602 258.998 395.844 258.906C395.871 258.896 395.847 258.886 395.875 258.875C397.187 258.376 402.556 256.564 403.75 256.125C409.735 253.924 413.564 251.58 415.75 248.375C415.642 246.955 415.054 245.528 414.844 244.156C414.307 240.656 413.034 237.041 410.844 234.188C410.218 233.634 409.403 232.837 408.812 232.406C407.54 231.478 406.016 230.944 403.344 230.375C403.072 230.317 401.216 229.942 400.781 229.844C399.352 229.522 398.039 229.341 396.719 229.188ZM338.125 234.156L327.75 246.156C328.097 246.322 328.445 246.518 328.75 246.781L333.125 250.562C333.43 250.826 333.66 251.118 333.875 251.438L344.25 239.438L338.125 234.156ZM326.719 246.969C326.12 246.838 325.495 246.84 324.906 247C324.199 247.192 323.546 247.591 323.031 248.188L319.781 251.969C318.409 253.559 318.597 255.972 320.188 257.344L323.938 260.594C325.528 261.966 327.94 261.778 329.312 260.188L332.562 256.406C333.935 254.816 333.778 252.434 332.188 251.062L328.406 247.781C327.909 247.352 327.317 247.1 326.719 246.969ZM351.312 250.812C350.245 250.464 348.036 255.271 347.656 256.062C345.296 260.987 343.647 266.623 340.656 271.188C341.207 271.91 341.523 272.308 341.906 272.688C342.597 273.372 343.372 274.035 344.188 274.719C344.259 274.545 344.382 274.197 344.438 274.094C345.98 271.244 348.742 266.148 352.188 265.312C354.675 267.71 357.218 270.06 359 273.062C360.86 276.197 361.974 280.074 363.031 283.562C363.442 284.917 363.606 286.517 364.406 287.719C364.839 288.369 365.474 288.957 366.156 289.531C370.238 291.71 374.276 293.493 378.406 294.875C379.094 295.105 379.618 295.328 380.812 295.812C380.926 295.858 381 295.881 381.062 295.906C382.153 296.348 382.951 296.631 383.656 296.844C383.678 296.676 383.705 296.348 383.719 296.281C384.448 292.806 383.03 288.113 381.281 285.094C375.004 274.257 366.258 266.281 356.969 258.062C355.398 256.673 353.824 255.094 352.656 253.344C352.434 253.01 351.6 250.906 351.312 250.812ZM318.469 256.938L307.25 269.938L313.375 275.219L324.594 262.219C324.247 262.053 323.899 261.857 323.594 261.594L319.219 257.812C318.914 257.549 318.683 257.256 318.469 256.938ZM432.969 261.844C431.923 262.038 431.243 263.048 431.438 264.094C431.632 265.14 432.642 265.819 433.688 265.625C434.733 265.43 435.413 264.421 435.219 263.375C435.024 262.329 434.014 261.649 432.969 261.844ZM430.906 265.344C429.86 265.538 429.181 266.548 429.375 267.594C429.57 268.64 430.58 269.32 431.625 269.125C432.671 268.93 433.351 267.92 433.156 266.875C432.962 265.829 431.952 265.149 430.906 265.344ZM403.719 267.281C402.673 267.476 401.993 268.485 402.188 269.531C402.382 270.577 403.391 271.257 404.438 271.062C405.483 270.868 406.164 269.859 405.969 268.812C405.774 267.767 404.764 267.086 403.719 267.281ZM428 268.781C426.954 268.976 426.274 269.955 426.469 271C426.663 272.046 427.673 272.757 428.719 272.562C429.765 272.368 430.445 271.358 430.25 270.312C430.055 269.267 429.045 268.587 428 268.781ZM406.875 269.812C405.829 270.007 405.149 271.017 405.344 272.062C405.539 273.108 406.548 273.788 407.594 273.594C408.64 273.399 409.32 272.39 409.125 271.344C408.93 270.298 407.921 269.618 406.875 269.812ZM424.062 271.125C423.017 271.32 422.306 272.33 422.5 273.375C422.695 274.421 423.705 275.101 424.75 274.906C425.796 274.712 426.507 273.702 426.312 272.656C426.118 271.61 425.108 270.931 424.062 271.125ZM410.844 271.969C409.798 272.163 409.118 273.173 409.312 274.219C409.507 275.265 410.517 275.945 411.562 275.75C412.608 275.555 413.289 274.546 413.094 273.5C412.899 272.454 411.89 271.774 410.844 271.969ZM419.656 272.094C418.61 272.288 417.93 273.298 418.125 274.344C418.32 275.39 419.298 276.1 420.344 275.906C421.39 275.712 422.101 274.702 421.906 273.656C421.712 272.61 420.702 271.899 419.656 272.094ZM415.375 272.75C414.329 272.945 413.649 273.954 413.844 275C414.038 276.046 415.048 276.726 416.094 276.531C417.14 276.337 417.82 275.327 417.625 274.281C417.43 273.235 416.421 272.555 415.375 272.75ZM327.188 280.844L323.625 281.688L322.344 284.906L326.5 287.625L328.969 285.562L327.188 280.844ZM332.938 281.844C331.619 281.966 330.285 282.286 329.031 282.844L329.719 284.344C334.068 282.408 339.214 283.573 342.312 287.281C346.118 291.835 345.523 298.601 340.969 302.406C336.415 306.212 329.618 305.617 325.812 301.062C322.682 297.316 322.494 291.974 325.25 288.031L323.906 287.094C320.729 291.639 320.955 297.808 324.562 302.125C328.948 307.373 336.752 308.073 342 303.688C347.248 299.302 347.948 291.498 343.562 286.25C340.884 283.045 336.892 281.478 332.938 281.844ZM406.031 285.688C404.859 285.576 403.684 285.693 402.562 286.156C402.173 286.317 401.789 286.518 401.438 286.75C401.069 286.994 400.727 287.289 400.438 287.625C399.366 288.87 399.442 290.43 399.812 291.938C400.021 292.788 400.29 293.597 400.531 294.438C400.702 295.032 400.864 295.66 400.875 296.281C400.882 296.688 400.81 297.105 400.719 297.5C400.321 299.224 399.208 300.659 398.188 302.062C397.71 302.72 397.279 303.399 396.875 304.094C396.464 303.814 396.034 303.524 395.656 303.219C394.659 303.399 394.026 303.948 393.219 305.188C393.127 305.328 392.983 305.583 392.781 305.906C392.683 306.146 392.546 306.533 392.469 306.688C390.673 310.282 385.678 319.894 386 325.25C386.096 325.292 386.183 325.334 386.281 325.375C387.987 326.094 389.435 326.566 392.625 327.531C397.268 328.937 401.816 329.698 407.656 330.156C417.122 330.899 422.06 330.118 428.188 326.375C428.753 321.258 425.033 311.57 423.812 307.812C423.546 307.264 423.205 306.548 423.062 306.281C422.655 305.522 422.264 305.067 421.781 304.812C421.455 305.019 421.136 305.187 420.812 305.375C420.709 304.518 420.551 303.68 420.344 302.844C419.876 300.959 419.213 299.122 418.438 297.344C417.665 295.573 416.769 293.842 415.719 292.219C414.599 290.488 413.307 288.814 411.531 287.719C409.907 286.718 407.985 285.873 406.031 285.688ZM405.562 286.875C407.571 286.98 409.626 287.918 411.25 288.969C411.943 289.417 412.53 290.033 413.062 290.656C413.66 291.356 414.189 292.102 414.688 292.875C415.699 294.443 416.567 296.134 417.312 297.844C418.093 299.635 418.768 301.473 419.219 303.375C419.425 304.247 419.581 305.138 419.656 306.031C418.078 306.846 416.513 307.441 414.906 307.781C409.45 308.935 402.759 307.689 397.844 304.75C398.358 303.86 398.96 303.027 399.562 302.188C400.691 300.614 401.767 298.937 402 296.969C402.235 294.986 401.26 293.146 400.875 291.25C400.675 290.264 400.649 289.208 401.344 288.406C401.562 288.154 401.816 287.932 402.094 287.75C403.174 287.04 404.358 286.813 405.562 286.875ZM356.969 300.062C355.542 299.516 353.922 300.26 353.375 301.688L342.594 329.844C342.047 331.271 342.76 332.891 344.188 333.438L357.75 338.625C359.177 339.172 360.797 338.459 361.344 337.031L372.125 308.844C372.672 307.417 371.959 305.828 370.531 305.281L356.969 300.062ZM356.438 300.844C357.259 301.159 357.659 302.084 357.344 302.906C357.029 303.728 356.103 304.127 355.281 303.812C354.459 303.498 354.06 302.572 354.375 301.75C354.69 300.928 355.616 300.529 356.438 300.844ZM359.312 304.5C360.134 304.815 360.534 305.741 360.219 306.562C359.904 307.384 358.978 307.783 358.156 307.469C357.334 307.154 356.935 306.228 357.25 305.406C357.565 304.584 358.49 304.185 359.312 304.5ZM354.562 305.688C355.384 306.002 355.815 306.928 355.5 307.75C355.185 308.572 354.259 308.971 353.438 308.656C352.616 308.341 352.217 307.447 352.531 306.625C352.846 305.803 353.74 305.373 354.562 305.688ZM284.469 306.969C282.9 307.112 281.382 307.726 279 309.062C278.758 309.198 277.11 310.13 276.719 310.344C275.433 311.045 274.312 311.806 273.219 312.562C270.423 315.094 268.171 318.479 267.094 322.062C266.032 325.593 266.804 330.228 268.312 333.531C268.74 334.468 269.365 335.577 269.844 336.719C269.863 336.704 269.887 336.702 269.906 336.688C270.13 337.433 270.391 338.238 270.844 338.5C271.049 338.619 271.653 338.218 271.844 338.156C272.669 337.889 273.689 337.884 274.562 337.812C274.6 337.809 274.619 337.815 274.656 337.812C272.203 338.9 269.278 341.464 267.719 343.781C267.034 344.943 266.426 346.129 265.812 347.312C264.541 349.96 262.98 354.281 266 353.406C267.246 353.045 268.142 350.834 269 349.969C271.142 347.809 274.773 346.153 277.688 345.438C280.987 344.628 287.345 347.458 289.562 345.812C291.038 344.717 290.504 342.954 290.688 341.312C290.909 339.329 291.266 337.679 292 336.156C292.013 335.915 292.067 335.666 292.188 335.438C292.201 335.411 292.205 335.433 292.219 335.406C292.875 334.165 295.674 329.275 296.281 328.156C299.323 322.551 300.694 318.256 300.219 314.406C299.2 313.411 297.783 312.704 296.719 311.812C294.004 309.538 290.685 307.665 287.156 306.969C286.321 306.966 285.196 306.902 284.469 306.969ZM323.281 312.406C322.792 312.464 322.328 312.707 322 313.125C321.343 313.962 321.507 315.187 322.344 315.844C323.181 316.501 324.374 316.337 325.031 315.5C325.688 314.663 325.556 313.47 324.719 312.812C324.3 312.484 323.77 312.349 323.281 312.406ZM324.062 316.375C323.572 316.434 323.11 316.676 322.781 317.094C322.124 317.931 322.288 319.156 323.125 319.812C323.962 320.469 325.156 320.337 325.812 319.5C326.469 318.663 326.337 317.438 325.5 316.781C325.082 316.453 324.553 316.316 324.062 316.375ZM324.156 320.875C323.667 320.935 323.203 321.175 322.875 321.594C322.218 322.431 322.351 323.655 323.188 324.312C324.024 324.969 325.249 324.806 325.906 323.969C326.563 323.132 326.399 321.938 325.562 321.281C325.144 320.953 324.645 320.815 324.156 320.875ZM322.75 325.281C322.261 325.339 321.797 325.582 321.469 326C320.812 326.837 320.944 328.03 321.781 328.688C322.618 329.344 323.843 329.212 324.5 328.375C325.157 327.538 324.993 326.313 324.156 325.656C323.738 325.328 323.239 325.224 322.75 325.281ZM320.094 328.906C319.603 328.965 319.141 329.207 318.812 329.625C318.156 330.462 318.288 331.687 319.125 332.344C319.962 333.001 321.187 332.837 321.844 332C322.501 331.163 322.337 329.969 321.5 329.312C321.082 328.984 320.584 328.847 320.094 328.906ZM317.281 332.219C316.791 332.278 316.329 332.519 316 332.938C315.343 333.774 315.507 334.968 316.344 335.625C317.181 336.282 318.374 336.15 319.031 335.312C319.688 334.476 319.555 333.251 318.719 332.594C318.3 332.265 317.772 332.159 317.281 332.219ZM313.375 334.625C312.886 334.685 312.422 334.925 312.094 335.344C311.437 336.181 311.569 337.375 312.406 338.031C313.243 338.688 314.468 338.556 315.125 337.719C315.782 336.882 315.618 335.657 314.781 335C314.363 334.672 313.864 334.565 313.375 334.625ZM308.969 335.625C308.478 335.684 308.016 335.925 307.688 336.344C307.031 337.181 307.194 338.374 308.031 339.031C308.868 339.688 310.062 339.555 310.719 338.719C311.376 337.882 311.243 336.657 310.406 336C309.988 335.672 309.459 335.566 308.969 335.625ZM304.938 335.812C304.448 335.87 303.985 336.113 303.656 336.531C302.999 337.368 303.132 338.562 303.969 339.219C304.806 339.876 306.031 339.743 306.688 338.906C307.344 338.069 307.181 336.844 306.344 336.188C305.925 335.859 305.427 335.754 304.938 335.812ZM403.719 338.844C402.15 338.987 400.664 339.601 398.281 340.938C398.039 341.073 396.391 342.006 396 342.219C394.714 342.92 393.594 343.65 392.5 344.406C389.705 346.938 387.452 350.354 386.375 353.938C385.314 357.468 386.054 362.071 387.562 365.375C387.99 366.311 388.646 367.452 389.125 368.594C389.144 368.579 389.168 368.546 389.188 368.531C389.411 369.277 389.673 370.081 390.125 370.344C390.331 370.463 390.904 370.093 391.094 370.031C391.919 369.764 392.939 369.727 393.812 369.656C393.85 369.653 393.9 369.69 393.938 369.688C391.484 370.775 388.528 373.339 386.969 375.656C386.284 376.818 385.676 378.004 385.062 379.188C383.791 381.835 382.23 386.124 385.25 385.25C386.496 384.889 387.424 382.678 388.281 381.812C390.423 379.653 394.023 378.028 396.938 377.312C400.237 376.503 406.596 379.302 408.812 377.656C410.288 376.561 409.755 374.798 409.938 373.156C410.159 371.173 410.547 369.554 411.281 368.031C411.294 367.79 411.348 367.541 411.469 367.312C411.483 367.286 411.455 367.277 411.469 367.25C412.125 366.009 414.955 361.119 415.562 360C418.604 354.395 419.944 350.1 419.469 346.25C418.45 345.255 417.064 344.579 416 343.688C413.286 341.413 409.935 339.54 406.406 338.844C405.571 338.841 404.447 338.777 403.719 338.844ZM442.562 344.281C442.073 344.339 441.609 344.582 441.281 345C440.624 345.837 440.757 347.03 441.594 347.688C442.431 348.344 443.655 348.212 444.312 347.375C444.969 346.538 444.806 345.313 443.969 344.656C443.55 344.328 443.052 344.224 442.562 344.281ZM326.094 346.688C325.068 346.559 324.028 346.544 323 346.719C321.12 347.039 319.121 347.693 317.531 348.844C316.577 349.534 315.786 350.381 315.25 351.469C315.064 351.847 314.892 352.25 314.781 352.656C314.665 353.083 314.589 353.526 314.594 353.969C314.611 355.611 315.696 356.738 316.969 357.625C317.687 358.126 318.451 358.559 319.188 359.031C319.709 359.365 320.238 359.727 320.656 360.188C320.93 360.488 321.151 360.83 321.344 361.188C322.184 362.745 322.308 364.584 322.469 366.312C322.544 367.122 322.657 367.898 322.812 368.688C322.319 368.749 321.798 368.823 321.312 368.844C320.682 369.638 320.6 370.473 320.812 371.938C320.837 372.104 320.875 372.405 320.938 372.781C321.022 373.026 321.175 373.365 321.219 373.531C322.244 377.416 324.815 387.941 328.594 391.75C328.693 391.718 328.806 391.69 328.906 391.656C330.662 391.069 332.061 390.475 335.094 389.094C339.509 387.083 343.436 384.668 348.125 381.156C355.724 375.463 358.902 371.607 361.031 364.75C358.078 360.534 348.867 355.703 345.469 353.688C344.906 353.452 344.189 353.168 343.906 353.062C343.098 352.761 342.532 352.654 342 352.781C341.891 353.152 341.775 353.489 341.656 353.844C341.013 353.269 340.333 352.741 339.625 352.25C338.029 351.143 336.32 350.198 334.562 349.375C332.813 348.555 330.985 347.869 329.125 347.344C328.133 347.064 327.119 346.816 326.094 346.688ZM323.625 347.844C324.441 347.723 325.282 347.789 326.094 347.906C327.005 348.037 327.928 348.249 328.812 348.5C330.608 349.01 332.343 349.708 334.031 350.5C335.8 351.33 337.53 352.275 339.125 353.406C339.856 353.925 340.541 354.504 341.188 355.125C340.54 356.779 339.764 358.246 338.781 359.562C335.446 364.032 329.6 367.492 323.969 368.531C323.767 367.524 323.696 366.496 323.594 365.469C323.402 363.541 323.093 361.569 321.969 359.938C320.836 358.294 318.885 357.576 317.344 356.406C316.543 355.798 315.82 355.031 315.812 353.969C315.81 353.636 315.85 353.289 315.938 352.969C316.28 351.722 317.022 350.749 317.969 350C319.546 348.752 321.712 348.127 323.625 347.844ZM443.344 348.25C442.853 348.309 442.391 348.55 442.062 348.969C441.406 349.806 441.538 351.03 442.375 351.688C443.212 352.344 444.437 352.181 445.094 351.344C445.751 350.507 445.587 349.313 444.75 348.656C444.332 348.328 443.834 348.191 443.344 348.25ZM443.406 352.75C442.917 352.81 442.454 353.05 442.125 353.469C441.468 354.306 441.632 355.499 442.469 356.156C443.306 356.813 444.499 356.681 445.156 355.844C445.813 355.007 445.681 353.813 444.844 353.156C444.425 352.828 443.895 352.69 443.406 352.75ZM442 357.125C441.511 357.183 441.047 357.425 440.719 357.844C440.062 358.681 440.194 359.906 441.031 360.562C441.868 361.219 443.093 361.087 443.75 360.25C444.407 359.413 444.243 358.188 443.406 357.531C442.988 357.203 442.49 357.068 442 357.125ZM439.344 360.781C438.853 360.84 438.391 361.082 438.062 361.5C437.406 362.337 437.569 363.531 438.406 364.188C439.243 364.844 440.437 364.712 441.094 363.875C441.751 363.038 441.618 361.844 440.781 361.188C440.363 360.859 439.834 360.722 439.344 360.781ZM436.562 364.062C436.072 364.122 435.61 364.363 435.281 364.781C434.624 365.618 434.757 366.843 435.594 367.5C436.431 368.157 437.655 368.025 438.312 367.188C438.969 366.351 438.805 365.126 437.969 364.469C437.55 364.14 437.053 364.003 436.562 364.062ZM432.625 366.469C432.136 366.529 431.672 366.801 431.344 367.219C430.687 368.056 430.819 369.25 431.656 369.906C432.493 370.563 433.718 370.431 434.375 369.594C435.032 368.757 434.899 367.532 434.062 366.875C433.644 366.547 433.114 366.409 432.625 366.469ZM428.25 367.469C427.76 367.528 427.297 367.769 426.969 368.188C426.312 369.024 426.444 370.249 427.281 370.906C428.118 371.563 429.343 371.43 430 370.594C430.657 369.757 430.493 368.532 429.656 367.875C429.238 367.547 428.741 367.41 428.25 367.469ZM424.188 367.656C423.698 367.714 423.234 367.957 422.906 368.375C422.249 369.212 422.413 370.437 423.25 371.094C424.087 371.751 425.28 371.618 425.938 370.781C426.594 369.944 426.462 368.719 425.625 368.062C425.207 367.734 424.676 367.598 424.188 367.656ZM445.375 378.531C444.349 378.402 443.31 378.387 442.281 378.562C440.401 378.883 438.402 379.537 436.812 380.688C435.859 381.378 435.036 382.256 434.5 383.344C434.314 383.722 434.173 384.125 434.062 384.531C433.946 384.958 433.87 385.401 433.875 385.844C433.892 387.486 434.977 388.613 436.25 389.5C436.968 390.001 437.732 390.403 438.469 390.875C438.99 391.209 439.519 391.602 439.938 392.062C440.211 392.363 440.433 392.705 440.625 393.062C441.465 394.62 441.59 396.428 441.75 398.156C441.825 398.965 441.908 399.774 442.062 400.562C441.569 400.624 441.079 400.699 440.594 400.719C439.964 401.513 439.85 402.348 440.062 403.812C440.087 403.979 440.156 404.249 440.219 404.625C440.303 404.87 440.424 405.239 440.469 405.406C441.494 409.291 444.097 419.816 447.875 423.625C447.975 423.593 448.056 423.565 448.156 423.531C449.912 422.944 451.31 422.35 454.344 420.969C458.759 418.958 462.686 416.512 467.375 413C474.974 407.307 478.183 403.482 480.312 396.625C477.359 392.409 468.148 387.578 464.75 385.562C464.187 385.327 463.471 385.043 463.188 384.938C462.38 384.636 461.782 384.529 461.25 384.656C461.141 385.027 461.025 385.364 460.906 385.719C460.263 385.144 459.583 384.616 458.875 384.125C457.279 383.018 455.57 382.073 453.812 381.25C452.063 380.43 450.267 379.713 448.406 379.188C447.414 378.907 446.401 378.66 445.375 378.531ZM442.906 379.719C443.722 379.598 444.563 379.664 445.375 379.781C446.286 379.912 447.177 380.123 448.062 380.375C449.858 380.885 451.593 381.583 453.281 382.375C455.05 383.205 456.78 384.15 458.375 385.281C459.106 385.8 459.822 386.347 460.469 386.969C459.821 388.623 459.045 390.121 458.062 391.438C454.727 395.907 448.882 399.368 443.25 400.406C443.049 399.399 442.946 398.371 442.844 397.344C442.652 395.416 442.343 393.444 441.219 391.812C440.086 390.169 438.134 389.45 436.594 388.281C435.793 387.673 435.071 386.874 435.062 385.812C435.06 385.479 435.131 385.164 435.219 384.844C435.561 383.597 436.273 382.624 437.219 381.875C438.796 380.627 440.993 380.002 442.906 379.719ZM359.875 386.75L351.781 386.812L351.938 402.688C352.307 402.583 352.691 402.504 353.094 402.5L358.844 402.469C359.247 402.465 359.628 402.527 360 402.625L359.875 386.75ZM303.812 386.969L290.188 392.031C288.755 392.563 288.031 394.161 288.562 395.594L299.062 423.875C299.594 425.308 301.161 426.063 302.594 425.531L316.25 420.469C317.683 419.937 318.407 418.339 317.875 416.906L307.375 388.625C306.843 387.192 305.245 386.437 303.812 386.969ZM372.656 390.625C371.625 391.068 373.168 396.155 373.406 397C374.886 402.257 377.387 407.565 378.156 412.969C379.047 413.148 379.524 413.218 380.062 413.25C381.033 413.307 382.061 413.307 383.125 413.281C383.064 413.104 382.932 412.771 382.906 412.656C382.183 409.498 380.87 403.84 382.906 400.938C386.357 401.095 389.835 401.203 393.156 402.281C396.623 403.407 399.996 405.579 403.094 407.5C404.297 408.246 405.48 409.313 406.875 409.688C407.629 409.89 408.514 409.926 409.406 409.906C413.91 408.847 418.111 407.533 422.125 405.844C422.794 405.562 423.314 405.363 424.531 404.938C424.647 404.897 424.718 404.866 424.781 404.844C425.892 404.455 426.673 404.15 427.344 403.844C427.249 403.703 427.065 403.435 427.031 403.375C425.284 400.284 421.119 397.706 417.812 396.594C405.942 392.601 394.089 392.382 381.688 392.344C379.59 392.337 377.407 392.2 375.375 391.656C374.988 391.553 372.934 390.506 372.656 390.625ZM290.281 392.969C291.106 392.663 292.037 393.081 292.344 393.906C292.65 394.731 292.231 395.632 291.406 395.938C290.581 396.244 289.65 395.825 289.344 395C289.038 394.175 289.456 393.275 290.281 392.969ZM294.875 393.812C295.7 393.506 296.6 393.925 296.906 394.75C297.212 395.575 296.794 396.506 295.969 396.812C295.144 397.119 294.244 396.7 293.938 395.875C293.631 395.05 294.05 394.119 294.875 393.812ZM292.094 397.844C292.919 397.538 293.85 397.956 294.156 398.781C294.462 399.606 294.044 400.507 293.219 400.812C292.394 401.119 291.463 400.7 291.156 399.875C290.85 399.05 291.269 398.15 292.094 397.844ZM358.469 403.469L353.469 403.5C352.156 403.512 351.017 404.2 350.344 405.219C349.939 405.83 349.711 406.556 349.719 407.344L349.75 412.312C349.77 414.413 351.493 416.114 353.594 416.094L358.594 416.031C360.694 416.011 362.363 414.319 362.344 412.219L362.312 407.219C362.293 405.118 360.569 403.449 358.469 403.469ZM360.156 416.844C359.786 416.949 359.403 417.027 359 417.031L353.219 417.094C352.816 417.098 352.434 417.036 352.062 416.938L352.219 434.094L360.312 434.031L360.156 416.844ZM423.094 418.844L409.438 423.906C408.005 424.438 407.281 426.036 407.812 427.469L418.312 455.75C418.844 457.183 420.442 457.907 421.875 457.375L435.5 452.312C436.933 451.781 437.656 450.183 437.125 448.75L426.625 420.469C426.093 419.036 424.527 418.312 423.094 418.844ZM390.25 422.344C384.747 421.493 379.416 424.42 377.125 429.406L378.594 430.094C380.582 425.768 385.224 423.23 390 423.969C395.865 424.876 399.876 430.354 398.969 436.219C398.062 442.084 392.584 446.126 386.719 445.219C381.894 444.473 378.221 440.563 377.688 435.781L376.062 435.969C376.678 441.48 380.909 445.953 386.469 446.812C393.227 447.858 399.549 443.227 400.594 436.469C401.639 429.711 397.008 423.389 390.25 422.344ZM409.562 424.844C410.388 424.538 411.288 424.925 411.594 425.75C411.9 426.575 411.481 427.506 410.656 427.812C409.831 428.119 408.931 427.7 408.625 426.875C408.319 426.05 408.737 425.15 409.562 424.844ZM414.125 425.688C414.95 425.381 415.881 425.8 416.188 426.625C416.494 427.45 416.075 428.35 415.25 428.656C414.425 428.962 413.494 428.544 413.188 427.719C412.881 426.894 413.3 425.993 414.125 425.688ZM374.406 429.125L372.281 432.094L373.438 435.375L378.344 434.656L378.844 431.5L374.406 429.125ZM411.375 429.688C412.2 429.381 413.1 429.8 413.406 430.625C413.712 431.45 413.294 432.382 412.469 432.688C411.644 432.994 410.744 432.575 410.438 431.75C410.131 430.925 410.55 429.993 411.375 429.688Z" fill="#F4F4F4"/>
<path d="M-28.6665 165.978C-28.6665 165.978 1.12029 177.778 28.2762 197.419C47.0236 210.978 58.9801 234.506 81.5991 235.054C136.982 236.398 196.139 2.64004 281.842 13.992C367.546 25.344 349.084 128.561 315.105 137.424C288.383 144.393 238.15 81.669 300.155 65.265C334.287 56.235 379.642 69.936 398.145 132.363" stroke="#ED835E" stroke-width="5" stroke-miterlimit="10" stroke-linejoin="round" stroke-dasharray="20 20"/>
</g>
<mask id="mask1_304_6012" style="mask-type:luminance" maskUnits="userSpaceOnUse" x="-8" y="-138" width="390" height="844">
<path d="M382 -138H-8V706H382V-138Z" fill="white"/>
</mask>
<g mask="url(#mask1_304_6012)">
<path d="M80.4358 156.005C80.8239 170.362 77.8649 184.512 76.4969 198.748C75.6086 207.993 71.5665 217.217 68.7674 226.039C66.0066 234.742 64.9624 249.422 58.5108 256.273C48.9227 266.454 36.4234 249.669 35.174 240.955C32.6443 223.314 41.875 204.443 46.3959 187.309C48.4736 179.435 49.3376 170.041 53.9031 163.162C58.6851 155.956 65.4692 152.905 74.044 153.729" fill="white"/>
<path d="M263.643 114.13C267.576 118.685 272.225 123.063 275.534 128.11C276.908 130.205 276.981 132.384 278.73 134.264C282.233 138.031 287.332 139.773 291.588 142.425C303.646 149.938 316.264 154.525 330.237 157.41C343.889 160.228 355.248 153.488 356.472 139.415C356.67 137.129 357.208 135.259 355.655 133.261C351.718 128.201 333.682 124.782 326.817 122.291C312.918 117.247 300.744 107.551 288.764 99.0798C284.518 96.0768 279.703 90.2518 274.643 88.9128C267.878 87.1218 261.616 90.6398 260.67 97.5418" fill="white"/>
<path d="M280.406 89.9999C280.021 90.0259 279.649 90.1859 279.375 90.4999C278.827 91.1269 278.873 92.0769 279.5 92.6249C290.421 102.175 302.079 110.822 314.906 117.656C325.83 123.476 337.374 127.774 349.281 131.094C350.129 131.33 351.014 130.848 351.25 130C351.486 129.152 350.973 128.267 350.125 128.031C338.438 124.784 327.115 120.577 316.375 114.906C303.724 108.227 292.253 99.7389 281.5 90.3439C281.186 90.0699 280.791 89.9739 280.406 89.9999Z" fill="black"/>
<path d="M261.812 115.969C261.427 115.978 261.069 116.136 260.781 116.438C260.206 117.04 260.21 117.987 260.812 118.562C280.115 137.017 302.347 154.401 329.375 158.938C330.243 159.083 331.042 158.493 331.188 157.625C331.333 156.757 330.774 155.926 329.906 155.781C303.558 151.386 281.727 134.353 262.906 116.375C262.605 116.087 262.198 115.96 261.812 115.969Z" fill="black"/>
<path d="M78.875 179.25C78.047 179.16 77.3089 179.766 77.2188 180.594C76.1274 190.595 74.5349 200.522 72.3438 210.344C69.282 224.067 65.1606 237.503 60.4688 250.75C60.1754 251.579 60.6081 252.488 61.4375 252.781C62.2669 253.075 63.1754 252.642 63.4688 251.812C67.8563 239.386 71.7296 226.786 74.6875 213.938C77.1956 203.043 79.0116 192.018 80.2188 180.906C80.3089 180.078 79.703 179.34 78.875 179.25Z" fill="black"/>
<path d="M51.4688 161.188C50.6429 161.079 49.8896 161.674 49.7812 162.5C48.4276 172.798 46.6667 183.02 44.25 193.125C41.4008 205.039 37.6911 216.693 33.2188 228.094C32.8979 228.913 33.3058 229.835 34.125 230.156C34.9441 230.477 35.8667 230.069 36.1875 229.25C39.6643 220.36 42.7095 211.346 45.1875 202.125C48.6501 189.24 51.0501 176.097 52.7812 162.875C52.8896 162.049 52.2946 161.296 51.4688 161.188Z" fill="black"/>
<path d="M290.051 100.996C289.207 105.264 288.091 109.245 286.698 113.385C286.003 115.45 279.906 129.484 277.294 129.135C275.723 128.925 272.569 125.106 271.406 123.934C270.556 123.077 268.113 122.264 267.671 121.235C266.912 119.466 268.892 116.514 269.579 114.979C271.867 109.866 274.214 104.291 277.402 99.646C278.127 98.591 279.49 95.007 280.892 94.985C283.679 94.941 286.107 98.983 288.361 100.186" fill="black"/>
<path d="M280.656 92.3439C279.545 92.4769 278.709 92.9579 277.938 93.7499C276.755 94.9619 276.139 96.5529 275.312 97.9999C274.539 99.3539 273.638 100.636 272.875 102C272.386 102.874 271.919 103.762 271.469 104.656C270.802 105.982 270.15 107.307 269.531 108.656C268.93 109.969 268.334 111.304 267.75 112.625C266.526 115.393 263.642 119.565 265.469 122.594C266.112 123.66 267.018 124.26 268.062 124.875C268.504 125.135 269.211 125.381 269.562 125.75C270.121 126.337 270.661 126.943 271.219 127.531C272.752 129.147 275.127 131.879 277.656 131.688C280.09 131.503 281.737 128.85 282.875 127.031C286.569 121.13 289.177 114.6 291 107.906C291.383 106.5 291.746 105.079 292.062 103.656C292.143 103.295 292.419 102.906 292.281 102.562C291.625 100.929 292.279 102.557 292.5 101.5C292.785 100.141 291.921 98.8159 290.562 98.5309C290.495 98.5169 290.442 98.5709 290.375 98.5619C290.242 98.4459 290.109 98.3319 289.969 98.2189C290.176 98.5119 290.129 98.4049 290.25 98.5939C290.239 98.5929 290.23 98.5939 290.219 98.5939C290.12 98.4759 290.089 98.3199 289.969 98.2189C289.957 98.2089 289.949 98.1969 289.938 98.1879C289.722 98.0129 289.49 97.8469 289.312 97.6559C288.701 96.9999 287.931 96.4399 287.281 95.8119C285.567 94.1579 283.26 92.0309 280.656 92.3439ZM281.438 97.8119C281.629 97.9169 281.826 98.0569 282 98.1879C282.577 98.6189 283.078 99.1249 283.594 99.6249C284.223 100.235 284.826 100.844 285.5 101.406C285.745 101.611 285.99 102.131 286.281 102C286.895 101.724 286.276 102.001 286.969 102.438C287.037 102.48 287.118 102.433 287.188 102.469C287.18 102.5 287.163 102.531 287.156 102.562C287.081 102.899 286.986 103.227 286.906 103.562C286.35 105.918 285.702 108.256 284.969 110.562C283.626 114.784 281.736 118.885 279.531 122.719C278.864 123.88 278.166 125.056 277.312 126.094C277.278 126.136 277.278 126.154 277.25 126.188C277.011 125.993 276.832 125.846 276.531 125.562C276.014 125.074 275.432 124.494 274.969 124C274.25 123.233 273.572 122.352 272.75 121.688C271.952 121.043 270.981 120.689 270.156 120.094C270.226 119.728 270.322 119.376 270.469 119.031C271.089 117.578 271.884 116.194 272.531 114.75C273.5 112.588 274.486 110.408 275.531 108.281C276.794 105.711 278.247 103.337 279.75 100.906C280.355 99.9279 280.777 98.8409 281.406 97.8749C281.436 97.8299 281.412 97.8509 281.438 97.8119Z" fill="black"/>
<path d="M76.5991 197.107C74.4763 198.218 71.9391 196.046 69.6843 195.44C63.3886 193.748 57.0038 190.779 51.5385 187.234C50.524 186.575 49.0069 185.802 48.3299 184.762C46.9821 182.693 48.7035 178.283 48.827 176.068C48.8788 175.138 49.9775 166.394 50.3409 166.143C51.1879 165.558 53.1665 166.693 54.0356 166.906C57.077 167.65 59.908 168.298 62.8035 169.56C67.4244 171.574 76.8426 175.606 78.1584 180.786C78.8102 183.353 78.0567 186.079 78.0567 188.667C78.0567 190.933 78.3457 196.193 76.5991 197.107Z" fill="black"/>
<path d="M115.126 45.7199C115.265 45.7209 115.429 45.6489 115.558 45.6719C116.403 45.8219 121.653 49.9769 124.982 52.7279C125.185 52.6059 125.379 52.4699 125.578 52.3429C126.405 53.0019 127.279 53.6559 128.375 54.3579C128.963 54.7349 130.343 55.5689 131.034 55.9939C131.39 56.2659 131.546 56.3699 131.842 56.5969C132.078 56.7939 132.291 56.9949 132.871 57.6869C132.91 57.7349 132.914 57.7459 132.954 57.7939C133.775 58.7729 134.185 59.2519 134.803 59.7979C135.172 60.1239 135.55 60.5149 136.18 61.1799C136.259 61.2629 136.665 61.6709 136.78 61.7919C137.941 63.0159 138.855 63.8049 139.776 64.4839C139.953 64.8369 140.085 65.0599 140.263 65.3389C140.552 65.7909 140.885 66.1869 141.303 66.5569C142.808 67.8869 145.11 67.7619 146.441 66.2569C146.74 65.9179 146.929 65.5229 147.08 65.1239C147.75 64.6789 148.333 64.1219 148.715 63.3579C149.092 62.6019 149.508 60.7939 149.51 60.7869C149.595 60.3849 149.622 60.2179 149.664 60.0589C149.691 59.9579 149.716 59.9239 149.691 59.9729C149.701 59.9539 150.546 58.2799 150.868 57.6309C151.456 56.4469 151.97 55.3659 152.457 54.2759C152.904 53.2789 153.29 52.3189 153.638 51.4089C154.648 48.7669 155.183 46.6519 155.169 44.8149C155.614 44.8179 156.058 44.7899 156.501 44.7919C157.704 41.7669 160.591 34.1259 162.212 33.1109C162.599 32.8689 174.273 38.4829 175.774 39.0569C176.261 39.2439 179.482 40.0309 179.622 40.4489C179.833 41.0769 179.068 42.5849 178.39 43.8569L208.999 34.8749C208.992 34.8479 208.979 34.8049 208.971 34.7779C209.093 34.7749 209.215 34.7769 209.338 34.7749L210.087 34.5549L210.151 34.7729C210.816 34.7699 211.481 34.7639 212.145 34.7659C241.794 39.4739 269.872 54.4629 289.802 76.3129C288.062 80.3689 285.883 85.4199 285.883 85.4199C279.237 101.086 276.196 107.999 272.094 116.461C268.366 124.152 264.785 130.159 256.436 143.193C256.325 143.366 256.335 143.372 256.224 143.544C255.178 145.176 254.771 145.955 253.842 147.42C248.718 143.264 244.41 139.929 240.056 136.682L267.868 231.458L242.796 238.816L242.824 238.912L130.567 271.854L102.755 177.078C100.847 182.162 99.0231 187.296 96.9581 193.563C95.3841 192.831 94.6201 192.397 92.8591 191.588C92.6731 191.503 92.6781 191.493 92.4911 191.407C78.423 184.952 72.1639 181.832 64.8712 177.376C56.8471 172.472 50.5521 168.298 36.4948 158.708C36.4948 158.708 31.9332 155.635 28.2764 153.163C33.2402 124.007 48.7647 96.2229 71.1689 76.2399C71.7273 75.8799 72.2893 75.5249 72.8503 75.1689L72.7865 74.9509L73.536 74.7309C73.64 74.6659 73.7423 74.5989 73.8461 74.5349C73.8544 74.5619 73.8661 74.6049 73.8745 74.6319L97.8591 67.5939L97.8301 67.4969L107.187 64.7509C105.115 64.2719 103.043 63.7579 101.017 63.4109C99.9711 63.2309 95.7281 63.4069 95.5901 62.0099C95.5661 61.7669 97.0041 60.5549 98.4541 59.3309C99.4041 59.3629 100.363 59.0319 101.098 58.3189C102.567 56.8919 103.736 55.5979 105.913 53.0719C106.056 52.9059 106.062 52.8889 106.205 52.7239C106.385 52.5139 106.419 52.5149 106.586 52.3229C107.724 52.5489 108.945 52.2949 109.84 51.4209C110.138 51.1289 111.751 49.6349 112.226 49.1709C113.485 47.9419 114.352 46.8569 115.126 45.7199Z" fill="#FF5900"/>
<path d="M151.618 80.2149C150.815 77.4789 147.946 75.9109 145.209 76.7139C142.473 77.5169 140.906 80.3859 141.709 83.1229C142.512 85.8589 145.381 87.4269 148.117 86.6239C150.854 85.8209 152.421 82.9509 151.618 80.2149Z" fill="black"/>
<path d="M155.706 94.1459C154.903 91.4089 152.034 89.8419 149.297 90.6449C146.561 91.4479 144.993 94.3169 145.796 97.0529C146.599 99.7899 149.469 101.357 152.205 100.554C154.942 99.7509 156.509 96.8819 155.706 94.1459Z" fill="black"/>
<path d="M107.747 65.6267L95.458 62.8097L115.512 44.9277L153.126 74.7917L160.899 101.51" stroke="black" stroke-width="3" stroke-miterlimit="10" stroke-linejoin="round"/>
<path d="M176.53 46.9919L179.923 39.7759L161.159 32.0569L145.356 68.1319" stroke="black" stroke-width="3" stroke-miterlimit="10" stroke-linejoin="round"/>
<path d="M75.8437 76.781C75.5873 76.759 75.3378 76.853 75.1249 77.031C74.6991 77.388 74.6435 78.012 74.9999 78.438C81.9753 86.771 86.2953 97.078 89.8437 107.25C92.8849 115.968 95.2989 124.923 97.2809 133.938C99.1459 142.418 100.644 150.992 101.594 159.625C101.658 160.208 102.167 160.627 102.75 160.562C103.333 160.498 103.752 159.958 103.688 159.375C102.58 149.366 100.763 139.452 98.4379 129.656C96.4369 121.23 94.0859 112.86 91.1249 104.719C87.5749 94.957 83.249 85.181 76.5311 77.156C76.3529 76.943 76.1 76.804 75.8437 76.781Z" fill="white"/>
<path d="M211.375 37.2498C210.825 37.3238 210.426 37.8558 210.5 38.4058C211.534 46.1408 213 53.7758 214.906 61.3438C218.646 76.1958 223.762 90.6678 228.406 105.25C228.584 105.809 229.191 106.116 229.75 105.938C230.309 105.759 230.616 105.152 230.438 104.594C225.509 89.1568 219.985 73.8638 216.188 58.0938C214.601 51.5058 213.4 44.8398 212.5 38.1248C212.426 37.5748 211.925 37.1758 211.375 37.2498Z" fill="white"/>
</g>
</g>
<defs>
<clipPath id="clip0_304_6012">
<rect width="372" height="372" fill="white" transform="translate(0.5)"/>
</clipPath>
</defs>
</svg>
