<svg width="372" height="372" viewBox="0 0 372 372" fill="none" xmlns="http://www.w3.org/2000/svg">
<g clip-path="url(#clip0_341_2655)">
<mask id="mask0_341_2655" style="mask-type:luminance" maskUnits="userSpaceOnUse" x="-9" y="-138" width="391" height="844">
<path d="M381.5 -138H-8.5V706H381.5V-138Z" fill="white"/>
</mask>
<g mask="url(#mask0_341_2655)">
<path d="M-4.28125 284C-8.05229 284.056 -11.9809 285.114 -15.1562 287.094C-18.2848 289.044 -20.7642 293.023 -21.8125 296.5C-22.1096 297.486 -22.3868 298.733 -22.7812 299.906C-22.7573 299.908 -22.7428 299.905 -22.7188 299.906C-23.0432 300.614 -23.3541 301.41 -23.1875 301.906C-23.1118 302.131 -22.4338 302.233 -22.25 302.312C-21.4543 302.657 -20.6717 303.32 -19.9688 303.844C-19.9388 303.866 -19.904 303.883 -19.875 303.906C-22.4355 303.103 -26.3616 303.102 -29.0625 303.812C-30.3442 304.233 -31.5706 304.704 -32.8125 305.188C-35.5159 306.336 -39.5324 308.537 -36.6875 309.875C-35.5136 310.427 -33.3714 309.395 -32.1562 309.312C-29.1214 309.105 -25.3174 310.238 -22.6562 311.625C-19.6436 313.196 -16.72 319.521 -13.9688 319.75C-12.1373 319.902 -11.3776 318.205 -10.1562 317.094C-8.68021 315.75 -7.33854 314.784 -5.78125 314.125C-5.6117 313.952 -5.39765 313.811 -5.15625 313.719C-5.12859 313.708 -5.15275 313.698 -5.125 313.688C-3.81267 313.189 1.5558 311.376 2.75 310.938C8.7351 308.737 12.5647 306.393 14.75 303.188C14.6423 301.768 14.0544 300.341 13.8438 298.969C13.3073 295.468 12.0651 291.854 9.875 289C9.2494 288.446 8.4026 287.65 7.8125 287.219C6.5402 286.29 5.0155 285.757 2.3438 285.188C2.0723 285.13 0.21637 284.755 -0.21875 284.656C-1.64769 284.334 -2.96121 284.154 -4.28125 284ZM-62.875 288.969L-73.25 300.969C-72.9029 301.134 -72.5552 301.331 -72.25 301.594L-67.875 305.375C-67.5698 305.638 -67.3396 305.931 -67.125 306.25L-56.75 294.25L-62.875 288.969ZM-74.2812 301.781C-74.88 301.65 -75.5045 301.652 -76.0938 301.812C-76.8008 302.004 -77.4542 302.404 -77.9688 303L-81.2188 306.781C-82.5909 308.372 -82.4031 310.753 -80.8125 312.125L-77.0312 315.406C-75.4407 316.778 -73.0597 316.59 -71.6875 315L-68.4375 311.219C-67.0653 309.628 -67.2219 307.247 -68.8125 305.875L-72.5938 302.594C-73.0908 302.165 -73.6825 301.912 -74.2812 301.781ZM-49.6875 305.625C-50.7547 305.276 -52.9645 310.083 -53.3438 310.875C-55.7036 315.8 -57.3531 321.435 -60.3438 326C-59.7927 326.723 -59.4455 327.121 -59.0625 327.5C-58.3717 328.184 -57.628 328.848 -56.8125 329.531C-56.7409 329.358 -56.6184 329.009 -56.5625 328.906C-55.0202 326.056 -52.2585 320.96 -48.8125 320.125C-46.3255 322.522 -43.7818 324.873 -42 327.875C-40.1401 331.01 -39.0258 334.886 -37.9688 338.375C-37.5582 339.73 -37.394 341.33 -36.5938 342.531C-36.1609 343.181 -35.5265 343.77 -34.8438 344.344C-30.762 346.523 -26.7241 348.306 -22.5938 349.688C-21.9056 349.918 -21.3821 350.141 -20.1875 350.625C-20.0742 350.671 -20 350.694 -19.9375 350.719C-18.8471 351.16 -18.0497 351.443 -17.3438 351.656C-17.3219 351.488 -17.2953 351.161 -17.2812 351.094C-16.5523 347.619 -17.9699 342.925 -19.7188 339.906C-25.9965 329.069 -34.743 321.062 -44.0312 312.844C-45.602 311.454 -47.1764 309.907 -48.3438 308.156C-48.566 307.823 -49.4002 305.719 -49.6875 305.625ZM-82.5312 311.75L-93.75 324.75L-87.625 330.031L-76.4062 317.031C-76.7534 316.866 -77.101 316.67 -77.4062 316.406L-81.75 312.625C-82.0552 312.362 -82.3167 312.069 -82.5312 311.75ZM140.25 316.062C136.479 316.118 132.519 317.208 129.344 319.188C126.215 321.138 123.736 325.085 122.688 328.562C122.39 329.548 122.144 330.795 121.75 331.969C121.774 331.971 121.789 331.998 121.812 332C121.488 332.707 121.177 333.473 121.344 333.969C121.419 334.194 122.097 334.296 122.281 334.375C123.077 334.719 123.86 335.383 124.562 335.906C124.592 335.929 124.596 335.977 124.625 336C122.065 335.197 118.17 335.165 115.469 335.875C114.187 336.295 112.929 336.798 111.688 337.281C108.984 338.43 104.999 340.631 107.844 341.969C109.018 342.521 111.16 341.458 112.375 341.375C115.41 341.168 119.183 342.3 121.844 343.688C124.856 345.258 127.78 351.584 130.531 351.812C132.363 351.965 133.122 350.299 134.344 349.188C135.82 347.844 137.193 346.846 138.75 346.188C138.92 346.015 139.134 345.873 139.375 345.781C139.403 345.771 139.379 345.761 139.406 345.75C140.719 345.251 146.056 343.439 147.25 343C153.235 340.799 157.096 338.486 159.281 335.281C159.174 333.861 158.586 332.403 158.375 331.031C157.839 327.531 156.565 323.916 154.375 321.062C153.749 320.509 152.934 319.712 152.344 319.281C151.071 318.353 149.547 317.851 146.875 317.281C146.604 317.223 144.748 316.817 144.312 316.719C142.884 316.397 141.57 316.216 140.25 316.062ZM31.9688 316.656C30.9229 316.851 30.2428 317.829 30.4375 318.875C30.6322 319.921 31.6417 320.632 32.6875 320.438C33.7333 320.243 34.4135 319.233 34.2188 318.188C34.024 317.142 33.0146 316.462 31.9688 316.656ZM29.9375 320.156C28.8917 320.351 28.1803 321.361 28.375 322.406C28.5697 323.452 29.5792 324.132 30.625 323.938C31.6708 323.743 32.351 322.733 32.1562 321.688C31.9615 320.642 30.9833 319.962 29.9375 320.156ZM2.7188 322.094C1.6729 322.289 0.99277 323.298 1.1875 324.344C1.38222 325.39 2.3917 326.07 3.4375 325.875C4.4833 325.68 5.1635 324.671 4.9688 323.625C4.774 322.579 3.7646 321.899 2.7188 322.094ZM27 323.562C25.9542 323.757 25.274 324.767 25.4688 325.812C25.6635 326.858 26.6729 327.57 27.7188 327.375C28.7646 327.18 29.4447 326.17 29.25 325.125C29.0553 324.079 28.0458 323.368 27 323.562ZM5.9062 324.625C4.8604 324.82 4.149 325.829 4.3438 326.875C4.5385 327.921 5.5479 328.601 6.5938 328.406C7.6396 328.212 8.3197 327.202 8.125 326.156C7.9303 325.11 6.9521 324.43 5.9062 324.625ZM23.0625 325.938C22.0167 326.132 21.3053 327.142 21.5 328.188C21.6947 329.233 22.7042 329.913 23.75 329.719C24.7958 329.524 25.5072 328.514 25.3125 327.469C25.1178 326.423 24.1083 325.743 23.0625 325.938ZM9.8438 326.781C8.7979 326.976 8.1178 327.954 8.3125 329C8.5072 330.046 9.5167 330.757 10.5625 330.562C11.6083 330.368 12.2885 329.358 12.0938 328.312C11.899 327.267 10.8896 326.587 9.8438 326.781ZM18.6562 326.906C17.6104 327.101 16.9303 328.11 17.125 329.156C17.3197 330.202 18.3292 330.913 19.375 330.719C20.4208 330.524 21.101 329.515 20.9062 328.469C20.7115 327.423 19.7021 326.711 18.6562 326.906ZM14.375 327.562C13.3292 327.757 12.649 328.735 12.8438 329.781C13.0385 330.827 14.0479 331.539 15.0938 331.344C16.1396 331.149 16.8197 330.139 16.625 329.094C16.4302 328.048 15.4209 327.368 14.375 327.562ZM-73.7812 335.656L-77.375 336.5L-78.6562 339.719L-74.5 342.438L-72.0312 340.375L-73.7812 335.656ZM-68.0625 336.656C-69.3808 336.778 -70.7154 337.098 -71.9688 337.656L-71.2812 339.156C-66.9317 337.22 -61.7864 338.385 -58.6875 342.094C-54.8819 346.648 -55.4772 353.413 -60.0312 357.219C-64.5853 361.024 -71.3819 360.429 -75.1875 355.875C-78.3181 352.129 -78.5065 346.755 -75.75 342.812L-77.0938 341.906C-80.271 346.451 -80.0449 352.621 -76.4375 356.938C-72.0524 362.185 -64.2476 362.885 -59 358.5C-53.7524 354.115 -53.0524 346.279 -57.4375 341.031C-60.1157 337.826 -64.1077 336.29 -68.0625 336.656ZM94.844 337.688C93.777 337.339 91.567 342.146 91.1875 342.938C88.8276 347.862 87.1781 353.497 84.1875 358.062C84.7385 358.785 85.0545 359.183 85.4375 359.562C86.1283 360.247 86.9034 360.91 87.7188 361.594C87.7903 361.42 87.9128 361.072 87.9688 360.969C89.5111 358.119 92.273 353.023 95.719 352.188C98.206 354.585 100.749 356.935 102.531 359.938C104.391 363.072 105.505 366.949 106.562 370.438C106.973 371.792 107.137 373.392 107.938 374.594C108.37 375.244 109.005 375.832 109.688 376.406C113.769 378.585 117.807 380.368 121.938 381.75C122.626 381.98 123.149 382.203 124.344 382.688C124.457 382.733 124.5 382.756 124.562 382.781C125.653 383.223 126.482 383.506 127.188 383.719C127.209 383.551 127.236 383.223 127.25 383.156C127.979 379.681 126.561 374.988 124.812 371.969C118.535 361.132 109.757 353.156 100.469 344.938C98.898 343.548 97.355 342.001 96.188 340.25C95.965 339.917 95.131 337.781 94.844 337.688ZM5.0312 340.5C3.859 340.389 2.6836 340.506 1.5625 340.969C1.17304 341.13 0.78907 341.33 0.4375 341.562C0.06863 341.806 -0.27324 342.101 -0.5625 342.438C-1.63427 343.682 -1.55742 345.243 -1.1875 346.75C-0.97891 347.6 -0.679 348.409 -0.4375 349.25C-0.26662 349.845 -0.13528 350.472 -0.125 351.094C-0.11827 351.5 -0.19018 351.918 -0.28125 352.312C-0.67867 354.037 -1.79227 355.471 -2.8125 356.875C-3.29016 357.532 -3.72077 358.212 -4.125 358.906C-4.53612 358.626 -4.96563 358.337 -5.34375 358.031C-6.34143 358.212 -6.9738 358.76 -7.78125 360C-7.87294 360.141 -8.01717 360.396 -8.21875 360.719C-8.31723 360.959 -8.45422 361.346 -8.53125 361.5C-10.3266 365.095 -15.3222 374.676 -15 380.031C-14.9039 380.073 -14.8166 380.146 -14.7188 380.188C-13.0126 380.906 -11.5651 381.378 -8.375 382.344C-3.73169 383.749 0.816444 384.51 6.6562 384.969C16.1223 385.712 21.06 384.931 27.1875 381.188C27.7534 376.071 24.0334 366.383 22.8125 362.625C22.5455 362.077 22.2052 361.36 22.0625 361.094C21.6547 360.334 21.2645 359.88 20.7812 359.625C20.455 359.831 20.1357 359.999 19.8125 360.188C19.7087 359.331 19.5512 358.493 19.3438 357.656C18.8763 355.772 18.2447 353.935 17.4688 352.156C16.6962 350.385 15.7689 348.654 14.7188 347.031C13.5986 345.3 12.3069 343.626 10.5312 342.531C8.9075 341.53 6.985 340.686 5.0312 340.5ZM4.5625 341.688C6.5712 341.792 8.6261 342.731 10.25 343.781C10.9427 344.229 11.5301 344.845 12.0625 345.469C12.6602 346.169 13.1889 346.914 13.6875 347.688C14.6989 349.256 15.5675 350.946 16.3125 352.656C17.0927 354.447 17.7685 356.285 18.2188 358.188C18.4251 359.059 18.5808 359.95 18.6562 360.844C17.0779 361.659 15.5134 362.254 13.9062 362.594C8.4503 363.747 1.7589 362.501 -3.15625 359.562C-2.64221 358.673 -2.008 357.839 -1.40625 357C-0.27741 355.426 0.76709 353.749 1 351.781C1.23468 349.799 0.26018 347.958 -0.125 346.062C-0.32526 345.077 -0.35142 344.021 0.34375 343.219C0.56198 342.967 0.81619 342.745 1.09375 342.562C2.1739 341.852 3.3573 341.625 4.5625 341.688ZM-44.0312 354.875C-45.4584 354.328 -47.0782 355.042 -47.625 356.469L-58.4062 384.656C-58.9531 386.083 -58.2397 387.672 -56.8125 388.219L-43.25 393.438C-41.8228 393.984 -40.2031 393.271 -39.6562 391.844L-28.875 363.656C-28.3281 362.229 -29.0416 360.64 -30.4688 360.094L-44.0312 354.875ZM-44.5625 355.656C-43.7407 355.971 -43.3414 356.897 -43.6562 357.719C-43.9711 358.541 -44.8969 358.94 -45.7188 358.625C-46.5405 358.31 -46.9399 357.384 -46.625 356.562C-46.3101 355.741 -45.3843 355.342 -44.5625 355.656ZM-41.6875 359.312C-40.8657 359.627 -40.4663 360.553 -40.7812 361.375C-41.0961 362.197 -42.0219 362.596 -42.8438 362.281C-43.6655 361.966 -44.0649 361.041 -43.75 360.219C-43.4351 359.397 -42.5093 358.998 -41.6875 359.312ZM-46.4375 360.5C-45.6157 360.815 -45.1851 361.741 -45.5 362.562C-45.8149 363.384 -46.7407 363.784 -47.5625 363.469C-48.3843 363.154 -48.7836 362.259 -48.4688 361.438C-48.1539 360.616 -47.2593 360.185 -46.4375 360.5ZM70.7188 367.719L67.1562 368.562L65.875 371.781L70.0312 374.5L72.5 372.438L70.7188 367.719ZM76.4375 368.719C75.1192 368.841 73.8159 369.192 72.5625 369.75L73.2188 371.219C77.5683 369.283 82.7448 370.448 85.8438 374.156C89.6493 378.71 89.054 385.507 84.5 389.312C79.9459 393.118 73.1493 392.492 69.3438 387.938C66.2132 384.191 66.0247 378.849 68.7812 374.906L67.4375 373.969C64.2603 378.514 64.4864 384.683 68.0938 389C72.4788 394.248 80.2837 394.948 85.5312 390.562C90.7788 386.177 91.4788 378.372 87.0938 373.125C84.4156 369.92 80.3924 368.353 76.4375 368.719ZM149.562 372.562C148.39 372.451 147.215 372.568 146.094 373.031C145.704 373.192 145.32 373.393 144.969 373.625C144.6 373.869 144.258 374.164 143.969 374.5C142.897 375.745 142.974 377.305 143.344 378.812C143.552 379.663 143.821 380.472 144.062 381.312C144.233 381.907 144.396 382.535 144.406 383.156C144.413 383.563 144.341 383.98 144.25 384.375C143.853 386.099 142.739 387.565 141.719 388.969C141.241 389.626 140.779 390.274 140.375 390.969C139.964 390.689 139.566 390.431 139.188 390.125C138.19 390.305 137.557 390.854 136.75 392.094C136.658 392.234 136.514 392.458 136.312 392.781C136.214 393.021 136.077 393.408 136 393.562C134.205 397.157 129.209 406.769 129.531 412.125C129.627 412.167 129.715 412.209 129.812 412.25C131.519 412.969 132.935 413.44 136.125 414.406C140.768 415.812 145.348 416.573 151.188 417.031C160.654 417.774 165.591 416.993 171.719 413.25C172.285 408.133 168.533 398.445 167.312 394.688C167.046 394.139 166.737 393.422 166.594 393.156C166.186 392.397 165.796 391.942 165.312 391.688C164.986 391.894 164.667 392.093 164.344 392.281C164.24 391.425 164.082 390.555 163.875 389.719C163.408 387.834 162.745 385.997 161.969 384.219C161.196 382.448 160.3 380.717 159.25 379.094C158.13 377.363 156.838 375.688 155.062 374.594C153.439 373.593 151.516 372.748 149.562 372.562ZM149.094 373.75C151.102 373.855 153.157 374.793 154.781 375.844C155.474 376.292 156.061 376.908 156.594 377.531C157.191 378.231 157.72 379.008 158.219 379.781C159.23 381.35 160.099 383.009 160.844 384.719C161.624 386.51 162.3 388.348 162.75 390.25C162.956 391.122 163.112 392.013 163.188 392.906C161.609 393.721 160.045 394.317 158.438 394.656C152.982 395.81 146.29 394.563 141.375 391.625C141.889 390.735 142.492 389.901 143.094 389.062C144.223 387.489 145.298 385.812 145.531 383.844C145.766 381.861 144.791 380.021 144.406 378.125C144.206 377.139 144.18 376.084 144.875 375.281C145.093 375.029 145.347 374.807 145.625 374.625C146.705 373.915 147.889 373.687 149.094 373.75ZM100.469 386.969C99.042 386.422 97.453 387.135 96.906 388.562L86.125 416.719C85.5781 418.146 86.2917 419.766 87.7188 420.312L101.281 425.5C102.708 426.047 104.328 425.333 104.875 423.906L115.656 395.75C116.203 394.323 115.49 392.703 114.062 392.156L100.469 386.969ZM99.969 387.719C100.791 388.034 101.19 388.959 100.875 389.781C100.56 390.603 99.634 391.002 98.812 390.688C97.991 390.373 97.591 389.447 97.906 388.625C98.221 387.803 99.147 387.404 99.969 387.719ZM102.844 391.375C103.666 391.69 104.065 392.616 103.75 393.438C103.435 394.259 102.509 394.69 101.688 394.375C100.866 394.06 100.466 393.134 100.781 392.312C101.096 391.491 102.022 391.06 102.844 391.375ZM98.094 392.562C98.916 392.877 99.346 393.803 99.031 394.625C98.716 395.447 97.79 395.846 96.969 395.531C96.147 395.216 95.716 394.322 96.031 393.5C96.346 392.678 97.272 392.248 98.094 392.562ZM50.1562 396.156C46.3852 396.212 42.4566 397.302 39.2812 399.281C36.1527 401.232 33.6733 405.179 32.625 408.656C32.3279 409.642 32.082 410.92 31.6875 412.094C31.7114 412.096 31.726 412.092 31.75 412.094C31.4256 412.801 31.0834 413.567 31.25 414.062C31.3257 414.288 32.0037 414.389 32.1875 414.469C32.9832 414.813 33.797 415.476 34.5 416C34.53 416.022 34.5335 416.071 34.5625 416.094C32.002 415.291 28.1071 415.258 25.4062 415.969C24.1245 416.389 22.8669 416.891 21.625 417.375C18.9216 418.524 14.9051 420.725 17.75 422.062C18.9239 422.614 21.0974 421.552 22.3125 421.469C25.3473 421.261 29.1201 422.425 31.7812 423.812C34.7939 425.383 37.7175 431.678 40.4688 431.906C42.3002 432.058 43.06 430.393 44.2812 429.281C45.7573 427.938 47.1302 426.94 48.6875 426.281C48.857 426.108 49.0399 425.967 49.2812 425.875C49.3089 425.864 49.316 425.854 49.3438 425.844C50.6561 425.345 55.9933 423.533 57.1875 423.094C63.1726 420.893 67.0334 418.58 69.2188 415.375C69.111 413.955 68.5231 412.497 68.3125 411.125C67.7761 407.625 66.5026 404.01 64.3125 401.156C63.6869 400.603 62.8713 399.837 62.2812 399.406C61.0089 398.478 59.4842 397.944 56.8125 397.375C56.541 397.317 54.6851 396.911 54.25 396.812C52.8211 396.49 51.4763 396.31 50.1562 396.156ZM-8.40625 401.125L-18.7812 413.156C-18.4341 413.322 -18.0865 413.487 -17.7812 413.75L-13.4062 417.531C-13.101 417.795 -12.8708 418.118 -12.6562 418.438L-2.28125 406.406L-8.40625 401.125ZM-19.8125 413.938C-20.4112 413.807 -21.0358 413.809 -21.625 413.969C-22.3321 414.161 -22.9854 414.56 -23.5 415.156L-26.75 418.938C-28.1222 420.528 -27.9656 422.94 -26.375 424.312L-22.5938 427.562C-21.0032 428.935 -18.5909 428.747 -17.2188 427.156L-13.9688 423.406C-12.5966 421.816 -12.7844 419.403 -14.375 418.031L-18.1562 414.781C-18.6533 414.352 -19.2138 414.068 -19.8125 413.938ZM4.75 417.781C3.6828 417.433 1.5043 422.239 1.125 423.031C-1.23487 427.956 -2.88435 433.591 -5.875 438.156C-5.32399 438.879 -5.00798 439.277 -4.625 439.656C-3.93416 440.34 -3.15921 441.004 -2.34375 441.688C-2.27218 441.514 -2.14964 441.166 -2.09375 441.062C-0.55141 438.213 2.2103 433.117 5.6562 432.281C8.1433 434.678 10.687 437.029 12.4688 440.031C14.3287 443.166 15.4117 447.043 16.4688 450.531C16.8793 451.886 17.0748 453.486 17.875 454.688C18.3078 455.337 18.9423 455.957 19.625 456.531C23.7067 458.71 27.7134 460.462 31.8438 461.844C32.5319 462.074 33.0866 462.297 34.2812 462.781C34.3946 462.827 34.4375 462.85 34.5 462.875C35.5904 463.316 36.3878 463.599 37.0938 463.812C37.1156 463.644 37.1735 463.317 37.1875 463.25C37.9165 459.775 36.4676 455.082 34.7188 452.062C28.441 441.226 19.6945 433.25 10.4062 425.031C8.8355 423.641 7.2923 422.094 6.125 420.344C5.9027 420.01 5.0373 417.875 4.75 417.781ZM-28.0625 423.906L-39.2812 436.906L-33.1562 442.188L-21.9688 429.188C-22.3159 429.022 -22.6323 428.826 -22.9375 428.562L-27.3125 424.812C-27.6177 424.549 -27.8479 424.225 -28.0625 423.906ZM86.4375 428.812C85.3917 429.007 84.6802 430.017 84.875 431.062C85.0697 432.108 86.0791 432.788 87.125 432.594C88.1708 432.399 88.8511 431.389 88.6562 430.344C88.4615 429.298 87.4834 428.618 86.4375 428.812ZM84.375 432.312C83.3292 432.507 82.6489 433.517 82.8438 434.562C83.0385 435.608 84.0479 436.288 85.0938 436.094C86.1396 435.899 86.8198 434.889 86.625 433.844C86.4303 432.798 85.4209 432.118 84.375 432.312ZM57.1875 434.25C56.1417 434.445 55.4615 435.454 55.6562 436.5C55.851 437.546 56.8604 438.226 57.9062 438.031C58.9521 437.837 59.6323 436.859 59.4375 435.812C59.2428 434.767 58.2333 434.055 57.1875 434.25ZM81.4688 435.75C80.4229 435.945 79.7427 436.954 79.9375 438C80.1322 439.046 81.1103 439.726 82.1562 439.531C83.2021 439.337 83.9135 438.327 83.7188 437.281C83.524 436.235 82.5147 435.555 81.4688 435.75ZM60.3438 436.781C59.2979 436.976 58.6178 437.985 58.8125 439.031C59.0073 440.077 60.0167 440.757 61.0625 440.562C62.1083 440.368 62.7885 439.39 62.5938 438.344C62.399 437.298 61.3896 436.586 60.3438 436.781ZM77.5 438.094C76.4542 438.288 75.774 439.298 75.9688 440.344C76.1635 441.39 77.1728 442.101 78.2188 441.906C79.2646 441.712 79.9448 440.702 79.75 439.656C79.5553 438.61 78.5459 437.899 77.5 438.094ZM64.3125 438.938C63.2667 439.132 62.5552 440.142 62.75 441.188C62.9447 442.233 63.9541 442.913 65 442.719C66.0458 442.524 66.7572 441.515 66.5625 440.469C66.3678 439.423 65.3583 438.743 64.3125 438.938ZM73.125 439.094C72.0792 439.288 71.3678 440.298 71.5625 441.344C71.7572 442.39 72.7667 443.07 73.8125 442.875C74.8583 442.68 75.5385 441.671 75.3438 440.625C75.149 439.579 74.1709 438.899 73.125 439.094ZM68.8438 439.719C67.7979 439.913 67.1177 440.923 67.3125 441.969C67.5072 443.015 68.4854 443.695 69.5312 443.5C70.5771 443.305 71.2885 442.296 71.0938 441.25C70.899 440.204 69.8896 439.524 68.8438 439.719ZM-19.3438 447.812L-22.9062 448.656L-24.1875 451.875L-20.0625 454.594L-17.5938 452.531L-19.3438 447.812ZM-13.625 448.812C-14.9433 448.935 -16.2467 449.286 -17.5 449.844L-16.8438 451.312C-12.4942 449.376 -7.31772 450.541 -4.21875 454.25C-0.41319 458.804 -1.03971 465.601 -5.59375 469.406C-10.1478 473.212 -16.9132 472.585 -20.7188 468.031C-23.8493 464.285 -24.0377 458.943 -21.2812 455L-22.625 454.062C-25.8022 458.608 -25.5761 464.777 -21.9688 469.094C-17.5837 474.341 -9.77881 475.041 -4.53125 470.656C0.71631 466.271 1.41635 458.466 -2.96875 453.219C-5.64695 450.014 -9.67016 448.446 -13.625 448.812ZM59.4688 452.656C58.2965 452.545 57.1211 452.693 56 453.156C55.6105 453.317 55.2578 453.517 54.9062 453.75C54.5374 453.994 54.1955 454.258 53.9062 454.594C52.8345 455.838 52.88 457.399 53.25 458.906C53.4586 459.756 53.7585 460.566 54 461.406C54.1709 462.001 54.3335 462.628 54.3438 463.25C54.3505 463.657 54.2786 464.074 54.1875 464.469C53.7901 466.193 52.6765 467.658 51.6562 469.062C51.1786 469.72 50.7167 470.368 50.3125 471.062C49.9014 470.782 49.4719 470.524 49.0938 470.219C48.0961 470.399 47.495 470.947 46.6875 472.188C46.5958 472.328 46.4515 472.583 46.25 472.906C46.1515 473.146 46.0145 473.502 45.9375 473.656C44.1421 477.251 39.1153 486.863 39.4375 492.219C39.5336 492.26 39.621 492.303 39.7188 492.344C41.4249 493.063 42.8724 493.534 46.0625 494.5C50.7058 495.906 55.2852 496.666 61.125 497.125C70.591 497.868 75.4975 497.118 81.625 493.375C82.1909 488.258 78.471 478.539 77.25 474.781C76.983 474.233 76.6428 473.516 76.5 473.25C76.0922 472.49 75.7332 472.036 75.25 471.781C74.9237 471.988 74.6045 472.187 74.2812 472.375C74.1774 471.518 74.0199 470.649 73.8125 469.812C73.345 467.928 72.6822 466.091 71.9062 464.312C71.1337 462.542 70.2377 460.81 69.1875 459.188C68.0673 457.456 66.7757 455.782 65 454.688C63.3762 453.686 61.4225 452.842 59.4688 452.656ZM59.0312 453.844C61.04 453.948 63.0949 454.918 64.7188 455.969C65.4114 456.417 65.9988 457.033 66.5312 457.656C67.1289 458.356 67.6576 459.102 68.1562 459.875C69.1677 461.443 70.0363 463.103 70.7812 464.812C71.5614 466.603 72.206 468.442 72.6562 470.344C72.8626 471.216 73.0183 472.107 73.0938 473C71.5154 473.815 69.9509 474.442 68.3438 474.781C62.8878 475.935 56.2277 474.657 51.3125 471.719C51.8265 470.829 52.4295 469.995 53.0312 469.156C54.1601 467.582 55.2359 465.906 55.4688 463.938C55.7034 461.955 54.6977 460.114 54.3125 458.219C54.1122 457.233 54.0861 456.177 54.7812 455.375C54.9995 455.123 55.2849 454.932 55.5625 454.75C56.6426 454.04 57.826 453.781 59.0312 453.844ZM10.4062 467.062C8.9791 466.516 7.3906 467.229 6.8438 468.656L-3.96875 496.812C-4.51562 498.24 -3.80216 499.859 -2.375 500.406L11.2188 505.594C12.6459 506.141 14.2344 505.427 14.7812 504L25.5938 475.844C26.1406 474.417 25.4272 472.797 24 472.25L10.4062 467.062ZM9.875 467.812C10.6968 468.127 11.1274 469.053 10.8125 469.875C10.4976 470.697 9.5718 471.096 8.75 470.781C7.9282 470.466 7.5288 469.572 7.8438 468.75C8.1586 467.928 9.0532 467.498 9.875 467.812ZM12.75 471.469C13.5718 471.784 14.0024 472.71 13.6875 473.531C13.3726 474.353 12.4468 474.784 11.625 474.469C10.8032 474.154 10.3726 473.228 10.6875 472.406C11.0024 471.584 11.9282 471.154 12.75 471.469ZM8.0312 472.656C8.853 472.971 9.2524 473.897 8.9375 474.719C8.6226 475.541 7.6968 475.971 6.875 475.656C6.0532 475.341 5.6538 474.416 5.9688 473.594C6.2836 472.772 7.2095 472.341 8.0312 472.656Z" fill="#1A1A1A"/>
<path d="M396.219 229.188C392.448 229.243 388.52 230.302 385.344 232.281C382.215 234.232 379.705 238.21 378.656 241.688C378.359 242.673 378.113 243.92 377.719 245.094C377.743 245.096 377.757 245.123 377.781 245.125C377.457 245.832 377.146 246.598 377.312 247.094C377.388 247.319 378.066 247.421 378.25 247.5C379.046 247.844 379.828 248.508 380.531 249.031C380.561 249.054 380.565 249.102 380.594 249.125C378.033 248.322 374.139 248.29 371.438 249C370.156 249.42 368.929 249.892 367.688 250.375C364.984 251.524 360.967 253.725 363.812 255.062C364.986 255.614 367.129 254.583 368.344 254.5C371.379 254.293 375.183 255.425 377.844 256.812C380.856 258.383 383.78 264.709 386.531 264.938C388.363 265.09 389.091 263.424 390.312 262.312C391.789 260.969 393.162 259.971 394.719 259.312C394.888 259.14 395.102 258.998 395.344 258.906C395.371 258.896 395.347 258.886 395.375 258.875C396.687 258.376 402.056 256.564 403.25 256.125C409.235 253.924 413.064 251.58 415.25 248.375C415.142 246.955 414.554 245.528 414.344 244.156C413.807 240.656 412.534 237.041 410.344 234.188C409.718 233.634 408.903 232.837 408.312 232.406C407.04 231.478 405.516 230.944 402.844 230.375C402.572 230.317 400.716 229.942 400.281 229.844C398.852 229.522 397.539 229.341 396.219 229.188ZM337.625 234.156L327.25 246.156C327.597 246.322 327.945 246.518 328.25 246.781L332.625 250.562C332.93 250.826 333.16 251.118 333.375 251.438L343.75 239.438L337.625 234.156ZM326.219 246.969C325.62 246.838 324.995 246.84 324.406 247C323.699 247.192 323.046 247.591 322.531 248.188L319.281 251.969C317.909 253.559 318.097 255.972 319.688 257.344L323.438 260.594C325.028 261.966 327.44 261.778 328.812 260.188L332.062 256.406C333.435 254.816 333.278 252.434 331.688 251.062L327.906 247.781C327.409 247.352 326.817 247.1 326.219 246.969ZM350.812 250.812C349.745 250.464 347.536 255.271 347.156 256.062C344.796 260.987 343.147 266.623 340.156 271.188C340.707 271.91 341.023 272.308 341.406 272.688C342.097 273.372 342.872 274.035 343.688 274.719C343.759 274.545 343.882 274.197 343.938 274.094C345.48 271.244 348.242 266.148 351.688 265.312C354.175 267.71 356.718 270.06 358.5 273.062C360.36 276.197 361.474 280.074 362.531 283.562C362.942 284.917 363.106 286.517 363.906 287.719C364.339 288.369 364.974 288.957 365.656 289.531C369.738 291.71 373.776 293.493 377.906 294.875C378.594 295.105 379.118 295.328 380.312 295.812C380.426 295.858 380.5 295.881 380.562 295.906C381.653 296.348 382.451 296.631 383.156 296.844C383.178 296.676 383.205 296.348 383.219 296.281C383.948 292.806 382.53 288.113 380.781 285.094C374.504 274.257 365.758 266.281 356.469 258.062C354.898 256.673 353.324 255.094 352.156 253.344C351.934 253.01 351.1 250.906 350.812 250.812ZM317.969 256.938L306.75 269.938L312.875 275.219L324.094 262.219C323.747 262.053 323.399 261.857 323.094 261.594L318.719 257.812C318.414 257.549 318.183 257.256 317.969 256.938ZM432.469 261.844C431.423 262.038 430.743 263.048 430.938 264.094C431.132 265.14 432.142 265.819 433.188 265.625C434.233 265.43 434.913 264.421 434.719 263.375C434.524 262.329 433.514 261.649 432.469 261.844ZM430.406 265.344C429.36 265.538 428.681 266.548 428.875 267.594C429.07 268.64 430.08 269.32 431.125 269.125C432.171 268.93 432.851 267.92 432.656 266.875C432.462 265.829 431.452 265.149 430.406 265.344ZM403.219 267.281C402.173 267.476 401.493 268.485 401.688 269.531C401.882 270.577 402.891 271.257 403.938 271.062C404.983 270.868 405.664 269.859 405.469 268.812C405.274 267.767 404.264 267.086 403.219 267.281ZM427.5 268.781C426.454 268.976 425.774 269.955 425.969 271C426.163 272.046 427.173 272.757 428.219 272.562C429.265 272.368 429.945 271.358 429.75 270.312C429.555 269.267 428.545 268.587 427.5 268.781ZM406.375 269.812C405.329 270.007 404.649 271.017 404.844 272.062C405.039 273.108 406.048 273.788 407.094 273.594C408.14 273.399 408.82 272.39 408.625 271.344C408.43 270.298 407.421 269.618 406.375 269.812ZM423.562 271.125C422.517 271.32 421.806 272.33 422 273.375C422.195 274.421 423.205 275.101 424.25 274.906C425.296 274.712 426.007 273.702 425.812 272.656C425.618 271.61 424.608 270.931 423.562 271.125ZM410.344 271.969C409.298 272.163 408.618 273.173 408.812 274.219C409.007 275.265 410.017 275.945 411.062 275.75C412.108 275.555 412.789 274.546 412.594 273.5C412.399 272.454 411.39 271.774 410.344 271.969ZM419.156 272.094C418.11 272.288 417.43 273.298 417.625 274.344C417.82 275.39 418.798 276.1 419.844 275.906C420.89 275.712 421.601 274.702 421.406 273.656C421.212 272.61 420.202 271.899 419.156 272.094ZM414.875 272.75C413.829 272.945 413.149 273.954 413.344 275C413.538 276.046 414.548 276.726 415.594 276.531C416.64 276.337 417.32 275.327 417.125 274.281C416.93 273.235 415.921 272.555 414.875 272.75ZM326.688 280.844L323.125 281.688L321.844 284.906L326 287.625L328.469 285.562L326.688 280.844ZM332.438 281.844C331.119 281.966 329.785 282.286 328.531 282.844L329.219 284.344C333.568 282.408 338.714 283.573 341.812 287.281C345.618 291.835 345.023 298.601 340.469 302.406C335.915 306.212 329.118 305.617 325.312 301.062C322.182 297.316 321.994 291.974 324.75 288.031L323.406 287.094C320.229 291.639 320.455 297.808 324.062 302.125C328.448 307.373 336.252 308.073 341.5 303.688C346.748 299.302 347.448 291.498 343.062 286.25C340.384 283.045 336.392 281.478 332.438 281.844ZM405.531 285.688C404.359 285.576 403.184 285.693 402.062 286.156C401.673 286.317 401.289 286.518 400.938 286.75C400.569 286.994 400.227 287.289 399.938 287.625C398.866 288.87 398.942 290.43 399.312 291.938C399.521 292.788 399.79 293.597 400.031 294.438C400.202 295.032 400.364 295.66 400.375 296.281C400.382 296.688 400.31 297.105 400.219 297.5C399.821 299.224 398.708 300.659 397.688 302.062C397.21 302.72 396.779 303.399 396.375 304.094C395.964 303.814 395.534 303.524 395.156 303.219C394.159 303.399 393.526 303.948 392.719 305.188C392.627 305.328 392.483 305.583 392.281 305.906C392.183 306.146 392.046 306.533 391.969 306.688C390.173 310.282 385.178 319.894 385.5 325.25C385.596 325.292 385.683 325.334 385.781 325.375C387.487 326.094 388.935 326.566 392.125 327.531C396.768 328.937 401.316 329.698 407.156 330.156C416.622 330.899 421.56 330.118 427.688 326.375C428.253 321.258 424.533 311.57 423.312 307.812C423.046 307.264 422.705 306.548 422.562 306.281C422.155 305.522 421.764 305.067 421.281 304.812C420.955 305.019 420.636 305.187 420.312 305.375C420.209 304.518 420.051 303.68 419.844 302.844C419.376 300.959 418.713 299.122 417.938 297.344C417.165 295.573 416.269 293.842 415.219 292.219C414.099 290.488 412.807 288.814 411.031 287.719C409.407 286.718 407.485 285.873 405.531 285.688ZM405.062 286.875C407.071 286.98 409.126 287.918 410.75 288.969C411.443 289.417 412.03 290.033 412.562 290.656C413.16 291.356 413.689 292.102 414.188 292.875C415.199 294.443 416.067 296.134 416.812 297.844C417.593 299.635 418.268 301.473 418.719 303.375C418.925 304.247 419.081 305.138 419.156 306.031C417.578 306.846 416.013 307.441 414.406 307.781C408.95 308.935 402.259 307.689 397.344 304.75C397.858 303.86 398.46 303.027 399.062 302.188C400.191 300.614 401.267 298.937 401.5 296.969C401.735 294.986 400.76 293.146 400.375 291.25C400.175 290.264 400.149 289.208 400.844 288.406C401.062 288.154 401.316 287.932 401.594 287.75C402.674 287.04 403.858 286.813 405.062 286.875ZM356.469 300.062C355.042 299.516 353.422 300.26 352.875 301.688L342.094 329.844C341.547 331.271 342.26 332.891 343.688 333.438L357.25 338.625C358.677 339.172 360.297 338.459 360.844 337.031L371.625 308.844C372.172 307.417 371.459 305.828 370.031 305.281L356.469 300.062ZM355.938 300.844C356.759 301.159 357.159 302.084 356.844 302.906C356.529 303.728 355.603 304.127 354.781 303.812C353.959 303.498 353.56 302.572 353.875 301.75C354.19 300.928 355.116 300.529 355.938 300.844ZM358.812 304.5C359.634 304.815 360.034 305.741 359.719 306.562C359.404 307.384 358.478 307.783 357.656 307.469C356.834 307.154 356.435 306.228 356.75 305.406C357.065 304.584 357.99 304.185 358.812 304.5ZM354.062 305.688C354.884 306.002 355.315 306.928 355 307.75C354.685 308.572 353.759 308.971 352.938 308.656C352.116 308.341 351.717 307.447 352.031 306.625C352.346 305.803 353.24 305.373 354.062 305.688ZM283.969 306.969C282.4 307.112 280.882 307.726 278.5 309.062C278.258 309.198 276.61 310.13 276.219 310.344C274.933 311.045 273.812 311.806 272.719 312.562C269.923 315.094 267.671 318.479 266.594 322.062C265.532 325.593 266.304 330.228 267.812 333.531C268.24 334.468 268.865 335.577 269.344 336.719C269.363 336.704 269.387 336.702 269.406 336.688C269.63 337.433 269.891 338.238 270.344 338.5C270.549 338.619 271.153 338.218 271.344 338.156C272.169 337.889 273.189 337.884 274.062 337.812C274.1 337.809 274.119 337.815 274.156 337.812C271.703 338.9 268.778 341.464 267.219 343.781C266.534 344.943 265.926 346.129 265.312 347.312C264.041 349.96 262.48 354.281 265.5 353.406C266.746 353.045 267.642 350.834 268.5 349.969C270.642 347.809 274.273 346.153 277.188 345.438C280.487 344.628 286.845 347.458 289.062 345.812C290.538 344.717 290.004 342.954 290.188 341.312C290.409 339.329 290.766 337.679 291.5 336.156C291.513 335.915 291.567 335.666 291.688 335.438C291.701 335.411 291.705 335.433 291.719 335.406C292.375 334.165 295.174 329.275 295.781 328.156C298.823 322.551 300.194 318.256 299.719 314.406C298.7 313.411 297.283 312.704 296.219 311.812C293.504 309.538 290.185 307.665 286.656 306.969C285.821 306.966 284.696 306.902 283.969 306.969ZM322.781 312.406C322.292 312.464 321.828 312.707 321.5 313.125C320.843 313.962 321.007 315.187 321.844 315.844C322.681 316.501 323.874 316.337 324.531 315.5C325.188 314.663 325.056 313.47 324.219 312.812C323.8 312.484 323.27 312.349 322.781 312.406ZM323.562 316.375C323.072 316.434 322.61 316.676 322.281 317.094C321.624 317.931 321.788 319.156 322.625 319.812C323.462 320.469 324.656 320.337 325.312 319.5C325.969 318.663 325.837 317.438 325 316.781C324.582 316.453 324.053 316.316 323.562 316.375ZM323.656 320.875C323.167 320.935 322.703 321.175 322.375 321.594C321.718 322.431 321.851 323.655 322.688 324.312C323.524 324.969 324.749 324.806 325.406 323.969C326.063 323.132 325.899 321.938 325.062 321.281C324.644 320.953 324.145 320.815 323.656 320.875ZM322.25 325.281C321.761 325.339 321.297 325.582 320.969 326C320.312 326.837 320.444 328.03 321.281 328.688C322.118 329.344 323.343 329.212 324 328.375C324.657 327.538 324.493 326.313 323.656 325.656C323.238 325.328 322.739 325.224 322.25 325.281ZM319.594 328.906C319.103 328.965 318.641 329.207 318.312 329.625C317.656 330.462 317.788 331.687 318.625 332.344C319.462 333.001 320.687 332.837 321.344 332C322.001 331.163 321.837 329.969 321 329.312C320.582 328.984 320.084 328.847 319.594 328.906ZM316.781 332.219C316.291 332.278 315.829 332.519 315.5 332.938C314.843 333.774 315.007 334.968 315.844 335.625C316.681 336.282 317.874 336.15 318.531 335.312C319.188 334.476 319.055 333.251 318.219 332.594C317.8 332.265 317.272 332.159 316.781 332.219ZM312.875 334.625C312.386 334.685 311.922 334.925 311.594 335.344C310.937 336.181 311.069 337.375 311.906 338.031C312.743 338.688 313.968 338.556 314.625 337.719C315.282 336.882 315.118 335.657 314.281 335C313.863 334.672 313.364 334.565 312.875 334.625ZM308.469 335.625C307.978 335.684 307.516 335.925 307.188 336.344C306.531 337.181 306.694 338.374 307.531 339.031C308.368 339.688 309.562 339.555 310.219 338.719C310.876 337.882 310.743 336.657 309.906 336C309.488 335.672 308.959 335.566 308.469 335.625ZM304.438 335.812C303.948 335.87 303.485 336.113 303.156 336.531C302.499 337.368 302.632 338.562 303.469 339.219C304.306 339.876 305.531 339.743 306.188 338.906C306.844 338.069 306.681 336.844 305.844 336.188C305.425 335.859 304.927 335.754 304.438 335.812ZM403.219 338.844C401.65 338.987 400.164 339.601 397.781 340.938C397.539 341.073 395.891 342.006 395.5 342.219C394.214 342.92 393.094 343.65 392 344.406C389.205 346.938 386.952 350.354 385.875 353.938C384.814 357.468 385.554 362.071 387.062 365.375C387.49 366.311 388.146 367.452 388.625 368.594C388.644 368.579 388.668 368.546 388.688 368.531C388.911 369.277 389.173 370.081 389.625 370.344C389.831 370.463 390.404 370.093 390.594 370.031C391.419 369.764 392.439 369.727 393.312 369.656C393.35 369.653 393.4 369.69 393.438 369.688C390.984 370.775 388.028 373.339 386.469 375.656C385.784 376.818 385.176 378.004 384.562 379.188C383.291 381.835 381.73 386.124 384.75 385.25C385.996 384.889 386.924 382.678 387.781 381.812C389.923 379.653 393.523 378.028 396.438 377.312C399.737 376.503 406.096 379.302 408.312 377.656C409.788 376.561 409.255 374.798 409.438 373.156C409.659 371.173 410.047 369.554 410.781 368.031C410.794 367.79 410.848 367.541 410.969 367.312C410.983 367.286 410.955 367.277 410.969 367.25C411.625 366.009 414.455 361.119 415.062 360C418.104 354.395 419.444 350.1 418.969 346.25C417.95 345.255 416.564 344.579 415.5 343.688C412.786 341.413 409.435 339.54 405.906 338.844C405.071 338.841 403.947 338.777 403.219 338.844ZM442.062 344.281C441.573 344.339 441.109 344.582 440.781 345C440.124 345.837 440.257 347.03 441.094 347.688C441.931 348.344 443.155 348.212 443.812 347.375C444.469 346.538 444.306 345.313 443.469 344.656C443.05 344.328 442.552 344.224 442.062 344.281ZM325.594 346.688C324.568 346.559 323.528 346.544 322.5 346.719C320.62 347.039 318.621 347.693 317.031 348.844C316.077 349.534 315.286 350.381 314.75 351.469C314.564 351.847 314.392 352.25 314.281 352.656C314.165 353.083 314.089 353.526 314.094 353.969C314.111 355.611 315.196 356.738 316.469 357.625C317.187 358.126 317.951 358.559 318.688 359.031C319.209 359.365 319.738 359.727 320.156 360.188C320.43 360.488 320.651 360.83 320.844 361.188C321.684 362.745 321.808 364.584 321.969 366.312C322.044 367.122 322.157 367.898 322.312 368.688C321.819 368.749 321.298 368.823 320.812 368.844C320.182 369.638 320.1 370.473 320.312 371.938C320.337 372.104 320.375 372.405 320.438 372.781C320.522 373.026 320.675 373.365 320.719 373.531C321.744 377.416 324.315 387.941 328.094 391.75C328.193 391.718 328.306 391.69 328.406 391.656C330.162 391.069 331.561 390.475 334.594 389.094C339.009 387.083 342.936 384.668 347.625 381.156C355.224 375.463 358.402 371.607 360.531 364.75C357.578 360.534 348.367 355.703 344.969 353.688C344.406 353.452 343.689 353.168 343.406 353.062C342.598 352.761 342.032 352.654 341.5 352.781C341.391 353.152 341.275 353.489 341.156 353.844C340.513 353.269 339.833 352.741 339.125 352.25C337.529 351.143 335.82 350.198 334.062 349.375C332.313 348.555 330.485 347.869 328.625 347.344C327.633 347.064 326.619 346.816 325.594 346.688ZM323.125 347.844C323.941 347.723 324.782 347.789 325.594 347.906C326.505 348.037 327.428 348.249 328.312 348.5C330.108 349.01 331.843 349.708 333.531 350.5C335.3 351.33 337.03 352.275 338.625 353.406C339.356 353.925 340.041 354.504 340.688 355.125C340.04 356.779 339.264 358.246 338.281 359.562C334.946 364.032 329.1 367.492 323.469 368.531C323.267 367.524 323.196 366.496 323.094 365.469C322.902 363.541 322.593 361.569 321.469 359.938C320.336 358.294 318.385 357.576 316.844 356.406C316.043 355.798 315.32 355.031 315.312 353.969C315.31 353.636 315.35 353.289 315.438 352.969C315.78 351.722 316.522 350.749 317.469 350C319.046 348.752 321.212 348.127 323.125 347.844ZM442.844 348.25C442.353 348.309 441.891 348.55 441.562 348.969C440.906 349.806 441.038 351.03 441.875 351.688C442.712 352.344 443.937 352.181 444.594 351.344C445.251 350.507 445.087 349.313 444.25 348.656C443.832 348.328 443.334 348.191 442.844 348.25ZM442.906 352.75C442.417 352.81 441.954 353.05 441.625 353.469C440.968 354.306 441.132 355.499 441.969 356.156C442.806 356.813 443.999 356.681 444.656 355.844C445.313 355.007 445.181 353.813 444.344 353.156C443.925 352.828 443.395 352.69 442.906 352.75ZM441.5 357.125C441.011 357.183 440.547 357.425 440.219 357.844C439.562 358.681 439.694 359.906 440.531 360.562C441.368 361.219 442.593 361.087 443.25 360.25C443.907 359.413 443.743 358.188 442.906 357.531C442.488 357.203 441.99 357.068 441.5 357.125ZM438.844 360.781C438.353 360.84 437.891 361.082 437.562 361.5C436.906 362.337 437.069 363.531 437.906 364.188C438.743 364.844 439.937 364.712 440.594 363.875C441.251 363.038 441.118 361.844 440.281 361.188C439.863 360.859 439.334 360.722 438.844 360.781ZM436.062 364.062C435.572 364.122 435.11 364.363 434.781 364.781C434.124 365.618 434.257 366.843 435.094 367.5C435.931 368.157 437.155 368.025 437.812 367.188C438.469 366.351 438.305 365.126 437.469 364.469C437.05 364.14 436.553 364.003 436.062 364.062ZM432.125 366.469C431.636 366.529 431.172 366.801 430.844 367.219C430.187 368.056 430.319 369.25 431.156 369.906C431.993 370.563 433.218 370.431 433.875 369.594C434.532 368.757 434.399 367.532 433.562 366.875C433.144 366.547 432.614 366.409 432.125 366.469ZM427.75 367.469C427.26 367.528 426.797 367.769 426.469 368.188C425.812 369.024 425.944 370.249 426.781 370.906C427.618 371.563 428.843 371.43 429.5 370.594C430.157 369.757 429.993 368.532 429.156 367.875C428.738 367.547 428.241 367.41 427.75 367.469ZM423.688 367.656C423.198 367.714 422.734 367.957 422.406 368.375C421.749 369.212 421.913 370.437 422.75 371.094C423.587 371.751 424.78 371.618 425.438 370.781C426.094 369.944 425.962 368.719 425.125 368.062C424.707 367.734 424.176 367.598 423.688 367.656ZM444.875 378.531C443.849 378.402 442.81 378.387 441.781 378.562C439.901 378.883 437.902 379.537 436.312 380.688C435.359 381.378 434.536 382.256 434 383.344C433.814 383.722 433.673 384.125 433.562 384.531C433.446 384.958 433.37 385.401 433.375 385.844C433.392 387.486 434.477 388.613 435.75 389.5C436.468 390.001 437.232 390.403 437.969 390.875C438.49 391.209 439.019 391.602 439.438 392.062C439.711 392.363 439.933 392.705 440.125 393.062C440.965 394.62 441.09 396.428 441.25 398.156C441.325 398.965 441.408 399.774 441.562 400.562C441.069 400.624 440.579 400.699 440.094 400.719C439.464 401.513 439.35 402.348 439.562 403.812C439.587 403.979 439.656 404.249 439.719 404.625C439.803 404.87 439.924 405.239 439.969 405.406C440.994 409.291 443.597 419.816 447.375 423.625C447.475 423.593 447.556 423.565 447.656 423.531C449.412 422.944 450.81 422.35 453.844 420.969C458.259 418.958 462.186 416.512 466.875 413C474.474 407.307 477.683 403.482 479.812 396.625C476.859 392.409 467.648 387.578 464.25 385.562C463.687 385.327 462.971 385.043 462.688 384.938C461.88 384.636 461.282 384.529 460.75 384.656C460.641 385.027 460.525 385.364 460.406 385.719C459.763 385.144 459.083 384.616 458.375 384.125C456.779 383.018 455.07 382.073 453.312 381.25C451.563 380.43 449.767 379.713 447.906 379.188C446.914 378.907 445.901 378.66 444.875 378.531ZM442.406 379.719C443.222 379.598 444.063 379.664 444.875 379.781C445.786 379.912 446.677 380.123 447.562 380.375C449.358 380.885 451.093 381.583 452.781 382.375C454.55 383.205 456.28 384.15 457.875 385.281C458.606 385.8 459.322 386.347 459.969 386.969C459.321 388.623 458.545 390.121 457.562 391.438C454.227 395.907 448.382 399.368 442.75 400.406C442.549 399.399 442.446 398.371 442.344 397.344C442.152 395.416 441.843 393.444 440.719 391.812C439.586 390.169 437.634 389.45 436.094 388.281C435.293 387.673 434.571 386.874 434.562 385.812C434.56 385.479 434.631 385.164 434.719 384.844C435.061 383.597 435.773 382.624 436.719 381.875C438.296 380.627 440.493 380.002 442.406 379.719ZM359.375 386.75L351.281 386.812L351.438 402.688C351.807 402.583 352.191 402.504 352.594 402.5L358.344 402.469C358.747 402.465 359.128 402.527 359.5 402.625L359.375 386.75ZM303.312 386.969L289.688 392.031C288.255 392.563 287.531 394.161 288.062 395.594L298.562 423.875C299.094 425.308 300.661 426.063 302.094 425.531L315.75 420.469C317.183 419.937 317.907 418.339 317.375 416.906L306.875 388.625C306.343 387.192 304.745 386.437 303.312 386.969ZM372.156 390.625C371.125 391.068 372.668 396.155 372.906 397C374.386 402.257 376.887 407.565 377.656 412.969C378.547 413.148 379.024 413.218 379.562 413.25C380.533 413.307 381.561 413.307 382.625 413.281C382.564 413.104 382.432 412.771 382.406 412.656C381.683 409.498 380.37 403.84 382.406 400.938C385.857 401.095 389.335 401.203 392.656 402.281C396.123 403.407 399.496 405.579 402.594 407.5C403.797 408.246 404.98 409.313 406.375 409.688C407.129 409.89 408.014 409.926 408.906 409.906C413.41 408.847 417.611 407.533 421.625 405.844C422.294 405.562 422.814 405.363 424.031 404.938C424.147 404.897 424.218 404.866 424.281 404.844C425.392 404.455 426.173 404.15 426.844 403.844C426.749 403.703 426.565 403.435 426.531 403.375C424.784 400.284 420.619 397.706 417.312 396.594C405.442 392.601 393.589 392.382 381.188 392.344C379.09 392.337 376.907 392.2 374.875 391.656C374.488 391.553 372.434 390.506 372.156 390.625ZM289.781 392.969C290.606 392.663 291.537 393.081 291.844 393.906C292.15 394.731 291.731 395.632 290.906 395.938C290.081 396.244 289.15 395.825 288.844 395C288.538 394.175 288.956 393.275 289.781 392.969ZM294.375 393.812C295.2 393.506 296.1 393.925 296.406 394.75C296.712 395.575 296.294 396.506 295.469 396.812C294.644 397.119 293.744 396.7 293.438 395.875C293.131 395.05 293.55 394.119 294.375 393.812ZM291.594 397.844C292.419 397.538 293.35 397.956 293.656 398.781C293.962 399.606 293.544 400.507 292.719 400.812C291.894 401.119 290.963 400.7 290.656 399.875C290.35 399.05 290.769 398.15 291.594 397.844ZM357.969 403.469L352.969 403.5C351.656 403.512 350.517 404.2 349.844 405.219C349.439 405.83 349.211 406.556 349.219 407.344L349.25 412.312C349.27 414.413 350.993 416.114 353.094 416.094L358.094 416.031C360.194 416.011 361.863 414.319 361.844 412.219L361.812 407.219C361.793 405.118 360.069 403.449 357.969 403.469ZM359.656 416.844C359.286 416.949 358.903 417.027 358.5 417.031L352.719 417.094C352.316 417.098 351.934 417.036 351.562 416.938L351.719 434.094L359.812 434.031L359.656 416.844ZM422.594 418.844L408.938 423.906C407.505 424.438 406.781 426.036 407.312 427.469L417.812 455.75C418.344 457.183 419.942 457.907 421.375 457.375L435 452.312C436.433 451.781 437.156 450.183 436.625 448.75L426.125 420.469C425.593 419.036 424.027 418.312 422.594 418.844ZM389.75 422.344C384.247 421.493 378.916 424.42 376.625 429.406L378.094 430.094C380.082 425.768 384.724 423.23 389.5 423.969C395.365 424.876 399.376 430.354 398.469 436.219C397.562 442.084 392.084 446.126 386.219 445.219C381.394 444.473 377.721 440.563 377.188 435.781L375.562 435.969C376.178 441.48 380.409 445.953 385.969 446.812C392.727 447.858 399.049 443.227 400.094 436.469C401.139 429.711 396.508 423.389 389.75 422.344ZM409.062 424.844C409.888 424.538 410.788 424.925 411.094 425.75C411.4 426.575 410.981 427.506 410.156 427.812C409.331 428.119 408.431 427.7 408.125 426.875C407.819 426.05 408.237 425.15 409.062 424.844ZM413.625 425.688C414.45 425.381 415.381 425.8 415.688 426.625C415.994 427.45 415.575 428.35 414.75 428.656C413.925 428.962 412.994 428.544 412.688 427.719C412.381 426.894 412.8 425.993 413.625 425.688ZM373.906 429.125L371.781 432.094L372.938 435.375L377.844 434.656L378.344 431.5L373.906 429.125ZM410.875 429.688C411.7 429.381 412.6 429.8 412.906 430.625C413.212 431.45 412.794 432.382 411.969 432.688C411.144 432.994 410.244 432.575 409.938 431.75C409.631 430.925 410.05 429.993 410.875 429.688Z" fill="#1A1A1A"/>
<path d="M-29.1665 165.978C-29.1665 165.978 0.620285 177.778 27.7762 197.419C46.5236 210.978 58.4801 234.506 81.0991 235.054C136.482 236.398 195.639 2.64001 281.342 13.992C367.046 25.344 348.584 128.561 314.605 137.424C287.883 144.393 237.65 81.669 299.655 65.265C333.787 56.235 379.142 69.936 397.645 132.363" stroke="#ED835E" stroke-width="5" stroke-miterlimit="10" stroke-linejoin="round" stroke-dasharray="20 20"/>
</g>
<mask id="mask1_341_2655" style="mask-type:luminance" maskUnits="userSpaceOnUse" x="-9" y="-138" width="391" height="844">
<path d="M381.5 -138H-8.5V706H381.5V-138Z" fill="white"/>
</mask>
<g mask="url(#mask1_341_2655)">
<path d="M79.9358 156.005C80.3239 170.362 77.3649 184.512 75.9969 198.748C75.1086 207.993 71.0665 217.217 68.2674 226.039C65.5066 234.742 64.4624 249.422 58.0108 256.273C48.4227 266.454 35.9234 249.669 34.674 240.955C32.1443 223.314 41.375 204.443 45.8959 187.309C47.9736 179.435 48.8376 170.041 53.4031 163.162C58.1851 155.956 64.9692 152.905 73.544 153.729" fill="black"/>
<path d="M263.143 114.13C267.076 118.685 271.725 123.063 275.034 128.11C276.408 130.205 276.481 132.384 278.23 134.264C281.733 138.031 286.832 139.773 291.088 142.425C303.146 149.938 315.764 154.525 329.737 157.41C343.389 160.228 354.748 153.488 355.972 139.415C356.17 137.129 356.708 135.259 355.155 133.261C351.218 128.201 333.182 124.782 326.317 122.291C312.418 117.247 300.244 107.551 288.264 99.08C284.018 96.077 279.203 90.252 274.143 88.913C267.378 87.122 261.116 90.64 260.17 97.542" fill="black"/>
<path d="M279.906 90C279.521 90.026 279.149 90.186 278.875 90.5C278.327 91.127 278.373 92.077 279 92.625C289.921 102.175 301.579 110.822 314.406 117.656C325.33 123.476 336.874 127.774 348.781 131.094C349.629 131.33 350.514 130.848 350.75 130C350.986 129.152 350.473 128.267 349.625 128.031C337.938 124.784 326.615 120.577 315.875 114.906C303.224 108.227 291.753 99.739 281 90.344C280.686 90.07 280.291 89.974 279.906 90Z" fill="#FDFDFD"/>
<path d="M261.312 115.969C260.927 115.978 260.569 116.136 260.281 116.438C259.706 117.04 259.71 117.987 260.312 118.562C279.615 137.017 301.847 154.401 328.875 158.938C329.743 159.083 330.542 158.493 330.688 157.625C330.833 156.757 330.274 155.926 329.406 155.781C303.058 151.386 281.227 134.353 262.406 116.375C262.105 116.087 261.698 115.96 261.312 115.969Z" fill="#FDFDFD"/>
<path d="M78.375 179.25C77.547 179.16 76.8089 179.766 76.7188 180.594C75.6274 190.595 74.0349 200.522 71.8438 210.344C68.782 224.067 64.6606 237.503 59.9688 250.75C59.6754 251.579 60.1081 252.488 60.9375 252.781C61.7669 253.075 62.6754 252.642 62.9688 251.812C67.3563 239.386 71.2296 226.786 74.1875 213.938C76.6956 203.043 78.5116 192.018 79.7188 180.906C79.8089 180.078 79.203 179.34 78.375 179.25Z" fill="#FDFDFD"/>
<path d="M50.9688 161.188C50.1429 161.079 49.3896 161.674 49.2812 162.5C47.9276 172.798 46.1667 183.02 43.75 193.125C40.9008 205.039 37.1911 216.693 32.7188 228.094C32.3979 228.913 32.8058 229.835 33.625 230.156C34.4441 230.477 35.3667 230.069 35.6875 229.25C39.1643 220.36 42.2095 211.346 44.6875 202.125C48.1501 189.24 50.5501 176.097 52.2812 162.875C52.3896 162.049 51.7946 161.296 50.9688 161.188Z" fill="#FDFDFD"/>
<path d="M289.551 100.996C288.707 105.264 287.591 109.245 286.198 113.385C285.503 115.45 279.406 129.484 276.794 129.135C275.223 128.925 272.069 125.106 270.906 123.934C270.056 123.077 267.613 122.264 267.171 121.235C266.412 119.466 268.392 116.514 269.079 114.979C271.367 109.866 273.714 104.291 276.902 99.646C277.627 98.591 278.99 95.007 280.392 94.985C283.179 94.941 285.607 98.983 287.861 100.186" fill="#FDFDFD"/>
<path d="M280.156 92.344C279.045 92.477 278.209 92.958 277.438 93.75C276.255 94.962 275.639 96.553 274.812 98C274.039 99.354 273.138 100.636 272.375 102C271.886 102.874 271.419 103.762 270.969 104.656C270.302 105.982 269.65 107.307 269.031 108.656C268.43 109.969 267.834 111.304 267.25 112.625C266.026 115.393 263.142 119.565 264.969 122.594C265.612 123.66 266.518 124.26 267.562 124.875C268.004 125.135 268.711 125.381 269.062 125.75C269.621 126.337 270.161 126.943 270.719 127.531C272.252 129.147 274.627 131.879 277.156 131.688C279.59 131.503 281.237 128.85 282.375 127.031C286.069 121.13 288.677 114.6 290.5 107.906C290.883 106.5 291.246 105.079 291.562 103.656C291.643 103.295 291.919 102.906 291.781 102.562C291.125 100.929 291.779 102.557 292 101.5C292.285 100.141 291.421 98.816 290.062 98.531C289.995 98.517 289.942 98.571 289.875 98.562C289.742 98.446 289.609 98.332 289.469 98.219C289.676 98.512 289.629 98.405 289.75 98.594C289.739 98.593 289.73 98.594 289.719 98.594C289.62 98.476 289.589 98.32 289.469 98.219C289.457 98.209 289.449 98.197 289.438 98.188C289.222 98.013 288.99 97.847 288.812 97.656C288.201 97 287.431 96.44 286.781 95.812C285.067 94.158 282.76 92.031 280.156 92.344ZM280.938 97.812C281.129 97.917 281.326 98.057 281.5 98.188C282.077 98.619 282.578 99.125 283.094 99.625C283.723 100.235 284.326 100.844 285 101.406C285.245 101.611 285.49 102.131 285.781 102C286.395 101.724 285.776 102.001 286.469 102.438C286.537 102.48 286.618 102.433 286.688 102.469C286.68 102.5 286.663 102.531 286.656 102.562C286.581 102.899 286.486 103.227 286.406 103.562C285.85 105.918 285.202 108.256 284.469 110.562C283.126 114.784 281.236 118.885 279.031 122.719C278.364 123.88 277.666 125.056 276.812 126.094C276.778 126.136 276.778 126.154 276.75 126.188C276.511 125.993 276.332 125.846 276.031 125.562C275.514 125.074 274.932 124.494 274.469 124C273.75 123.233 273.072 122.352 272.25 121.688C271.452 121.043 270.481 120.689 269.656 120.094C269.726 119.728 269.822 119.376 269.969 119.031C270.589 117.578 271.384 116.194 272.031 114.75C273 112.588 273.986 110.408 275.031 108.281C276.294 105.711 277.747 103.337 279.25 100.906C279.855 99.928 280.277 98.841 280.906 97.875C280.936 97.83 280.912 97.851 280.938 97.812Z" fill="#FDFDFD"/>
<path d="M76.0991 197.107C73.9763 198.218 71.4391 196.046 69.1843 195.44C62.8886 193.748 56.5038 190.779 51.0385 187.234C50.024 186.575 48.5069 185.802 47.8299 184.762C46.4821 182.693 48.2035 178.283 48.327 176.068C48.3788 175.138 49.4775 166.394 49.8409 166.143C50.6879 165.558 52.6665 166.693 53.5356 166.906C56.577 167.65 59.408 168.298 62.3035 169.56C66.9244 171.574 76.3426 175.606 77.6584 180.786C78.3102 183.353 77.5567 186.079 77.5567 188.667C77.5567 190.933 77.8457 196.193 76.0991 197.107Z" fill="#FDFDFD"/>
<path d="M114.626 45.72C114.765 45.721 114.929 45.649 115.058 45.672C115.903 45.822 121.153 49.977 124.482 52.728C124.685 52.606 124.879 52.47 125.078 52.343C125.905 53.002 126.779 53.656 127.875 54.358C128.463 54.735 129.843 55.569 130.534 55.994C130.89 56.266 131.046 56.37 131.342 56.597C131.578 56.794 131.791 56.995 132.371 57.687C132.41 57.735 132.414 57.746 132.454 57.794C133.275 58.773 133.685 59.252 134.303 59.798C134.672 60.124 135.05 60.515 135.68 61.18C135.759 61.263 136.165 61.671 136.28 61.792C137.441 63.016 138.355 63.805 139.276 64.484C139.453 64.837 139.585 65.06 139.763 65.339C140.052 65.791 140.385 66.187 140.803 66.557C142.308 67.887 144.61 67.762 145.941 66.257C146.24 65.918 146.429 65.523 146.58 65.124C147.25 64.679 147.833 64.122 148.215 63.358C148.592 62.602 149.008 60.794 149.01 60.787C149.095 60.385 149.122 60.218 149.164 60.059C149.191 59.958 149.216 59.924 149.191 59.973C149.201 59.954 150.046 58.28 150.368 57.631C150.956 56.447 151.47 55.366 151.957 54.276C152.404 53.279 152.79 52.319 153.138 51.409C154.148 48.767 154.683 46.652 154.669 44.815C155.114 44.818 155.558 44.79 156.001 44.792C157.204 41.767 160.091 34.126 161.712 33.111C162.099 32.869 173.773 38.483 175.274 39.057C175.761 39.244 178.982 40.031 179.122 40.449C179.333 41.077 178.568 42.585 177.89 43.857L208.499 34.875C208.492 34.848 208.479 34.805 208.471 34.778C208.593 34.775 208.715 34.777 208.838 34.775L209.587 34.555L209.651 34.773C210.316 34.77 210.981 34.764 211.645 34.766C241.294 39.474 269.372 54.463 289.302 76.313C287.562 80.369 285.383 85.42 285.383 85.42C278.737 101.086 275.696 107.999 271.594 116.461C267.866 124.152 264.285 130.159 255.936 143.193C255.825 143.366 255.835 143.372 255.724 143.544C254.678 145.176 254.271 145.955 253.342 147.42C248.218 143.264 243.91 139.929 239.556 136.682L267.368 231.458L242.296 238.816L242.324 238.912L130.067 271.854L102.255 177.078C100.347 182.162 98.5231 187.296 96.4581 193.563C94.8841 192.831 94.1201 192.397 92.3591 191.588C92.1731 191.503 92.1781 191.493 91.9911 191.407C77.923 184.952 71.6639 181.832 64.3712 177.376C56.3471 172.472 50.0521 168.298 35.9948 158.708C35.9948 158.708 31.4332 155.635 27.7764 153.163C32.7402 124.007 48.2647 96.223 70.6689 76.24C71.2273 75.88 71.7893 75.525 72.3503 75.169L72.2865 74.951L73.036 74.731C73.14 74.666 73.2423 74.599 73.3461 74.535C73.3544 74.562 73.3661 74.605 73.3745 74.632L97.3591 67.594L97.3301 67.497L106.687 64.751C104.615 64.272 102.543 63.758 100.517 63.411C99.4711 63.231 95.2281 63.407 95.0901 62.01C95.0661 61.767 96.5041 60.555 97.9541 59.331C98.9041 59.363 99.8631 59.032 100.598 58.319C102.067 56.892 103.236 55.598 105.413 53.072C105.556 52.906 105.562 52.889 105.705 52.724C105.885 52.514 105.919 52.515 106.086 52.323C107.224 52.549 108.445 52.295 109.34 51.421C109.638 51.129 111.251 49.635 111.726 49.171C112.985 47.942 113.852 46.857 114.626 45.72Z" fill="#FF5900"/>
<path d="M151.118 80.215C150.315 77.479 147.446 75.911 144.709 76.714C141.973 77.517 140.406 80.386 141.209 83.123C142.012 85.859 144.881 87.427 147.617 86.624C150.354 85.821 151.921 82.951 151.118 80.215Z" fill="#FDFDFD"/>
<path d="M155.206 94.146C154.403 91.409 151.534 89.842 148.797 90.645C146.061 91.448 144.493 94.317 145.296 97.053C146.099 99.79 148.969 101.357 151.705 100.554C154.442 99.751 156.009 96.882 155.206 94.146Z" fill="#FDFDFD"/>
<path d="M107.247 65.627L94.958 62.81L115.012 44.928L152.626 74.792L160.399 101.51" stroke="#FDFDFD" stroke-width="3" stroke-miterlimit="10" stroke-linejoin="round"/>
<path d="M176.03 46.992L179.423 39.776L160.659 32.057L144.856 68.132" stroke="#FDFDFD" stroke-width="3" stroke-miterlimit="10" stroke-linejoin="round"/>
<path d="M75.3437 76.781C75.0873 76.759 74.8378 76.853 74.6249 77.031C74.1991 77.388 74.1435 78.012 74.4999 78.438C81.4753 86.771 85.7953 97.078 89.3437 107.25C92.3849 115.968 94.7989 124.923 96.7809 133.938C98.6459 142.418 100.144 150.992 101.094 159.625C101.158 160.208 101.667 160.627 102.25 160.562C102.833 160.498 103.252 159.958 103.188 159.375C102.08 149.366 100.263 139.452 97.9379 129.656C95.9369 121.23 93.5859 112.86 90.6249 104.719C87.0749 94.957 82.749 85.181 76.0311 77.156C75.8529 76.943 75.6 76.804 75.3437 76.781Z" fill="black"/>
<path d="M210.875 37.25C210.325 37.324 209.926 37.856 210 38.406C211.034 46.141 212.5 53.776 214.406 61.344C218.146 76.196 223.262 90.668 227.906 105.25C228.084 105.809 228.691 106.116 229.25 105.938C229.809 105.759 230.116 105.152 229.938 104.594C225.009 89.157 219.485 73.864 215.688 58.094C214.101 51.506 212.9 44.84 212 38.125C211.926 37.575 211.425 37.176 210.875 37.25Z" fill="black"/>
</g>
</g>
<defs>
<clipPath id="clip0_341_2655">
<rect width="372" height="372" fill="white"/>
</clipPath>
</defs>
</svg>
