<svg width="372" height="372" viewBox="0 0 372 372" fill="none" xmlns="http://www.w3.org/2000/svg">
<g clip-path="url(#clip0_341_3279)">
<mask id="mask0_341_3279" style="mask-type:luminance" maskUnits="userSpaceOnUse" x="-19" y="-141" width="391" height="844">
<path d="M371.5 -141H-18.5V703H371.5V-141Z" fill="white"/>
</mask>
<g mask="url(#mask0_341_3279)">
<path d="M-31.101 60.409C-31.101 60.409 -14.7072 193.618 122.004 209.741C258.715 225.865 312.212 28.138 402.671 16.331" stroke="#ED835E" stroke-width="5" stroke-miterlimit="10" stroke-linejoin="round" stroke-dasharray="20 20"/>
<path d="M-37.0938 238.625L-47.4688 250.625C-47.1216 250.79 -46.774 250.987 -46.4688 251.25L-42.125 255.031C-41.8198 255.295 -41.5583 255.587 -41.3438 255.906L-30.9688 243.906L-37.0938 238.625ZM-48.5 251.438C-49.0987 251.307 -49.7233 251.309 -50.3125 251.469C-51.0196 251.661 -51.6729 252.06 -52.1875 252.656L-55.4688 256.438C-56.8409 258.028 -56.6531 260.44 -55.0625 261.812L-51.2812 265.062C-49.6907 266.435 -47.3097 266.247 -45.9375 264.656L-42.6562 260.875C-41.2841 259.284 -41.4719 256.903 -43.0625 255.531L-46.8438 252.25C-47.3408 251.821 -47.9013 251.568 -48.5 251.438ZM16.875 251.656C16.6742 252.052 16.4678 252.442 16.3125 252.844C16.5429 252.64 16.7627 252.42 17 252.219C17.0061 252.214 17.0252 252.224 17.0312 252.219C17.0278 252.209 17.0348 252.197 17.0312 252.188C16.966 252.016 16.955 251.819 16.875 251.656ZM-23.9375 255.281C-25.0047 254.933 -27.1832 259.74 -27.5625 260.531C-29.9224 265.456 -31.5719 271.091 -34.5625 275.656C-34.0115 276.379 -33.6955 276.777 -33.3125 277.156C-32.6217 277.84 -31.8467 278.504 -31.0312 279.188C-30.9597 279.014 -30.8371 278.665 -30.7812 278.562C-29.2389 275.713 -26.4772 270.617 -23.0312 269.781C-20.5442 272.178 -18.0318 274.529 -16.25 277.531C-14.3901 280.666 -13.2758 284.543 -12.2188 288.031C-11.8082 289.386 -11.6128 290.986 -10.8125 292.188C-10.3797 292.837 -9.77645 293.426 -9.09375 294C-5.012 296.179 -0.974096 297.962 3.1562 299.344C3.8444 299.574 4.3991 299.797 5.5938 300.281C5.7071 300.327 5.75 300.35 5.8125 300.375C6.9029 300.816 7.7003 301.1 8.4062 301.312C8.4281 301.144 8.486 300.817 8.5 300.75C9.229 297.275 7.7801 292.582 6.0312 289.562C-0.246496 278.726 -8.99304 270.718 -18.2812 262.5C-19.852 261.11 -21.4264 259.563 -22.5938 257.812C-22.816 257.479 -23.6502 255.375 -23.9375 255.281ZM-56.7812 261.406L-67.9688 274.406L-61.875 279.688L-50.6562 266.688C-51.0034 266.522 -51.3198 266.326 -51.625 266.062L-56 262.281C-56.3052 262.018 -56.5667 261.725 -56.7812 261.406ZM-48.0312 285.312L-51.5938 286.156L-52.9062 289.375L-48.75 292.094L-46.2812 290.031L-48.0312 285.312ZM-42.3125 286.312C-43.6308 286.434 -44.9342 286.755 -46.1875 287.312L-45.5312 288.812C-41.1817 286.876 -36.0365 288.041 -32.9375 291.75C-29.1319 296.304 -29.7272 303.069 -34.2812 306.875C-38.8353 310.681 -45.6007 310.085 -49.4062 305.531C-52.5368 301.785 -52.7252 296.443 -49.9688 292.5L-51.3125 291.562C-54.4897 296.108 -54.2636 302.277 -50.6562 306.594C-46.2712 311.841 -38.4663 312.542 -33.2188 308.156C-27.9712 303.771 -27.2712 295.935 -31.6562 290.688C-34.3344 287.483 -38.3577 285.947 -42.3125 286.312ZM30.7812 290.156C29.609 290.045 28.4337 290.162 27.3125 290.625C26.923 290.786 26.5391 290.986 26.1875 291.219C25.8186 291.463 25.4767 291.757 25.1875 292.094C24.1157 293.338 24.1925 294.899 24.5625 296.406C24.7711 297.256 25.071 298.066 25.3125 298.906C25.4834 299.501 25.6148 300.129 25.625 300.75C25.6317 301.157 25.5911 301.574 25.5 301.969C25.1026 303.693 23.989 305.127 22.9688 306.531C22.4911 307.189 22.0292 307.868 21.625 308.562C21.2139 308.282 20.7844 307.993 20.4062 307.688C19.4086 307.868 18.8075 308.416 18 309.656C17.9083 309.797 17.7328 310.052 17.5312 310.375C17.4328 310.615 17.327 311.002 17.25 311.156C15.4546 314.751 10.4278 324.332 10.75 329.688C10.8461 329.729 10.9334 329.803 11.0312 329.844C12.7374 330.563 14.1849 331.034 17.375 332C22.0183 333.406 26.5664 334.166 32.4062 334.625C41.8723 335.368 46.81 334.587 52.9375 330.844C53.5034 325.727 49.7835 316.039 48.5625 312.281C48.2955 311.733 47.9552 311.016 47.8125 310.75C47.4047 309.99 47.0457 309.536 46.5625 309.281C46.2362 309.488 45.917 309.656 45.5938 309.844C45.4899 308.987 45.3324 308.149 45.125 307.312C44.6575 305.428 43.9947 303.591 43.2188 301.812C42.4462 300.042 41.5502 298.31 40.5 296.688C39.3798 294.956 38.0882 293.282 36.3125 292.188C34.6887 291.186 32.7349 290.342 30.7812 290.156ZM30.3438 291.344C32.3525 291.448 34.3761 292.387 36 293.438C36.6927 293.886 37.3113 294.502 37.8438 295.125C38.4414 295.825 38.9701 296.571 39.4688 297.344C40.4802 298.912 41.3488 300.603 42.0938 302.312C42.8739 304.103 43.5185 305.941 43.9688 307.844C44.1751 308.716 44.3308 309.607 44.4062 310.5C42.8279 311.315 41.2634 311.91 39.6562 312.25C34.2003 313.404 27.509 312.158 22.5938 309.219C23.1078 308.329 23.742 307.495 24.3438 306.656C25.4726 305.082 26.5484 303.406 26.7812 301.438C27.0159 299.455 26.0102 297.615 25.625 295.719C25.4247 294.733 25.3986 293.677 26.0938 292.875C26.312 292.623 26.5662 292.401 26.8438 292.219C27.9239 291.508 29.1385 291.281 30.3438 291.344ZM-18.2812 304.531C-19.7084 303.984 -21.2969 304.729 -21.8438 306.156L-32.6562 334.312C-33.2031 335.74 -32.4897 337.328 -31.0625 337.875L-17.4688 343.094C-16.0416 343.641 -14.4531 342.927 -13.9062 341.5L-3.0938 313.312C-2.5469 311.885 -3.2603 310.297 -4.6875 309.75L-18.2812 304.531ZM-18.8125 305.312C-17.9907 305.627 -17.5601 306.553 -17.875 307.375C-18.1899 308.197 -19.1157 308.596 -19.9375 308.281C-20.7593 307.966 -21.1899 307.041 -20.875 306.219C-20.5601 305.397 -19.6343 304.998 -18.8125 305.312ZM-15.9375 308.969C-15.1157 309.284 -14.7163 310.21 -15.0312 311.031C-15.3461 311.853 -16.2407 312.252 -17.0625 311.938C-17.8843 311.623 -18.3149 310.697 -18 309.875C-17.6851 309.053 -16.7593 308.654 -15.9375 308.969ZM-20.6562 310.156C-19.8345 310.471 -19.4351 311.397 -19.75 312.219C-20.0649 313.041 -20.9907 313.44 -21.8125 313.125C-22.6343 312.81 -23.0337 311.916 -22.7188 311.094C-22.4039 310.272 -21.478 309.842 -20.6562 310.156ZM82.25 342.531C78.479 342.587 74.5503 343.646 71.375 345.625C68.2465 347.576 65.7358 351.554 64.6875 355.031C64.3904 356.017 64.1444 357.264 63.75 358.438C63.7739 358.439 63.7885 358.436 63.8125 358.438C63.4881 359.145 63.1771 359.942 63.3438 360.438C63.4195 360.663 64.0975 360.764 64.2812 360.844C65.077 361.188 65.8595 361.852 66.5625 362.375C66.5925 362.397 66.596 362.415 66.625 362.438C64.0645 361.634 60.1697 361.634 57.4688 362.344C56.187 362.764 54.9606 363.235 53.7188 363.719C51.0154 364.867 46.9988 367.069 49.8438 368.406C51.0177 368.958 53.1599 367.895 54.375 367.812C57.4098 367.605 61.2138 368.769 63.875 370.156C66.8877 371.727 69.8112 378.053 72.5625 378.281C74.394 378.433 75.1224 376.736 76.3438 375.625C77.8198 374.282 79.1927 373.315 80.75 372.656C80.9195 372.483 81.1337 372.342 81.375 372.25C81.4027 372.239 81.3785 372.229 81.4062 372.219C82.719 371.72 88.087 369.908 89.281 369.469C95.266 367.268 99.096 364.924 101.281 361.719C101.174 360.299 100.586 358.841 100.375 357.469C99.839 353.968 98.565 350.385 96.375 347.531C95.749 346.978 94.934 346.181 94.344 345.75C93.071 344.821 91.547 344.288 88.875 343.719C88.604 343.661 86.748 343.286 86.312 343.188C84.884 342.865 83.57 342.685 82.25 342.531ZM23.6562 347.469L13.2812 359.5C13.6284 359.665 13.976 359.862 14.2812 360.125L18.6562 363.875C18.9615 364.138 19.1917 364.462 19.4062 364.781L29.7812 352.781L23.6562 347.469ZM12.25 360.281C11.6513 360.15 11.0267 360.184 10.4375 360.344C9.7304 360.536 9.0771 360.935 8.5625 361.531L5.3125 365.312C3.9403 366.903 4.1281 369.284 5.7188 370.656L9.4688 373.938C11.0593 375.31 13.4716 375.122 14.8438 373.531L18.0938 369.75C19.4659 368.159 19.3094 365.747 17.7188 364.375L13.9375 361.125C13.4404 360.696 12.8487 360.412 12.25 360.281ZM36.8438 364.125C35.7766 363.776 33.5668 368.615 33.1875 369.406C30.8276 374.331 29.1782 379.966 26.1875 384.531C26.7385 385.254 27.0545 385.652 27.4375 386.031C28.1283 386.715 28.9033 387.379 29.7188 388.062C29.7903 387.889 29.9128 387.541 29.9688 387.438C31.5111 384.588 34.2728 379.492 37.7188 378.656C40.2058 381.053 42.7495 383.404 44.5312 386.406C46.3912 389.541 47.5054 393.387 48.5625 396.875C48.9731 398.23 49.1372 399.861 49.9375 401.062C50.3703 401.712 51.0048 402.301 51.6875 402.875C55.7692 405.054 59.8071 406.837 63.9375 408.219C64.6256 408.449 65.1491 408.641 66.3438 409.125C66.4571 409.171 66.5312 409.193 66.5938 409.219C67.6842 409.66 68.4816 409.975 69.1875 410.188C69.2094 410.019 69.2359 409.692 69.25 409.625C69.979 406.15 68.5614 401.426 66.8125 398.406C60.5348 387.569 51.7882 379.594 42.5 371.375C40.9292 369.985 39.3548 368.438 38.1875 366.688C37.9652 366.354 37.1311 364.219 36.8438 364.125ZM4 370.281L-7.2188 383.281L-1.0938 388.562L10.125 375.562C9.7779 375.397 9.4302 375.201 9.125 374.938L4.75 371.156C4.4448 370.893 4.2146 370.6 4 370.281ZM118.5 375.156C117.454 375.351 116.774 376.361 116.969 377.406C117.163 378.452 118.173 379.164 119.219 378.969C120.265 378.774 120.945 377.764 120.75 376.719C120.555 375.673 119.546 374.962 118.5 375.156ZM116.438 378.656C115.392 378.851 114.711 379.861 114.906 380.906C115.101 381.952 116.11 382.664 117.156 382.469C118.202 382.274 118.882 381.264 118.688 380.219C118.493 379.173 117.483 378.462 116.438 378.656ZM89.25 380.594C88.204 380.789 87.524 381.798 87.719 382.844C87.913 383.89 88.923 384.601 89.969 384.406C91.015 384.212 91.695 383.202 91.5 382.156C91.305 381.11 90.296 380.399 89.25 380.594ZM113.531 382.094C112.485 382.288 111.805 383.298 112 384.344C112.195 385.39 113.204 386.07 114.25 385.875C115.296 385.68 115.976 384.671 115.781 383.625C115.587 382.579 114.577 381.899 113.531 382.094ZM92.406 383.156C91.36 383.351 90.68 384.329 90.875 385.375C91.07 386.421 92.079 387.132 93.125 386.938C94.171 386.743 94.851 385.734 94.656 384.688C94.462 383.642 93.452 382.962 92.406 383.156ZM109.594 384.469C108.548 384.663 107.836 385.673 108.031 386.719C108.226 387.765 109.235 388.445 110.281 388.25C111.327 388.055 112.007 387.046 111.812 386C111.618 384.954 110.64 384.274 109.594 384.469ZM96.375 385.281C95.329 385.476 94.649 386.485 94.844 387.531C95.038 388.577 96.048 389.288 97.094 389.094C98.14 388.899 98.82 387.89 98.625 386.844C98.43 385.798 97.421 385.086 96.375 385.281ZM105.188 385.438C104.142 385.632 103.462 386.641 103.656 387.688C103.851 388.733 104.829 389.413 105.875 389.219C106.921 389.024 107.632 388.015 107.438 386.969C107.243 385.923 106.233 385.243 105.188 385.438ZM100.906 386.062C99.86 386.257 99.18 387.266 99.375 388.312C99.57 389.358 100.579 390.07 101.625 389.875C102.671 389.68 103.351 388.671 103.156 387.625C102.961 386.579 101.952 385.868 100.906 386.062ZM12.7188 394.188L9.1562 395.031L7.875 398.25L12.0312 400.938L14.5 398.875L12.7188 394.188ZM18.4375 395.188C17.1192 395.31 15.8158 395.63 14.5625 396.188L15.25 397.688C19.5995 395.751 24.7448 396.916 27.8438 400.625C31.6493 405.179 31.0541 411.944 26.5 415.75C21.9459 419.556 15.1493 418.96 11.3438 414.406C8.2132 410.66 8.0248 405.287 10.7812 401.344L9.4375 400.406C6.2603 404.951 6.4864 411.121 10.0938 415.438C14.4788 420.685 22.2837 421.385 27.5312 417C32.7788 412.615 33.4788 404.81 29.0938 399.562C26.4156 396.358 22.3923 394.821 18.4375 395.188ZM91.562 399.031C90.39 398.92 89.215 399.037 88.094 399.5C87.704 399.661 87.32 399.861 86.969 400.094C86.6 400.338 86.258 400.601 85.969 400.938C84.897 402.182 84.974 403.743 85.344 405.25C85.552 406.1 85.821 406.941 86.062 407.781C86.233 408.376 86.396 409.003 86.406 409.625C86.413 410.032 86.341 410.418 86.25 410.812C85.853 412.537 84.739 414.002 83.719 415.406C83.241 416.064 82.81 416.743 82.406 417.438C81.995 417.157 81.566 416.868 81.1875 416.562C80.1898 416.743 79.5575 417.291 78.75 418.531C78.6583 418.672 78.5142 418.927 78.3125 419.25C78.214 419.49 78.0771 419.846 78 420C76.2046 423.595 71.2091 433.207 71.5312 438.562C71.6273 438.604 71.7147 438.646 71.8125 438.688C73.5187 439.406 74.9661 439.909 78.1562 440.875C82.8 442.281 87.348 443.041 93.188 443.5C102.654 444.243 107.591 443.462 113.719 439.719C114.285 434.602 110.565 424.883 109.344 421.125C109.077 420.577 108.737 419.891 108.594 419.625C108.186 418.865 107.796 418.411 107.312 418.156C106.986 418.363 106.667 418.531 106.344 418.719C106.24 417.862 106.082 417.024 105.875 416.188C105.408 414.303 104.745 412.466 103.969 410.688C103.196 408.917 102.3 407.185 101.25 405.562C100.13 403.831 98.838 402.157 97.062 401.062C95.439 400.061 93.516 399.217 91.562 399.031ZM91.094 400.188C93.102 400.292 95.158 401.262 96.781 402.312C97.474 402.761 98.061 403.376 98.594 404C99.191 404.7 99.72 405.446 100.219 406.219C101.23 407.787 102.099 409.447 102.844 411.156C103.624 412.947 104.3 414.817 104.75 416.719C104.956 417.591 105.112 418.482 105.188 419.375C103.609 420.19 102.045 420.785 100.438 421.125C94.982 422.279 88.29 421.032 83.375 418.094C83.889 417.204 84.492 416.339 85.094 415.5C86.223 413.926 87.298 412.249 87.531 410.281C87.766 408.299 86.791 406.489 86.406 404.594C86.206 403.608 86.18 402.521 86.875 401.719C87.093 401.467 87.347 401.276 87.625 401.094C88.705 400.383 89.888 400.125 91.094 400.188ZM42.5 413.406C41.0728 412.859 39.4531 413.573 38.9062 415L28.125 443.188C27.5781 444.615 28.2916 446.203 29.7188 446.75L43.2812 451.969C44.7084 452.516 46.3282 451.802 46.875 450.375L57.6562 422.188C58.2031 420.76 57.4897 419.172 56.0625 418.625L42.5 413.406ZM41.9688 414.188C42.7905 414.502 43.1898 415.397 42.875 416.219C42.5601 417.041 41.6344 417.471 40.8125 417.156C39.9907 416.841 39.5914 415.915 39.9062 415.094C40.2211 414.272 41.1469 413.873 41.9688 414.188ZM-26.7188 414.969C-30.4898 415.024 -34.4184 416.083 -37.5938 418.062C-40.7223 420.013 -43.2017 423.992 -44.25 427.469C-44.5471 428.454 -44.8243 429.701 -45.2188 430.875C-45.1948 430.877 -45.149 430.905 -45.125 430.906C-45.4494 431.614 -45.7916 432.379 -45.625 432.875C-45.5493 433.1 -44.8713 433.202 -44.6875 433.281C-43.8918 433.626 -43.1092 434.289 -42.4062 434.812C-42.3763 434.835 -42.3415 434.852 -42.3125 434.875C-44.873 434.072 -48.7679 434.071 -51.4688 434.781C-52.7505 435.202 -54.0081 435.673 -55.25 436.156C-57.9534 437.305 -61.97 439.506 -59.125 440.844C-57.9511 441.396 -55.8089 440.364 -54.5938 440.281C-51.5589 440.074 -47.7549 441.206 -45.0938 442.594C-42.0811 444.164 -39.1575 450.49 -36.4062 450.719C-34.5748 450.871 -33.8151 449.174 -32.5938 448.062C-31.1177 446.719 -29.776 445.753 -28.2188 445.094C-28.0492 444.921 -27.8351 444.78 -27.5938 444.688C-27.5661 444.677 -27.559 444.667 -27.5312 444.656C-26.2189 444.158 -20.8817 442.345 -19.6875 441.906C-13.7024 439.706 -9.8728 437.361 -7.6875 434.156C-7.7952 432.736 -8.3831 431.309 -8.59375 429.938C-9.13017 426.437 -10.3724 422.822 -12.5625 419.969C-13.188 419.415 -14.0037 418.618 -14.5938 418.188C-15.8661 417.259 -17.422 416.726 -20.0938 416.156C-20.3652 416.098 -22.1899 415.723 -22.625 415.625C-24.0539 415.303 -25.3987 415.123 -26.7188 414.969ZM44.8438 417.844C45.6655 418.159 46.0649 419.085 45.75 419.906C45.4351 420.728 44.5094 421.127 43.6875 420.812C42.8657 420.498 42.4664 419.572 42.7812 418.75C43.0961 417.928 44.0219 417.529 44.8438 417.844ZM40.0938 419.031C40.9155 419.346 41.3461 420.272 41.0312 421.094C40.7164 421.916 39.7906 422.315 38.9688 422C38.147 421.685 37.7477 420.759 38.0625 419.938C38.3774 419.116 39.2719 418.716 40.0938 419.031ZM-85.3125 419.938L-95.6562 431.938C-95.3091 432.103 -94.9927 432.299 -94.6875 432.562L-90.3125 436.344C-90.0073 436.607 -89.7458 436.9 -89.5312 437.219L-79.1875 425.219L-85.3125 419.938ZM-96.6875 432.75C-97.2862 432.619 -97.9108 432.622 -98.5 432.781C-99.2071 432.973 -99.8917 433.372 -100.406 433.969L-103.656 437.75C-105.028 439.341 -104.84 441.753 -103.25 443.125L-99.4688 446.375C-97.8782 447.747 -95.4972 447.559 -94.125 445.969L-90.8438 442.188C-89.4716 440.597 -89.6594 438.216 -91.25 436.844L-95.0312 433.562C-95.5283 433.134 -96.0888 432.881 -96.6875 432.75ZM-72.125 436.594C-73.1922 436.245 -75.3707 441.052 -75.75 441.844C-78.1099 446.769 -79.7594 452.404 -82.75 456.969C-82.199 457.692 -81.883 458.09 -81.5 458.469C-80.8092 459.153 -80.0342 459.816 -79.2188 460.5C-79.1472 460.326 -79.0247 459.978 -78.9688 459.875C-77.4264 457.025 -74.6647 451.929 -71.2188 451.094C-68.7317 453.491 -66.2193 455.841 -64.4375 458.844C-62.5776 461.979 -61.4633 465.855 -60.4062 469.344C-59.9957 470.699 -59.8003 472.298 -59 473.5C-58.5672 474.15 -57.964 474.738 -57.2812 475.312C-53.1995 477.492 -49.1616 479.274 -45.0312 480.656C-44.3431 480.886 -43.8196 481.109 -42.625 481.594C-42.5117 481.64 -42.4375 481.662 -42.375 481.688C-41.2846 482.129 -40.4872 482.412 -39.7812 482.625C-39.7594 482.457 -39.7328 482.129 -39.7188 482.062C-38.9898 478.587 -40.4074 473.894 -42.1562 470.875C-48.434 460.038 -57.1805 452.062 -66.4688 443.844C-68.0395 442.454 -69.6139 440.875 -70.7812 439.125C-71.0035 438.792 -71.8377 436.688 -72.125 436.594ZM-104.969 442.719L-116.188 455.719L-110.062 461L-98.8438 448C-99.1909 447.835 -99.5073 447.639 -99.8125 447.375L-104.188 443.594C-104.493 443.33 -104.754 443.038 -104.969 442.719ZM9.5312 447.625C8.4854 447.82 7.8052 448.829 8 449.875C8.1947 450.921 9.2042 451.601 10.25 451.406C11.2958 451.212 11.976 450.202 11.7812 449.156C11.5865 448.11 10.5771 447.43 9.5312 447.625ZM7.5 451.125C6.4542 451.32 5.7428 452.329 5.9375 453.375C6.1322 454.421 7.1417 455.101 8.1875 454.906C9.2333 454.712 9.9447 453.702 9.75 452.656C9.5553 451.61 8.5458 450.93 7.5 451.125ZM-19.6875 453.062C-20.7333 453.257 -21.4447 454.266 -21.25 455.312C-21.0553 456.358 -20.0458 457.039 -19 456.844C-17.9542 456.649 -17.274 455.64 -17.4688 454.594C-17.6635 453.548 -18.6417 452.868 -19.6875 453.062ZM4.5938 454.562C3.5479 454.757 2.8365 455.736 3.0312 456.781C3.226 457.827 4.2354 458.538 5.2812 458.344C6.3271 458.149 7.0072 457.139 6.8125 456.094C6.6178 455.048 5.6396 454.368 4.5938 454.562ZM-16.5312 455.594C-17.5771 455.788 -18.2572 456.798 -18.0625 457.844C-17.8678 458.89 -16.8896 459.57 -15.8438 459.375C-14.7979 459.18 -14.0865 458.171 -14.2812 457.125C-14.476 456.079 -15.4854 455.399 -16.5312 455.594ZM0.625 456.906C-0.4208 457.101 -1.101 458.111 -0.906204 459.156C-0.711504 460.202 0.297896 460.882 1.3438 460.688C2.3896 460.493 3.0697 459.483 2.875 458.438C2.6803 457.392 1.6708 456.712 0.625 456.906ZM-12.5938 457.75C-13.6396 457.945 -14.3197 458.954 -14.125 460C-13.9303 461.046 -12.9208 461.726 -11.875 461.531C-10.8292 461.337 -10.149 460.327 -10.3438 459.281C-10.5385 458.235 -11.5479 457.555 -12.5938 457.75ZM-3.7812 457.875C-4.8271 458.07 -5.5072 459.079 -5.3125 460.125C-5.1178 461.171 -4.1084 461.882 -3.0625 461.688C-2.0167 461.493 -1.3365 460.483 -1.5312 459.438C-1.726 458.392 -2.7354 457.68 -3.7812 457.875ZM-8.0625 458.531C-9.10833 458.726 -9.78848 459.735 -9.59375 460.781C-9.39902 461.827 -8.3896 462.508 -7.3438 462.312C-6.2979 462.118 -5.6178 461.108 -5.8125 460.062C-6.0073 459.017 -7.0167 458.337 -8.0625 458.531ZM-96.2188 466.625L-99.8125 467.469L-101.094 470.688L-96.9375 473.406L-94.4688 471.344L-96.2188 466.625ZM-90.5 467.625C-91.8183 467.747 -93.1529 468.067 -94.4062 468.625L-93.7188 470.125C-89.3692 468.189 -84.224 469.354 -81.125 473.062C-77.3194 477.617 -77.9147 484.382 -82.4688 488.188C-87.0228 491.993 -93.7882 491.398 -97.5938 486.844C-100.724 483.097 -100.944 477.756 -98.1875 473.812L-99.5 472.875C-102.677 477.42 -102.482 483.589 -98.875 487.906C-94.4899 493.154 -86.6538 493.854 -81.4062 489.469C-76.1587 485.084 -75.4899 477.279 -79.875 472.031C-82.5532 468.826 -86.5452 467.259 -90.5 467.625ZM-66.4688 485.844C-67.8959 485.297 -69.4844 486.041 -70.0312 487.469L-80.8438 515.625C-81.3906 517.052 -80.6772 518.672 -79.25 519.219L-65.6562 524.406C-64.2291 524.953 -62.6406 524.24 -62.0938 522.812L-51.3125 494.625C-50.7656 493.198 -51.4478 491.609 -52.875 491.062L-66.4688 485.844ZM-67 486.625C-66.1782 486.94 -65.7789 487.866 -66.0938 488.688C-66.4086 489.509 -67.3344 489.909 -68.1562 489.594C-68.978 489.279 -69.3774 488.353 -69.0625 487.531C-68.7476 486.709 -67.8218 486.31 -67 486.625ZM-64.125 490.281C-63.3032 490.596 -62.9038 491.522 -63.2188 492.344C-63.5336 493.166 -64.4281 493.565 -65.25 493.25C-66.0718 492.935 -66.5024 492.009 -66.1875 491.188C-65.8726 490.366 -64.9468 489.966 -64.125 490.281ZM-68.8438 491.469C-68.022 491.784 -67.6227 492.709 -67.9375 493.531C-68.2524 494.353 -69.1781 494.752 -70 494.438C-70.8218 494.123 -71.2211 493.228 -70.9062 492.406C-70.5914 491.584 -69.6656 491.154 -68.8438 491.469Z" fill="#1A1A1A"/>
<path d="M415.438 77.219C411.666 77.274 407.707 78.333 404.531 80.312C401.403 82.263 398.923 86.242 397.875 89.719C397.578 90.704 397.332 91.951 396.938 93.125C396.961 93.127 396.976 93.123 397 93.125C396.676 93.832 396.333 94.629 396.5 95.125C396.576 95.35 397.254 95.452 397.438 95.531C398.233 95.876 399.047 96.508 399.75 97.031C399.78 97.054 399.783 97.102 399.812 97.125C397.252 96.322 393.357 96.321 390.656 97.031C389.375 97.452 388.117 97.923 386.875 98.406C384.172 99.555 380.155 101.756 383 103.094C384.174 103.646 386.348 102.583 387.562 102.5C390.597 102.293 394.37 103.456 397.031 104.844C400.044 106.414 402.968 112.74 405.719 112.969C407.55 113.121 408.31 111.424 409.531 110.312C411.007 108.969 412.38 108.002 413.938 107.344C414.107 107.171 414.29 106.998 414.531 106.906C414.559 106.896 414.566 106.886 414.594 106.875C415.906 106.376 421.244 104.596 422.438 104.156C428.423 101.956 432.283 99.611 434.469 96.406C434.361 94.986 433.773 93.528 433.562 92.156C433.026 88.656 431.753 85.073 429.562 82.219C428.937 81.665 428.122 80.868 427.531 80.438C426.259 79.509 424.734 78.976 422.062 78.406C421.791 78.348 419.935 77.973 419.5 77.875C418.071 77.553 416.758 77.373 415.438 77.219ZM356.844 82.156L346.469 94.188C346.816 94.353 347.164 94.549 347.469 94.812L351.844 98.562C352.149 98.826 352.379 99.15 352.594 99.469L362.969 87.438L356.844 82.156ZM345.438 94.969C344.839 94.838 344.214 94.871 343.625 95.031C342.918 95.223 342.265 95.622 341.75 96.219L338.5 99.969C337.128 101.559 337.284 103.972 338.875 105.344L342.656 108.594C344.247 109.966 346.659 109.809 348.031 108.219L351.281 104.438C352.653 102.847 352.465 100.435 350.875 99.062L347.094 95.812C346.597 95.384 346.036 95.1 345.438 94.969ZM370 98.812C368.933 98.464 366.755 103.271 366.375 104.062C364.015 108.987 362.366 114.653 359.375 119.219C359.926 119.942 360.242 120.308 360.625 120.688C361.316 121.372 362.091 122.035 362.906 122.719C362.978 122.545 363.101 122.228 363.156 122.125C364.699 119.275 367.46 114.179 370.906 113.344C373.393 115.741 375.937 118.091 377.719 121.094C379.579 124.229 380.661 128.074 381.719 131.562C382.129 132.917 382.325 134.517 383.125 135.719C383.558 136.369 384.192 136.988 384.875 137.562C388.957 139.742 392.964 141.524 397.094 142.906C397.782 143.136 398.337 143.328 399.531 143.812C399.645 143.858 399.688 143.881 399.75 143.906C400.84 144.348 401.638 144.631 402.344 144.844C402.366 144.676 402.423 144.348 402.438 144.281C403.166 140.806 401.718 136.113 399.969 133.094C393.691 122.257 384.945 114.281 375.656 106.062C374.085 104.673 372.543 103.126 371.375 101.375C371.153 101.042 370.287 98.906 370 98.812ZM337.188 104.969L325.969 117.969L332.094 123.25L343.281 110.25C342.934 110.085 342.617 109.857 342.312 109.594L337.938 105.844C337.632 105.58 337.402 105.288 337.188 104.969ZM451.688 109.844C450.642 110.038 449.93 111.048 450.125 112.094C450.32 113.14 451.329 113.82 452.375 113.625C453.421 113.43 454.101 112.452 453.906 111.406C453.712 110.36 452.733 109.649 451.688 109.844ZM449.625 113.344C448.579 113.538 447.899 114.548 448.094 115.594C448.288 116.64 449.298 117.351 450.344 117.156C451.39 116.962 452.069 115.952 451.875 114.906C451.68 113.86 450.67 113.149 449.625 113.344ZM422.438 115.281C421.392 115.476 420.712 116.486 420.906 117.531C421.101 118.577 422.11 119.288 423.156 119.094C424.202 118.899 424.882 117.89 424.688 116.844C424.493 115.798 423.483 115.086 422.438 115.281ZM446.719 116.781C445.673 116.976 444.993 117.985 445.188 119.031C445.382 120.077 446.361 120.757 447.406 120.562C448.452 120.368 449.163 119.358 448.969 118.312C448.774 117.267 447.764 116.587 446.719 116.781ZM425.594 117.812C424.548 118.007 423.868 119.017 424.062 120.062C424.257 121.108 425.267 121.82 426.312 121.625C427.358 121.43 428.039 120.421 427.844 119.375C427.649 118.329 426.64 117.618 425.594 117.812ZM442.75 119.125C441.704 119.32 441.024 120.329 441.219 121.375C441.413 122.421 442.423 123.132 443.469 122.938C444.515 122.743 445.195 121.733 445 120.688C444.805 119.642 443.796 118.93 442.75 119.125ZM429.562 119.969C428.517 120.163 427.805 121.173 428 122.219C428.195 123.265 429.204 123.945 430.25 123.75C431.296 123.555 432.008 122.546 431.812 121.5C431.618 120.454 430.608 119.774 429.562 119.969ZM438.375 120.125C437.329 120.32 436.618 121.329 436.812 122.375C437.007 123.421 438.016 124.101 439.062 123.906C440.108 123.712 440.82 122.702 440.625 121.656C440.43 120.61 439.421 119.93 438.375 120.125ZM434.094 120.75C433.048 120.945 432.368 121.954 432.562 123C432.757 124.046 433.735 124.726 434.781 124.531C435.827 124.337 436.539 123.358 436.344 122.312C436.149 121.267 435.14 120.555 434.094 120.75ZM345.906 128.844L342.344 129.688L341.062 132.906L345.188 135.625L347.656 133.562L345.906 128.844ZM351.625 129.875C350.307 129.997 349.003 130.317 347.75 130.875L348.406 132.375C352.756 130.439 357.932 131.604 361.031 135.312C364.837 139.867 364.211 146.632 359.656 150.438C355.102 154.243 348.337 153.648 344.531 149.094C341.401 145.347 341.212 139.974 343.969 136.031L342.625 135.094C339.448 139.639 339.674 145.808 343.281 150.125C347.666 155.373 355.471 156.073 360.719 151.688C365.966 147.302 366.667 139.498 362.281 134.25C359.603 131.045 355.58 129.509 351.625 129.875ZM424.75 133.719C423.578 133.607 422.371 133.724 421.25 134.188C420.861 134.348 420.508 134.549 420.156 134.781C419.787 135.025 419.446 135.289 419.156 135.625C418.084 136.87 418.13 138.43 418.5 139.938C418.709 140.788 419.009 141.628 419.25 142.469C419.421 143.064 419.583 143.691 419.594 144.312C419.6 144.719 419.529 145.105 419.438 145.5C419.04 147.224 417.927 148.69 416.906 150.094C416.429 150.751 415.967 151.399 415.562 152.094C415.151 151.814 414.722 151.555 414.344 151.25C413.346 151.43 412.745 151.979 411.938 153.219C411.846 153.359 411.701 153.614 411.5 153.938C411.402 154.177 411.265 154.533 411.188 154.688C409.392 158.282 404.365 167.894 404.688 173.25C404.784 173.292 404.871 173.334 404.969 173.375C406.675 174.094 408.122 174.565 411.312 175.531C415.956 176.937 420.535 177.698 426.375 178.156C435.841 178.899 440.748 178.15 446.875 174.406C447.441 169.29 443.721 159.57 442.5 155.812C442.233 155.264 441.893 154.578 441.75 154.312C441.342 153.553 440.983 153.068 440.5 152.812C440.174 153.019 439.854 153.218 439.531 153.406C439.427 152.55 439.27 151.68 439.062 150.844C438.595 148.959 437.932 147.122 437.156 145.344C436.384 143.573 435.488 141.873 434.438 140.25C433.317 138.519 432.026 136.814 430.25 135.719C428.626 134.718 426.704 133.904 424.75 133.719ZM424.281 134.875C426.29 134.98 428.345 135.949 429.969 137C430.661 137.448 431.249 138.064 431.781 138.688C432.379 139.388 432.908 140.133 433.406 140.906C434.418 142.475 435.286 144.134 436.031 145.844C436.811 147.635 437.456 149.504 437.906 151.406C438.113 152.278 438.269 153.169 438.344 154.062C436.765 154.877 435.201 155.473 433.594 155.812C428.138 156.966 421.478 155.689 416.562 152.75C417.077 151.86 417.68 151.027 418.281 150.188C419.41 148.614 420.486 146.936 420.719 144.969C420.953 142.986 419.947 141.177 419.562 139.281C419.362 138.296 419.367 137.209 420.062 136.406C420.281 136.154 420.535 135.964 420.812 135.781C421.893 135.071 423.076 134.812 424.281 134.875ZM375.656 148.094C374.229 147.547 372.64 148.26 372.094 149.688L361.312 177.875C360.766 179.302 361.448 180.891 362.875 181.438L376.469 186.656C377.896 187.203 379.485 186.459 380.031 185.031L390.844 156.875C391.391 155.448 390.677 153.828 389.25 153.281L375.656 148.094ZM375.125 148.875C375.947 149.19 376.377 150.084 376.062 150.906C375.748 151.728 374.822 152.159 374 151.844C373.178 151.529 372.779 150.603 373.094 149.781C373.409 148.959 374.303 148.56 375.125 148.875ZM378 152.531C378.822 152.846 379.252 153.741 378.938 154.562C378.623 155.384 377.697 155.815 376.875 155.5C376.053 155.185 375.654 154.259 375.969 153.438C376.284 152.616 377.178 152.216 378 152.531ZM373.281 153.719C374.103 154.034 374.502 154.96 374.188 155.781C373.873 156.603 372.947 157.002 372.125 156.688C371.303 156.373 370.904 155.447 371.219 154.625C371.534 153.803 372.459 153.404 373.281 153.719ZM347.938 160.781C347.446 160.756 346.956 160.924 346.562 161.281C345.774 161.995 345.692 163.211 346.406 164C347.12 164.789 348.336 164.87 349.125 164.156C349.914 163.442 349.995 162.226 349.281 161.438C348.924 161.043 348.429 160.807 347.938 160.781ZM348.031 164.844C347.538 164.819 347.051 164.987 346.656 165.344C345.868 166.058 345.786 167.274 346.5 168.062C347.214 168.851 348.43 168.902 349.219 168.188C350.007 167.473 350.089 166.257 349.375 165.469C349.018 165.074 348.524 164.868 348.031 164.844ZM347.344 169.281C346.852 169.258 346.363 169.424 345.969 169.781C345.18 170.495 345.098 171.711 345.812 172.5C346.527 173.289 347.743 173.37 348.531 172.656C349.32 171.942 349.401 170.695 348.688 169.906C348.33 169.512 347.835 169.304 347.344 169.281ZM345.219 173.375C344.727 173.349 344.238 173.518 343.844 173.875C343.055 174.589 342.974 175.805 343.688 176.594C344.402 177.382 345.618 177.433 346.406 176.719C347.195 176.005 347.277 174.789 346.562 174C346.205 173.606 345.71 173.401 345.219 173.375ZM342 176.5C341.507 176.476 340.988 176.643 340.594 177C339.805 177.714 339.755 178.93 340.469 179.719C341.183 180.507 342.399 180.589 343.188 179.875C343.976 179.161 344.027 177.945 343.312 177.156C342.955 176.762 342.493 176.525 342 176.5ZM338.688 179.281C338.194 179.257 337.675 179.424 337.281 179.781C336.493 180.495 336.442 181.711 337.156 182.5C337.87 183.289 339.086 183.37 339.875 182.656C340.664 181.942 340.714 180.726 340 179.938C339.643 179.543 339.181 179.306 338.688 179.281ZM325.906 180.75C325.414 180.724 324.894 180.893 324.5 181.25C323.711 181.964 323.661 183.18 324.375 183.969C325.089 184.757 326.305 184.808 327.094 184.094C327.882 183.38 327.933 182.164 327.219 181.375C326.862 180.981 326.398 180.776 325.906 180.75ZM334.406 181C333.914 180.977 333.426 181.143 333.031 181.5C332.243 182.214 332.161 183.43 332.875 184.219C333.589 185.007 334.805 185.089 335.594 184.375C336.382 183.661 336.464 182.414 335.75 181.625C335.393 181.231 334.898 181.023 334.406 181ZM329.906 181.25C329.413 181.226 328.925 181.393 328.531 181.75C327.743 182.464 327.692 183.68 328.406 184.469C329.12 185.257 330.336 185.308 331.125 184.594C331.914 183.88 331.964 182.664 331.25 181.875C330.893 181.481 330.399 181.274 329.906 181.25ZM341.875 194.562C339.967 194.561 337.886 194.853 336.125 195.719C335.068 196.238 334.118 196.955 333.406 197.938C333.159 198.279 332.928 198.649 332.75 199.031C332.564 199.432 332.445 199.844 332.375 200.281C332.115 201.903 332.988 203.192 334.094 204.281C334.717 204.896 335.385 205.473 336.031 206.062C336.489 206.48 336.946 206.913 337.281 207.438C337.5 207.78 337.651 208.178 337.781 208.562C338.347 210.239 338.164 212.051 338.031 213.781C337.969 214.591 337.949 215.384 337.969 216.188C337.472 216.164 336.951 216.155 336.469 216.094C335.714 216.77 335.475 217.583 335.438 219.062C335.433 219.23 335.439 219.494 335.438 219.875C335.479 220.131 335.547 220.515 335.562 220.688C335.918 224.69 336.699 235.514 339.781 239.906C339.885 239.891 339.989 239.891 340.094 239.875C341.924 239.593 343.402 239.225 346.625 238.375C351.316 237.138 355.599 235.389 360.812 232.719C369.263 228.39 373.057 225.15 376.312 218.75C374.112 214.096 365.854 207.81 362.844 205.25C362.329 204.923 361.667 204.495 361.406 204.344C360.661 203.911 360.108 203.714 359.562 203.75C359.393 204.097 359.208 204.42 359.031 204.75C358.494 204.075 357.928 203.416 357.312 202.812C355.926 201.453 354.405 200.233 352.812 199.125C351.226 198.022 349.558 197.019 347.812 196.188C345.951 195.301 343.961 194.564 341.875 194.562ZM271.219 194.688C270.127 194.95 270.783 200.221 270.875 201.094C271.447 206.525 272.998 212.169 272.844 217.625C273.692 217.952 274.194 218.128 274.719 218.25C275.666 218.47 276.666 218.627 277.719 218.781C277.689 218.596 277.6 218.242 277.594 218.125C277.413 214.89 277.097 209.111 279.594 206.594C282.968 207.332 286.346 208.002 289.438 209.625C292.665 211.32 295.646 214.022 298.375 216.438C299.435 217.376 300.438 218.646 301.75 219.25C302.459 219.577 303.305 219.776 304.188 219.906C308.806 219.622 313.164 219.02 317.406 218.031C318.113 217.867 318.666 217.776 319.938 217.562C320.058 217.542 320.121 217.511 320.188 217.5C321.348 217.304 322.193 217.126 322.906 216.938C322.837 216.783 322.71 216.502 322.688 216.438C321.487 213.096 317.791 209.842 314.719 208.188C303.692 202.25 292.062 200.036 279.844 197.906C277.778 197.546 275.63 197.035 273.719 196.156C273.355 195.989 271.513 194.617 271.219 194.688ZM342.281 195.781C343.106 195.8 343.938 196.029 344.719 196.281C345.595 196.564 346.452 196.915 347.281 197.312C348.965 198.118 350.563 199.09 352.094 200.156C353.697 201.272 355.244 202.491 356.625 203.875C357.258 204.509 357.843 205.185 358.375 205.906C357.458 207.427 356.44 208.775 355.25 209.906C351.208 213.749 344.851 216.176 339.125 216.25C339.096 215.223 339.178 214.186 339.25 213.156C339.386 211.224 339.427 209.236 338.594 207.438C337.754 205.626 335.947 204.568 334.625 203.156C333.938 202.422 333.359 201.516 333.531 200.469C333.585 200.14 333.704 199.832 333.844 199.531C334.391 198.36 335.284 197.547 336.344 196.969C338.109 196.005 340.347 195.738 342.281 195.781ZM316.156 231L301.875 233.688C300.373 233.97 299.374 235.435 299.656 236.938L305.25 266.562C305.532 268.065 306.967 269.064 308.469 268.781L322.75 266.094C324.252 265.811 325.251 264.377 324.969 262.875L319.375 233.219C319.093 231.717 317.658 230.718 316.156 231ZM301.812 234.625C302.677 234.462 303.525 235.042 303.688 235.906C303.85 236.771 303.271 237.587 302.406 237.75C301.541 237.913 300.725 237.334 300.562 236.469C300.4 235.604 300.948 234.788 301.812 234.625ZM306.188 236.219C307.052 236.056 307.869 236.635 308.031 237.5C308.194 238.365 307.646 239.212 306.781 239.375C305.916 239.538 305.069 238.958 304.906 238.094C304.744 237.229 305.323 236.382 306.188 236.219ZM302.781 239.719C303.646 239.556 304.494 240.135 304.656 241C304.819 241.865 304.24 242.681 303.375 242.844C302.51 243.006 301.663 242.459 301.5 241.594C301.337 240.729 301.916 239.882 302.781 239.719ZM380.312 250.312C379.381 250.37 378.307 250.538 376.969 250.812C376.697 250.868 374.876 251.259 374.438 251.344C372.999 251.621 371.709 252.019 370.438 252.406C367.005 253.968 363.803 256.507 361.688 259.594C359.603 262.635 358.942 267.269 359.375 270.875C359.498 271.897 359.735 273.142 359.844 274.375C359.866 274.367 359.915 274.383 359.938 274.375C359.924 275.153 359.93 275.988 360.281 276.375C360.441 276.551 361.112 276.376 361.312 276.375C362.18 276.372 363.146 276.646 364 276.844C364.036 276.852 364.089 276.896 364.125 276.906C361.457 277.197 357.877 278.735 355.688 280.469C354.682 281.368 353.725 282.309 352.781 283.25C350.765 285.386 347.951 289.008 351.094 289.094C352.39 289.129 353.951 287.313 355.031 286.75C357.729 285.344 361.662 284.858 364.656 285.062C368.046 285.294 373.262 289.924 375.875 289.031C377.614 288.437 377.639 286.602 378.312 285.094C379.126 283.272 379.962 281.821 381.125 280.594C381.211 280.367 381.347 280.15 381.531 279.969C381.552 279.948 381.542 279.927 381.562 279.906C382.565 278.923 386.738 275.131 387.656 274.25C392.258 269.835 394.845 266.156 395.562 262.344C394.895 261.086 393.774 259.985 393.031 258.812C391.137 255.821 388.526 253.049 385.375 251.312C384.58 251.056 383.525 250.658 382.812 250.5C382.044 250.33 381.244 250.255 380.312 250.312ZM418.156 267.469C417.673 267.375 417.159 267.482 416.719 267.781C415.839 268.379 415.621 269.557 416.219 270.438C416.816 271.318 417.995 271.566 418.875 270.969C419.755 270.371 420.004 269.162 419.406 268.281C419.107 267.841 418.64 267.563 418.156 267.469ZM417.688 271.5C417.202 271.407 416.69 271.482 416.25 271.781C415.37 272.379 415.152 273.588 415.75 274.469C416.348 275.349 417.526 275.598 418.406 275C419.286 274.402 419.535 273.193 418.938 272.312C418.639 271.872 418.172 271.593 417.688 271.5ZM416.406 275.812C415.922 275.721 415.409 275.795 414.969 276.094C414.089 276.691 413.84 277.901 414.438 278.781C415.035 279.661 416.245 279.879 417.125 279.281C418.005 278.684 418.223 277.505 417.625 276.625C417.326 276.185 416.89 275.904 416.406 275.812ZM413.719 279.562C413.235 279.469 412.721 279.545 412.281 279.844C411.401 280.441 411.184 281.651 411.781 282.531C412.379 283.411 413.557 283.629 414.438 283.031C415.318 282.434 415.535 281.255 414.938 280.375C414.639 279.935 414.202 279.656 413.719 279.562ZM318.75 280.406L314.062 295.562C314.447 295.575 314.834 295.631 315.219 295.75L320.719 297.438C321.104 297.556 321.457 297.763 321.781 297.969L326.469 282.812L318.75 280.406ZM410.094 282.219C409.609 282.126 409.065 282.232 408.625 282.531C407.745 283.129 407.527 284.308 408.125 285.188C408.723 286.068 409.933 286.316 410.812 285.719C411.693 285.121 411.91 283.911 411.312 283.031C411.014 282.591 410.579 282.312 410.094 282.219ZM393.562 284.188C393.079 284.094 392.565 284.17 392.125 284.469C391.245 285.066 390.996 286.276 391.594 287.156C392.191 288.036 393.401 288.254 394.281 287.656C395.161 287.059 395.379 285.88 394.781 285C394.482 284.56 394.046 284.281 393.562 284.188ZM406.438 284.5C405.952 284.407 405.409 284.513 404.969 284.812C404.089 285.41 403.871 286.589 404.469 287.469C405.066 288.349 406.276 288.598 407.156 288C408.036 287.402 408.254 286.193 407.656 285.312C407.357 284.872 406.923 284.593 406.438 284.5ZM397.469 285.219C396.984 285.126 396.472 285.232 396.031 285.531C395.151 286.129 394.934 287.307 395.531 288.188C396.129 289.068 397.307 289.317 398.188 288.719C399.068 288.121 399.316 286.911 398.719 286.031C398.42 285.591 397.954 285.311 397.469 285.219ZM401.969 285.625C401.485 285.534 400.94 285.608 400.5 285.906C399.62 286.504 399.403 287.714 400 288.594C400.598 289.474 401.807 289.692 402.688 289.094C403.568 288.496 403.785 287.318 403.188 286.438C402.889 285.997 402.453 285.716 401.969 285.625ZM337.469 290.406C336.351 290.514 336.28 295.779 336.25 296.656C336.062 302.114 336.817 307.963 335.906 313.344C336.701 313.785 337.154 313.994 337.656 314.188C338.563 314.537 339.541 314.857 340.562 315.156C340.558 314.969 340.521 314.586 340.531 314.469C340.802 311.24 341.302 305.459 344.125 303.312C347.364 304.512 350.633 305.682 353.469 307.719C356.429 309.845 358.977 312.915 361.344 315.688C362.263 316.764 363.066 318.188 364.281 318.969C364.938 319.391 365.769 319.685 366.625 319.938C371.238 320.298 375.631 320.296 379.969 319.906C380.691 319.841 381.274 319.816 382.562 319.781C382.685 319.778 382.745 319.783 382.812 319.781C383.988 319.749 384.831 319.681 385.562 319.594C385.515 319.431 385.42 319.129 385.406 319.062C384.681 315.586 381.5 311.846 378.688 309.781C368.593 302.369 357.366 298.557 345.562 294.75C343.566 294.106 341.521 293.324 339.75 292.188C339.413 291.971 337.77 290.377 337.469 290.406ZM313.438 296.719C312.837 296.839 312.257 297.118 311.781 297.5C311.21 297.959 310.764 298.56 310.531 299.312L309.062 304.094C308.443 306.101 309.587 308.224 311.594 308.844L316.344 310.312C318.351 310.932 320.474 309.82 321.094 307.812L322.562 303.062C323.182 301.055 322.07 298.901 320.062 298.281L315.281 296.812C314.654 296.619 314.038 296.598 313.438 296.719ZM404.531 299.906C403.535 299.951 402.526 300.1 401.594 300.406C400.475 300.774 399.467 301.376 398.625 302.25C398.333 302.553 398.041 302.896 397.812 303.25C397.572 303.621 397.38 304.014 397.25 304.438C396.767 306.007 397.463 307.392 398.406 308.625C398.938 309.32 399.535 309.951 400.094 310.625C400.489 311.102 400.867 311.622 401.125 312.188C401.294 312.557 401.394 312.976 401.469 313.375C401.796 315.114 401.372 316.867 401 318.562C400.826 319.356 400.685 320.17 400.594 320.969C400.105 320.877 399.594 320.785 399.125 320.656C398.283 321.221 397.931 321.978 397.688 323.438C397.66 323.603 397.617 323.873 397.562 324.25C397.568 324.509 397.602 324.921 397.594 325.094C397.39 329.107 396.652 339.91 399.094 344.688C399.198 344.687 399.3 344.689 399.406 344.688C401.258 344.662 402.753 344.519 406.062 344.125C410.88 343.552 415.372 342.421 420.906 340.5C429.877 337.387 434.074 334.698 438.188 328.812C436.655 323.898 429.375 316.516 426.75 313.562C426.286 313.167 425.675 312.655 425.438 312.469C424.759 311.936 424.264 311.665 423.719 311.625C423.503 311.945 423.283 312.229 423.062 312.531C422.624 311.788 422.119 311.089 421.594 310.406C420.41 308.867 419.08 307.443 417.656 306.125C416.239 304.812 414.706 303.597 413.094 302.531C411.374 301.394 409.534 300.354 407.469 300.062C406.524 299.929 405.528 299.861 404.531 299.906ZM404.656 301.125C405.695 301.089 406.764 301.188 407.719 301.344C408.533 301.477 409.293 301.798 410.031 302.156C410.859 302.558 411.671 303.023 412.438 303.531C413.993 304.563 415.445 305.763 416.812 307.031C418.245 308.359 419.606 309.781 420.781 311.344C421.32 312.06 421.792 312.805 422.219 313.594C421.099 314.973 419.93 316.17 418.594 317.125C414.057 320.369 407.431 321.878 401.75 321.156C401.864 320.135 402.097 319.135 402.312 318.125C402.716 316.231 403.013 314.24 402.438 312.344C401.858 310.433 400.207 309.176 399.094 307.594C398.515 306.771 398.06 305.795 398.375 304.781C398.474 304.463 398.632 304.185 398.812 303.906C399.517 302.823 400.527 302.113 401.656 301.688C402.597 301.333 403.618 301.161 404.656 301.125ZM309.875 309.188L304.812 325.594L312.531 327.969L317.594 311.562C317.209 311.55 316.823 311.494 316.438 311.375L310.906 309.688C310.521 309.569 310.199 309.394 309.875 309.188ZM337.75 324.719C334.811 325.039 332.018 326.407 329.938 328.688L331.125 329.781C334.334 326.264 339.55 325.251 343.875 327.406C349.187 330.053 351.335 336.532 348.688 341.844C346.04 347.155 339.593 349.303 334.281 346.656C329.912 344.479 327.586 339.655 328.531 334.938L326.938 334.594C325.848 340.031 328.528 345.616 333.562 348.125C339.683 351.175 347.106 348.684 350.156 342.562C353.206 336.442 350.715 328.988 344.594 325.938C343.348 325.317 342.039 324.927 340.719 324.75C339.729 324.617 338.73 324.612 337.75 324.719ZM327.438 327.562L324.5 329.781L324.625 333.25L329.5 334.062L330.938 331.188L327.438 327.562ZM376.938 332.594L362.406 333.281C360.88 333.352 359.71 334.63 359.781 336.156L361.188 366.312C361.258 367.839 362.536 369.008 364.062 368.938L378.594 368.25C380.12 368.179 381.29 366.902 381.219 365.375L379.812 335.219C379.742 333.692 378.464 332.523 376.938 332.594ZM362.219 334.188C363.098 334.147 363.866 334.808 363.906 335.688C363.947 336.567 363.254 337.334 362.375 337.375C361.496 337.416 360.759 336.723 360.719 335.844C360.678 334.965 361.34 334.228 362.219 334.188ZM366.344 336.375C367.223 336.334 367.959 337.027 368 337.906C368.041 338.785 367.379 339.522 366.5 339.562C365.621 339.603 364.853 338.942 364.812 338.062C364.772 337.183 365.464 336.416 366.344 336.375ZM362.469 339.375C363.348 339.334 364.116 339.996 364.156 340.875C364.197 341.754 363.504 342.522 362.625 342.562C361.746 342.603 361.009 341.91 360.969 341.031C360.928 340.152 361.59 339.416 362.469 339.375Z" fill="#1A1A1A"/>
</g>
<path d="M118.176 149.296C118.176 114.959 146.012 87.123 180.349 87.123C214.687 87.123 242.523 114.959 242.523 149.296C242.523 183.634 214.687 211.47 180.349 211.47C146.012 211.47 118.176 183.634 118.176 149.296Z" fill="black"/>
<path d="M235.385 149.168C235.385 139.176 243.485 131.076 253.477 131.076C263.469 131.076 271.57 139.176 271.57 149.168C271.57 159.16 263.469 167.26 253.477 167.26C243.485 167.26 235.385 159.16 235.385 149.168Z" fill="black"/>
<path d="M200.412 74.859C200.412 74.859 205.118 87.547 227.873 85.124C250.629 82.701 249.737 80.213 262.464 69.383C275.191 58.554 272.884 54.311 290.1 47.095C307.316 39.879 320.336 49.907 317.111 48.833C313.887 47.76 292.4 23.793 252.794 22.697C213.187 21.602 211.935 39.459 206.454 41.095C200.973 42.732 195.532 68.979 195.279 71.262C195.025 73.544 200.412 74.859 200.412 74.859Z" fill="black"/>
<path d="M194.835 201.434L197.348 234.422L239.947 257.974L177.164 290.402L132.139 255.522L167.153 236.907L166.213 203.848L194.835 201.434Z" fill="black"/>
<path d="M98.8499 246.478L99.2519 181.427L57.6958 181.747C57.6958 181.747 53.0905 186.351 61.88 195.814C70.6694 205.276 81.7889 201.434 81.7889 201.434L82.0349 231.977L98.8499 246.478Z" fill="black"/>
<path d="M53.2781 50.934L53.8942 -42.745L48.6505 -42.407L47.4441 48.782L53.2781 50.934Z" fill="black"/>
<path d="M51.5806 -50.4297C50.1418 -50.4805 48.9356 -49.37 48.8848 -47.9312C48.6908 -42.343 48.8585 -36.754 48.7971 -31.165C48.6123 -14.332 48.5831 2.49799 48.5122 19.331C48.4884 25.005 48.4677 30.686 48.4246 36.361C48.4033 39.152 48.2315 43.403 48.1096 46.192C48.9482 46.126 50.3587 45.899 50.7149 45.88C51.7245 45.824 52.4199 46.102 53.2255 46.161C53.3343 43.438 53.3552 39.133 53.3777 36.404C53.4247 30.727 53.4672 25.031 53.5092 19.353C53.6282 3.287 53.7736 -12.777 53.9695 -28.842C54.0464 -35.146 53.8526 -41.433 54.0791 -47.734C54.1299 -49.1727 53.0193 -50.3789 51.5806 -50.4297Z" stroke="#FDFDFD" stroke-width="2" stroke-miterlimit="10" stroke-linejoin="round"/>
<path d="M50.5179 63.894C45.5884 63.984 40.58 66.237 40.58 66.237L30.2364 90.37L30.3021 90.373C28.8615 93.156 27.9546 96.255 27.8174 99.593C27.3154 111.808 36.7891 122.117 49.0037 122.619C61.2182 123.121 71.5279 113.625 72.0299 101.41C72.1569 98.322 71.6473 95.361 70.6135 92.644L70.6573 92.646L60.366 66.317C60.366 66.317 55.4474 63.805 50.5179 63.894Z" fill="#FFCA00"/>
<path d="M47.4151 51.932C45.4936 52.04 43.6048 52.341 41.6026 52.808C41.3322 52.87 41.1647 53.131 41.2276 53.401C41.2905 53.672 41.5509 53.839 41.8213 53.776C45.6379 52.891 49.3069 52.77 53.1963 53.182C53.488 53.213 53.7595 52.974 53.7901 52.682C53.8207 52.391 53.613 52.151 53.3213 52.12C51.2793 51.908 49.3366 51.825 47.4151 51.932Z" fill="#FDFDFD"/>
<path d="M49.1544 46.146C48.1567 46.218 47.1445 46.364 46.1737 46.584C44.9228 46.867 43.6784 47.263 42.5356 47.855C40.8089 48.755 40.1233 50.884 41.0233 52.611C41.3517 53.241 41.8714 53.669 42.4479 53.992C41.8071 54.221 41.1615 54.448 40.5631 54.759C38.8364 55.659 38.1727 57.788 39.0727 59.515C39.3469 60.041 39.7561 60.428 40.2124 60.742C39.7141 60.943 39.194 61.111 38.7221 61.356C36.9954 62.256 36.3317 64.385 37.2317 66.112C37.404 66.442 37.6601 66.694 37.9111 66.945C37.9977 67.181 38.4607 67.394 38.8755 67.602C41.9903 64.712 47.2526 63.326 52.1351 63.723C53.371 63.823 54.5678 64.053 55.7075 64.38C55.8889 64.422 56.0513 64.457 56.2554 64.512C56.9364 64.696 57.598 64.9 58.206 65.126C59.0681 65.446 59.7824 65.788 60.3977 66.221C60.9771 66.629 61.4183 67.144 61.7565 67.712C61.7929 67.748 61.8303 67.784 61.8661 67.821C62.2613 67.635 62.6046 67.436 62.7866 67.23C63.1618 66.887 63.4696 66.478 63.6852 65.98C64.5026 64.093 63.6437 61.888 61.7565 61.071C61.4373 60.934 61.0952 60.845 60.7703 60.72C61.2156 60.354 61.5994 59.927 61.8442 59.361C62.6616 57.474 61.8027 55.291 59.9155 54.474C59.4467 54.273 58.9295 54.204 58.4471 54.036C59.0459 53.648 59.5901 53.159 59.8936 52.458C60.7111 50.571 59.8302 48.388 57.943 47.57C55.1856 46.391 52.1476 45.928 49.1544 46.146Z" stroke="#FDFDFD" stroke-width="2" stroke-miterlimit="10" stroke-linejoin="round"/>
<path d="M49.6026 59.308C45.5862 59.401 41.7398 60.363 37.9776 61.714C37.7163 61.807 37.5714 62.109 37.6651 62.37C37.7588 62.631 38.06 62.776 38.3213 62.682C41.9839 61.37 45.6931 60.444 49.6026 60.37C51.5791 60.333 53.5257 60.521 55.4776 60.808C55.7678 60.85 56.0289 60.66 56.0713 60.37C56.1138 60.08 55.924 59.819 55.6339 59.776C53.6233 59.484 51.638 59.26 49.6026 59.308Z" fill="#FDFDFD"/>
<path d="M48.04 48.839C46.1367 48.967 44.2544 49.323 42.6338 50.37C42.3878 50.53 42.3178 50.874 42.4775 51.12C42.6372 51.366 42.9503 51.436 43.1962 51.276C44.8743 50.181 46.9498 49.908 48.915 49.839C52.4907 49.713 56.6217 50.138 59.7588 51.995C59.9977 52.136 60.3049 52.046 60.4462 51.808C60.5876 51.569 60.4977 51.261 60.2588 51.12C56.8307 49.095 51.9493 48.576 48.04 48.839Z" fill="#FDFDFD"/>
<path d="M50.165 56.058C48.5017 56.031 46.7493 55.933 45.1025 56.214C44.451 56.325 43.8345 56.542 43.1962 56.714C42.9132 56.79 42.7446 57.087 42.8212 57.37C42.8979 57.653 43.1944 57.822 43.4775 57.745C44.0829 57.58 44.6716 57.352 45.29 57.245C46.8709 56.972 48.5362 57.071 50.1338 57.089C54.1383 57.134 58.0197 57.617 61.6338 59.432C61.8818 59.557 62.1653 59.462 62.29 59.214C62.4147 58.966 62.3193 58.651 62.0712 58.526C58.3229 56.643 54.3211 56.123 50.165 56.058Z" fill="#FDFDFD"/>
<path d="M89.79 87.62C89.205 87.685 88.618 87.695 88.04 87.808C86.871 88.036 85.73 88.47 84.571 88.745C82.838 89.157 81.099 89.487 79.353 89.839C81.135 89.96 82.914 90.067 84.696 90.182C85.892 90.26 87.092 90.459 88.29 90.464C88.879 90.466 89.453 90.384 90.04 90.339C90.786 90.268 91.36 89.585 91.29 88.839C91.22 88.093 90.536 87.55 89.79 87.62Z" fill="#FFD200"/>
<path d="M81.134 102.089C84.864 104.215 88.678 106.13 92.603 107.87C94.276 108.612 95.948 109.42 97.665 110.058C98.811 110.483 99.993 110.775 101.165 111.12C101.883 111.334 102.638 110.932 102.853 110.214C103.067 109.496 102.664 108.741 101.946 108.526C98.47 107.473 94.936 106.749 91.446 105.745C87.937 104.735 84.512 103.471 81.134 102.089Z" fill="#FFD200"/>
<path d="M62.9775 131.682C65.7816 136.83 68.5739 142.021 71.3525 147.182C73.629 151.411 75.863 155.668 78.353 159.776C79.461 161.606 80.698 163.363 81.915 165.12C82.34 165.737 83.204 165.889 83.821 165.464C84.438 165.039 84.59 164.206 84.165 163.589C81.171 159.215 78.076 154.904 75.134 150.495C70.9947 144.293 67.0198 137.948 62.9775 131.682Z" fill="#FFD200"/>
<path d="M69.0713 118.214C71.4191 120.459 73.7831 122.692 76.1651 124.901C77.1871 125.849 78.1541 126.887 79.2271 127.776C79.9421 128.367 80.7461 128.842 81.5091 129.37C82.1231 129.8 82.9541 129.671 83.3841 129.058C83.8141 128.444 83.6851 127.581 83.0711 127.151C80.8091 125.549 78.3561 124.278 76.0091 122.808C73.6561 121.333 71.3744 119.763 69.0713 118.214Z" fill="#FFD200"/>
<path d="M47.5401 128.589C47.159 133.221 46.7886 137.859 46.4463 142.495C46.2619 144.993 46.007 147.494 45.8839 149.995C45.8137 151.42 45.8391 152.85 45.8526 154.276C45.8565 155.026 46.4783 155.624 47.2276 155.62C47.9769 155.616 48.5753 155.026 48.5713 154.276C48.5672 150.343 48.2491 146.42 48.0401 142.495C47.7932 137.859 47.6728 133.229 47.5401 128.589Z" fill="#FFD200"/>
<path d="M32.1651 123.245C28.9432 125.619 25.7214 128.015 22.5089 130.401C20.1979 132.118 17.9523 133.806 15.8213 135.745C15.265 136.247 15.2256 137.126 15.7276 137.682C16.2296 138.239 17.0775 138.278 17.6339 137.776C20.1936 135.487 22.4529 132.917 24.8526 130.464C27.2487 128.015 29.7139 125.639 32.1651 123.245Z" fill="#FFD200"/>
<path d="M52.04 63.776C51.7991 63.914 51.7145 64.192 51.8525 64.432C54.3454 68.783 56.1418 73.379 57.3525 78.245C58.3645 82.313 59.1218 86.532 58.165 90.682C58.0052 91.376 57.7965 92.075 57.4775 92.714C57.2913 93.087 57.0663 93.459 56.7588 93.745C55.082 95.307 53.3131 92.775 52.6338 91.526C52.4599 91.207 52.2972 90.914 52.1338 90.589C51.9158 90.156 51.6386 89.581 51.4462 89.12C50.7852 87.534 50.1908 85.9 49.7275 84.245C49.0854 81.951 48.784 79.655 48.7588 77.276C48.7555 76.983 48.5207 76.742 48.2275 76.745C47.9343 76.748 47.693 76.983 47.6962 77.276C47.7283 80.101 48.16 82.829 49.0088 85.526C49.5013 87.091 50.0727 88.66 50.7588 90.151C51.1128 90.921 51.2801 91.296 51.6962 92.058C52.1272 92.846 52.6192 93.662 53.29 94.276C54.4343 95.324 56.273 95.61 57.4775 94.495C57.8782 94.124 58.1731 93.668 58.415 93.182C58.6792 92.653 58.8822 92.096 59.04 91.526C60.2756 87.067 59.4507 82.388 58.3525 77.995C57.1139 73.04 55.267 68.363 52.7275 63.932C52.5895 63.692 52.2809 63.638 52.04 63.776Z" fill="#FDFDFD"/>
<path d="M53.0712 64.964C52.7937 64.971 52.5641 65.186 52.5712 65.464C52.7006 70.476 52.1278 75.387 50.8839 80.245C49.844 84.306 48.5084 88.358 45.6962 91.558C45.2265 92.092 44.6864 92.616 44.1025 93.026C43.7617 93.266 43.3841 93.483 42.9775 93.589C40.7604 94.167 40.4204 91.104 40.415 89.682C40.4136 89.319 40.4047 88.952 40.415 88.589C40.4287 88.104 40.4592 87.492 40.5089 86.995C40.6795 85.286 40.9122 83.578 41.29 81.901C41.8135 79.578 42.6522 77.382 43.7589 75.276C43.8952 75.017 43.7996 74.694 43.54 74.558C43.2804 74.421 42.9576 74.548 42.8212 74.808C41.5087 77.309 40.6042 79.906 40.0712 82.682C39.762 84.294 39.519 85.95 39.415 87.589C39.3614 88.434 39.3478 88.815 39.3525 89.682C39.3574 90.581 39.3973 91.542 39.6962 92.401C40.2063 93.866 41.6693 94.999 43.2589 94.589C43.7876 94.452 44.2843 94.182 44.7275 93.87C45.2115 93.529 45.6308 93.109 46.04 92.682C49.2441 89.344 50.7341 84.883 51.8525 80.495C53.1139 75.546 53.7036 70.538 53.5712 65.432C53.5641 65.155 53.3488 64.957 53.0712 64.964Z" fill="#FDFDFD"/>
<path d="M50.2589 64.151C50.0531 63.965 49.7578 63.977 49.5713 64.182C47.3334 67.186 48.3204 65.852 47.3213 67.182C46.8205 67.849 48.3356 65.856 48.7276 65.12C48.9243 64.751 48.1767 65.731 47.9151 66.058C47.4147 66.682 46.8682 67.429 46.4151 68.089C46.1791 68.433 45.4663 69.445 45.7276 69.12C47.0325 67.497 45.725 69.118 45.0713 70.182C44.9183 70.433 45.0087 70.748 45.2589 70.901C45.509 71.054 45.8245 70.995 45.9776 70.745C48.1351 67.802 47.1621 69.109 48.1339 67.808C48.617 67.16 47.1993 69.106 46.6339 69.682C46.3498 69.972 47.0637 68.988 47.2901 68.651C47.716 68.018 48.2255 67.315 48.6963 66.714C48.9453 66.396 49.7033 65.442 49.4776 65.776C48.3453 67.456 49.4654 65.751 50.2901 64.839C50.4766 64.633 50.4646 64.338 50.2589 64.151Z" fill="#FDFDFD"/>
<path d="M118.176 149.296C118.176 114.959 146.012 87.123 180.349 87.123C214.687 87.123 242.523 114.959 242.523 149.296C242.523 183.634 214.687 211.47 180.349 211.47C146.012 211.47 118.176 183.634 118.176 149.296Z" stroke="#FDFDFD" stroke-width="3" stroke-miterlimit="10" stroke-linejoin="round"/>
<path d="M241.432 136.086C244.633 133.135 248.909 131.332 253.606 131.332C263.527 131.332 271.57 139.375 271.57 149.296C271.57 159.217 263.527 167.26 253.606 167.26C248.968 167.26 244.74 165.502 241.553 162.617" stroke="#FDFDFD" stroke-width="3" stroke-miterlimit="10" stroke-linejoin="round"/>
<path d="M164.96 137.026L146.82 160.285L166.78 158.408" stroke="#FDFDFD" stroke-width="3" stroke-miterlimit="10" stroke-linejoin="round"/>
<path d="M205.384 123.839C204.976 123.856 204.588 124.046 204.29 124.37C199.015 130.139 191.407 130.461 184.384 128.026C183.597 127.753 182.719 128.177 182.446 128.964C182.173 129.751 182.597 130.628 183.384 130.901C189.554 133.047 196.674 133.435 202.477 129.995C204.057 129.059 205.393 127.87 206.634 126.526C207.229 125.878 207.188 124.872 206.54 124.276C206.216 123.979 205.791 123.822 205.384 123.839Z" fill="#FDFDFD"/>
<path d="M187.821 130.245C187.458 130.374 187.156 130.65 186.977 131.026C185.697 133.153 186.25 132.188 185.696 133.151C185.422 133.628 186.26 132.207 186.603 131.776C186.77 131.566 186.363 132.262 186.227 132.495C185.98 132.922 185.622 133.458 185.353 133.87C185.201 134.102 184.746 134.798 184.884 134.558C185.562 133.366 184.892 134.57 184.415 135.276C183.928 136.009 184.12 137.008 184.853 137.495C185.585 137.982 186.584 137.79 187.071 137.058C188.387 134.696 187.799 135.73 188.384 134.682C188.68 134.151 187.774 135.746 187.54 136.308C187.425 136.584 187.855 135.784 188.009 135.526C188.316 135.011 188.638 134.496 188.915 133.964C189.057 133.691 189.478 132.856 189.321 133.12C188.553 134.413 189.315 133.119 189.696 132.308C190.054 131.555 189.73 130.665 188.977 130.308C188.601 130.129 188.185 130.116 187.821 130.245Z" fill="#FDFDFD"/>
<path d="M194.509 130.058C193.683 130.168 193.117 130.919 193.227 131.745C193.325 132.612 193.3 132.391 193.321 132.62C193.316 132.59 193.365 133.079 193.384 133.308C193.434 133.906 193.478 134.333 193.54 134.932C193.569 135.214 193.661 136.058 193.634 135.776C193.506 134.435 193.622 135.776 193.759 136.589C193.912 137.455 194.736 138.023 195.603 137.87C196.469 137.717 197.068 136.893 196.915 136.026C196.57 133.686 196.74 134.728 196.571 133.682C196.526 133.403 196.605 134.091 196.665 134.526C196.602 134.105 196.502 133.383 196.446 132.964C196.41 132.692 196.279 131.88 196.321 132.151C196.521 133.442 196.339 132.174 196.227 131.37C196.117 130.544 195.334 129.947 194.509 130.058Z" fill="#FDFDFD"/>
<path d="M202.321 127.901C201.938 127.858 201.522 127.954 201.196 128.214C200.545 128.733 200.427 129.687 200.946 130.339C202.704 132.197 201.909 131.386 202.727 132.182C203.145 132.588 201.907 131.319 201.446 130.964C201.228 130.796 201.804 131.407 201.977 131.62C202.333 132.057 202.702 132.504 203.103 132.901C203.318 133.115 203.953 133.759 203.759 133.526C202.851 132.437 203.779 133.528 204.477 134.058C205.183 134.583 206.171 134.419 206.696 133.714C207.222 133.008 207.089 132.021 206.384 131.495C204.854 129.974 205.561 130.645 204.853 129.964C204.509 129.633 205.528 130.66 205.79 131.058C205.911 131.241 205.452 130.767 205.29 130.62C204.968 130.328 204.579 129.943 204.29 129.62C204.123 129.434 203.635 128.891 203.821 129.058C204.698 129.84 203.821 129.052 203.321 128.432C203.062 128.107 202.705 127.945 202.321 127.901Z" fill="#FDFDFD"/>
<path d="M145.04 132.87C144.655 132.841 144.262 132.974 143.946 133.245C140.866 135.882 136.314 138.358 132.477 135.839C131.739 135.36 130.738 135.569 130.259 136.308C129.78 137.046 129.989 138.016 130.727 138.495C135.91 141.824 141.679 139.165 145.915 135.526C146.547 134.984 146.613 134.034 146.071 133.401C145.8 133.085 145.425 132.899 145.04 132.87Z" fill="#FDFDFD"/>
<path d="M132.54 137.12C132.182 137.265 131.89 137.549 131.727 137.932C130.787 139.553 131.205 138.823 130.79 139.558C130.591 139.909 131.21 138.86 131.477 138.558C131.614 138.403 131.293 138.938 131.196 139.12C131.022 139.446 130.772 139.841 130.571 140.151C130.462 140.32 130.134 140.829 130.227 140.651C130.708 139.739 130.237 140.647 129.853 141.182C129.346 141.902 129.508 142.895 130.227 143.401C130.947 143.908 131.939 143.745 132.446 143.026C133.473 141.075 133.01 141.914 133.477 141.058C133.714 140.624 133.029 141.929 132.884 142.401C132.81 142.64 133.134 141.993 133.259 141.776C133.502 141.353 133.742 140.906 133.946 140.464C134.05 140.24 134.351 139.562 134.227 139.776C133.613 140.841 134.23 139.79 134.509 139.12C134.833 138.353 134.463 137.444 133.696 137.12C133.313 136.958 132.898 136.975 132.54 137.12Z" fill="#FDFDFD"/>
<path d="M137.477 137.682C136.645 137.694 135.997 138.381 136.009 139.214C135.853 141.125 135.933 140.055 135.853 141.12C135.837 141.329 135.996 140.317 136.009 140.526C136.035 140.943 135.884 142.194 135.884 141.776C135.884 140.926 135.891 141.752 135.696 143.026C135.577 143.898 136.168 144.719 137.04 144.839C137.912 144.958 138.733 144.335 138.853 143.464C138.938 141.315 138.889 142.522 138.946 141.339C138.958 141.09 138.968 142.303 139.009 142.058C139.089 141.569 139.132 140.097 139.071 140.589C138.953 141.548 139.046 140.588 139.009 139.182C138.997 138.35 138.31 137.671 137.477 137.682Z" fill="#FDFDFD"/>
<path d="M142.29 136.308C141.905 136.284 141.539 136.406 141.227 136.682C140.604 137.235 140.519 138.184 141.071 138.808C141.673 139.632 141.606 139.468 141.696 139.62C141.746 139.697 141.808 139.767 141.853 139.839C141.859 139.849 141.909 139.923 141.915 139.932C142.161 140.341 142.364 140.757 142.634 141.151C142.804 141.4 143.363 142.152 143.196 141.901C142.51 140.868 143.189 141.898 143.79 142.526C144.405 143.156 145.41 143.172 146.04 142.558C146.67 141.943 146.686 140.937 146.071 140.308C144.71 138.569 145.303 139.191 144.696 138.558C144.342 138.187 145.293 139.377 145.571 139.808C145.68 139.976 145.316 139.499 145.196 139.339C145.06 139.156 144.952 138.963 144.821 138.776C144.518 138.343 144.237 137.915 143.915 137.495C143.823 137.375 143.542 137 143.634 137.12C144.446 138.175 143.633 137.123 143.353 136.808C143.076 136.496 142.675 136.331 142.29 136.308Z" fill="#FDFDFD"/>
<path d="M216.071 154.682C215.333 154.708 214.804 155.239 214.165 155.526C212.523 156.264 210.887 157.04 209.259 157.808C207.4 158.683 205.518 159.53 203.603 160.276C199.715 161.792 195.719 163.009 191.821 164.495C187.926 165.98 184.182 167.785 180.384 169.495C179.624 169.837 179.292 170.735 179.634 171.495C179.975 172.255 180.874 172.587 181.634 172.245C185.375 170.564 189.07 168.777 192.915 167.339C198.274 165.334 203.791 163.776 209.009 161.401C210.8 160.586 212.56 159.747 214.353 158.932C214.492 158.869 214.623 158.805 214.759 158.745C214.991 158.754 215.219 158.813 215.446 158.714C216.185 158.377 217.008 158.334 217.509 157.589C218.317 156.387 217.632 154.629 216.071 154.682Z" fill="#FDFDFD"/>
<path d="M212.884 157.214C212.012 157.092 211.224 157.686 211.103 158.558C210.719 161.335 209.773 163.944 208.134 166.245C204.27 171.668 197.093 174.632 190.509 173.714C187.054 173.232 184.16 171.37 181.009 170.026C180.243 169.699 179.336 170.073 179.009 170.839C178.682 171.605 179.055 172.481 179.821 172.808C183.275 174.282 186.249 176.193 190.071 176.745C197.782 177.858 206.18 174.441 210.727 168.089C212.67 165.375 213.797 162.278 214.259 158.995C214.38 158.124 213.755 157.335 212.884 157.214Z" fill="#FDFDFD"/>
<path d="M183.727 86.401C183.343 86.437 182.993 86.612 182.727 86.932C178.364 92.201 174.173 97.621 169.165 102.308C161.31 109.657 152.147 115.424 142.79 120.651C138.405 123.101 133.999 125.592 129.415 127.651C126.355 129.026 123.213 130.165 120.04 131.245C119.207 131.529 118.756 132.444 119.04 133.276C119.324 134.109 120.239 134.56 121.071 134.276C124.338 133.161 127.578 131.976 130.727 130.558C135.705 128.316 140.473 125.575 145.227 122.901C154.488 117.694 163.493 111.818 171.259 104.526C176.352 99.744 180.598 94.239 185.04 88.87C185.571 88.228 185.494 87.276 184.853 86.745C184.532 86.479 184.112 86.365 183.727 86.401Z" fill="#FDFDFD"/>
<path d="M201.771 76.026C199.794 74.072 197.766 72.177 194.884 71.746C190.743 71.127 189.883 74.894 192.503 77.662C198.413 83.907 209.033 81.817 199.734 74.036" fill="black"/>
<path d="M194.477 70.182C192.265 69.993 190.055 71.148 189.571 73.432C188.68 77.637 193.534 81.157 196.946 82.308C197.573 82.519 198.168 82.674 198.821 82.776C200.104 82.978 201.479 82.961 202.696 82.464C205.525 81.309 205.411 78.397 203.946 76.182C203.499 75.505 202.95 74.887 202.384 74.308C202.222 74.142 202.052 73.999 201.884 73.839C201.705 73.669 201.195 73.149 201.353 73.339C201.812 73.894 201.334 73.335 200.759 72.839C200.624 72.723 200.446 72.746 200.29 72.682C200.025 72.497 199.775 72.303 199.509 72.12C199.074 71.822 198.669 71.478 198.196 71.245C197.716 71.008 197.174 70.88 196.665 70.714C195.954 70.481 195.223 70.247 194.477 70.182ZM194.509 73.214C194.928 73.33 195.312 73.491 195.727 73.62C196.099 73.736 196.503 73.762 196.853 73.932C197.191 74.098 197.481 74.373 197.79 74.589C198.099 74.805 198.397 75.017 198.696 75.245C198.726 75.268 198.761 75.284 198.79 75.308C198.944 75.432 198.998 75.51 199.227 75.714C199.268 75.752 199.391 75.877 199.727 76.182C199.851 76.301 199.982 76.404 200.103 76.526C200.113 76.536 200.148 76.575 200.165 76.589C200.382 76.813 200.59 77.034 200.79 77.276C201.122 77.678 202.484 79.281 201.384 79.589C198.852 80.298 195.745 78.659 193.946 76.932C193.217 76.233 192.352 75.159 192.571 74.058C192.729 73.265 193.824 73.024 194.509 73.214Z" fill="#FDFDFD"/>
<path d="M253.227 21.714C238.606 21.1 223.231 23.927 212.04 33.995C209.272 36.486 206.814 39.35 204.727 42.432C202.467 45.773 200.963 49.52 199.54 53.276C197.302 59.182 195.481 65.241 193.259 71.151C192.966 71.931 193.354 72.796 194.134 73.089C194.913 73.382 195.778 72.993 196.071 72.214C200.159 75.02 200.687 76.126 200.165 75.026C199.413 73.442 197.453 72.752 196.415 71.339C196.213 71.064 196.644 70.691 196.759 70.37C197.146 69.287 197.512 68.208 197.884 67.12C199.045 63.717 200.195 60.315 201.415 56.932C202.867 52.908 204.317 48.653 206.634 45.026C210.646 38.745 216.23 33.588 222.884 30.214C228.16 27.538 233.97 26.018 239.821 25.276C251.341 23.817 263.08 25.119 274.29 27.932C280.944 29.603 287.494 31.804 293.727 34.682C299.882 37.525 305.451 41.277 310.634 45.589C308.652 45.125 306.634 44.745 304.634 44.526C295.379 43.514 287.009 45.716 279.446 51.058C271.695 56.532 266.053 64.304 258.884 70.432C246.612 80.922 227.863 87.379 212.071 81.808C209.748 80.988 207.399 79.942 205.353 78.558C202.253 76.462 205.347 78.532 204.259 77.808C203.526 77.32 202.527 77.544 202.04 78.276C201.553 79.009 201.776 79.976 202.509 80.464C205.181 82.24 207.976 83.739 211.009 84.808C226.377 90.225 243.94 85.2 256.821 76.058C263.418 71.375 268.571 65.14 274.321 59.526C278.171 55.767 282.433 52.262 287.384 50.058C291.6 48.18 296.217 47.365 300.821 47.432C304.905 47.492 309.547 48.15 313.415 49.589C313.953 49.789 314.455 50.006 314.977 50.245C315.589 50.524 315.832 50.797 316.446 51.058C317.229 51.39 318.201 51.161 318.634 50.401C319.405 49.048 317.831 47.886 317.04 47.058C316.842 46.851 316.521 46.515 316.321 46.308C316.009 45.983 315.718 45.641 315.384 45.339C314.916 44.916 314.451 44.504 313.977 44.089C313.499 43.669 312.998 43.245 312.509 42.839C312.02 42.433 311.538 42.044 311.04 41.651C310.019 40.846 309.066 40.127 308.009 39.37C296.178 30.894 281.921 26.079 267.727 23.37C262.94 22.456 258.097 21.918 253.227 21.714Z" fill="#FDFDFD"/>
<path d="M254.915 155.932C254.532 155.886 254.149 155.988 253.821 156.245C251.542 158.037 249.835 160.367 249.353 163.276C248.105 170.797 254.964 178.919 262.759 177.995C269.657 177.177 275.335 169.718 274.353 162.87C274.169 161.594 273.779 160.349 273.103 159.245C272.481 158.23 271.661 157.466 270.727 156.745C270.03 156.209 269.044 156.328 268.509 157.026C267.973 157.724 268.092 158.741 268.79 159.276C271.257 161.154 271.824 164.267 270.946 167.151C269.83 170.819 266.345 174.414 262.415 174.901C256.613 175.62 251.45 169.285 252.353 163.745C252.704 161.586 253.981 159.94 255.665 158.62C256.32 158.106 256.429 157.15 255.915 156.495C255.658 156.167 255.298 155.979 254.915 155.932Z" fill="#FDFDFD"/>
<path d="M166.166 210.515L167.365 236.198L133.122 250.014" stroke="#FDFDFD" stroke-width="3" stroke-miterlimit="10" stroke-linejoin="round"/>
<path d="M195.832 209.884L197.274 234.596L229.247 252.171" stroke="#FDFDFD" stroke-width="3" stroke-miterlimit="10" stroke-linejoin="round"/>
<path d="M166.772 214.972C171.386 221.572 180.952 223.955 188.727 224.035C190.176 224.05 195.405 223.826 196.26 222.459C197.064 221.171 195.666 217.005 195.553 215.449C195.47 214.309 196.26 211.269 195.729 210.39C195.32 209.712 193.101 210.593 192.565 210.708C189.597 211.342 186.014 211.515 182.977 211.691C179.078 211.917 175.293 211.577 171.429 211.127C170.58 211.028 167.948 209.951 167.222 210.404C166.623 210.777 166.433 214.487 166.772 214.972Z" fill="#FDFDFD"/>
<path d="M194.884 209.089C194.292 209.127 193.693 209.312 193.259 209.432C190.918 210.083 188.491 210.295 186.071 210.464C181.824 210.759 177.717 210.716 173.477 210.276C172.79 210.205 172.089 210.208 171.415 210.058C170.48 209.849 169.583 209.463 168.634 209.308C168.001 209.204 167.521 209.158 166.915 209.401C165.57 209.941 165.538 212.529 165.54 213.651C165.541 213.979 165.552 213.65 165.759 215.245C165.788 215.352 165.889 215.406 165.946 215.495C165.964 215.525 165.956 215.56 165.977 215.589C166.007 215.604 166.011 215.605 166.04 215.62C166.198 215.8 166.367 215.89 166.603 215.932C183.092 224.545 176.815 223.753 183.571 224.682C186.646 225.106 189.772 225.211 192.853 224.776C193.659 224.662 194.45 224.52 195.227 224.276C195.945 224.052 196.714 223.677 197.134 223.026C197.635 222.249 197.567 221.185 197.477 220.308C197.306 218.624 196.776 217.016 196.571 215.339C196.518 214.904 196.641 214.392 196.696 213.964C196.875 212.593 197.39 210.762 196.415 209.589C196.054 209.154 195.475 209.051 194.884 209.089ZM194.696 211.214C194.771 211.201 194.781 211.218 194.853 211.214C194.865 211.407 194.863 211.583 194.853 211.776C194.835 212.087 194.823 212.405 194.79 212.714C194.692 213.644 194.436 214.618 194.54 215.558C194.678 216.801 194.986 218.02 195.227 219.245C195.336 219.797 195.702 221.333 195.384 221.901C195.266 222.111 194.838 222.243 194.634 222.308C194.429 222.371 194.216 222.443 194.009 222.495C193.782 222.552 193.551 222.577 193.321 222.62C191.515 222.957 193.133 222.578 167.79 214.432C167.741 212.792 167.678 212.929 167.759 212.245C167.8 211.897 167.811 211.768 167.884 211.432C167.888 211.415 167.909 211.392 167.915 211.37C168.032 211.381 168.144 211.38 168.259 211.401C168.516 211.45 168.786 211.526 169.04 211.589C169.797 211.776 170.512 212.089 171.29 212.182C174.196 212.531 177.143 212.787 180.071 212.808C183.503 212.831 186.983 212.615 190.384 212.151C191.555 211.991 192.686 211.752 193.821 211.432C194.085 211.358 194.409 211.262 194.696 211.214Z" fill="#FDFDFD"/>
<path d="M98.192 231.977L99.706 181.871L57.124 181.954L57.4041 181.942C57.4041 181.942 56.6242 190.118 61.3298 195.304C66.0355 200.49 81.649 201.779 81.649 201.779L80.712 231.433" stroke="#FDFDFD" stroke-width="3" stroke-miterlimit="10" stroke-linejoin="round"/>
<path d="M136.087 248.774C137.021 251.393 139.426 252.697 141.573 253.645C143.819 254.636 145.97 255.809 148.255 256.729C150.512 257.638 152.925 258.084 155.208 258.926C163.989 262.165 173.904 263.76 183.267 262.676C187.374 262.201 191.155 261.033 195.077 259.814C199.168 258.541 203.381 257.531 207.405 256.041C211.148 254.656 214.997 253.325 218.672 251.781C220.298 251.098 222.027 250.014 223.727 249.562C225.239 249.16 229.166 253.008 230.482 253.956C230.733 254.136 232.327 255.207 232.283 255.509C232.01 257.355 229.273 259.463 228.091 260.679C224.169 264.713 220.217 268.692 216.059 272.484C209.848 278.15 203.359 283.163 196.581 288.128C193.776 290.183 190.46 293.812 186.891 294.364C182.72 295.009 178.11 292.249 174.415 290.88C166.561 287.971 158.188 286.724 150.252 284.134C142.498 281.604 135.26 275.923 131.612 268.645C131.014 267.453 130.268 266.35 129.985 265.028C129.059 260.701 128.227 255.466 130.379 251.381C131.59 249.084 135.097 245.996 136.087 248.774Z" fill="#FDFDFD"/>
<path d="M301.084 42.634C300.767 42.634 300.463 42.713 300.147 42.727C295.948 42.619 291.622 43.712 287.772 44.946C277.404 48.269 268.389 54.968 258.772 59.79C252.804 62.782 245.735 64.923 239.24 66.384C226.159 69.325 206.893 63.835 195.928 71.165C194.887 71.86 202.507 79.186 204.49 80.259C210.858 83.701 218.902 86.323 226.272 85.821C229.741 85.585 233.15 84.592 236.615 84.321C239.586 84.088 242.048 82.369 244.615 81.04C254.592 75.873 263.088 67.864 271.053 59.977C275.067 56.002 278.184 51.36 283.584 49.102C285.05 48.489 286.596 47.876 288.147 47.29L284.99 49.352C290.268 46.68 296.915 44.986 301.897 45.79C305.693 46.402 309.573 47.733 313.24 48.852C313.539 48.943 316.424 49.997 316.553 49.852C317.152 49.178 314.022 47.099 312.022 45.852C312.587 46.067 313.198 46.217 313.74 46.446C314.217 46.647 314.919 47.375 315.209 46.946C315.966 45.827 313.086 45.202 310.397 44.79C310.383 44.788 310.378 44.792 310.365 44.79C307.692 43.346 304.385 42.629 301.084 42.634ZM58.8027 183.165L58.4902 189.884C59.8278 192.204 60.2537 194.991 62.2402 196.977C62.7834 197.521 63.4074 197.607 64.0839 197.884C66.6855 198.947 69.2263 200.196 71.8964 201.102C74.1199 201.857 76.3749 202.169 78.7089 202.04C79.4439 201.999 81.3549 201.417 81.7089 202.102C81.9299 202.531 81.8029 203.231 81.8029 203.696C81.8029 206.033 81.5349 208.251 81.3339 210.571C80.8519 216.149 80.2719 221.681 80.2719 227.29C80.2719 229.036 80.4709 230.902 80.2399 232.634C80.1919 232.998 79.6159 234.78 79.9899 235.04C80.2159 235.196 83.5919 234.471 84.0529 234.384C87.6079 233.705 91.2579 233.514 94.8649 233.384C95.2479 233.37 98.9689 233.351 99.0839 233.227C99.1519 233.154 99.0669 230.484 99.0839 230.134C99.1809 228.084 98.9859 226.176 98.8969 224.134C98.8529 223.15 99.0869 222.039 98.8969 221.071C98.7279 220.213 97.2079 219.927 96.4899 219.665C94.1069 218.793 91.4959 218.472 88.9589 218.665C88.4849 218.701 86.7289 219.241 86.3339 218.852C86.2909 218.81 86.4899 215.254 86.4899 214.884C86.4899 210.82 86.1149 206.758 86.1149 202.696C86.1149 201.854 86.3679 198.262 85.8029 197.821C85.3769 197.489 84.5809 197.575 84.0839 197.54C81.7789 197.378 79.4879 197.255 77.1779 197.134C69.8468 196.749 60.1837 195.971 58.7402 186.977C58.5495 185.789 58.7245 184.363 58.8027 183.165Z" fill="#FDFDFD"/>
<path d="M69.0542 233.269C74.097 230.842 80.219 229.435 85.758 229.394C93.743 229.335 104.362 229.936 110.751 235.793C113.732 238.526 112.371 251.446 112.266 255.32C111.913 268.389 108.193 299.927 93.082 305.009C70.1302 312.729 65.3924 269.005 66.6092 254.442C67.0503 249.163 66.4166 243.952 67.2882 238.68C67.5036 237.377 67.6531 233.944 69.0542 233.269Z" fill="#AF52DE"/>
<path d="M137.533 250.366L188.664 275.119L235.329 248.379C235.329 248.379 241.498 244.143 247.138 245.239C252.778 246.336 257.888 257.226 257.888 257.226L281.26 305.916C281.26 305.916 228.387 344.006 181.556 339.528C134.725 335.05 85.4399 301.009 85.4399 301.009L105.988 254.109C105.988 254.109 109.831 243.847 121.539 243.137C126.884 242.812 137.533 250.366 137.533 250.366Z" fill="#AF52DE"/>
<path d="M111.009 234.87C110.461 234.938 110.097 235.447 110.165 235.995C111.13 243.748 110.054 251.504 108.727 259.151C106.769 270.437 103.912 281.263 98.196 291.276C97.922 291.756 98.092 292.346 98.571 292.62C99.051 292.894 99.672 292.725 99.946 292.245C106.05 281.55 108.971 269.959 110.977 257.901C112.2 250.557 113.056 243.175 112.134 235.745C112.066 235.197 111.557 234.802 111.009 234.87Z" fill="#FDFDFD"/>
<path d="M252.334 131.759C249.692 131.887 247.258 132.737 245.928 134.509C245.901 134.467 245.893 134.392 245.865 134.352C245.604 134.1 245.386 133.906 245.209 133.727C245.192 133.71 245.194 133.682 245.178 133.665C243.949 134.4 242.436 135.386 241.959 136.259C242.551 137.063 242.942 138.03 242.897 139.102C242.869 139.74 242.895 140.452 242.99 141.352C243.048 141.899 243.43 144.663 243.49 145.165C243.606 146.129 243.327 147.025 242.897 147.821C243.078 150.138 242.925 152.611 242.865 154.915C242.818 156.736 241.238 162.857 243.553 163.665C243.554 163.673 243.55 163.753 243.553 163.759C243.608 163.873 243.35 164.089 243.74 164.009C245.624 163.622 246.139 165.8 247.24 165.352C247.433 165.274 248.312 160.852 248.459 160.259C249.55 155.855 250.773 151.498 252.99 147.509C254.875 144.117 256.773 140.707 259.428 137.852C260.113 137.115 260.689 136.253 261.459 135.602C261.495 135.572 262.368 134.941 262.365 134.852C262.355 134.476 260.651 133.527 260.334 133.352C258.466 132.319 255.313 131.614 252.334 131.759Z" fill="#FDFDFD"/>
</g>
<defs>
<clipPath id="clip0_341_3279">
<rect width="372" height="372" fill="white"/>
</clipPath>
</defs>
</svg>
