<svg width="218" height="116" viewBox="0 0 218 116" fill="none" xmlns="http://www.w3.org/2000/svg">
<g clip-path="url(#clip0_304_10053)">
<mask id="mask0_304_10053" style="mask-type:luminance" maskUnits="userSpaceOnUse" x="0" y="0" width="103" height="116">
<path d="M103 0H0V116H103V0Z" fill="white"/>
</mask>
<g mask="url(#mask0_304_10053)">
<path d="M51.4964 0C50.169 0 49.0927 1.07887 49.0929 2.40976V8.42661L44.1881 4.47311C43.6711 4.05591 43.0347 3.88716 42.4232 3.9535C41.8115 4.01984 41.2318 4.32368 40.8157 4.8421C39.9834 5.87894 40.142 7.3889 41.1763 8.2233L49.0929 14.6091V23.0585L39.9519 15.6786C39.4349 15.2612 38.7985 15.0925 38.1868 15.1588C37.5754 15.2253 36.9882 15.5292 36.5721 16.0475C35.7398 17.0842 35.9059 18.6019 36.9401 19.4361L49.0929 29.2409V41.0714L51.4964 39.6781L53.8999 41.0714V29.2484L66.0599 19.4361C67.0942 18.6019 67.2602 17.0842 66.4279 16.0475C65.5958 15.0106 64.0823 14.8441 63.0481 15.6786L53.8999 23.0659V14.6166L61.8238 8.2233C62.858 7.3889 63.0166 5.87892 62.1843 4.8421C61.3522 3.80527 59.8385 3.63871 58.8045 4.47311L53.8999 8.42661V2.40976C53.8999 1.07887 52.8236 0 51.4964 0ZM92.1078 22.1698C90.7963 21.9644 89.5637 22.8655 89.359 24.1805L87.7967 34.2487L80.4961 38.4657L82.3061 26.8387C82.5109 25.5237 81.6123 24.2877 80.3007 24.0826C78.9891 23.8773 77.764 24.7783 77.5592 26.0931L75.1557 41.5534L64.9409 47.4573L67.3292 48.8352V51.6365L77.5518 45.7326L92.1004 51.3955C93.3377 51.8773 94.7293 51.2582 95.2098 50.0176C95.6905 48.7769 95.0728 47.3816 93.8355 46.8999L82.8996 42.6452L90.1927 38.4282L99.664 42.118C100.901 42.5997 102.293 41.9806 102.773 40.7401C103.254 39.4993 102.644 38.104 101.406 37.6223L95.5405 35.3405L100.738 32.336C101.888 31.6714 102.287 30.1906 101.624 29.0376C101.127 28.1727 100.173 27.7404 99.2433 27.8553C98.9333 27.8937 98.6295 27.9903 98.342 28.1566L93.137 31.1613L94.1059 24.926C94.3106 23.611 93.4194 22.3751 92.1078 22.1698ZM10.7795 22.3054C9.46867 22.5148 8.57267 23.7472 8.78163 25.0615L9.77308 31.2967L4.56046 28.3072C4.2724 28.1419 3.96916 28.0433 3.65915 28.0059C2.72919 27.8941 1.78 28.3368 1.2857 29.2034C0.626659 30.3586 1.02727 31.8334 2.17951 32.4941L7.38457 35.4837L1.52605 37.7804C0.290218 38.2662 -0.317892 39.6665 0.166582 40.9056C0.651055 42.1447 2.04778 42.7544 3.28363 42.2686L12.74 38.5486L20.0555 42.7431L9.12711 47.0356C7.89128 47.5211 7.28317 48.9214 7.76765 50.1605C8.25212 51.3996 9.64132 52.0093 10.8772 51.5237L25.4108 45.8155L35.6708 51.7045V48.8352L38.0065 47.4874L27.7994 41.636L25.3432 26.176C25.1344 24.8617 23.8975 23.9708 22.5867 24.1805C21.2758 24.3899 20.3875 25.6222 20.5963 26.9365L22.4439 38.5636L15.1284 34.3692L13.5286 24.3084C13.3195 22.9941 12.0904 22.0958 10.7795 22.3054ZM67.3292 64.3029V67.1645L64.9935 68.52L75.2007 74.3711L77.6568 89.8237C77.8659 91.138 79.1025 92.0289 80.4134 91.8192C81.7243 91.6098 82.6128 90.3775 82.4037 89.0632L80.5561 77.4361L87.8642 81.6305L89.4717 91.6988C89.6805 93.013 90.9097 93.9039 92.2206 93.6945C93.5314 93.4849 94.4275 92.2525 94.2186 90.9382L93.2269 84.7105L98.4322 87.6925C99.5844 88.3533 101.055 87.9516 101.714 86.7966C102.373 85.6413 101.973 84.1663 100.821 83.5056L95.6081 80.516L101.474 78.2193C102.71 77.7335 103.318 76.3332 102.833 75.0941C102.47 74.1649 101.592 73.5904 100.655 73.5653C100.343 73.5571 100.025 73.6097 99.7164 73.7311L90.2603 77.4511L82.9445 73.2566L93.873 68.9644C95.1088 68.4786 95.7169 67.0783 95.2324 65.8392C94.869 64.9097 93.9982 64.3352 93.0618 64.3104C92.7496 64.3022 92.4318 64.3547 92.123 64.4762L77.5893 70.1842L67.3292 64.3029ZM35.6708 64.3706L25.4559 70.2746L10.8997 64.6042C10.5904 64.4837 10.2729 64.4367 9.96084 64.4461C9.0246 64.474 8.15055 65.0517 7.79019 65.9823C7.30968 67.2228 7.91976 68.6181 9.15716 69.0998L20.1082 73.3622L12.8075 77.5793L3.33619 73.8892C3.02684 73.7687 2.70189 73.7142 2.38982 73.7236C1.45358 73.7516 0.579526 74.3292 0.21917 75.2599C-0.261337 76.5004 0.356266 77.8957 1.59366 78.3774L7.46721 80.6666L2.26214 83.6714C1.11202 84.3357 0.713065 85.8091 1.37583 86.9621C2.03862 88.1152 3.508 88.5078 4.65812 87.8431L9.86321 84.8387L8.88676 91.0739C8.68206 92.3887 9.58068 93.6246 10.8922 93.8299C12.2037 94.0353 13.4365 93.1342 13.6413 91.8192L15.2036 81.751L22.504 77.534L20.6939 89.161C20.4891 90.476 21.3878 91.712 22.6994 91.9173C24.011 92.1224 25.236 91.2216 25.4408 89.9066L27.8443 74.4466L38.0592 68.5501L35.6708 67.1645V64.3706ZM49.0929 74.936V86.7665L36.9401 96.5636C35.9059 97.3978 35.7398 98.9155 36.5721 99.9522C37.4042 100.989 38.9179 101.156 39.9519 100.321L49.0929 92.9415V101.391L41.1763 107.776C40.142 108.611 39.9834 110.128 40.8157 111.165C41.6481 112.202 43.1541 112.361 44.1881 111.527L49.0929 107.573V113.59C49.0929 114.921 50.169 116 51.4964 116C52.8236 116 53.8999 114.921 53.8999 113.59V107.573L58.8045 111.527C59.8385 112.361 61.3522 112.202 62.1843 111.165C63.0166 110.128 62.858 108.611 61.8238 107.776L53.8999 101.383V92.9338L63.0481 100.321C64.0823 101.156 65.5958 100.989 66.4279 99.9522C67.2602 98.9155 67.0942 97.3978 66.0599 96.5636L53.8999 86.7588V74.936L51.4964 76.3291L49.0929 74.936Z" fill="#AF52DE"/>
<path d="M51.5035 34.4446L31.1562 46.2223V69.7777L51.5035 81.5554L71.8432 69.7777V46.2223L51.5035 34.4446ZM51.5035 41.7189C52.1672 41.7189 52.7053 42.2585 52.7053 42.9238V56.4939L64.4224 49.6938C64.5658 49.6104 64.718 49.5627 64.873 49.5432C65.3376 49.4848 65.8104 49.6986 66.0596 50.1304C66.3923 50.7064 66.1985 51.4464 65.6241 51.7797L53.877 58.5872L65.5864 65.4625C66.1591 65.7989 66.3574 66.5375 66.0221 67.1117C65.6868 67.686 64.9499 67.8773 64.3772 67.5409L52.7053 60.6883V74.2507C52.7053 74.916 52.1672 75.4555 51.5035 75.4555C50.8397 75.4555 50.3018 74.916 50.3018 74.2507V60.6731L38.5773 67.4732C38.0029 67.8067 37.2722 67.6123 36.9398 67.0366C36.6074 66.4606 36.8011 65.7206 37.3755 65.3873L49.1075 58.5798L37.413 51.7119C36.8403 51.3755 36.642 50.6369 36.9773 50.0627C37.2289 49.6321 37.7072 49.4147 38.1716 49.4754C38.3264 49.4955 38.479 49.5494 38.6222 49.6335L50.3018 56.4862V42.9238C50.3018 42.2585 50.8397 41.7189 51.5035 41.7189Z" fill="#AF52DE"/>
</g>
</g>
<path d="M118.958 36.432C117.486 36.432 116.238 35.184 116.238 33.68C116.238 32.208 117.486 30.96 118.958 30.96C120.43 30.96 121.678 32.208 121.678 33.68C121.678 35.184 120.43 36.432 118.958 36.432ZM121.198 52.72C121.198 53.584 120.782 54 119.918 54H117.998C117.134 54 116.718 53.584 116.718 52.72V39.92C116.718 39.056 117.134 38.64 117.998 38.64H119.918C120.782 38.64 121.198 39.056 121.198 39.92V52.72ZM128.173 53.36C128.173 54.224 127.757 54.64 126.893 54.64H124.973C124.109 54.64 123.693 54.224 123.693 53.36V38C123.693 37.136 124.109 36.72 124.973 36.72H126.893C127.757 36.72 128.173 37.136 128.173 38V40.4C129.389 38.512 131.405 37.616 133.197 37.616C136.301 37.616 138.605 39.632 138.605 44.272V52.72C138.605 53.584 138.189 54 137.325 54H135.405C134.541 54 134.125 53.584 134.125 52.72V45.712C134.125 43.376 133.197 42.256 131.661 42.256C129.549 42.256 128.173 43.568 128.173 46.512V53.36ZM149.56 54H147.128C146.328 54 146.168 53.84 145.656 52.784L139.768 40.592C139.256 39.504 139.512 39.312 140.632 38.832L142.136 38.192C143.192 37.744 143.48 38.16 144.056 39.44L147.864 47.728L150.84 38.32C151.256 37.04 151.672 36.752 152.728 37.072L154.552 37.616C155.672 37.936 155.768 38.288 155.416 39.376L151.032 52.784C150.68 53.84 150.36 54 149.56 54ZM164.322 54.384C159.234 54.384 155.938 50.96 155.938 46C155.938 41.424 158.658 37.616 163.97 37.616C168.098 37.616 170.882 40.4 170.882 44.848C170.882 46.128 170.754 46.672 169.634 46.8L160.706 47.824C161.346 49.232 162.754 50.224 164.93 50.224C166.146 50.224 167.522 49.488 168.61 48.88C169.09 48.592 169.57 48.848 169.794 49.456L170.434 51.12C170.658 51.728 170.818 52.048 170.306 52.464C168.738 53.712 166.37 54.384 164.322 54.384ZM163.65 41.776C161.986 41.776 160.898 42.512 160.514 44.368L166.274 43.696C165.986 42.544 165.026 41.776 163.65 41.776ZM176.911 52.72C176.911 53.584 176.495 54 175.631 54H173.711C172.847 54 172.431 53.584 172.431 52.72V37.68C172.431 36.816 172.847 36.4 173.711 36.4H175.631C176.495 36.4 176.911 36.816 176.911 37.68V40.336C177.967 38.608 179.599 37.616 181.103 37.616C181.807 37.616 182.543 37.776 182.959 38.032C183.215 38.192 183.279 38.416 183.247 38.64L182.927 42.32C182.895 42.8 182.607 42.96 182.063 42.832C181.167 42.64 180.559 42.576 180.015 42.576C178.255 42.576 176.911 43.92 176.911 46.512V52.72ZM189.073 53.36C189.073 54.224 188.657 54.64 187.793 54.64H185.873C185.009 54.64 184.593 54.224 184.593 53.36V38C184.593 37.136 185.009 36.72 185.873 36.72H187.793C188.657 36.72 189.073 37.136 189.073 38V40.4C190.289 38.512 192.305 37.616 194.097 37.616C197.201 37.616 199.505 39.632 199.505 44.272V52.72C199.505 53.584 199.089 54 198.225 54H196.305C195.441 54 195.025 53.584 195.025 52.72V45.712C195.025 43.376 194.097 42.256 192.561 42.256C190.449 42.256 189.073 43.568 189.073 46.512V53.36ZM209.02 54.384C204.028 54.384 200.988 50.8 200.988 46C200.988 41.2 204.028 37.616 209.02 37.616C214.012 37.616 217.052 41.2 217.052 46C217.052 50.8 214.012 54.384 209.02 54.384ZM209.02 49.744C210.972 49.744 212.572 48.72 212.572 46C212.572 43.28 210.972 42.256 209.02 42.256C207.068 42.256 205.468 43.28 205.468 46C205.468 48.72 207.068 49.744 209.02 49.744Z" fill="black"/>
<path d="M119.849 89.76C119.849 90.4 119.529 90.72 118.889 90.72H118.249C117.609 90.72 117.289 90.4 117.289 89.76V68.96C117.289 68.32 117.609 68 118.249 68H118.889C119.529 68 119.849 68.32 119.849 68.96V70.592C121.065 69.056 122.857 68.32 124.649 68.32C128.233 68.32 131.081 71.52 131.081 76.48C131.081 81.28 128.105 84.32 124.329 84.32C122.921 84.32 121.321 83.904 119.849 83.232V89.76ZM124.329 81.6C126.729 81.6 128.521 79.936 128.521 76.48C128.521 72.992 126.441 71.04 124.137 71.04C121.897 71.04 119.849 72.992 119.849 75.552V80.224C121.225 81.152 122.793 81.6 124.329 81.6ZM144.285 83.04V81.728C143.005 83.328 141.085 84.32 139.101 84.32C136.061 84.32 133.853 82.528 133.853 78.368V69.28C133.853 68.64 134.173 68.32 134.813 68.32H135.453C136.093 68.32 136.413 68.64 136.413 69.28V77.248C136.413 80.192 137.789 81.6 139.997 81.6C142.237 81.6 144.285 79.648 144.285 77.088V68.32C144.285 67.68 144.605 67.36 145.245 67.36H145.885C146.525 67.36 146.845 67.68 146.845 68.32V83.04C146.845 83.68 146.525 84 145.885 84H145.245C144.605 84 144.285 83.68 144.285 83.04ZM153.174 83.36C153.174 84 152.854 84.32 152.214 84.32H151.574C150.934 84.32 150.614 84 150.614 83.36V68C150.614 67.36 150.934 67.04 151.574 67.04H152.214C152.854 67.04 153.174 67.36 153.174 68V70.048C154.166 68.768 155.606 68 157.334 68C158.07 68 158.838 68.192 159.254 68.416C159.478 68.544 159.51 68.672 159.478 68.96L159.158 70.944C159.094 71.328 158.87 71.36 158.55 71.296C157.654 71.136 157.078 71.04 156.598 71.04C154.646 71.04 153.174 72.672 153.174 74.912V83.36ZM168.12 84.32C163.544 84.32 160.728 80.896 160.728 76.32C160.728 71.552 163.544 68 168.12 68C172.696 68 175.48 71.552 175.48 76.32C175.48 80.896 172.696 84.32 168.12 84.32ZM168.12 81.6C171.064 81.6 172.92 79.872 172.92 76.32C172.92 72.576 171.064 70.72 168.12 70.72C165.176 70.72 163.288 72.544 163.288 76.32C163.288 79.872 165.176 81.6 168.12 81.6Z" fill="black"/>
<defs>
<clipPath id="clip0_304_10053">
<rect width="103" height="116" fill="white"/>
</clipPath>
</defs>
</svg>
